0, 0, Header, 1, 11, 480
1, 0, Start_track
1, 0, Title_t, "Das wohltemperierte Klavier I - Praeludium und Fuge 1 in C-Dur BWV 846"
1, 0, Copyright_t, "Copyright © 1996  Bernd Krueger."
1, 0, Text_t, "Johann Sebastian Bach"
1, 0, Text_t, "Fertiggestellt am 29.10.97\012"
1, 0, Text_t, "Pan's auf Standard am 18.1.98\012"
1, 0, Text_t, "Normierung: 23.12.2002\012"
1, 0, Text_t, "Update am 25.9.2004\012"
1, 0, Text_t, "Dauer: 3:46 Minuten\012"
1, 0, Time_signature, 4, 2, 24, 8
1, 0, Key_signature, 0, "major"
1, 0, Tempo, 810811
1, 0, Marker_t, "Prelude"
1, 480, Tempo, 794702
1, 600, Tempo, 810811
1, 1560, Tempo, 800000
1, 1920, Tempo, 810811
1, 2280, Tempo, 789474
1, 2400, Tempo, 769231
1, 2520, Tempo, 789474
1, 2880, Tempo, 794702
1, 3240, Tempo, 779221
1, 3360, Tempo, 759494
1, 3480, Tempo, 779221
1, 3720, Tempo, 810811
1, 3840, Tempo, 805369
1, 4200, Tempo, 779221
1, 4320, Tempo, 750000
1, 4440, Tempo, 779221
1, 4680, Tempo, 779221
1, 4800, Tempo, 805369
1, 5160, Tempo, 789474
1, 5280, Tempo, 769231
1, 5400, Tempo, 789474
1, 5640, Tempo, 827586
1, 5760, Tempo, 789474
1, 6240, Tempo, 764331
1, 6360, Tempo, 789474
1, 6600, Tempo, 816327
1, 6720, Tempo, 789474
1, 7200, Tempo, 769231
1, 7320, Tempo, 789474
1, 7680, Tempo, 810811
1, 8040, Tempo, 789474
1, 8160, Tempo, 769231
1, 8280, Tempo, 784314
1, 8640, Tempo, 810811
1, 9000, Tempo, 784314
1, 9120, Tempo, 769231
1, 9240, Tempo, 784314
1, 9480, Tempo, 805369
1, 9600, Tempo, 784314
1, 10080, Tempo, 764331
1, 10200, Tempo, 779221
1, 10560, Tempo, 805369
1, 11040, Tempo, 779221
1, 11400, Tempo, 827586
1, 11520, Tempo, 800000
1, 11880, Tempo, 779221
1, 12000, Tempo, 769231
1, 12120, Tempo, 779221
1, 12360, Tempo, 810811
1, 12480, Tempo, 800000
1, 12840, Tempo, 774194
1, 13320, Tempo, 827586
1, 13440, Tempo, 805369
1, 13920, Tempo, 774194
1, 14280, Tempo, 810811
1, 14400, Tempo, 784314
1, 14880, Tempo, 774194
1, 15240, Tempo, 827586
1, 15360, Tempo, 789474
1, 15960, Tempo, 810811
1, 16320, Tempo, 794702
1, 16920, Tempo, 816327
1, 17160, Tempo, 875912
1, 17280, Tempo, 816327
1, 17640, Tempo, 800000
1, 18240, Tempo, 816327
1, 18600, Tempo, 794702
1, 19080, Tempo, 827586
1, 19200, Tempo, 794702
1, 19680, Tempo, 784314
1, 20160, Tempo, 794702
1, 20640, Tempo, 779221
1, 21020, Tempo, 810811
1, 21120, Tempo, 794702
1, 21600, Tempo, 779221
1, 21960, Tempo, 827586
1, 22080, Tempo, 794702
1, 22580, Tempo, 784314
1, 22920, Tempo, 821918
1, 23040, Tempo, 833333
1, 23160, Tempo, 794702
1, 23520, Tempo, 784314
1, 24000, Tempo, 794702
1, 24480, Tempo, 784314
1, 24840, Tempo, 833333
1, 24960, Tempo, 800000
1, 25440, Tempo, 784314
1, 25920, Tempo, 800000
1, 26400, Tempo, 784314
1, 26760, Tempo, 821918
1, 26880, Tempo, 800000
1, 27240, Tempo, 794702
1, 27360, Tempo, 774194
1, 27840, Tempo, 794702
1, 28320, Tempo, 779221
1, 28680, Tempo, 845070
1, 28800, Tempo, 805369
1, 29280, Tempo, 784314
1, 29760, Tempo, 805369
1, 30240, Tempo, 789474
1, 30600, Tempo, 851064
1, 30720, Tempo, 805369
1, 31200, Tempo, 789474
1, 31560, Tempo, 845070
1, 31680, Tempo, 805369
1, 32160, Tempo, 794702
1, 32520, Tempo, 851064
1, 32640, Tempo, 805369
1, 33600, Tempo, 805369
1, 34560, Tempo, 827586
1, 34920, Tempo, 805369
1, 35520, Tempo, 821918
1, 35880, Tempo, 800000
1, 36480, Tempo, 800000
1, 36960, Tempo, 779221
1, 37080, Tempo, 794702
1, 37440, Tempo, 800000
1, 37920, Tempo, 779221
1, 38040, Tempo, 800000
1, 38280, Tempo, 875912
1, 38400, Tempo, 800000
1, 38880, Tempo, 784314
1, 39360, Tempo, 800000
1, 39840, Tempo, 789474
1, 40200, Tempo, 863309
1, 40320, Tempo, 816327
1, 40800, Tempo, 805369
1, 41280, Tempo, 816327
1, 41760, Tempo, 800000
1, 42120, Tempo, 937500
1, 42240, Tempo, 789474
1, 42840, Tempo, 769231
1, 43080, Tempo, 821918
1, 43200, Tempo, 789474
1, 43800, Tempo, 774194
1, 44040, Tempo, 816327
1, 44160, Tempo, 816327
1, 44520, Tempo, 789474
1, 45120, Tempo, 810811
1, 45480, Tempo, 789474
1, 45960, Tempo, 833333
1, 46080, Tempo, 805369
1, 46560, Tempo, 789474
1, 47040, Tempo, 805369
1, 47520, Tempo, 784314
1, 48000, Tempo, 789474
1, 48480, Tempo, 769231
1, 48840, Tempo, 816327
1, 48960, Tempo, 810811
1, 49080, Tempo, 794702
1, 49440, Tempo, 769231
1, 49680, Tempo, 779221
1, 49800, Tempo, 816327
1, 49920, Tempo, 794702
1, 50400, Tempo, 779221
1, 50880, Tempo, 794702
1, 51360, Tempo, 779221
1, 51720, Tempo, 821918
1, 51840, Tempo, 794702
1, 52440, Tempo, 816327
1, 52800, Tempo, 794702
1, 53400, Tempo, 821918
1, 53640, Tempo, 869565
1, 53760, Tempo, 857143
1, 54120, Tempo, 800000
1, 54360, Tempo, 800000
1, 54720, Tempo, 839161
1, 55080, Tempo, 800000
1, 55560, Tempo, 857143
1, 55680, Tempo, 800000
1, 56280, Tempo, 784314
1, 56640, Tempo, 800000
1, 57240, Tempo, 784314
1, 57600, Tempo, 851064
1, 57720, Tempo, 800000
1, 58560, Tempo, 839161
1, 58680, Tempo, 805369
1, 59520, Tempo, 816327
1, 60000, Tempo, 805369
1, 60360, Tempo, 851064
1, 60480, Tempo, 816327
1, 60960, Tempo, 805369
1, 61320, Tempo, 839161
1, 61440, Tempo, 816327
1, 61800, Tempo, 794702
1, 62020, Tempo, 816327
1, 62400, Tempo, 789474
1, 62520, Tempo, 816327
1, 62880, Tempo, 845070
1, 63120, Tempo, 902256
1, 63240, Tempo, 1008403
1, 63360, Tempo, 845070
1, 64320, Tempo, 944882
1, 64800, Tempo, 1100917
1, 64820, Tempo, 1111111
1, 64840, Tempo, 1121495
1, 64860, Tempo, 1142857
1, 64880, Tempo, 1153846
1, 64900, Tempo, 1176471
1, 64920, Tempo, 1188119
1, 64940, Tempo, 1200000
1, 64960, Tempo, 1224490
1, 64980, Tempo, 1237113
1, 65000, Tempo, 1263158
1, 65020, Tempo, 1276596
1, 65040, Tempo, 1290323
1, 65060, Tempo, 1318681
1, 65080, Tempo, 1333333
1, 65100, Tempo, 1363636
1, 65120, Tempo, 1379310
1, 65140, Tempo, 1411765
1, 65160, Tempo, 1904762
1, 67200, Tempo, 961384
1, 67200, Marker_t, "Fugue"
1, 68160, Tempo, 960000
1, 68520, Tempo, 895522
1, 68640, Tempo, 952381
1, 69120, Tempo, 975610
1, 69360, Tempo, 944882
1, 70200, Tempo, 975610
1, 70320, Tempo, 944882
1, 70800, Tempo, 975610
1, 71040, Tempo, 944882
1, 71400, Tempo, 895522
1, 71520, Tempo, 944882
1, 72000, Tempo, 967742
1, 72240, Tempo, 937500
1, 72960, Tempo, 960000
1, 73200, Tempo, 944882
1, 73440, Tempo, 937500
1, 74160, Tempo, 975610
1, 74280, Tempo, 888889
1, 74400, Tempo, 937500
1, 74880, Tempo, 975610
1, 75120, Tempo, 937500
1, 76080, Tempo, 967742
1, 76320, Tempo, 937500
1, 77160, Tempo, 875912
1, 77280, Tempo, 944882
1, 77760, Tempo, 967742
1, 78000, Tempo, 944882
1, 78480, Tempo, 902256
1, 78720, Tempo, 944882
1, 79440, Tempo, 967742
1, 79680, Tempo, 944882
1, 80040, Tempo, 895522
1, 80160, Tempo, 937500
1, 80660, Tempo, 967742
1, 80880, Tempo, 944882
1, 81120, Tempo, 944882
1, 81360, Tempo, 909091
1, 81600, Tempo, 975610
1, 81840, Tempo, 944882
1, 82320, Tempo, 909091
1, 82440, Tempo, 967742
1, 82560, Tempo, 944882
1, 83880, Tempo, 895522
1, 84000, Tempo, 944882
1, 84360, Tempo, 937500
1, 84480, Tempo, 975610
1, 84720, Tempo, 937500
1, 84960, Tempo, 902256
1, 85060, Tempo, 909091
1, 85160, Tempo, 916031
1, 85260, Tempo, 923077
1, 85360, Tempo, 930233
1, 85440, Tempo, 909091
1, 85560, Tempo, 916031
1, 85680, Tempo, 923077
1, 85800, Tempo, 930233
1, 85920, Tempo, 937500
1, 86160, Tempo, 960000
1, 86400, Tempo, 937500
1, 86760, Tempo, 895522
1, 86880, Tempo, 937500
1, 87240, Tempo, 888889
1, 87360, Tempo, 937500
1, 87840, Tempo, 975610
1, 88080, Tempo, 937500
1, 88560, Tempo, 967742
1, 88800, Tempo, 944882
1, 89640, Tempo, 895522
1, 89760, Tempo, 937500
1, 90240, Tempo, 975610
1, 90480, Tempo, 937500
1, 91440, Tempo, 992720
1, 91680, Tempo, 1052816
1, 92160, Tempo, 961384
1, 92880, Tempo, 1008403
1, 93120, Tempo, 960000
1, 93480, Tempo, 909091
1, 93600, Tempo, 952381
1, 94080, Tempo, 975610
1, 94320, Tempo, 952381
1, 94680, Tempo, 923077
1, 94920, Tempo, 975610
1, 95040, Tempo, 952381
1, 95760, Tempo, 983607
1, 96000, Tempo, 952381
1, 96360, Tempo, 909091
1, 96480, Tempo, 975610
1, 96720, Tempo, 952381
1, 97320, Tempo, 1000000
1, 97440, Tempo, 952381
1, 97800, Tempo, 916031
1, 97920, Tempo, 975610
1, 98160, Tempo, 952381
1, 99120, Tempo, 909091
1, 99360, Tempo, 952381
1, 99840, Tempo, 983607
1, 100080, Tempo, 983607
1, 100320, Tempo, 952381
1, 100560, Tempo, 916031
1, 100800, Tempo, 952381
1, 101280, Tempo, 952381
1, 101520, Tempo, 991736
1, 101760, Tempo, 952381
1, 102120, Tempo, 991736
1, 103200, Tempo, 960000
1, 103680, Tempo, 960000
1, 104280, Tempo, 1034483
1, 104400, Tempo, 967742
1, 104880, Tempo, 937500
1, 105120, Tempo, 960000
1, 105960, Tempo, 1008403
1, 106080, Tempo, 960000
1, 106560, Tempo, 1008403
1, 106800, Tempo, 952381
1, 107760, Tempo, 916031
1, 108000, Tempo, 952381
1, 108240, Tempo, 983607
1, 109200, Tempo, 960000
1, 109440, Tempo, 975610
1, 110400, Tempo, 1009082
1, 110640, Tempo, 1120239
1, 111360, Tempo, 1052816
1, 112560, Tempo, 1000000
1, 112680, Tempo, 1121495
1, 112800, Tempo, 1052632
1, 113520, Tempo, 1008403
1, 113640, Tempo, 1111111
1, 113760, Tempo, 1052632
1, 114360, Tempo, 1090314
1, 115360, Tempo, 1100110
1, 115520, Tempo, 1110083
1, 115680, Tempo, 1120239
1, 115840, Tempo, 1130795
1, 116000, Tempo, 1141335
1, 116160, Tempo, 1152074
1, 116280, Tempo, 1081081
1, 116400, Tempo, 1153846
1, 117000, Tempo, 1100917
1, 117120, Tempo, 1153846
1, 117600, Tempo, 1327140
1, 117720, Tempo, 1586043
1, 117960, Tempo, 2262443
1, 119040, Tempo, 2222222
1, 119040, Marker_t, "Fine"
1, 134400, Tempo, 961384
1, 134400, End_track
2, 0, Start_track
2, 0, MIDI_port, 0
2, 0, Title_t, "Piano right"
2, 0, Program_c, 0, 0
2, 0, Control_c, 0, 7, 100
2, 0, Control_c, 0, 10, 64
2, 0, Control_c, 0, 91, 127
2, 0, Text_t, "bdca426d104a26ac9dcb070447587523"
2, 241, Note_on_c, 0, 67, 56
2, 361, Note_on_c, 0, 67, 0
2, 361, Note_on_c, 0, 72, 60
2, 481, Note_on_c, 0, 72, 0
2, 481, Note_on_c, 0, 76, 63
2, 589, Note_on_c, 0, 76, 0
2, 601, Note_on_c, 0, 67, 50
2, 721, Note_on_c, 0, 67, 0
2, 721, Note_on_c, 0, 72, 47
2, 841, Note_on_c, 0, 72, 0
2, 841, Note_on_c, 0, 76, 47
2, 961, Note_on_c, 0, 76, 0
2, 1201, Note_on_c, 0, 67, 56
2, 1321, Note_on_c, 0, 67, 0
2, 1321, Note_on_c, 0, 72, 60
2, 1441, Note_on_c, 0, 72, 0
2, 1441, Note_on_c, 0, 76, 62
2, 1549, Note_on_c, 0, 76, 0
2, 1561, Note_on_c, 0, 67, 50
2, 1681, Note_on_c, 0, 67, 0
2, 1681, Note_on_c, 0, 72, 48
2, 1801, Note_on_c, 0, 72, 0
2, 1801, Note_on_c, 0, 76, 48
2, 1920, Control_c, 0, 91, 127
2, 1921, Note_on_c, 0, 76, 0
2, 2161, Note_on_c, 0, 69, 56
2, 2281, Note_on_c, 0, 69, 0
2, 2281, Note_on_c, 0, 74, 60
2, 2401, Note_on_c, 0, 74, 0
2, 2401, Note_on_c, 0, 77, 65
2, 2509, Note_on_c, 0, 77, 0
2, 2521, Note_on_c, 0, 69, 51
2, 2641, Note_on_c, 0, 69, 0
2, 2641, Note_on_c, 0, 74, 50
2, 2761, Note_on_c, 0, 74, 0
2, 2761, Note_on_c, 0, 77, 50
2, 2881, Note_on_c, 0, 77, 0
2, 3121, Note_on_c, 0, 69, 58
2, 3241, Note_on_c, 0, 69, 0
2, 3241, Note_on_c, 0, 74, 60
2, 3361, Note_on_c, 0, 74, 0
2, 3361, Note_on_c, 0, 77, 65
2, 3469, Note_on_c, 0, 77, 0
2, 3481, Note_on_c, 0, 69, 52
2, 3601, Note_on_c, 0, 69, 0
2, 3601, Note_on_c, 0, 74, 50
2, 3721, Note_on_c, 0, 74, 0
2, 3721, Note_on_c, 0, 77, 50
2, 3840, Control_c, 0, 91, 127
2, 3841, Note_on_c, 0, 77, 0
2, 4081, Note_on_c, 0, 67, 56
2, 4201, Note_on_c, 0, 67, 0
2, 4201, Note_on_c, 0, 74, 60
2, 4321, Note_on_c, 0, 74, 0
2, 4321, Note_on_c, 0, 77, 65
2, 4429, Note_on_c, 0, 77, 0
2, 4441, Note_on_c, 0, 67, 51
2, 4561, Note_on_c, 0, 67, 0
2, 4561, Note_on_c, 0, 74, 50
2, 4681, Note_on_c, 0, 74, 0
2, 4681, Note_on_c, 0, 77, 50
2, 4801, Note_on_c, 0, 77, 0
2, 5041, Note_on_c, 0, 67, 56
2, 5161, Note_on_c, 0, 67, 0
2, 5161, Note_on_c, 0, 74, 60
2, 5281, Note_on_c, 0, 74, 0
2, 5281, Note_on_c, 0, 77, 65
2, 5389, Note_on_c, 0, 77, 0
2, 5401, Note_on_c, 0, 67, 52
2, 5521, Note_on_c, 0, 67, 0
2, 5521, Note_on_c, 0, 74, 50
2, 5641, Note_on_c, 0, 74, 0
2, 5641, Note_on_c, 0, 77, 50
2, 5760, Control_c, 0, 91, 127
2, 5761, Note_on_c, 0, 77, 0
2, 6001, Note_on_c, 0, 67, 53
2, 6121, Note_on_c, 0, 67, 0
2, 6121, Note_on_c, 0, 72, 55
2, 6241, Note_on_c, 0, 72, 0
2, 6241, Note_on_c, 0, 76, 60
2, 6349, Note_on_c, 0, 76, 0
2, 6361, Note_on_c, 0, 67, 50
2, 6481, Note_on_c, 0, 67, 0
2, 6481, Note_on_c, 0, 72, 47
2, 6601, Note_on_c, 0, 72, 0
2, 6601, Note_on_c, 0, 76, 47
2, 6721, Note_on_c, 0, 76, 0
2, 6961, Note_on_c, 0, 67, 55
2, 7081, Note_on_c, 0, 67, 0
2, 7081, Note_on_c, 0, 72, 57
2, 7201, Note_on_c, 0, 72, 0
2, 7201, Note_on_c, 0, 76, 61
2, 7309, Note_on_c, 0, 76, 0
2, 7321, Note_on_c, 0, 67, 50
2, 7441, Note_on_c, 0, 67, 0
2, 7441, Note_on_c, 0, 72, 48
2, 7561, Note_on_c, 0, 72, 0
2, 7561, Note_on_c, 0, 76, 48
2, 7680, Control_c, 0, 91, 127
2, 7681, Note_on_c, 0, 76, 0
2, 7921, Note_on_c, 0, 69, 61
2, 8041, Note_on_c, 0, 69, 0
2, 8041, Note_on_c, 0, 76, 66
2, 8161, Note_on_c, 0, 76, 0
2, 8161, Note_on_c, 0, 81, 70
2, 8269, Note_on_c, 0, 81, 0
2, 8281, Note_on_c, 0, 69, 55
2, 8401, Note_on_c, 0, 69, 0
2, 8401, Note_on_c, 0, 76, 51
2, 8521, Note_on_c, 0, 76, 0
2, 8521, Note_on_c, 0, 81, 51
2, 8641, Note_on_c, 0, 81, 0
2, 8881, Note_on_c, 0, 69, 61
2, 9001, Note_on_c, 0, 69, 0
2, 9001, Note_on_c, 0, 76, 65
2, 9121, Note_on_c, 0, 76, 0
2, 9121, Note_on_c, 0, 81, 68
2, 9229, Note_on_c, 0, 81, 0
2, 9241, Note_on_c, 0, 69, 55
2, 9361, Note_on_c, 0, 69, 0
2, 9361, Note_on_c, 0, 76, 52
2, 9481, Note_on_c, 0, 76, 0
2, 9481, Note_on_c, 0, 81, 52
2, 9600, Control_c, 0, 91, 127
2, 9601, Note_on_c, 0, 81, 0
2, 9841, Note_on_c, 0, 66, 56
2, 9961, Note_on_c, 0, 66, 0
2, 9961, Note_on_c, 0, 69, 60
2, 10081, Note_on_c, 0, 69, 0
2, 10081, Note_on_c, 0, 74, 63
2, 10189, Note_on_c, 0, 74, 0
2, 10201, Note_on_c, 0, 66, 50
2, 10321, Note_on_c, 0, 66, 0
2, 10321, Note_on_c, 0, 69, 47
2, 10441, Note_on_c, 0, 69, 0
2, 10441, Note_on_c, 0, 74, 47
2, 10561, Note_on_c, 0, 74, 0
2, 10801, Note_on_c, 0, 66, 56
2, 10921, Note_on_c, 0, 66, 0
2, 10921, Note_on_c, 0, 69, 60
2, 11041, Note_on_c, 0, 69, 0
2, 11041, Note_on_c, 0, 74, 62
2, 11149, Note_on_c, 0, 74, 0
2, 11161, Note_on_c, 0, 66, 50
2, 11281, Note_on_c, 0, 66, 0
2, 11281, Note_on_c, 0, 69, 48
2, 11401, Note_on_c, 0, 69, 0
2, 11401, Note_on_c, 0, 74, 48
2, 11520, Control_c, 0, 91, 127
2, 11521, Note_on_c, 0, 74, 0
2, 11761, Note_on_c, 0, 67, 58
2, 11881, Note_on_c, 0, 67, 0
2, 11881, Note_on_c, 0, 74, 63
2, 12001, Note_on_c, 0, 74, 0
2, 12001, Note_on_c, 0, 79, 66
2, 12109, Note_on_c, 0, 79, 0
2, 12121, Note_on_c, 0, 67, 51
2, 12241, Note_on_c, 0, 67, 0
2, 12241, Note_on_c, 0, 74, 50
2, 12361, Note_on_c, 0, 74, 0
2, 12361, Note_on_c, 0, 79, 50
2, 12481, Note_on_c, 0, 79, 0
2, 12721, Note_on_c, 0, 67, 58
2, 12841, Note_on_c, 0, 67, 0
2, 12841, Note_on_c, 0, 74, 62
2, 12961, Note_on_c, 0, 74, 0
2, 12961, Note_on_c, 0, 79, 65
2, 13069, Note_on_c, 0, 79, 0
2, 13081, Note_on_c, 0, 67, 52
2, 13201, Note_on_c, 0, 67, 0
2, 13201, Note_on_c, 0, 74, 50
2, 13321, Note_on_c, 0, 74, 0
2, 13321, Note_on_c, 0, 79, 50
2, 13440, Control_c, 0, 91, 127
2, 13441, Note_on_c, 0, 79, 0
2, 13681, Note_on_c, 0, 64, 56
2, 13801, Note_on_c, 0, 64, 0
2, 13801, Note_on_c, 0, 67, 60
2, 13921, Note_on_c, 0, 67, 0
2, 13921, Note_on_c, 0, 72, 63
2, 14029, Note_on_c, 0, 72, 0
2, 14041, Note_on_c, 0, 64, 50
2, 14161, Note_on_c, 0, 64, 0
2, 14161, Note_on_c, 0, 67, 47
2, 14281, Note_on_c, 0, 67, 0
2, 14281, Note_on_c, 0, 72, 47
2, 14401, Note_on_c, 0, 72, 0
2, 14641, Note_on_c, 0, 64, 56
2, 14761, Note_on_c, 0, 64, 0
2, 14761, Note_on_c, 0, 67, 60
2, 14881, Note_on_c, 0, 67, 0
2, 14881, Note_on_c, 0, 72, 62
2, 14989, Note_on_c, 0, 72, 0
2, 15001, Note_on_c, 0, 64, 50
2, 15121, Note_on_c, 0, 64, 0
2, 15121, Note_on_c, 0, 67, 48
2, 15241, Note_on_c, 0, 67, 0
2, 15241, Note_on_c, 0, 72, 48
2, 15360, Control_c, 0, 91, 127
2, 15361, Note_on_c, 0, 72, 0
2, 15601, Note_on_c, 0, 64, 56
2, 15721, Note_on_c, 0, 64, 0
2, 15721, Note_on_c, 0, 67, 60
2, 15841, Note_on_c, 0, 67, 0
2, 15841, Note_on_c, 0, 72, 63
2, 15949, Note_on_c, 0, 72, 0
2, 15961, Note_on_c, 0, 64, 50
2, 16081, Note_on_c, 0, 64, 0
2, 16081, Note_on_c, 0, 67, 47
2, 16201, Note_on_c, 0, 67, 0
2, 16201, Note_on_c, 0, 72, 47
2, 16321, Note_on_c, 0, 72, 0
2, 16561, Note_on_c, 0, 64, 56
2, 16681, Note_on_c, 0, 64, 0
2, 16681, Note_on_c, 0, 67, 60
2, 16801, Note_on_c, 0, 67, 0
2, 16801, Note_on_c, 0, 72, 62
2, 16909, Note_on_c, 0, 72, 0
2, 16921, Note_on_c, 0, 64, 50
2, 17041, Note_on_c, 0, 64, 0
2, 17041, Note_on_c, 0, 67, 48
2, 17161, Note_on_c, 0, 67, 0
2, 17161, Note_on_c, 0, 72, 48
2, 17280, Control_c, 0, 91, 127
2, 17281, Note_on_c, 0, 72, 0
2, 17521, Note_on_c, 0, 62, 56
2, 17641, Note_on_c, 0, 62, 0
2, 17641, Note_on_c, 0, 66, 60
2, 17761, Note_on_c, 0, 66, 0
2, 17761, Note_on_c, 0, 72, 63
2, 17869, Note_on_c, 0, 72, 0
2, 17881, Note_on_c, 0, 62, 50
2, 18001, Note_on_c, 0, 62, 0
2, 18001, Note_on_c, 0, 66, 47
2, 18121, Note_on_c, 0, 66, 0
2, 18121, Note_on_c, 0, 72, 47
2, 18241, Note_on_c, 0, 72, 0
2, 18481, Note_on_c, 0, 62, 56
2, 18601, Note_on_c, 0, 62, 0
2, 18601, Note_on_c, 0, 66, 60
2, 18721, Note_on_c, 0, 66, 0
2, 18721, Note_on_c, 0, 72, 62
2, 18829, Note_on_c, 0, 72, 0
2, 18841, Note_on_c, 0, 62, 50
2, 18961, Note_on_c, 0, 62, 0
2, 18961, Note_on_c, 0, 66, 48
2, 19081, Note_on_c, 0, 66, 0
2, 19081, Note_on_c, 0, 72, 48
2, 19200, Control_c, 0, 91, 127
2, 19201, Note_on_c, 0, 72, 0
2, 19441, Note_on_c, 0, 62, 53
2, 19561, Note_on_c, 0, 62, 0
2, 19561, Note_on_c, 0, 67, 56
2, 19681, Note_on_c, 0, 67, 0
2, 19681, Note_on_c, 0, 71, 60
2, 19789, Note_on_c, 0, 71, 0
2, 19801, Note_on_c, 0, 62, 46
2, 19921, Note_on_c, 0, 62, 0
2, 19921, Note_on_c, 0, 67, 45
2, 20041, Note_on_c, 0, 67, 0
2, 20041, Note_on_c, 0, 71, 45
2, 20161, Note_on_c, 0, 71, 0
2, 20401, Note_on_c, 0, 62, 53
2, 20521, Note_on_c, 0, 62, 0
2, 20521, Note_on_c, 0, 67, 56
2, 20641, Note_on_c, 0, 67, 0
2, 20641, Note_on_c, 0, 71, 58
2, 20749, Note_on_c, 0, 71, 0
2, 20761, Note_on_c, 0, 62, 47
2, 20881, Note_on_c, 0, 62, 0
2, 20881, Note_on_c, 0, 67, 45
2, 21001, Note_on_c, 0, 67, 0
2, 21001, Note_on_c, 0, 71, 45
2, 21120, Control_c, 0, 91, 127
2, 21121, Note_on_c, 0, 71, 0
2, 21361, Note_on_c, 0, 64, 53
2, 21481, Note_on_c, 0, 64, 0
2, 21481, Note_on_c, 0, 67, 56
2, 21601, Note_on_c, 0, 67, 0
2, 21601, Note_on_c, 0, 73, 60
2, 21709, Note_on_c, 0, 73, 0
2, 21721, Note_on_c, 0, 64, 46
2, 21841, Note_on_c, 0, 64, 0
2, 21841, Note_on_c, 0, 67, 45
2, 21961, Note_on_c, 0, 67, 0
2, 21961, Note_on_c, 0, 73, 45
2, 22081, Note_on_c, 0, 73, 0
2, 22321, Note_on_c, 0, 64, 53
2, 22441, Note_on_c, 0, 64, 0
2, 22441, Note_on_c, 0, 67, 56
2, 22561, Note_on_c, 0, 67, 0
2, 22561, Note_on_c, 0, 73, 58
2, 22669, Note_on_c, 0, 73, 0
2, 22681, Note_on_c, 0, 64, 47
2, 22801, Note_on_c, 0, 64, 0
2, 22801, Note_on_c, 0, 67, 45
2, 22921, Note_on_c, 0, 67, 0
2, 22921, Note_on_c, 0, 73, 45
2, 23040, Control_c, 0, 91, 127
2, 23041, Note_on_c, 0, 73, 0
2, 23281, Note_on_c, 0, 62, 56
2, 23401, Note_on_c, 0, 62, 0
2, 23401, Note_on_c, 0, 69, 60
2, 23521, Note_on_c, 0, 69, 0
2, 23521, Note_on_c, 0, 74, 63
2, 23629, Note_on_c, 0, 74, 0
2, 23641, Note_on_c, 0, 62, 50
2, 23761, Note_on_c, 0, 62, 0
2, 23761, Note_on_c, 0, 69, 47
2, 23881, Note_on_c, 0, 69, 0
2, 23881, Note_on_c, 0, 74, 47
2, 24001, Note_on_c, 0, 74, 0
2, 24241, Note_on_c, 0, 62, 56
2, 24361, Note_on_c, 0, 62, 0
2, 24361, Note_on_c, 0, 69, 60
2, 24481, Note_on_c, 0, 69, 0
2, 24481, Note_on_c, 0, 74, 62
2, 24589, Note_on_c, 0, 74, 0
2, 24601, Note_on_c, 0, 62, 50
2, 24721, Note_on_c, 0, 62, 0
2, 24721, Note_on_c, 0, 69, 48
2, 24841, Note_on_c, 0, 69, 0
2, 24841, Note_on_c, 0, 74, 48
2, 24960, Control_c, 0, 91, 127
2, 24961, Note_on_c, 0, 74, 0
2, 25201, Note_on_c, 0, 62, 53
2, 25321, Note_on_c, 0, 62, 0
2, 25321, Note_on_c, 0, 65, 56
2, 25441, Note_on_c, 0, 65, 0
2, 25441, Note_on_c, 0, 71, 60
2, 25549, Note_on_c, 0, 71, 0
2, 25561, Note_on_c, 0, 62, 46
2, 25681, Note_on_c, 0, 62, 0
2, 25681, Note_on_c, 0, 65, 45
2, 25801, Note_on_c, 0, 65, 0
2, 25801, Note_on_c, 0, 71, 45
2, 25921, Note_on_c, 0, 71, 0
2, 26161, Note_on_c, 0, 62, 53
2, 26281, Note_on_c, 0, 62, 0
2, 26281, Note_on_c, 0, 65, 56
2, 26401, Note_on_c, 0, 65, 0
2, 26401, Note_on_c, 0, 71, 58
2, 26509, Note_on_c, 0, 71, 0
2, 26521, Note_on_c, 0, 62, 47
2, 26641, Note_on_c, 0, 62, 0
2, 26641, Note_on_c, 0, 65, 45
2, 26761, Note_on_c, 0, 65, 0
2, 26761, Note_on_c, 0, 71, 45
2, 26880, Control_c, 0, 91, 127
2, 26881, Note_on_c, 0, 71, 0
2, 27121, Note_on_c, 0, 60, 53
2, 27241, Note_on_c, 0, 60, 0
2, 27241, Note_on_c, 0, 67, 56
2, 27361, Note_on_c, 0, 67, 0
2, 27361, Note_on_c, 0, 72, 60
2, 27469, Note_on_c, 0, 72, 0
2, 27481, Note_on_c, 0, 60, 46
2, 27601, Note_on_c, 0, 60, 0
2, 27601, Note_on_c, 0, 67, 45
2, 27721, Note_on_c, 0, 67, 0
2, 27721, Note_on_c, 0, 72, 45
2, 27841, Note_on_c, 0, 72, 0
2, 28081, Note_on_c, 0, 60, 53
2, 28201, Note_on_c, 0, 60, 0
2, 28201, Note_on_c, 0, 67, 56
2, 28321, Note_on_c, 0, 67, 0
2, 28321, Note_on_c, 0, 72, 58
2, 28429, Note_on_c, 0, 72, 0
2, 28441, Note_on_c, 0, 60, 47
2, 28561, Note_on_c, 0, 60, 0
2, 28561, Note_on_c, 0, 67, 45
2, 28681, Note_on_c, 0, 67, 0
2, 28681, Note_on_c, 0, 72, 45
2, 28800, Control_c, 0, 91, 127
2, 28801, Note_on_c, 0, 72, 0
2, 29041, Note_on_c, 0, 57, 50
2, 29161, Note_on_c, 0, 57, 0
2, 29161, Note_on_c, 0, 60, 53
2, 29281, Note_on_c, 0, 60, 0
2, 29281, Note_on_c, 0, 65, 56
2, 29389, Note_on_c, 0, 65, 0
2, 29401, Note_on_c, 0, 57, 45
2, 29521, Note_on_c, 0, 57, 0
2, 29521, Note_on_c, 0, 60, 42
2, 29641, Note_on_c, 0, 60, 0
2, 29641, Note_on_c, 0, 65, 42
2, 29761, Note_on_c, 0, 65, 0
2, 30001, Note_on_c, 0, 57, 50
2, 30121, Note_on_c, 0, 57, 0
2, 30121, Note_on_c, 0, 60, 53
2, 30241, Note_on_c, 0, 60, 0
2, 30241, Note_on_c, 0, 65, 55
2, 30349, Note_on_c, 0, 65, 0
2, 30361, Note_on_c, 0, 57, 45
2, 30481, Note_on_c, 0, 57, 0
2, 30481, Note_on_c, 0, 60, 43
2, 30601, Note_on_c, 0, 60, 0
2, 30601, Note_on_c, 0, 65, 43
2, 30720, Control_c, 0, 91, 127
2, 30721, Note_on_c, 0, 65, 0
2, 30961, Note_on_c, 0, 57, 50
2, 31081, Note_on_c, 0, 57, 0
2, 31081, Note_on_c, 0, 60, 53
2, 31201, Note_on_c, 0, 60, 0
2, 31201, Note_on_c, 0, 65, 56
2, 31309, Note_on_c, 0, 65, 0
2, 31321, Note_on_c, 0, 57, 45
2, 31441, Note_on_c, 0, 57, 0
2, 31441, Note_on_c, 0, 60, 42
2, 31561, Note_on_c, 0, 60, 0
2, 31561, Note_on_c, 0, 65, 42
2, 31681, Note_on_c, 0, 65, 0
2, 31921, Note_on_c, 0, 57, 50
2, 32041, Note_on_c, 0, 57, 0
2, 32041, Note_on_c, 0, 60, 53
2, 32161, Note_on_c, 0, 60, 0
2, 32161, Note_on_c, 0, 65, 55
2, 32269, Note_on_c, 0, 65, 0
2, 32281, Note_on_c, 0, 57, 45
2, 32401, Note_on_c, 0, 57, 0
2, 32401, Note_on_c, 0, 60, 43
2, 32521, Note_on_c, 0, 60, 0
2, 32521, Note_on_c, 0, 65, 43
2, 32640, Control_c, 0, 91, 127
2, 32641, Note_on_c, 0, 65, 0
2, 32881, Note_on_c, 0, 55, 50
2, 33001, Note_on_c, 0, 55, 0
2, 33001, Note_on_c, 0, 59, 53
2, 33121, Note_on_c, 0, 59, 0
2, 33121, Note_on_c, 0, 65, 56
2, 33229, Note_on_c, 0, 65, 0
2, 33241, Note_on_c, 0, 55, 45
2, 33361, Note_on_c, 0, 55, 0
2, 33361, Note_on_c, 0, 59, 42
2, 33481, Note_on_c, 0, 59, 0
2, 33481, Note_on_c, 0, 65, 42
2, 33601, Note_on_c, 0, 65, 0
2, 33841, Note_on_c, 0, 55, 50
2, 33961, Note_on_c, 0, 55, 0
2, 33961, Note_on_c, 0, 59, 53
2, 34081, Note_on_c, 0, 59, 0
2, 34081, Note_on_c, 0, 65, 55
2, 34189, Note_on_c, 0, 65, 0
2, 34201, Note_on_c, 0, 55, 45
2, 34321, Note_on_c, 0, 55, 0
2, 34321, Note_on_c, 0, 59, 43
2, 34441, Note_on_c, 0, 59, 0
2, 34441, Note_on_c, 0, 65, 43
2, 34560, Control_c, 0, 91, 127
2, 34561, Note_on_c, 0, 65, 0
2, 34801, Note_on_c, 0, 55, 50
2, 34921, Note_on_c, 0, 55, 0
2, 34921, Note_on_c, 0, 60, 53
2, 35041, Note_on_c, 0, 60, 0
2, 35041, Note_on_c, 0, 64, 56
2, 35149, Note_on_c, 0, 64, 0
2, 35161, Note_on_c, 0, 55, 45
2, 35281, Note_on_c, 0, 55, 0
2, 35281, Note_on_c, 0, 60, 42
2, 35401, Note_on_c, 0, 60, 0
2, 35401, Note_on_c, 0, 64, 42
2, 35521, Note_on_c, 0, 64, 0
2, 35761, Note_on_c, 0, 55, 50
2, 35881, Note_on_c, 0, 55, 0
2, 35881, Note_on_c, 0, 60, 53
2, 36001, Note_on_c, 0, 60, 0
2, 36001, Note_on_c, 0, 64, 55
2, 36109, Note_on_c, 0, 64, 0
2, 36121, Note_on_c, 0, 55, 45
2, 36241, Note_on_c, 0, 55, 0
2, 36241, Note_on_c, 0, 60, 43
2, 36361, Note_on_c, 0, 60, 0
2, 36361, Note_on_c, 0, 64, 43
2, 36480, Control_c, 0, 91, 127
2, 36481, Note_on_c, 0, 64, 0
2, 36721, Note_on_c, 0, 58, 47
2, 36841, Note_on_c, 0, 58, 0
2, 36841, Note_on_c, 0, 60, 50
2, 36961, Note_on_c, 0, 60, 0
2, 36961, Note_on_c, 0, 64, 53
2, 37069, Note_on_c, 0, 64, 0
2, 37081, Note_on_c, 0, 58, 41
2, 37201, Note_on_c, 0, 58, 0
2, 37201, Note_on_c, 0, 60, 40
2, 37321, Note_on_c, 0, 60, 0
2, 37321, Note_on_c, 0, 64, 40
2, 37441, Note_on_c, 0, 64, 0
2, 37681, Note_on_c, 0, 58, 47
2, 37801, Note_on_c, 0, 58, 0
2, 37801, Note_on_c, 0, 60, 50
2, 37921, Note_on_c, 0, 60, 0
2, 37921, Note_on_c, 0, 64, 52
2, 38029, Note_on_c, 0, 64, 0
2, 38041, Note_on_c, 0, 58, 42
2, 38161, Note_on_c, 0, 58, 0
2, 38161, Note_on_c, 0, 60, 40
2, 38281, Note_on_c, 0, 60, 0
2, 38281, Note_on_c, 0, 64, 40
2, 38400, Control_c, 0, 91, 127
2, 38401, Note_on_c, 0, 64, 0
2, 38641, Note_on_c, 0, 57, 47
2, 38761, Note_on_c, 0, 57, 0
2, 38761, Note_on_c, 0, 60, 50
2, 38881, Note_on_c, 0, 60, 0
2, 38881, Note_on_c, 0, 64, 53
2, 38989, Note_on_c, 0, 64, 0
2, 39001, Note_on_c, 0, 57, 41
2, 39121, Note_on_c, 0, 57, 0
2, 39121, Note_on_c, 0, 60, 40
2, 39241, Note_on_c, 0, 60, 0
2, 39241, Note_on_c, 0, 64, 40
2, 39361, Note_on_c, 0, 64, 0
2, 39601, Note_on_c, 0, 57, 47
2, 39721, Note_on_c, 0, 57, 0
2, 39721, Note_on_c, 0, 60, 50
2, 39841, Note_on_c, 0, 60, 0
2, 39841, Note_on_c, 0, 64, 52
2, 39949, Note_on_c, 0, 64, 0
2, 39961, Note_on_c, 0, 57, 42
2, 40081, Note_on_c, 0, 57, 0
2, 40081, Note_on_c, 0, 60, 40
2, 40201, Note_on_c, 0, 60, 0
2, 40201, Note_on_c, 0, 64, 40
2, 40320, Control_c, 0, 91, 127
2, 40321, Note_on_c, 0, 64, 0
2, 40561, Note_on_c, 0, 57, 50
2, 40681, Note_on_c, 0, 57, 0
2, 40681, Note_on_c, 0, 60, 53
2, 40801, Note_on_c, 0, 60, 0
2, 40801, Note_on_c, 0, 63, 56
2, 40909, Note_on_c, 0, 63, 0
2, 40921, Note_on_c, 0, 57, 45
2, 41041, Note_on_c, 0, 57, 0
2, 41041, Note_on_c, 0, 60, 42
2, 41161, Note_on_c, 0, 60, 0
2, 41161, Note_on_c, 0, 63, 42
2, 41281, Note_on_c, 0, 63, 0
2, 41521, Note_on_c, 0, 57, 50
2, 41641, Note_on_c, 0, 57, 0
2, 41641, Note_on_c, 0, 60, 53
2, 41761, Note_on_c, 0, 60, 0
2, 41761, Note_on_c, 0, 63, 55
2, 41869, Note_on_c, 0, 63, 0
2, 41881, Note_on_c, 0, 57, 45
2, 42001, Note_on_c, 0, 57, 0
2, 42001, Note_on_c, 0, 60, 43
2, 42121, Note_on_c, 0, 60, 0
2, 42121, Note_on_c, 0, 63, 43
2, 42240, Control_c, 0, 91, 127
2, 42241, Note_on_c, 0, 63, 0
2, 42481, Note_on_c, 0, 59, 47
2, 42601, Note_on_c, 0, 59, 0
2, 42601, Note_on_c, 0, 60, 50
2, 42721, Note_on_c, 0, 60, 0
2, 42721, Note_on_c, 0, 62, 53
2, 42829, Note_on_c, 0, 62, 0
2, 42841, Note_on_c, 0, 59, 41
2, 42961, Note_on_c, 0, 59, 0
2, 42961, Note_on_c, 0, 60, 40
2, 43081, Note_on_c, 0, 60, 0
2, 43081, Note_on_c, 0, 62, 40
2, 43201, Note_on_c, 0, 62, 0
2, 43441, Note_on_c, 0, 59, 47
2, 43561, Note_on_c, 0, 59, 0
2, 43561, Note_on_c, 0, 60, 50
2, 43681, Note_on_c, 0, 60, 0
2, 43681, Note_on_c, 0, 62, 52
2, 43789, Note_on_c, 0, 62, 0
2, 43801, Note_on_c, 0, 59, 42
2, 43921, Note_on_c, 0, 59, 0
2, 43921, Note_on_c, 0, 60, 40
2, 44041, Note_on_c, 0, 60, 0
2, 44041, Note_on_c, 0, 62, 40
2, 44160, Control_c, 0, 91, 127
2, 44161, Note_on_c, 0, 62, 0
2, 44401, Note_on_c, 0, 55, 50
2, 44521, Note_on_c, 0, 55, 0
2, 44521, Note_on_c, 0, 59, 53
2, 44641, Note_on_c, 0, 59, 0
2, 44641, Note_on_c, 0, 62, 56
2, 44749, Note_on_c, 0, 62, 0
2, 44761, Note_on_c, 0, 55, 45
2, 44881, Note_on_c, 0, 55, 0
2, 44881, Note_on_c, 0, 59, 42
2, 45001, Note_on_c, 0, 59, 0
2, 45001, Note_on_c, 0, 62, 42
2, 45121, Note_on_c, 0, 62, 0
2, 45361, Note_on_c, 0, 55, 50
2, 45481, Note_on_c, 0, 55, 0
2, 45481, Note_on_c, 0, 59, 53
2, 45601, Note_on_c, 0, 59, 0
2, 45601, Note_on_c, 0, 62, 55
2, 45709, Note_on_c, 0, 62, 0
2, 45721, Note_on_c, 0, 55, 45
2, 45841, Note_on_c, 0, 55, 0
2, 45841, Note_on_c, 0, 59, 43
2, 45961, Note_on_c, 0, 59, 0
2, 45961, Note_on_c, 0, 62, 43
2, 46080, Control_c, 0, 91, 127
2, 46081, Note_on_c, 0, 62, 0
2, 46321, Note_on_c, 0, 55, 50
2, 46441, Note_on_c, 0, 55, 0
2, 46441, Note_on_c, 0, 60, 53
2, 46561, Note_on_c, 0, 60, 0
2, 46561, Note_on_c, 0, 64, 56
2, 46669, Note_on_c, 0, 64, 0
2, 46681, Note_on_c, 0, 55, 45
2, 46801, Note_on_c, 0, 55, 0
2, 46801, Note_on_c, 0, 60, 42
2, 46921, Note_on_c, 0, 60, 0
2, 46921, Note_on_c, 0, 64, 42
2, 47041, Note_on_c, 0, 64, 0
2, 47281, Note_on_c, 0, 55, 50
2, 47401, Note_on_c, 0, 55, 0
2, 47401, Note_on_c, 0, 60, 53
2, 47521, Note_on_c, 0, 60, 0
2, 47521, Note_on_c, 0, 64, 55
2, 47629, Note_on_c, 0, 64, 0
2, 47641, Note_on_c, 0, 55, 45
2, 47761, Note_on_c, 0, 55, 0
2, 47761, Note_on_c, 0, 60, 43
2, 47881, Note_on_c, 0, 60, 0
2, 47881, Note_on_c, 0, 64, 43
2, 48000, Control_c, 0, 91, 127
2, 48001, Note_on_c, 0, 64, 0
2, 48241, Note_on_c, 0, 55, 53
2, 48361, Note_on_c, 0, 55, 0
2, 48361, Note_on_c, 0, 60, 56
2, 48481, Note_on_c, 0, 60, 0
2, 48481, Note_on_c, 0, 65, 60
2, 48589, Note_on_c, 0, 65, 0
2, 48601, Note_on_c, 0, 55, 46
2, 48721, Note_on_c, 0, 55, 0
2, 48721, Note_on_c, 0, 60, 45
2, 48841, Note_on_c, 0, 60, 0
2, 48841, Note_on_c, 0, 65, 45
2, 48961, Note_on_c, 0, 65, 0
2, 49201, Note_on_c, 0, 55, 53
2, 49321, Note_on_c, 0, 55, 0
2, 49321, Note_on_c, 0, 60, 56
2, 49441, Note_on_c, 0, 60, 0
2, 49441, Note_on_c, 0, 65, 58
2, 49549, Note_on_c, 0, 65, 0
2, 49561, Note_on_c, 0, 55, 47
2, 49681, Note_on_c, 0, 55, 0
2, 49681, Note_on_c, 0, 60, 45
2, 49801, Note_on_c, 0, 60, 0
2, 49801, Note_on_c, 0, 65, 45
2, 49920, Control_c, 0, 91, 127
2, 49921, Note_on_c, 0, 65, 0
2, 50161, Note_on_c, 0, 55, 53
2, 50281, Note_on_c, 0, 55, 0
2, 50281, Note_on_c, 0, 59, 56
2, 50401, Note_on_c, 0, 59, 0
2, 50401, Note_on_c, 0, 65, 60
2, 50509, Note_on_c, 0, 65, 0
2, 50521, Note_on_c, 0, 55, 46
2, 50641, Note_on_c, 0, 55, 0
2, 50641, Note_on_c, 0, 59, 45
2, 50761, Note_on_c, 0, 59, 0
2, 50761, Note_on_c, 0, 65, 45
2, 50881, Note_on_c, 0, 65, 0
2, 51121, Note_on_c, 0, 55, 53
2, 51241, Note_on_c, 0, 55, 0
2, 51241, Note_on_c, 0, 59, 56
2, 51361, Note_on_c, 0, 59, 0
2, 51361, Note_on_c, 0, 65, 58
2, 51469, Note_on_c, 0, 65, 0
2, 51481, Note_on_c, 0, 55, 47
2, 51601, Note_on_c, 0, 55, 0
2, 51601, Note_on_c, 0, 59, 45
2, 51721, Note_on_c, 0, 59, 0
2, 51721, Note_on_c, 0, 65, 45
2, 51840, Control_c, 0, 91, 127
2, 51841, Note_on_c, 0, 65, 0
2, 52081, Note_on_c, 0, 57, 56
2, 52201, Note_on_c, 0, 57, 0
2, 52201, Note_on_c, 0, 60, 60
2, 52321, Note_on_c, 0, 60, 0
2, 52321, Note_on_c, 0, 66, 63
2, 52429, Note_on_c, 0, 66, 0
2, 52441, Note_on_c, 0, 57, 50
2, 52561, Note_on_c, 0, 57, 0
2, 52561, Note_on_c, 0, 60, 47
2, 52681, Note_on_c, 0, 60, 0
2, 52681, Note_on_c, 0, 66, 47
2, 52801, Note_on_c, 0, 66, 0
2, 53041, Note_on_c, 0, 57, 56
2, 53161, Note_on_c, 0, 57, 0
2, 53161, Note_on_c, 0, 60, 60
2, 53281, Note_on_c, 0, 60, 0
2, 53281, Note_on_c, 0, 66, 62
2, 53389, Note_on_c, 0, 66, 0
2, 53401, Note_on_c, 0, 57, 50
2, 53521, Note_on_c, 0, 57, 0
2, 53521, Note_on_c, 0, 60, 48
2, 53641, Note_on_c, 0, 60, 0
2, 53641, Note_on_c, 0, 66, 48
2, 53760, Control_c, 0, 91, 127
2, 53761, Note_on_c, 0, 66, 0
2, 54001, Note_on_c, 0, 55, 58
2, 54121, Note_on_c, 0, 55, 0
2, 54121, Note_on_c, 0, 60, 63
2, 54241, Note_on_c, 0, 60, 0
2, 54241, Note_on_c, 0, 67, 66
2, 54349, Note_on_c, 0, 67, 0
2, 54361, Note_on_c, 0, 55, 51
2, 54481, Note_on_c, 0, 55, 0
2, 54481, Note_on_c, 0, 60, 50
2, 54601, Note_on_c, 0, 60, 0
2, 54601, Note_on_c, 0, 67, 50
2, 54721, Note_on_c, 0, 67, 0
2, 54961, Note_on_c, 0, 55, 58
2, 55081, Note_on_c, 0, 55, 0
2, 55081, Note_on_c, 0, 60, 62
2, 55201, Note_on_c, 0, 60, 0
2, 55201, Note_on_c, 0, 67, 65
2, 55309, Note_on_c, 0, 67, 0
2, 55321, Note_on_c, 0, 55, 52
2, 55441, Note_on_c, 0, 55, 0
2, 55441, Note_on_c, 0, 60, 50
2, 55561, Note_on_c, 0, 60, 0
2, 55561, Note_on_c, 0, 67, 50
2, 55680, Control_c, 0, 91, 127
2, 55681, Note_on_c, 0, 67, 0
2, 55921, Note_on_c, 0, 55, 50
2, 56041, Note_on_c, 0, 55, 0
2, 56041, Note_on_c, 0, 60, 53
2, 56161, Note_on_c, 0, 60, 0
2, 56161, Note_on_c, 0, 65, 56
2, 56269, Note_on_c, 0, 65, 0
2, 56281, Note_on_c, 0, 55, 45
2, 56401, Note_on_c, 0, 55, 0
2, 56401, Note_on_c, 0, 60, 42
2, 56521, Note_on_c, 0, 60, 0
2, 56521, Note_on_c, 0, 65, 42
2, 56641, Note_on_c, 0, 65, 0
2, 56881, Note_on_c, 0, 55, 50
2, 57001, Note_on_c, 0, 55, 0
2, 57001, Note_on_c, 0, 60, 53
2, 57121, Note_on_c, 0, 60, 0
2, 57121, Note_on_c, 0, 65, 55
2, 57229, Note_on_c, 0, 65, 0
2, 57241, Note_on_c, 0, 55, 45
2, 57361, Note_on_c, 0, 55, 0
2, 57361, Note_on_c, 0, 60, 43
2, 57481, Note_on_c, 0, 60, 0
2, 57481, Note_on_c, 0, 65, 43
2, 57600, Control_c, 0, 91, 127
2, 57601, Note_on_c, 0, 65, 0
2, 57841, Note_on_c, 0, 55, 50
2, 57961, Note_on_c, 0, 55, 0
2, 57961, Note_on_c, 0, 59, 53
2, 58081, Note_on_c, 0, 59, 0
2, 58081, Note_on_c, 0, 65, 56
2, 58189, Note_on_c, 0, 65, 0
2, 58201, Note_on_c, 0, 55, 45
2, 58321, Note_on_c, 0, 55, 0
2, 58321, Note_on_c, 0, 59, 42
2, 58441, Note_on_c, 0, 59, 0
2, 58441, Note_on_c, 0, 65, 42
2, 58561, Note_on_c, 0, 65, 0
2, 58801, Note_on_c, 0, 55, 50
2, 58921, Note_on_c, 0, 55, 0
2, 58921, Note_on_c, 0, 59, 53
2, 59041, Note_on_c, 0, 59, 0
2, 59041, Note_on_c, 0, 65, 55
2, 59149, Note_on_c, 0, 65, 0
2, 59161, Note_on_c, 0, 55, 45
2, 59281, Note_on_c, 0, 55, 0
2, 59281, Note_on_c, 0, 59, 43
2, 59401, Note_on_c, 0, 59, 0
2, 59401, Note_on_c, 0, 65, 43
2, 59520, Control_c, 0, 91, 127
2, 59521, Note_on_c, 0, 65, 0
2, 59761, Note_on_c, 0, 55, 53
2, 59881, Note_on_c, 0, 55, 0
2, 59881, Note_on_c, 0, 58, 56
2, 60001, Note_on_c, 0, 58, 0
2, 60001, Note_on_c, 0, 64, 60
2, 60109, Note_on_c, 0, 64, 0
2, 60121, Note_on_c, 0, 55, 46
2, 60241, Note_on_c, 0, 55, 0
2, 60241, Note_on_c, 0, 58, 45
2, 60361, Note_on_c, 0, 58, 0
2, 60361, Note_on_c, 0, 64, 45
2, 60481, Note_on_c, 0, 64, 0
2, 60721, Note_on_c, 0, 55, 53
2, 60841, Note_on_c, 0, 55, 0
2, 60841, Note_on_c, 0, 58, 56
2, 60961, Note_on_c, 0, 58, 0
2, 60961, Note_on_c, 0, 64, 58
2, 61069, Note_on_c, 0, 64, 0
2, 61081, Note_on_c, 0, 55, 47
2, 61201, Note_on_c, 0, 55, 0
2, 61201, Note_on_c, 0, 58, 45
2, 61321, Note_on_c, 0, 58, 0
2, 61321, Note_on_c, 0, 64, 45
2, 61441, Note_on_c, 0, 64, 0
2, 61680, Note_on_c, 0, 53, 50
2, 61800, Note_on_c, 0, 53, 0
2, 61800, Note_on_c, 0, 57, 53
2, 61920, Note_on_c, 0, 57, 0
2, 61920, Note_on_c, 0, 60, 55
2, 62040, Note_on_c, 0, 60, 0
2, 62040, Note_on_c, 0, 65, 53
2, 62160, Note_on_c, 0, 65, 0
2, 62160, Note_on_c, 0, 60, 53
2, 62280, Note_on_c, 0, 60, 0
2, 62280, Note_on_c, 0, 57, 53
2, 62400, Note_on_c, 0, 57, 0
2, 62400, Note_on_c, 0, 60, 55
2, 62520, Note_on_c, 0, 60, 0
2, 62520, Note_on_c, 0, 57, 50
2, 62640, Note_on_c, 0, 57, 0
2, 62640, Note_on_c, 0, 53, 47
2, 62760, Note_on_c, 0, 53, 0
2, 62760, Note_on_c, 0, 57, 46
2, 62880, Note_on_c, 0, 57, 0
2, 62880, Note_on_c, 0, 53, 46
2, 63000, Note_on_c, 0, 53, 0
2, 63000, Note_on_c, 0, 50, 42
2, 63120, Note_on_c, 0, 50, 0
2, 63120, Note_on_c, 0, 53, 43
2, 63240, Note_on_c, 0, 53, 0
2, 63240, Note_on_c, 0, 50, 38
2, 63360, Note_on_c, 0, 50, 0
2, 63600, Note_on_c, 0, 67, 50
2, 63720, Note_on_c, 0, 67, 0
2, 63720, Note_on_c, 0, 71, 53
2, 63840, Note_on_c, 0, 71, 0
2, 63840, Note_on_c, 0, 74, 55
2, 63960, Note_on_c, 0, 74, 0
2, 63960, Note_on_c, 0, 77, 60
2, 64080, Note_on_c, 0, 77, 0
2, 64080, Note_on_c, 0, 74, 55
2, 64200, Note_on_c, 0, 74, 0
2, 64200, Note_on_c, 0, 71, 53
2, 64320, Note_on_c, 0, 71, 0
2, 64320, Note_on_c, 0, 74, 56
2, 64440, Note_on_c, 0, 74, 0
2, 64440, Note_on_c, 0, 71, 53
2, 64560, Note_on_c, 0, 71, 0
2, 64560, Note_on_c, 0, 67, 56
2, 64680, Note_on_c, 0, 67, 0
2, 64680, Note_on_c, 0, 71, 53
2, 64800, Note_on_c, 0, 71, 0
2, 64800, Note_on_c, 0, 62, 55
2, 64920, Note_on_c, 0, 62, 0
2, 64920, Note_on_c, 0, 65, 50
2, 65040, Note_on_c, 0, 65, 0
2, 65040, Note_on_c, 0, 64, 50
2, 65160, Note_on_c, 0, 64, 0
2, 65160, Note_on_c, 0, 62, 50
2, 65280, Note_on_c, 0, 62, 0
2, 65281, Note_on_c, 0, 72, 50
2, 65281, Note_on_c, 0, 67, 50
2, 65281, Note_on_c, 0, 64, 50
2, 66721, Note_on_c, 0, 64, 0
2, 66721, Note_on_c, 0, 67, 0
2, 66721, Note_on_c, 0, 72, 0
2, 66721, End_track
3, 0, Start_track
3, 0, MIDI_port, 0
3, 0, Title_t, "Piano left"
3, 0, Program_c, 0, 0
3, 0, Control_c, 0, 7, 100
3, 0, Control_c, 0, 10, 64
3, 0, Control_c, 0, 64, 127
3, 0, Control_c, 0, 91, 127
3, 1, Note_on_c, 0, 60, 61
3, 121, Note_on_c, 0, 64, 57
3, 961, Note_on_c, 0, 64, 0
3, 961, Note_on_c, 0, 60, 0
3, 961, Note_on_c, 0, 60, 62
3, 1081, Note_on_c, 0, 64, 57
3, 1920, Control_c, 0, 91, 127
3, 1921, Note_on_c, 0, 64, 0
3, 1921, Note_on_c, 0, 60, 0
3, 1921, Note_on_c, 0, 60, 65
3, 1930, Control_c, 0, 64, 0
3, 2026, Control_c, 0, 64, 127
3, 2041, Note_on_c, 0, 62, 60
3, 2881, Note_on_c, 0, 62, 0
3, 2881, Note_on_c, 0, 60, 0
3, 2881, Note_on_c, 0, 60, 65
3, 3001, Note_on_c, 0, 62, 60
3, 3840, Control_c, 0, 91, 127
3, 3841, Note_on_c, 0, 62, 0
3, 3841, Note_on_c, 0, 60, 0
3, 3841, Note_on_c, 0, 59, 65
3, 3849, Control_c, 0, 64, 0
3, 3925, Control_c, 0, 64, 127
3, 3961, Note_on_c, 0, 62, 60
3, 4801, Note_on_c, 0, 62, 0
3, 4801, Note_on_c, 0, 59, 0
3, 4801, Note_on_c, 0, 59, 65
3, 4921, Note_on_c, 0, 62, 60
3, 5760, Control_c, 0, 91, 127
3, 5761, Note_on_c, 0, 62, 0
3, 5761, Note_on_c, 0, 59, 0
3, 5761, Note_on_c, 0, 60, 61
3, 5769, Control_c, 0, 64, 0
3, 5859, Control_c, 0, 64, 127
3, 5881, Note_on_c, 0, 64, 57
3, 6721, Note_on_c, 0, 64, 0
3, 6721, Note_on_c, 0, 60, 0
3, 6721, Note_on_c, 0, 60, 62
3, 6841, Note_on_c, 0, 64, 57
3, 7680, Control_c, 0, 91, 127
3, 7681, Note_on_c, 0, 64, 0
3, 7681, Note_on_c, 0, 60, 0
3, 7681, Note_on_c, 0, 60, 67
3, 7688, Control_c, 0, 64, 0
3, 7786, Control_c, 0, 64, 127
3, 7801, Note_on_c, 0, 64, 62
3, 8641, Note_on_c, 0, 64, 0
3, 8641, Note_on_c, 0, 60, 0
3, 8641, Note_on_c, 0, 60, 68
3, 8761, Note_on_c, 0, 64, 62
3, 9600, Control_c, 0, 91, 127
3, 9601, Note_on_c, 0, 64, 0
3, 9601, Note_on_c, 0, 60, 0
3, 9601, Note_on_c, 0, 60, 61
3, 9607, Control_c, 0, 64, 0
3, 9680, Control_c, 0, 64, 127
3, 9721, Note_on_c, 0, 62, 57
3, 10561, Note_on_c, 0, 62, 0
3, 10561, Note_on_c, 0, 60, 0
3, 10561, Note_on_c, 0, 60, 62
3, 10681, Note_on_c, 0, 62, 57
3, 11520, Control_c, 0, 64, 0
3, 11520, Control_c, 0, 91, 127
3, 11521, Note_on_c, 0, 62, 0
3, 11521, Note_on_c, 0, 60, 0
3, 11521, Note_on_c, 0, 59, 65
3, 11633, Control_c, 0, 64, 127
3, 11641, Note_on_c, 0, 62, 60
3, 12481, Note_on_c, 0, 62, 0
3, 12481, Note_on_c, 0, 59, 0
3, 12481, Note_on_c, 0, 59, 65
3, 12601, Note_on_c, 0, 62, 60
3, 13440, Control_c, 0, 91, 127
3, 13441, Note_on_c, 0, 62, 0
3, 13441, Note_on_c, 0, 59, 0
3, 13441, Note_on_c, 0, 59, 61
3, 13453, Control_c, 0, 64, 0
3, 13511, Control_c, 0, 64, 127
3, 13561, Note_on_c, 0, 60, 57
3, 14401, Note_on_c, 0, 60, 0
3, 14401, Note_on_c, 0, 59, 0
3, 14401, Note_on_c, 0, 59, 62
3, 14521, Note_on_c, 0, 60, 57
3, 15360, Control_c, 0, 91, 127
3, 15361, Note_on_c, 0, 60, 0
3, 15361, Note_on_c, 0, 59, 0
3, 15361, Note_on_c, 0, 57, 61
3, 15370, Control_c, 0, 64, 0
3, 15473, Control_c, 0, 64, 127
3, 15481, Note_on_c, 0, 60, 57
3, 16321, Note_on_c, 0, 60, 0
3, 16321, Note_on_c, 0, 57, 0
3, 16321, Note_on_c, 0, 57, 62
3, 16441, Note_on_c, 0, 60, 57
3, 17280, Control_c, 0, 91, 127
3, 17281, Note_on_c, 0, 60, 0
3, 17281, Note_on_c, 0, 57, 0
3, 17281, Note_on_c, 0, 50, 61
3, 17290, Control_c, 0, 64, 0
3, 17360, Control_c, 0, 64, 127
3, 17401, Note_on_c, 0, 57, 57
3, 18241, Note_on_c, 0, 57, 0
3, 18241, Note_on_c, 0, 50, 0
3, 18241, Note_on_c, 0, 50, 62
3, 18361, Note_on_c, 0, 57, 57
3, 19200, Control_c, 0, 91, 127
3, 19201, Note_on_c, 0, 57, 0
3, 19201, Note_on_c, 0, 50, 0
3, 19201, Note_on_c, 0, 55, 57
3, 19209, Control_c, 0, 64, 0
3, 19299, Control_c, 0, 64, 127
3, 19321, Note_on_c, 0, 59, 55
3, 20161, Note_on_c, 0, 59, 0
3, 20161, Note_on_c, 0, 55, 0
3, 20161, Note_on_c, 0, 55, 58
3, 20281, Note_on_c, 0, 59, 55
3, 21120, Control_c, 0, 91, 127
3, 21121, Note_on_c, 0, 59, 0
3, 21121, Note_on_c, 0, 55, 0
3, 21121, Note_on_c, 0, 55, 57
3, 21127, Control_c, 0, 64, 0
3, 21211, Control_c, 0, 64, 127
3, 21241, Note_on_c, 0, 58, 55
3, 22081, Note_on_c, 0, 58, 0
3, 22081, Note_on_c, 0, 55, 0
3, 22081, Note_on_c, 0, 55, 58
3, 22201, Note_on_c, 0, 58, 55
3, 23040, Control_c, 0, 91, 127
3, 23041, Note_on_c, 0, 58, 0
3, 23041, Note_on_c, 0, 55, 0
3, 23041, Note_on_c, 0, 53, 61
3, 23053, Control_c, 0, 64, 0
3, 23161, Note_on_c, 0, 57, 57
3, 23181, Control_c, 0, 64, 127
3, 24001, Note_on_c, 0, 57, 0
3, 24001, Note_on_c, 0, 53, 0
3, 24001, Note_on_c, 0, 53, 62
3, 24121, Note_on_c, 0, 57, 57
3, 24960, Control_c, 0, 91, 127
3, 24961, Note_on_c, 0, 57, 0
3, 24961, Note_on_c, 0, 53, 0
3, 24961, Note_on_c, 0, 53, 57
3, 24969, Control_c, 0, 64, 0
3, 25081, Note_on_c, 0, 56, 55
3, 25101, Control_c, 0, 64, 127
3, 25921, Note_on_c, 0, 56, 0
3, 25921, Note_on_c, 0, 53, 0
3, 25921, Note_on_c, 0, 53, 58
3, 26041, Note_on_c, 0, 56, 55
3, 26880, Control_c, 0, 91, 127
3, 26881, Note_on_c, 0, 56, 0
3, 26881, Note_on_c, 0, 53, 0
3, 26881, Note_on_c, 0, 52, 57
3, 26894, Control_c, 0, 64, 0
3, 27001, Note_on_c, 0, 55, 55
3, 27028, Control_c, 0, 64, 127
3, 27841, Note_on_c, 0, 55, 0
3, 27841, Note_on_c, 0, 52, 0
3, 27841, Note_on_c, 0, 52, 58
3, 27961, Note_on_c, 0, 55, 55
3, 28800, Control_c, 0, 91, 127
3, 28801, Note_on_c, 0, 55, 0
3, 28801, Note_on_c, 0, 52, 0
3, 28801, Note_on_c, 0, 52, 55
3, 28810, Control_c, 0, 64, 0
3, 28921, Note_on_c, 0, 53, 51
3, 28976, Control_c, 0, 64, 127
3, 29761, Note_on_c, 0, 53, 0
3, 29761, Note_on_c, 0, 52, 0
3, 29761, Note_on_c, 0, 52, 55
3, 29881, Note_on_c, 0, 53, 51
3, 30720, Control_c, 0, 91, 127
3, 30721, Note_on_c, 0, 53, 0
3, 30721, Note_on_c, 0, 52, 0
3, 30721, Note_on_c, 0, 50, 55
3, 30727, Control_c, 0, 64, 0
3, 30840, Control_c, 0, 64, 127
3, 30841, Note_on_c, 0, 53, 51
3, 31681, Note_on_c, 0, 53, 0
3, 31681, Note_on_c, 0, 50, 0
3, 31681, Note_on_c, 0, 50, 55
3, 31801, Note_on_c, 0, 53, 51
3, 32640, Control_c, 0, 91, 127
3, 32641, Note_on_c, 0, 53, 0
3, 32641, Note_on_c, 0, 50, 0
3, 32641, Note_on_c, 0, 43, 55
3, 32651, Control_c, 0, 64, 0
3, 32739, Control_c, 0, 64, 127
3, 32761, Note_on_c, 0, 50, 51
3, 33601, Note_on_c, 0, 50, 0
3, 33601, Note_on_c, 0, 43, 0
3, 33601, Note_on_c, 0, 43, 55
3, 33721, Note_on_c, 0, 50, 51
3, 34560, Control_c, 0, 91, 127
3, 34561, Note_on_c, 0, 50, 0
3, 34561, Note_on_c, 0, 43, 0
3, 34561, Note_on_c, 0, 48, 55
3, 34570, Control_c, 0, 64, 0
3, 34680, Control_c, 0, 64, 127
3, 34681, Note_on_c, 0, 52, 51
3, 35521, Note_on_c, 0, 52, 0
3, 35521, Note_on_c, 0, 48, 0
3, 35521, Note_on_c, 0, 48, 55
3, 35641, Note_on_c, 0, 52, 51
3, 36480, Control_c, 0, 91, 127
3, 36481, Note_on_c, 0, 52, 0
3, 36481, Note_on_c, 0, 48, 0
3, 36481, Note_on_c, 0, 48, 51
3, 36490, Control_c, 0, 64, 0
3, 36571, Control_c, 0, 64, 127
3, 36601, Note_on_c, 0, 55, 48
3, 37441, Note_on_c, 0, 55, 0
3, 37441, Note_on_c, 0, 48, 0
3, 37441, Note_on_c, 0, 48, 52
3, 37561, Note_on_c, 0, 55, 48
3, 38400, Control_c, 0, 91, 127
3, 38401, Note_on_c, 0, 55, 0
3, 38401, Note_on_c, 0, 48, 0
3, 38401, Note_on_c, 0, 41, 51
3, 38409, Control_c, 0, 64, 0
3, 38521, Note_on_c, 0, 53, 48
3, 38527, Control_c, 0, 64, 127
3, 39361, Note_on_c, 0, 53, 0
3, 39361, Note_on_c, 0, 41, 0
3, 39361, Note_on_c, 0, 41, 52
3, 39481, Note_on_c, 0, 53, 48
3, 40320, Control_c, 0, 91, 127
3, 40321, Note_on_c, 0, 53, 0
3, 40321, Note_on_c, 0, 41, 0
3, 40321, Note_on_c, 0, 42, 55
3, 40332, Control_c, 0, 64, 0
3, 40411, Control_c, 0, 64, 127
3, 40441, Note_on_c, 0, 48, 51
3, 41281, Note_on_c, 0, 48, 0
3, 41281, Note_on_c, 0, 42, 0
3, 41281, Note_on_c, 0, 42, 55
3, 41401, Note_on_c, 0, 48, 51
3, 42240, Control_c, 0, 91, 127
3, 42241, Note_on_c, 0, 48, 0
3, 42241, Note_on_c, 0, 42, 0
3, 42241, Note_on_c, 0, 44, 51
3, 42247, Control_c, 0, 64, 0
3, 42360, Control_c, 0, 64, 127
3, 42361, Note_on_c, 0, 53, 48
3, 43201, Note_on_c, 0, 53, 0
3, 43201, Note_on_c, 0, 44, 0
3, 43201, Note_on_c, 0, 44, 52
3, 43321, Note_on_c, 0, 53, 48
3, 44160, Control_c, 0, 91, 127
3, 44161, Note_on_c, 0, 53, 0
3, 44161, Note_on_c, 0, 44, 0
3, 44161, Note_on_c, 0, 43, 55
3, 44167, Control_c, 0, 64, 0
3, 44281, Note_on_c, 0, 53, 51
3, 44294, Control_c, 0, 64, 127
3, 45121, Note_on_c, 0, 53, 0
3, 45121, Note_on_c, 0, 43, 0
3, 45121, Note_on_c, 0, 43, 55
3, 45241, Note_on_c, 0, 53, 51
3, 46080, Control_c, 0, 91, 127
3, 46081, Note_on_c, 0, 53, 0
3, 46081, Note_on_c, 0, 43, 0
3, 46081, Note_on_c, 0, 43, 55
3, 46091, Control_c, 0, 64, 0
3, 46201, Note_on_c, 0, 52, 51
3, 46221, Control_c, 0, 64, 127
3, 47041, Note_on_c, 0, 52, 0
3, 47041, Note_on_c, 0, 43, 0
3, 47041, Note_on_c, 0, 43, 55
3, 47161, Note_on_c, 0, 52, 51
3, 48000, Control_c, 0, 91, 127
3, 48001, Note_on_c, 0, 52, 0
3, 48001, Note_on_c, 0, 43, 0
3, 48001, Note_on_c, 0, 43, 57
3, 48014, Control_c, 0, 64, 0
3, 48121, Note_on_c, 0, 50, 55
3, 48162, Control_c, 0, 64, 127
3, 48961, Note_on_c, 0, 50, 0
3, 48961, Note_on_c, 0, 43, 0
3, 48961, Note_on_c, 0, 43, 58
3, 49081, Note_on_c, 0, 50, 55
3, 49920, Control_c, 0, 91, 127
3, 49921, Note_on_c, 0, 50, 0
3, 49921, Note_on_c, 0, 43, 0
3, 49921, Note_on_c, 0, 43, 57
3, 49927, Control_c, 0, 64, 0
3, 49998, Control_c, 0, 64, 127
3, 50041, Note_on_c, 0, 50, 55
3, 50881, Note_on_c, 0, 50, 0
3, 50881, Note_on_c, 0, 43, 0
3, 50881, Note_on_c, 0, 43, 58
3, 51001, Note_on_c, 0, 50, 55
3, 51840, Control_c, 0, 91, 127
3, 51841, Note_on_c, 0, 50, 0
3, 51841, Note_on_c, 0, 43, 0
3, 51841, Note_on_c, 0, 43, 61
3, 51846, Control_c, 0, 64, 0
3, 51937, Control_c, 0, 64, 127
3, 51961, Note_on_c, 0, 51, 57
3, 52801, Note_on_c, 0, 51, 0
3, 52801, Note_on_c, 0, 43, 0
3, 52801, Note_on_c, 0, 43, 62
3, 52921, Note_on_c, 0, 51, 57
3, 53760, Control_c, 0, 91, 127
3, 53761, Note_on_c, 0, 51, 0
3, 53761, Note_on_c, 0, 43, 0
3, 53761, Note_on_c, 0, 43, 65
3, 53774, Control_c, 0, 64, 0
3, 53881, Note_on_c, 0, 52, 60
3, 53915, Control_c, 0, 64, 127
3, 54721, Note_on_c, 0, 52, 0
3, 54721, Note_on_c, 0, 43, 0
3, 54721, Note_on_c, 0, 43, 65
3, 54841, Note_on_c, 0, 52, 60
3, 55680, Control_c, 0, 91, 127
3, 55681, Note_on_c, 0, 52, 0
3, 55681, Note_on_c, 0, 43, 0
3, 55681, Note_on_c, 0, 43, 55
3, 55688, Control_c, 0, 64, 0
3, 55765, Control_c, 0, 64, 127
3, 55801, Note_on_c, 0, 50, 51
3, 56641, Note_on_c, 0, 50, 0
3, 56641, Note_on_c, 0, 43, 0
3, 56641, Note_on_c, 0, 43, 55
3, 56761, Note_on_c, 0, 50, 51
3, 57600, Control_c, 0, 91, 127
3, 57601, Note_on_c, 0, 50, 0
3, 57601, Note_on_c, 0, 43, 0
3, 57601, Note_on_c, 0, 43, 55
3, 57611, Control_c, 0, 64, 0
3, 57721, Note_on_c, 0, 50, 51
3, 57734, Control_c, 0, 64, 127
3, 58561, Note_on_c, 0, 50, 0
3, 58561, Note_on_c, 0, 43, 0
3, 58561, Note_on_c, 0, 43, 55
3, 58681, Note_on_c, 0, 50, 51
3, 59520, Control_c, 0, 91, 127
3, 59521, Note_on_c, 0, 50, 0
3, 59521, Note_on_c, 0, 43, 0
3, 59521, Note_on_c, 0, 36, 57
3, 59530, Control_c, 0, 64, 0
3, 59600, Control_c, 0, 64, 127
3, 59641, Note_on_c, 0, 48, 55
3, 60481, Note_on_c, 0, 48, 0
3, 60481, Note_on_c, 0, 36, 0
3, 60481, Note_on_c, 0, 36, 58
3, 60601, Note_on_c, 0, 48, 55
3, 61441, Note_on_c, 0, 48, 0
3, 61441, Note_on_c, 0, 36, 0
3, 61441, Note_on_c, 0, 36, 55
3, 61450, Control_c, 0, 64, 0
3, 61546, Control_c, 0, 64, 127
3, 61560, Note_on_c, 0, 48, 51
3, 63360, Note_on_c, 0, 48, 0
3, 63361, Note_on_c, 0, 36, 0
3, 63361, Note_on_c, 0, 36, 55
3, 63370, Control_c, 0, 64, 0
3, 63480, Note_on_c, 0, 50, 51
3, 63501, Control_c, 0, 64, 127
3, 65280, Note_on_c, 0, 50, 0
3, 65280, Control_c, 0, 64, 0
3, 65281, Note_on_c, 0, 36, 0
3, 65281, Note_on_c, 0, 36, 53
3, 65281, Note_on_c, 0, 48, 53
3, 65600, Control_c, 0, 64, 127
3, 66721, Note_on_c, 0, 48, 0
3, 66721, Note_on_c, 0, 36, 0
3, 67028, Control_c, 0, 64, 0
3, 67028, End_track
4, 0, Start_track
4, 0, MIDI_port, 0
4, 0, Title_t, "Fuga 1"
4, 0, Program_c, 2, 0
4, 0, Control_c, 2, 7, 110
4, 0, Control_c, 2, 10, 64
4, 67200, Control_c, 2, 91, 127
4, 67200, Control_c, 2, 93, 0
4, 70319, Control_c, 2, 7, 127
4, 70320, Note_on_c, 2, 67, 53
4, 70560, Note_on_c, 2, 67, 0
4, 70560, Note_on_c, 2, 69, 54
4, 70800, Note_on_c, 2, 69, 0
4, 70800, Note_on_c, 2, 71, 55
4, 71040, Note_on_c, 2, 71, 0
4, 71040, Note_on_c, 2, 72, 60
4, 71400, Note_on_c, 2, 72, 0
4, 71400, Note_on_c, 2, 74, 57
4, 71460, Note_on_c, 2, 74, 0
4, 71460, Note_on_c, 2, 72, 57
4, 71520, Note_on_c, 2, 72, 0
4, 71520, Note_on_c, 2, 71, 57
4, 71740, Note_on_c, 2, 71, 0
4, 71760, Note_on_c, 2, 76, 60
4, 72000, Note_on_c, 2, 76, 0
4, 72000, Note_on_c, 2, 69, 56
4, 72220, Note_on_c, 2, 69, 0
4, 72240, Note_on_c, 2, 74, 60
4, 72600, Note_on_c, 2, 74, 0
4, 72600, Note_on_c, 2, 76, 57
4, 72720, Note_on_c, 2, 76, 0
4, 72720, Note_on_c, 2, 74, 57
4, 72840, Note_on_c, 2, 74, 0
4, 72840, Note_on_c, 2, 72, 56
4, 72960, Note_on_c, 2, 72, 0
4, 72960, Note_on_c, 2, 71, 55
4, 73050, Note_on_c, 2, 71, 0
4, 73080, Note_on_c, 2, 67, 55
4, 73200, Note_on_c, 2, 67, 0
4, 73200, Control_c, 2, 7, 110
4, 73200, Note_on_c, 2, 69, 56
4, 73320, Note_on_c, 2, 69, 0
4, 73320, Note_on_c, 2, 71, 57
4, 73440, Note_on_c, 2, 71, 0
4, 73440, Note_on_c, 2, 72, 57
4, 73560, Note_on_c, 2, 72, 0
4, 73560, Note_on_c, 2, 71, 53
4, 73680, Note_on_c, 2, 71, 0
4, 73680, Note_on_c, 2, 72, 54
4, 73800, Note_on_c, 2, 72, 0
4, 73800, Note_on_c, 2, 74, 55
4, 73920, Note_on_c, 2, 74, 0
4, 73920, Note_on_c, 2, 76, 56
4, 74040, Note_on_c, 2, 76, 0
4, 74040, Note_on_c, 2, 74, 57
4, 74160, Note_on_c, 2, 74, 0
4, 74160, Note_on_c, 2, 76, 58
4, 74280, Note_on_c, 2, 76, 0
4, 74280, Note_on_c, 2, 78, 59
4, 74400, Note_on_c, 2, 78, 0
4, 74400, Note_on_c, 2, 79, 60
4, 74640, Note_on_c, 2, 79, 0
4, 74640, Note_on_c, 2, 71, 56
4, 74880, Note_on_c, 2, 71, 0
4, 74880, Note_on_c, 2, 72, 60
4, 75100, Note_on_c, 2, 72, 0
4, 75120, Note_on_c, 2, 69, 55
4, 75360, Note_on_c, 2, 69, 0
4, 75360, Note_on_c, 2, 74, 58
4, 75480, Note_on_c, 2, 74, 0
4, 75480, Note_on_c, 2, 72, 57
4, 75600, Note_on_c, 2, 72, 0
4, 75600, Note_on_c, 2, 71, 56
4, 75720, Note_on_c, 2, 71, 0
4, 75720, Note_on_c, 2, 69, 55
4, 75840, Note_on_c, 2, 69, 0
4, 75840, Note_on_c, 2, 67, 54
4, 76200, Note_on_c, 2, 67, 0
4, 76200, Note_on_c, 2, 67, 56
4, 76320, Note_on_c, 2, 67, 0
4, 76320, Note_on_c, 2, 65, 55
4, 76440, Note_on_c, 2, 65, 0
4, 76440, Note_on_c, 2, 64, 55
4, 76560, Note_on_c, 2, 64, 0
4, 76560, Note_on_c, 2, 65, 55
4, 76680, Note_on_c, 2, 65, 0
4, 76680, Note_on_c, 2, 67, 55
4, 76800, Note_on_c, 2, 67, 0
4, 76800, Note_on_c, 2, 69, 55
4, 76920, Note_on_c, 2, 69, 0
4, 76920, Note_on_c, 2, 67, 56
4, 77040, Note_on_c, 2, 67, 0
4, 77040, Note_on_c, 2, 69, 55
4, 77160, Note_on_c, 2, 69, 0
4, 77160, Note_on_c, 2, 71, 57
4, 77280, Note_on_c, 2, 71, 0
4, 77280, Note_on_c, 2, 72, 59
4, 78240, Note_on_c, 2, 72, 0
4, 78240, Note_on_c, 2, 71, 57
4, 78720, Note_on_c, 2, 71, 0
4, 78960, Control_c, 2, 7, 127
4, 78960, Note_on_c, 2, 72, 60
4, 79200, Note_on_c, 2, 72, 0
4, 79200, Note_on_c, 2, 74, 63
4, 79440, Note_on_c, 2, 74, 0
4, 79440, Note_on_c, 2, 76, 64
4, 79680, Note_on_c, 2, 76, 0
4, 79680, Note_on_c, 2, 77, 69
4, 80040, Note_on_c, 2, 77, 0
4, 80040, Note_on_c, 2, 79, 66
4, 80100, Note_on_c, 2, 79, 0
4, 80100, Note_on_c, 2, 77, 66
4, 80160, Note_on_c, 2, 77, 0
4, 80160, Note_on_c, 2, 76, 66
4, 80380, Note_on_c, 2, 76, 0
4, 80400, Note_on_c, 2, 81, 69
4, 80640, Note_on_c, 2, 81, 0
4, 80640, Note_on_c, 2, 74, 64
4, 80860, Note_on_c, 2, 74, 0
4, 80880, Note_on_c, 2, 79, 69
4, 81240, Note_on_c, 2, 79, 0
4, 81240, Note_on_c, 2, 81, 67
4, 81360, Note_on_c, 2, 81, 0
4, 81360, Note_on_c, 2, 79, 66
4, 81480, Note_on_c, 2, 79, 0
4, 81480, Note_on_c, 2, 77, 64
4, 81600, Note_on_c, 2, 77, 0
4, 81600, Note_on_c, 2, 76, 63
4, 81820, Note_on_c, 2, 76, 0
4, 81840, Note_on_c, 2, 81, 70
4, 82200, Note_on_c, 2, 81, 0
4, 82200, Note_on_c, 2, 83, 68
4, 82320, Note_on_c, 2, 83, 0
4, 82320, Note_on_c, 2, 81, 67
4, 82440, Note_on_c, 2, 81, 0
4, 82440, Note_on_c, 2, 79, 66
4, 82560, Note_on_c, 2, 79, 0
4, 82560, Note_on_c, 2, 77, 65
4, 83520, Note_on_c, 2, 77, 0
4, 83520, Control_c, 2, 7, 110
4, 83520, Note_on_c, 2, 76, 60
4, 83880, Note_on_c, 2, 76, 0
4, 83880, Note_on_c, 2, 78, 57
4, 84000, Note_on_c, 2, 78, 0
4, 84000, Note_on_c, 2, 79, 63
4, 84960, Note_on_c, 2, 79, 0
4, 84960, Note_on_c, 2, 78, 63
4, 85440, Note_on_c, 2, 78, 0
4, 85440, Note_on_c, 2, 79, 60
4, 85560, Note_on_c, 2, 79, 0
4, 85560, Note_on_c, 2, 77, 59
4, 85680, Note_on_c, 2, 77, 0
4, 85680, Note_on_c, 2, 76, 58
4, 85800, Note_on_c, 2, 76, 0
4, 85800, Note_on_c, 2, 74, 57
4, 85920, Note_on_c, 2, 74, 0
4, 85920, Note_on_c, 2, 72, 56
4, 86040, Note_on_c, 2, 72, 0
4, 86040, Note_on_c, 2, 74, 57
4, 86160, Note_on_c, 2, 74, 0
4, 86160, Note_on_c, 2, 72, 57
4, 86280, Note_on_c, 2, 72, 0
4, 86280, Note_on_c, 2, 71, 57
4, 86400, Note_on_c, 2, 71, 0
4, 86400, Note_on_c, 2, 69, 57
4, 86520, Note_on_c, 2, 69, 0
4, 86520, Note_on_c, 2, 72, 58
4, 86640, Note_on_c, 2, 72, 0
4, 86640, Note_on_c, 2, 71, 58
4, 86760, Note_on_c, 2, 71, 0
4, 86760, Note_on_c, 2, 69, 57
4, 86880, Note_on_c, 2, 69, 0
4, 87480, Note_on_c, 2, 72, 58
4, 87600, Note_on_c, 2, 72, 0
4, 87720, Note_on_c, 2, 69, 55
4, 87840, Note_on_c, 2, 69, 0
4, 87840, Note_on_c, 2, 68, 54
4, 88020, Note_on_c, 2, 68, 0
4, 88080, Note_on_c, 2, 76, 60
4, 88320, Note_on_c, 2, 76, 0
4, 88320, Note_on_c, 2, 74, 58
4, 88560, Note_on_c, 2, 74, 0
4, 88560, Note_on_c, 2, 72, 56
4, 88680, Note_on_c, 2, 72, 0
4, 88680, Note_on_c, 2, 71, 56
4, 88800, Note_on_c, 2, 71, 0
4, 88800, Note_on_c, 2, 69, 54
4, 88920, Note_on_c, 2, 69, 0
4, 88920, Note_on_c, 2, 68, 54
4, 89040, Note_on_c, 2, 68, 0
4, 89040, Note_on_c, 2, 69, 54
4, 89160, Note_on_c, 2, 69, 0
4, 89160, Note_on_c, 2, 71, 53
4, 89280, Note_on_c, 2, 71, 0
4, 89280, Note_on_c, 2, 72, 56
4, 89370, Note_on_c, 2, 72, 0
4, 89400, Note_on_c, 2, 66, 54
4, 89520, Note_on_c, 2, 66, 0
4, 89520, Note_on_c, 2, 69, 54
4, 89640, Note_on_c, 2, 69, 0
4, 89640, Note_on_c, 2, 68, 55
4, 89760, Note_on_c, 2, 68, 0
4, 89760, Note_on_c, 2, 71, 58
4, 90000, Note_on_c, 2, 71, 0
4, 90000, Note_on_c, 2, 69, 56
4, 90120, Note_on_c, 2, 69, 0
4, 90120, Note_on_c, 2, 71, 56
4, 90240, Note_on_c, 2, 71, 0
4, 90240, Note_on_c, 2, 72, 58
4, 90460, Note_on_c, 2, 72, 0
4, 90480, Note_on_c, 2, 77, 64
4, 90720, Note_on_c, 2, 77, 0
4, 90720, Note_on_c, 2, 76, 62
4, 90960, Note_on_c, 2, 76, 0
4, 90960, Note_on_c, 2, 74, 60
4, 91440, Note_on_c, 2, 74, 0
4, 91440, Note_on_c, 2, 72, 58
4, 91560, Note_on_c, 2, 72, 0
4, 91560, Note_on_c, 2, 71, 58
4, 91680, Note_on_c, 2, 71, 0
4, 91680, Note_on_c, 2, 71, 60
4, 91725, Note_on_c, 2, 71, 0
4, 91725, Note_on_c, 2, 72, 55
4, 91770, Note_on_c, 2, 72, 0
4, 91770, Note_on_c, 2, 71, 60
4, 92040, Note_on_c, 2, 71, 0
4, 92040, Note_on_c, 2, 69, 57
4, 92160, Note_on_c, 2, 69, 0
4, 92160, Note_on_c, 2, 69, 60
4, 92640, Note_on_c, 2, 69, 0
4, 95280, Control_c, 2, 7, 127
4, 95280, Note_on_c, 2, 67, 53
4, 95520, Note_on_c, 2, 67, 0
4, 95520, Note_on_c, 2, 69, 54
4, 95760, Note_on_c, 2, 69, 0
4, 95760, Note_on_c, 2, 71, 55
4, 96000, Note_on_c, 2, 71, 0
4, 96000, Note_on_c, 2, 72, 60
4, 96360, Note_on_c, 2, 72, 0
4, 96360, Note_on_c, 2, 74, 57
4, 96420, Note_on_c, 2, 74, 0
4, 96420, Note_on_c, 2, 72, 57
4, 96480, Note_on_c, 2, 72, 0
4, 96480, Note_on_c, 2, 71, 57
4, 96700, Note_on_c, 2, 71, 0
4, 96720, Note_on_c, 2, 72, 53
4, 96960, Note_on_c, 2, 72, 0
4, 96960, Note_on_c, 2, 74, 56
4, 97200, Note_on_c, 2, 74, 0
4, 97200, Note_on_c, 2, 76, 59
4, 97440, Note_on_c, 2, 76, 0
4, 97440, Note_on_c, 2, 77, 64
4, 97800, Note_on_c, 2, 77, 0
4, 97800, Note_on_c, 2, 79, 60
4, 97860, Note_on_c, 2, 79, 0
4, 97860, Note_on_c, 2, 77, 60
4, 97920, Note_on_c, 2, 77, 0
4, 97920, Note_on_c, 2, 76, 60
4, 98140, Note_on_c, 2, 76, 0
4, 98160, Note_on_c, 2, 81, 68
4, 98400, Note_on_c, 2, 81, 0
4, 98400, Control_c, 2, 7, 110
4, 98400, Note_on_c, 2, 74, 60
4, 98620, Note_on_c, 2, 74, 0
4, 98640, Note_on_c, 2, 79, 66
4, 99000, Note_on_c, 2, 79, 0
4, 99000, Note_on_c, 2, 81, 66
4, 99120, Note_on_c, 2, 81, 0
4, 99120, Note_on_c, 2, 79, 64
4, 99240, Note_on_c, 2, 79, 0
4, 99240, Note_on_c, 2, 77, 63
4, 99360, Note_on_c, 2, 77, 0
4, 99360, Note_on_c, 2, 76, 61
4, 99580, Note_on_c, 2, 76, 0
4, 99600, Note_on_c, 2, 81, 67
4, 99840, Note_on_c, 2, 81, 0
4, 99840, Note_on_c, 2, 74, 60
4, 100060, Note_on_c, 2, 74, 0
4, 100080, Note_on_c, 2, 82, 67
4, 100320, Note_on_c, 2, 82, 0
4, 100320, Note_on_c, 2, 81, 67
4, 100560, Note_on_c, 2, 81, 0
4, 100560, Note_on_c, 2, 79, 64
4, 100680, Note_on_c, 2, 79, 0
4, 100680, Note_on_c, 2, 77, 61
4, 100800, Note_on_c, 2, 77, 0
4, 100800, Note_on_c, 2, 79, 64
4, 100920, Note_on_c, 2, 79, 0
4, 100920, Note_on_c, 2, 77, 61
4, 101040, Note_on_c, 2, 77, 0
4, 101040, Note_on_c, 2, 79, 64
4, 101160, Note_on_c, 2, 79, 0
4, 101160, Note_on_c, 2, 76, 60
4, 101280, Note_on_c, 2, 76, 0
4, 101280, Note_on_c, 2, 77, 64
4, 101400, Note_on_c, 2, 77, 0
4, 101400, Note_on_c, 2, 79, 60
4, 101520, Note_on_c, 2, 79, 0
4, 101520, Note_on_c, 2, 79, 64
4, 101550, Note_on_c, 2, 79, 0
4, 101550, Note_on_c, 2, 81, 55
4, 101580, Note_on_c, 2, 81, 0
4, 101580, Note_on_c, 2, 79, 55
4, 101610, Note_on_c, 2, 79, 0
4, 101640, Note_on_c, 2, 77, 60
4, 101700, Note_on_c, 2, 77, 0
4, 101700, Note_on_c, 2, 79, 60
4, 101760, Note_on_c, 2, 79, 0
4, 101760, Note_on_c, 2, 81, 67
4, 101850, Note_on_c, 2, 81, 0
4, 101880, Note_on_c, 2, 73, 60
4, 102000, Note_on_c, 2, 73, 0
4, 102000, Note_on_c, 2, 74, 60
4, 102120, Note_on_c, 2, 74, 0
4, 102120, Note_on_c, 2, 79, 60
4, 102240, Note_on_c, 2, 79, 0
4, 102240, Note_on_c, 2, 76, 64
4, 102285, Note_on_c, 2, 76, 0
4, 102285, Note_on_c, 2, 77, 55
4, 102330, Note_on_c, 2, 77, 0
4, 102330, Note_on_c, 2, 76, 60
4, 102600, Note_on_c, 2, 76, 0
4, 102600, Note_on_c, 2, 74, 60
4, 102720, Note_on_c, 2, 74, 0
4, 102720, Note_on_c, 2, 74, 61
4, 102960, Note_on_c, 2, 74, 0
4, 105360, Note_on_c, 2, 67, 51
4, 105600, Note_on_c, 2, 67, 0
4, 105600, Note_on_c, 2, 69, 53
4, 105840, Note_on_c, 2, 69, 0
4, 105840, Note_on_c, 2, 71, 55
4, 106080, Note_on_c, 2, 71, 0
4, 106080, Note_on_c, 2, 72, 60
4, 106440, Note_on_c, 2, 72, 0
4, 106440, Note_on_c, 2, 74, 58
4, 106500, Note_on_c, 2, 74, 0
4, 106500, Note_on_c, 2, 72, 58
4, 106560, Note_on_c, 2, 72, 0
4, 106560, Note_on_c, 2, 71, 58
4, 106780, Note_on_c, 2, 71, 0
4, 106800, Note_on_c, 2, 76, 60
4, 107040, Note_on_c, 2, 76, 0
4, 107040, Note_on_c, 2, 69, 57
4, 107260, Note_on_c, 2, 69, 0
4, 107280, Note_on_c, 2, 74, 60
4, 107640, Note_on_c, 2, 74, 0
4, 107640, Note_on_c, 2, 76, 60
4, 107760, Note_on_c, 2, 76, 0
4, 107760, Note_on_c, 2, 74, 57
4, 107880, Note_on_c, 2, 74, 0
4, 107880, Note_on_c, 2, 72, 56
4, 108000, Note_on_c, 2, 72, 0
4, 108000, Note_on_c, 2, 71, 55
4, 108120, Note_on_c, 2, 71, 0
4, 108120, Note_on_c, 2, 72, 55
4, 108240, Note_on_c, 2, 72, 0
4, 108240, Note_on_c, 2, 74, 57
4, 108360, Note_on_c, 2, 74, 0
4, 108360, Note_on_c, 2, 76, 59
4, 108480, Note_on_c, 2, 76, 0
4, 108480, Note_on_c, 2, 77, 61
4, 108600, Note_on_c, 2, 77, 0
4, 108600, Note_on_c, 2, 79, 61
4, 108720, Note_on_c, 2, 79, 0
4, 108720, Note_on_c, 2, 81, 61
4, 108840, Note_on_c, 2, 81, 0
4, 108840, Note_on_c, 2, 79, 60
4, 108960, Note_on_c, 2, 79, 0
4, 108960, Note_on_c, 2, 77, 60
4, 109080, Note_on_c, 2, 77, 0
4, 109080, Note_on_c, 2, 76, 59
4, 109200, Note_on_c, 2, 76, 0
4, 109200, Note_on_c, 2, 74, 59
4, 109320, Note_on_c, 2, 74, 0
4, 109320, Note_on_c, 2, 72, 58
4, 109440, Note_on_c, 2, 72, 0
4, 109440, Note_on_c, 2, 71, 58
4, 109920, Note_on_c, 2, 71, 0
4, 109920, Note_on_c, 2, 72, 57
4, 110160, Note_on_c, 2, 72, 0
4, 110160, Note_on_c, 2, 74, 57
4, 110400, Note_on_c, 2, 74, 0
4, 110400, Note_on_c, 2, 67, 58
4, 110620, Note_on_c, 2, 67, 0
4, 110640, Note_on_c, 2, 72, 60
4, 111120, Note_on_c, 2, 72, 0
4, 111120, Note_on_c, 2, 71, 57
4, 111360, Note_on_c, 2, 71, 0
4, 111360, Note_on_c, 2, 72, 60
4, 111840, Note_on_c, 2, 72, 0
4, 111840, Note_on_c, 2, 71, 67
4, 112080, Note_on_c, 2, 71, 0
4, 112080, Note_on_c, 2, 70, 67
4, 112320, Note_on_c, 2, 70, 0
4, 112320, Note_on_c, 2, 69, 66
4, 112560, Note_on_c, 2, 69, 0
4, 112560, Note_on_c, 2, 74, 72
4, 113040, Note_on_c, 2, 74, 0
4, 113040, Control_c, 2, 7, 127
4, 113040, Note_on_c, 2, 72, 67
4, 113280, Note_on_c, 2, 72, 0
4, 113280, Note_on_c, 2, 74, 67
4, 113520, Note_on_c, 2, 74, 0
4, 113520, Note_on_c, 2, 76, 70
4, 113760, Note_on_c, 2, 76, 0
4, 113760, Note_on_c, 2, 77, 74
4, 114360, Note_on_c, 2, 77, 0
4, 114360, Note_on_c, 2, 81, 69
4, 114480, Note_on_c, 2, 81, 0
4, 114480, Note_on_c, 2, 79, 69
4, 114600, Note_on_c, 2, 79, 0
4, 114600, Note_on_c, 2, 77, 68
4, 114720, Note_on_c, 2, 77, 0
4, 114720, Note_on_c, 2, 76, 67
4, 114840, Note_on_c, 2, 76, 0
4, 114840, Note_on_c, 2, 77, 69
4, 114960, Note_on_c, 2, 77, 0
4, 114960, Note_on_c, 2, 76, 68
4, 115080, Note_on_c, 2, 76, 0
4, 115080, Note_on_c, 2, 74, 67
4, 115200, Note_on_c, 2, 74, 0
4, 115200, Note_on_c, 2, 72, 70
4, 116160, Note_on_c, 2, 72, 0
4, 116280, Note_on_c, 2, 67, 56
4, 116340, Note_on_c, 2, 67, 0
4, 116340, Note_on_c, 2, 69, 57
4, 116400, Note_on_c, 2, 69, 0
4, 116400, Note_on_c, 2, 71, 57
4, 116520, Note_on_c, 2, 71, 0
4, 116520, Note_on_c, 2, 72, 59
4, 116640, Note_on_c, 2, 72, 0
4, 116640, Note_on_c, 2, 74, 60
4, 116760, Note_on_c, 2, 74, 0
4, 116760, Note_on_c, 2, 76, 62
4, 116880, Note_on_c, 2, 76, 0
4, 116880, Note_on_c, 2, 77, 63
4, 117180, Note_on_c, 2, 77, 0
4, 117180, Note_on_c, 2, 72, 55
4, 117240, Note_on_c, 2, 72, 0
4, 117240, Note_on_c, 2, 74, 57
4, 117300, Note_on_c, 2, 74, 0
4, 117300, Note_on_c, 2, 76, 58
4, 117360, Note_on_c, 2, 76, 0
4, 117360, Note_on_c, 2, 77, 59
4, 117480, Note_on_c, 2, 77, 0
4, 117480, Note_on_c, 2, 79, 62
4, 117600, Note_on_c, 2, 79, 0
4, 117600, Note_on_c, 2, 81, 65
4, 117960, Note_on_c, 2, 81, 0
4, 117960, Note_on_c, 2, 83, 64
4, 118080, Note_on_c, 2, 83, 0
4, 118080, Note_on_c, 2, 79, 52
4, 118080, Note_on_c, 2, 84, 56
4, 119040, Note_on_c, 2, 84, 0
4, 119040, Note_on_c, 2, 79, 0
4, 119040, End_track
5, 0, Start_track
5, 0, MIDI_port, 0
5, 0, Title_t, "Fuga 2"
5, 0, Program_c, 3, 0
5, 0, Control_c, 3, 7, 110
5, 0, Control_c, 3, 10, 64
5, 67200, Control_c, 3, 91, 127
5, 67200, Control_c, 3, 93, 0
5, 67440, Control_c, 3, 7, 127
5, 67440, Note_on_c, 3, 60, 53
5, 67680, Note_on_c, 3, 60, 0
5, 67680, Note_on_c, 3, 62, 54
5, 67920, Note_on_c, 3, 62, 0
5, 67920, Note_on_c, 3, 64, 56
5, 68160, Note_on_c, 3, 64, 0
5, 68160, Note_on_c, 3, 65, 60
5, 68520, Note_on_c, 3, 65, 0
5, 68520, Note_on_c, 3, 67, 58
5, 68580, Note_on_c, 3, 67, 0
5, 68580, Note_on_c, 3, 65, 58
5, 68640, Note_on_c, 3, 65, 0
5, 68640, Note_on_c, 3, 64, 60
5, 68860, Note_on_c, 3, 64, 0
5, 68880, Note_on_c, 3, 69, 60
5, 69120, Note_on_c, 3, 69, 0
5, 69120, Note_on_c, 3, 62, 56
5, 69340, Note_on_c, 3, 62, 0
5, 69360, Note_on_c, 3, 67, 60
5, 69720, Note_on_c, 3, 67, 0
5, 69720, Note_on_c, 3, 69, 59
5, 69840, Note_on_c, 3, 69, 0
5, 69840, Note_on_c, 3, 67, 59
5, 69960, Note_on_c, 3, 67, 0
5, 69960, Note_on_c, 3, 65, 59
5, 70080, Note_on_c, 3, 65, 0
5, 70080, Note_on_c, 3, 64, 58
5, 70200, Note_on_c, 3, 64, 0
5, 70200, Note_on_c, 3, 65, 58
5, 70320, Note_on_c, 3, 65, 0
5, 70320, Note_on_c, 3, 64, 58
5, 70440, Note_on_c, 3, 64, 0
5, 70440, Control_c, 3, 7, 110
5, 70440, Note_on_c, 3, 62, 57
5, 70560, Note_on_c, 3, 62, 0
5, 70560, Note_on_c, 3, 60, 57
5, 70680, Note_on_c, 3, 60, 0
5, 70680, Note_on_c, 3, 62, 56
5, 70800, Note_on_c, 3, 62, 0
5, 70800, Note_on_c, 3, 60, 56
5, 70920, Note_on_c, 3, 60, 0
5, 70920, Note_on_c, 3, 59, 56
5, 71040, Note_on_c, 3, 59, 0
5, 71040, Note_on_c, 3, 57, 56
5, 71280, Note_on_c, 3, 57, 0
5, 71280, Note_on_c, 3, 66, 56
5, 71520, Note_on_c, 3, 66, 0
5, 71520, Note_on_c, 3, 67, 60
5, 72240, Note_on_c, 3, 67, 0
5, 72240, Note_on_c, 3, 66, 57
5, 72360, Note_on_c, 3, 66, 0
5, 72360, Note_on_c, 3, 64, 57
5, 72480, Note_on_c, 3, 64, 0
5, 72480, Note_on_c, 3, 66, 57
5, 72700, Note_on_c, 3, 66, 0
5, 72720, Note_on_c, 3, 62, 57
5, 72960, Note_on_c, 3, 62, 0
5, 72960, Note_on_c, 3, 67, 59
5, 73200, Note_on_c, 3, 67, 0
5, 73200, Note_on_c, 3, 65, 58
5, 73440, Note_on_c, 3, 65, 0
5, 73440, Note_on_c, 3, 64, 57
5, 73680, Note_on_c, 3, 64, 0
5, 73680, Note_on_c, 3, 62, 56
5, 73920, Note_on_c, 3, 62, 0
5, 73920, Note_on_c, 3, 60, 55
5, 74160, Note_on_c, 3, 60, 0
5, 74640, Note_on_c, 3, 67, 60
5, 75120, Note_on_c, 3, 67, 0
5, 75120, Note_on_c, 3, 65, 58
5, 75240, Note_on_c, 3, 65, 0
5, 75240, Note_on_c, 3, 64, 58
5, 75360, Note_on_c, 3, 64, 0
5, 75360, Note_on_c, 3, 65, 58
5, 75960, Note_on_c, 3, 65, 0
5, 75960, Note_on_c, 3, 65, 57
5, 76080, Note_on_c, 3, 65, 0
5, 76080, Note_on_c, 3, 64, 57
5, 76320, Note_on_c, 3, 64, 0
5, 76320, Note_on_c, 3, 62, 57
5, 76800, Note_on_c, 3, 62, 0
5, 76800, Note_on_c, 3, 60, 56
5, 77040, Note_on_c, 3, 60, 0
5, 77040, Note_on_c, 3, 65, 60
5, 77280, Note_on_c, 3, 65, 0
5, 77400, Note_on_c, 3, 67, 57
5, 77520, Note_on_c, 3, 67, 0
5, 77520, Note_on_c, 3, 65, 57
5, 77640, Note_on_c, 3, 65, 0
5, 77640, Note_on_c, 3, 64, 57
5, 77760, Note_on_c, 3, 64, 0
5, 77760, Note_on_c, 3, 65, 57
5, 77980, Note_on_c, 3, 65, 0
5, 78000, Note_on_c, 3, 62, 56
5, 78240, Note_on_c, 3, 62, 0
5, 78240, Note_on_c, 3, 67, 62
5, 79200, Note_on_c, 3, 67, 0
5, 82800, Control_c, 3, 7, 127
5, 82800, Note_on_c, 3, 67, 51
5, 83040, Note_on_c, 3, 67, 0
5, 83040, Note_on_c, 3, 69, 53
5, 83280, Note_on_c, 3, 69, 0
5, 83280, Note_on_c, 3, 71, 56
5, 83520, Note_on_c, 3, 71, 0
5, 83520, Note_on_c, 3, 72, 60
5, 83880, Note_on_c, 3, 72, 0
5, 83880, Note_on_c, 3, 74, 57
5, 83940, Note_on_c, 3, 74, 0
5, 83940, Note_on_c, 3, 72, 57
5, 84000, Note_on_c, 3, 72, 0
5, 84000, Note_on_c, 3, 71, 57
5, 84220, Note_on_c, 3, 71, 0
5, 84240, Note_on_c, 3, 76, 60
5, 84480, Note_on_c, 3, 76, 0
5, 84480, Note_on_c, 3, 69, 56
5, 84700, Note_on_c, 3, 69, 0
5, 84720, Note_on_c, 3, 74, 60
5, 85080, Note_on_c, 3, 74, 0
5, 85080, Note_on_c, 3, 76, 57
5, 85200, Note_on_c, 3, 76, 0
5, 85200, Note_on_c, 3, 74, 56
5, 85320, Note_on_c, 3, 74, 0
5, 85320, Note_on_c, 3, 72, 55
5, 85440, Note_on_c, 3, 72, 0
5, 85440, Note_on_c, 3, 71, 54
5, 85680, Note_on_c, 3, 71, 0
5, 86160, Control_c, 3, 7, 110
5, 86160, Note_on_c, 3, 62, 51
5, 86400, Note_on_c, 3, 62, 0
5, 86400, Note_on_c, 3, 64, 52
5, 86640, Note_on_c, 3, 64, 0
5, 86640, Note_on_c, 3, 66, 54
5, 86880, Note_on_c, 3, 66, 0
5, 86880, Note_on_c, 3, 67, 60
5, 87240, Note_on_c, 3, 67, 0
5, 87240, Note_on_c, 3, 69, 58
5, 87300, Note_on_c, 3, 69, 0
5, 87300, Note_on_c, 3, 67, 58
5, 87360, Note_on_c, 3, 67, 0
5, 87360, Note_on_c, 3, 66, 58
5, 87580, Note_on_c, 3, 66, 0
5, 87600, Note_on_c, 3, 71, 60
5, 87840, Note_on_c, 3, 71, 0
5, 87840, Note_on_c, 3, 64, 57
5, 88060, Note_on_c, 3, 64, 0
5, 88080, Note_on_c, 3, 69, 60
5, 88440, Note_on_c, 3, 69, 0
5, 88440, Note_on_c, 3, 71, 58
5, 88560, Note_on_c, 3, 71, 0
5, 88560, Note_on_c, 3, 69, 58
5, 88680, Note_on_c, 3, 69, 0
5, 88680, Note_on_c, 3, 67, 58
5, 88800, Note_on_c, 3, 67, 0
5, 88800, Note_on_c, 3, 66, 58
5, 89040, Note_on_c, 3, 66, 0
5, 89040, Note_on_c, 3, 65, 57
5, 89280, Note_on_c, 3, 65, 0
5, 89280, Note_on_c, 3, 64, 55
5, 89520, Note_on_c, 3, 64, 0
5, 89520, Note_on_c, 3, 62, 54
5, 89880, Note_on_c, 3, 62, 0
5, 89880, Note_on_c, 3, 64, 54
5, 90000, Note_on_c, 3, 64, 0
5, 90000, Note_on_c, 3, 66, 55
5, 90120, Note_on_c, 3, 66, 0
5, 90120, Note_on_c, 3, 68, 55
5, 90240, Note_on_c, 3, 68, 0
5, 90240, Note_on_c, 3, 69, 57
5, 90360, Note_on_c, 3, 69, 0
5, 90360, Note_on_c, 3, 68, 56
5, 90480, Note_on_c, 3, 68, 0
5, 90480, Note_on_c, 3, 69, 56
5, 90600, Note_on_c, 3, 69, 0
5, 90600, Note_on_c, 3, 71, 56
5, 90720, Note_on_c, 3, 71, 0
5, 90720, Note_on_c, 3, 68, 58
5, 90840, Note_on_c, 3, 68, 0
5, 90840, Note_on_c, 3, 66, 55
5, 90960, Note_on_c, 3, 66, 0
5, 90960, Note_on_c, 3, 68, 55
5, 91080, Note_on_c, 3, 68, 0
5, 91080, Note_on_c, 3, 69, 55
5, 91200, Note_on_c, 3, 69, 0
5, 91200, Note_on_c, 3, 71, 59
5, 91440, Note_on_c, 3, 71, 0
5, 92400, Control_c, 3, 7, 127
5, 92400, Note_on_c, 3, 60, 53
5, 92640, Note_on_c, 3, 60, 0
5, 92640, Note_on_c, 3, 62, 54
5, 92880, Note_on_c, 3, 62, 0
5, 92880, Note_on_c, 3, 64, 55
5, 93120, Note_on_c, 3, 64, 0
5, 93120, Note_on_c, 3, 65, 60
5, 93480, Note_on_c, 3, 65, 0
5, 93480, Note_on_c, 3, 67, 58
5, 93540, Note_on_c, 3, 67, 0
5, 93540, Note_on_c, 3, 65, 58
5, 93600, Note_on_c, 3, 65, 0
5, 93600, Note_on_c, 3, 64, 58
5, 93820, Note_on_c, 3, 64, 0
5, 93840, Note_on_c, 3, 69, 60
5, 94080, Note_on_c, 3, 69, 0
5, 94080, Note_on_c, 3, 62, 56
5, 94300, Note_on_c, 3, 62, 0
5, 94320, Note_on_c, 3, 67, 60
5, 94680, Note_on_c, 3, 67, 0
5, 94680, Note_on_c, 3, 69, 57
5, 94800, Note_on_c, 3, 69, 0
5, 94800, Note_on_c, 3, 67, 57
5, 94920, Note_on_c, 3, 67, 0
5, 94920, Note_on_c, 3, 65, 57
5, 95040, Note_on_c, 3, 65, 0
5, 95040, Note_on_c, 3, 64, 57
5, 95260, Note_on_c, 3, 64, 0
5, 95280, Control_c, 3, 7, 110
5, 95280, Note_on_c, 3, 64, 56
5, 95520, Note_on_c, 3, 64, 0
5, 95520, Note_on_c, 3, 66, 56
5, 95760, Note_on_c, 3, 66, 0
5, 95760, Note_on_c, 3, 67, 60
5, 96180, Note_on_c, 3, 67, 0
5, 96240, Note_on_c, 3, 66, 58
5, 96480, Note_on_c, 3, 66, 0
5, 96480, Note_on_c, 3, 68, 58
5, 96720, Note_on_c, 3, 68, 0
5, 96720, Note_on_c, 3, 69, 61
5, 97200, Note_on_c, 3, 69, 0
5, 97200, Note_on_c, 3, 67, 57
5, 97440, Note_on_c, 3, 67, 0
5, 97440, Note_on_c, 3, 69, 57
5, 97680, Note_on_c, 3, 69, 0
5, 97680, Note_on_c, 3, 71, 57
5, 97920, Note_on_c, 3, 71, 0
5, 97920, Note_on_c, 3, 72, 60
5, 98280, Note_on_c, 3, 72, 0
5, 98280, Note_on_c, 3, 74, 58
5, 98340, Note_on_c, 3, 74, 0
5, 98340, Note_on_c, 3, 72, 58
5, 98400, Note_on_c, 3, 72, 0
5, 98400, Note_on_c, 3, 71, 58
5, 98620, Note_on_c, 3, 71, 0
5, 98640, Note_on_c, 3, 76, 60
5, 98880, Note_on_c, 3, 76, 0
5, 98880, Note_on_c, 3, 69, 58
5, 99100, Note_on_c, 3, 69, 0
5, 99120, Note_on_c, 3, 74, 60
5, 99480, Note_on_c, 3, 74, 0
5, 99480, Note_on_c, 3, 76, 57
5, 99600, Note_on_c, 3, 76, 0
5, 99600, Note_on_c, 3, 74, 56
5, 99720, Note_on_c, 3, 74, 0
5, 99720, Note_on_c, 3, 72, 55
5, 99840, Note_on_c, 3, 72, 0
5, 99840, Note_on_c, 3, 71, 54
5, 100060, Note_on_c, 3, 71, 0
5, 100080, Note_on_c, 3, 79, 65
5, 100320, Note_on_c, 3, 79, 0
5, 100320, Note_on_c, 3, 73, 58
5, 100560, Note_on_c, 3, 73, 0
5, 100560, Note_on_c, 3, 74, 58
5, 100800, Note_on_c, 3, 74, 0
5, 100800, Note_on_c, 3, 76, 60
5, 101020, Note_on_c, 3, 76, 0
5, 101040, Note_on_c, 3, 73, 56
5, 101280, Note_on_c, 3, 73, 0
5, 101280, Note_on_c, 3, 74, 56
5, 101520, Note_on_c, 3, 74, 0
5, 101520, Note_on_c, 3, 76, 56
5, 101760, Note_on_c, 3, 76, 0
5, 101760, Note_on_c, 3, 69, 58
5, 102000, Note_on_c, 3, 69, 0
5, 102480, Note_on_c, 3, 64, 52
5, 102720, Note_on_c, 3, 64, 0
5, 102720, Note_on_c, 3, 66, 53
5, 102960, Note_on_c, 3, 66, 0
5, 102960, Note_on_c, 3, 67, 55
5, 103200, Note_on_c, 3, 67, 0
5, 103200, Note_on_c, 3, 69, 60
5, 103560, Note_on_c, 3, 69, 0
5, 103560, Note_on_c, 3, 71, 58
5, 103620, Note_on_c, 3, 71, 0
5, 103620, Note_on_c, 3, 69, 58
5, 103680, Note_on_c, 3, 69, 0
5, 103680, Note_on_c, 3, 67, 58
5, 103900, Note_on_c, 3, 67, 0
5, 103920, Note_on_c, 3, 72, 60
5, 104160, Note_on_c, 3, 72, 0
5, 104160, Note_on_c, 3, 66, 55
5, 104278, Note_on_c, 3, 66, 0
5, 104400, Note_on_c, 3, 71, 60
5, 104760, Note_on_c, 3, 71, 0
5, 104760, Note_on_c, 3, 72, 57
5, 104880, Note_on_c, 3, 72, 0
5, 104880, Note_on_c, 3, 71, 57
5, 105000, Note_on_c, 3, 71, 0
5, 105000, Note_on_c, 3, 69, 56
5, 105120, Note_on_c, 3, 69, 0
5, 105120, Note_on_c, 3, 67, 56
5, 105240, Note_on_c, 3, 67, 0
5, 105240, Note_on_c, 3, 66, 55
5, 105360, Note_on_c, 3, 66, 0
5, 105360, Note_on_c, 3, 64, 54
5, 105480, Note_on_c, 3, 64, 0
5, 105480, Note_on_c, 3, 62, 54
5, 105600, Note_on_c, 3, 62, 0
5, 105600, Note_on_c, 3, 64, 57
5, 106080, Note_on_c, 3, 64, 0
5, 106080, Note_on_c, 3, 62, 58
5, 106680, Note_on_c, 3, 62, 0
5, 106680, Note_on_c, 3, 69, 57
5, 106800, Note_on_c, 3, 69, 0
5, 106800, Note_on_c, 3, 67, 57
5, 106920, Note_on_c, 3, 67, 0
5, 106920, Note_on_c, 3, 65, 56
5, 107040, Note_on_c, 3, 65, 0
5, 107040, Note_on_c, 3, 64, 56
5, 107160, Note_on_c, 3, 64, 0
5, 107160, Note_on_c, 3, 67, 60
5, 107280, Note_on_c, 3, 67, 0
5, 107280, Note_on_c, 3, 65, 56
5, 107400, Note_on_c, 3, 65, 0
5, 107400, Note_on_c, 3, 69, 56
5, 107520, Note_on_c, 3, 69, 0
5, 107520, Note_on_c, 3, 67, 58
5, 108120, Note_on_c, 3, 67, 0
5, 108120, Note_on_c, 3, 69, 56
5, 108240, Note_on_c, 3, 69, 0
5, 108240, Note_on_c, 3, 70, 56
5, 108480, Note_on_c, 3, 70, 0
5, 108480, Note_on_c, 3, 72, 54
5, 108960, Note_on_c, 3, 72, 0
5, 108960, Note_on_c, 3, 74, 60
5, 109180, Note_on_c, 3, 74, 0
5, 109200, Note_on_c, 3, 67, 57
5, 109440, Note_on_c, 3, 67, 0
5, 109440, Note_on_c, 3, 67, 60
5, 110160, Note_on_c, 3, 67, 0
5, 110160, Note_on_c, 3, 65, 57
5, 110640, Note_on_c, 3, 65, 0
5, 110640, Note_on_c, 3, 64, 57
5, 110880, Note_on_c, 3, 64, 0
5, 110880, Note_on_c, 3, 62, 57
5, 111360, Note_on_c, 3, 62, 0
5, 111360, Note_on_c, 3, 64, 56
5, 111580, Note_on_c, 3, 64, 0
5, 111600, Note_on_c, 3, 69, 68
5, 112080, Note_on_c, 3, 69, 0
5, 112080, Note_on_c, 3, 67, 56
5, 112560, Note_on_c, 3, 67, 0
5, 112560, Note_on_c, 3, 65, 56
5, 112800, Note_on_c, 3, 65, 0
5, 112800, Note_on_c, 3, 67, 57
5, 113040, Note_on_c, 3, 67, 0
5, 113040, Note_on_c, 3, 69, 57
5, 113280, Note_on_c, 3, 69, 0
5, 113280, Note_on_c, 3, 70, 60
5, 113640, Note_on_c, 3, 70, 0
5, 113640, Note_on_c, 3, 72, 57
5, 113700, Note_on_c, 3, 72, 0
5, 113700, Note_on_c, 3, 70, 57
5, 113760, Note_on_c, 3, 70, 0
5, 113760, Note_on_c, 3, 69, 57
5, 113980, Note_on_c, 3, 69, 0
5, 114000, Note_on_c, 3, 74, 60
5, 114240, Note_on_c, 3, 74, 0
5, 114240, Note_on_c, 3, 67, 55
5, 114460, Note_on_c, 3, 67, 0
5, 114480, Note_on_c, 3, 72, 60
5, 114840, Note_on_c, 3, 72, 0
5, 114840, Note_on_c, 3, 74, 62
5, 114960, Note_on_c, 3, 74, 0
5, 114960, Note_on_c, 3, 72, 62
5, 115080, Note_on_c, 3, 72, 0
5, 115080, Note_on_c, 3, 70, 62
5, 115200, Note_on_c, 3, 70, 0
5, 115200, Note_on_c, 3, 69, 61
5, 115320, Note_on_c, 3, 69, 0
5, 115320, Note_on_c, 3, 70, 61
5, 115440, Note_on_c, 3, 70, 0
5, 115440, Note_on_c, 3, 69, 61
5, 115560, Note_on_c, 3, 69, 0
5, 115560, Note_on_c, 3, 67, 60
5, 115680, Note_on_c, 3, 67, 0
5, 115680, Note_on_c, 3, 65, 60
5, 115800, Note_on_c, 3, 65, 0
5, 115800, Note_on_c, 3, 67, 60
5, 115920, Note_on_c, 3, 67, 0
5, 115920, Note_on_c, 3, 65, 59
5, 116040, Note_on_c, 3, 65, 0
5, 116040, Note_on_c, 3, 64, 59
5, 116160, Note_on_c, 3, 64, 0
5, 116160, Note_on_c, 3, 62, 59
5, 117000, Note_on_c, 3, 62, 0
5, 117000, Note_on_c, 3, 67, 57
5, 117120, Note_on_c, 3, 67, 0
5, 117120, Note_on_c, 3, 69, 60
5, 117600, Note_on_c, 3, 69, 0
5, 117720, Note_on_c, 3, 77, 57
5, 117840, Note_on_c, 3, 77, 0
5, 117840, Note_on_c, 3, 74, 57
5, 118080, Note_on_c, 3, 74, 0
5, 118080, Note_on_c, 3, 76, 48
5, 119040, Note_on_c, 3, 76, 0
5, 119040, End_track
6, 0, Start_track
6, 0, MIDI_port, 0
6, 0, Title_t, "Fuga 3"
6, 0, Program_c, 4, 0
6, 0, Control_c, 4, 7, 100
6, 0, Control_c, 4, 10, 64
6, 67200, Control_c, 4, 91, 127
6, 67200, Control_c, 4, 93, 0
6, 73200, Control_c, 4, 7, 120
6, 73200, Note_on_c, 4, 55, 50
6, 73440, Note_on_c, 4, 55, 0
6, 73440, Note_on_c, 4, 57, 52
6, 73680, Note_on_c, 4, 57, 0
6, 73680, Note_on_c, 4, 59, 55
6, 73920, Note_on_c, 4, 59, 0
6, 73920, Note_on_c, 4, 60, 60
6, 74280, Note_on_c, 4, 60, 0
6, 74280, Note_on_c, 4, 62, 57
6, 74340, Note_on_c, 4, 62, 0
6, 74340, Note_on_c, 4, 60, 57
6, 74400, Note_on_c, 4, 60, 0
6, 74400, Note_on_c, 4, 59, 57
6, 74620, Note_on_c, 4, 59, 0
6, 74640, Note_on_c, 4, 64, 60
6, 74880, Note_on_c, 4, 64, 0
6, 74880, Note_on_c, 4, 57, 56
6, 75100, Note_on_c, 4, 57, 0
6, 75120, Note_on_c, 4, 62, 60
6, 75480, Note_on_c, 4, 62, 0
6, 75480, Note_on_c, 4, 64, 58
6, 75600, Note_on_c, 4, 64, 0
6, 75600, Note_on_c, 4, 62, 57
6, 75720, Note_on_c, 4, 62, 0
6, 75720, Note_on_c, 4, 60, 56
6, 75840, Note_on_c, 4, 60, 0
6, 75840, Note_on_c, 4, 59, 55
6, 76060, Note_on_c, 4, 59, 0
6, 76080, Control_c, 4, 7, 100
6, 76080, Note_on_c, 4, 60, 60
6, 76560, Note_on_c, 4, 60, 0
6, 76560, Note_on_c, 4, 58, 58
6, 76800, Note_on_c, 4, 58, 0
6, 76800, Note_on_c, 4, 57, 56
6, 77020, Note_on_c, 4, 57, 0
6, 77040, Note_on_c, 4, 62, 60
6, 77280, Note_on_c, 4, 62, 0
6, 77280, Note_on_c, 4, 55, 56
6, 77500, Note_on_c, 4, 55, 0
6, 77520, Note_on_c, 4, 60, 60
6, 77760, Note_on_c, 4, 60, 0
6, 77880, Note_on_c, 4, 57, 55
6, 78000, Note_on_c, 4, 57, 0
6, 78000, Note_on_c, 4, 59, 56
6, 78120, Note_on_c, 4, 59, 0
6, 78120, Note_on_c, 4, 60, 58
6, 78240, Note_on_c, 4, 60, 0
6, 78240, Note_on_c, 4, 62, 59
6, 78720, Note_on_c, 4, 62, 0
6, 78720, Note_on_c, 4, 55, 60
6, 79200, Note_on_c, 4, 55, 0
6, 79440, Note_on_c, 4, 55, 53
6, 79680, Note_on_c, 4, 55, 0
6, 79680, Note_on_c, 4, 57, 54
6, 79920, Note_on_c, 4, 57, 0
6, 79920, Note_on_c, 4, 59, 55
6, 80160, Note_on_c, 4, 59, 0
6, 80160, Note_on_c, 4, 60, 60
6, 80520, Note_on_c, 4, 60, 0
6, 80520, Note_on_c, 4, 62, 58
6, 80580, Note_on_c, 4, 62, 0
6, 80580, Note_on_c, 4, 60, 58
6, 80640, Note_on_c, 4, 60, 0
6, 80640, Note_on_c, 4, 59, 58
6, 80860, Note_on_c, 4, 59, 0
6, 80880, Note_on_c, 4, 64, 60
6, 81120, Note_on_c, 4, 64, 0
6, 81120, Note_on_c, 4, 57, 56
6, 81340, Note_on_c, 4, 57, 0
6, 81360, Note_on_c, 4, 62, 60
6, 81720, Note_on_c, 4, 62, 0
6, 81720, Note_on_c, 4, 64, 57
6, 81840, Note_on_c, 4, 64, 0
6, 81840, Note_on_c, 4, 62, 56
6, 81960, Note_on_c, 4, 62, 0
6, 81960, Note_on_c, 4, 60, 56
6, 82080, Note_on_c, 4, 60, 0
6, 82080, Note_on_c, 4, 59, 55
6, 82320, Note_on_c, 4, 59, 0
6, 82320, Note_on_c, 4, 64, 60
6, 83040, Note_on_c, 4, 64, 0
6, 83040, Note_on_c, 4, 62, 60
6, 83520, Note_on_c, 4, 62, 0
6, 83640, Note_on_c, 4, 59, 58
6, 83760, Note_on_c, 4, 59, 0
6, 83760, Note_on_c, 4, 60, 60
6, 83880, Note_on_c, 4, 60, 0
6, 83880, Note_on_c, 4, 57, 57
6, 83970, Note_on_c, 4, 57, 0
6, 84000, Note_on_c, 4, 64, 58
6, 84120, Note_on_c, 4, 64, 0
6, 84120, Note_on_c, 4, 62, 58
6, 84240, Note_on_c, 4, 62, 0
6, 84240, Note_on_c, 4, 60, 57
6, 84360, Note_on_c, 4, 60, 0
6, 84360, Note_on_c, 4, 59, 57
6, 84480, Note_on_c, 4, 59, 0
6, 84480, Note_on_c, 4, 60, 60
6, 84570, Note_on_c, 4, 60, 0
6, 84600, Note_on_c, 4, 57, 54
6, 84720, Note_on_c, 4, 57, 0
6, 84720, Note_on_c, 4, 59, 56
6, 84840, Note_on_c, 4, 59, 0
6, 84840, Note_on_c, 4, 60, 58
6, 84960, Note_on_c, 4, 60, 0
6, 84960, Note_on_c, 4, 62, 60
6, 85080, Note_on_c, 4, 62, 0
6, 85080, Note_on_c, 4, 60, 59
6, 85200, Note_on_c, 4, 60, 0
6, 85200, Note_on_c, 4, 59, 58
6, 85320, Note_on_c, 4, 59, 0
6, 85320, Note_on_c, 4, 57, 57
6, 85440, Note_on_c, 4, 57, 0
6, 85440, Note_on_c, 4, 55, 56
6, 85920, Note_on_c, 4, 55, 0
6, 88560, Control_c, 4, 7, 120
6, 88560, Note_on_c, 4, 52, 52
6, 88800, Note_on_c, 4, 52, 0
6, 88800, Note_on_c, 4, 54, 54
6, 89040, Note_on_c, 4, 54, 0
6, 89040, Note_on_c, 4, 56, 56
6, 89280, Note_on_c, 4, 56, 0
6, 89280, Note_on_c, 4, 57, 60
6, 89640, Note_on_c, 4, 57, 0
6, 89640, Note_on_c, 4, 59, 57
6, 89700, Note_on_c, 4, 59, 0
6, 89700, Note_on_c, 4, 57, 57
6, 89760, Note_on_c, 4, 57, 0
6, 89760, Note_on_c, 4, 56, 57
6, 89980, Note_on_c, 4, 56, 0
6, 90000, Note_on_c, 4, 60, 60
6, 90240, Note_on_c, 4, 60, 0
6, 90240, Note_on_c, 4, 54, 56
6, 90460, Note_on_c, 4, 54, 0
6, 90480, Note_on_c, 4, 59, 60
6, 90840, Note_on_c, 4, 59, 0
6, 90840, Note_on_c, 4, 60, 60
6, 90960, Note_on_c, 4, 60, 0
6, 90960, Note_on_c, 4, 59, 59
6, 91080, Note_on_c, 4, 59, 0
6, 91080, Note_on_c, 4, 57, 57
6, 91200, Note_on_c, 4, 57, 0
6, 91200, Note_on_c, 4, 56, 56
6, 91420, Note_on_c, 4, 56, 0
6, 91440, Note_on_c, 4, 57, 59
6, 91920, Note_on_c, 4, 57, 0
6, 91920, Note_on_c, 4, 56, 57
6, 92160, Note_on_c, 4, 56, 0
6, 92160, Note_on_c, 4, 57, 60
6, 92640, Note_on_c, 4, 57, 0
6, 92880, Note_on_c, 4, 55, 52
6, 93120, Note_on_c, 4, 55, 0
6, 93120, Note_on_c, 4, 57, 54
6, 93360, Note_on_c, 4, 57, 0
6, 93360, Note_on_c, 4, 59, 56
6, 93600, Note_on_c, 4, 59, 0
6, 93600, Note_on_c, 4, 60, 60
6, 93960, Note_on_c, 4, 60, 0
6, 93960, Note_on_c, 4, 62, 57
6, 94020, Note_on_c, 4, 62, 0
6, 94020, Note_on_c, 4, 60, 57
6, 94080, Note_on_c, 4, 60, 0
6, 94080, Note_on_c, 4, 59, 57
6, 94300, Note_on_c, 4, 59, 0
6, 94320, Note_on_c, 4, 64, 60
6, 94560, Note_on_c, 4, 64, 0
6, 94560, Note_on_c, 4, 57, 55
6, 94780, Note_on_c, 4, 57, 0
6, 94800, Note_on_c, 4, 62, 60
6, 95280, Note_on_c, 4, 62, 0
6, 95280, Control_c, 4, 7, 100
6, 95280, Note_on_c, 4, 55, 57
6, 95520, Note_on_c, 4, 55, 0
6, 95520, Note_on_c, 4, 62, 60
6, 96000, Note_on_c, 4, 62, 0
6, 96000, Note_on_c, 4, 60, 57
6, 96220, Note_on_c, 4, 60, 0
6, 96240, Note_on_c, 4, 57, 57
6, 96480, Note_on_c, 4, 57, 0
6, 96480, Note_on_c, 4, 64, 60
6, 96960, Note_on_c, 4, 64, 0
6, 96960, Note_on_c, 4, 62, 57
6, 97200, Note_on_c, 4, 62, 0
6, 98160, Note_on_c, 4, 57, 51
6, 98400, Note_on_c, 4, 57, 0
6, 98400, Note_on_c, 4, 59, 53
6, 98640, Note_on_c, 4, 59, 0
6, 98640, Note_on_c, 4, 61, 55
6, 98880, Note_on_c, 4, 61, 0
6, 98880, Note_on_c, 4, 62, 60
6, 99240, Note_on_c, 4, 62, 0
6, 99240, Note_on_c, 4, 64, 58
6, 99300, Note_on_c, 4, 64, 0
6, 99300, Note_on_c, 4, 62, 58
6, 99360, Note_on_c, 4, 62, 0
6, 99360, Note_on_c, 4, 60, 58
6, 99580, Note_on_c, 4, 60, 0
6, 99600, Note_on_c, 4, 65, 60
6, 99840, Note_on_c, 4, 65, 0
6, 99840, Note_on_c, 4, 59, 54
6, 100060, Note_on_c, 4, 59, 0
6, 100080, Note_on_c, 4, 64, 60
6, 100440, Note_on_c, 4, 64, 0
6, 100440, Note_on_c, 4, 65, 61
6, 100560, Note_on_c, 4, 65, 0
6, 100560, Note_on_c, 4, 64, 59
6, 100680, Note_on_c, 4, 64, 0
6, 100680, Note_on_c, 4, 62, 58
6, 100800, Note_on_c, 4, 62, 0
6, 100800, Note_on_c, 4, 61, 56
6, 101040, Note_on_c, 4, 61, 0
6, 102000, Control_c, 4, 7, 120
6, 102000, Note_on_c, 4, 57, 53
6, 102240, Note_on_c, 4, 57, 0
6, 102240, Note_on_c, 4, 59, 54
6, 102480, Note_on_c, 4, 59, 0
6, 102480, Note_on_c, 4, 61, 55
6, 102720, Note_on_c, 4, 61, 0
6, 102720, Note_on_c, 4, 62, 60
6, 103080, Note_on_c, 4, 62, 0
6, 103080, Note_on_c, 4, 64, 57
6, 103140, Note_on_c, 4, 64, 0
6, 103140, Note_on_c, 4, 62, 57
6, 103200, Note_on_c, 4, 62, 0
6, 103200, Note_on_c, 4, 60, 57
6, 103420, Note_on_c, 4, 60, 0
6, 103440, Note_on_c, 4, 66, 60
6, 103680, Note_on_c, 4, 66, 0
6, 103680, Note_on_c, 4, 59, 54
6, 103900, Note_on_c, 4, 59, 0
6, 103920, Note_on_c, 4, 64, 60
6, 104280, Note_on_c, 4, 64, 0
6, 104280, Note_on_c, 4, 66, 63
6, 104400, Note_on_c, 4, 66, 0
6, 104400, Note_on_c, 4, 64, 63
6, 104520, Note_on_c, 4, 64, 0
6, 104520, Note_on_c, 4, 62, 62
6, 104640, Note_on_c, 4, 62, 0
6, 104640, Note_on_c, 4, 60, 60
6, 105720, Note_on_c, 4, 60, 0
6, 105720, Control_c, 4, 7, 100
6, 105720, Note_on_c, 4, 62, 60
6, 105840, Note_on_c, 4, 62, 0
6, 105840, Note_on_c, 4, 60, 59
6, 105960, Note_on_c, 4, 60, 0
6, 105960, Note_on_c, 4, 59, 58
6, 106080, Note_on_c, 4, 59, 0
6, 106080, Note_on_c, 4, 57, 57
6, 106200, Note_on_c, 4, 57, 0
6, 106200, Note_on_c, 4, 55, 56
6, 106320, Note_on_c, 4, 55, 0
6, 106320, Note_on_c, 4, 57, 58
6, 106410, Note_on_c, 4, 57, 0
6, 106440, Note_on_c, 4, 54, 54
6, 106560, Note_on_c, 4, 54, 0
6, 106560, Note_on_c, 4, 55, 54
6, 106780, Note_on_c, 4, 55, 0
6, 106800, Control_c, 4, 7, 120
6, 106800, Note_on_c, 4, 59, 57
6, 107040, Note_on_c, 4, 59, 0
6, 107040, Note_on_c, 4, 60, 60
6, 107280, Note_on_c, 4, 60, 0
6, 107280, Note_on_c, 4, 62, 63
6, 107520, Note_on_c, 4, 62, 0
6, 107520, Note_on_c, 4, 64, 66
6, 107880, Note_on_c, 4, 64, 0
6, 107880, Note_on_c, 4, 65, 60
6, 107940, Note_on_c, 4, 65, 0
6, 107940, Note_on_c, 4, 64, 60
6, 108000, Note_on_c, 4, 64, 0
6, 108000, Note_on_c, 4, 62, 60
6, 108220, Note_on_c, 4, 62, 0
6, 108240, Note_on_c, 4, 67, 65
6, 108480, Note_on_c, 4, 67, 0
6, 108480, Note_on_c, 4, 60, 58
6, 108700, Note_on_c, 4, 60, 0
6, 108720, Note_on_c, 4, 65, 66
6, 109080, Note_on_c, 4, 65, 0
6, 109080, Note_on_c, 4, 67, 62
6, 109200, Note_on_c, 4, 67, 0
6, 109200, Note_on_c, 4, 65, 60
6, 109320, Note_on_c, 4, 65, 0
6, 109320, Note_on_c, 4, 64, 58
6, 109440, Note_on_c, 4, 64, 0
6, 109440, Note_on_c, 4, 62, 57
6, 109920, Note_on_c, 4, 62, 0
6, 109920, Control_c, 4, 7, 100
6, 109920, Note_on_c, 4, 64, 60
6, 110160, Note_on_c, 4, 64, 0
6, 110160, Note_on_c, 4, 62, 60
6, 110640, Note_on_c, 4, 62, 0
6, 110640, Note_on_c, 4, 55, 58
6, 110880, Note_on_c, 4, 55, 0
6, 110880, Note_on_c, 4, 55, 61
6, 111580, Note_on_c, 4, 55, 0
6, 111600, Control_c, 4, 7, 120
6, 111600, Note_on_c, 4, 48, 51
6, 111840, Note_on_c, 4, 48, 0
6, 111840, Note_on_c, 4, 50, 53
6, 112080, Note_on_c, 4, 50, 0
6, 112080, Note_on_c, 4, 52, 55
6, 112320, Note_on_c, 4, 52, 0
6, 112320, Note_on_c, 4, 53, 60
6, 112680, Note_on_c, 4, 53, 0
6, 112680, Note_on_c, 4, 55, 56
6, 112740, Note_on_c, 4, 55, 0
6, 112740, Note_on_c, 4, 53, 56
6, 112800, Note_on_c, 4, 53, 0
6, 112800, Note_on_c, 4, 52, 57
6, 113020, Note_on_c, 4, 52, 0
6, 113040, Control_c, 4, 7, 100
6, 113040, Note_on_c, 4, 57, 60
6, 113280, Note_on_c, 4, 57, 0
6, 113280, Note_on_c, 4, 50, 55
6, 113500, Note_on_c, 4, 50, 0
6, 113520, Note_on_c, 4, 55, 60
6, 113880, Note_on_c, 4, 55, 0
6, 113880, Note_on_c, 4, 57, 58
6, 114000, Note_on_c, 4, 57, 0
6, 114000, Note_on_c, 4, 55, 58
6, 114120, Note_on_c, 4, 55, 0
6, 114120, Note_on_c, 4, 53, 57
6, 114240, Note_on_c, 4, 53, 0
6, 114240, Note_on_c, 4, 52, 57
6, 114330, Note_on_c, 4, 52, 0
6, 114360, Note_on_c, 4, 50, 56
6, 114480, Note_on_c, 4, 50, 0
6, 114480, Note_on_c, 4, 52, 56
6, 114600, Note_on_c, 4, 52, 0
6, 114600, Note_on_c, 4, 53, 56
6, 114720, Note_on_c, 4, 53, 0
6, 114720, Note_on_c, 4, 55, 57
6, 114840, Note_on_c, 4, 55, 0
6, 114840, Note_on_c, 4, 57, 59
6, 114960, Note_on_c, 4, 57, 0
6, 114960, Note_on_c, 4, 58, 63
6, 115050, Note_on_c, 4, 58, 0
6, 115080, Note_on_c, 4, 55, 60
6, 115200, Note_on_c, 4, 55, 0
6, 115200, Note_on_c, 4, 57, 60
6, 115290, Note_on_c, 4, 57, 0
6, 115320, Note_on_c, 4, 52, 63
6, 115440, Note_on_c, 4, 52, 0
6, 115440, Note_on_c, 4, 53, 55
6, 115560, Note_on_c, 4, 53, 0
6, 115560, Note_on_c, 4, 55, 57
6, 115680, Note_on_c, 4, 55, 0
6, 115680, Note_on_c, 4, 57, 59
6, 115800, Note_on_c, 4, 57, 0
6, 115800, Note_on_c, 4, 59, 60
6, 115920, Note_on_c, 4, 59, 0
6, 115920, Note_on_c, 4, 60, 62
6, 116010, Note_on_c, 4, 60, 0
6, 116040, Note_on_c, 4, 57, 58
6, 116160, Note_on_c, 4, 57, 0
6, 116160, Note_on_c, 4, 59, 62
6, 117120, Note_on_c, 4, 59, 0
6, 117120, Note_on_c, 4, 60, 60
6, 119040, Note_on_c, 4, 60, 0
6, 119040, End_track
7, 0, Start_track
7, 0, MIDI_port, 0
7, 0, Title_t, "Fuga 4"
7, 0, Program_c, 5, 0
7, 0, Control_c, 5, 7, 100
7, 0, Control_c, 5, 10, 64
7, 67200, Control_c, 5, 91, 127
7, 67200, Control_c, 5, 93, 0
7, 76080, Control_c, 5, 7, 120
7, 76080, Note_on_c, 5, 48, 51
7, 76320, Note_on_c, 5, 48, 0
7, 76320, Note_on_c, 5, 50, 53
7, 76560, Note_on_c, 5, 50, 0
7, 76560, Note_on_c, 5, 52, 56
7, 76800, Note_on_c, 5, 52, 0
7, 76800, Note_on_c, 5, 53, 60
7, 77160, Note_on_c, 5, 53, 0
7, 77160, Note_on_c, 5, 55, 57
7, 77220, Note_on_c, 5, 55, 0
7, 77220, Note_on_c, 5, 53, 57
7, 77280, Note_on_c, 5, 53, 0
7, 77280, Note_on_c, 5, 52, 57
7, 77500, Note_on_c, 5, 52, 0
7, 77520, Note_on_c, 5, 57, 60
7, 77760, Note_on_c, 5, 57, 0
7, 77760, Note_on_c, 5, 50, 55
7, 77980, Note_on_c, 5, 50, 0
7, 78000, Note_on_c, 5, 55, 60
7, 78360, Note_on_c, 5, 55, 0
7, 78360, Note_on_c, 5, 57, 59
7, 78480, Note_on_c, 5, 57, 0
7, 78480, Note_on_c, 5, 55, 58
7, 78600, Note_on_c, 5, 55, 0
7, 78600, Note_on_c, 5, 53, 57
7, 78720, Note_on_c, 5, 53, 0
7, 78720, Note_on_c, 5, 52, 56
7, 78810, Note_on_c, 5, 52, 0
7, 78840, Note_on_c, 5, 53, 57
7, 78960, Note_on_c, 5, 53, 0
7, 78960, Control_c, 5, 7, 100
7, 78960, Note_on_c, 5, 52, 56
7, 79080, Note_on_c, 5, 52, 0
7, 79080, Note_on_c, 5, 50, 55
7, 79200, Note_on_c, 5, 50, 0
7, 79200, Note_on_c, 5, 48, 54
7, 79290, Note_on_c, 5, 48, 0
7, 79320, Note_on_c, 5, 50, 57
7, 79440, Note_on_c, 5, 50, 0
7, 79440, Note_on_c, 5, 48, 56
7, 79560, Note_on_c, 5, 48, 0
7, 79560, Note_on_c, 5, 47, 55
7, 79680, Note_on_c, 5, 47, 0
7, 79680, Note_on_c, 5, 45, 54
7, 79900, Note_on_c, 5, 45, 0
7, 79920, Note_on_c, 5, 50, 57
7, 80160, Note_on_c, 5, 50, 0
7, 80160, Note_on_c, 5, 57, 60
7, 80400, Note_on_c, 5, 57, 0
7, 80400, Note_on_c, 5, 54, 57
7, 80640, Note_on_c, 5, 54, 0
7, 80640, Note_on_c, 5, 55, 58
7, 80760, Note_on_c, 5, 55, 0
7, 80760, Note_on_c, 5, 57, 58
7, 80880, Note_on_c, 5, 57, 0
7, 80880, Note_on_c, 5, 58, 60
7, 81000, Note_on_c, 5, 58, 0
7, 81000, Note_on_c, 5, 55, 58
7, 81120, Note_on_c, 5, 55, 0
7, 81120, Note_on_c, 5, 49, 56
7, 81360, Note_on_c, 5, 49, 0
7, 81360, Note_on_c, 5, 50, 57
7, 81600, Note_on_c, 5, 50, 0
7, 81600, Note_on_c, 5, 57, 58
7, 82080, Note_on_c, 5, 57, 0
7, 82080, Note_on_c, 5, 52, 56
7, 82560, Note_on_c, 5, 52, 0
7, 82560, Note_on_c, 5, 57, 56
7, 82680, Note_on_c, 5, 57, 0
7, 82680, Note_on_c, 5, 59, 57
7, 82800, Note_on_c, 5, 59, 0
7, 82800, Note_on_c, 5, 60, 58
7, 82920, Note_on_c, 5, 60, 0
7, 82920, Note_on_c, 5, 62, 59
7, 83040, Note_on_c, 5, 62, 0
7, 83040, Note_on_c, 5, 60, 60
7, 83160, Note_on_c, 5, 60, 0
7, 83160, Note_on_c, 5, 59, 57
7, 83280, Note_on_c, 5, 59, 0
7, 83280, Note_on_c, 5, 57, 56
7, 83400, Note_on_c, 5, 57, 0
7, 83400, Note_on_c, 5, 55, 55
7, 83520, Note_on_c, 5, 55, 0
7, 83520, Note_on_c, 5, 60, 60
7, 83760, Note_on_c, 5, 60, 0
7, 85680, Control_c, 5, 7, 120
7, 85680, Note_on_c, 5, 43, 54
7, 85920, Note_on_c, 5, 43, 0
7, 85920, Note_on_c, 5, 45, 55
7, 86160, Note_on_c, 5, 45, 0
7, 86160, Note_on_c, 5, 47, 55
7, 86400, Note_on_c, 5, 47, 0
7, 86400, Note_on_c, 5, 48, 60
7, 86760, Note_on_c, 5, 48, 0
7, 86760, Note_on_c, 5, 50, 58
7, 86820, Note_on_c, 5, 50, 0
7, 86820, Note_on_c, 5, 48, 58
7, 86880, Note_on_c, 5, 48, 0
7, 86880, Note_on_c, 5, 47, 58
7, 87100, Note_on_c, 5, 47, 0
7, 87120, Note_on_c, 5, 52, 60
7, 87360, Note_on_c, 5, 52, 0
7, 87360, Note_on_c, 5, 45, 55
7, 87580, Note_on_c, 5, 45, 0
7, 87600, Note_on_c, 5, 50, 60
7, 87960, Note_on_c, 5, 50, 0
7, 87960, Note_on_c, 5, 52, 60
7, 88080, Note_on_c, 5, 52, 0
7, 88080, Note_on_c, 5, 50, 58
7, 88200, Note_on_c, 5, 50, 0
7, 88200, Note_on_c, 5, 48, 57
7, 88320, Note_on_c, 5, 48, 0
7, 88320, Note_on_c, 5, 47, 55
7, 88560, Note_on_c, 5, 47, 0
7, 89040, Control_c, 5, 7, 100
7, 89040, Note_on_c, 5, 50, 58
7, 89280, Note_on_c, 5, 50, 0
7, 89280, Note_on_c, 5, 48, 58
7, 89520, Note_on_c, 5, 48, 0
7, 89520, Note_on_c, 5, 53, 60
7, 90000, Note_on_c, 5, 53, 0
7, 90000, Note_on_c, 5, 52, 58
7, 90480, Note_on_c, 5, 52, 0
7, 90480, Note_on_c, 5, 50, 57
7, 90960, Note_on_c, 5, 50, 0
7, 90960, Note_on_c, 5, 52, 57
7, 91200, Note_on_c, 5, 52, 0
7, 91200, Note_on_c, 5, 53, 60
7, 91440, Note_on_c, 5, 53, 0
7, 91440, Note_on_c, 5, 52, 55
7, 91560, Note_on_c, 5, 52, 0
7, 91560, Note_on_c, 5, 50, 55
7, 91680, Note_on_c, 5, 50, 0
7, 91680, Note_on_c, 5, 52, 58
7, 92160, Note_on_c, 5, 52, 0
7, 92160, Note_on_c, 5, 45, 61
7, 92640, Note_on_c, 5, 45, 0
7, 94320, Control_c, 5, 7, 120
7, 94320, Note_on_c, 5, 43, 52
7, 94560, Note_on_c, 5, 43, 0
7, 94560, Note_on_c, 5, 45, 53
7, 94800, Note_on_c, 5, 45, 0
7, 94800, Note_on_c, 5, 47, 55
7, 95040, Note_on_c, 5, 47, 0
7, 95040, Note_on_c, 5, 48, 60
7, 95400, Note_on_c, 5, 48, 0
7, 95400, Note_on_c, 5, 50, 57
7, 95460, Note_on_c, 5, 50, 0
7, 95460, Note_on_c, 5, 48, 57
7, 95520, Note_on_c, 5, 48, 0
7, 95520, Note_on_c, 5, 47, 57
7, 95740, Note_on_c, 5, 47, 0
7, 95760, Note_on_c, 5, 52, 60
7, 96000, Note_on_c, 5, 52, 0
7, 96000, Note_on_c, 5, 45, 56
7, 96220, Note_on_c, 5, 45, 0
7, 96240, Note_on_c, 5, 50, 60
7, 96600, Note_on_c, 5, 50, 0
7, 96600, Note_on_c, 5, 52, 61
7, 96720, Note_on_c, 5, 52, 0
7, 96720, Note_on_c, 5, 50, 60
7, 96840, Note_on_c, 5, 50, 0
7, 96840, Note_on_c, 5, 48, 59
7, 96960, Note_on_c, 5, 48, 0
7, 96960, Note_on_c, 5, 47, 58
7, 97180, Note_on_c, 5, 47, 0
7, 97200, Note_on_c, 5, 46, 57
7, 97440, Note_on_c, 5, 46, 0
7, 97440, Note_on_c, 5, 45, 57
7, 97680, Note_on_c, 5, 45, 0
7, 97680, Note_on_c, 5, 43, 56
7, 97920, Note_on_c, 5, 43, 0
7, 97920, Note_on_c, 5, 45, 56
7, 98100, Note_on_c, 5, 45, 0
7, 98160, Note_on_c, 5, 54, 60
7, 98399, Control_c, 5, 7, 100
7, 98400, Note_on_c, 5, 54, 0
7, 98400, Note_on_c, 5, 55, 60
7, 98640, Note_on_c, 5, 55, 0
7, 98640, Note_on_c, 5, 52, 57
7, 98880, Note_on_c, 5, 52, 0
7, 98880, Note_on_c, 5, 50, 57
7, 99340, Note_on_c, 5, 50, 0
7, 99360, Control_c, 5, 7, 120
7, 99360, Note_on_c, 5, 52, 56
7, 99600, Note_on_c, 5, 52, 0
7, 99600, Note_on_c, 5, 53, 56
7, 99840, Note_on_c, 5, 53, 0
7, 99840, Note_on_c, 5, 55, 60
7, 100200, Note_on_c, 5, 55, 0
7, 100200, Note_on_c, 5, 57, 57
7, 100260, Note_on_c, 5, 57, 0
7, 100260, Note_on_c, 5, 55, 57
7, 100320, Note_on_c, 5, 55, 0
7, 100320, Note_on_c, 5, 53, 57
7, 100540, Note_on_c, 5, 53, 0
7, 100560, Note_on_c, 5, 58, 60
7, 100800, Note_on_c, 5, 58, 0
7, 100800, Note_on_c, 5, 52, 55
7, 101020, Note_on_c, 5, 52, 0
7, 101040, Note_on_c, 5, 57, 60
7, 101400, Note_on_c, 5, 57, 0
7, 101400, Note_on_c, 5, 58, 58
7, 101520, Note_on_c, 5, 58, 0
7, 101520, Note_on_c, 5, 57, 58
7, 101640, Note_on_c, 5, 57, 0
7, 101640, Note_on_c, 5, 55, 57
7, 101760, Note_on_c, 5, 55, 0
7, 101760, Note_on_c, 5, 53, 58
7, 101880, Note_on_c, 5, 53, 0
7, 101880, Note_on_c, 5, 52, 55
7, 102000, Note_on_c, 5, 52, 0
7, 102000, Control_c, 5, 7, 100
7, 102000, Note_on_c, 5, 53, 58
7, 102090, Note_on_c, 5, 53, 0
7, 102120, Note_on_c, 5, 50, 55
7, 102240, Note_on_c, 5, 50, 0
7, 102240, Note_on_c, 5, 55, 59
7, 102480, Note_on_c, 5, 55, 0
7, 102480, Note_on_c, 5, 57, 59
7, 102720, Note_on_c, 5, 57, 0
7, 102720, Note_on_c, 5, 50, 56
7, 103800, Note_on_c, 5, 50, 0
7, 103800, Note_on_c, 5, 52, 57
7, 103920, Note_on_c, 5, 52, 0
7, 103920, Note_on_c, 5, 50, 57
7, 104040, Note_on_c, 5, 50, 0
7, 104040, Note_on_c, 5, 48, 56
7, 104160, Note_on_c, 5, 48, 0
7, 104160, Note_on_c, 5, 47, 56
7, 104280, Note_on_c, 5, 47, 0
7, 104280, Note_on_c, 5, 45, 55
7, 104400, Note_on_c, 5, 45, 0
7, 104400, Note_on_c, 5, 43, 55
7, 104520, Note_on_c, 5, 43, 0
7, 104520, Note_on_c, 5, 42, 54
7, 104640, Note_on_c, 5, 42, 0
7, 104640, Note_on_c, 5, 40, 54
7, 104860, Note_on_c, 5, 40, 0
7, 104879, Control_c, 5, 7, 120
7, 104880, Note_on_c, 5, 52, 52
7, 105120, Note_on_c, 5, 52, 0
7, 105120, Note_on_c, 5, 54, 54
7, 105360, Note_on_c, 5, 54, 0
7, 105360, Note_on_c, 5, 55, 56
7, 105840, Note_on_c, 5, 55, 0
7, 105840, Note_on_c, 5, 57, 60
7, 105960, Note_on_c, 5, 57, 0
7, 105960, Note_on_c, 5, 55, 58
7, 106080, Note_on_c, 5, 55, 0
7, 106080, Note_on_c, 5, 54, 60
7, 106300, Note_on_c, 5, 54, 0
7, 106320, Note_on_c, 5, 50, 57
7, 106560, Note_on_c, 5, 50, 0
7, 106560, Note_on_c, 5, 55, 59
7, 108480, Note_on_c, 5, 55, 0
7, 108480, Control_c, 5, 7, 100
7, 108480, Note_on_c, 5, 57, 52
7, 108960, Note_on_c, 5, 57, 0
7, 108960, Note_on_c, 5, 59, 57
7, 109200, Note_on_c, 5, 59, 0
7, 109200, Note_on_c, 5, 60, 57
7, 109440, Note_on_c, 5, 60, 0
7, 109440, Note_on_c, 5, 53, 58
7, 109530, Note_on_c, 5, 53, 0
7, 109560, Note_on_c, 5, 57, 60
7, 109680, Note_on_c, 5, 57, 0
7, 109680, Note_on_c, 5, 55, 59
7, 109800, Note_on_c, 5, 55, 0
7, 109800, Note_on_c, 5, 53, 58
7, 109920, Note_on_c, 5, 53, 0
7, 109920, Note_on_c, 5, 52, 57
7, 110040, Note_on_c, 5, 52, 0
7, 110040, Note_on_c, 5, 50, 56
7, 110160, Note_on_c, 5, 50, 0
7, 110160, Note_on_c, 5, 48, 56
7, 110280, Note_on_c, 5, 48, 0
7, 110280, Note_on_c, 5, 47, 55
7, 110400, Note_on_c, 5, 47, 0
7, 110400, Note_on_c, 5, 48, 51
7, 110520, Note_on_c, 5, 48, 0
7, 110520, Note_on_c, 5, 50, 53
7, 110640, Note_on_c, 5, 50, 0
7, 110640, Note_on_c, 5, 52, 56
7, 110760, Note_on_c, 5, 52, 0
7, 110760, Note_on_c, 5, 53, 58
7, 110880, Note_on_c, 5, 53, 0
7, 111120, Note_on_c, 5, 43, 57
7, 111360, Note_on_c, 5, 43, 0
7, 111360, Note_on_c, 5, 48, 60
7, 119040, Note_on_c, 5, 48, 0
7, 119040, End_track
8, 0, Start_track
8, 0, MIDI_port, 0
8, 0, Title_t, "Bach: Prelude & Fugue in C major, BWV 846"
8, 0, End_track
9, 0, Start_track
9, 0, MIDI_port, 0
9, 0, Title_t, "Copyright 2004 by Bernd Krüger."
9, 0, End_track
10, 0, Start_track
10, 0, MIDI_port, 0
10, 0, Title_t, "http://www.piano-midi.de"
10, 0, End_track
11, 0, Start_track
11, 0, MIDI_port, 0
11, 0, Title_t, "Edition: 25.9.2004"
11, 0, End_track
0, 0, End_of_file
