0,0, Header,1,20,240,,,,,,,,
1,0, Start_track,,,,,,,,,,,
1,0, Tempo,491803,,,,,,,,,,
1,0, Time_signature,4,2,24,8,,,,,,,
1,0, Text_t,Mozart Sonate a moll K.V.310 (1st.mov.)  Play by Katsuhiro Oguri,,,,,,,,,,
1,0, End_track,,,,,,,,,,,
2,0, Start_track,,,,,,,,,,,
2,0, Time_signature,4,2,24,8,,,,,,,
2,0, Title_t,PIANO                               ,,,,,,,,,,
2,0, System_exclusive,10,65,16,66,18,64,0,127,0,65,247
2,0, System_exclusive,10,65,16,66,18,64,0,4,100,88,247
2,170, System_exclusive,10,65,16,66,18,64,1,48,3,12,247
2,170, System_exclusive,10,65,16,66,18,64,1,51,80,60,247
2,170, System_exclusive,10,65,16,66,18,64,1,52,60,79,247
2,372, Control_c,0,0,0,,,,,,,,
2,374, Control_c,0,32,1,,,,,,,,
2,376, Program_c,0,0,,,,,,,,,
2,378, Control_c,0,7,100,,,,,,,,
2,474, Control_c,0,11,100,,,,,,,,
2,570, Control_c,0,10,64,,,,,,,,
2,666, Control_c,0,1,0,,,,,,,,
2,666, Control_c,0,91,80,,,,,,,,
2,675, Control_c,0,99,1,,,,,,,,
2,677, Control_c,0,98,32,,,,,,,,
2,679, Control_c,0,6,62,,,,,,,,
2,681, Control_c,0,99,1,,,,,,,,
2,683, Control_c,0,98,33,,,,,,,,
2,685, Control_c,0,6,54,,,,,,,,
2,687, Control_c,0,99,1,,,,,,,,
2,689, Control_c,0,98,99,,,,,,,,
2,691, Control_c,0,6,62,,,,,,,,
2,693, Control_c,0,99,1,,,,,,,,
2,695, Control_c,0,98,100,,,,,,,,
2,697, Control_c,0,6,60,,,,,,,,
2,699, Control_c,0,99,1,,,,,,,,
2,701, Control_c,0,98,102,,,,,,,,
2,703, Control_c,0,6,70,,,,,,,,
2,1300, Control_c,0,64,63,,,,,,,,
2,1305, Control_c,0,64,127,,,,,,,,
2,1525,Note_on_c,0,78,100
2,1625,Note_on_c,0,78,0
2,1725,Note_on_c,0,81,100
2,1825,Note_on_c,0,81,0
2,1925,Note_on_c,0,86,100
2,2025,Note_on_c,0,86,0
2,2125,Note_on_c,0,84,100
2,2225,Note_on_c,0,84,0
2,2325,Note_on_c,0,81,100
2,2425,Note_on_c,0,81,0
2,2525,Note_on_c,0,76,100
2,2625,Note_on_c,0,76,0
2,2725,Note_on_c,0,78,100
2,2825,Note_on_c,0,78,0
2,2925,Note_on_c,0,81,100
2,3025,Note_on_c,0,81,0
2,3125,Note_on_c,0,86,100
2,3225,Note_on_c,0,86,0
2,3325,Note_on_c,0,85,100
2,3425,Note_on_c,0,85,0
2,3525,Note_on_c,0,88,100
2,3625,Note_on_c,0,88,0
2,3725,Note_on_c,0,86,100
2,3825,Note_on_c,0,86,0
2,3925,Note_on_c,0,83,100
2,4025,Note_on_c,0,83,0
2,4125,Note_on_c,0,85,100
2,4225,Note_on_c,0,85,0
2,4325,Note_on_c,0,81,100
2,4425,Note_on_c,0,81,0
2,4525,Note_on_c,0,72,100
2,4525,Note_on_c,0,76,100
2,4625,Note_on_c,0,72,0
2,4625,Note_on_c,0,76,0
2,4725,Note_on_c,0,78,100
2,4825,Note_on_c,0,78,0
2,4925,Note_on_c,0,76,100
2,4925,Note_on_c,0,81,100
2,5025,Note_on_c,0,76,0
2,5025,Note_on_c,0,81,0
2,5125,Note_on_c,0,78,100
2,5125,Note_on_c,0,81,100
2,5125,Note_on_c,0,86,100
2,5225,Note_on_c,0,78,0
2,5225,Note_on_c,0,81,0
2,5225,Note_on_c,0,86,0
2,5325,Note_on_c,0,81,100
2,5325,Note_on_c,0,84,100
2,5425,Note_on_c,0,81,0
2,5425,Note_on_c,0,84,0
2,5525,Note_on_c,0,76,100
2,5525,Note_on_c,0,81,100
2,5625,Note_on_c,0,76,0
2,5625,Note_on_c,0,81,0
2,5725,Note_on_c,0,72,100
2,5725,Note_on_c,0,76,100
2,5825,Note_on_c,0,72,0
2,5825,Note_on_c,0,76,0
2,5925,Note_on_c,0,72,100
2,5925,Note_on_c,0,76,100
2,6025,Note_on_c,0,72,0
2,6025,Note_on_c,0,76,0
2,6125,Note_on_c,0,74,100
2,6225,Note_on_c,0,74,0
2,6325,Note_on_c,0,76,100
2,6425,Note_on_c,0,76,0
2,6525,Note_on_c,0,65,100
2,6525,Note_on_c,0,70,100
2,6525,Note_on_c,0,74,100
2,6625,Note_on_c,0,65,0
2,6625,Note_on_c,0,70,0
2,6625,Note_on_c,0,74,0
2,6725,Note_on_c,0,74,100
2,6725,Note_on_c,0,77,100
2,6825,Note_on_c,0,74,0
2,6825,Note_on_c,0,77,0
2,6925,Note_on_c,0,72,100
2,6925,Note_on_c,0,76,100
2,7025,Note_on_c,0,72,0
2,7025,Note_on_c,0,76,0
2,7125,Note_on_c,0,70,100
2,7125,Note_on_c,0,74,100
2,7225,Note_on_c,0,70,0
2,7225,Note_on_c,0,74,0
2,7325,Note_on_c,0,72,100
2,7325,Note_on_c,0,76,100
2,7425,Note_on_c,0,72,0
2,7425,Note_on_c,0,76,0
2,7525,Note_on_c,0,67,100
2,7525,Note_on_c,0,70,100
2,7525,Note_on_c,0,74,100
2,7625,Note_on_c,0,67,0
2,7625,Note_on_c,0,70,0
2,7625,Note_on_c,0,74,0
2,7725,Note_on_c,0,74,100
2,7725,Note_on_c,0,77,100
2,7825,Note_on_c,0,74,0
2,7825,Note_on_c,0,77,0
2,7925,Note_on_c,0,72,100
2,7925,Note_on_c,0,76,100
2,8025,Note_on_c,0,72,0
2,8025,Note_on_c,0,76,0
2,8125,Note_on_c,0,70,100
2,8125,Note_on_c,0,74,100
2,8225,Note_on_c,0,70,0
2,8225,Note_on_c,0,74,0
2,8325,Note_on_c,0,72,100
2,8325,Note_on_c,0,76,100
2,8425,Note_on_c,0,72,0
2,8425,Note_on_c,0,76,0
2,8525,Note_on_c,0,66,100
2,8525,Note_on_c,0,69,100
2,8525,Note_on_c,0,74,100
2,8625,Note_on_c,0,66,0
2,8625,Note_on_c,0,69,0
2,8625,Note_on_c,0,74,0
2,8725,Note_on_c,0,59,100
2,8725,Note_on_c,0,62,100
2,8825,Note_on_c,0,59,0
2,8825,Note_on_c,0,62,0
2,8925,Note_on_c,0,61,100
2,8925,Note_on_c,0,64,100
2,9025,Note_on_c,0,61,0
2,9025,Note_on_c,0,64,0
2,9125,Note_on_c,0,62,100
2,9125,Note_on_c,0,66,100
2,9225,Note_on_c,0,62,0
2,9225,Note_on_c,0,66,0
2,9325,Note_on_c,0,62,100
2,9325,Note_on_c,0,66,100
2,9425,Note_on_c,0,62,0
2,9425,Note_on_c,0,66,0
2,9525,Note_on_c,0,64,100
2,9525,Note_on_c,0,67,100
2,9625,Note_on_c,0,64,0
2,9625,Note_on_c,0,67,0
2,9725,Note_on_c,0,66,100
2,9725,Note_on_c,0,69,100
2,9825,Note_on_c,0,66,0
2,9825,Note_on_c,0,69,0
2,9925,Note_on_c,0,66,100
2,9925,Note_on_c,0,71,100
2,10025,Note_on_c,0,66,0
2,10025,Note_on_c,0,71,0
2,10125,Note_on_c,0,66,100
2,10125,Note_on_c,0,73,100
2,10225,Note_on_c,0,66,0
2,10225,Note_on_c,0,73,0
2,10325,Note_on_c,0,71,100
2,10325,Note_on_c,0,74,100
2,10425,Note_on_c,0,71,0
2,10425,Note_on_c,0,74,0
2,10525,Note_on_c,0,67,100
2,10525,Note_on_c,0,71,100
2,10625,Note_on_c,0,67,0
2,10625,Note_on_c,0,71,0
2,10725,Note_on_c,0,59,100
2,10725,Note_on_c,0,67,100
2,10825,Note_on_c,0,59,0
2,10825,Note_on_c,0,67,0
2,10925,Note_on_c,0,66,100
2,10925,Note_on_c,0,69,100
2,11025,Note_on_c,0,66,0
2,11025,Note_on_c,0,69,0
2,11125,Note_on_c,0,67,100
2,11125,Note_on_c,0,71,100
2,11225,Note_on_c,0,67,0
2,11225,Note_on_c,0,71,0
2,11325,Note_on_c,0,66,100
2,11325,Note_on_c,0,69,100
2,11425,Note_on_c,0,66,0
2,11425,Note_on_c,0,69,0
2,11525,Note_on_c,0,66,100
2,11525,Note_on_c,0,69,100
2,11625,Note_on_c,0,66,0
2,11625,Note_on_c,0,69,0
2,11725,Note_on_c,0,62,100
2,11825,Note_on_c,0,62,0
2,11925,Note_on_c,0,57,100
2,11925,Note_on_c,0,61,100
2,12025,Note_on_c,0,57,0
2,12025,Note_on_c,0,61,0
2,12125,Note_on_c,0,81,100
2,12125,Note_on_c,0,85,100
2,12225,Note_on_c,0,81,0
2,12225,Note_on_c,0,85,0
2,12325,Note_on_c,0,78,100
2,12325,Note_on_c,0,83,100
2,12425,Note_on_c,0,78,0
2,12425,Note_on_c,0,83,0
2,12525,Note_on_c,0,78,100
2,12525,Note_on_c,0,81,100
2,12625,Note_on_c,0,78,0
2,12625,Note_on_c,0,81,0
2,12725,Note_on_c,0,67,100
2,12725,Note_on_c,0,71,100
2,12825,Note_on_c,0,67,0
2,12825,Note_on_c,0,71,0
2,12925,Note_on_c,0,66,100
2,12925,Note_on_c,0,69,100
2,13025,Note_on_c,0,66,0
2,13025,Note_on_c,0,69,0
2,13125,Note_on_c,0,62,100
2,13125,Note_on_c,0,71,100
2,13225,Note_on_c,0,62,0
2,13225,Note_on_c,0,71,0
2,13325,Note_on_c,0,71,100
2,13325,Note_on_c,0,74,100
2,13325,Note_on_c,0,79,100
2,13425,Note_on_c,0,71,0
2,13425,Note_on_c,0,74,0
2,13425,Note_on_c,0,79,0
2,13525,Note_on_c,0,69,100
2,13525,Note_on_c,0,71,100
2,13525,Note_on_c,0,74,100
2,13625,Note_on_c,0,69,0
2,13625,Note_on_c,0,71,0
2,13625,Note_on_c,0,74,0
2,13725,Note_on_c,0,67,100
2,13725,Note_on_c,0,71,100
2,13825,Note_on_c,0,67,0
2,13825,Note_on_c,0,71,0
2,13925,Note_on_c,0,66,100
2,13925,Note_on_c,0,69,100
2,14025,Note_on_c,0,66,0
2,14025,Note_on_c,0,69,0
2,14125,Note_on_c,0,62,100
2,14125,Note_on_c,0,66,100
2,14225,Note_on_c,0,62,0
2,14225,Note_on_c,0,66,0
2,14325,Note_on_c,0,57,100
2,14325,Note_on_c,0,61,100
2,14425,Note_on_c,0,57,0
2,14425,Note_on_c,0,61,0
2,14525,Note_on_c,0,81,100
2,14525,Note_on_c,0,85,100
2,14625,Note_on_c,0,81,0
2,14625,Note_on_c,0,85,0
2,14725,Note_on_c,0,78,100
2,14725,Note_on_c,0,83,100
2,14825,Note_on_c,0,78,0
2,14825,Note_on_c,0,83,0
2,14925,Note_on_c,0,78,100
2,14925,Note_on_c,0,81,100
2,15025,Note_on_c,0,78,0
2,15025,Note_on_c,0,81,0
2,15125,Note_on_c,0,67,100
2,15125,Note_on_c,0,71,100
2,15225,Note_on_c,0,67,0
2,15225,Note_on_c,0,71,0
2,15325,Note_on_c,0,69,100
2,15325,Note_on_c,0,73,100
2,15425,Note_on_c,0,69,0
2,15425,Note_on_c,0,73,0
2,15525,Note_on_c,0,71,100
2,15525,Note_on_c,0,74,100
2,15625,Note_on_c,0,71,0
2,15625,Note_on_c,0,74,0
2,15725,Note_on_c,0,69,100
2,15825,Note_on_c,0,69,0
2,15925,Note_on_c,0,67,100
2,16025,Note_on_c,0,67,0
2,16125,Note_on_c,0,67,100
2,16125,Note_on_c,0,71,100
2,16125,Note_on_c,0,74,100
2,16225,Note_on_c,0,67,0
2,16225,Note_on_c,0,71,0
2,16225,Note_on_c,0,74,0
2,16325,Note_on_c,0,66,100
2,16325,Note_on_c,0,69,100
2,16325,Note_on_c,0,73,100
2,16425,Note_on_c,0,66,0
2,16425,Note_on_c,0,69,0
2,16425,Note_on_c,0,73,0
2,16525,Note_on_c,0,64,100
2,16525,Note_on_c,0,67,100
2,16525,Note_on_c,0,71,100
2,16625,Note_on_c,0,64,0
2,16625,Note_on_c,0,67,0
2,16625,Note_on_c,0,71,0
2,16725,Note_on_c,0,62,100
2,16725,Note_on_c,0,66,100
2,16725,Note_on_c,0,69,100
2,16825,Note_on_c,0,62,0
2,16825,Note_on_c,0,66,0
2,16825,Note_on_c,0,69,0
2,16925,Note_on_c,0,57,100
2,16925,Note_on_c,0,61,100
2,16925,Note_on_c,0,66,100
2,17025,Note_on_c,0,57,0
2,17025,Note_on_c,0,61,0
2,17025,Note_on_c,0,66,0
2,17125,Note_on_c,0,59,100
2,17125,Note_on_c,0,62,100
2,17225,Note_on_c,0,59,0
2,17225,Note_on_c,0,62,0
2,17325,Note_on_c,0,67,100
2,17325,Note_on_c,0,71,100
2,17325,Note_on_c,0,74,100
2,17425,Note_on_c,0,67,0
2,17425,Note_on_c,0,71,0
2,17425,Note_on_c,0,74,0
2,17525,Note_on_c,0,66,100
2,17525,Note_on_c,0,69,100
2,17525,Note_on_c,0,73,100
2,17625,Note_on_c,0,66,0
2,17625,Note_on_c,0,69,0
2,17625,Note_on_c,0,73,0
2,17725,Note_on_c,0,64,100
2,17725,Note_on_c,0,67,100
2,17725,Note_on_c,0,71,100
2,17825,Note_on_c,0,64,0
2,17825,Note_on_c,0,67,0
2,17825,Note_on_c,0,71,0
2,17925,Note_on_c,0,69,100
2,17925,Note_on_c,0,73,100
2,18025,Note_on_c,0,69,0
2,18025,Note_on_c,0,73,0
2,18125,Note_on_c,0,69,100
2,18125,Note_on_c,0,78,100
2,18225,Note_on_c,0,69,0
2,18225,Note_on_c,0,78,0
2,18325,Note_on_c,0,69,100
2,18325,Note_on_c,0,74,100
2,18325,Note_on_c,0,78,100
2,18425,Note_on_c,0,69,0
2,18425,Note_on_c,0,74,0
2,18425,Note_on_c,0,78,0
2,18525,Note_on_c,0,73,100
2,18625,Note_on_c,0,73,0
2,18725,Note_on_c,0,71,100
2,18725,Note_on_c,0,74,100
2,18825,Note_on_c,0,71,0
2,18825,Note_on_c,0,74,0
2,18925,Note_on_c,0,67,100
2,18925,Note_on_c,0,71,100
2,18925,Note_on_c,0,74,100
2,19025,Note_on_c,0,67,0
2,19025,Note_on_c,0,71,0
2,19025,Note_on_c,0,74,0
2,19125,Note_on_c,0,66,100
2,19125,Note_on_c,0,69,100
2,19125,Note_on_c,0,73,100
2,19225,Note_on_c,0,66,0
2,19225,Note_on_c,0,69,0
2,19225,Note_on_c,0,73,0
2,19325,Note_on_c,0,67,100
2,19325,Note_on_c,0,71,100
2,19425,Note_on_c,0,67,0
2,19425,Note_on_c,0,71,0
2,19525,Note_on_c,0,69,100
2,19625,Note_on_c,0,69,0
2,19725,Note_on_c,0,64,100
2,19825,Note_on_c,0,64,0
2,19925,Note_on_c,0,67,100
2,19925,Note_on_c,0,71,100
2,20025,Note_on_c,0,67,0
2,20025,Note_on_c,0,71,0
2,20125,Note_on_c,0,69,100
2,20125,Note_on_c,0,73,100
2,20225,Note_on_c,0,69,0
2,20225,Note_on_c,0,73,0
2,20325,Note_on_c,0,73,100
2,20325,Note_on_c,0,76,100
2,20425,Note_on_c,0,73,0
2,20425,Note_on_c,0,76,0
2,20525,Note_on_c,0,74,100
2,20525,Note_on_c,0,78,100
2,20625,Note_on_c,0,74,0
2,20625,Note_on_c,0,78,0
2,20725,Note_on_c,0,71,100
2,20725,Note_on_c,0,74,100
2,20725,Note_on_c,0,79,100
2,20825,Note_on_c,0,71,0
2,20825,Note_on_c,0,74,0
2,20825,Note_on_c,0,79,0
2,20925,Note_on_c,0,69,100
2,20925,Note_on_c,0,74,100
2,20925,Note_on_c,0,78,100
2,21025,Note_on_c,0,69,0
2,21025,Note_on_c,0,74,0
2,21025,Note_on_c,0,78,0
2,21125,Note_on_c,0,67,100
2,21125,Note_on_c,0,71,100
2,21125,Note_on_c,0,76,100
2,21225,Note_on_c,0,67,0
2,21225,Note_on_c,0,71,0
2,21225,Note_on_c,0,76,0
2,21325,Note_on_c,0,69,100
2,21325,Note_on_c,0,71,100
2,21325,Note_on_c,0,74,100
2,21425,Note_on_c,0,69,0
2,21425,Note_on_c,0,71,0
2,21425,Note_on_c,0,74,0
2,21525,Note_on_c,0,59,100
2,21525,Note_on_c,0,62,100
2,21525,Note_on_c,0,67,100
2,21625,Note_on_c,0,59,0
2,21625,Note_on_c,0,62,0
2,21625,Note_on_c,0,67,0
2,21725,Note_on_c,0,79,100
2,21725,Note_on_c,0,83,100
2,21825,Note_on_c,0,79,0
2,21825,Note_on_c,0,83,0
2,21925,Note_on_c,0,78,100
2,21925,Note_on_c,0,81,100
2,22025,Note_on_c,0,78,0
2,22025,Note_on_c,0,81,0
2,22125,Note_on_c,0,74,100
2,22125,Note_on_c,0,78,100
2,22225,Note_on_c,0,74,0
2,22225,Note_on_c,0,78,0
2,22325,Note_on_c,0,76,100
2,22325,Note_on_c,0,79,100
2,22425,Note_on_c,0,76,0
2,22425,Note_on_c,0,79,0
2,22525,Note_on_c,0,74,100
2,22525,Note_on_c,0,78,100
2,22625,Note_on_c,0,74,0
2,22625,Note_on_c,0,78,0
2,22725,Note_on_c,0,74,100
2,22825,Note_on_c,0,74,0
2,22925,Note_on_c,0,73,100
2,23025,Note_on_c,0,73,0
2,23125,Note_on_c,0,71,100
2,23225,Note_on_c,0,71,0
2,23325,Note_on_c,0,69,100
2,23425,Note_on_c,0,69,0
2,23525,Note_on_c,0,64,100
2,23625,Note_on_c,0,64,0
2,23725,Note_on_c,0,64,100
2,23825,Note_on_c,0,64,0
2,23925,Note_on_c,0,64,100
2,24025,Note_on_c,0,64,0
2,24125,Note_on_c,0,66,100
2,24225,Note_on_c,0,66,0
2,24325,Note_on_c,0,67,100
2,24425,Note_on_c,0,67,0
2,24525,Note_on_c,0,66,100
2,24625,Note_on_c,0,66,0
2,24725,Note_on_c,0,64,100
2,24825,Note_on_c,0,64,0
2,24925,Note_on_c,0,62,100
2,25025,Note_on_c,0,62,0
2,25125,Note_on_c,0,62,100
2,25225,Note_on_c,0,62,0
2,25325,Note_on_c,0,67,100
2,25425,Note_on_c,0,67,0
2,25525,Note_on_c,0,71,100
2,25625,Note_on_c,0,71,0
2,25725,Note_on_c,0,69,100
2,25725,Note_on_c,0,78,100
2,25825,Note_on_c,0,69,0
2,25825,Note_on_c,0,78,0
2,25925,Note_on_c,0,81,100
2,26025,Note_on_c,0,81,0
2,26125,Note_on_c,0,86,100
2,26225,Note_on_c,0,86,0
2,26325,Note_on_c,0,84,100
2,26425,Note_on_c,0,84,0
2,26525,Note_on_c,0,81,100
2,26625,Note_on_c,0,81,0
2,26725,Note_on_c,0,76,100
2,26825,Note_on_c,0,76,0
2,26925,Note_on_c,0,78,100
2,27025,Note_on_c,0,78,0
2,27125,Note_on_c,0,81,100
2,27225,Note_on_c,0,81,0
2,27325,Note_on_c,0,86,100
2,27425,Note_on_c,0,86,0
2,27525,Note_on_c,0,85,100
2,27625,Note_on_c,0,85,0
2,27725,Note_on_c,0,88,100
2,27825,Note_on_c,0,88,0
2,27925,Note_on_c,0,86,100
2,28025,Note_on_c,0,86,0
2,28125,Note_on_c,0,83,100
2,28225,Note_on_c,0,83,0
2,28325,Note_on_c,0,85,100
2,28425,Note_on_c,0,85,0
2,28525,Note_on_c,0,81,100
2,28625,Note_on_c,0,81,0
2,28725,Note_on_c,0,72,100
2,28725,Note_on_c,0,76,100
2,28825,Note_on_c,0,72,0
2,28825,Note_on_c,0,76,0
2,28925,Note_on_c,0,78,100
2,29025,Note_on_c,0,78,0
2,29125,Note_on_c,0,76,100
2,29125,Note_on_c,0,81,100
2,29225,Note_on_c,0,76,0
2,29225,Note_on_c,0,81,0
2,29325,Note_on_c,0,78,100
2,29325,Note_on_c,0,81,100
2,29325,Note_on_c,0,86,100
2,29425,Note_on_c,0,78,0
2,29425,Note_on_c,0,81,0
2,29425,Note_on_c,0,86,0
2,29525,Note_on_c,0,81,100
2,29525,Note_on_c,0,84,100
2,29625,Note_on_c,0,81,0
2,29625,Note_on_c,0,84,0
2,29725,Note_on_c,0,76,100
2,29725,Note_on_c,0,81,100
2,29825,Note_on_c,0,76,0
2,29825,Note_on_c,0,81,0
2,29925,Note_on_c,0,72,100
2,29925,Note_on_c,0,76,100
2,30025,Note_on_c,0,72,0
2,30025,Note_on_c,0,76,0
2,30125,Note_on_c,0,74,100
2,30225,Note_on_c,0,74,0
2,30325,Note_on_c,0,76,100
2,30425,Note_on_c,0,76,0
2,30525,Note_on_c,0,65,100
2,30525,Note_on_c,0,70,100
2,30525,Note_on_c,0,74,100
2,30625,Note_on_c,0,65,0
2,30625,Note_on_c,0,70,0
2,30625,Note_on_c,0,74,0
2,30725,Note_on_c,0,74,100
2,30725,Note_on_c,0,77,100
2,30825,Note_on_c,0,74,0
2,30825,Note_on_c,0,77,0
2,30925,Note_on_c,0,72,100
2,30925,Note_on_c,0,76,100
2,31025,Note_on_c,0,72,0
2,31025,Note_on_c,0,76,0
2,31125,Note_on_c,0,70,100
2,31125,Note_on_c,0,74,100
2,31225,Note_on_c,0,70,0
2,31225,Note_on_c,0,74,0
2,31325,Note_on_c,0,72,100
2,31325,Note_on_c,0,76,100
2,31425,Note_on_c,0,72,0
2,31425,Note_on_c,0,76,0
2,31525,Note_on_c,0,67,100
2,31525,Note_on_c,0,70,100
2,31525,Note_on_c,0,74,100
2,31625,Note_on_c,0,67,0
2,31625,Note_on_c,0,70,0
2,31625,Note_on_c,0,74,0
2,31725,Note_on_c,0,74,100
2,31725,Note_on_c,0,77,100
2,31825,Note_on_c,0,74,0
2,31825,Note_on_c,0,77,0
2,31925,Note_on_c,0,72,100
2,31925,Note_on_c,0,76,100
2,32025,Note_on_c,0,72,0
2,32025,Note_on_c,0,76,0
2,32125,Note_on_c,0,70,100
2,32125,Note_on_c,0,74,100
2,32225,Note_on_c,0,70,0
2,32225,Note_on_c,0,74,0
2,32325,Note_on_c,0,72,100
2,32325,Note_on_c,0,76,100
2,32425,Note_on_c,0,72,0
2,32425,Note_on_c,0,76,0
2,32525,Note_on_c,0,66,100
2,32525,Note_on_c,0,69,100
2,32525,Note_on_c,0,74,100
2,32625,Note_on_c,0,66,0
2,32625,Note_on_c,0,69,0
2,32625,Note_on_c,0,74,0
2,32725,Note_on_c,0,62,100
2,32725,Note_on_c,0,69,100
2,32725,Note_on_c,0,74,100
2,32725,Note_on_c,0,76,100
2,32825,Note_on_c,0,62,0
2,32825,Note_on_c,0,74,0
2,32825,Note_on_c,0,76,0
2,32825,Note_on_c,0,69,0
2,32925,Note_on_c,0,64,100
2,32925,Note_on_c,0,69,100
2,33025,Note_on_c,0,64,0
2,33025,Note_on_c,0,69,0
2,33125,Note_on_c,0,62,100
2,33125,Note_on_c,0,69,100
2,33125,Note_on_c,0,74,100
2,33125,Note_on_c,0,76,100
2,33225,Note_on_c,0,62,0
2,33225,Note_on_c,0,74,0
2,33225,Note_on_c,0,76,0
2,33225,Note_on_c,0,69,0
2,33325,Note_on_c,0,64,100
2,33325,Note_on_c,0,69,100
2,33425,Note_on_c,0,64,0
2,33425,Note_on_c,0,69,0
2,33525,Note_on_c,0,50,100
2,33625,Note_on_c,0,50,0
2,33725,Note_on_c,0,57,100
2,33825,Note_on_c,0,57,0
2,33925,Note_on_c,0,64,100
2,34025,Note_on_c,0,64,0
2,34125,Note_on_c,0,57,100
2,34225,Note_on_c,0,57,0
2,34325,Note_on_c,0,50,100
2,34425,Note_on_c,0,50,0
2,34525,Note_on_c,0,57,100
2,34625,Note_on_c,0,57,0
2,34725,Note_on_c,0,64,100
2,34825,Note_on_c,0,64,0
2,34925,Note_on_c,0,57,100
2,35025,Note_on_c,0,57,0
2,35125,Note_on_c,0,52,100
2,35225,Note_on_c,0,52,0
2,35325,Note_on_c,0,57,100
2,35425,Note_on_c,0,57,0
2,35525,Note_on_c,0,64,100
2,35625,Note_on_c,0,64,0
2,35725,Note_on_c,0,57,100
2,35825,Note_on_c,0,57,0
2,35925,Note_on_c,0,52,100
2,36025,Note_on_c,0,52,0
2,36125,Note_on_c,0,57,100
2,36225,Note_on_c,0,57,0
2,36325,Note_on_c,0,64,100
2,36425,Note_on_c,0,64,0
2,36525,Note_on_c,0,57,100
2,36625,Note_on_c,0,57,0
2,36725,Note_on_c,0,46,100
2,36825,Note_on_c,0,46,0
2,36925,Note_on_c,0,53,100
2,37025,Note_on_c,0,53,0
2,37125,Note_on_c,0,58,100
2,37225,Note_on_c,0,58,0
2,37325,Note_on_c,0,53,100
2,37425,Note_on_c,0,53,0
2,37525,Note_on_c,0,46,100
2,37625,Note_on_c,0,46,0
2,37725,Note_on_c,0,53,100
2,37825,Note_on_c,0,53,0
2,37925,Note_on_c,0,58,100
2,38025,Note_on_c,0,58,0
2,38125,Note_on_c,0,53,100
2,38225,Note_on_c,0,53,0
2,38325,Note_on_c,0,43,100
2,38425,Note_on_c,0,43,0
2,38525,Note_on_c,0,50,100
2,38625,Note_on_c,0,50,0
2,38725,Note_on_c,0,55,100
2,38825,Note_on_c,0,55,0
2,38925,Note_on_c,0,50,100
2,39025,Note_on_c,0,50,0
2,39125,Note_on_c,0,43,100
2,39225,Note_on_c,0,43,0
2,39325,Note_on_c,0,50,100
2,39425,Note_on_c,0,50,0
2,39525,Note_on_c,0,55,100
2,39625,Note_on_c,0,55,0
2,39725,Note_on_c,0,50,100
2,39825,Note_on_c,0,50,0
2,39925,Note_on_c,0,50,100
2,40025,Note_on_c,0,50,0
2,40125,Note_on_c,0,54,100
2,40225,Note_on_c,0,54,0
2,40325,Note_on_c,0,57,100
2,40425,Note_on_c,0,57,0
2,40525,Note_on_c,0,62,100
2,40625,Note_on_c,0,62,0
2,40725,Note_on_c,0,57,100
2,40825,Note_on_c,0,57,0
2,40925,Note_on_c,0,54,100
2,41025,Note_on_c,0,54,0
2,41125,Note_on_c,0,50,100
2,41225,Note_on_c,0,50,0
2,41325,Note_on_c,0,54,100
2,41425,Note_on_c,0,54,0
2,41525,Note_on_c,0,47,100
2,41625,Note_on_c,0,47,0
2,41725,Note_on_c,0,54,100
2,41825,Note_on_c,0,54,0
2,41925,Note_on_c,0,59,100
2,42025,Note_on_c,0,59,0
2,42125,Note_on_c,0,54,100
2,42225,Note_on_c,0,54,0
2,42325,Note_on_c,0,47,100
2,42425,Note_on_c,0,47,0
2,42525,Note_on_c,0,54,100
2,42625,Note_on_c,0,54,0
2,42725,Note_on_c,0,59,100
2,42825,Note_on_c,0,59,0
2,42925,Note_on_c,0,49,100
2,43025,Note_on_c,0,49,0
2,43125,Note_on_c,0,57,100
2,43225,Note_on_c,0,57,0
2,43325,Note_on_c,0,61,100
2,43425,Note_on_c,0,61,0
2,43525,Note_on_c,0,57,100
2,43625,Note_on_c,0,57,0
2,43725,Note_on_c,0,49,100
2,43825,Note_on_c,0,49,0
2,43925,Note_on_c,0,57,100
2,44025,Note_on_c,0,57,0
2,44125,Note_on_c,0,61,100
2,44225,Note_on_c,0,61,0
2,44325,Note_on_c,0,50,100
2,44425,Note_on_c,0,50,0
2,44525,Note_on_c,0,55,100
2,44625,Note_on_c,0,55,0
2,44725,Note_on_c,0,62,100
2,44825,Note_on_c,0,62,0
2,44925,Note_on_c,0,55,100
2,45025,Note_on_c,0,55,0
2,45125,Note_on_c,0,50,100
2,45225,Note_on_c,0,50,0
2,45325,Note_on_c,0,55,100
2,45425,Note_on_c,0,55,0
2,45525,Note_on_c,0,62,100
2,45625,Note_on_c,0,62,0
2,45725,Note_on_c,0,50,100
2,45825,Note_on_c,0,50,0
2,45925,Note_on_c,0,57,100
2,46025,Note_on_c,0,57,0
2,46125,Note_on_c,0,62,100
2,46225,Note_on_c,0,62,0
2,46325,Note_on_c,0,57,100
2,46425,Note_on_c,0,57,0
2,46525,Note_on_c,0,50,100
2,46625,Note_on_c,0,50,0
2,46725,Note_on_c,0,57,100
2,46825,Note_on_c,0,57,0
2,46925,Note_on_c,0,54,100
2,47025,Note_on_c,0,54,0
2,47125,Note_on_c,0,49,100
2,47225,Note_on_c,0,49,0
2,47325,Note_on_c,0,54,100
2,47425,Note_on_c,0,54,0
2,47525,Note_on_c,0,57,100
2,47625,Note_on_c,0,57,0
2,47725,Note_on_c,0,54,100
2,47825,Note_on_c,0,54,0
2,47925,Note_on_c,0,49,100
2,48025,Note_on_c,0,49,0
2,48125,Note_on_c,0,57,100
2,48225,Note_on_c,0,57,0
2,48325,Note_on_c,0,61,100
2,48425,Note_on_c,0,61,0
2,48525,Note_on_c,0,49,100
2,48625,Note_on_c,0,49,0
2,48725,Note_on_c,0,57,100
2,48825,Note_on_c,0,57,0
2,48925,Note_on_c,0,61,100
2,49025,Note_on_c,0,61,0
2,49125,Note_on_c,0,57,100
2,49225,Note_on_c,0,57,0
2,49325,Note_on_c,0,49,100
2,49425,Note_on_c,0,49,0
2,49525,Note_on_c,0,57,100
2,49625,Note_on_c,0,57,0
2,49725,Note_on_c,0,61,100
2,49825,Note_on_c,0,61,0
2,49925,Note_on_c,0,47,100
2,50025,Note_on_c,0,47,0
2,50125,Note_on_c,0,50,100
2,50225,Note_on_c,0,50,0
2,50325,Note_on_c,0,55,100
2,50425,Note_on_c,0,55,0
2,50525,Note_on_c,0,50,100
2,50625,Note_on_c,0,50,0
2,50725,Note_on_c,0,47,100
2,50825,Note_on_c,0,47,0
2,50925,Note_on_c,0,50,100
2,51025,Note_on_c,0,50,0
2,51125,Note_on_c,0,55,100
2,51225,Note_on_c,0,55,0
2,51325,Note_on_c,0,47,100
2,51425,Note_on_c,0,47,0
2,51525,Note_on_c,0,50,100
2,51625,Note_on_c,0,50,0
2,51725,Note_on_c,0,55,100
2,51825,Note_on_c,0,55,0
2,51925,Note_on_c,0,50,100
2,52025,Note_on_c,0,50,0
2,52125,Note_on_c,0,47,100
2,52225,Note_on_c,0,47,0
2,52325,Note_on_c,0,50,100
2,52425,Note_on_c,0,50,0
2,52525,Note_on_c,0,47,100
2,52625,Note_on_c,0,47,0
2,52725,Note_on_c,0,54,100
2,52825,Note_on_c,0,54,0
2,52925,Note_on_c,0,57,100
2,53025,Note_on_c,0,57,0
2,53125,Note_on_c,0,61,100
2,53225,Note_on_c,0,61,0
2,53325,Note_on_c,0,57,100
2,53425,Note_on_c,0,57,0
2,53525,Note_on_c,0,54,100
2,53625,Note_on_c,0,54,0
2,53725,Note_on_c,0,57,100
2,53825,Note_on_c,0,57,0
2,53925,Note_on_c,0,61,100
2,54025,Note_on_c,0,61,0
2,54125,Note_on_c,0,54,100
2,54225,Note_on_c,0,54,0
2,54325,Note_on_c,0,57,100
2,54425,Note_on_c,0,57,0
2,54525,Note_on_c,0,61,100
2,54625,Note_on_c,0,61,0
2,54725,Note_on_c,0,57,100
2,54825,Note_on_c,0,57,0
2,54925,Note_on_c,0,54,100
2,55025,Note_on_c,0,54,0
2,55125,Note_on_c,0,57,100
2,55225,Note_on_c,0,57,0
2,55325,Note_on_c,0,61,100
2,55425,Note_on_c,0,61,0
2,55525,Note_on_c,0,55,100
2,55625,Note_on_c,0,55,0
2,55725,Note_on_c,0,59,100
2,55825,Note_on_c,0,59,0
2,55925,Note_on_c,0,62,100
2,56025,Note_on_c,0,62,0
2,56125,Note_on_c,0,59,100
2,56225,Note_on_c,0,59,0
2,56325,Note_on_c,0,55,100
2,56425,Note_on_c,0,55,0
2,56525,Note_on_c,0,59,100
2,56625,Note_on_c,0,59,0
2,56725,Note_on_c,0,62,100
2,56825,Note_on_c,0,62,0
2,56925,Note_on_c,0,55,100
2,57025,Note_on_c,0,55,0
2,57125,Note_on_c,0,55,100
2,57225,Note_on_c,0,55,0
2,57325,Note_on_c,0,54,100
2,57425,Note_on_c,0,54,0
2,57525,Note_on_c,0,52,100
2,57625,Note_on_c,0,52,0
2,57725,Note_on_c,0,50,100
2,57825,Note_on_c,0,50,0
2,57925,Note_on_c,0,50,100
2,58025,Note_on_c,0,50,0
2,58125,Note_on_c,0,55,100
2,58225,Note_on_c,0,55,0
2,58325,Note_on_c,0,43,100
2,58325,Note_on_c,0,55,100
2,58425,Note_on_c,0,43,0
2,58425,Note_on_c,0,55,0
2,58525,Note_on_c,0,42,100
2,58525,Note_on_c,0,54,100
2,58625,Note_on_c,0,42,0
2,58625,Note_on_c,0,54,0
2,58725,Note_on_c,0,40,100
2,58725,Note_on_c,0,52,100
2,58825,Note_on_c,0,40,0
2,58825,Note_on_c,0,52,0
2,58925,Note_on_c,0,42,100
2,58925,Note_on_c,0,54,100
2,59025,Note_on_c,0,42,0
2,59025,Note_on_c,0,54,0
2,59125,Note_on_c,0,44,100
2,59125,Note_on_c,0,56,100
2,59225,Note_on_c,0,44,0
2,59225,Note_on_c,0,56,0
2,59325,Note_on_c,0,45,100
2,59325,Note_on_c,0,57,100
2,59425,Note_on_c,0,45,0
2,59425,Note_on_c,0,57,0
2,59525,Note_on_c,0,47,100
2,59525,Note_on_c,0,54,100
2,59525,Note_on_c,0,59,100
2,59625,Note_on_c,0,47,0
2,59625,Note_on_c,0,54,0
2,59625,Note_on_c,0,59,0
2,59725,Note_on_c,0,49,100
2,59725,Note_on_c,0,61,100
2,59825,Note_on_c,0,49,0
2,59825,Note_on_c,0,61,0
2,59925,Note_on_c,0,50,100
2,59925,Note_on_c,0,62,100
2,60025,Note_on_c,0,50,0
2,60025,Note_on_c,0,62,0
2,60125,Note_on_c,0,52,100
2,60125,Note_on_c,0,61,100
2,60125,Note_on_c,0,64,100
2,60225,Note_on_c,0,52,0
2,60225,Note_on_c,0,61,0
2,60225,Note_on_c,0,64,0
2,60325,Note_on_c,0,52,100
2,60325,Note_on_c,0,61,100
2,60425,Note_on_c,0,52,0
2,60425,Note_on_c,0,61,0
2,60525,Note_on_c,0,52,100
2,60525,Note_on_c,0,55,100
2,60625,Note_on_c,0,52,0
2,60625,Note_on_c,0,55,0
2,60725,Note_on_c,0,45,100
2,60725,Note_on_c,0,57,100
2,60825,Note_on_c,0,45,0
2,60825,Note_on_c,0,57,0
2,60925,Note_on_c,0,50,100
2,60925,Note_on_c,0,55,100
2,61025,Note_on_c,0,50,0
2,61025,Note_on_c,0,55,0
2,61125,Note_on_c,0,52,100
2,61225,Note_on_c,0,52,0
2,61325,Note_on_c,0,54,100
2,61425,Note_on_c,0,54,0
2,61525,Note_on_c,0,43,100
2,61525,Note_on_c,0,57,100
2,61625,Note_on_c,0,43,0
2,61625,Note_on_c,0,57,0
2,61725,Note_on_c,0,47,100
2,61725,Note_on_c,0,59,100
2,61825,Note_on_c,0,47,0
2,61825,Note_on_c,0,59,0
2,61925,Note_on_c,0,49,100
2,61925,Note_on_c,0,61,100
2,62025,Note_on_c,0,49,0
2,62025,Note_on_c,0,61,0
2,62125,Note_on_c,0,50,100
2,62125,Note_on_c,0,57,100
2,62225,Note_on_c,0,50,0
2,62225,Note_on_c,0,57,0
2,62325,Note_on_c,0,62,100
2,62325,Note_on_c,0,69,100
2,62325,Note_on_c,0,74,100
2,62325,Note_on_c,0,76,100
2,62425,Note_on_c,0,62,0
2,62425,Note_on_c,0,74,0
2,62425,Note_on_c,0,76,0
2,62425,Note_on_c,0,69,0
2,62525,Note_on_c,0,64,100
2,62525,Note_on_c,0,69,100
2,62625,Note_on_c,0,64,0
2,62625,Note_on_c,0,69,0
2,62725,Note_on_c,0,62,100
2,62725,Note_on_c,0,69,100
2,62725,Note_on_c,0,74,100
2,62725,Note_on_c,0,76,100
2,62825,Note_on_c,0,62,0
2,62825,Note_on_c,0,74,0
2,62825,Note_on_c,0,76,0
2,62825,Note_on_c,0,69,0
2,62925,Note_on_c,0,64,100
2,62925,Note_on_c,0,69,100
2,63025,Note_on_c,0,64,0
2,63025,Note_on_c,0,69,0
2,63125,Note_on_c,0,50,100
2,63225,Note_on_c,0,50,0
2,63325,Note_on_c,0,57,100
2,63425,Note_on_c,0,57,0
2,63525,Note_on_c,0,64,100
2,63625,Note_on_c,0,64,0
2,63725,Note_on_c,0,57,100
2,63825,Note_on_c,0,57,0
2,63925,Note_on_c,0,50,100
2,64025,Note_on_c,0,50,0
2,64125,Note_on_c,0,57,100
2,64225,Note_on_c,0,57,0
2,64325,Note_on_c,0,64,100
2,64425,Note_on_c,0,64,0
2,64525,Note_on_c,0,57,100
2,64625,Note_on_c,0,57,0
2,64725,Note_on_c,0,52,100
2,64825,Note_on_c,0,52,0
2,64925,Note_on_c,0,57,100
2,65025,Note_on_c,0,57,0
2,65125,Note_on_c,0,64,100
2,65225,Note_on_c,0,64,0
2,65325,Note_on_c,0,57,100
2,65425,Note_on_c,0,57,0
2,65525,Note_on_c,0,52,100
2,65625,Note_on_c,0,52,0
2,65725,Note_on_c,0,57,100
2,65825,Note_on_c,0,57,0
2,65925,Note_on_c,0,64,100
2,66025,Note_on_c,0,64,0
2,66125,Note_on_c,0,57,100
2,66225,Note_on_c,0,57,0
2,66325,Note_on_c,0,46,100
2,66425,Note_on_c,0,46,0
2,66525,Note_on_c,0,53,100
2,66625,Note_on_c,0,53,0
2,66725,Note_on_c,0,58,100
2,66825,Note_on_c,0,58,0
2,66925,Note_on_c,0,53,100
2,67025,Note_on_c,0,53,0
2,67125,Note_on_c,0,46,100
2,67225,Note_on_c,0,46,0
2,67325,Note_on_c,0,53,100
2,67425,Note_on_c,0,53,0
2,67525,Note_on_c,0,58,100
2,67625,Note_on_c,0,58,0
2,67725,Note_on_c,0,53,100
2,67825,Note_on_c,0,53,0
2,67925,Note_on_c,0,43,100
2,68025,Note_on_c,0,43,0
2,68125,Note_on_c,0,50,100
2,68225,Note_on_c,0,50,0
2,68325,Note_on_c,0,55,100
2,68425,Note_on_c,0,55,0
2,68525,Note_on_c,0,50,100
2,68625,Note_on_c,0,50,0
2,68725,Note_on_c,0,43,100
2,68825,Note_on_c,0,43,0
2,68925,Note_on_c,0,50,100
2,69025,Note_on_c,0,50,0
2,69125,Note_on_c,0,55,100
2,69225,Note_on_c,0,55,0
2,69325,Note_on_c,0,50,100
2,69425,Note_on_c,0,50,0
2,69525,Note_on_c,0,50,100
2,69526,End_track
0,0,End_of_file