0, 0, Header, 1, 4, 240
1, 0, Start_track
1, 0, Time_signature, 1, 3, 12, 8
1, 0, Tempo, 375000
1, 120, Time_signature, 3, 1, 48, 8
1, 120, Tempo, 357143
1, 21720, Time_signature, 11, 3, 12, 8
1, 21720, Tempo, 375000
1, 23040, Time_signature, 1, 3, 12, 8
1, 23160, Time_signature, 3, 1, 48, 8
1, 23160, Tempo, 357143
1, 44760, Time_signature, 11, 3, 12, 8
1, 44760, Tempo, 375000
1, 46080, Time_signature, 1, 3, 12, 8
1, 46200, Time_signature, 3, 1, 48, 8
1, 46200, Tempo, 357143
1, 67800, Time_signature, 11, 3, 12, 8
1, 67800, Tempo, 375000
1, 69120, Time_signature, 1, 3, 12, 8
1, 69240, Time_signature, 3, 1, 48, 8
1, 69240, Tempo, 357143
1, 90840, Time_signature, 11, 3, 12, 8
1, 90840, Tempo, 375000
1, 90840, End_track
2, 0, Start_track
2, 0, Title_t, "English Suite 3, 3. Courante"
2, 0, Program_c, 0, 0
2, 0, Note_on_c, 0, 62, 107
2, 96, Note_off_c, 0, 62, 64
2, 120, Note_on_c, 0, 62, 107
2, 240, Note_on_c, 0, 60, 107
2, 336, Note_off_c, 0, 60, 64
2, 360, Note_on_c, 0, 58, 107
2, 456, Note_off_c, 0, 58, 64
2, 480, Note_on_c, 0, 57, 107
2, 576, Note_off_c, 0, 57, 64
2, 600, Note_on_c, 0, 58, 107
2, 888, Note_off_c, 0, 62, 64
2, 960, Note_on_c, 0, 62, 107
2, 984, Note_off_c, 0, 58, 64
2, 1056, Note_off_c, 0, 62, 64
2, 1080, Note_on_c, 0, 67, 107
2, 1176, Note_off_c, 0, 67, 64
2, 1200, Note_on_c, 0, 69, 107
2, 1296, Note_off_c, 0, 69, 64
2, 1320, Note_on_c, 0, 66, 107
2, 1416, Note_off_c, 0, 66, 64
2, 1440, Note_on_c, 0, 67, 107
2, 1536, Note_off_c, 0, 67, 64
2, 1560, Note_on_c, 0, 69, 107
2, 1680, Note_on_c, 0, 63, 107
2, 1776, Note_off_c, 0, 63, 64
2, 1800, Note_on_c, 0, 62, 107
2, 1896, Note_off_c, 0, 62, 64
2, 1920, Note_on_c, 0, 60, 107
2, 1944, Note_off_c, 0, 69, 64
2, 2016, Note_off_c, 0, 60, 64
2, 2040, Note_on_c, 0, 62, 107
2, 2040, Note_on_c, 0, 62, 107
2, 2328, Note_off_c, 0, 62, 64
2, 2328, Note_off_c, 0, 62, 64
2, 2400, Note_on_c, 0, 62, 107
2, 2496, Note_off_c, 0, 62, 64
2, 2520, Note_on_c, 0, 69, 107
2, 2616, Note_off_c, 0, 69, 64
2, 2640, Note_on_c, 0, 70, 107
2, 2736, Note_off_c, 0, 70, 64
2, 2760, Note_on_c, 0, 67, 107
2, 2856, Note_off_c, 0, 67, 64
2, 2880, Note_on_c, 0, 69, 107
2, 2976, Note_off_c, 0, 69, 64
2, 3000, Note_on_c, 0, 70, 107
2, 3120, Note_on_c, 0, 69, 107
2, 3216, Note_off_c, 0, 69, 64
2, 3240, Note_on_c, 0, 67, 107
2, 3336, Note_off_c, 0, 67, 64
2, 3360, Note_on_c, 0, 66, 107
2, 3384, Note_off_c, 0, 70, 64
2, 3456, Note_off_c, 0, 66, 64
2, 3480, Note_on_c, 0, 67, 107
2, 3576, Note_off_c, 0, 67, 64
2, 3600, Note_on_c, 0, 62, 107
2, 3696, Note_off_c, 0, 62, 64
2, 3720, Note_on_c, 0, 63, 107
2, 3816, Note_off_c, 0, 63, 64
2, 3840, Note_on_c, 0, 70, 107
2, 3936, Note_off_c, 0, 70, 64
2, 3960, Note_on_c, 0, 69, 107
2, 4056, Note_off_c, 0, 69, 64
2, 4080, Note_on_c, 0, 72, 107
2, 4176, Note_off_c, 0, 72, 64
2, 4200, Note_on_c, 0, 66, 107
2, 4296, Note_off_c, 0, 66, 64
2, 4320, Note_on_c, 0, 67, 107
2, 4416, Note_off_c, 0, 67, 64
2, 4440, Note_on_c, 0, 66, 107
2, 4464, Note_off_c, 0, 66, 64
2, 4470, Note_on_c, 0, 67, 107
2, 4494, Note_off_c, 0, 67, 64
2, 4500, Note_on_c, 0, 66, 107
2, 4656, Note_off_c, 0, 66, 64
2, 4680, Note_on_c, 0, 64, 107
2, 4776, Note_off_c, 0, 64, 64
2, 4800, Note_on_c, 0, 62, 107
2, 4896, Note_off_c, 0, 62, 64
2, 4920, Note_on_c, 0, 74, 127
2, 5208, Note_off_c, 0, 74, 64
2, 5280, Note_on_c, 0, 75, 107
2, 5376, Note_off_c, 0, 75, 64
2, 5400, Note_on_c, 0, 74, 107
2, 5496, Note_off_c, 0, 74, 64
2, 5520, Note_on_c, 0, 72, 107
2, 5616, Note_off_c, 0, 72, 64
2, 5640, Note_on_c, 0, 70, 107
2, 5736, Note_off_c, 0, 70, 64
2, 5760, Note_on_c, 0, 69, 107
2, 5856, Note_off_c, 0, 69, 64
2, 5880, Note_on_c, 0, 70, 107
2, 5976, Note_off_c, 0, 70, 64
2, 6000, Note_on_c, 0, 69, 107
2, 6096, Note_off_c, 0, 69, 64
2, 6120, Note_on_c, 0, 67, 107
2, 6216, Note_off_c, 0, 67, 64
2, 6240, Note_on_c, 0, 69, 107
2, 6336, Note_off_c, 0, 69, 64
2, 6360, Note_on_c, 0, 70, 107
2, 6456, Note_off_c, 0, 70, 64
2, 6480, Note_on_c, 0, 72, 107
2, 6576, Note_off_c, 0, 72, 64
2, 6600, Note_on_c, 0, 74, 107
2, 6696, Note_off_c, 0, 74, 64
2, 6720, Note_on_c, 0, 75, 107
2, 6816, Note_off_c, 0, 75, 64
2, 6840, Note_on_c, 0, 77, 107
2, 6864, Note_off_c, 0, 77, 64
2, 6870, Note_on_c, 0, 75, 107
2, 6894, Note_off_c, 0, 75, 64
2, 6900, Note_on_c, 0, 77, 107
2, 6924, Note_off_c, 0, 77, 64
2, 6930, Note_on_c, 0, 75, 107
2, 6954, Note_off_c, 0, 75, 64
2, 6960, Note_on_c, 0, 77, 107
2, 6984, Note_off_c, 0, 77, 64
2, 6990, Note_on_c, 0, 75, 107
2, 7014, Note_off_c, 0, 75, 64
2, 7020, Note_on_c, 0, 77, 107
2, 7044, Note_off_c, 0, 77, 64
2, 7050, Note_on_c, 0, 75, 107
2, 7074, Note_off_c, 0, 75, 64
2, 7080, Note_on_c, 0, 77, 107
2, 7104, Note_off_c, 0, 77, 64
2, 7110, Note_on_c, 0, 75, 107
2, 7188, Note_off_c, 0, 75, 64
2, 7200, Note_on_c, 0, 74, 107
2, 7248, Note_off_c, 0, 74, 64
2, 7260, Note_on_c, 0, 75, 107
2, 7308, Note_off_c, 0, 75, 64
2, 7320, Note_on_c, 0, 77, 107
2, 7608, Note_off_c, 0, 77, 64
2, 7680, Note_on_c, 0, 75, 107
2, 7776, Note_off_c, 0, 75, 64
2, 7800, Note_on_c, 0, 74, 107
2, 7896, Note_off_c, 0, 74, 64
2, 7920, Note_on_c, 0, 72, 107
2, 8016, Note_off_c, 0, 72, 64
2, 8040, Note_on_c, 0, 70, 107
2, 8136, Note_off_c, 0, 70, 64
2, 8160, Note_on_c, 0, 69, 107
2, 8256, Note_off_c, 0, 69, 64
2, 8280, Note_on_c, 0, 70, 107
2, 8376, Note_off_c, 0, 70, 64
2, 8400, Note_on_c, 0, 72, 107
2, 8496, Note_off_c, 0, 72, 64
2, 8520, Note_on_c, 0, 65, 107
2, 8616, Note_off_c, 0, 65, 64
2, 8640, Note_on_c, 0, 68, 107
2, 8736, Note_off_c, 0, 68, 64
2, 8760, Note_on_c, 0, 67, 107
2, 8940, Note_off_c, 0, 67, 64
2, 9000, Note_on_c, 0, 79, 127
2, 9336, Note_off_c, 0, 79, 64
2, 9360, Note_on_c, 0, 77, 107
2, 9456, Note_off_c, 0, 77, 64
2, 9480, Note_on_c, 0, 75, 107
2, 9576, Note_off_c, 0, 75, 64
2, 9600, Note_on_c, 0, 74, 107
2, 9696, Note_off_c, 0, 74, 64
2, 9720, Note_on_c, 0, 72, 107
2, 9816, Note_off_c, 0, 72, 64
2, 9840, Note_on_c, 0, 74, 107
2, 9936, Note_off_c, 0, 74, 64
2, 9960, Note_on_c, 0, 75, 107
2, 10056, Note_off_c, 0, 75, 64
2, 10080, Note_on_c, 0, 70, 107
2, 10176, Note_off_c, 0, 70, 64
2, 10200, Note_on_c, 0, 69, 107
2, 10296, Note_off_c, 0, 69, 64
2, 10320, Note_on_c, 0, 72, 107
2, 10416, Note_off_c, 0, 72, 64
2, 10440, Note_on_c, 0, 74, 107
2, 10536, Note_off_c, 0, 74, 64
2, 10560, Note_on_c, 0, 75, 107
2, 10656, Note_off_c, 0, 75, 64
2, 10680, Note_on_c, 0, 77, 107
2, 10776, Note_off_c, 0, 77, 64
2, 10800, Note_on_c, 0, 75, 107
2, 10896, Note_off_c, 0, 75, 64
2, 10920, Note_on_c, 0, 77, 107
2, 11016, Note_off_c, 0, 77, 64
2, 11040, Note_on_c, 0, 79, 107
2, 11136, Note_off_c, 0, 79, 64
2, 11160, Note_on_c, 0, 77, 107
2, 11256, Note_off_c, 0, 77, 64
2, 11280, Note_on_c, 0, 75, 107
2, 11376, Note_off_c, 0, 75, 64
2, 11400, Note_on_c, 0, 74, 107
2, 11496, Note_off_c, 0, 74, 64
2, 11520, Note_on_c, 0, 72, 107
2, 11616, Note_off_c, 0, 72, 64
2, 11640, Note_on_c, 0, 74, 107
2, 11820, Note_off_c, 0, 74, 64
2, 11880, Note_on_c, 0, 70, 107
2, 12060, Note_off_c, 0, 70, 64
2, 12120, Note_on_c, 0, 74, 107
2, 12150, Note_on_c, 0, 79, 107
2, 12180, Note_on_c, 0, 82, 107
2, 12408, Note_off_c, 0, 74, 64
2, 12432, Note_off_c, 0, 79, 64
2, 12432, Note_off_c, 0, 82, 64
2, 12480, Note_on_c, 0, 81, 107
2, 12576, Note_off_c, 0, 81, 64
2, 12600, Note_on_c, 0, 79, 107
2, 12696, Note_off_c, 0, 79, 64
2, 12720, Note_on_c, 0, 81, 107
2, 12816, Note_off_c, 0, 81, 64
2, 12840, Note_on_c, 0, 82, 107
2, 12936, Note_off_c, 0, 82, 64
2, 12960, Note_on_c, 0, 77, 107
2, 13056, Note_off_c, 0, 77, 64
2, 13080, Note_on_c, 0, 75, 107
2, 13104, Note_off_c, 0, 75, 64
2, 13110, Note_on_c, 0, 77, 107
2, 13134, Note_off_c, 0, 77, 64
2, 13140, Note_on_c, 0, 75, 107
2, 13392, Note_off_c, 0, 75, 64
2, 13440, Note_on_c, 0, 74, 107
2, 13536, Note_off_c, 0, 74, 64
2, 13560, Note_on_c, 0, 72, 107
2, 13656, Note_off_c, 0, 72, 64
2, 13680, Note_on_c, 0, 74, 107
2, 13776, Note_off_c, 0, 74, 64
2, 13800, Note_on_c, 0, 75, 107
2, 13896, Note_off_c, 0, 75, 64
2, 13920, Note_on_c, 0, 70, 107
2, 14016, Note_off_c, 0, 70, 64
2, 14040, Note_on_c, 0, 69, 107
2, 14136, Note_off_c, 0, 69, 64
2, 14160, Note_on_c, 0, 70, 107
2, 14256, Note_off_c, 0, 70, 64
2, 14280, Note_on_c, 0, 72, 107
2, 14376, Note_off_c, 0, 72, 64
2, 14400, Note_on_c, 0, 67, 107
2, 14496, Note_off_c, 0, 67, 64
2, 14520, Note_on_c, 0, 66, 107
2, 14616, Note_off_c, 0, 66, 64
2, 14640, Note_on_c, 0, 67, 107
2, 14736, Note_off_c, 0, 67, 64
2, 14760, Note_on_c, 0, 69, 107
2, 14856, Note_off_c, 0, 69, 64
2, 14880, Note_on_c, 0, 63, 107
2, 14976, Note_off_c, 0, 63, 64
2, 15000, Note_on_c, 0, 62, 107
2, 15096, Note_off_c, 0, 62, 64
2, 15120, Note_on_c, 0, 64, 107
2, 15216, Note_off_c, 0, 64, 64
2, 15240, Note_on_c, 0, 66, 107
2, 15432, Note_off_c, 0, 66, 64
2, 15480, Note_on_c, 0, 67, 107
2, 15672, Note_off_c, 0, 67, 64
2, 15720, Note_on_c, 0, 70, 107
2, 15816, Note_off_c, 0, 70, 64
2, 15840, Note_on_c, 0, 69, 107
2, 15936, Note_off_c, 0, 69, 64
2, 15960, Note_on_c, 0, 70, 107
2, 16140, Note_off_c, 0, 70, 64
2, 16200, Note_on_c, 0, 67, 107
2, 16380, Note_off_c, 0, 67, 64
2, 16440, Note_on_c, 0, 79, 127
2, 16728, Note_off_c, 0, 79, 64
2, 16800, Note_on_c, 0, 80, 107
2, 16896, Note_off_c, 0, 80, 64
2, 16920, Note_on_c, 0, 79, 107
2, 17016, Note_off_c, 0, 79, 64
2, 17040, Note_on_c, 0, 77, 107
2, 17136, Note_off_c, 0, 77, 64
2, 17160, Note_on_c, 0, 75, 107
2, 17256, Note_off_c, 0, 75, 64
2, 17280, Note_on_c, 0, 74, 107
2, 17376, Note_off_c, 0, 74, 64
2, 17400, Note_on_c, 0, 75, 107
2, 17520, Note_on_c, 0, 74, 107
2, 17616, Note_off_c, 0, 74, 64
2, 17640, Note_on_c, 0, 72, 107
2, 17736, Note_off_c, 0, 72, 64
2, 17760, Note_on_c, 0, 70, 107
2, 17856, Note_off_c, 0, 70, 64
2, 17880, Note_on_c, 0, 72, 107
2, 17976, Note_off_c, 0, 75, 64
2, 18072, Note_off_c, 0, 72, 64
2, 18120, Note_on_c, 0, 79, 107
2, 18120, Note_on_c, 0, 75, 107
2, 18300, Note_off_c, 0, 79, 64
2, 18312, Note_off_c, 0, 75, 64
2, 18360, Note_on_c, 0, 74, 107
2, 18360, Note_on_c, 0, 81, 107
2, 18456, Note_off_c, 0, 74, 64
2, 18480, Note_on_c, 0, 72, 107
2, 18576, Note_off_c, 0, 72, 64
2, 18600, Note_on_c, 0, 70, 107
2, 18696, Note_off_c, 0, 70, 64
2, 18720, Note_on_c, 0, 69, 107
2, 18816, Note_off_c, 0, 69, 64
2, 18840, Note_on_c, 0, 70, 107
2, 19032, Note_off_c, 0, 81, 64
2, 19080, Note_on_c, 0, 79, 107
2, 19176, Note_off_c, 0, 79, 64
2, 19200, Note_on_c, 0, 77, 107
2, 19296, Note_off_c, 0, 77, 64
2, 19320, Note_on_c, 0, 79, 107
2, 19416, Note_off_c, 0, 70, 64
2, 19560, Note_on_c, 0, 69, 107
2, 19656, Note_off_c, 0, 69, 64
2, 19680, Note_on_c, 0, 67, 107
2, 19776, Note_off_c, 0, 67, 64
2, 19800, Note_on_c, 0, 73, 107
2, 19896, Note_off_c, 0, 73, 64
2, 19920, Note_on_c, 0, 74, 107
2, 20016, Note_off_c, 0, 74, 64
2, 20040, Note_on_c, 0, 76, 107
2, 20136, Note_off_c, 0, 76, 64
2, 20160, Note_on_c, 0, 70, 107
2, 20256, Note_off_c, 0, 70, 64
2, 20280, Note_on_c, 0, 69, 107
2, 20568, Note_off_c, 0, 79, 64
2, 20640, Note_on_c, 0, 81, 107
2, 20736, Note_off_c, 0, 81, 64
2, 20760, Note_on_c, 0, 77, 107
2, 20784, Note_off_c, 0, 77, 64
2, 20790, Note_on_c, 0, 79, 107
2, 20814, Note_off_c, 0, 79, 64
2, 20820, Note_on_c, 0, 77, 107
2, 20856, Note_off_c, 0, 69, 64
2, 21072, Note_off_c, 0, 77, 64
2, 21120, Note_on_c, 0, 76, 107
2, 21216, Note_off_c, 0, 76, 64
2, 21240, Note_on_c, 0, 77, 107
2, 21240, Note_on_c, 0, 73, 107
2, 21264, Note_off_c, 0, 77, 64
2, 21270, Note_on_c, 0, 76, 107
2, 21294, Note_off_c, 0, 76, 64
2, 21300, Note_on_c, 0, 77, 107
2, 21324, Note_off_c, 0, 77, 64
2, 21330, Note_on_c, 0, 76, 107
2, 21354, Note_off_c, 0, 76, 64
2, 21360, Note_on_c, 0, 77, 107
2, 21384, Note_off_c, 0, 77, 64
2, 21390, Note_on_c, 0, 76, 107
2, 21414, Note_off_c, 0, 76, 64
2, 21420, Note_on_c, 0, 77, 107
2, 21444, Note_off_c, 0, 77, 64
2, 21450, Note_on_c, 0, 76, 107
2, 21474, Note_off_c, 0, 76, 64
2, 21480, Note_on_c, 0, 77, 107
2, 21504, Note_off_c, 0, 77, 64
2, 21510, Note_on_c, 0, 76, 107
2, 21588, Note_off_c, 0, 76, 64
2, 21600, Note_on_c, 0, 74, 107
2, 21624, Note_off_c, 0, 73, 64
2, 21696, Note_off_c, 0, 74, 64
2, 21720, Note_on_c, 0, 74, 107
2, 22440, Note_on_c, 0, 66, 107
2, 22440, Note_on_c, 0, 69, 107
2, 22824, Note_off_c, 0, 69, 64
2, 22824, Note_off_c, 0, 66, 64
2, 22824, Note_off_c, 0, 74, 64
2, 23040, Note_on_c, 0, 62, 107
2, 23136, Note_off_c, 0, 62, 64
2, 23160, Note_on_c, 0, 62, 107
2, 23280, Note_on_c, 0, 60, 107
2, 23376, Note_off_c, 0, 60, 64
2, 23400, Note_on_c, 0, 58, 107
2, 23496, Note_off_c, 0, 58, 64
2, 23520, Note_on_c, 0, 57, 107
2, 23616, Note_off_c, 0, 57, 64
2, 23640, Note_on_c, 0, 58, 107
2, 23928, Note_off_c, 0, 62, 64
2, 24000, Note_on_c, 0, 62, 107
2, 24024, Note_off_c, 0, 58, 64
2, 24096, Note_off_c, 0, 62, 64
2, 24120, Note_on_c, 0, 67, 107
2, 24216, Note_off_c, 0, 67, 64
2, 24240, Note_on_c, 0, 69, 107
2, 24336, Note_off_c, 0, 69, 64
2, 24360, Note_on_c, 0, 66, 107
2, 24456, Note_off_c, 0, 66, 64
2, 24480, Note_on_c, 0, 67, 107
2, 24576, Note_off_c, 0, 67, 64
2, 24600, Note_on_c, 0, 69, 107
2, 24720, Note_on_c, 0, 63, 107
2, 24816, Note_off_c, 0, 63, 64
2, 24840, Note_on_c, 0, 62, 107
2, 24936, Note_off_c, 0, 62, 64
2, 24960, Note_on_c, 0, 60, 107
2, 24984, Note_off_c, 0, 69, 64
2, 25056, Note_off_c, 0, 60, 64
2, 25080, Note_on_c, 0, 62, 107
2, 25080, Note_on_c, 0, 62, 107
2, 25368, Note_off_c, 0, 62, 64
2, 25368, Note_off_c, 0, 62, 64
2, 25440, Note_on_c, 0, 62, 107
2, 25536, Note_off_c, 0, 62, 64
2, 25560, Note_on_c, 0, 69, 107
2, 25656, Note_off_c, 0, 69, 64
2, 25680, Note_on_c, 0, 70, 107
2, 25776, Note_off_c, 0, 70, 64
2, 25800, Note_on_c, 0, 67, 107
2, 25896, Note_off_c, 0, 67, 64
2, 25920, Note_on_c, 0, 69, 107
2, 26016, Note_off_c, 0, 69, 64
2, 26040, Note_on_c, 0, 70, 107
2, 26160, Note_on_c, 0, 69, 107
2, 26256, Note_off_c, 0, 69, 64
2, 26280, Note_on_c, 0, 67, 107
2, 26376, Note_off_c, 0, 67, 64
2, 26400, Note_on_c, 0, 66, 107
2, 26424, Note_off_c, 0, 70, 64
2, 26496, Note_off_c, 0, 66, 64
2, 26520, Note_on_c, 0, 67, 107
2, 26616, Note_off_c, 0, 67, 64
2, 26640, Note_on_c, 0, 62, 107
2, 26736, Note_off_c, 0, 62, 64
2, 26760, Note_on_c, 0, 63, 107
2, 26856, Note_off_c, 0, 63, 64
2, 26880, Note_on_c, 0, 70, 107
2, 26976, Note_off_c, 0, 70, 64
2, 27000, Note_on_c, 0, 69, 107
2, 27096, Note_off_c, 0, 69, 64
2, 27120, Note_on_c, 0, 72, 107
2, 27216, Note_off_c, 0, 72, 64
2, 27240, Note_on_c, 0, 66, 107
2, 27336, Note_off_c, 0, 66, 64
2, 27360, Note_on_c, 0, 67, 107
2, 27456, Note_off_c, 0, 67, 64
2, 27480, Note_on_c, 0, 66, 107
2, 27504, Note_off_c, 0, 66, 64
2, 27510, Note_on_c, 0, 67, 107
2, 27534, Note_off_c, 0, 67, 64
2, 27540, Note_on_c, 0, 66, 107
2, 27696, Note_off_c, 0, 66, 64
2, 27720, Note_on_c, 0, 64, 107
2, 27816, Note_off_c, 0, 64, 64
2, 27840, Note_on_c, 0, 62, 107
2, 27936, Note_off_c, 0, 62, 64
2, 27960, Note_on_c, 0, 74, 127
2, 28248, Note_off_c, 0, 74, 64
2, 28320, Note_on_c, 0, 75, 107
2, 28416, Note_off_c, 0, 75, 64
2, 28440, Note_on_c, 0, 74, 107
2, 28536, Note_off_c, 0, 74, 64
2, 28560, Note_on_c, 0, 72, 107
2, 28656, Note_off_c, 0, 72, 64
2, 28680, Note_on_c, 0, 70, 107
2, 28776, Note_off_c, 0, 70, 64
2, 28800, Note_on_c, 0, 69, 107
2, 28896, Note_off_c, 0, 69, 64
2, 28920, Note_on_c, 0, 70, 107
2, 29016, Note_off_c, 0, 70, 64
2, 29040, Note_on_c, 0, 69, 107
2, 29136, Note_off_c, 0, 69, 64
2, 29160, Note_on_c, 0, 67, 107
2, 29256, Note_off_c, 0, 67, 64
2, 29280, Note_on_c, 0, 69, 107
2, 29376, Note_off_c, 0, 69, 64
2, 29400, Note_on_c, 0, 70, 107
2, 29496, Note_off_c, 0, 70, 64
2, 29520, Note_on_c, 0, 72, 107
2, 29616, Note_off_c, 0, 72, 64
2, 29640, Note_on_c, 0, 74, 107
2, 29736, Note_off_c, 0, 74, 64
2, 29760, Note_on_c, 0, 75, 107
2, 29856, Note_off_c, 0, 75, 64
2, 29880, Note_on_c, 0, 77, 107
2, 29904, Note_off_c, 0, 77, 64
2, 29910, Note_on_c, 0, 75, 107
2, 29934, Note_off_c, 0, 75, 64
2, 29940, Note_on_c, 0, 77, 107
2, 29964, Note_off_c, 0, 77, 64
2, 29970, Note_on_c, 0, 75, 107
2, 29994, Note_off_c, 0, 75, 64
2, 30000, Note_on_c, 0, 77, 107
2, 30024, Note_off_c, 0, 77, 64
2, 30030, Note_on_c, 0, 75, 107
2, 30054, Note_off_c, 0, 75, 64
2, 30060, Note_on_c, 0, 77, 107
2, 30084, Note_off_c, 0, 77, 64
2, 30090, Note_on_c, 0, 75, 107
2, 30114, Note_off_c, 0, 75, 64
2, 30120, Note_on_c, 0, 77, 107
2, 30144, Note_off_c, 0, 77, 64
2, 30150, Note_on_c, 0, 75, 107
2, 30228, Note_off_c, 0, 75, 64
2, 30240, Note_on_c, 0, 74, 107
2, 30288, Note_off_c, 0, 74, 64
2, 30300, Note_on_c, 0, 75, 107
2, 30348, Note_off_c, 0, 75, 64
2, 30360, Note_on_c, 0, 77, 107
2, 30648, Note_off_c, 0, 77, 64
2, 30720, Note_on_c, 0, 75, 107
2, 30816, Note_off_c, 0, 75, 64
2, 30840, Note_on_c, 0, 74, 107
2, 30936, Note_off_c, 0, 74, 64
2, 30960, Note_on_c, 0, 72, 107
2, 31056, Note_off_c, 0, 72, 64
2, 31080, Note_on_c, 0, 70, 107
2, 31176, Note_off_c, 0, 70, 64
2, 31200, Note_on_c, 0, 69, 107
2, 31296, Note_off_c, 0, 69, 64
2, 31320, Note_on_c, 0, 70, 107
2, 31416, Note_off_c, 0, 70, 64
2, 31440, Note_on_c, 0, 72, 107
2, 31536, Note_off_c, 0, 72, 64
2, 31560, Note_on_c, 0, 65, 107
2, 31656, Note_off_c, 0, 65, 64
2, 31680, Note_on_c, 0, 68, 107
2, 31776, Note_off_c, 0, 68, 64
2, 31800, Note_on_c, 0, 67, 107
2, 31980, Note_off_c, 0, 67, 64
2, 32040, Note_on_c, 0, 79, 127
2, 32376, Note_off_c, 0, 79, 64
2, 32400, Note_on_c, 0, 77, 107
2, 32496, Note_off_c, 0, 77, 64
2, 32520, Note_on_c, 0, 75, 107
2, 32616, Note_off_c, 0, 75, 64
2, 32640, Note_on_c, 0, 74, 107
2, 32736, Note_off_c, 0, 74, 64
2, 32760, Note_on_c, 0, 72, 107
2, 32856, Note_off_c, 0, 72, 64
2, 32880, Note_on_c, 0, 74, 107
2, 32976, Note_off_c, 0, 74, 64
2, 33000, Note_on_c, 0, 75, 107
2, 33096, Note_off_c, 0, 75, 64
2, 33120, Note_on_c, 0, 70, 107
2, 33216, Note_off_c, 0, 70, 64
2, 33240, Note_on_c, 0, 69, 107
2, 33336, Note_off_c, 0, 69, 64
2, 33360, Note_on_c, 0, 72, 107
2, 33456, Note_off_c, 0, 72, 64
2, 33480, Note_on_c, 0, 74, 107
2, 33576, Note_off_c, 0, 74, 64
2, 33600, Note_on_c, 0, 75, 107
2, 33696, Note_off_c, 0, 75, 64
2, 33720, Note_on_c, 0, 77, 107
2, 33816, Note_off_c, 0, 77, 64
2, 33840, Note_on_c, 0, 75, 107
2, 33936, Note_off_c, 0, 75, 64
2, 33960, Note_on_c, 0, 77, 107
2, 34056, Note_off_c, 0, 77, 64
2, 34080, Note_on_c, 0, 79, 107
2, 34176, Note_off_c, 0, 79, 64
2, 34200, Note_on_c, 0, 77, 107
2, 34296, Note_off_c, 0, 77, 64
2, 34320, Note_on_c, 0, 75, 107
2, 34416, Note_off_c, 0, 75, 64
2, 34440, Note_on_c, 0, 74, 107
2, 34536, Note_off_c, 0, 74, 64
2, 34560, Note_on_c, 0, 72, 107
2, 34656, Note_off_c, 0, 72, 64
2, 34680, Note_on_c, 0, 74, 107
2, 34860, Note_off_c, 0, 74, 64
2, 34920, Note_on_c, 0, 70, 107
2, 35100, Note_off_c, 0, 70, 64
2, 35160, Note_on_c, 0, 74, 107
2, 35190, Note_on_c, 0, 79, 107
2, 35220, Note_on_c, 0, 82, 107
2, 35448, Note_off_c, 0, 74, 64
2, 35472, Note_off_c, 0, 79, 64
2, 35472, Note_off_c, 0, 82, 64
2, 35520, Note_on_c, 0, 81, 107
2, 35616, Note_off_c, 0, 81, 64
2, 35640, Note_on_c, 0, 79, 107
2, 35736, Note_off_c, 0, 79, 64
2, 35760, Note_on_c, 0, 81, 107
2, 35856, Note_off_c, 0, 81, 64
2, 35880, Note_on_c, 0, 82, 107
2, 35976, Note_off_c, 0, 82, 64
2, 36000, Note_on_c, 0, 77, 107
2, 36096, Note_off_c, 0, 77, 64
2, 36120, Note_on_c, 0, 75, 107
2, 36144, Note_off_c, 0, 75, 64
2, 36150, Note_on_c, 0, 77, 107
2, 36174, Note_off_c, 0, 77, 64
2, 36180, Note_on_c, 0, 75, 107
2, 36432, Note_off_c, 0, 75, 64
2, 36480, Note_on_c, 0, 74, 107
2, 36576, Note_off_c, 0, 74, 64
2, 36600, Note_on_c, 0, 72, 107
2, 36696, Note_off_c, 0, 72, 64
2, 36720, Note_on_c, 0, 74, 107
2, 36816, Note_off_c, 0, 74, 64
2, 36840, Note_on_c, 0, 75, 107
2, 36936, Note_off_c, 0, 75, 64
2, 36960, Note_on_c, 0, 70, 107
2, 37056, Note_off_c, 0, 70, 64
2, 37080, Note_on_c, 0, 69, 107
2, 37176, Note_off_c, 0, 69, 64
2, 37200, Note_on_c, 0, 70, 107
2, 37296, Note_off_c, 0, 70, 64
2, 37320, Note_on_c, 0, 72, 107
2, 37416, Note_off_c, 0, 72, 64
2, 37440, Note_on_c, 0, 67, 107
2, 37536, Note_off_c, 0, 67, 64
2, 37560, Note_on_c, 0, 66, 107
2, 37656, Note_off_c, 0, 66, 64
2, 37680, Note_on_c, 0, 67, 107
2, 37776, Note_off_c, 0, 67, 64
2, 37800, Note_on_c, 0, 69, 107
2, 37896, Note_off_c, 0, 69, 64
2, 37920, Note_on_c, 0, 63, 107
2, 38016, Note_off_c, 0, 63, 64
2, 38040, Note_on_c, 0, 62, 107
2, 38136, Note_off_c, 0, 62, 64
2, 38160, Note_on_c, 0, 64, 107
2, 38256, Note_off_c, 0, 64, 64
2, 38280, Note_on_c, 0, 66, 107
2, 38472, Note_off_c, 0, 66, 64
2, 38520, Note_on_c, 0, 67, 107
2, 38712, Note_off_c, 0, 67, 64
2, 38760, Note_on_c, 0, 70, 107
2, 38856, Note_off_c, 0, 70, 64
2, 38880, Note_on_c, 0, 69, 107
2, 38976, Note_off_c, 0, 69, 64
2, 39000, Note_on_c, 0, 70, 107
2, 39180, Note_off_c, 0, 70, 64
2, 39240, Note_on_c, 0, 67, 107
2, 39420, Note_off_c, 0, 67, 64
2, 39480, Note_on_c, 0, 79, 127
2, 39768, Note_off_c, 0, 79, 64
2, 39840, Note_on_c, 0, 80, 107
2, 39936, Note_off_c, 0, 80, 64
2, 39960, Note_on_c, 0, 79, 107
2, 40056, Note_off_c, 0, 79, 64
2, 40080, Note_on_c, 0, 77, 107
2, 40176, Note_off_c, 0, 77, 64
2, 40200, Note_on_c, 0, 75, 107
2, 40296, Note_off_c, 0, 75, 64
2, 40320, Note_on_c, 0, 74, 107
2, 40416, Note_off_c, 0, 74, 64
2, 40440, Note_on_c, 0, 75, 107
2, 40560, Note_on_c, 0, 74, 107
2, 40656, Note_off_c, 0, 74, 64
2, 40680, Note_on_c, 0, 72, 107
2, 40776, Note_off_c, 0, 72, 64
2, 40800, Note_on_c, 0, 70, 107
2, 40896, Note_off_c, 0, 70, 64
2, 40920, Note_on_c, 0, 72, 107
2, 41016, Note_off_c, 0, 75, 64
2, 41112, Note_off_c, 0, 72, 64
2, 41160, Note_on_c, 0, 79, 107
2, 41160, Note_on_c, 0, 75, 107
2, 41340, Note_off_c, 0, 79, 64
2, 41352, Note_off_c, 0, 75, 64
2, 41400, Note_on_c, 0, 74, 107
2, 41400, Note_on_c, 0, 81, 107
2, 41496, Note_off_c, 0, 74, 64
2, 41520, Note_on_c, 0, 72, 107
2, 41616, Note_off_c, 0, 72, 64
2, 41640, Note_on_c, 0, 70, 107
2, 41736, Note_off_c, 0, 70, 64
2, 41760, Note_on_c, 0, 69, 107
2, 41856, Note_off_c, 0, 69, 64
2, 41880, Note_on_c, 0, 70, 107
2, 42072, Note_off_c, 0, 81, 64
2, 42120, Note_on_c, 0, 79, 107
2, 42216, Note_off_c, 0, 79, 64
2, 42240, Note_on_c, 0, 77, 107
2, 42336, Note_off_c, 0, 77, 64
2, 42360, Note_on_c, 0, 79, 107
2, 42456, Note_off_c, 0, 70, 64
2, 42600, Note_on_c, 0, 69, 107
2, 42696, Note_off_c, 0, 69, 64
2, 42720, Note_on_c, 0, 67, 107
2, 42816, Note_off_c, 0, 67, 64
2, 42840, Note_on_c, 0, 73, 107
2, 42936, Note_off_c, 0, 73, 64
2, 42960, Note_on_c, 0, 74, 107
2, 43056, Note_off_c, 0, 74, 64
2, 43080, Note_on_c, 0, 76, 107
2, 43176, Note_off_c, 0, 76, 64
2, 43200, Note_on_c, 0, 70, 107
2, 43296, Note_off_c, 0, 70, 64
2, 43320, Note_on_c, 0, 69, 107
2, 43608, Note_off_c, 0, 79, 64
2, 43680, Note_on_c, 0, 81, 107
2, 43776, Note_off_c, 0, 81, 64
2, 43800, Note_on_c, 0, 77, 107
2, 43824, Note_off_c, 0, 77, 64
2, 43830, Note_on_c, 0, 79, 107
2, 43854, Note_off_c, 0, 79, 64
2, 43860, Note_on_c, 0, 77, 107
2, 43896, Note_off_c, 0, 69, 64
2, 44112, Note_off_c, 0, 77, 64
2, 44160, Note_on_c, 0, 76, 107
2, 44256, Note_off_c, 0, 76, 64
2, 44280, Note_on_c, 0, 77, 107
2, 44280, Note_on_c, 0, 73, 107
2, 44304, Note_off_c, 0, 77, 64
2, 44310, Note_on_c, 0, 76, 107
2, 44334, Note_off_c, 0, 76, 64
2, 44340, Note_on_c, 0, 77, 107
2, 44364, Note_off_c, 0, 77, 64
2, 44370, Note_on_c, 0, 76, 107
2, 44394, Note_off_c, 0, 76, 64
2, 44400, Note_on_c, 0, 77, 107
2, 44424, Note_off_c, 0, 77, 64
2, 44430, Note_on_c, 0, 76, 107
2, 44454, Note_off_c, 0, 76, 64
2, 44460, Note_on_c, 0, 77, 107
2, 44484, Note_off_c, 0, 77, 64
2, 44490, Note_on_c, 0, 76, 107
2, 44514, Note_off_c, 0, 76, 64
2, 44520, Note_on_c, 0, 77, 107
2, 44544, Note_off_c, 0, 77, 64
2, 44550, Note_on_c, 0, 76, 107
2, 44628, Note_off_c, 0, 76, 64
2, 44640, Note_on_c, 0, 74, 107
2, 44664, Note_off_c, 0, 73, 64
2, 44736, Note_off_c, 0, 74, 64
2, 44760, Note_on_c, 0, 74, 107
2, 45480, Note_on_c, 0, 66, 107
2, 45480, Note_on_c, 0, 69, 107
2, 45864, Note_off_c, 0, 69, 64
2, 45864, Note_off_c, 0, 66, 64
2, 45864, Note_off_c, 0, 74, 64
2, 46080, Note_on_c, 0, 81, 107
2, 46176, Note_off_c, 0, 81, 64
2, 46200, Note_on_c, 0, 81, 107
2, 46320, Note_on_c, 0, 79, 107
2, 46416, Note_off_c, 0, 79, 64
2, 46440, Note_on_c, 0, 78, 107
2, 46536, Note_off_c, 0, 78, 64
2, 46560, Note_on_c, 0, 76, 107
2, 46584, Note_off_c, 0, 81, 64
2, 46656, Note_off_c, 0, 76, 64
2, 46680, Note_on_c, 0, 78, 107
2, 46680, Note_on_c, 0, 78, 107
2, 46860, Note_off_c, 0, 78, 64
2, 46872, Note_off_c, 0, 78, 64
2, 46920, Note_on_c, 0, 78, 107
2, 46920, Note_on_c, 0, 74, 107
2, 47100, Note_off_c, 0, 78, 64
2, 47112, Note_off_c, 0, 74, 64
2, 47160, Note_on_c, 0, 74, 107
2, 47160, Note_on_c, 0, 79, 107
2, 47448, Note_off_c, 0, 79, 64
2, 47520, Note_on_c, 0, 81, 107
2, 47616, Note_off_c, 0, 81, 64
2, 47640, Note_on_c, 0, 82, 107
2, 47928, Note_off_c, 0, 82, 64
2, 48000, Note_on_c, 0, 81, 107
2, 48024, Note_off_c, 0, 74, 64
2, 48096, Note_off_c, 0, 81, 64
2, 48120, Note_on_c, 0, 79, 107
2, 48216, Note_off_c, 0, 79, 64
2, 48240, Note_on_c, 0, 81, 107
2, 48336, Note_off_c, 0, 81, 64
2, 48360, Note_on_c, 0, 82, 107
2, 48456, Note_off_c, 0, 82, 64
2, 48480, Note_on_c, 0, 77, 107
2, 48576, Note_off_c, 0, 77, 64
2, 48600, Note_on_c, 0, 77, 107
2, 48696, Note_off_c, 0, 77, 64
2, 48720, Note_on_c, 0, 76, 107
2, 48816, Note_off_c, 0, 76, 64
2, 48840, Note_on_c, 0, 74, 107
2, 48936, Note_off_c, 0, 74, 64
2, 48960, Note_on_c, 0, 72, 107
2, 49056, Note_off_c, 0, 72, 64
2, 49080, Note_on_c, 0, 84, 107
2, 49368, Note_off_c, 0, 84, 64
2, 49440, Note_on_c, 0, 79, 107
2, 49536, Note_off_c, 0, 79, 64
2, 49560, Note_on_c, 0, 81, 107
2, 49656, Note_off_c, 0, 81, 64
2, 49680, Note_on_c, 0, 76, 107
2, 49776, Note_off_c, 0, 76, 64
2, 49800, Note_on_c, 0, 77, 107
2, 49896, Note_off_c, 0, 77, 64
2, 49920, Note_on_c, 0, 81, 107
2, 50016, Note_off_c, 0, 81, 64
2, 50040, Note_on_c, 0, 81, 107
2, 50040, Note_on_c, 0, 76, 107
2, 50064, Note_off_c, 0, 81, 64
2, 50070, Note_on_c, 0, 79, 107
2, 50094, Note_off_c, 0, 79, 64
2, 50100, Note_on_c, 0, 81, 107
2, 50124, Note_off_c, 0, 81, 64
2, 50130, Note_on_c, 0, 79, 107
2, 50154, Note_off_c, 0, 79, 64
2, 50160, Note_on_c, 0, 81, 107
2, 50184, Note_off_c, 0, 81, 64
2, 50190, Note_on_c, 0, 79, 107
2, 50214, Note_off_c, 0, 79, 64
2, 50220, Note_on_c, 0, 81, 107
2, 50244, Note_off_c, 0, 81, 64
2, 50250, Note_on_c, 0, 79, 107
2, 50274, Note_off_c, 0, 79, 64
2, 50280, Note_on_c, 0, 81, 107
2, 50304, Note_off_c, 0, 81, 64
2, 50310, Note_on_c, 0, 79, 107
2, 50388, Note_off_c, 0, 79, 64
2, 50400, Note_on_c, 0, 77, 107
2, 50424, Note_off_c, 0, 76, 64
2, 50448, Note_off_c, 0, 77, 64
2, 50460, Note_on_c, 0, 79, 107
2, 50508, Note_off_c, 0, 79, 64
2, 50520, Note_on_c, 0, 77, 107
2, 50520, Note_on_c, 0, 77, 107
2, 50904, Note_off_c, 0, 77, 64
2, 51096, Note_off_c, 0, 77, 64
2, 51120, Note_on_c, 0, 79, 107
2, 51216, Note_off_c, 0, 79, 64
2, 51240, Note_on_c, 0, 80, 107
2, 51336, Note_off_c, 0, 80, 64
2, 51360, Note_on_c, 0, 79, 107
2, 51456, Note_off_c, 0, 79, 64
2, 51480, Note_on_c, 0, 77, 107
2, 51576, Note_off_c, 0, 77, 64
2, 51600, Note_on_c, 0, 75, 107
2, 51696, Note_off_c, 0, 75, 64
2, 51720, Note_on_c, 0, 74, 107
2, 51816, Note_off_c, 0, 74, 64
2, 51840, Note_on_c, 0, 75, 107
2, 51936, Note_off_c, 0, 75, 64
2, 51960, Note_on_c, 0, 72, 107
2, 52056, Note_off_c, 0, 72, 64
2, 52080, Note_on_c, 0, 71, 107
2, 52176, Note_off_c, 0, 71, 64
2, 52200, Note_on_c, 0, 69, 107
2, 52296, Note_off_c, 0, 69, 64
2, 52320, Note_on_c, 0, 67, 107
2, 52416, Note_off_c, 0, 67, 64
2, 52440, Note_on_c, 0, 72, 107
2, 52536, Note_off_c, 0, 72, 64
2, 52560, Note_on_c, 0, 71, 107
2, 52656, Note_off_c, 0, 71, 64
2, 52680, Note_on_c, 0, 72, 107
2, 52776, Note_off_c, 0, 72, 64
2, 52800, Note_on_c, 0, 75, 107
2, 52896, Note_off_c, 0, 75, 64
2, 52920, Note_on_c, 0, 74, 107
2, 53016, Note_off_c, 0, 74, 64
2, 53040, Note_on_c, 0, 75, 107
2, 53136, Note_off_c, 0, 75, 64
2, 53160, Note_on_c, 0, 77, 107
2, 53256, Note_off_c, 0, 77, 64
2, 53280, Note_on_c, 0, 74, 107
2, 53376, Note_off_c, 0, 74, 64
2, 53400, Note_on_c, 0, 77, 107
2, 53496, Note_off_c, 0, 77, 64
2, 53520, Note_on_c, 0, 75, 107
2, 53616, Note_off_c, 0, 75, 64
2, 53640, Note_on_c, 0, 74, 107
2, 53736, Note_off_c, 0, 74, 64
2, 53760, Note_on_c, 0, 72, 107
2, 53856, Note_off_c, 0, 72, 64
2, 53880, Note_on_c, 0, 74, 107
2, 53976, Note_off_c, 0, 74, 64
2, 54000, Note_on_c, 0, 76, 107
2, 54096, Note_off_c, 0, 76, 64
2, 54120, Note_on_c, 0, 77, 107
2, 54216, Note_off_c, 0, 77, 64
2, 54240, Note_on_c, 0, 79, 107
2, 54336, Note_off_c, 0, 79, 64
2, 54360, Note_on_c, 0, 80, 107
2, 54384, Note_off_c, 0, 80, 64
2, 54390, Note_on_c, 0, 79, 107
2, 54414, Note_off_c, 0, 79, 64
2, 54420, Note_on_c, 0, 80, 107
2, 54444, Note_off_c, 0, 80, 64
2, 54450, Note_on_c, 0, 79, 107
2, 54474, Note_off_c, 0, 79, 64
2, 54480, Note_on_c, 0, 80, 107
2, 54504, Note_off_c, 0, 80, 64
2, 54510, Note_on_c, 0, 79, 107
2, 54534, Note_off_c, 0, 79, 64
2, 54540, Note_on_c, 0, 80, 107
2, 54564, Note_off_c, 0, 80, 64
2, 54570, Note_on_c, 0, 79, 107
2, 54594, Note_off_c, 0, 79, 64
2, 54600, Note_on_c, 0, 80, 107
2, 54624, Note_off_c, 0, 80, 64
2, 54630, Note_on_c, 0, 79, 107
2, 54708, Note_off_c, 0, 79, 64
2, 54720, Note_on_c, 0, 77, 107
2, 54768, Note_off_c, 0, 77, 64
2, 54780, Note_on_c, 0, 79, 107
2, 54828, Note_off_c, 0, 79, 64
2, 54840, Note_on_c, 0, 80, 107
2, 55128, Note_off_c, 0, 80, 64
2, 55200, Note_on_c, 0, 71, 107
2, 55296, Note_off_c, 0, 71, 64
2, 55320, Note_on_c, 0, 72, 107
2, 55349, Note_off_c, 0, 72, 64
2, 55350, Note_on_c, 0, 71, 107
2, 55374, Note_off_c, 0, 71, 64
2, 55380, Note_on_c, 0, 69, 107
2, 55404, Note_off_c, 0, 69, 64
2, 55410, Note_on_c, 0, 71, 107
2, 55434, Note_off_c, 0, 71, 64
2, 55440, Note_on_c, 0, 72, 107
2, 55632, Note_off_c, 0, 72, 64
2, 55680, Note_on_c, 0, 74, 107
2, 55776, Note_off_c, 0, 74, 64
2, 55800, Note_on_c, 0, 71, 107
2, 55800, Note_on_c, 0, 75, 107
2, 55829, Note_off_c, 0, 75, 64
2, 55830, Note_on_c, 0, 74, 107
2, 55859, Note_off_c, 0, 74, 64
2, 55860, Note_on_c, 0, 75, 107
2, 55889, Note_off_c, 0, 75, 64
2, 55890, Note_on_c, 0, 74, 107
2, 55919, Note_off_c, 0, 74, 64
2, 55920, Note_on_c, 0, 75, 107
2, 55949, Note_off_c, 0, 75, 64
2, 55950, Note_on_c, 0, 74, 107
2, 55979, Note_off_c, 0, 74, 64
2, 55980, Note_on_c, 0, 75, 107
2, 56009, Note_off_c, 0, 75, 64
2, 56010, Note_on_c, 0, 74, 107
2, 56039, Note_off_c, 0, 74, 64
2, 56040, Note_on_c, 0, 75, 107
2, 56069, Note_off_c, 0, 75, 64
2, 56070, Note_on_c, 0, 74, 107
2, 56148, Note_off_c, 0, 74, 64
2, 56160, Note_on_c, 0, 72, 107
2, 56184, Note_off_c, 0, 71, 64
2, 56256, Note_off_c, 0, 72, 64
2, 56280, Note_on_c, 0, 72, 107
2, 56280, Note_on_c, 0, 72, 107
2, 56664, Note_off_c, 0, 72, 64
2, 56856, Note_off_c, 0, 72, 64
2, 56880, Note_on_c, 0, 74, 107
2, 56976, Note_off_c, 0, 74, 64
2, 57000, Note_on_c, 0, 75, 107
2, 57096, Note_off_c, 0, 75, 64
2, 57120, Note_on_c, 0, 74, 107
2, 57216, Note_off_c, 0, 74, 64
2, 57240, Note_on_c, 0, 72, 107
2, 57336, Note_off_c, 0, 72, 64
2, 57360, Note_on_c, 0, 70, 107
2, 57456, Note_off_c, 0, 70, 64
2, 57480, Note_on_c, 0, 69, 107
2, 57576, Note_off_c, 0, 69, 64
2, 57600, Note_on_c, 0, 70, 107
2, 57696, Note_off_c, 0, 70, 64
2, 57720, Note_on_c, 0, 70, 110
2, 57816, Note_off_c, 0, 70, 64
2, 57840, Note_on_c, 0, 69, 110
2, 57936, Note_off_c, 0, 69, 64
2, 57960, Note_on_c, 0, 67, 110
2, 58056, Note_off_c, 0, 67, 64
2, 58080, Note_on_c, 0, 65, 110
2, 58176, Note_off_c, 0, 65, 64
2, 58200, Note_on_c, 0, 67, 110
2, 58296, Note_off_c, 0, 67, 64
2, 58320, Note_on_c, 0, 69, 110
2, 58416, Note_off_c, 0, 69, 64
2, 58440, Note_on_c, 0, 70, 110
2, 58536, Note_off_c, 0, 70, 64
2, 58560, Note_on_c, 0, 72, 110
2, 58656, Note_off_c, 0, 72, 64
2, 58680, Note_on_c, 0, 74, 110
2, 58704, Note_off_c, 0, 74, 64
2, 58710, Note_on_c, 0, 72, 110
2, 58734, Note_off_c, 0, 72, 64
2, 58740, Note_on_c, 0, 74, 110
2, 58764, Note_off_c, 0, 74, 64
2, 58770, Note_on_c, 0, 72, 110
2, 58794, Note_off_c, 0, 72, 64
2, 58800, Note_on_c, 0, 74, 110
2, 58824, Note_off_c, 0, 74, 64
2, 58830, Note_on_c, 0, 72, 110
2, 58854, Note_off_c, 0, 72, 64
2, 58860, Note_on_c, 0, 74, 110
2, 58884, Note_off_c, 0, 74, 64
2, 58890, Note_on_c, 0, 72, 110
2, 58914, Note_off_c, 0, 72, 64
2, 58920, Note_on_c, 0, 74, 110
2, 58944, Note_off_c, 0, 74, 64
2, 58950, Note_on_c, 0, 72, 110
2, 59028, Note_off_c, 0, 72, 64
2, 59040, Note_on_c, 0, 70, 110
2, 59088, Note_off_c, 0, 70, 64
2, 59100, Note_on_c, 0, 72, 110
2, 59148, Note_off_c, 0, 72, 64
2, 59160, Note_on_c, 0, 74, 127
2, 59280, Note_on_c, 0, 72, 110
2, 59376, Note_off_c, 0, 72, 64
2, 59400, Note_on_c, 0, 70, 110
2, 59496, Note_off_c, 0, 70, 64
2, 59520, Note_on_c, 0, 69, 110
2, 59616, Note_off_c, 0, 69, 64
2, 59640, Note_on_c, 0, 70, 110
2, 59736, Note_off_c, 0, 70, 64
2, 59760, Note_on_c, 0, 67, 110
2, 59856, Note_off_c, 0, 67, 64
2, 59880, Note_on_c, 0, 69, 110
2, 59928, Note_off_c, 0, 74, 64
2, 59976, Note_off_c, 0, 69, 64
2, 60000, Note_on_c, 0, 70, 110
2, 60096, Note_off_c, 0, 70, 64
2, 60120, Note_on_c, 0, 64, 110
2, 60240, Note_on_c, 0, 67, 110
2, 60336, Note_off_c, 0, 67, 64
2, 60360, Note_on_c, 0, 69, 110
2, 60456, Note_off_c, 0, 69, 64
2, 60480, Note_on_c, 0, 70, 110
2, 60504, Note_off_c, 0, 64, 64
2, 60576, Note_off_c, 0, 70, 64
2, 60600, Note_on_c, 0, 72, 127
2, 60720, Note_on_c, 0, 70, 110
2, 60816, Note_off_c, 0, 70, 64
2, 60840, Note_on_c, 0, 69, 110
2, 60936, Note_off_c, 0, 69, 64
2, 60960, Note_on_c, 0, 67, 110
2, 61056, Note_off_c, 0, 67, 64
2, 61080, Note_on_c, 0, 69, 110
2, 61176, Note_off_c, 0, 69, 64
2, 61200, Note_on_c, 0, 66, 110
2, 61296, Note_off_c, 0, 66, 64
2, 61320, Note_on_c, 0, 67, 110
2, 61416, Note_off_c, 0, 67, 64
2, 61440, Note_on_c, 0, 69, 110
2, 61536, Note_off_c, 0, 69, 64
2, 61560, Note_on_c, 0, 62, 110
2, 61656, Note_off_c, 0, 72, 64
2, 61680, Note_on_c, 0, 72, 110
2, 61776, Note_off_c, 0, 72, 64
2, 61800, Note_on_c, 0, 70, 110
2, 61896, Note_off_c, 0, 70, 64
2, 61920, Note_on_c, 0, 69, 110
2, 61944, Note_off_c, 0, 62, 64
2, 62016, Note_off_c, 0, 69, 64
2, 62040, Note_on_c, 0, 70, 110
2, 62160, Note_on_c, 0, 69, 110
2, 62256, Note_off_c, 0, 69, 64
2, 62280, Note_on_c, 0, 67, 110
2, 62376, Note_off_c, 0, 67, 64
2, 62400, Note_on_c, 0, 66, 110
2, 62496, Note_off_c, 0, 66, 64
2, 62520, Note_on_c, 0, 67, 110
2, 62616, Note_off_c, 0, 67, 64
2, 62640, Note_on_c, 0, 63, 110
2, 62736, Note_off_c, 0, 63, 64
2, 62760, Note_on_c, 0, 65, 110
2, 62808, Note_off_c, 0, 70, 64
2, 62856, Note_off_c, 0, 65, 64
2, 62880, Note_on_c, 0, 70, 110
2, 62880, Note_on_c, 0, 67, 110
2, 62976, Note_off_c, 0, 67, 64
2, 62976, Note_off_c, 0, 70, 64
2, 63000, Note_on_c, 0, 61, 110
2, 63000, Note_on_c, 0, 70, 110
2, 63024, Note_off_c, 0, 61, 64
2, 63030, Note_on_c, 0, 62, 110
2, 63054, Note_off_c, 0, 62, 64
2, 63060, Note_on_c, 0, 61, 110
2, 63096, Note_off_c, 0, 70, 64
2, 63120, Note_on_c, 0, 69, 110
2, 63216, Note_off_c, 0, 69, 64
2, 63240, Note_on_c, 0, 70, 110
2, 63336, Note_off_c, 0, 70, 64
2, 63360, Note_on_c, 0, 67, 110
2, 63408, Note_off_c, 0, 61, 64
2, 63456, Note_off_c, 0, 67, 64
2, 63480, Note_on_c, 0, 66, 110
2, 63480, Note_on_c, 0, 62, 110
2, 63504, Note_off_c, 0, 66, 64
2, 63510, Note_on_c, 0, 67, 110
2, 63534, Note_off_c, 0, 67, 64
2, 63540, Note_on_c, 0, 66, 110
2, 64104, Note_off_c, 0, 66, 64
2, 64200, Note_on_c, 0, 67, 110
2, 64296, Note_off_c, 0, 67, 64
2, 64320, Note_on_c, 0, 69, 110
2, 64416, Note_off_c, 0, 69, 64
2, 64440, Note_on_c, 0, 67, 110
2, 64536, Note_off_c, 0, 67, 64
2, 64560, Note_on_c, 0, 65, 110
2, 64656, Note_off_c, 0, 65, 64
2, 64680, Note_on_c, 0, 63, 110
2, 64776, Note_off_c, 0, 63, 64
2, 64800, Note_on_c, 0, 62, 110
2, 64896, Note_off_c, 0, 62, 64
2, 64920, Note_on_c, 0, 63, 110
2, 65016, Note_off_c, 0, 62, 64
2, 65040, Note_on_c, 0, 58, 110
2, 65136, Note_off_c, 0, 58, 64
2, 65160, Note_on_c, 0, 57, 110
2, 65256, Note_off_c, 0, 57, 64
2, 65280, Note_on_c, 0, 55, 110
2, 65304, Note_off_c, 0, 63, 64
2, 65376, Note_off_c, 0, 55, 64
2, 65400, Note_on_c, 0, 60, 110
2, 65496, Note_off_c, 0, 60, 64
2, 65520, Note_on_c, 0, 63, 110
2, 65616, Note_off_c, 0, 63, 64
2, 65640, Note_on_c, 0, 67, 110
2, 65736, Note_off_c, 0, 67, 64
2, 65760, Note_on_c, 0, 70, 110
2, 65856, Note_off_c, 0, 70, 64
2, 65880, Note_on_c, 0, 69, 110
2, 65976, Note_off_c, 0, 69, 64
2, 66000, Note_on_c, 0, 66, 110
2, 66096, Note_off_c, 0, 66, 64
2, 66120, Note_on_c, 0, 67, 110
2, 66216, Note_off_c, 0, 67, 64
2, 66240, Note_on_c, 0, 69, 110
2, 66336, Note_off_c, 0, 69, 64
2, 66360, Note_on_c, 0, 62, 110
2, 66456, Note_off_c, 0, 62, 64
2, 66480, Note_on_c, 0, 66, 110
2, 66576, Note_off_c, 0, 66, 64
2, 66600, Note_on_c, 0, 69, 110
2, 66696, Note_off_c, 0, 69, 64
2, 66720, Note_on_c, 0, 72, 110
2, 66816, Note_off_c, 0, 72, 64
2, 66840, Note_on_c, 0, 67, 110
2, 66840, Note_on_c, 0, 70, 110
2, 66864, Note_off_c, 0, 70, 64
2, 66870, Note_on_c, 0, 72, 110
2, 66894, Note_off_c, 0, 72, 64
2, 66900, Note_on_c, 0, 70, 110
2, 67152, Note_off_c, 0, 70, 64
2, 67200, Note_on_c, 0, 69, 110
2, 67224, Note_off_c, 0, 67, 64
2, 67296, Note_off_c, 0, 69, 64
2, 67320, Note_on_c, 0, 70, 110
2, 67320, Note_on_c, 0, 66, 110
2, 67344, Note_off_c, 0, 70, 64
2, 67350, Note_on_c, 0, 69, 110
2, 67374, Note_off_c, 0, 69, 64
2, 67380, Note_on_c, 0, 70, 110
2, 67404, Note_off_c, 0, 70, 64
2, 67410, Note_on_c, 0, 69, 110
2, 67434, Note_off_c, 0, 69, 64
2, 67440, Note_on_c, 0, 70, 110
2, 67464, Note_off_c, 0, 70, 64
2, 67470, Note_on_c, 0, 69, 110
2, 67494, Note_off_c, 0, 69, 64
2, 67500, Note_on_c, 0, 70, 110
2, 67524, Note_off_c, 0, 70, 64
2, 67530, Note_on_c, 0, 69, 110
2, 67554, Note_off_c, 0, 69, 64
2, 67560, Note_on_c, 0, 70, 110
2, 67584, Note_off_c, 0, 70, 64
2, 67590, Note_on_c, 0, 69, 110
2, 67668, Note_off_c, 0, 69, 64
2, 67680, Note_on_c, 0, 67, 110
2, 67704, Note_off_c, 0, 66, 64
2, 67776, Note_off_c, 0, 67, 64
2, 67800, Note_on_c, 0, 67, 110
2, 68520, Note_on_c, 0, 58, 110
2, 68520, Note_on_c, 0, 62, 110
2, 68904, Note_off_c, 0, 67, 64
2, 68904, Note_off_c, 0, 62, 64
2, 68904, Note_off_c, 0, 58, 64
2, 69120, Note_on_c, 0, 81, 107
2, 69216, Note_off_c, 0, 81, 64
2, 69240, Note_on_c, 0, 81, 107
2, 69360, Note_on_c, 0, 79, 107
2, 69456, Note_off_c, 0, 79, 64
2, 69480, Note_on_c, 0, 78, 107
2, 69576, Note_off_c, 0, 78, 64
2, 69600, Note_on_c, 0, 76, 107
2, 69624, Note_off_c, 0, 81, 64
2, 69696, Note_off_c, 0, 76, 64
2, 69720, Note_on_c, 0, 78, 107
2, 69720, Note_on_c, 0, 78, 107
2, 69900, Note_off_c, 0, 78, 64
2, 69912, Note_off_c, 0, 78, 64
2, 69960, Note_on_c, 0, 78, 107
2, 69960, Note_on_c, 0, 74, 107
2, 70140, Note_off_c, 0, 78, 64
2, 70152, Note_off_c, 0, 74, 64
2, 70200, Note_on_c, 0, 74, 107
2, 70200, Note_on_c, 0, 79, 107
2, 70488, Note_off_c, 0, 79, 64
2, 70560, Note_on_c, 0, 81, 107
2, 70656, Note_off_c, 0, 81, 64
2, 70680, Note_on_c, 0, 82, 107
2, 70968, Note_off_c, 0, 82, 64
2, 71040, Note_on_c, 0, 81, 107
2, 71064, Note_off_c, 0, 74, 64
2, 71136, Note_off_c, 0, 81, 64
2, 71160, Note_on_c, 0, 79, 107
2, 71256, Note_off_c, 0, 79, 64
2, 71280, Note_on_c, 0, 81, 107
2, 71376, Note_off_c, 0, 81, 64
2, 71400, Note_on_c, 0, 82, 107
2, 71496, Note_off_c, 0, 82, 64
2, 71520, Note_on_c, 0, 77, 107
2, 71616, Note_off_c, 0, 77, 64
2, 71640, Note_on_c, 0, 77, 107
2, 71736, Note_off_c, 0, 77, 64
2, 71760, Note_on_c, 0, 76, 107
2, 71856, Note_off_c, 0, 76, 64
2, 71880, Note_on_c, 0, 74, 107
2, 71976, Note_off_c, 0, 74, 64
2, 72000, Note_on_c, 0, 72, 107
2, 72096, Note_off_c, 0, 72, 64
2, 72120, Note_on_c, 0, 84, 107
2, 72408, Note_off_c, 0, 84, 64
2, 72480, Note_on_c, 0, 79, 107
2, 72576, Note_off_c, 0, 79, 64
2, 72600, Note_on_c, 0, 81, 107
2, 72696, Note_off_c, 0, 81, 64
2, 72720, Note_on_c, 0, 76, 107
2, 72816, Note_off_c, 0, 76, 64
2, 72840, Note_on_c, 0, 77, 107
2, 72936, Note_off_c, 0, 77, 64
2, 72960, Note_on_c, 0, 81, 107
2, 73056, Note_off_c, 0, 81, 64
2, 73080, Note_on_c, 0, 81, 107
2, 73080, Note_on_c, 0, 76, 107
2, 73104, Note_off_c, 0, 81, 64
2, 73110, Note_on_c, 0, 79, 107
2, 73134, Note_off_c, 0, 79, 64
2, 73140, Note_on_c, 0, 81, 107
2, 73164, Note_off_c, 0, 81, 64
2, 73170, Note_on_c, 0, 79, 107
2, 73194, Note_off_c, 0, 79, 64
2, 73200, Note_on_c, 0, 81, 107
2, 73224, Note_off_c, 0, 81, 64
2, 73230, Note_on_c, 0, 79, 107
2, 73254, Note_off_c, 0, 79, 64
2, 73260, Note_on_c, 0, 81, 107
2, 73284, Note_off_c, 0, 81, 64
2, 73290, Note_on_c, 0, 79, 107
2, 73314, Note_off_c, 0, 79, 64
2, 73320, Note_on_c, 0, 81, 107
2, 73344, Note_off_c, 0, 81, 64
2, 73350, Note_on_c, 0, 79, 107
2, 73428, Note_off_c, 0, 79, 64
2, 73440, Note_on_c, 0, 77, 107
2, 73464, Note_off_c, 0, 76, 64
2, 73488, Note_off_c, 0, 77, 64
2, 73500, Note_on_c, 0, 79, 107
2, 73548, Note_off_c, 0, 79, 64
2, 73560, Note_on_c, 0, 77, 107
2, 73560, Note_on_c, 0, 77, 107
2, 73944, Note_off_c, 0, 77, 64
2, 74136, Note_off_c, 0, 77, 64
2, 74160, Note_on_c, 0, 79, 107
2, 74256, Note_off_c, 0, 79, 64
2, 74280, Note_on_c, 0, 80, 107
2, 74376, Note_off_c, 0, 80, 64
2, 74400, Note_on_c, 0, 79, 107
2, 74496, Note_off_c, 0, 79, 64
2, 74520, Note_on_c, 0, 77, 107
2, 74616, Note_off_c, 0, 77, 64
2, 74640, Note_on_c, 0, 75, 107
2, 74736, Note_off_c, 0, 75, 64
2, 74760, Note_on_c, 0, 74, 107
2, 74856, Note_off_c, 0, 74, 64
2, 74880, Note_on_c, 0, 75, 107
2, 74976, Note_off_c, 0, 75, 64
2, 75000, Note_on_c, 0, 72, 107
2, 75096, Note_off_c, 0, 72, 64
2, 75120, Note_on_c, 0, 71, 107
2, 75216, Note_off_c, 0, 71, 64
2, 75240, Note_on_c, 0, 69, 107
2, 75336, Note_off_c, 0, 69, 64
2, 75360, Note_on_c, 0, 67, 107
2, 75456, Note_off_c, 0, 67, 64
2, 75480, Note_on_c, 0, 72, 107
2, 75576, Note_off_c, 0, 72, 64
2, 75600, Note_on_c, 0, 71, 107
2, 75696, Note_off_c, 0, 71, 64
2, 75720, Note_on_c, 0, 72, 107
2, 75816, Note_off_c, 0, 72, 64
2, 75840, Note_on_c, 0, 75, 107
2, 75936, Note_off_c, 0, 75, 64
2, 75960, Note_on_c, 0, 74, 107
2, 76056, Note_off_c, 0, 74, 64
2, 76080, Note_on_c, 0, 75, 107
2, 76176, Note_off_c, 0, 75, 64
2, 76200, Note_on_c, 0, 77, 107
2, 76296, Note_off_c, 0, 77, 64
2, 76320, Note_on_c, 0, 74, 107
2, 76416, Note_off_c, 0, 74, 64
2, 76440, Note_on_c, 0, 77, 107
2, 76536, Note_off_c, 0, 77, 64
2, 76560, Note_on_c, 0, 75, 107
2, 76656, Note_off_c, 0, 75, 64
2, 76680, Note_on_c, 0, 74, 107
2, 76776, Note_off_c, 0, 74, 64
2, 76800, Note_on_c, 0, 72, 107
2, 76896, Note_off_c, 0, 72, 64
2, 76920, Note_on_c, 0, 74, 107
2, 77016, Note_off_c, 0, 74, 64
2, 77040, Note_on_c, 0, 76, 107
2, 77136, Note_off_c, 0, 76, 64
2, 77160, Note_on_c, 0, 77, 107
2, 77256, Note_off_c, 0, 77, 64
2, 77280, Note_on_c, 0, 79, 107
2, 77376, Note_off_c, 0, 79, 64
2, 77400, Note_on_c, 0, 80, 107
2, 77424, Note_off_c, 0, 80, 64
2, 77430, Note_on_c, 0, 79, 107
2, 77454, Note_off_c, 0, 79, 64
2, 77460, Note_on_c, 0, 80, 107
2, 77484, Note_off_c, 0, 80, 64
2, 77490, Note_on_c, 0, 79, 107
2, 77514, Note_off_c, 0, 79, 64
2, 77520, Note_on_c, 0, 80, 107
2, 77544, Note_off_c, 0, 80, 64
2, 77550, Note_on_c, 0, 79, 107
2, 77574, Note_off_c, 0, 79, 64
2, 77580, Note_on_c, 0, 80, 107
2, 77604, Note_off_c, 0, 80, 64
2, 77610, Note_on_c, 0, 79, 107
2, 77634, Note_off_c, 0, 79, 64
2, 77640, Note_on_c, 0, 80, 107
2, 77664, Note_off_c, 0, 80, 64
2, 77670, Note_on_c, 0, 79, 107
2, 77748, Note_off_c, 0, 79, 64
2, 77760, Note_on_c, 0, 77, 107
2, 77808, Note_off_c, 0, 77, 64
2, 77820, Note_on_c, 0, 79, 107
2, 77868, Note_off_c, 0, 79, 64
2, 77880, Note_on_c, 0, 80, 107
2, 78168, Note_off_c, 0, 80, 64
2, 78240, Note_on_c, 0, 71, 107
2, 78336, Note_off_c, 0, 71, 64
2, 78360, Note_on_c, 0, 72, 107
2, 78389, Note_off_c, 0, 72, 64
2, 78390, Note_on_c, 0, 71, 107
2, 78414, Note_off_c, 0, 71, 64
2, 78420, Note_on_c, 0, 69, 107
2, 78444, Note_off_c, 0, 69, 64
2, 78450, Note_on_c, 0, 71, 107
2, 78474, Note_off_c, 0, 71, 64
2, 78480, Note_on_c, 0, 72, 107
2, 78672, Note_off_c, 0, 72, 64
2, 78720, Note_on_c, 0, 74, 107
2, 78816, Note_off_c, 0, 74, 64
2, 78840, Note_on_c, 0, 71, 107
2, 78840, Note_on_c, 0, 75, 107
2, 78869, Note_off_c, 0, 75, 64
2, 78870, Note_on_c, 0, 74, 107
2, 78899, Note_off_c, 0, 74, 64
2, 78900, Note_on_c, 0, 75, 107
2, 78929, Note_off_c, 0, 75, 64
2, 78930, Note_on_c, 0, 74, 107
2, 78959, Note_off_c, 0, 74, 64
2, 78960, Note_on_c, 0, 75, 107
2, 78989, Note_off_c, 0, 75, 64
2, 78990, Note_on_c, 0, 74, 107
2, 79019, Note_off_c, 0, 74, 64
2, 79020, Note_on_c, 0, 75, 107
2, 79049, Note_off_c, 0, 75, 64
2, 79050, Note_on_c, 0, 74, 107
2, 79079, Note_off_c, 0, 74, 64
2, 79080, Note_on_c, 0, 75, 107
2, 79109, Note_off_c, 0, 75, 64
2, 79110, Note_on_c, 0, 74, 107
2, 79188, Note_off_c, 0, 74, 64
2, 79200, Note_on_c, 0, 72, 107
2, 79224, Note_off_c, 0, 71, 64
2, 79296, Note_off_c, 0, 72, 64
2, 79320, Note_on_c, 0, 72, 107
2, 79320, Note_on_c, 0, 72, 107
2, 79704, Note_off_c, 0, 72, 64
2, 79896, Note_off_c, 0, 72, 64
2, 79920, Note_on_c, 0, 74, 107
2, 80016, Note_off_c, 0, 74, 64
2, 80040, Note_on_c, 0, 75, 107
2, 80136, Note_off_c, 0, 75, 64
2, 80160, Note_on_c, 0, 74, 107
2, 80256, Note_off_c, 0, 74, 64
2, 80280, Note_on_c, 0, 72, 107
2, 80376, Note_off_c, 0, 72, 64
2, 80400, Note_on_c, 0, 70, 107
2, 80496, Note_off_c, 0, 70, 64
2, 80520, Note_on_c, 0, 69, 107
2, 80616, Note_off_c, 0, 69, 64
2, 80640, Note_on_c, 0, 70, 107
2, 80736, Note_off_c, 0, 70, 64
2, 80760, Note_on_c, 0, 70, 110
2, 80856, Note_off_c, 0, 70, 64
2, 80880, Note_on_c, 0, 69, 110
2, 80976, Note_off_c, 0, 69, 64
2, 81000, Note_on_c, 0, 67, 110
2, 81096, Note_off_c, 0, 67, 64
2, 81120, Note_on_c, 0, 65, 110
2, 81216, Note_off_c, 0, 65, 64
2, 81240, Note_on_c, 0, 67, 110
2, 81336, Note_off_c, 0, 67, 64
2, 81360, Note_on_c, 0, 69, 110
2, 81456, Note_off_c, 0, 69, 64
2, 81480, Note_on_c, 0, 70, 110
2, 81576, Note_off_c, 0, 70, 64
2, 81600, Note_on_c, 0, 72, 110
2, 81696, Note_off_c, 0, 72, 64
2, 81720, Note_on_c, 0, 74, 110
2, 81744, Note_off_c, 0, 74, 64
2, 81750, Note_on_c, 0, 72, 110
2, 81774, Note_off_c, 0, 72, 64
2, 81780, Note_on_c, 0, 74, 110
2, 81804, Note_off_c, 0, 74, 64
2, 81810, Note_on_c, 0, 72, 110
2, 81834, Note_off_c, 0, 72, 64
2, 81840, Note_on_c, 0, 74, 110
2, 81864, Note_off_c, 0, 74, 64
2, 81870, Note_on_c, 0, 72, 110
2, 81894, Note_off_c, 0, 72, 64
2, 81900, Note_on_c, 0, 74, 110
2, 81924, Note_off_c, 0, 74, 64
2, 81930, Note_on_c, 0, 72, 110
2, 81954, Note_off_c, 0, 72, 64
2, 81960, Note_on_c, 0, 74, 110
2, 81984, Note_off_c, 0, 74, 64
2, 81990, Note_on_c, 0, 72, 110
2, 82068, Note_off_c, 0, 72, 64
2, 82080, Note_on_c, 0, 70, 110
2, 82128, Note_off_c, 0, 70, 64
2, 82140, Note_on_c, 0, 72, 110
2, 82188, Note_off_c, 0, 72, 64
2, 82200, Note_on_c, 0, 74, 127
2, 82320, Note_on_c, 0, 72, 110
2, 82416, Note_off_c, 0, 72, 64
2, 82440, Note_on_c, 0, 70, 110
2, 82536, Note_off_c, 0, 70, 64
2, 82560, Note_on_c, 0, 69, 110
2, 82656, Note_off_c, 0, 69, 64
2, 82680, Note_on_c, 0, 70, 110
2, 82776, Note_off_c, 0, 70, 64
2, 82800, Note_on_c, 0, 67, 110
2, 82896, Note_off_c, 0, 67, 64
2, 82920, Note_on_c, 0, 69, 110
2, 82968, Note_off_c, 0, 74, 64
2, 83016, Note_off_c, 0, 69, 64
2, 83040, Note_on_c, 0, 70, 110
2, 83136, Note_off_c, 0, 70, 64
2, 83160, Note_on_c, 0, 64, 110
2, 83280, Note_on_c, 0, 67, 110
2, 83376, Note_off_c, 0, 67, 64
2, 83400, Note_on_c, 0, 69, 110
2, 83496, Note_off_c, 0, 69, 64
2, 83520, Note_on_c, 0, 70, 110
2, 83544, Note_off_c, 0, 64, 64
2, 83616, Note_off_c, 0, 70, 64
2, 83640, Note_on_c, 0, 72, 127
2, 83760, Note_on_c, 0, 70, 110
2, 83856, Note_off_c, 0, 70, 64
2, 83880, Note_on_c, 0, 69, 110
2, 83976, Note_off_c, 0, 69, 64
2, 84000, Note_on_c, 0, 67, 110
2, 84096, Note_off_c, 0, 67, 64
2, 84120, Note_on_c, 0, 69, 110
2, 84216, Note_off_c, 0, 69, 64
2, 84240, Note_on_c, 0, 66, 110
2, 84336, Note_off_c, 0, 66, 64
2, 84360, Note_on_c, 0, 67, 110
2, 84456, Note_off_c, 0, 67, 64
2, 84480, Note_on_c, 0, 69, 110
2, 84576, Note_off_c, 0, 69, 64
2, 84600, Note_on_c, 0, 62, 110
2, 84696, Note_off_c, 0, 72, 64
2, 84720, Note_on_c, 0, 72, 110
2, 84816, Note_off_c, 0, 72, 64
2, 84840, Note_on_c, 0, 70, 110
2, 84936, Note_off_c, 0, 70, 64
2, 84960, Note_on_c, 0, 69, 110
2, 84984, Note_off_c, 0, 62, 64
2, 85056, Note_off_c, 0, 69, 64
2, 85080, Note_on_c, 0, 70, 110
2, 85200, Note_on_c, 0, 69, 110
2, 85296, Note_off_c, 0, 69, 64
2, 85320, Note_on_c, 0, 67, 110
2, 85416, Note_off_c, 0, 67, 64
2, 85440, Note_on_c, 0, 66, 110
2, 85536, Note_off_c, 0, 66, 64
2, 85560, Note_on_c, 0, 67, 110
2, 85656, Note_off_c, 0, 67, 64
2, 85680, Note_on_c, 0, 63, 110
2, 85776, Note_off_c, 0, 63, 64
2, 85800, Note_on_c, 0, 65, 110
2, 85848, Note_off_c, 0, 70, 64
2, 85896, Note_off_c, 0, 65, 64
2, 85920, Note_on_c, 0, 70, 110
2, 85920, Note_on_c, 0, 67, 110
2, 86016, Note_off_c, 0, 67, 64
2, 86016, Note_off_c, 0, 70, 64
2, 86040, Note_on_c, 0, 61, 110
2, 86040, Note_on_c, 0, 70, 110
2, 86064, Note_off_c, 0, 61, 64
2, 86070, Note_on_c, 0, 62, 110
2, 86094, Note_off_c, 0, 62, 64
2, 86100, Note_on_c, 0, 61, 110
2, 86136, Note_off_c, 0, 70, 64
2, 86160, Note_on_c, 0, 69, 110
2, 86256, Note_off_c, 0, 69, 64
2, 86280, Note_on_c, 0, 70, 110
2, 86376, Note_off_c, 0, 70, 64
2, 86400, Note_on_c, 0, 67, 110
2, 86448, Note_off_c, 0, 61, 64
2, 86496, Note_off_c, 0, 67, 64
2, 86520, Note_on_c, 0, 66, 110
2, 86520, Note_on_c, 0, 62, 110
2, 86544, Note_off_c, 0, 66, 64
2, 86550, Note_on_c, 0, 67, 110
2, 86574, Note_off_c, 0, 67, 64
2, 86580, Note_on_c, 0, 66, 110
2, 87144, Note_off_c, 0, 66, 64
2, 87240, Note_on_c, 0, 67, 110
2, 87336, Note_off_c, 0, 67, 64
2, 87360, Note_on_c, 0, 69, 110
2, 87456, Note_off_c, 0, 69, 64
2, 87480, Note_on_c, 0, 67, 110
2, 87576, Note_off_c, 0, 67, 64
2, 87600, Note_on_c, 0, 65, 110
2, 87696, Note_off_c, 0, 65, 64
2, 87720, Note_on_c, 0, 63, 110
2, 87816, Note_off_c, 0, 63, 64
2, 87840, Note_on_c, 0, 62, 110
2, 87936, Note_off_c, 0, 62, 64
2, 87960, Note_on_c, 0, 63, 110
2, 88056, Note_off_c, 0, 62, 64
2, 88080, Note_on_c, 0, 58, 110
2, 88176, Note_off_c, 0, 58, 64
2, 88200, Note_on_c, 0, 57, 110
2, 88296, Note_off_c, 0, 57, 64
2, 88320, Note_on_c, 0, 55, 110
2, 88344, Note_off_c, 0, 63, 64
2, 88416, Note_off_c, 0, 55, 64
2, 88440, Note_on_c, 0, 60, 110
2, 88536, Note_off_c, 0, 60, 64
2, 88560, Note_on_c, 0, 63, 110
2, 88656, Note_off_c, 0, 63, 64
2, 88680, Note_on_c, 0, 67, 110
2, 88776, Note_off_c, 0, 67, 64
2, 88800, Note_on_c, 0, 70, 110
2, 88896, Note_off_c, 0, 70, 64
2, 88920, Note_on_c, 0, 69, 110
2, 89016, Note_off_c, 0, 69, 64
2, 89040, Note_on_c, 0, 66, 110
2, 89136, Note_off_c, 0, 66, 64
2, 89160, Note_on_c, 0, 67, 110
2, 89256, Note_off_c, 0, 67, 64
2, 89280, Note_on_c, 0, 69, 110
2, 89376, Note_off_c, 0, 69, 64
2, 89400, Note_on_c, 0, 62, 110
2, 89496, Note_off_c, 0, 62, 64
2, 89520, Note_on_c, 0, 66, 110
2, 89616, Note_off_c, 0, 66, 64
2, 89640, Note_on_c, 0, 69, 110
2, 89736, Note_off_c, 0, 69, 64
2, 89760, Note_on_c, 0, 72, 110
2, 89856, Note_off_c, 0, 72, 64
2, 89880, Note_on_c, 0, 67, 110
2, 89880, Note_on_c, 0, 70, 110
2, 89904, Note_off_c, 0, 70, 64
2, 89910, Note_on_c, 0, 72, 110
2, 89934, Note_off_c, 0, 72, 64
2, 89940, Note_on_c, 0, 70, 110
2, 90192, Note_off_c, 0, 70, 64
2, 90240, Note_on_c, 0, 69, 110
2, 90264, Note_off_c, 0, 67, 64
2, 90336, Note_off_c, 0, 69, 64
2, 90360, Note_on_c, 0, 70, 110
2, 90360, Note_on_c, 0, 66, 110
2, 90384, Note_off_c, 0, 70, 64
2, 90390, Note_on_c, 0, 69, 110
2, 90414, Note_off_c, 0, 69, 64
2, 90420, Note_on_c, 0, 70, 110
2, 90444, Note_off_c, 0, 70, 64
2, 90450, Note_on_c, 0, 69, 110
2, 90474, Note_off_c, 0, 69, 64
2, 90480, Note_on_c, 0, 70, 110
2, 90504, Note_off_c, 0, 70, 64
2, 90510, Note_on_c, 0, 69, 110
2, 90534, Note_off_c, 0, 69, 64
2, 90540, Note_on_c, 0, 70, 110
2, 90564, Note_off_c, 0, 70, 64
2, 90570, Note_on_c, 0, 69, 110
2, 90594, Note_off_c, 0, 69, 64
2, 90600, Note_on_c, 0, 70, 110
2, 90624, Note_off_c, 0, 70, 64
2, 90630, Note_on_c, 0, 69, 110
2, 90708, Note_off_c, 0, 69, 64
2, 90720, Note_on_c, 0, 67, 110
2, 90744, Note_off_c, 0, 66, 64
2, 90816, Note_off_c, 0, 67, 64
2, 90840, Note_on_c, 0, 67, 110
2, 91560, Note_on_c, 0, 58, 110
2, 91560, Note_on_c, 0, 62, 110
2, 91944, Note_off_c, 0, 67, 64
2, 91944, Note_off_c, 0, 62, 64
2, 91944, Note_off_c, 0, 58, 64
2, 91944, End_track
3, 0, Start_track
3, 0, Title_t, "J.S. Bach, Edition Wood"
3, 0, Program_c, 1, 0
3, 120, Note_on_c, 1, 55, 107
3, 696, Note_off_c, 1, 55, 64
3, 720, Note_on_c, 1, 54, 107
3, 816, Note_off_c, 1, 54, 64
3, 840, Note_on_c, 1, 55, 107
3, 936, Note_off_c, 1, 55, 64
3, 960, Note_on_c, 1, 50, 107
3, 1056, Note_off_c, 1, 50, 64
3, 1080, Note_on_c, 1, 51, 107
3, 1176, Note_off_c, 1, 51, 64
3, 1200, Note_on_c, 1, 48, 107
3, 1296, Note_off_c, 1, 48, 64
3, 1320, Note_on_c, 1, 50, 107
3, 1416, Note_off_c, 1, 50, 64
3, 1440, Note_on_c, 1, 51, 107
3, 1536, Note_off_c, 1, 51, 64
3, 1560, Note_on_c, 1, 42, 107
3, 1944, Note_off_c, 1, 42, 64
3, 2160, Note_on_c, 1, 57, 107
3, 2256, Note_off_c, 1, 57, 64
3, 2280, Note_on_c, 1, 58, 107
3, 2376, Note_off_c, 1, 58, 64
3, 2400, Note_on_c, 1, 60, 107
3, 2496, Note_off_c, 1, 60, 64
3, 2520, Note_on_c, 1, 54, 107
3, 2616, Note_off_c, 1, 54, 64
3, 2640, Note_on_c, 1, 55, 107
3, 2736, Note_off_c, 1, 55, 64
3, 2760, Note_on_c, 1, 57, 107
3, 2856, Note_off_c, 1, 57, 64
3, 2880, Note_on_c, 1, 50, 107
3, 2976, Note_off_c, 1, 50, 64
3, 3000, Note_on_c, 1, 55, 107
3, 3180, Note_off_c, 1, 55, 64
3, 3240, Note_on_c, 1, 50, 107
3, 3420, Note_off_c, 1, 50, 64
3, 3480, Note_on_c, 1, 51, 107
3, 3660, Note_off_c, 1, 51, 64
3, 3720, Note_on_c, 1, 55, 107
3, 3900, Note_off_c, 1, 55, 64
3, 3960, Note_on_c, 1, 48, 107
3, 4140, Note_off_c, 1, 48, 64
3, 4200, Note_on_c, 1, 51, 107
3, 4380, Note_off_c, 1, 51, 64
3, 4440, Note_on_c, 1, 50, 107
3, 4728, Note_off_c, 1, 50, 64
3, 4800, Note_on_c, 1, 48, 107
3, 4896, Note_off_c, 1, 48, 64
3, 4920, Note_on_c, 1, 46, 107
3, 5016, Note_off_c, 1, 46, 64
3, 5040, Note_on_c, 1, 45, 107
3, 5136, Note_off_c, 1, 45, 64
3, 5160, Note_on_c, 1, 46, 107
3, 5256, Note_off_c, 1, 46, 64
3, 5280, Note_on_c, 1, 43, 107
3, 5376, Note_off_c, 1, 43, 64
3, 5400, Note_on_c, 1, 50, 107
3, 5580, Note_off_c, 1, 50, 64
3, 5640, Note_on_c, 1, 38, 107
3, 5832, Note_off_c, 1, 38, 64
3, 5880, Note_on_c, 1, 43, 107
3, 6120, Note_on_c, 1, 46, 107
3, 6312, Note_off_c, 1, 46, 64
3, 6360, Note_on_c, 1, 50, 107
3, 6456, Note_off_c, 1, 43, 64
3, 6552, Note_off_c, 1, 50, 64
3, 6600, Note_on_c, 1, 55, 107
3, 6792, Note_off_c, 1, 55, 64
3, 6840, Note_on_c, 1, 53, 107
3, 7032, Note_off_c, 1, 53, 64
3, 7080, Note_on_c, 1, 51, 107
3, 7272, Note_off_c, 1, 51, 64
3, 7320, Note_on_c, 1, 50, 107
3, 7416, Note_off_c, 1, 50, 64
3, 7440, Note_on_c, 1, 53, 107
3, 7536, Note_off_c, 1, 53, 64
3, 7560, Note_on_c, 1, 55, 107
3, 7656, Note_off_c, 1, 55, 64
3, 7680, Note_on_c, 1, 57, 107
3, 7776, Note_off_c, 1, 57, 64
3, 7800, Note_on_c, 1, 58, 107
3, 7896, Note_off_c, 1, 58, 64
3, 7920, Note_on_c, 1, 57, 107
3, 8016, Note_off_c, 1, 57, 64
3, 8040, Note_on_c, 1, 58, 107
3, 8136, Note_off_c, 1, 58, 64
3, 8160, Note_on_c, 1, 60, 107
3, 8256, Note_off_c, 1, 60, 64
3, 8280, Note_on_c, 1, 62, 107
3, 8460, Note_off_c, 1, 62, 64
3, 8520, Note_on_c, 1, 58, 107
3, 8700, Note_off_c, 1, 58, 64
3, 8760, Note_on_c, 1, 63, 107
3, 8856, Note_off_c, 1, 63, 64
3, 8880, Note_on_c, 1, 65, 107
3, 8976, Note_off_c, 1, 65, 64
3, 9000, Note_on_c, 1, 63, 107
3, 9096, Note_off_c, 1, 63, 64
3, 9120, Note_on_c, 1, 62, 107
3, 9216, Note_off_c, 1, 62, 64
3, 9240, Note_on_c, 1, 60, 107
3, 9420, Note_off_c, 1, 60, 64
3, 9480, Note_on_c, 1, 62, 107
3, 9660, Note_off_c, 1, 62, 64
3, 9720, Note_on_c, 1, 63, 107
3, 9900, Note_off_c, 1, 63, 64
3, 9960, Note_on_c, 1, 60, 107
3, 10140, Note_off_c, 1, 60, 64
3, 10200, Note_on_c, 1, 65, 107
3, 10380, Note_off_c, 1, 65, 64
3, 10440, Note_on_c, 1, 63, 107
3, 10620, Note_off_c, 1, 63, 64
3, 10680, Note_on_c, 1, 62, 107
3, 10872, Note_off_c, 1, 62, 64
3, 10920, Note_on_c, 1, 60, 107
3, 11016, Note_off_c, 1, 60, 64
3, 11040, Note_on_c, 1, 58, 107
3, 11136, Note_off_c, 1, 58, 64
3, 11160, Note_on_c, 1, 65, 107
3, 11340, Note_off_c, 1, 65, 64
3, 11400, Note_on_c, 1, 53, 107
3, 11580, Note_off_c, 1, 53, 64
3, 11640, Note_on_c, 1, 58, 107
3, 11832, Note_off_c, 1, 58, 64
3, 11880, Note_on_c, 1, 46, 107
3, 11976, Note_off_c, 1, 46, 64
3, 12000, Note_on_c, 1, 45, 107
3, 12096, Note_off_c, 1, 45, 64
3, 12120, Note_on_c, 1, 43, 107
3, 12216, Note_off_c, 1, 43, 64
3, 12240, Note_on_c, 1, 42, 107
3, 12336, Note_off_c, 1, 42, 64
3, 12360, Note_on_c, 1, 43, 107
3, 12456, Note_off_c, 1, 43, 64
3, 12480, Note_on_c, 1, 45, 107
3, 12576, Note_off_c, 1, 45, 64
3, 12600, Note_on_c, 1, 46, 107
3, 12780, Note_off_c, 1, 46, 64
3, 12840, Note_on_c, 1, 43, 107
3, 13020, Note_off_c, 1, 43, 64
3, 13080, Note_on_c, 1, 48, 107
3, 13176, Note_off_c, 1, 48, 64
3, 13200, Note_on_c, 1, 47, 107
3, 13296, Note_off_c, 1, 47, 64
3, 13320, Note_on_c, 1, 48, 107
3, 13416, Note_off_c, 1, 48, 64
3, 13440, Note_on_c, 1, 50, 107
3, 13536, Note_off_c, 1, 50, 64
3, 13560, Note_on_c, 1, 51, 107
3, 13740, Note_off_c, 1, 51, 64
3, 13800, Note_on_c, 1, 50, 107
3, 13980, Note_off_c, 1, 50, 64
3, 14040, Note_on_c, 1, 48, 107
3, 14220, Note_off_c, 1, 48, 64
3, 14280, Note_on_c, 1, 45, 107
3, 14460, Note_off_c, 1, 45, 64
3, 14520, Note_on_c, 1, 50, 107
3, 14904, Note_off_c, 1, 50, 64
3, 15360, Note_on_c, 1, 60, 107
3, 15456, Note_off_c, 1, 60, 64
3, 15480, Note_on_c, 1, 58, 107
3, 15576, Note_off_c, 1, 58, 64
3, 15600, Note_on_c, 1, 60, 107
3, 15696, Note_off_c, 1, 60, 64
3, 15720, Note_on_c, 1, 62, 107
3, 15816, Note_off_c, 1, 62, 64
3, 15840, Note_on_c, 1, 54, 107
3, 15936, Note_off_c, 1, 54, 64
3, 15960, Note_on_c, 1, 55, 107
3, 16056, Note_off_c, 1, 55, 64
3, 16080, Note_on_c, 1, 57, 107
3, 16176, Note_off_c, 1, 57, 64
3, 16200, Note_on_c, 1, 58, 107
3, 16296, Note_off_c, 1, 58, 64
3, 16320, Note_on_c, 1, 50, 107
3, 16416, Note_off_c, 1, 50, 64
3, 16440, Note_on_c, 1, 51, 107
3, 16536, Note_off_c, 1, 51, 64
3, 16560, Note_on_c, 1, 53, 107
3, 16656, Note_off_c, 1, 53, 64
3, 16680, Note_on_c, 1, 55, 107
3, 16776, Note_off_c, 1, 55, 64
3, 16800, Note_on_c, 1, 48, 107
3, 16896, Note_off_c, 1, 48, 64
3, 16920, Note_on_c, 1, 47, 107
3, 17016, Note_off_c, 1, 47, 64
3, 17040, Note_on_c, 1, 48, 107
3, 17136, Note_off_c, 1, 48, 64
3, 17160, Note_on_c, 1, 50, 107
3, 17256, Note_off_c, 1, 50, 64
3, 17280, Note_on_c, 1, 43, 107
3, 17376, Note_off_c, 1, 43, 64
3, 17400, Note_on_c, 1, 48, 107
3, 17784, Note_off_c, 1, 48, 64
3, 18000, Note_on_c, 1, 69, 107
3, 18096, Note_off_c, 1, 69, 64
3, 18120, Note_on_c, 1, 70, 107
3, 18216, Note_off_c, 1, 70, 64
3, 18240, Note_on_c, 1, 72, 107
3, 18336, Note_off_c, 1, 72, 64
3, 18360, Note_on_c, 1, 66, 107
3, 18456, Note_off_c, 1, 66, 64
3, 18480, Note_on_c, 1, 67, 107
3, 18576, Note_off_c, 1, 67, 64
3, 18600, Note_on_c, 1, 69, 107
3, 18696, Note_off_c, 1, 69, 64
3, 18720, Note_on_c, 1, 62, 107
3, 18816, Note_off_c, 1, 62, 64
3, 18840, Note_on_c, 1, 67, 107
3, 18936, Note_off_c, 1, 67, 64
3, 18960, Note_on_c, 1, 65, 107
3, 19056, Note_off_c, 1, 65, 64
3, 19080, Note_on_c, 1, 64, 107
3, 19176, Note_off_c, 1, 64, 64
3, 19200, Note_on_c, 1, 62, 107
3, 19296, Note_off_c, 1, 62, 64
3, 19320, Note_on_c, 1, 64, 107
3, 19416, Note_off_c, 1, 64, 64
3, 19440, Note_on_c, 1, 61, 107
3, 19536, Note_off_c, 1, 61, 64
3, 19560, Note_on_c, 1, 62, 107
3, 19656, Note_off_c, 1, 62, 64
3, 19680, Note_on_c, 1, 64, 107
3, 19776, Note_off_c, 1, 64, 64
3, 19800, Note_on_c, 1, 57, 107
3, 19896, Note_off_c, 1, 57, 64
3, 19920, Note_on_c, 1, 59, 107
3, 20016, Note_off_c, 1, 59, 64
3, 20040, Note_on_c, 1, 61, 107
3, 20136, Note_off_c, 1, 61, 64
3, 20160, Note_on_c, 1, 55, 107
3, 20256, Note_off_c, 1, 55, 64
3, 20280, Note_on_c, 1, 53, 107
3, 20400, Note_on_c, 1, 57, 107
3, 20496, Note_off_c, 1, 57, 64
3, 20520, Note_on_c, 1, 59, 107
3, 20616, Note_off_c, 1, 59, 64
3, 20640, Note_on_c, 1, 61, 107
3, 20736, Note_off_c, 1, 61, 64
3, 20760, Note_on_c, 1, 62, 107
3, 20856, Note_off_c, 1, 53, 64
3, 21000, Note_on_c, 1, 55, 107
3, 21144, Note_off_c, 1, 62, 64
3, 21192, Note_off_c, 1, 55, 64
3, 21240, Note_on_c, 1, 57, 107
3, 21240, Note_on_c, 1, 57, 107
3, 21432, Note_off_c, 1, 57, 64
3, 21480, Note_on_c, 1, 45, 107
3, 21624, Note_off_c, 1, 57, 64
3, 21672, Note_off_c, 1, 45, 64
3, 21720, Note_on_c, 1, 50, 107
3, 21960, Note_on_c, 1, 38, 107
3, 22104, Note_off_c, 1, 50, 64
3, 22200, Note_on_c, 1, 45, 107
3, 22392, Note_off_c, 1, 45, 64
3, 22440, Note_on_c, 1, 50, 107
3, 22824, Note_off_c, 1, 38, 64
3, 22824, Note_off_c, 1, 50, 64
3, 23160, Note_on_c, 1, 55, 107
3, 23736, Note_off_c, 1, 55, 64
3, 23760, Note_on_c, 1, 54, 107
3, 23856, Note_off_c, 1, 54, 64
3, 23880, Note_on_c, 1, 55, 107
3, 23976, Note_off_c, 1, 55, 64
3, 24000, Note_on_c, 1, 50, 107
3, 24096, Note_off_c, 1, 50, 64
3, 24120, Note_on_c, 1, 51, 107
3, 24216, Note_off_c, 1, 51, 64
3, 24240, Note_on_c, 1, 48, 107
3, 24336, Note_off_c, 1, 48, 64
3, 24360, Note_on_c, 1, 50, 107
3, 24456, Note_off_c, 1, 50, 64
3, 24480, Note_on_c, 1, 51, 107
3, 24576, Note_off_c, 1, 51, 64
3, 24600, Note_on_c, 1, 42, 107
3, 24984, Note_off_c, 1, 42, 64
3, 25200, Note_on_c, 1, 57, 107
3, 25296, Note_off_c, 1, 57, 64
3, 25320, Note_on_c, 1, 58, 107
3, 25416, Note_off_c, 1, 58, 64
3, 25440, Note_on_c, 1, 60, 107
3, 25536, Note_off_c, 1, 60, 64
3, 25560, Note_on_c, 1, 54, 107
3, 25656, Note_off_c, 1, 54, 64
3, 25680, Note_on_c, 1, 55, 107
3, 25776, Note_off_c, 1, 55, 64
3, 25800, Note_on_c, 1, 57, 107
3, 25896, Note_off_c, 1, 57, 64
3, 25920, Note_on_c, 1, 50, 107
3, 26016, Note_off_c, 1, 50, 64
3, 26040, Note_on_c, 1, 55, 107
3, 26220, Note_off_c, 1, 55, 64
3, 26280, Note_on_c, 1, 50, 107
3, 26460, Note_off_c, 1, 50, 64
3, 26520, Note_on_c, 1, 51, 107
3, 26700, Note_off_c, 1, 51, 64
3, 26760, Note_on_c, 1, 55, 107
3, 26940, Note_off_c, 1, 55, 64
3, 27000, Note_on_c, 1, 48, 107
3, 27180, Note_off_c, 1, 48, 64
3, 27240, Note_on_c, 1, 51, 107
3, 27420, Note_off_c, 1, 51, 64
3, 27480, Note_on_c, 1, 50, 107
3, 27768, Note_off_c, 1, 50, 64
3, 27840, Note_on_c, 1, 48, 107
3, 27936, Note_off_c, 1, 48, 64
3, 27960, Note_on_c, 1, 46, 107
3, 28056, Note_off_c, 1, 46, 64
3, 28080, Note_on_c, 1, 45, 107
3, 28176, Note_off_c, 1, 45, 64
3, 28200, Note_on_c, 1, 46, 107
3, 28296, Note_off_c, 1, 46, 64
3, 28320, Note_on_c, 1, 43, 107
3, 28416, Note_off_c, 1, 43, 64
3, 28440, Note_on_c, 1, 50, 107
3, 28620, Note_off_c, 1, 50, 64
3, 28680, Note_on_c, 1, 38, 107
3, 28872, Note_off_c, 1, 38, 64
3, 28920, Note_on_c, 1, 43, 107
3, 29160, Note_on_c, 1, 46, 107
3, 29352, Note_off_c, 1, 46, 64
3, 29400, Note_on_c, 1, 50, 107
3, 29496, Note_off_c, 1, 43, 64
3, 29592, Note_off_c, 1, 50, 64
3, 29640, Note_on_c, 1, 55, 107
3, 29832, Note_off_c, 1, 55, 64
3, 29880, Note_on_c, 1, 53, 107
3, 30072, Note_off_c, 1, 53, 64
3, 30120, Note_on_c, 1, 51, 107
3, 30312, Note_off_c, 1, 51, 64
3, 30360, Note_on_c, 1, 50, 107
3, 30456, Note_off_c, 1, 50, 64
3, 30480, Note_on_c, 1, 53, 107
3, 30576, Note_off_c, 1, 53, 64
3, 30600, Note_on_c, 1, 55, 107
3, 30696, Note_off_c, 1, 55, 64
3, 30720, Note_on_c, 1, 57, 107
3, 30816, Note_off_c, 1, 57, 64
3, 30840, Note_on_c, 1, 58, 107
3, 30936, Note_off_c, 1, 58, 64
3, 30960, Note_on_c, 1, 57, 107
3, 31056, Note_off_c, 1, 57, 64
3, 31080, Note_on_c, 1, 58, 107
3, 31176, Note_off_c, 1, 58, 64
3, 31200, Note_on_c, 1, 60, 107
3, 31296, Note_off_c, 1, 60, 64
3, 31320, Note_on_c, 1, 62, 107
3, 31500, Note_off_c, 1, 62, 64
3, 31560, Note_on_c, 1, 58, 107
3, 31740, Note_off_c, 1, 58, 64
3, 31800, Note_on_c, 1, 63, 107
3, 31896, Note_off_c, 1, 63, 64
3, 31920, Note_on_c, 1, 65, 107
3, 32016, Note_off_c, 1, 65, 64
3, 32040, Note_on_c, 1, 63, 107
3, 32136, Note_off_c, 1, 63, 64
3, 32160, Note_on_c, 1, 62, 107
3, 32256, Note_off_c, 1, 62, 64
3, 32280, Note_on_c, 1, 60, 107
3, 32460, Note_off_c, 1, 60, 64
3, 32520, Note_on_c, 1, 62, 107
3, 32700, Note_off_c, 1, 62, 64
3, 32760, Note_on_c, 1, 63, 107
3, 32940, Note_off_c, 1, 63, 64
3, 33000, Note_on_c, 1, 60, 107
3, 33180, Note_off_c, 1, 60, 64
3, 33240, Note_on_c, 1, 65, 107
3, 33420, Note_off_c, 1, 65, 64
3, 33480, Note_on_c, 1, 63, 107
3, 33660, Note_off_c, 1, 63, 64
3, 33720, Note_on_c, 1, 62, 107
3, 33912, Note_off_c, 1, 62, 64
3, 33960, Note_on_c, 1, 60, 107
3, 34056, Note_off_c, 1, 60, 64
3, 34080, Note_on_c, 1, 58, 107
3, 34176, Note_off_c, 1, 58, 64
3, 34200, Note_on_c, 1, 65, 107
3, 34380, Note_off_c, 1, 65, 64
3, 34440, Note_on_c, 1, 53, 107
3, 34620, Note_off_c, 1, 53, 64
3, 34680, Note_on_c, 1, 58, 107
3, 34872, Note_off_c, 1, 58, 64
3, 34920, Note_on_c, 1, 46, 107
3, 35016, Note_off_c, 1, 46, 64
3, 35040, Note_on_c, 1, 45, 107
3, 35136, Note_off_c, 1, 45, 64
3, 35160, Note_on_c, 1, 43, 107
3, 35256, Note_off_c, 1, 43, 64
3, 35280, Note_on_c, 1, 42, 107
3, 35376, Note_off_c, 1, 42, 64
3, 35400, Note_on_c, 1, 43, 107
3, 35496, Note_off_c, 1, 43, 64
3, 35520, Note_on_c, 1, 45, 107
3, 35616, Note_off_c, 1, 45, 64
3, 35640, Note_on_c, 1, 46, 107
3, 35820, Note_off_c, 1, 46, 64
3, 35880, Note_on_c, 1, 43, 107
3, 36060, Note_off_c, 1, 43, 64
3, 36120, Note_on_c, 1, 48, 107
3, 36216, Note_off_c, 1, 48, 64
3, 36240, Note_on_c, 1, 47, 107
3, 36336, Note_off_c, 1, 47, 64
3, 36360, Note_on_c, 1, 48, 107
3, 36456, Note_off_c, 1, 48, 64
3, 36480, Note_on_c, 1, 50, 107
3, 36576, Note_off_c, 1, 50, 64
3, 36600, Note_on_c, 1, 51, 107
3, 36780, Note_off_c, 1, 51, 64
3, 36840, Note_on_c, 1, 50, 107
3, 37020, Note_off_c, 1, 50, 64
3, 37080, Note_on_c, 1, 48, 107
3, 37260, Note_off_c, 1, 48, 64
3, 37320, Note_on_c, 1, 45, 107
3, 37500, Note_off_c, 1, 45, 64
3, 37560, Note_on_c, 1, 50, 107
3, 37944, Note_off_c, 1, 50, 64
3, 38400, Note_on_c, 1, 60, 107
3, 38496, Note_off_c, 1, 60, 64
3, 38520, Note_on_c, 1, 58, 107
3, 38616, Note_off_c, 1, 58, 64
3, 38640, Note_on_c, 1, 60, 107
3, 38736, Note_off_c, 1, 60, 64
3, 38760, Note_on_c, 1, 62, 107
3, 38856, Note_off_c, 1, 62, 64
3, 38880, Note_on_c, 1, 54, 107
3, 38976, Note_off_c, 1, 54, 64
3, 39000, Note_on_c, 1, 55, 107
3, 39096, Note_off_c, 1, 55, 64
3, 39120, Note_on_c, 1, 57, 107
3, 39216, Note_off_c, 1, 57, 64
3, 39240, Note_on_c, 1, 58, 107
3, 39336, Note_off_c, 1, 58, 64
3, 39360, Note_on_c, 1, 50, 107
3, 39456, Note_off_c, 1, 50, 64
3, 39480, Note_on_c, 1, 51, 107
3, 39576, Note_off_c, 1, 51, 64
3, 39600, Note_on_c, 1, 53, 107
3, 39696, Note_off_c, 1, 53, 64
3, 39720, Note_on_c, 1, 55, 107
3, 39816, Note_off_c, 1, 55, 64
3, 39840, Note_on_c, 1, 48, 107
3, 39936, Note_off_c, 1, 48, 64
3, 39960, Note_on_c, 1, 47, 107
3, 40056, Note_off_c, 1, 47, 64
3, 40080, Note_on_c, 1, 48, 107
3, 40176, Note_off_c, 1, 48, 64
3, 40200, Note_on_c, 1, 50, 107
3, 40296, Note_off_c, 1, 50, 64
3, 40320, Note_on_c, 1, 43, 107
3, 40416, Note_off_c, 1, 43, 64
3, 40440, Note_on_c, 1, 48, 107
3, 40824, Note_off_c, 1, 48, 64
3, 41040, Note_on_c, 1, 69, 107
3, 41136, Note_off_c, 1, 69, 64
3, 41160, Note_on_c, 1, 70, 107
3, 41256, Note_off_c, 1, 70, 64
3, 41280, Note_on_c, 1, 72, 107
3, 41376, Note_off_c, 1, 72, 64
3, 41400, Note_on_c, 1, 66, 107
3, 41496, Note_off_c, 1, 66, 64
3, 41520, Note_on_c, 1, 67, 107
3, 41616, Note_off_c, 1, 67, 64
3, 41640, Note_on_c, 1, 69, 107
3, 41736, Note_off_c, 1, 69, 64
3, 41760, Note_on_c, 1, 62, 107
3, 41856, Note_off_c, 1, 62, 64
3, 41880, Note_on_c, 1, 67, 107
3, 41976, Note_off_c, 1, 67, 64
3, 42000, Note_on_c, 1, 65, 107
3, 42096, Note_off_c, 1, 65, 64
3, 42120, Note_on_c, 1, 64, 107
3, 42216, Note_off_c, 1, 64, 64
3, 42240, Note_on_c, 1, 62, 107
3, 42336, Note_off_c, 1, 62, 64
3, 42360, Note_on_c, 1, 64, 107
3, 42456, Note_off_c, 1, 64, 64
3, 42480, Note_on_c, 1, 61, 107
3, 42576, Note_off_c, 1, 61, 64
3, 42600, Note_on_c, 1, 62, 107
3, 42696, Note_off_c, 1, 62, 64
3, 42720, Note_on_c, 1, 64, 107
3, 42816, Note_off_c, 1, 64, 64
3, 42840, Note_on_c, 1, 57, 107
3, 42936, Note_off_c, 1, 57, 64
3, 42960, Note_on_c, 1, 59, 107
3, 43056, Note_off_c, 1, 59, 64
3, 43080, Note_on_c, 1, 61, 107
3, 43176, Note_off_c, 1, 61, 64
3, 43200, Note_on_c, 1, 55, 107
3, 43296, Note_off_c, 1, 55, 64
3, 43320, Note_on_c, 1, 53, 107
3, 43440, Note_on_c, 1, 57, 107
3, 43536, Note_off_c, 1, 57, 64
3, 43560, Note_on_c, 1, 59, 107
3, 43656, Note_off_c, 1, 59, 64
3, 43680, Note_on_c, 1, 61, 107
3, 43776, Note_off_c, 1, 61, 64
3, 43800, Note_on_c, 1, 62, 107
3, 43896, Note_off_c, 1, 53, 64
3, 44040, Note_on_c, 1, 55, 107
3, 44184, Note_off_c, 1, 62, 64
3, 44232, Note_off_c, 1, 55, 64
3, 44280, Note_on_c, 1, 57, 107
3, 44280, Note_on_c, 1, 57, 107
3, 44472, Note_off_c, 1, 57, 64
3, 44520, Note_on_c, 1, 45, 107
3, 44664, Note_off_c, 1, 57, 64
3, 44712, Note_off_c, 1, 45, 64
3, 44760, Note_on_c, 1, 50, 107
3, 45000, Note_on_c, 1, 38, 107
3, 45144, Note_off_c, 1, 50, 64
3, 45240, Note_on_c, 1, 45, 107
3, 45432, Note_off_c, 1, 45, 64
3, 45480, Note_on_c, 1, 50, 107
3, 45864, Note_off_c, 1, 38, 64
3, 45864, Note_off_c, 1, 50, 64
3, 46200, Note_on_c, 1, 50, 110
3, 46584, Note_off_c, 1, 50, 64
3, 46800, Note_on_c, 1, 75, 110
3, 46896, Note_off_c, 1, 75, 64
3, 46920, Note_on_c, 1, 74, 110
3, 47016, Note_off_c, 1, 74, 64
3, 47040, Note_on_c, 1, 72, 110
3, 47136, Note_off_c, 1, 72, 64
3, 47160, Note_on_c, 1, 70, 110
3, 47256, Note_off_c, 1, 70, 64
3, 47280, Note_on_c, 1, 69, 110
3, 47376, Note_off_c, 1, 69, 64
3, 47400, Note_on_c, 1, 67, 110
3, 47496, Note_off_c, 1, 67, 64
3, 47520, Note_on_c, 1, 66, 110
3, 47616, Note_off_c, 1, 66, 64
3, 47640, Note_on_c, 1, 67, 110
3, 47832, Note_off_c, 1, 67, 64
3, 47880, Note_on_c, 1, 57, 110
3, 47976, Note_off_c, 1, 57, 64
3, 48000, Note_on_c, 1, 58, 110
3, 48096, Note_off_c, 1, 58, 64
3, 48120, Note_on_c, 1, 58, 110
3, 48300, Note_off_c, 1, 58, 64
3, 48360, Note_on_c, 1, 55, 110
3, 48540, Note_off_c, 1, 55, 64
3, 48600, Note_on_c, 1, 60, 110
3, 48780, Note_off_c, 1, 60, 64
3, 48840, Note_on_c, 1, 58, 110
3, 49020, Note_off_c, 1, 58, 64
3, 49080, Note_on_c, 1, 57, 110
3, 49176, Note_off_c, 1, 57, 64
3, 49200, Note_on_c, 1, 60, 110
3, 49296, Note_off_c, 1, 60, 64
3, 49320, Note_on_c, 1, 62, 110
3, 49416, Note_off_c, 1, 62, 64
3, 49440, Note_on_c, 1, 64, 110
3, 49536, Note_off_c, 1, 64, 64
3, 49560, Note_on_c, 1, 65, 110
3, 49740, Note_off_c, 1, 65, 64
3, 49800, Note_on_c, 1, 58, 110
3, 49980, Note_off_c, 1, 58, 64
3, 50040, Note_on_c, 1, 60, 110
3, 50040, Note_on_c, 1, 60, 110
3, 50232, Note_off_c, 1, 60, 64
3, 50280, Note_on_c, 1, 48, 110
3, 50424, Note_off_c, 1, 60, 64
3, 50472, Note_off_c, 1, 48, 64
3, 50520, Note_on_c, 1, 53, 110
3, 50616, Note_off_c, 1, 53, 64
3, 50640, Note_on_c, 1, 55, 110
3, 50736, Note_off_c, 1, 55, 64
3, 50760, Note_on_c, 1, 56, 110
3, 50856, Note_off_c, 1, 56, 64
3, 50880, Note_on_c, 1, 55, 110
3, 50976, Note_off_c, 1, 55, 64
3, 51000, Note_on_c, 1, 53, 110
3, 51096, Note_off_c, 1, 53, 64
3, 51120, Note_on_c, 1, 51, 110
3, 51216, Note_off_c, 1, 51, 64
3, 51240, Note_on_c, 1, 50, 110
3, 51336, Note_off_c, 1, 50, 64
3, 51360, Note_on_c, 1, 51, 110
3, 51456, Note_off_c, 1, 51, 64
3, 51480, Note_on_c, 1, 47, 110
3, 51660, Note_off_c, 1, 47, 64
3, 51720, Note_on_c, 1, 48, 110
3, 51900, Note_off_c, 1, 48, 64
3, 51960, Note_on_c, 1, 43, 110
3, 52140, Note_off_c, 1, 43, 64
3, 52200, Note_on_c, 1, 55, 110
3, 52296, Note_off_c, 1, 55, 64
3, 52320, Note_on_c, 1, 53, 110
3, 52416, Note_off_c, 1, 53, 64
3, 52440, Note_on_c, 1, 51, 110
3, 52620, Note_off_c, 1, 51, 64
3, 52680, Note_on_c, 1, 56, 110
3, 52860, Note_off_c, 1, 56, 64
3, 52920, Note_on_c, 1, 53, 110
3, 53100, Note_off_c, 1, 53, 64
3, 53160, Note_on_c, 1, 55, 110
3, 53340, Note_off_c, 1, 55, 64
3, 53400, Note_on_c, 1, 48, 110
3, 53580, Note_off_c, 1, 48, 64
3, 53640, Note_on_c, 1, 60, 110
3, 53736, Note_off_c, 1, 60, 64
3, 53760, Note_on_c, 1, 58, 110
3, 53856, Note_off_c, 1, 58, 64
3, 53880, Note_on_c, 1, 56, 110
3, 54060, Note_off_c, 1, 56, 64
3, 54120, Note_on_c, 1, 61, 110
3, 54300, Note_off_c, 1, 61, 64
3, 54360, Note_on_c, 1, 58, 110
3, 54540, Note_off_c, 1, 58, 64
3, 54600, Note_on_c, 1, 60, 110
3, 54780, Note_off_c, 1, 60, 64
3, 54840, Note_on_c, 1, 53, 110
3, 54936, Note_off_c, 1, 53, 64
3, 54960, Note_on_c, 1, 51, 110
3, 55056, Note_off_c, 1, 51, 64
3, 55080, Note_on_c, 1, 53, 110
3, 55176, Note_off_c, 1, 53, 64
3, 55200, Note_on_c, 1, 50, 110
3, 55296, Note_off_c, 1, 50, 64
3, 55320, Note_on_c, 1, 51, 110
3, 55416, Note_off_c, 1, 51, 64
3, 55440, Note_on_c, 1, 56, 110
3, 55536, Note_off_c, 1, 56, 64
3, 55560, Note_on_c, 1, 55, 110
3, 55656, Note_off_c, 1, 55, 64
3, 55680, Note_on_c, 1, 53, 110
3, 55776, Note_off_c, 1, 53, 64
3, 55800, Note_on_c, 1, 55, 110
3, 55980, Note_off_c, 1, 55, 64
3, 56040, Note_on_c, 1, 43, 110
3, 56220, Note_off_c, 1, 43, 64
3, 56280, Note_on_c, 1, 36, 110
3, 56472, Note_off_c, 1, 36, 64
3, 56520, Note_on_c, 1, 63, 110
3, 56616, Note_off_c, 1, 63, 64
3, 56640, Note_on_c, 1, 62, 110
3, 56736, Note_off_c, 1, 62, 64
3, 56760, Note_on_c, 1, 60, 110
3, 56856, Note_off_c, 1, 60, 64
3, 56880, Note_on_c, 1, 58, 110
3, 56976, Note_off_c, 1, 58, 64
3, 57000, Note_on_c, 1, 57, 110
3, 57096, Note_off_c, 1, 57, 64
3, 57120, Note_on_c, 1, 58, 110
3, 57216, Note_off_c, 1, 58, 64
3, 57240, Note_on_c, 1, 51, 110
3, 57432, Note_off_c, 1, 51, 64
3, 57480, Note_on_c, 1, 55, 110
3, 57660, Note_off_c, 1, 55, 64
3, 57720, Note_on_c, 1, 53, 110
3, 57900, Note_off_c, 1, 53, 64
3, 57960, Note_on_c, 1, 51, 110
3, 58140, Note_off_c, 1, 51, 64
3, 58200, Note_on_c, 1, 50, 110
3, 58380, Note_off_c, 1, 50, 64
3, 58440, Note_on_c, 1, 55, 110
3, 58620, Note_off_c, 1, 55, 64
3, 58680, Note_on_c, 1, 51, 110
3, 58860, Note_off_c, 1, 51, 64
3, 58920, Note_on_c, 1, 53, 110
3, 59100, Note_off_c, 1, 53, 64
3, 59160, Note_on_c, 1, 46, 110
3, 59340, Note_off_c, 1, 46, 64
3, 59400, Note_on_c, 1, 53, 110
3, 59580, Note_off_c, 1, 53, 64
3, 59640, Note_on_c, 1, 58, 110
3, 60216, Note_off_c, 1, 58, 64
3, 60240, Note_on_c, 1, 62, 110
3, 60336, Note_off_c, 1, 62, 64
3, 60360, Note_on_c, 1, 60, 110
3, 60456, Note_off_c, 1, 60, 64
3, 60480, Note_on_c, 1, 58, 110
3, 60576, Note_off_c, 1, 58, 64
3, 60600, Note_on_c, 1, 57, 110
3, 60780, Note_off_c, 1, 57, 64
3, 60840, Note_on_c, 1, 55, 110
3, 61020, Note_off_c, 1, 55, 64
3, 61080, Note_on_c, 1, 54, 110
3, 61656, Note_off_c, 1, 54, 64
3, 61680, Note_on_c, 1, 50, 110
3, 61776, Note_off_c, 1, 50, 64
3, 61800, Note_on_c, 1, 52, 110
3, 61896, Note_off_c, 1, 52, 64
3, 61920, Note_on_c, 1, 54, 110
3, 62016, Note_off_c, 1, 54, 64
3, 62040, Note_on_c, 1, 55, 110
3, 62220, Note_off_c, 1, 55, 64
3, 62280, Note_on_c, 1, 50, 110
3, 62460, Note_off_c, 1, 50, 64
3, 62520, Note_on_c, 1, 43, 110
3, 62700, Note_off_c, 1, 43, 64
3, 63600, Note_on_c, 1, 58, 110
3, 63696, Note_off_c, 1, 58, 64
3, 63720, Note_on_c, 1, 57, 110
3, 63816, Note_off_c, 1, 57, 64
3, 63840, Note_on_c, 1, 55, 110
3, 63936, Note_off_c, 1, 55, 64
3, 63960, Note_on_c, 1, 57, 110
3, 64056, Note_off_c, 1, 57, 64
3, 64080, Note_on_c, 1, 50, 110
3, 64176, Note_off_c, 1, 50, 64
3, 64200, Note_on_c, 1, 51, 110
3, 64296, Note_off_c, 1, 51, 64
3, 64320, Note_on_c, 1, 48, 110
3, 64416, Note_off_c, 1, 48, 64
3, 64440, Note_on_c, 1, 47, 110
3, 64536, Note_off_c, 1, 47, 64
3, 64560, Note_on_c, 1, 48, 110
3, 64656, Note_off_c, 1, 48, 64
3, 64680, Note_on_c, 1, 50, 110
3, 64776, Note_off_c, 1, 50, 64
3, 64800, Note_on_c, 1, 43, 110
3, 64896, Note_off_c, 1, 43, 64
3, 64920, Note_on_c, 1, 48, 110
3, 65016, Note_off_c, 1, 48, 64
3, 65040, Note_on_c, 1, 50, 110
3, 65136, Note_off_c, 1, 50, 64
3, 65160, Note_on_c, 1, 48, 110
3, 65256, Note_off_c, 1, 48, 64
3, 65280, Note_on_c, 1, 46, 110
3, 65376, Note_off_c, 1, 46, 64
3, 65400, Note_on_c, 1, 45, 110
3, 65592, Note_off_c, 1, 45, 64
3, 65640, Note_on_c, 1, 46, 110
3, 65832, Note_off_c, 1, 46, 64
3, 65880, Note_on_c, 1, 48, 110
3, 65976, Note_off_c, 1, 48, 64
3, 66000, Note_on_c, 1, 51, 110
3, 66096, Note_off_c, 1, 51, 64
3, 66120, Note_on_c, 1, 50, 110
3, 66216, Note_off_c, 1, 50, 64
3, 66240, Note_on_c, 1, 48, 110
3, 66336, Note_off_c, 1, 48, 64
3, 66360, Note_on_c, 1, 54, 110
3, 66540, Note_off_c, 1, 54, 64
3, 66600, Note_on_c, 1, 50, 110
3, 66780, Note_off_c, 1, 50, 64
3, 66840, Note_on_c, 1, 55, 110
3, 67020, Note_off_c, 1, 55, 64
3, 67080, Note_on_c, 1, 48, 110
3, 67260, Note_off_c, 1, 48, 64
3, 67320, Note_on_c, 1, 50, 110
3, 67500, Note_off_c, 1, 50, 64
3, 67560, Note_on_c, 1, 38, 110
3, 67740, Note_off_c, 1, 38, 64
3, 67800, Note_on_c, 1, 43, 110
3, 68040, Note_on_c, 1, 46, 105
3, 68280, Note_off_c, 1, 46, 64
3, 68280, Note_on_c, 1, 50, 105
3, 68520, Note_off_c, 1, 50, 64
3, 68520, Note_on_c, 1, 55, 105
3, 68904, Note_off_c, 1, 43, 64
3, 69000, Note_off_c, 1, 55, 64
3, 69240, Note_on_c, 1, 50, 110
3, 69624, Note_off_c, 1, 50, 64
3, 69840, Note_on_c, 1, 75, 110
3, 69936, Note_off_c, 1, 75, 64
3, 69960, Note_on_c, 1, 74, 110
3, 70056, Note_off_c, 1, 74, 64
3, 70080, Note_on_c, 1, 72, 110
3, 70176, Note_off_c, 1, 72, 64
3, 70200, Note_on_c, 1, 70, 110
3, 70296, Note_off_c, 1, 70, 64
3, 70320, Note_on_c, 1, 69, 110
3, 70416, Note_off_c, 1, 69, 64
3, 70440, Note_on_c, 1, 67, 110
3, 70536, Note_off_c, 1, 67, 64
3, 70560, Note_on_c, 1, 66, 110
3, 70656, Note_off_c, 1, 66, 64
3, 70680, Note_on_c, 1, 67, 110
3, 70872, Note_off_c, 1, 67, 64
3, 70920, Note_on_c, 1, 57, 110
3, 71016, Note_off_c, 1, 57, 64
3, 71040, Note_on_c, 1, 58, 110
3, 71136, Note_off_c, 1, 58, 64
3, 71160, Note_on_c, 1, 58, 110
3, 71340, Note_off_c, 1, 58, 64
3, 71400, Note_on_c, 1, 55, 110
3, 71580, Note_off_c, 1, 55, 64
3, 71640, Note_on_c, 1, 60, 110
3, 71820, Note_off_c, 1, 60, 64
3, 71880, Note_on_c, 1, 58, 110
3, 72060, Note_off_c, 1, 58, 64
3, 72120, Note_on_c, 1, 57, 110
3, 72216, Note_off_c, 1, 57, 64
3, 72240, Note_on_c, 1, 60, 110
3, 72336, Note_off_c, 1, 60, 64
3, 72360, Note_on_c, 1, 62, 110
3, 72456, Note_off_c, 1, 62, 64
3, 72480, Note_on_c, 1, 64, 110
3, 72576, Note_off_c, 1, 64, 64
3, 72600, Note_on_c, 1, 65, 110
3, 72780, Note_off_c, 1, 65, 64
3, 72840, Note_on_c, 1, 58, 110
3, 73020, Note_off_c, 1, 58, 64
3, 73080, Note_on_c, 1, 60, 110
3, 73080, Note_on_c, 1, 60, 110
3, 73272, Note_off_c, 1, 60, 64
3, 73320, Note_on_c, 1, 48, 110
3, 73464, Note_off_c, 1, 60, 64
3, 73512, Note_off_c, 1, 48, 64
3, 73560, Note_on_c, 1, 53, 110
3, 73656, Note_off_c, 1, 53, 64
3, 73680, Note_on_c, 1, 55, 110
3, 73776, Note_off_c, 1, 55, 64
3, 73800, Note_on_c, 1, 56, 110
3, 73896, Note_off_c, 1, 56, 64
3, 73920, Note_on_c, 1, 55, 110
3, 74016, Note_off_c, 1, 55, 64
3, 74040, Note_on_c, 1, 53, 110
3, 74136, Note_off_c, 1, 53, 64
3, 74160, Note_on_c, 1, 51, 110
3, 74256, Note_off_c, 1, 51, 64
3, 74280, Note_on_c, 1, 50, 110
3, 74376, Note_off_c, 1, 50, 64
3, 74400, Note_on_c, 1, 51, 110
3, 74496, Note_off_c, 1, 51, 64
3, 74520, Note_on_c, 1, 47, 110
3, 74700, Note_off_c, 1, 47, 64
3, 74760, Note_on_c, 1, 48, 110
3, 74940, Note_off_c, 1, 48, 64
3, 75000, Note_on_c, 1, 43, 110
3, 75180, Note_off_c, 1, 43, 64
3, 75240, Note_on_c, 1, 55, 110
3, 75336, Note_off_c, 1, 55, 64
3, 75360, Note_on_c, 1, 53, 110
3, 75456, Note_off_c, 1, 53, 64
3, 75480, Note_on_c, 1, 51, 110
3, 75660, Note_off_c, 1, 51, 64
3, 75720, Note_on_c, 1, 56, 110
3, 75900, Note_off_c, 1, 56, 64
3, 75960, Note_on_c, 1, 53, 110
3, 76140, Note_off_c, 1, 53, 64
3, 76200, Note_on_c, 1, 55, 110
3, 76380, Note_off_c, 1, 55, 64
3, 76440, Note_on_c, 1, 48, 110
3, 76620, Note_off_c, 1, 48, 64
3, 76680, Note_on_c, 1, 60, 110
3, 76776, Note_off_c, 1, 60, 64
3, 76800, Note_on_c, 1, 58, 110
3, 76896, Note_off_c, 1, 58, 64
3, 76920, Note_on_c, 1, 56, 110
3, 77100, Note_off_c, 1, 56, 64
3, 77160, Note_on_c, 1, 61, 110
3, 77340, Note_off_c, 1, 61, 64
3, 77400, Note_on_c, 1, 58, 110
3, 77580, Note_off_c, 1, 58, 64
3, 77640, Note_on_c, 1, 60, 110
3, 77820, Note_off_c, 1, 60, 64
3, 77880, Note_on_c, 1, 53, 110
3, 77976, Note_off_c, 1, 53, 64
3, 78000, Note_on_c, 1, 51, 110
3, 78096, Note_off_c, 1, 51, 64
3, 78120, Note_on_c, 1, 53, 110
3, 78216, Note_off_c, 1, 53, 64
3, 78240, Note_on_c, 1, 50, 110
3, 78336, Note_off_c, 1, 50, 64
3, 78360, Note_on_c, 1, 51, 110
3, 78456, Note_off_c, 1, 51, 64
3, 78480, Note_on_c, 1, 56, 110
3, 78576, Note_off_c, 1, 56, 64
3, 78600, Note_on_c, 1, 55, 110
3, 78696, Note_off_c, 1, 55, 64
3, 78720, Note_on_c, 1, 53, 110
3, 78816, Note_off_c, 1, 53, 64
3, 78840, Note_on_c, 1, 55, 110
3, 79020, Note_off_c, 1, 55, 64
3, 79080, Note_on_c, 1, 43, 110
3, 79260, Note_off_c, 1, 43, 64
3, 79320, Note_on_c, 1, 36, 110
3, 79512, Note_off_c, 1, 36, 64
3, 79560, Note_on_c, 1, 63, 110
3, 79656, Note_off_c, 1, 63, 64
3, 79680, Note_on_c, 1, 62, 110
3, 79776, Note_off_c, 1, 62, 64
3, 79800, Note_on_c, 1, 60, 110
3, 79896, Note_off_c, 1, 60, 64
3, 79920, Note_on_c, 1, 58, 110
3, 80016, Note_off_c, 1, 58, 64
3, 80040, Note_on_c, 1, 57, 110
3, 80136, Note_off_c, 1, 57, 64
3, 80160, Note_on_c, 1, 58, 110
3, 80256, Note_off_c, 1, 58, 64
3, 80280, Note_on_c, 1, 51, 110
3, 80472, Note_off_c, 1, 51, 64
3, 80520, Note_on_c, 1, 55, 110
3, 80700, Note_off_c, 1, 55, 64
3, 80760, Note_on_c, 1, 53, 110
3, 80940, Note_off_c, 1, 53, 64
3, 81000, Note_on_c, 1, 51, 110
3, 81180, Note_off_c, 1, 51, 64
3, 81240, Note_on_c, 1, 50, 110
3, 81420, Note_off_c, 1, 50, 64
3, 81480, Note_on_c, 1, 55, 110
3, 81660, Note_off_c, 1, 55, 64
3, 81720, Note_on_c, 1, 51, 110
3, 81900, Note_off_c, 1, 51, 64
3, 81960, Note_on_c, 1, 53, 110
3, 82140, Note_off_c, 1, 53, 64
3, 82200, Note_on_c, 1, 46, 110
3, 82380, Note_off_c, 1, 46, 64
3, 82440, Note_on_c, 1, 53, 110
3, 82620, Note_off_c, 1, 53, 64
3, 82680, Note_on_c, 1, 58, 110
3, 83256, Note_off_c, 1, 58, 64
3, 83280, Note_on_c, 1, 62, 110
3, 83376, Note_off_c, 1, 62, 64
3, 83400, Note_on_c, 1, 60, 110
3, 83496, Note_off_c, 1, 60, 64
3, 83520, Note_on_c, 1, 58, 110
3, 83616, Note_off_c, 1, 58, 64
3, 83640, Note_on_c, 1, 57, 110
3, 83820, Note_off_c, 1, 57, 64
3, 83880, Note_on_c, 1, 55, 110
3, 84060, Note_off_c, 1, 55, 64
3, 84120, Note_on_c, 1, 54, 110
3, 84696, Note_off_c, 1, 54, 64
3, 84720, Note_on_c, 1, 50, 110
3, 84816, Note_off_c, 1, 50, 64
3, 84840, Note_on_c, 1, 52, 110
3, 84936, Note_off_c, 1, 52, 64
3, 84960, Note_on_c, 1, 54, 110
3, 85056, Note_off_c, 1, 54, 64
3, 85080, Note_on_c, 1, 55, 110
3, 85260, Note_off_c, 1, 55, 64
3, 85320, Note_on_c, 1, 50, 110
3, 85500, Note_off_c, 1, 50, 64
3, 85560, Note_on_c, 1, 43, 110
3, 85740, Note_off_c, 1, 43, 64
3, 86640, Note_on_c, 1, 58, 110
3, 86736, Note_off_c, 1, 58, 64
3, 86760, Note_on_c, 1, 57, 110
3, 86856, Note_off_c, 1, 57, 64
3, 86880, Note_on_c, 1, 55, 110
3, 86976, Note_off_c, 1, 55, 64
3, 87000, Note_on_c, 1, 57, 110
3, 87096, Note_off_c, 1, 57, 64
3, 87120, Note_on_c, 1, 50, 110
3, 87216, Note_off_c, 1, 50, 64
3, 87240, Note_on_c, 1, 51, 110
3, 87336, Note_off_c, 1, 51, 64
3, 87360, Note_on_c, 1, 48, 110
3, 87456, Note_off_c, 1, 48, 64
3, 87480, Note_on_c, 1, 47, 110
3, 87576, Note_off_c, 1, 47, 64
3, 87600, Note_on_c, 1, 48, 110
3, 87696, Note_off_c, 1, 48, 64
3, 87720, Note_on_c, 1, 50, 110
3, 87816, Note_off_c, 1, 50, 64
3, 87840, Note_on_c, 1, 43, 110
3, 87936, Note_off_c, 1, 43, 64
3, 87960, Note_on_c, 1, 48, 110
3, 88056, Note_off_c, 1, 48, 64
3, 88080, Note_on_c, 1, 50, 110
3, 88176, Note_off_c, 1, 50, 64
3, 88200, Note_on_c, 1, 48, 110
3, 88296, Note_off_c, 1, 48, 64
3, 88320, Note_on_c, 1, 46, 110
3, 88416, Note_off_c, 1, 46, 64
3, 88440, Note_on_c, 1, 45, 110
3, 88632, Note_off_c, 1, 45, 64
3, 88680, Note_on_c, 1, 46, 110
3, 88872, Note_off_c, 1, 46, 64
3, 88920, Note_on_c, 1, 48, 110
3, 89016, Note_off_c, 1, 48, 64
3, 89040, Note_on_c, 1, 51, 110
3, 89136, Note_off_c, 1, 51, 64
3, 89160, Note_on_c, 1, 50, 110
3, 89256, Note_off_c, 1, 50, 64
3, 89280, Note_on_c, 1, 48, 110
3, 89376, Note_off_c, 1, 48, 64
3, 89400, Note_on_c, 1, 54, 110
3, 89580, Note_off_c, 1, 54, 64
3, 89640, Note_on_c, 1, 50, 110
3, 89820, Note_off_c, 1, 50, 64
3, 89880, Note_on_c, 1, 55, 110
3, 90060, Note_off_c, 1, 55, 64
3, 90120, Note_on_c, 1, 48, 110
3, 90300, Note_off_c, 1, 48, 64
3, 90360, Note_on_c, 1, 50, 110
3, 90540, Note_off_c, 1, 50, 64
3, 90600, Note_on_c, 1, 38, 110
3, 90780, Note_off_c, 1, 38, 64
3, 90840, Note_on_c, 1, 43, 110
3, 91080, Note_on_c, 1, 46, 105
3, 91320, Note_off_c, 1, 46, 64
3, 91320, Note_on_c, 1, 50, 105
3, 91560, Note_off_c, 1, 50, 64
3, 91560, Note_on_c, 1, 55, 105
3, 91944, Note_off_c, 1, 43, 64
3, 92040, Note_off_c, 1, 55, 64
3, 92040, End_track
4, 0, Start_track
4, 0, Title_t, "Arr. Gary Bricault, (c) 1997"
4, 0, End_track
0, 0, End_of_file
