0, 0, Header, 1, 4, 240
1, 0, Start_track
1, 0, Time_signature, 1, 3, 12, 8
1, 0, Tempo, 285714
1, 120, Time_signature, 12, 3, 36, 8
1, 120, Tempo, 295567
1, 27480, Time_signature, 11, 3, 12, 8
1, 27480, Tempo, 285714
1, 28800, Time_signature, 1, 3, 12, 8
1, 28920, Time_signature, 12, 3, 36, 8
1, 28920, Tempo, 295567
1, 56280, Time_signature, 11, 3, 12, 8
1, 56280, Tempo, 285714
1, 57600, Time_signature, 1, 3, 12, 8
1, 57720, Time_signature, 12, 3, 36, 8
1, 57720, Tempo, 295567
1, 90840, Time_signature, 11, 3, 12, 8
1, 90840, Tempo, 285714
1, 92160, Time_signature, 1, 3, 12, 8
1, 92280, Time_signature, 12, 3, 36, 8
1, 92280, Tempo, 295567
1, 125400, Time_signature, 11, 3, 12, 8
1, 125400, Tempo, 285714
1, 125400, End_track
2, 0, Start_track
2, 0, Title_t, "English Suite 2, 7. Gigue"
2, 0, Program_c, 0, 0
2, 0, Note_on_c, 0, 74, 100
2, 96, Note_off_c, 0, 74, 64
2, 120, Note_on_c, 0, 75, 100
2, 216, Note_off_c, 0, 75, 64
2, 240, Note_on_c, 0, 74, 100
2, 336, Note_off_c, 0, 74, 64
2, 360, Note_on_c, 0, 72, 100
2, 456, Note_off_c, 0, 72, 64
2, 480, Note_on_c, 0, 70, 100
2, 576, Note_off_c, 0, 70, 64
2, 600, Note_on_c, 0, 69, 100
2, 696, Note_off_c, 0, 69, 64
2, 720, Note_on_c, 0, 67, 100
2, 816, Note_off_c, 0, 67, 64
2, 840, Note_on_c, 0, 66, 100
2, 936, Note_off_c, 0, 66, 64
2, 960, Note_on_c, 0, 69, 100
2, 1056, Note_off_c, 0, 69, 64
2, 1080, Note_on_c, 0, 62, 100
2, 1176, Note_off_c, 0, 62, 64
2, 1200, Note_on_c, 0, 60, 100
2, 1296, Note_off_c, 0, 60, 64
2, 1320, Note_on_c, 0, 58, 100
2, 1416, Note_off_c, 0, 58, 64
2, 1440, Note_on_c, 0, 57, 100
2, 1536, Note_off_c, 0, 57, 64
2, 1560, Note_on_c, 0, 58, 100
2, 1656, Note_off_c, 0, 58, 64
2, 1680, Note_on_c, 0, 62, 100
2, 1776, Note_off_c, 0, 62, 64
2, 1800, Note_on_c, 0, 67, 100
2, 1896, Note_off_c, 0, 67, 64
2, 1920, Note_on_c, 0, 57, 100
2, 2016, Note_off_c, 0, 57, 64
2, 2040, Note_on_c, 0, 67, 100
2, 2136, Note_off_c, 0, 67, 64
2, 2160, Note_on_c, 0, 66, 100
2, 2256, Note_off_c, 0, 66, 64
2, 2280, Note_on_c, 0, 67, 100
2, 2376, Note_off_c, 0, 67, 64
2, 2400, Note_on_c, 0, 70, 100
2, 2496, Note_off_c, 0, 70, 64
2, 2520, Note_on_c, 0, 69, 100
2, 2616, Note_off_c, 0, 69, 64
2, 2640, Note_on_c, 0, 70, 100
2, 2736, Note_off_c, 0, 70, 64
2, 2760, Note_on_c, 0, 74, 100
2, 2856, Note_off_c, 0, 74, 64
2, 2880, Note_on_c, 0, 72, 100
2, 2976, Note_off_c, 0, 72, 64
2, 3000, Note_on_c, 0, 74, 100
2, 3000, Note_on_c, 0, 70, 100
2, 3096, Note_off_c, 0, 70, 64
2, 3120, Note_on_c, 0, 69, 100
2, 3216, Note_off_c, 0, 69, 64
2, 3240, Note_on_c, 0, 67, 100
2, 3336, Note_off_c, 0, 67, 64
2, 3360, Note_on_c, 0, 65, 100
2, 3456, Note_off_c, 0, 65, 64
2, 3456, Note_off_c, 0, 74, 64
2, 3480, Note_on_c, 0, 76, 100
2, 3480, Note_on_c, 0, 64, 100
2, 3576, Note_off_c, 0, 64, 64
2, 3576, Note_off_c, 0, 76, 64
2, 3600, Note_on_c, 0, 62, 100
2, 3600, Note_on_c, 0, 77, 100
2, 3696, Note_off_c, 0, 77, 64
2, 3696, Note_off_c, 0, 62, 64
2, 3720, Note_on_c, 0, 61, 100
2, 3720, Note_on_c, 0, 76, 100
2, 3816, Note_off_c, 0, 61, 64
2, 3840, Note_on_c, 0, 64, 100
2, 3936, Note_off_c, 0, 64, 64
2, 3960, Note_on_c, 0, 57, 100
2, 4056, Note_off_c, 0, 57, 64
2, 4176, Note_off_c, 0, 76, 64
2, 4200, Note_on_c, 0, 77, 100
2, 4296, Note_off_c, 0, 77, 64
2, 4320, Note_on_c, 0, 79, 100
2, 4416, Note_off_c, 0, 79, 64
2, 4440, Note_on_c, 0, 81, 100
2, 4536, Note_off_c, 0, 81, 64
2, 4560, Note_on_c, 0, 79, 100
2, 4656, Note_off_c, 0, 79, 64
2, 4680, Note_on_c, 0, 77, 100
2, 4776, Note_off_c, 0, 77, 64
2, 4800, Note_on_c, 0, 79, 100
2, 4896, Note_off_c, 0, 79, 64
2, 4920, Note_on_c, 0, 77, 100
2, 5016, Note_off_c, 0, 77, 64
2, 5040, Note_on_c, 0, 76, 100
2, 5136, Note_off_c, 0, 76, 64
2, 5160, Note_on_c, 0, 77, 100
2, 5256, Note_off_c, 0, 77, 64
2, 5280, Note_on_c, 0, 79, 100
2, 5376, Note_off_c, 0, 79, 64
2, 5400, Note_on_c, 0, 81, 100
2, 5496, Note_off_c, 0, 81, 64
2, 5520, Note_on_c, 0, 74, 100
2, 5880, Note_on_c, 0, 64, 100
2, 5976, Note_off_c, 0, 74, 64
2, 6000, Note_on_c, 0, 72, 100
2, 6096, Note_off_c, 0, 72, 64
2, 6120, Note_on_c, 0, 70, 100
2, 6216, Note_off_c, 0, 70, 64
2, 6240, Note_on_c, 0, 72, 100
2, 6336, Note_off_c, 0, 64, 64
2, 6360, Note_on_c, 0, 66, 100
2, 6456, Note_off_c, 0, 66, 64
2, 6480, Note_on_c, 0, 67, 100
2, 6576, Note_off_c, 0, 67, 64
2, 6600, Note_on_c, 0, 69, 100
2, 6696, Note_off_c, 0, 69, 64
2, 6720, Note_on_c, 0, 67, 100
2, 6792, Note_off_c, 0, 72, 64
2, 6816, Note_off_c, 0, 67, 64
2, 6840, Note_on_c, 0, 66, 100
2, 6840, Note_on_c, 0, 74, 100
2, 6936, Note_off_c, 0, 74, 64
2, 6936, Note_off_c, 0, 66, 64
2, 6960, Note_on_c, 0, 70, 100
2, 6960, Note_on_c, 0, 67, 100
2, 7056, Note_off_c, 0, 67, 64
2, 7080, Note_on_c, 0, 66, 100
2, 7152, Note_off_c, 0, 70, 64
2, 7176, Note_off_c, 0, 66, 64
2, 7200, Note_on_c, 0, 72, 100
2, 7200, Note_on_c, 0, 64, 100
2, 7296, Note_off_c, 0, 64, 64
2, 7296, Note_off_c, 0, 72, 64
2, 7320, Note_on_c, 0, 69, 100
2, 7320, Note_on_c, 0, 66, 100
2, 7416, Note_off_c, 0, 66, 64
2, 7440, Note_on_c, 0, 64, 100
2, 7512, Note_off_c, 0, 69, 64
2, 7536, Note_off_c, 0, 64, 64
2, 7560, Note_on_c, 0, 70, 100
2, 7560, Note_on_c, 0, 62, 100
2, 7656, Note_off_c, 0, 62, 64
2, 7656, Note_off_c, 0, 70, 64
2, 7680, Note_on_c, 0, 64, 100
2, 7680, Note_on_c, 0, 72, 100
2, 7776, Note_off_c, 0, 64, 64
2, 7800, Note_on_c, 0, 67, 100
2, 7872, Note_off_c, 0, 72, 64
2, 7896, Note_off_c, 0, 67, 64
2, 7920, Note_on_c, 0, 74, 100
2, 7920, Note_on_c, 0, 66, 100
2, 8016, Note_off_c, 0, 66, 64
2, 8016, Note_off_c, 0, 74, 64
2, 8040, Note_on_c, 0, 67, 100
2, 8040, Note_on_c, 0, 70, 100
2, 8232, Note_off_c, 0, 70, 64
2, 8280, Note_on_c, 0, 72, 100
2, 8376, Note_off_c, 0, 72, 64
2, 8400, Note_on_c, 0, 74, 100
2, 8496, Note_off_c, 0, 67, 64
2, 8520, Note_on_c, 0, 69, 100
2, 8616, Note_off_c, 0, 69, 64
2, 8640, Note_on_c, 0, 70, 100
2, 8736, Note_off_c, 0, 70, 64
2, 8760, Note_on_c, 0, 69, 100
2, 8952, Note_off_c, 0, 74, 64
2, 9000, Note_on_c, 0, 76, 100
2, 9096, Note_off_c, 0, 76, 64
2, 9120, Note_on_c, 0, 78, 100
2, 9216, Note_off_c, 0, 69, 64
2, 9240, Note_on_c, 0, 70, 100
2, 9336, Note_off_c, 0, 70, 64
2, 9360, Note_on_c, 0, 72, 100
2, 9408, Note_off_c, 0, 78, 64
2, 9456, Note_off_c, 0, 72, 64
2, 9480, Note_on_c, 0, 74, 100
2, 9480, Note_on_c, 0, 79, 100
2, 9576, Note_off_c, 0, 74, 64
2, 9600, Note_on_c, 0, 72, 100
2, 9696, Note_off_c, 0, 72, 64
2, 9720, Note_on_c, 0, 70, 100
2, 9768, Note_off_c, 0, 79, 64
2, 9816, Note_off_c, 0, 70, 64
2, 9840, Note_on_c, 0, 72, 100
2, 9840, Note_on_c, 0, 81, 100
2, 9936, Note_off_c, 0, 72, 64
2, 9960, Note_on_c, 0, 70, 100
2, 10056, Note_off_c, 0, 70, 64
2, 10080, Note_on_c, 0, 69, 100
2, 10176, Note_off_c, 0, 69, 64
2, 10200, Note_on_c, 0, 70, 100
2, 10488, Note_off_c, 0, 81, 64
2, 10560, Note_on_c, 0, 79, 100
2, 10776, Note_off_c, 0, 70, 64
2, 10920, Note_on_c, 0, 69, 100
2, 11016, Note_off_c, 0, 79, 64
2, 11040, Note_on_c, 0, 77, 100
2, 11136, Note_off_c, 0, 77, 64
2, 11160, Note_on_c, 0, 76, 100
2, 11256, Note_off_c, 0, 76, 64
2, 11280, Note_on_c, 0, 77, 100
2, 11496, Note_off_c, 0, 69, 64
2, 11640, Note_on_c, 0, 67, 100
2, 11928, Note_off_c, 0, 77, 64
2, 12000, Note_on_c, 0, 75, 100
2, 12216, Note_off_c, 0, 67, 64
2, 12360, Note_on_c, 0, 65, 100
2, 12456, Note_off_c, 0, 75, 64
2, 12480, Note_on_c, 0, 74, 100
2, 12576, Note_off_c, 0, 74, 64
2, 12600, Note_on_c, 0, 72, 100
2, 12696, Note_off_c, 0, 72, 64
2, 12720, Note_on_c, 0, 74, 100
2, 12936, Note_off_c, 0, 65, 64
2, 13080, Note_on_c, 0, 63, 100
2, 13368, Note_off_c, 0, 74, 64
2, 13440, Note_on_c, 0, 72, 100
2, 13656, Note_off_c, 0, 63, 64
2, 13800, Note_on_c, 0, 62, 100
2, 13896, Note_off_c, 0, 72, 64
2, 13920, Note_on_c, 0, 70, 100
2, 14016, Note_off_c, 0, 70, 64
2, 14040, Note_on_c, 0, 69, 100
2, 14136, Note_off_c, 0, 69, 64
2, 14160, Note_on_c, 0, 70, 100
2, 14256, Note_off_c, 0, 62, 64
2, 14280, Note_on_c, 0, 65, 100
2, 14376, Note_off_c, 0, 65, 64
2, 14400, Note_on_c, 0, 64, 100
2, 14448, Note_off_c, 0, 70, 64
2, 14496, Note_off_c, 0, 64, 64
2, 14520, Note_on_c, 0, 65, 100
2, 14640, Note_on_c, 0, 69, 100
2, 14712, Note_off_c, 0, 65, 64
2, 14760, Note_on_c, 0, 64, 100
2, 14832, Note_off_c, 0, 69, 64
2, 14856, Note_off_c, 0, 64, 64
2, 14880, Note_on_c, 0, 62, 100
2, 15000, Note_on_c, 0, 69, 100
2, 15096, Note_off_c, 0, 69, 64
2, 15120, Note_on_c, 0, 67, 100
2, 15216, Note_off_c, 0, 67, 64
2, 15240, Note_on_c, 0, 69, 100
2, 15336, Note_off_c, 0, 62, 64
2, 15360, Note_on_c, 0, 61, 100
2, 15456, Note_off_c, 0, 61, 64
2, 15480, Note_on_c, 0, 59, 100
2, 15528, Note_off_c, 0, 69, 64
2, 15576, Note_off_c, 0, 59, 64
2, 15600, Note_on_c, 0, 61, 100
2, 15720, Note_on_c, 0, 64, 100
2, 15816, Note_off_c, 0, 64, 64
2, 15840, Note_on_c, 0, 67, 100
2, 15888, Note_off_c, 0, 61, 64
2, 15936, Note_off_c, 0, 67, 64
2, 15960, Note_on_c, 0, 65, 100
2, 15960, Note_on_c, 0, 62, 100
2, 16416, Note_off_c, 0, 62, 64
2, 16416, Note_off_c, 0, 65, 64
2, 16440, Note_on_c, 0, 64, 100
2, 16440, Note_on_c, 0, 67, 100
2, 16536, Note_off_c, 0, 67, 64
2, 16536, Note_off_c, 0, 64, 64
2, 16560, Note_on_c, 0, 65, 100
2, 16560, Note_on_c, 0, 69, 100
2, 16656, Note_off_c, 0, 69, 64
2, 16656, Note_off_c, 0, 65, 64
2, 16680, Note_on_c, 0, 64, 100
2, 16680, Note_on_c, 0, 67, 100
2, 17136, Note_off_c, 0, 64, 64
2, 17136, Note_off_c, 0, 67, 64
2, 17160, Note_on_c, 0, 65, 100
2, 17160, Note_on_c, 0, 69, 100
2, 17256, Note_off_c, 0, 69, 64
2, 17256, Note_off_c, 0, 65, 64
2, 17280, Note_on_c, 0, 67, 100
2, 17280, Note_on_c, 0, 70, 100
2, 17376, Note_off_c, 0, 70, 64
2, 17376, Note_off_c, 0, 67, 64
2, 17400, Note_on_c, 0, 69, 100
2, 17400, Note_on_c, 0, 69, 100
2, 17496, Note_off_c, 0, 69, 64
2, 17520, Note_on_c, 0, 74, 100
2, 17616, Note_off_c, 0, 74, 64
2, 17640, Note_on_c, 0, 77, 100
2, 17688, Note_off_c, 0, 69, 64
2, 17736, Note_off_c, 0, 77, 64
2, 17760, Note_on_c, 0, 67, 100
2, 17760, Note_on_c, 0, 67, 100
2, 17856, Note_off_c, 0, 67, 64
2, 17880, Note_on_c, 0, 79, 100
2, 17976, Note_off_c, 0, 79, 64
2, 18000, Note_on_c, 0, 76, 100
2, 18048, Note_off_c, 0, 67, 64
2, 18096, Note_off_c, 0, 76, 64
2, 18120, Note_on_c, 0, 77, 100
2, 18216, Note_off_c, 0, 77, 64
2, 18240, Note_on_c, 0, 81, 100
2, 18336, Note_off_c, 0, 81, 64
2, 18360, Note_on_c, 0, 79, 100
2, 18456, Note_off_c, 0, 79, 64
2, 18480, Note_on_c, 0, 81, 100
2, 18768, Note_off_c, 0, 81, 64
2, 18840, Note_on_c, 0, 69, 100
2, 18936, Note_off_c, 0, 69, 64
2, 18960, Note_on_c, 0, 73, 100
2, 19056, Note_off_c, 0, 73, 64
2, 19080, Note_on_c, 0, 71, 100
2, 19176, Note_off_c, 0, 71, 64
2, 19200, Note_on_c, 0, 73, 100
2, 19296, Note_off_c, 0, 73, 64
2, 19320, Note_on_c, 0, 76, 100
2, 19416, Note_off_c, 0, 76, 64
2, 19440, Note_on_c, 0, 74, 100
2, 19536, Note_off_c, 0, 74, 64
2, 19560, Note_on_c, 0, 76, 100
2, 19848, Note_off_c, 0, 76, 64
2, 19920, Note_on_c, 0, 64, 100
2, 20016, Note_off_c, 0, 64, 64
2, 20040, Note_on_c, 0, 67, 100
2, 20136, Note_off_c, 0, 67, 64
2, 20160, Note_on_c, 0, 65, 100
2, 20256, Note_off_c, 0, 65, 64
2, 20280, Note_on_c, 0, 67, 100
2, 20376, Note_off_c, 0, 67, 64
2, 20400, Note_on_c, 0, 70, 100
2, 20496, Note_off_c, 0, 70, 64
2, 20520, Note_on_c, 0, 69, 100
2, 20616, Note_off_c, 0, 69, 64
2, 20640, Note_on_c, 0, 70, 100
2, 20928, Note_off_c, 0, 70, 64
2, 21000, Note_on_c, 0, 61, 100
2, 21096, Note_off_c, 0, 61, 64
2, 21120, Note_on_c, 0, 64, 100
2, 21216, Note_off_c, 0, 64, 64
2, 21240, Note_on_c, 0, 62, 100
2, 21336, Note_off_c, 0, 62, 64
2, 21360, Note_on_c, 0, 64, 100
2, 21456, Note_off_c, 0, 64, 64
2, 21480, Note_on_c, 0, 67, 100
2, 21576, Note_off_c, 0, 67, 64
2, 21600, Note_on_c, 0, 65, 100
2, 21696, Note_off_c, 0, 65, 64
2, 21720, Note_on_c, 0, 67, 100
2, 21816, Note_off_c, 0, 67, 64
2, 21840, Note_on_c, 0, 70, 100
2, 21936, Note_off_c, 0, 70, 64
2, 21960, Note_on_c, 0, 69, 100
2, 22056, Note_off_c, 0, 69, 64
2, 22080, Note_on_c, 0, 70, 100
2, 22176, Note_off_c, 0, 70, 64
2, 22200, Note_on_c, 0, 69, 100
2, 22296, Note_off_c, 0, 69, 64
2, 22320, Note_on_c, 0, 67, 100
2, 22416, Note_off_c, 0, 67, 64
2, 22440, Note_on_c, 0, 73, 100
2, 22536, Note_off_c, 0, 73, 64
2, 22560, Note_on_c, 0, 70, 100
2, 22656, Note_off_c, 0, 70, 64
2, 22680, Note_on_c, 0, 69, 100
2, 22776, Note_off_c, 0, 69, 64
2, 22800, Note_on_c, 0, 74, 100
2, 22896, Note_off_c, 0, 74, 64
2, 22920, Note_on_c, 0, 69, 100
2, 23016, Note_off_c, 0, 69, 64
2, 23040, Note_on_c, 0, 67, 100
2, 23136, Note_off_c, 0, 67, 64
2, 23160, Note_on_c, 0, 76, 100
2, 23256, Note_off_c, 0, 76, 64
2, 23280, Note_on_c, 0, 69, 100
2, 23376, Note_off_c, 0, 69, 64
2, 23400, Note_on_c, 0, 67, 100
2, 23496, Note_off_c, 0, 67, 64
2, 23520, Note_on_c, 0, 65, 100
2, 23616, Note_off_c, 0, 65, 64
2, 23640, Note_on_c, 0, 67, 100
2, 23736, Note_off_c, 0, 67, 64
2, 23760, Note_on_c, 0, 64, 100
2, 23856, Note_off_c, 0, 64, 64
2, 23880, Note_on_c, 0, 65, 100
2, 23976, Note_off_c, 0, 65, 64
2, 24000, Note_on_c, 0, 64, 100
2, 24096, Note_off_c, 0, 64, 64
2, 24120, Note_on_c, 0, 62, 100
2, 24216, Note_off_c, 0, 62, 64
2, 24240, Note_on_c, 0, 67, 100
2, 24336, Note_off_c, 0, 67, 64
2, 24360, Note_on_c, 0, 64, 100
2, 24456, Note_off_c, 0, 64, 64
2, 24480, Note_on_c, 0, 62, 100
2, 24576, Note_off_c, 0, 62, 64
2, 24600, Note_on_c, 0, 69, 100
2, 24696, Note_off_c, 0, 69, 64
2, 24720, Note_on_c, 0, 64, 100
2, 24816, Note_off_c, 0, 64, 64
2, 24840, Note_on_c, 0, 62, 100
2, 24936, Note_off_c, 0, 62, 64
2, 24960, Note_on_c, 0, 70, 100
2, 25056, Note_off_c, 0, 70, 64
2, 25080, Note_on_c, 0, 64, 100
2, 25176, Note_off_c, 0, 64, 64
2, 25200, Note_on_c, 0, 62, 100
2, 25296, Note_off_c, 0, 62, 64
2, 25320, Note_on_c, 0, 61, 100
2, 25416, Note_off_c, 0, 61, 64
2, 25440, Note_on_c, 0, 62, 100
2, 25536, Note_off_c, 0, 62, 64
2, 25560, Note_on_c, 0, 64, 100
2, 25656, Note_off_c, 0, 64, 64
2, 25680, Note_on_c, 0, 57, 100
2, 25776, Note_off_c, 0, 57, 64
2, 25920, Note_on_c, 0, 81, 100
2, 26016, Note_off_c, 0, 81, 64
2, 26040, Note_on_c, 0, 82, 100
2, 26136, Note_off_c, 0, 82, 64
2, 26160, Note_on_c, 0, 81, 100
2, 26256, Note_off_c, 0, 81, 64
2, 26280, Note_on_c, 0, 79, 100
2, 26376, Note_off_c, 0, 79, 64
2, 26400, Note_on_c, 0, 77, 100
2, 26496, Note_off_c, 0, 77, 64
2, 26520, Note_on_c, 0, 76, 100
2, 26616, Note_off_c, 0, 76, 64
2, 26640, Note_on_c, 0, 74, 100
2, 26736, Note_off_c, 0, 74, 64
2, 26760, Note_on_c, 0, 73, 100
2, 26856, Note_off_c, 0, 73, 64
2, 26880, Note_on_c, 0, 76, 100
2, 26976, Note_off_c, 0, 76, 64
2, 27000, Note_on_c, 0, 69, 100
2, 27096, Note_off_c, 0, 69, 64
2, 27120, Note_on_c, 0, 67, 100
2, 27216, Note_off_c, 0, 67, 64
2, 27240, Note_on_c, 0, 65, 100
2, 27336, Note_off_c, 0, 65, 64
2, 27360, Note_on_c, 0, 64, 100
2, 27456, Note_off_c, 0, 64, 64
2, 27480, Note_on_c, 0, 65, 100
2, 27576, Note_off_c, 0, 65, 64
2, 27600, Note_on_c, 0, 69, 100
2, 27696, Note_off_c, 0, 69, 64
2, 27720, Note_on_c, 0, 74, 100
2, 27816, Note_off_c, 0, 74, 64
2, 27840, Note_on_c, 0, 64, 100
2, 27936, Note_off_c, 0, 64, 64
2, 27960, Note_on_c, 0, 74, 100
2, 28056, Note_off_c, 0, 74, 64
2, 28080, Note_on_c, 0, 73, 100
2, 28176, Note_off_c, 0, 73, 64
2, 28200, Note_on_c, 0, 74, 100
2, 28296, Note_off_c, 0, 74, 64
2, 28320, Note_on_c, 0, 69, 100
2, 28416, Note_off_c, 0, 69, 64
2, 28440, Note_on_c, 0, 66, 100
2, 28536, Note_off_c, 0, 66, 64
2, 28560, Note_on_c, 0, 62, 100
2, 28752, Note_off_c, 0, 62, 64
2, 28800, Note_on_c, 0, 74, 100
2, 28896, Note_off_c, 0, 74, 64
2, 28920, Note_on_c, 0, 75, 100
2, 29016, Note_off_c, 0, 75, 64
2, 29040, Note_on_c, 0, 74, 100
2, 29136, Note_off_c, 0, 74, 64
2, 29160, Note_on_c, 0, 72, 100
2, 29256, Note_off_c, 0, 72, 64
2, 29280, Note_on_c, 0, 70, 100
2, 29376, Note_off_c, 0, 70, 64
2, 29400, Note_on_c, 0, 69, 100
2, 29496, Note_off_c, 0, 69, 64
2, 29520, Note_on_c, 0, 67, 100
2, 29616, Note_off_c, 0, 67, 64
2, 29640, Note_on_c, 0, 66, 100
2, 29736, Note_off_c, 0, 66, 64
2, 29760, Note_on_c, 0, 69, 100
2, 29856, Note_off_c, 0, 69, 64
2, 29880, Note_on_c, 0, 62, 100
2, 29976, Note_off_c, 0, 62, 64
2, 30000, Note_on_c, 0, 60, 100
2, 30096, Note_off_c, 0, 60, 64
2, 30120, Note_on_c, 0, 58, 100
2, 30216, Note_off_c, 0, 58, 64
2, 30240, Note_on_c, 0, 57, 100
2, 30336, Note_off_c, 0, 57, 64
2, 30360, Note_on_c, 0, 58, 100
2, 30456, Note_off_c, 0, 58, 64
2, 30480, Note_on_c, 0, 62, 100
2, 30576, Note_off_c, 0, 62, 64
2, 30600, Note_on_c, 0, 67, 100
2, 30696, Note_off_c, 0, 67, 64
2, 30720, Note_on_c, 0, 57, 100
2, 30816, Note_off_c, 0, 57, 64
2, 30840, Note_on_c, 0, 67, 100
2, 30936, Note_off_c, 0, 67, 64
2, 30960, Note_on_c, 0, 66, 100
2, 31056, Note_off_c, 0, 66, 64
2, 31080, Note_on_c, 0, 67, 100
2, 31176, Note_off_c, 0, 67, 64
2, 31200, Note_on_c, 0, 70, 100
2, 31296, Note_off_c, 0, 70, 64
2, 31320, Note_on_c, 0, 69, 100
2, 31416, Note_off_c, 0, 69, 64
2, 31440, Note_on_c, 0, 70, 100
2, 31536, Note_off_c, 0, 70, 64
2, 31560, Note_on_c, 0, 74, 100
2, 31656, Note_off_c, 0, 74, 64
2, 31680, Note_on_c, 0, 72, 100
2, 31776, Note_off_c, 0, 72, 64
2, 31800, Note_on_c, 0, 74, 100
2, 31800, Note_on_c, 0, 70, 100
2, 31896, Note_off_c, 0, 70, 64
2, 31920, Note_on_c, 0, 69, 100
2, 32016, Note_off_c, 0, 69, 64
2, 32040, Note_on_c, 0, 67, 100
2, 32136, Note_off_c, 0, 67, 64
2, 32160, Note_on_c, 0, 65, 100
2, 32256, Note_off_c, 0, 65, 64
2, 32256, Note_off_c, 0, 74, 64
2, 32280, Note_on_c, 0, 76, 100
2, 32280, Note_on_c, 0, 64, 100
2, 32376, Note_off_c, 0, 64, 64
2, 32376, Note_off_c, 0, 76, 64
2, 32400, Note_on_c, 0, 62, 100
2, 32400, Note_on_c, 0, 77, 100
2, 32496, Note_off_c, 0, 77, 64
2, 32496, Note_off_c, 0, 62, 64
2, 32520, Note_on_c, 0, 61, 100
2, 32520, Note_on_c, 0, 76, 100
2, 32616, Note_off_c, 0, 61, 64
2, 32640, Note_on_c, 0, 64, 100
2, 32736, Note_off_c, 0, 64, 64
2, 32760, Note_on_c, 0, 57, 100
2, 32856, Note_off_c, 0, 57, 64
2, 32976, Note_off_c, 0, 76, 64
2, 33000, Note_on_c, 0, 77, 100
2, 33096, Note_off_c, 0, 77, 64
2, 33120, Note_on_c, 0, 79, 100
2, 33216, Note_off_c, 0, 79, 64
2, 33240, Note_on_c, 0, 81, 100
2, 33336, Note_off_c, 0, 81, 64
2, 33360, Note_on_c, 0, 79, 100
2, 33456, Note_off_c, 0, 79, 64
2, 33480, Note_on_c, 0, 77, 100
2, 33576, Note_off_c, 0, 77, 64
2, 33600, Note_on_c, 0, 79, 100
2, 33696, Note_off_c, 0, 79, 64
2, 33720, Note_on_c, 0, 77, 100
2, 33816, Note_off_c, 0, 77, 64
2, 33840, Note_on_c, 0, 76, 100
2, 33936, Note_off_c, 0, 76, 64
2, 33960, Note_on_c, 0, 77, 100
2, 34056, Note_off_c, 0, 77, 64
2, 34080, Note_on_c, 0, 79, 100
2, 34176, Note_off_c, 0, 79, 64
2, 34200, Note_on_c, 0, 81, 100
2, 34296, Note_off_c, 0, 81, 64
2, 34320, Note_on_c, 0, 74, 100
2, 34680, Note_on_c, 0, 64, 100
2, 34776, Note_off_c, 0, 74, 64
2, 34800, Note_on_c, 0, 72, 100
2, 34896, Note_off_c, 0, 72, 64
2, 34920, Note_on_c, 0, 70, 100
2, 35016, Note_off_c, 0, 70, 64
2, 35040, Note_on_c, 0, 72, 100
2, 35136, Note_off_c, 0, 64, 64
2, 35160, Note_on_c, 0, 66, 100
2, 35256, Note_off_c, 0, 66, 64
2, 35280, Note_on_c, 0, 67, 100
2, 35376, Note_off_c, 0, 67, 64
2, 35400, Note_on_c, 0, 69, 100
2, 35496, Note_off_c, 0, 69, 64
2, 35520, Note_on_c, 0, 67, 100
2, 35592, Note_off_c, 0, 72, 64
2, 35616, Note_off_c, 0, 67, 64
2, 35640, Note_on_c, 0, 66, 100
2, 35640, Note_on_c, 0, 74, 100
2, 35736, Note_off_c, 0, 74, 64
2, 35736, Note_off_c, 0, 66, 64
2, 35760, Note_on_c, 0, 70, 100
2, 35760, Note_on_c, 0, 67, 100
2, 35856, Note_off_c, 0, 67, 64
2, 35880, Note_on_c, 0, 66, 100
2, 35952, Note_off_c, 0, 70, 64
2, 35976, Note_off_c, 0, 66, 64
2, 36000, Note_on_c, 0, 72, 100
2, 36000, Note_on_c, 0, 64, 100
2, 36096, Note_off_c, 0, 64, 64
2, 36096, Note_off_c, 0, 72, 64
2, 36120, Note_on_c, 0, 69, 100
2, 36120, Note_on_c, 0, 66, 100
2, 36216, Note_off_c, 0, 66, 64
2, 36240, Note_on_c, 0, 64, 100
2, 36312, Note_off_c, 0, 69, 64
2, 36336, Note_off_c, 0, 64, 64
2, 36360, Note_on_c, 0, 70, 100
2, 36360, Note_on_c, 0, 62, 100
2, 36456, Note_off_c, 0, 62, 64
2, 36456, Note_off_c, 0, 70, 64
2, 36480, Note_on_c, 0, 64, 100
2, 36480, Note_on_c, 0, 72, 100
2, 36576, Note_off_c, 0, 64, 64
2, 36600, Note_on_c, 0, 67, 100
2, 36672, Note_off_c, 0, 72, 64
2, 36696, Note_off_c, 0, 67, 64
2, 36720, Note_on_c, 0, 74, 100
2, 36720, Note_on_c, 0, 66, 100
2, 36816, Note_off_c, 0, 66, 64
2, 36816, Note_off_c, 0, 74, 64
2, 36840, Note_on_c, 0, 67, 100
2, 36840, Note_on_c, 0, 70, 100
2, 37032, Note_off_c, 0, 70, 64
2, 37080, Note_on_c, 0, 72, 100
2, 37176, Note_off_c, 0, 72, 64
2, 37200, Note_on_c, 0, 74, 100
2, 37296, Note_off_c, 0, 67, 64
2, 37320, Note_on_c, 0, 69, 100
2, 37416, Note_off_c, 0, 69, 64
2, 37440, Note_on_c, 0, 70, 100
2, 37536, Note_off_c, 0, 70, 64
2, 37560, Note_on_c, 0, 69, 100
2, 37752, Note_off_c, 0, 74, 64
2, 37800, Note_on_c, 0, 76, 100
2, 37896, Note_off_c, 0, 76, 64
2, 37920, Note_on_c, 0, 78, 100
2, 38016, Note_off_c, 0, 69, 64
2, 38040, Note_on_c, 0, 70, 100
2, 38136, Note_off_c, 0, 70, 64
2, 38160, Note_on_c, 0, 72, 100
2, 38208, Note_off_c, 0, 78, 64
2, 38256, Note_off_c, 0, 72, 64
2, 38280, Note_on_c, 0, 74, 100
2, 38280, Note_on_c, 0, 79, 100
2, 38376, Note_off_c, 0, 74, 64
2, 38400, Note_on_c, 0, 72, 100
2, 38496, Note_off_c, 0, 72, 64
2, 38520, Note_on_c, 0, 70, 100
2, 38568, Note_off_c, 0, 79, 64
2, 38616, Note_off_c, 0, 70, 64
2, 38640, Note_on_c, 0, 72, 100
2, 38640, Note_on_c, 0, 81, 100
2, 38736, Note_off_c, 0, 72, 64
2, 38760, Note_on_c, 0, 70, 100
2, 38856, Note_off_c, 0, 70, 64
2, 38880, Note_on_c, 0, 69, 100
2, 38976, Note_off_c, 0, 69, 64
2, 39000, Note_on_c, 0, 70, 100
2, 39288, Note_off_c, 0, 81, 64
2, 39360, Note_on_c, 0, 79, 100
2, 39576, Note_off_c, 0, 70, 64
2, 39720, Note_on_c, 0, 69, 100
2, 39816, Note_off_c, 0, 79, 64
2, 39840, Note_on_c, 0, 77, 100
2, 39936, Note_off_c, 0, 77, 64
2, 39960, Note_on_c, 0, 76, 100
2, 40056, Note_off_c, 0, 76, 64
2, 40080, Note_on_c, 0, 77, 100
2, 40296, Note_off_c, 0, 69, 64
2, 40440, Note_on_c, 0, 67, 100
2, 40728, Note_off_c, 0, 77, 64
2, 40800, Note_on_c, 0, 75, 100
2, 41016, Note_off_c, 0, 67, 64
2, 41160, Note_on_c, 0, 65, 100
2, 41256, Note_off_c, 0, 75, 64
2, 41280, Note_on_c, 0, 74, 100
2, 41376, Note_off_c, 0, 74, 64
2, 41400, Note_on_c, 0, 72, 100
2, 41496, Note_off_c, 0, 72, 64
2, 41520, Note_on_c, 0, 74, 100
2, 41736, Note_off_c, 0, 65, 64
2, 41880, Note_on_c, 0, 63, 100
2, 42168, Note_off_c, 0, 74, 64
2, 42240, Note_on_c, 0, 72, 100
2, 42456, Note_off_c, 0, 63, 64
2, 42600, Note_on_c, 0, 62, 100
2, 42696, Note_off_c, 0, 72, 64
2, 42720, Note_on_c, 0, 70, 100
2, 42816, Note_off_c, 0, 70, 64
2, 42840, Note_on_c, 0, 69, 100
2, 42936, Note_off_c, 0, 69, 64
2, 42960, Note_on_c, 0, 70, 100
2, 43056, Note_off_c, 0, 62, 64
2, 43080, Note_on_c, 0, 65, 100
2, 43176, Note_off_c, 0, 65, 64
2, 43200, Note_on_c, 0, 64, 100
2, 43248, Note_off_c, 0, 70, 64
2, 43296, Note_off_c, 0, 64, 64
2, 43320, Note_on_c, 0, 65, 100
2, 43440, Note_on_c, 0, 69, 100
2, 43512, Note_off_c, 0, 65, 64
2, 43560, Note_on_c, 0, 64, 100
2, 43632, Note_off_c, 0, 69, 64
2, 43656, Note_off_c, 0, 64, 64
2, 43680, Note_on_c, 0, 62, 100
2, 43800, Note_on_c, 0, 69, 100
2, 43896, Note_off_c, 0, 69, 64
2, 43920, Note_on_c, 0, 67, 100
2, 44016, Note_off_c, 0, 67, 64
2, 44040, Note_on_c, 0, 69, 100
2, 44136, Note_off_c, 0, 62, 64
2, 44160, Note_on_c, 0, 61, 100
2, 44256, Note_off_c, 0, 61, 64
2, 44280, Note_on_c, 0, 59, 100
2, 44328, Note_off_c, 0, 69, 64
2, 44376, Note_off_c, 0, 59, 64
2, 44400, Note_on_c, 0, 61, 100
2, 44520, Note_on_c, 0, 64, 100
2, 44616, Note_off_c, 0, 64, 64
2, 44640, Note_on_c, 0, 67, 100
2, 44688, Note_off_c, 0, 61, 64
2, 44736, Note_off_c, 0, 67, 64
2, 44760, Note_on_c, 0, 65, 100
2, 44760, Note_on_c, 0, 62, 100
2, 45216, Note_off_c, 0, 62, 64
2, 45216, Note_off_c, 0, 65, 64
2, 45240, Note_on_c, 0, 64, 100
2, 45240, Note_on_c, 0, 67, 100
2, 45336, Note_off_c, 0, 67, 64
2, 45336, Note_off_c, 0, 64, 64
2, 45360, Note_on_c, 0, 65, 100
2, 45360, Note_on_c, 0, 69, 100
2, 45456, Note_off_c, 0, 69, 64
2, 45456, Note_off_c, 0, 65, 64
2, 45480, Note_on_c, 0, 64, 100
2, 45480, Note_on_c, 0, 67, 100
2, 45936, Note_off_c, 0, 64, 64
2, 45936, Note_off_c, 0, 67, 64
2, 45960, Note_on_c, 0, 65, 100
2, 45960, Note_on_c, 0, 69, 100
2, 46056, Note_off_c, 0, 69, 64
2, 46056, Note_off_c, 0, 65, 64
2, 46080, Note_on_c, 0, 67, 100
2, 46080, Note_on_c, 0, 70, 100
2, 46176, Note_off_c, 0, 70, 64
2, 46176, Note_off_c, 0, 67, 64
2, 46200, Note_on_c, 0, 69, 100
2, 46200, Note_on_c, 0, 69, 100
2, 46296, Note_off_c, 0, 69, 64
2, 46320, Note_on_c, 0, 74, 100
2, 46416, Note_off_c, 0, 74, 64
2, 46440, Note_on_c, 0, 77, 100
2, 46488, Note_off_c, 0, 69, 64
2, 46536, Note_off_c, 0, 77, 64
2, 46560, Note_on_c, 0, 67, 100
2, 46560, Note_on_c, 0, 67, 100
2, 46656, Note_off_c, 0, 67, 64
2, 46680, Note_on_c, 0, 79, 100
2, 46776, Note_off_c, 0, 79, 64
2, 46800, Note_on_c, 0, 76, 100
2, 46848, Note_off_c, 0, 67, 64
2, 46896, Note_off_c, 0, 76, 64
2, 46920, Note_on_c, 0, 77, 100
2, 47016, Note_off_c, 0, 77, 64
2, 47040, Note_on_c, 0, 81, 100
2, 47136, Note_off_c, 0, 81, 64
2, 47160, Note_on_c, 0, 79, 100
2, 47256, Note_off_c, 0, 79, 64
2, 47280, Note_on_c, 0, 81, 100
2, 47568, Note_off_c, 0, 81, 64
2, 47640, Note_on_c, 0, 69, 100
2, 47736, Note_off_c, 0, 69, 64
2, 47760, Note_on_c, 0, 73, 100
2, 47856, Note_off_c, 0, 73, 64
2, 47880, Note_on_c, 0, 71, 100
2, 47976, Note_off_c, 0, 71, 64
2, 48000, Note_on_c, 0, 73, 100
2, 48096, Note_off_c, 0, 73, 64
2, 48120, Note_on_c, 0, 76, 100
2, 48216, Note_off_c, 0, 76, 64
2, 48240, Note_on_c, 0, 74, 100
2, 48336, Note_off_c, 0, 74, 64
2, 48360, Note_on_c, 0, 76, 100
2, 48648, Note_off_c, 0, 76, 64
2, 48720, Note_on_c, 0, 64, 100
2, 48816, Note_off_c, 0, 64, 64
2, 48840, Note_on_c, 0, 67, 100
2, 48936, Note_off_c, 0, 67, 64
2, 48960, Note_on_c, 0, 65, 100
2, 49056, Note_off_c, 0, 65, 64
2, 49080, Note_on_c, 0, 67, 100
2, 49176, Note_off_c, 0, 67, 64
2, 49200, Note_on_c, 0, 70, 100
2, 49296, Note_off_c, 0, 70, 64
2, 49320, Note_on_c, 0, 69, 100
2, 49416, Note_off_c, 0, 69, 64
2, 49440, Note_on_c, 0, 70, 100
2, 49728, Note_off_c, 0, 70, 64
2, 49800, Note_on_c, 0, 61, 100
2, 49896, Note_off_c, 0, 61, 64
2, 49920, Note_on_c, 0, 64, 100
2, 50016, Note_off_c, 0, 64, 64
2, 50040, Note_on_c, 0, 62, 100
2, 50136, Note_off_c, 0, 62, 64
2, 50160, Note_on_c, 0, 64, 100
2, 50256, Note_off_c, 0, 64, 64
2, 50280, Note_on_c, 0, 67, 100
2, 50376, Note_off_c, 0, 67, 64
2, 50400, Note_on_c, 0, 65, 100
2, 50496, Note_off_c, 0, 65, 64
2, 50520, Note_on_c, 0, 67, 100
2, 50616, Note_off_c, 0, 67, 64
2, 50640, Note_on_c, 0, 70, 100
2, 50736, Note_off_c, 0, 70, 64
2, 50760, Note_on_c, 0, 69, 100
2, 50856, Note_off_c, 0, 69, 64
2, 50880, Note_on_c, 0, 70, 100
2, 50976, Note_off_c, 0, 70, 64
2, 51000, Note_on_c, 0, 69, 100
2, 51096, Note_off_c, 0, 69, 64
2, 51120, Note_on_c, 0, 67, 100
2, 51216, Note_off_c, 0, 67, 64
2, 51240, Note_on_c, 0, 73, 100
2, 51336, Note_off_c, 0, 73, 64
2, 51360, Note_on_c, 0, 70, 100
2, 51456, Note_off_c, 0, 70, 64
2, 51480, Note_on_c, 0, 69, 100
2, 51576, Note_off_c, 0, 69, 64
2, 51600, Note_on_c, 0, 74, 100
2, 51696, Note_off_c, 0, 74, 64
2, 51720, Note_on_c, 0, 69, 100
2, 51816, Note_off_c, 0, 69, 64
2, 51840, Note_on_c, 0, 67, 100
2, 51936, Note_off_c, 0, 67, 64
2, 51960, Note_on_c, 0, 76, 100
2, 52056, Note_off_c, 0, 76, 64
2, 52080, Note_on_c, 0, 69, 100
2, 52176, Note_off_c, 0, 69, 64
2, 52200, Note_on_c, 0, 67, 100
2, 52296, Note_off_c, 0, 67, 64
2, 52320, Note_on_c, 0, 65, 100
2, 52416, Note_off_c, 0, 65, 64
2, 52440, Note_on_c, 0, 67, 100
2, 52536, Note_off_c, 0, 67, 64
2, 52560, Note_on_c, 0, 64, 100
2, 52656, Note_off_c, 0, 64, 64
2, 52680, Note_on_c, 0, 65, 100
2, 52776, Note_off_c, 0, 65, 64
2, 52800, Note_on_c, 0, 64, 100
2, 52896, Note_off_c, 0, 64, 64
2, 52920, Note_on_c, 0, 62, 100
2, 53016, Note_off_c, 0, 62, 64
2, 53040, Note_on_c, 0, 67, 100
2, 53136, Note_off_c, 0, 67, 64
2, 53160, Note_on_c, 0, 64, 100
2, 53256, Note_off_c, 0, 64, 64
2, 53280, Note_on_c, 0, 62, 100
2, 53376, Note_off_c, 0, 62, 64
2, 53400, Note_on_c, 0, 69, 100
2, 53496, Note_off_c, 0, 69, 64
2, 53520, Note_on_c, 0, 64, 100
2, 53616, Note_off_c, 0, 64, 64
2, 53640, Note_on_c, 0, 62, 100
2, 53736, Note_off_c, 0, 62, 64
2, 53760, Note_on_c, 0, 70, 100
2, 53856, Note_off_c, 0, 70, 64
2, 53880, Note_on_c, 0, 64, 100
2, 53976, Note_off_c, 0, 64, 64
2, 54000, Note_on_c, 0, 62, 100
2, 54096, Note_off_c, 0, 62, 64
2, 54120, Note_on_c, 0, 61, 100
2, 54216, Note_off_c, 0, 61, 64
2, 54240, Note_on_c, 0, 62, 100
2, 54336, Note_off_c, 0, 62, 64
2, 54360, Note_on_c, 0, 64, 100
2, 54456, Note_off_c, 0, 64, 64
2, 54480, Note_on_c, 0, 57, 100
2, 54576, Note_off_c, 0, 57, 64
2, 54720, Note_on_c, 0, 81, 100
2, 54816, Note_off_c, 0, 81, 64
2, 54840, Note_on_c, 0, 82, 100
2, 54936, Note_off_c, 0, 82, 64
2, 54960, Note_on_c, 0, 81, 100
2, 55056, Note_off_c, 0, 81, 64
2, 55080, Note_on_c, 0, 79, 100
2, 55176, Note_off_c, 0, 79, 64
2, 55200, Note_on_c, 0, 77, 100
2, 55296, Note_off_c, 0, 77, 64
2, 55320, Note_on_c, 0, 76, 100
2, 55416, Note_off_c, 0, 76, 64
2, 55440, Note_on_c, 0, 74, 100
2, 55536, Note_off_c, 0, 74, 64
2, 55560, Note_on_c, 0, 73, 100
2, 55656, Note_off_c, 0, 73, 64
2, 55680, Note_on_c, 0, 76, 100
2, 55776, Note_off_c, 0, 76, 64
2, 55800, Note_on_c, 0, 69, 100
2, 55896, Note_off_c, 0, 69, 64
2, 55920, Note_on_c, 0, 67, 100
2, 56016, Note_off_c, 0, 67, 64
2, 56040, Note_on_c, 0, 65, 100
2, 56136, Note_off_c, 0, 65, 64
2, 56160, Note_on_c, 0, 64, 100
2, 56256, Note_off_c, 0, 64, 64
2, 56280, Note_on_c, 0, 65, 100
2, 56376, Note_off_c, 0, 65, 64
2, 56400, Note_on_c, 0, 69, 100
2, 56496, Note_off_c, 0, 69, 64
2, 56520, Note_on_c, 0, 74, 100
2, 56616, Note_off_c, 0, 74, 64
2, 56640, Note_on_c, 0, 64, 100
2, 56736, Note_off_c, 0, 64, 64
2, 56760, Note_on_c, 0, 74, 100
2, 56856, Note_off_c, 0, 74, 64
2, 56880, Note_on_c, 0, 73, 100
2, 56976, Note_off_c, 0, 73, 64
2, 57000, Note_on_c, 0, 74, 100
2, 57096, Note_off_c, 0, 74, 64
2, 57120, Note_on_c, 0, 69, 100
2, 57216, Note_off_c, 0, 69, 64
2, 57240, Note_on_c, 0, 66, 100
2, 57336, Note_off_c, 0, 66, 64
2, 57360, Note_on_c, 0, 62, 100
2, 57552, Note_off_c, 0, 62, 64
2, 58440, Note_on_c, 0, 63, 100
2, 58536, Note_off_c, 0, 63, 64
2, 58560, Note_on_c, 0, 60, 100
2, 58656, Note_off_c, 0, 60, 64
2, 58680, Note_on_c, 0, 67, 100
2, 58776, Note_off_c, 0, 67, 64
2, 58800, Note_on_c, 0, 69, 100
2, 58896, Note_off_c, 0, 69, 64
2, 58920, Note_on_c, 0, 70, 100
2, 59016, Note_off_c, 0, 70, 64
2, 59040, Note_on_c, 0, 72, 100
2, 59136, Note_off_c, 0, 72, 64
2, 59160, Note_on_c, 0, 70, 100
2, 59256, Note_off_c, 0, 70, 64
2, 59280, Note_on_c, 0, 67, 100
2, 59376, Note_off_c, 0, 67, 64
2, 59400, Note_on_c, 0, 62, 100
2, 59496, Note_off_c, 0, 62, 64
2, 59520, Note_on_c, 0, 72, 100
2, 59616, Note_off_c, 0, 72, 64
2, 59640, Note_on_c, 0, 64, 100
2, 59736, Note_off_c, 0, 64, 64
2, 59760, Note_on_c, 0, 66, 100
2, 59856, Note_off_c, 0, 66, 64
2, 59880, Note_on_c, 0, 67, 100
2, 59976, Note_off_c, 0, 67, 64
2, 60000, Note_on_c, 0, 64, 100
2, 60096, Note_off_c, 0, 64, 64
2, 60120, Note_on_c, 0, 65, 100
2, 60216, Note_off_c, 0, 65, 64
2, 60240, Note_on_c, 0, 64, 100
2, 60336, Note_off_c, 0, 64, 64
2, 60360, Note_on_c, 0, 61, 100
2, 60456, Note_off_c, 0, 61, 64
2, 60480, Note_on_c, 0, 62, 100
2, 60576, Note_off_c, 0, 62, 64
2, 60600, Note_on_c, 0, 69, 100
2, 61056, Note_off_c, 0, 69, 64
2, 61080, Note_on_c, 0, 67, 100
2, 61176, Note_off_c, 0, 67, 64
2, 61200, Note_on_c, 0, 65, 100
2, 61296, Note_off_c, 0, 65, 64
2, 61320, Note_on_c, 0, 67, 100
2, 61776, Note_off_c, 0, 67, 64
2, 61800, Note_on_c, 0, 65, 100
2, 61896, Note_off_c, 0, 65, 64
2, 61920, Note_on_c, 0, 64, 100
2, 62016, Note_off_c, 0, 64, 64
2, 62040, Note_on_c, 0, 62, 100
2, 62136, Note_off_c, 0, 62, 64
2, 62160, Note_on_c, 0, 64, 100
2, 62256, Note_off_c, 0, 64, 64
2, 62280, Note_on_c, 0, 65, 100
2, 62376, Note_off_c, 0, 65, 64
2, 62400, Note_on_c, 0, 64, 100
2, 62496, Note_off_c, 0, 64, 64
2, 62520, Note_on_c, 0, 69, 100
2, 62616, Note_off_c, 0, 69, 64
2, 62640, Note_on_c, 0, 67, 100
2, 62736, Note_off_c, 0, 67, 64
2, 62760, Note_on_c, 0, 65, 100
2, 62856, Note_off_c, 0, 65, 64
2, 62880, Note_on_c, 0, 64, 100
2, 62976, Note_off_c, 0, 64, 64
2, 63000, Note_on_c, 0, 62, 100
2, 63096, Note_off_c, 0, 62, 64
2, 63120, Note_on_c, 0, 70, 100
2, 63576, Note_off_c, 0, 70, 64
2, 63600, Note_on_c, 0, 69, 100
2, 63696, Note_off_c, 0, 69, 64
2, 63720, Note_on_c, 0, 67, 100
2, 63816, Note_off_c, 0, 67, 64
2, 63840, Note_on_c, 0, 69, 100
2, 63936, Note_off_c, 0, 69, 64
2, 63960, Note_on_c, 0, 67, 100
2, 64056, Note_off_c, 0, 67, 64
2, 64080, Note_on_c, 0, 66, 100
2, 64176, Note_off_c, 0, 66, 64
2, 64200, Note_on_c, 0, 67, 100
2, 64392, Note_off_c, 0, 67, 64
2, 64440, Note_on_c, 0, 75, 100
2, 64536, Note_off_c, 0, 75, 64
2, 64560, Note_on_c, 0, 65, 100
2, 64752, Note_off_c, 0, 65, 64
2, 64800, Note_on_c, 0, 74, 100
2, 64896, Note_off_c, 0, 74, 64
2, 64920, Note_on_c, 0, 63, 100
2, 65016, Note_off_c, 0, 63, 64
2, 65040, Note_on_c, 0, 62, 100
2, 65136, Note_off_c, 0, 62, 64
2, 65160, Note_on_c, 0, 60, 100
2, 65256, Note_off_c, 0, 60, 64
2, 65280, Note_on_c, 0, 62, 100
2, 65376, Note_off_c, 0, 62, 64
2, 65400, Note_on_c, 0, 60, 100
2, 65496, Note_off_c, 0, 60, 64
2, 65520, Note_on_c, 0, 58, 100
2, 65616, Note_off_c, 0, 58, 64
2, 65640, Note_on_c, 0, 60, 100
2, 65832, Note_off_c, 0, 60, 64
2, 65880, Note_on_c, 0, 69, 100
2, 65976, Note_off_c, 0, 69, 64
2, 66000, Note_on_c, 0, 58, 100
2, 66192, Note_off_c, 0, 58, 64
2, 66240, Note_on_c, 0, 67, 100
2, 66240, Note_on_c, 0, 60, 100
2, 66336, Note_off_c, 0, 60, 64
2, 66336, Note_off_c, 0, 67, 64
2, 66360, Note_on_c, 0, 66, 100
2, 66360, Note_on_c, 0, 62, 100
2, 66456, Note_off_c, 0, 66, 64
2, 66480, Note_on_c, 0, 67, 100
2, 66576, Note_off_c, 0, 67, 64
2, 66600, Note_on_c, 0, 69, 100
2, 66696, Note_off_c, 0, 69, 64
2, 66720, Note_on_c, 0, 70, 100
2, 66816, Note_off_c, 0, 62, 64
2, 66816, Note_off_c, 0, 70, 64
2, 66840, Note_on_c, 0, 60, 100
2, 66840, Note_on_c, 0, 72, 100
2, 66936, Note_off_c, 0, 72, 64
2, 66936, Note_off_c, 0, 60, 64
2, 66960, Note_on_c, 0, 58, 100
2, 66960, Note_on_c, 0, 74, 100
2, 67056, Note_off_c, 0, 74, 64
2, 67056, Note_off_c, 0, 58, 64
2, 67080, Note_on_c, 0, 60, 100
2, 67080, Note_on_c, 0, 75, 100
2, 67176, Note_off_c, 0, 75, 64
2, 67200, Note_on_c, 0, 72, 100
2, 67296, Note_off_c, 0, 72, 64
2, 67320, Note_on_c, 0, 79, 100
2, 67416, Note_off_c, 0, 79, 64
2, 67440, Note_on_c, 0, 81, 100
2, 67536, Note_off_c, 0, 60, 64
2, 67536, Note_off_c, 0, 81, 64
2, 67560, Note_on_c, 0, 82, 100
2, 67560, Note_on_c, 0, 58, 100
2, 67656, Note_off_c, 0, 58, 64
2, 67656, Note_off_c, 0, 82, 64
2, 67680, Note_on_c, 0, 84, 100
2, 67680, Note_on_c, 0, 57, 100
2, 67776, Note_off_c, 0, 57, 64
2, 67776, Note_off_c, 0, 84, 64
2, 67800, Note_on_c, 0, 55, 100
2, 67800, Note_on_c, 0, 82, 100
2, 67896, Note_off_c, 0, 82, 64
2, 67920, Note_on_c, 0, 79, 100
2, 68016, Note_off_c, 0, 79, 64
2, 68040, Note_on_c, 0, 74, 100
2, 68088, Note_off_c, 0, 55, 64
2, 68136, Note_off_c, 0, 74, 64
2, 68160, Note_on_c, 0, 84, 100
2, 68256, Note_off_c, 0, 84, 64
2, 68280, Note_on_c, 0, 76, 100
2, 68376, Note_off_c, 0, 76, 64
2, 68400, Note_on_c, 0, 78, 100
2, 68496, Note_off_c, 0, 78, 64
2, 68520, Note_on_c, 0, 79, 100
2, 68616, Note_off_c, 0, 79, 64
2, 68640, Note_on_c, 0, 74, 100
2, 68736, Note_off_c, 0, 74, 64
2, 68760, Note_on_c, 0, 75, 100
2, 68856, Note_off_c, 0, 75, 64
2, 68880, Note_on_c, 0, 77, 100
2, 68976, Note_off_c, 0, 77, 64
2, 69000, Note_on_c, 0, 72, 100
2, 69096, Note_off_c, 0, 72, 64
2, 69120, Note_on_c, 0, 74, 100
2, 69216, Note_off_c, 0, 74, 64
2, 69240, Note_on_c, 0, 75, 100
2, 69528, Note_off_c, 0, 75, 64
2, 69600, Note_on_c, 0, 77, 100
2, 69648, Note_off_c, 0, 77, 64
2, 69660, Note_on_c, 0, 76, 100
2, 69708, Note_off_c, 0, 76, 64
2, 69720, Note_on_c, 0, 77, 100
2, 69768, Note_off_c, 0, 77, 64
2, 69780, Note_on_c, 0, 76, 100
2, 69828, Note_off_c, 0, 76, 64
2, 69840, Note_on_c, 0, 77, 100
2, 69888, Note_off_c, 0, 77, 64
2, 69900, Note_on_c, 0, 76, 100
2, 69948, Note_off_c, 0, 76, 64
2, 69960, Note_on_c, 0, 77, 100
2, 70056, Note_off_c, 0, 77, 64
2, 70080, Note_on_c, 0, 72, 100
2, 70176, Note_off_c, 0, 72, 64
2, 70200, Note_on_c, 0, 74, 100
2, 70296, Note_off_c, 0, 74, 64
2, 70320, Note_on_c, 0, 75, 100
2, 70416, Note_off_c, 0, 75, 64
2, 70440, Note_on_c, 0, 70, 100
2, 70536, Note_off_c, 0, 70, 64
2, 70560, Note_on_c, 0, 72, 100
2, 70656, Note_off_c, 0, 72, 64
2, 70680, Note_on_c, 0, 74, 100
2, 70776, Note_off_c, 0, 74, 64
2, 70800, Note_on_c, 0, 69, 100
2, 70896, Note_off_c, 0, 69, 64
2, 70920, Note_on_c, 0, 70, 100
2, 71016, Note_off_c, 0, 70, 64
2, 71040, Note_on_c, 0, 72, 100
2, 71136, Note_off_c, 0, 72, 64
2, 71160, Note_on_c, 0, 67, 100
2, 71256, Note_off_c, 0, 67, 64
2, 71280, Note_on_c, 0, 69, 100
2, 71376, Note_off_c, 0, 69, 64
2, 71400, Note_on_c, 0, 70, 100
2, 71592, Note_off_c, 0, 70, 64
2, 71640, Note_on_c, 0, 79, 100
2, 71736, Note_off_c, 0, 79, 64
2, 71760, Note_on_c, 0, 68, 100
2, 71952, Note_off_c, 0, 68, 64
2, 72000, Note_on_c, 0, 77, 100
2, 72096, Note_off_c, 0, 77, 64
2, 72120, Note_on_c, 0, 67, 100
2, 72312, Note_off_c, 0, 67, 64
2, 72360, Note_on_c, 0, 75, 100
2, 72456, Note_off_c, 0, 75, 64
2, 72480, Note_on_c, 0, 65, 100
2, 72672, Note_off_c, 0, 65, 64
2, 72720, Note_on_c, 0, 74, 100
2, 72816, Note_off_c, 0, 74, 64
2, 72840, Note_on_c, 0, 63, 100
2, 72936, Note_off_c, 0, 63, 64
2, 72960, Note_on_c, 0, 65, 100
2, 73056, Note_off_c, 0, 65, 64
2, 73080, Note_on_c, 0, 67, 100
2, 73176, Note_off_c, 0, 67, 64
2, 73200, Note_on_c, 0, 62, 100
2, 73296, Note_off_c, 0, 62, 64
2, 73320, Note_on_c, 0, 63, 100
2, 73416, Note_off_c, 0, 63, 64
2, 73440, Note_on_c, 0, 60, 100
2, 73536, Note_off_c, 0, 60, 64
2, 73560, Note_on_c, 0, 59, 100
2, 73656, Note_off_c, 0, 59, 64
2, 73680, Note_on_c, 0, 60, 100
2, 73776, Note_off_c, 0, 60, 64
2, 73800, Note_on_c, 0, 62, 100
2, 73896, Note_off_c, 0, 62, 64
2, 73920, Note_on_c, 0, 63, 100
2, 74016, Note_off_c, 0, 63, 64
2, 74040, Note_on_c, 0, 65, 100
2, 74136, Note_off_c, 0, 65, 64
2, 74160, Note_on_c, 0, 67, 100
2, 74256, Note_off_c, 0, 67, 64
2, 74280, Note_on_c, 0, 68, 100
2, 74376, Note_off_c, 0, 68, 64
2, 74400, Note_on_c, 0, 65, 100
2, 74496, Note_off_c, 0, 65, 64
2, 74520, Note_on_c, 0, 72, 100
2, 74616, Note_off_c, 0, 72, 64
2, 74640, Note_on_c, 0, 74, 100
2, 74736, Note_off_c, 0, 74, 64
2, 74760, Note_on_c, 0, 75, 100
2, 74856, Note_off_c, 0, 75, 64
2, 74880, Note_on_c, 0, 77, 100
2, 74976, Note_off_c, 0, 77, 64
2, 75000, Note_on_c, 0, 79, 100
2, 75096, Note_off_c, 0, 79, 64
2, 75120, Note_on_c, 0, 75, 100
2, 75216, Note_off_c, 0, 75, 64
2, 75240, Note_on_c, 0, 72, 100
2, 75336, Note_off_c, 0, 72, 64
2, 75360, Note_on_c, 0, 77, 100
2, 75456, Note_off_c, 0, 77, 64
2, 75480, Note_on_c, 0, 69, 100
2, 75576, Note_off_c, 0, 69, 64
2, 75600, Note_on_c, 0, 71, 100
2, 75696, Note_off_c, 0, 71, 64
2, 75720, Note_on_c, 0, 75, 100
2, 75816, Note_off_c, 0, 75, 64
2, 75840, Note_on_c, 0, 72, 100
2, 75936, Note_off_c, 0, 72, 64
2, 75960, Note_on_c, 0, 69, 100
2, 76056, Note_off_c, 0, 69, 64
2, 76080, Note_on_c, 0, 74, 100
2, 76176, Note_off_c, 0, 74, 64
2, 76200, Note_on_c, 0, 66, 100
2, 76296, Note_off_c, 0, 66, 64
2, 76320, Note_on_c, 0, 67, 100
2, 76416, Note_off_c, 0, 67, 64
2, 76440, Note_on_c, 0, 72, 100
2, 76536, Note_off_c, 0, 72, 64
2, 76560, Note_on_c, 0, 69, 100
2, 76656, Note_off_c, 0, 69, 64
2, 76680, Note_on_c, 0, 66, 100
2, 76776, Note_off_c, 0, 66, 64
2, 76800, Note_on_c, 0, 70, 100
2, 76896, Note_off_c, 0, 70, 64
2, 76920, Note_on_c, 0, 62, 100
2, 77016, Note_off_c, 0, 62, 64
2, 77040, Note_on_c, 0, 63, 100
2, 77136, Note_off_c, 0, 63, 64
2, 77160, Note_on_c, 0, 69, 100
2, 77256, Note_off_c, 0, 69, 64
2, 77280, Note_on_c, 0, 65, 100
2, 77376, Note_off_c, 0, 65, 64
2, 77400, Note_on_c, 0, 62, 100
2, 77496, Note_off_c, 0, 62, 64
2, 77520, Note_on_c, 0, 67, 100
2, 77616, Note_off_c, 0, 67, 64
2, 77640, Note_on_c, 0, 58, 100
2, 77736, Note_off_c, 0, 58, 64
2, 77760, Note_on_c, 0, 60, 100
2, 77856, Note_off_c, 0, 60, 64
2, 77880, Note_on_c, 0, 62, 100
2, 78336, Note_off_c, 0, 62, 64
2, 78360, Note_on_c, 0, 64, 100
2, 78456, Note_off_c, 0, 64, 64
2, 78480, Note_on_c, 0, 66, 100
2, 78576, Note_off_c, 0, 66, 64
2, 78600, Note_on_c, 0, 67, 100
2, 78696, Note_off_c, 0, 67, 64
2, 78720, Note_on_c, 0, 69, 100
2, 78816, Note_off_c, 0, 69, 64
2, 78840, Note_on_c, 0, 70, 100
2, 78936, Note_off_c, 0, 70, 64
2, 78960, Note_on_c, 0, 72, 100
2, 79056, Note_off_c, 0, 72, 64
2, 79080, Note_on_c, 0, 74, 100
2, 79176, Note_off_c, 0, 74, 64
2, 79200, Note_on_c, 0, 75, 100
2, 79296, Note_off_c, 0, 75, 64
2, 79320, Note_on_c, 0, 74, 100
2, 79512, Note_off_c, 0, 74, 64
2, 79560, Note_on_c, 0, 82, 100
2, 79656, Note_off_c, 0, 82, 64
2, 79680, Note_on_c, 0, 75, 100
2, 79776, Note_off_c, 0, 75, 64
2, 79800, Note_on_c, 0, 74, 100
2, 79896, Note_off_c, 0, 74, 64
2, 79920, Note_on_c, 0, 72, 100
2, 80016, Note_off_c, 0, 72, 64
2, 80040, Note_on_c, 0, 70, 100
2, 80232, Note_off_c, 0, 70, 64
2, 80280, Note_on_c, 0, 79, 100
2, 80376, Note_off_c, 0, 79, 64
2, 80400, Note_on_c, 0, 72, 100
2, 80496, Note_off_c, 0, 72, 64
2, 80520, Note_on_c, 0, 70, 100
2, 80616, Note_off_c, 0, 70, 64
2, 80640, Note_on_c, 0, 68, 100
2, 80736, Note_off_c, 0, 68, 64
2, 80760, Note_on_c, 0, 67, 100
2, 80952, Note_off_c, 0, 67, 64
2, 81000, Note_on_c, 0, 75, 100
2, 81096, Note_off_c, 0, 75, 64
2, 81120, Note_on_c, 0, 68, 100
2, 81216, Note_off_c, 0, 68, 64
2, 81240, Note_on_c, 0, 67, 100
2, 81336, Note_off_c, 0, 67, 64
2, 81360, Note_on_c, 0, 65, 100
2, 81456, Note_off_c, 0, 65, 64
2, 81480, Note_on_c, 0, 63, 100
2, 81576, Note_off_c, 0, 63, 64
2, 81600, Note_on_c, 0, 72, 100
2, 81696, Note_off_c, 0, 72, 64
2, 81720, Note_on_c, 0, 63, 100
2, 81816, Note_off_c, 0, 63, 64
2, 81840, Note_on_c, 0, 62, 100
2, 81936, Note_off_c, 0, 62, 64
2, 81960, Note_on_c, 0, 72, 100
2, 82056, Note_off_c, 0, 72, 64
2, 82080, Note_on_c, 0, 70, 100
2, 82176, Note_off_c, 0, 70, 64
2, 82200, Note_on_c, 0, 60, 100
2, 82296, Note_off_c, 0, 60, 64
2, 82320, Note_on_c, 0, 70, 100
2, 82416, Note_off_c, 0, 70, 64
2, 82440, Note_on_c, 0, 69, 100
2, 82536, Note_off_c, 0, 69, 64
2, 82560, Note_on_c, 0, 62, 100
2, 82656, Note_off_c, 0, 62, 64
2, 82680, Note_on_c, 0, 72, 100
2, 82776, Note_off_c, 0, 72, 64
2, 82800, Note_on_c, 0, 70, 100
2, 82896, Note_off_c, 0, 70, 64
2, 82920, Note_on_c, 0, 64, 100
2, 83016, Note_off_c, 0, 64, 64
2, 83040, Note_on_c, 0, 74, 100
2, 83136, Note_off_c, 0, 74, 64
2, 83160, Note_on_c, 0, 72, 100
2, 83256, Note_off_c, 0, 72, 64
2, 83280, Note_on_c, 0, 66, 100
2, 83376, Note_off_c, 0, 66, 64
2, 83400, Note_on_c, 0, 75, 100
2, 83496, Note_off_c, 0, 75, 64
2, 83520, Note_on_c, 0, 74, 100
2, 83616, Note_off_c, 0, 74, 64
2, 83640, Note_on_c, 0, 67, 100
2, 83736, Note_off_c, 0, 67, 64
2, 83760, Note_on_c, 0, 72, 100
2, 83856, Note_off_c, 0, 72, 64
2, 83880, Note_on_c, 0, 70, 100
2, 83976, Note_off_c, 0, 70, 64
2, 84000, Note_on_c, 0, 69, 100
2, 84096, Note_off_c, 0, 69, 64
2, 84120, Note_on_c, 0, 70, 100
2, 84216, Note_off_c, 0, 70, 64
2, 84240, Note_on_c, 0, 67, 100
2, 84336, Note_off_c, 0, 67, 64
2, 84360, Note_on_c, 0, 66, 100
2, 84456, Note_off_c, 0, 66, 64
2, 84480, Note_on_c, 0, 63, 100
2, 84576, Note_off_c, 0, 63, 64
2, 84600, Note_on_c, 0, 62, 100
2, 84696, Note_off_c, 0, 62, 64
2, 84720, Note_on_c, 0, 67, 100
2, 84816, Note_off_c, 0, 67, 64
2, 84840, Note_on_c, 0, 62, 100
2, 84936, Note_off_c, 0, 62, 64
2, 84960, Note_on_c, 0, 60, 100
2, 85056, Note_off_c, 0, 60, 64
2, 85080, Note_on_c, 0, 69, 100
2, 85176, Note_off_c, 0, 69, 64
2, 85200, Note_on_c, 0, 62, 100
2, 85296, Note_off_c, 0, 62, 64
2, 85320, Note_on_c, 0, 60, 100
2, 85416, Note_off_c, 0, 60, 64
2, 87960, Note_on_c, 0, 63, 100
2, 88056, Note_off_c, 0, 63, 64
2, 88080, Note_on_c, 0, 60, 100
2, 88176, Note_off_c, 0, 60, 64
2, 88200, Note_on_c, 0, 67, 100
2, 88296, Note_off_c, 0, 67, 64
2, 88320, Note_on_c, 0, 69, 100
2, 88416, Note_off_c, 0, 69, 64
2, 88440, Note_on_c, 0, 70, 100
2, 88536, Note_off_c, 0, 70, 64
2, 88560, Note_on_c, 0, 72, 100
2, 88656, Note_off_c, 0, 72, 64
2, 88680, Note_on_c, 0, 74, 100
2, 88776, Note_off_c, 0, 74, 64
2, 88800, Note_on_c, 0, 70, 100
2, 88896, Note_off_c, 0, 70, 64
2, 88920, Note_on_c, 0, 67, 100
2, 89016, Note_off_c, 0, 67, 64
2, 89040, Note_on_c, 0, 72, 100
2, 89136, Note_off_c, 0, 72, 64
2, 89160, Note_on_c, 0, 64, 100
2, 89256, Note_off_c, 0, 64, 64
2, 89280, Note_on_c, 0, 66, 100
2, 89376, Note_off_c, 0, 66, 64
2, 89400, Note_on_c, 0, 67, 100
2, 89592, Note_off_c, 0, 67, 64
2, 89640, Note_on_c, 0, 74, 100
2, 89736, Note_off_c, 0, 74, 64
2, 89760, Note_on_c, 0, 79, 100
2, 89856, Note_off_c, 0, 79, 64
2, 89880, Note_on_c, 0, 77, 100
2, 89976, Note_off_c, 0, 77, 64
2, 90000, Note_on_c, 0, 75, 100
2, 90096, Note_off_c, 0, 75, 64
2, 90120, Note_on_c, 0, 74, 100
2, 90216, Note_off_c, 0, 74, 64
2, 90240, Note_on_c, 0, 72, 100
2, 90336, Note_off_c, 0, 72, 64
2, 90360, Note_on_c, 0, 70, 100
2, 90456, Note_off_c, 0, 70, 64
2, 90480, Note_on_c, 0, 69, 100
2, 90576, Note_off_c, 0, 69, 64
2, 90600, Note_on_c, 0, 67, 100
2, 90696, Note_off_c, 0, 67, 64
2, 90720, Note_on_c, 0, 66, 100
2, 90816, Note_off_c, 0, 66, 64
2, 90840, Note_on_c, 0, 67, 100
2, 90936, Note_off_c, 0, 67, 64
2, 90960, Note_on_c, 0, 75, 100
2, 91056, Note_off_c, 0, 75, 64
2, 91080, Note_on_c, 0, 74, 100
2, 91176, Note_off_c, 0, 74, 64
2, 91200, Note_on_c, 0, 70, 100
2, 91224, Note_off_c, 0, 70, 64
2, 91230, Note_on_c, 0, 72, 100
2, 91254, Note_off_c, 0, 72, 64
2, 91260, Note_on_c, 0, 70, 100
2, 91308, Note_off_c, 0, 70, 64
2, 91320, Note_on_c, 0, 69, 100
2, 91416, Note_off_c, 0, 69, 64
2, 91440, Note_on_c, 0, 67, 100
2, 91536, Note_off_c, 0, 67, 64
2, 91560, Note_on_c, 0, 67, 100
2, 91656, Note_off_c, 0, 67, 64
2, 91680, Note_on_c, 0, 62, 100
2, 91776, Note_off_c, 0, 62, 64
2, 91800, Note_on_c, 0, 58, 100
2, 91896, Note_off_c, 0, 58, 64
2, 91920, Note_on_c, 0, 55, 100
2, 92112, Note_off_c, 0, 55, 64
2, 93000, Note_on_c, 0, 63, 100
2, 93096, Note_off_c, 0, 63, 64
2, 93120, Note_on_c, 0, 60, 100
2, 93216, Note_off_c, 0, 60, 64
2, 93240, Note_on_c, 0, 67, 100
2, 93336, Note_off_c, 0, 67, 64
2, 93360, Note_on_c, 0, 69, 100
2, 93456, Note_off_c, 0, 69, 64
2, 93480, Note_on_c, 0, 70, 100
2, 93576, Note_off_c, 0, 70, 64
2, 93600, Note_on_c, 0, 72, 100
2, 93696, Note_off_c, 0, 72, 64
2, 93720, Note_on_c, 0, 70, 100
2, 93816, Note_off_c, 0, 70, 64
2, 93840, Note_on_c, 0, 67, 100
2, 93936, Note_off_c, 0, 67, 64
2, 93960, Note_on_c, 0, 62, 100
2, 94056, Note_off_c, 0, 62, 64
2, 94080, Note_on_c, 0, 72, 100
2, 94176, Note_off_c, 0, 72, 64
2, 94200, Note_on_c, 0, 64, 100
2, 94296, Note_off_c, 0, 64, 64
2, 94320, Note_on_c, 0, 66, 100
2, 94416, Note_off_c, 0, 66, 64
2, 94440, Note_on_c, 0, 67, 100
2, 94536, Note_off_c, 0, 67, 64
2, 94560, Note_on_c, 0, 64, 100
2, 94656, Note_off_c, 0, 64, 64
2, 94680, Note_on_c, 0, 65, 100
2, 94776, Note_off_c, 0, 65, 64
2, 94800, Note_on_c, 0, 64, 100
2, 94896, Note_off_c, 0, 64, 64
2, 94920, Note_on_c, 0, 61, 100
2, 95016, Note_off_c, 0, 61, 64
2, 95040, Note_on_c, 0, 62, 100
2, 95136, Note_off_c, 0, 62, 64
2, 95160, Note_on_c, 0, 69, 100
2, 95616, Note_off_c, 0, 69, 64
2, 95640, Note_on_c, 0, 67, 100
2, 95736, Note_off_c, 0, 67, 64
2, 95760, Note_on_c, 0, 65, 100
2, 95856, Note_off_c, 0, 65, 64
2, 95880, Note_on_c, 0, 67, 100
2, 96336, Note_off_c, 0, 67, 64
2, 96360, Note_on_c, 0, 65, 100
2, 96456, Note_off_c, 0, 65, 64
2, 96480, Note_on_c, 0, 64, 100
2, 96576, Note_off_c, 0, 64, 64
2, 96600, Note_on_c, 0, 62, 100
2, 96696, Note_off_c, 0, 62, 64
2, 96720, Note_on_c, 0, 64, 100
2, 96816, Note_off_c, 0, 64, 64
2, 96840, Note_on_c, 0, 65, 100
2, 96936, Note_off_c, 0, 65, 64
2, 96960, Note_on_c, 0, 64, 100
2, 97056, Note_off_c, 0, 64, 64
2, 97080, Note_on_c, 0, 69, 100
2, 97176, Note_off_c, 0, 69, 64
2, 97200, Note_on_c, 0, 67, 100
2, 97296, Note_off_c, 0, 67, 64
2, 97320, Note_on_c, 0, 65, 100
2, 97416, Note_off_c, 0, 65, 64
2, 97440, Note_on_c, 0, 64, 100
2, 97536, Note_off_c, 0, 64, 64
2, 97560, Note_on_c, 0, 62, 100
2, 97656, Note_off_c, 0, 62, 64
2, 97680, Note_on_c, 0, 70, 100
2, 98136, Note_off_c, 0, 70, 64
2, 98160, Note_on_c, 0, 69, 100
2, 98256, Note_off_c, 0, 69, 64
2, 98280, Note_on_c, 0, 67, 100
2, 98376, Note_off_c, 0, 67, 64
2, 98400, Note_on_c, 0, 69, 100
2, 98496, Note_off_c, 0, 69, 64
2, 98520, Note_on_c, 0, 67, 100
2, 98616, Note_off_c, 0, 67, 64
2, 98640, Note_on_c, 0, 66, 100
2, 98736, Note_off_c, 0, 66, 64
2, 98760, Note_on_c, 0, 67, 100
2, 98952, Note_off_c, 0, 67, 64
2, 99000, Note_on_c, 0, 75, 100
2, 99096, Note_off_c, 0, 75, 64
2, 99120, Note_on_c, 0, 65, 100
2, 99312, Note_off_c, 0, 65, 64
2, 99360, Note_on_c, 0, 74, 100
2, 99456, Note_off_c, 0, 74, 64
2, 99480, Note_on_c, 0, 63, 100
2, 99576, Note_off_c, 0, 63, 64
2, 99600, Note_on_c, 0, 62, 100
2, 99696, Note_off_c, 0, 62, 64
2, 99720, Note_on_c, 0, 60, 100
2, 99816, Note_off_c, 0, 60, 64
2, 99840, Note_on_c, 0, 62, 100
2, 99936, Note_off_c, 0, 62, 64
2, 99960, Note_on_c, 0, 60, 100
2, 100056, Note_off_c, 0, 60, 64
2, 100080, Note_on_c, 0, 58, 100
2, 100176, Note_off_c, 0, 58, 64
2, 100200, Note_on_c, 0, 60, 100
2, 100392, Note_off_c, 0, 60, 64
2, 100440, Note_on_c, 0, 69, 100
2, 100536, Note_off_c, 0, 69, 64
2, 100560, Note_on_c, 0, 58, 100
2, 100752, Note_off_c, 0, 58, 64
2, 100800, Note_on_c, 0, 67, 100
2, 100800, Note_on_c, 0, 60, 100
2, 100896, Note_off_c, 0, 60, 64
2, 100896, Note_off_c, 0, 67, 64
2, 100920, Note_on_c, 0, 66, 100
2, 100920, Note_on_c, 0, 62, 100
2, 101016, Note_off_c, 0, 66, 64
2, 101040, Note_on_c, 0, 67, 100
2, 101136, Note_off_c, 0, 67, 64
2, 101160, Note_on_c, 0, 69, 100
2, 101256, Note_off_c, 0, 69, 64
2, 101280, Note_on_c, 0, 70, 100
2, 101376, Note_off_c, 0, 62, 64
2, 101376, Note_off_c, 0, 70, 64
2, 101400, Note_on_c, 0, 60, 100
2, 101400, Note_on_c, 0, 72, 100
2, 101496, Note_off_c, 0, 72, 64
2, 101496, Note_off_c, 0, 60, 64
2, 101520, Note_on_c, 0, 58, 100
2, 101520, Note_on_c, 0, 74, 100
2, 101616, Note_off_c, 0, 74, 64
2, 101616, Note_off_c, 0, 58, 64
2, 101640, Note_on_c, 0, 60, 100
2, 101640, Note_on_c, 0, 75, 100
2, 101736, Note_off_c, 0, 75, 64
2, 101760, Note_on_c, 0, 72, 100
2, 101856, Note_off_c, 0, 72, 64
2, 101880, Note_on_c, 0, 79, 100
2, 101976, Note_off_c, 0, 79, 64
2, 102000, Note_on_c, 0, 81, 100
2, 102096, Note_off_c, 0, 60, 64
2, 102096, Note_off_c, 0, 81, 64
2, 102120, Note_on_c, 0, 82, 100
2, 102120, Note_on_c, 0, 58, 100
2, 102216, Note_off_c, 0, 58, 64
2, 102216, Note_off_c, 0, 82, 64
2, 102240, Note_on_c, 0, 84, 100
2, 102240, Note_on_c, 0, 57, 100
2, 102336, Note_off_c, 0, 57, 64
2, 102336, Note_off_c, 0, 84, 64
2, 102360, Note_on_c, 0, 55, 100
2, 102360, Note_on_c, 0, 82, 100
2, 102456, Note_off_c, 0, 82, 64
2, 102480, Note_on_c, 0, 79, 100
2, 102576, Note_off_c, 0, 79, 64
2, 102600, Note_on_c, 0, 74, 100
2, 102648, Note_off_c, 0, 55, 64
2, 102696, Note_off_c, 0, 74, 64
2, 102720, Note_on_c, 0, 84, 100
2, 102816, Note_off_c, 0, 84, 64
2, 102840, Note_on_c, 0, 76, 100
2, 102936, Note_off_c, 0, 76, 64
2, 102960, Note_on_c, 0, 78, 100
2, 103056, Note_off_c, 0, 78, 64
2, 103080, Note_on_c, 0, 79, 100
2, 103176, Note_off_c, 0, 79, 64
2, 103200, Note_on_c, 0, 74, 100
2, 103296, Note_off_c, 0, 74, 64
2, 103320, Note_on_c, 0, 75, 100
2, 103416, Note_off_c, 0, 75, 64
2, 103440, Note_on_c, 0, 77, 100
2, 103536, Note_off_c, 0, 77, 64
2, 103560, Note_on_c, 0, 72, 100
2, 103656, Note_off_c, 0, 72, 64
2, 103680, Note_on_c, 0, 74, 100
2, 103776, Note_off_c, 0, 74, 64
2, 103800, Note_on_c, 0, 75, 100
2, 104088, Note_off_c, 0, 75, 64
2, 104160, Note_on_c, 0, 77, 100
2, 104208, Note_off_c, 0, 77, 64
2, 104220, Note_on_c, 0, 76, 100
2, 104268, Note_off_c, 0, 76, 64
2, 104280, Note_on_c, 0, 77, 100
2, 104328, Note_off_c, 0, 77, 64
2, 104340, Note_on_c, 0, 76, 100
2, 104388, Note_off_c, 0, 76, 64
2, 104400, Note_on_c, 0, 77, 100
2, 104448, Note_off_c, 0, 77, 64
2, 104460, Note_on_c, 0, 76, 100
2, 104508, Note_off_c, 0, 76, 64
2, 104520, Note_on_c, 0, 77, 100
2, 104616, Note_off_c, 0, 77, 64
2, 104640, Note_on_c, 0, 72, 100
2, 104736, Note_off_c, 0, 72, 64
2, 104760, Note_on_c, 0, 74, 100
2, 104856, Note_off_c, 0, 74, 64
2, 104880, Note_on_c, 0, 75, 100
2, 104976, Note_off_c, 0, 75, 64
2, 105000, Note_on_c, 0, 70, 100
2, 105096, Note_off_c, 0, 70, 64
2, 105120, Note_on_c, 0, 72, 100
2, 105216, Note_off_c, 0, 72, 64
2, 105240, Note_on_c, 0, 74, 100
2, 105336, Note_off_c, 0, 74, 64
2, 105360, Note_on_c, 0, 69, 100
2, 105456, Note_off_c, 0, 69, 64
2, 105480, Note_on_c, 0, 70, 100
2, 105576, Note_off_c, 0, 70, 64
2, 105600, Note_on_c, 0, 72, 100
2, 105696, Note_off_c, 0, 72, 64
2, 105720, Note_on_c, 0, 67, 100
2, 105816, Note_off_c, 0, 67, 64
2, 105840, Note_on_c, 0, 69, 100
2, 105936, Note_off_c, 0, 69, 64
2, 105960, Note_on_c, 0, 70, 100
2, 106152, Note_off_c, 0, 70, 64
2, 106200, Note_on_c, 0, 79, 100
2, 106296, Note_off_c, 0, 79, 64
2, 106320, Note_on_c, 0, 68, 100
2, 106512, Note_off_c, 0, 68, 64
2, 106560, Note_on_c, 0, 77, 100
2, 106656, Note_off_c, 0, 77, 64
2, 106680, Note_on_c, 0, 67, 100
2, 106872, Note_off_c, 0, 67, 64
2, 106920, Note_on_c, 0, 75, 100
2, 107016, Note_off_c, 0, 75, 64
2, 107040, Note_on_c, 0, 65, 100
2, 107232, Note_off_c, 0, 65, 64
2, 107280, Note_on_c, 0, 74, 100
2, 107376, Note_off_c, 0, 74, 64
2, 107400, Note_on_c, 0, 63, 100
2, 107496, Note_off_c, 0, 63, 64
2, 107520, Note_on_c, 0, 65, 100
2, 107616, Note_off_c, 0, 65, 64
2, 107640, Note_on_c, 0, 67, 100
2, 107736, Note_off_c, 0, 67, 64
2, 107760, Note_on_c, 0, 62, 100
2, 107856, Note_off_c, 0, 62, 64
2, 107880, Note_on_c, 0, 63, 100
2, 107976, Note_off_c, 0, 63, 64
2, 108000, Note_on_c, 0, 60, 100
2, 108096, Note_off_c, 0, 60, 64
2, 108120, Note_on_c, 0, 59, 100
2, 108216, Note_off_c, 0, 59, 64
2, 108240, Note_on_c, 0, 60, 100
2, 108336, Note_off_c, 0, 60, 64
2, 108360, Note_on_c, 0, 62, 100
2, 108456, Note_off_c, 0, 62, 64
2, 108480, Note_on_c, 0, 63, 100
2, 108576, Note_off_c, 0, 63, 64
2, 108600, Note_on_c, 0, 65, 100
2, 108696, Note_off_c, 0, 65, 64
2, 108720, Note_on_c, 0, 67, 100
2, 108816, Note_off_c, 0, 67, 64
2, 108840, Note_on_c, 0, 68, 100
2, 108936, Note_off_c, 0, 68, 64
2, 108960, Note_on_c, 0, 65, 100
2, 109056, Note_off_c, 0, 65, 64
2, 109080, Note_on_c, 0, 72, 100
2, 109176, Note_off_c, 0, 72, 64
2, 109200, Note_on_c, 0, 74, 100
2, 109296, Note_off_c, 0, 74, 64
2, 109320, Note_on_c, 0, 75, 100
2, 109416, Note_off_c, 0, 75, 64
2, 109440, Note_on_c, 0, 77, 100
2, 109536, Note_off_c, 0, 77, 64
2, 109560, Note_on_c, 0, 79, 100
2, 109656, Note_off_c, 0, 79, 64
2, 109680, Note_on_c, 0, 75, 100
2, 109776, Note_off_c, 0, 75, 64
2, 109800, Note_on_c, 0, 72, 100
2, 109896, Note_off_c, 0, 72, 64
2, 109920, Note_on_c, 0, 77, 100
2, 110016, Note_off_c, 0, 77, 64
2, 110040, Note_on_c, 0, 69, 100
2, 110136, Note_off_c, 0, 69, 64
2, 110160, Note_on_c, 0, 71, 100
2, 110256, Note_off_c, 0, 71, 64
2, 110280, Note_on_c, 0, 75, 100
2, 110376, Note_off_c, 0, 75, 64
2, 110400, Note_on_c, 0, 72, 100
2, 110496, Note_off_c, 0, 72, 64
2, 110520, Note_on_c, 0, 69, 100
2, 110616, Note_off_c, 0, 69, 64
2, 110640, Note_on_c, 0, 74, 100
2, 110736, Note_off_c, 0, 74, 64
2, 110760, Note_on_c, 0, 66, 100
2, 110856, Note_off_c, 0, 66, 64
2, 110880, Note_on_c, 0, 67, 100
2, 110976, Note_off_c, 0, 67, 64
2, 111000, Note_on_c, 0, 72, 100
2, 111096, Note_off_c, 0, 72, 64
2, 111120, Note_on_c, 0, 69, 100
2, 111216, Note_off_c, 0, 69, 64
2, 111240, Note_on_c, 0, 66, 100
2, 111336, Note_off_c, 0, 66, 64
2, 111360, Note_on_c, 0, 70, 100
2, 111456, Note_off_c, 0, 70, 64
2, 111480, Note_on_c, 0, 62, 100
2, 111576, Note_off_c, 0, 62, 64
2, 111600, Note_on_c, 0, 63, 100
2, 111696, Note_off_c, 0, 63, 64
2, 111720, Note_on_c, 0, 69, 100
2, 111816, Note_off_c, 0, 69, 64
2, 111840, Note_on_c, 0, 65, 100
2, 111936, Note_off_c, 0, 65, 64
2, 111960, Note_on_c, 0, 62, 100
2, 112056, Note_off_c, 0, 62, 64
2, 112080, Note_on_c, 0, 67, 100
2, 112176, Note_off_c, 0, 67, 64
2, 112200, Note_on_c, 0, 58, 100
2, 112296, Note_off_c, 0, 58, 64
2, 112320, Note_on_c, 0, 60, 100
2, 112416, Note_off_c, 0, 60, 64
2, 112440, Note_on_c, 0, 62, 100
2, 112896, Note_off_c, 0, 62, 64
2, 112920, Note_on_c, 0, 64, 100
2, 113016, Note_off_c, 0, 64, 64
2, 113040, Note_on_c, 0, 66, 100
2, 113136, Note_off_c, 0, 66, 64
2, 113160, Note_on_c, 0, 67, 100
2, 113256, Note_off_c, 0, 67, 64
2, 113280, Note_on_c, 0, 69, 100
2, 113376, Note_off_c, 0, 69, 64
2, 113400, Note_on_c, 0, 70, 100
2, 113496, Note_off_c, 0, 70, 64
2, 113520, Note_on_c, 0, 72, 100
2, 113616, Note_off_c, 0, 72, 64
2, 113640, Note_on_c, 0, 74, 100
2, 113736, Note_off_c, 0, 74, 64
2, 113760, Note_on_c, 0, 75, 100
2, 113856, Note_off_c, 0, 75, 64
2, 113880, Note_on_c, 0, 74, 100
2, 114072, Note_off_c, 0, 74, 64
2, 114120, Note_on_c, 0, 82, 100
2, 114216, Note_off_c, 0, 82, 64
2, 114240, Note_on_c, 0, 75, 100
2, 114336, Note_off_c, 0, 75, 64
2, 114360, Note_on_c, 0, 74, 100
2, 114456, Note_off_c, 0, 74, 64
2, 114480, Note_on_c, 0, 72, 100
2, 114576, Note_off_c, 0, 72, 64
2, 114600, Note_on_c, 0, 70, 100
2, 114792, Note_off_c, 0, 70, 64
2, 114840, Note_on_c, 0, 79, 100
2, 114936, Note_off_c, 0, 79, 64
2, 114960, Note_on_c, 0, 72, 100
2, 115056, Note_off_c, 0, 72, 64
2, 115080, Note_on_c, 0, 70, 100
2, 115176, Note_off_c, 0, 70, 64
2, 115200, Note_on_c, 0, 68, 100
2, 115296, Note_off_c, 0, 68, 64
2, 115320, Note_on_c, 0, 67, 100
2, 115512, Note_off_c, 0, 67, 64
2, 115560, Note_on_c, 0, 75, 100
2, 115656, Note_off_c, 0, 75, 64
2, 115680, Note_on_c, 0, 68, 100
2, 115776, Note_off_c, 0, 68, 64
2, 115800, Note_on_c, 0, 67, 100
2, 115896, Note_off_c, 0, 67, 64
2, 115920, Note_on_c, 0, 65, 100
2, 116016, Note_off_c, 0, 65, 64
2, 116040, Note_on_c, 0, 63, 100
2, 116136, Note_off_c, 0, 63, 64
2, 116160, Note_on_c, 0, 72, 100
2, 116256, Note_off_c, 0, 72, 64
2, 116280, Note_on_c, 0, 63, 100
2, 116376, Note_off_c, 0, 63, 64
2, 116400, Note_on_c, 0, 62, 100
2, 116496, Note_off_c, 0, 62, 64
2, 116520, Note_on_c, 0, 72, 100
2, 116616, Note_off_c, 0, 72, 64
2, 116640, Note_on_c, 0, 70, 100
2, 116736, Note_off_c, 0, 70, 64
2, 116760, Note_on_c, 0, 60, 100
2, 116856, Note_off_c, 0, 60, 64
2, 116880, Note_on_c, 0, 70, 100
2, 116976, Note_off_c, 0, 70, 64
2, 117000, Note_on_c, 0, 69, 100
2, 117096, Note_off_c, 0, 69, 64
2, 117120, Note_on_c, 0, 62, 100
2, 117216, Note_off_c, 0, 62, 64
2, 117240, Note_on_c, 0, 72, 100
2, 117336, Note_off_c, 0, 72, 64
2, 117360, Note_on_c, 0, 70, 100
2, 117456, Note_off_c, 0, 70, 64
2, 117480, Note_on_c, 0, 64, 100
2, 117576, Note_off_c, 0, 64, 64
2, 117600, Note_on_c, 0, 74, 100
2, 117696, Note_off_c, 0, 74, 64
2, 117720, Note_on_c, 0, 72, 100
2, 117816, Note_off_c, 0, 72, 64
2, 117840, Note_on_c, 0, 66, 100
2, 117936, Note_off_c, 0, 66, 64
2, 117960, Note_on_c, 0, 75, 100
2, 118056, Note_off_c, 0, 75, 64
2, 118080, Note_on_c, 0, 74, 100
2, 118176, Note_off_c, 0, 74, 64
2, 118200, Note_on_c, 0, 67, 100
2, 118296, Note_off_c, 0, 67, 64
2, 118320, Note_on_c, 0, 72, 100
2, 118416, Note_off_c, 0, 72, 64
2, 118440, Note_on_c, 0, 70, 100
2, 118536, Note_off_c, 0, 70, 64
2, 118560, Note_on_c, 0, 69, 100
2, 118656, Note_off_c, 0, 69, 64
2, 118680, Note_on_c, 0, 70, 100
2, 118776, Note_off_c, 0, 70, 64
2, 118800, Note_on_c, 0, 67, 100
2, 118896, Note_off_c, 0, 67, 64
2, 118920, Note_on_c, 0, 66, 100
2, 119016, Note_off_c, 0, 66, 64
2, 119040, Note_on_c, 0, 63, 100
2, 119136, Note_off_c, 0, 63, 64
2, 119160, Note_on_c, 0, 62, 100
2, 119256, Note_off_c, 0, 62, 64
2, 119280, Note_on_c, 0, 67, 100
2, 119376, Note_off_c, 0, 67, 64
2, 119400, Note_on_c, 0, 62, 100
2, 119496, Note_off_c, 0, 62, 64
2, 119520, Note_on_c, 0, 60, 100
2, 119616, Note_off_c, 0, 60, 64
2, 119640, Note_on_c, 0, 69, 100
2, 119736, Note_off_c, 0, 69, 64
2, 119760, Note_on_c, 0, 62, 100
2, 119856, Note_off_c, 0, 62, 64
2, 119880, Note_on_c, 0, 60, 100
2, 119976, Note_off_c, 0, 60, 64
2, 122520, Note_on_c, 0, 63, 100
2, 122616, Note_off_c, 0, 63, 64
2, 122640, Note_on_c, 0, 60, 100
2, 122736, Note_off_c, 0, 60, 64
2, 122760, Note_on_c, 0, 67, 100
2, 122856, Note_off_c, 0, 67, 64
2, 122880, Note_on_c, 0, 69, 100
2, 122976, Note_off_c, 0, 69, 64
2, 123000, Note_on_c, 0, 70, 100
2, 123096, Note_off_c, 0, 70, 64
2, 123120, Note_on_c, 0, 72, 100
2, 123216, Note_off_c, 0, 72, 64
2, 123240, Note_on_c, 0, 74, 100
2, 123336, Note_off_c, 0, 74, 64
2, 123360, Note_on_c, 0, 70, 100
2, 123456, Note_off_c, 0, 70, 64
2, 123480, Note_on_c, 0, 67, 100
2, 123576, Note_off_c, 0, 67, 64
2, 123600, Note_on_c, 0, 72, 100
2, 123696, Note_off_c, 0, 72, 64
2, 123720, Note_on_c, 0, 64, 100
2, 123816, Note_off_c, 0, 64, 64
2, 123840, Note_on_c, 0, 66, 100
2, 123936, Note_off_c, 0, 66, 64
2, 123960, Note_on_c, 0, 67, 100
2, 124152, Note_off_c, 0, 67, 64
2, 124200, Note_on_c, 0, 74, 100
2, 124296, Note_off_c, 0, 74, 64
2, 124320, Note_on_c, 0, 79, 100
2, 124416, Note_off_c, 0, 79, 64
2, 124440, Note_on_c, 0, 77, 100
2, 124536, Note_off_c, 0, 77, 64
2, 124560, Note_on_c, 0, 75, 100
2, 124656, Note_off_c, 0, 75, 64
2, 124680, Note_on_c, 0, 74, 100
2, 124776, Note_off_c, 0, 74, 64
2, 124800, Note_on_c, 0, 72, 100
2, 124896, Note_off_c, 0, 72, 64
2, 124920, Note_on_c, 0, 70, 100
2, 125016, Note_off_c, 0, 70, 64
2, 125040, Note_on_c, 0, 69, 100
2, 125136, Note_off_c, 0, 69, 64
2, 125160, Note_on_c, 0, 67, 100
2, 125256, Note_off_c, 0, 67, 64
2, 125280, Note_on_c, 0, 66, 100
2, 125376, Note_off_c, 0, 66, 64
2, 125400, Note_on_c, 0, 67, 100
2, 125496, Note_off_c, 0, 67, 64
2, 125520, Note_on_c, 0, 75, 100
2, 125616, Note_off_c, 0, 75, 64
2, 125640, Note_on_c, 0, 74, 100
2, 125736, Note_off_c, 0, 74, 64
2, 125760, Note_on_c, 0, 70, 100
2, 125784, Note_off_c, 0, 70, 64
2, 125790, Note_on_c, 0, 72, 100
2, 125814, Note_off_c, 0, 72, 64
2, 125820, Note_on_c, 0, 70, 100
2, 125868, Note_off_c, 0, 70, 64
2, 125880, Note_on_c, 0, 69, 100
2, 125976, Note_off_c, 0, 69, 64
2, 126000, Note_on_c, 0, 67, 100
2, 126096, Note_off_c, 0, 67, 64
2, 126120, Note_on_c, 0, 67, 100
2, 126216, Note_off_c, 0, 67, 64
2, 126240, Note_on_c, 0, 62, 100
2, 126336, Note_off_c, 0, 62, 64
2, 126360, Note_on_c, 0, 58, 100
2, 126456, Note_off_c, 0, 58, 64
2, 126480, Note_on_c, 0, 55, 100
2, 126672, Note_off_c, 0, 55, 64
2, 126672, End_track
3, 0, Start_track
3, 0, Title_t, "J.S. Bach, Edition Wood"
3, 0, Program_c, 1, 0
3, 2880, Note_on_c, 1, 67, 100
3, 2976, Note_off_c, 1, 67, 64
3, 4080, Note_on_c, 1, 55, 100
3, 4176, Note_off_c, 1, 55, 64
3, 4200, Note_on_c, 1, 53, 100
3, 4296, Note_off_c, 1, 53, 64
3, 4320, Note_on_c, 1, 52, 100
3, 4416, Note_off_c, 1, 52, 64
3, 4440, Note_on_c, 1, 53, 100
3, 4536, Note_off_c, 1, 53, 64
3, 4560, Note_on_c, 1, 57, 100
3, 4656, Note_off_c, 1, 57, 64
3, 4680, Note_on_c, 1, 62, 100
3, 4776, Note_off_c, 1, 62, 64
3, 4800, Note_on_c, 1, 52, 100
3, 4896, Note_off_c, 1, 52, 64
3, 4920, Note_on_c, 1, 62, 100
3, 5016, Note_off_c, 1, 62, 64
3, 5040, Note_on_c, 1, 61, 100
3, 5136, Note_off_c, 1, 61, 64
3, 5160, Note_on_c, 1, 62, 100
3, 5616, Note_off_c, 1, 62, 64
3, 5640, Note_on_c, 1, 64, 100
3, 5736, Note_off_c, 1, 64, 64
3, 5760, Note_on_c, 1, 65, 100
3, 5856, Note_off_c, 1, 65, 64
3, 7920, Note_on_c, 1, 62, 100
3, 8016, Note_off_c, 1, 62, 64
3, 8040, Note_on_c, 1, 63, 100
3, 8136, Note_off_c, 1, 63, 64
3, 8160, Note_on_c, 1, 62, 100
3, 8256, Note_off_c, 1, 62, 64
3, 8280, Note_on_c, 1, 60, 100
3, 8376, Note_off_c, 1, 60, 64
3, 8400, Note_on_c, 1, 58, 100
3, 8496, Note_off_c, 1, 58, 64
3, 8520, Note_on_c, 1, 57, 100
3, 8616, Note_off_c, 1, 57, 64
3, 8640, Note_on_c, 1, 55, 100
3, 8736, Note_off_c, 1, 55, 64
3, 8760, Note_on_c, 1, 54, 100
3, 8856, Note_off_c, 1, 54, 64
3, 8880, Note_on_c, 1, 57, 100
3, 8976, Note_off_c, 1, 57, 64
3, 9000, Note_on_c, 1, 50, 100
3, 9096, Note_off_c, 1, 50, 64
3, 9120, Note_on_c, 1, 48, 100
3, 9216, Note_off_c, 1, 48, 64
3, 9240, Note_on_c, 1, 46, 100
3, 9336, Note_off_c, 1, 46, 64
3, 9360, Note_on_c, 1, 45, 100
3, 9456, Note_off_c, 1, 45, 64
3, 9480, Note_on_c, 1, 46, 100
3, 9576, Note_off_c, 1, 46, 64
3, 9600, Note_on_c, 1, 50, 100
3, 9696, Note_off_c, 1, 50, 64
3, 9720, Note_on_c, 1, 55, 100
3, 9816, Note_off_c, 1, 55, 64
3, 9840, Note_on_c, 1, 45, 100
3, 9936, Note_off_c, 1, 45, 64
3, 9960, Note_on_c, 1, 55, 100
3, 10056, Note_off_c, 1, 55, 64
3, 10080, Note_on_c, 1, 54, 100
3, 10176, Note_off_c, 1, 54, 64
3, 10200, Note_on_c, 1, 55, 100
3, 10296, Note_off_c, 1, 55, 64
3, 10320, Note_on_c, 1, 58, 100
3, 10416, Note_off_c, 1, 58, 64
3, 10440, Note_on_c, 1, 57, 100
3, 10536, Note_off_c, 1, 57, 64
3, 10560, Note_on_c, 1, 58, 100
3, 10656, Note_off_c, 1, 58, 64
3, 10680, Note_on_c, 1, 62, 100
3, 10776, Note_off_c, 1, 62, 64
3, 10800, Note_on_c, 1, 60, 100
3, 10896, Note_off_c, 1, 60, 64
3, 10920, Note_on_c, 1, 62, 100
3, 11376, Note_off_c, 1, 62, 64
3, 11400, Note_on_c, 1, 57, 100
3, 11496, Note_off_c, 1, 57, 64
3, 11520, Note_on_c, 1, 50, 100
3, 11616, Note_off_c, 1, 50, 64
3, 11640, Note_on_c, 1, 51, 100
3, 11736, Note_off_c, 1, 51, 64
3, 11760, Note_on_c, 1, 55, 100
3, 11856, Note_off_c, 1, 55, 64
3, 11880, Note_on_c, 1, 53, 100
3, 11976, Note_off_c, 1, 53, 64
3, 12000, Note_on_c, 1, 55, 100
3, 12096, Note_off_c, 1, 55, 64
3, 12120, Note_on_c, 1, 58, 100
3, 12216, Note_off_c, 1, 58, 64
3, 12240, Note_on_c, 1, 57, 100
3, 12336, Note_off_c, 1, 57, 64
3, 12360, Note_on_c, 1, 58, 100
3, 12816, Note_off_c, 1, 58, 64
3, 12840, Note_on_c, 1, 53, 100
3, 12936, Note_off_c, 1, 53, 64
3, 12960, Note_on_c, 1, 46, 100
3, 13056, Note_off_c, 1, 46, 64
3, 13080, Note_on_c, 1, 48, 100
3, 13176, Note_off_c, 1, 48, 64
3, 13200, Note_on_c, 1, 51, 100
3, 13296, Note_off_c, 1, 51, 64
3, 13320, Note_on_c, 1, 50, 100
3, 13416, Note_off_c, 1, 50, 64
3, 13440, Note_on_c, 1, 51, 100
3, 13536, Note_off_c, 1, 51, 64
3, 13560, Note_on_c, 1, 55, 100
3, 13656, Note_off_c, 1, 55, 64
3, 13680, Note_on_c, 1, 53, 100
3, 13776, Note_off_c, 1, 53, 64
3, 13800, Note_on_c, 1, 55, 100
3, 14352, Note_off_c, 1, 55, 64
3, 14400, Note_on_c, 1, 49, 100
3, 14496, Note_off_c, 1, 49, 64
3, 14520, Note_on_c, 1, 50, 100
3, 14712, Note_off_c, 1, 50, 64
3, 14760, Note_on_c, 1, 48, 100
3, 14856, Note_off_c, 1, 48, 64
3, 14880, Note_on_c, 1, 46, 100
3, 14904, Note_off_c, 1, 46, 64
3, 14910, Note_on_c, 1, 48, 100
3, 14934, Note_off_c, 1, 48, 64
3, 14940, Note_on_c, 1, 45, 100
3, 15192, Note_off_c, 1, 45, 64
3, 15240, Note_on_c, 1, 45, 100
3, 15528, Note_off_c, 1, 45, 64
3, 15840, Note_on_c, 1, 57, 100
3, 15936, Note_off_c, 1, 57, 64
3, 15960, Note_on_c, 1, 58, 100
3, 16056, Note_off_c, 1, 58, 64
3, 16080, Note_on_c, 1, 57, 100
3, 16176, Note_off_c, 1, 57, 64
3, 16200, Note_on_c, 1, 55, 100
3, 16296, Note_off_c, 1, 55, 64
3, 16320, Note_on_c, 1, 53, 100
3, 16416, Note_off_c, 1, 53, 64
3, 16440, Note_on_c, 1, 52, 100
3, 16536, Note_off_c, 1, 52, 64
3, 16560, Note_on_c, 1, 50, 100
3, 16656, Note_off_c, 1, 50, 64
3, 16680, Note_on_c, 1, 49, 100
3, 16776, Note_off_c, 1, 49, 64
3, 16800, Note_on_c, 1, 52, 100
3, 16896, Note_off_c, 1, 52, 64
3, 16920, Note_on_c, 1, 45, 100
3, 17016, Note_off_c, 1, 45, 64
3, 17040, Note_on_c, 1, 43, 100
3, 17136, Note_off_c, 1, 43, 64
3, 17160, Note_on_c, 1, 41, 100
3, 17256, Note_off_c, 1, 41, 64
3, 17280, Note_on_c, 1, 40, 100
3, 17376, Note_off_c, 1, 40, 64
3, 17400, Note_on_c, 1, 38, 100
3, 17496, Note_off_c, 1, 38, 64
3, 17520, Note_on_c, 1, 41, 100
3, 17616, Note_off_c, 1, 41, 64
3, 17640, Note_on_c, 1, 50, 100
3, 17736, Note_off_c, 1, 50, 64
3, 17760, Note_on_c, 1, 40, 100
3, 17856, Note_off_c, 1, 40, 64
3, 17880, Note_on_c, 1, 50, 100
3, 17976, Note_off_c, 1, 50, 64
3, 18000, Note_on_c, 1, 49, 100
3, 18096, Note_off_c, 1, 49, 64
3, 18120, Note_on_c, 1, 50, 100
3, 18576, Note_off_c, 1, 50, 64
3, 18600, Note_on_c, 1, 53, 100
3, 18696, Note_off_c, 1, 53, 64
3, 18720, Note_on_c, 1, 52, 100
3, 18816, Note_off_c, 1, 52, 64
3, 18840, Note_on_c, 1, 53, 100
3, 18936, Note_off_c, 1, 53, 64
3, 18960, Note_on_c, 1, 57, 100
3, 19056, Note_off_c, 1, 57, 64
3, 19080, Note_on_c, 1, 55, 100
3, 19176, Note_off_c, 1, 55, 64
3, 19200, Note_on_c, 1, 57, 100
3, 19488, Note_off_c, 1, 57, 64
3, 19560, Note_on_c, 1, 45, 100
3, 19656, Note_off_c, 1, 45, 64
3, 19680, Note_on_c, 1, 49, 100
3, 19776, Note_off_c, 1, 49, 64
3, 19800, Note_on_c, 1, 47, 100
3, 19896, Note_off_c, 1, 47, 64
3, 19920, Note_on_c, 1, 49, 100
3, 20016, Note_off_c, 1, 49, 64
3, 20040, Note_on_c, 1, 52, 100
3, 20136, Note_off_c, 1, 52, 64
3, 20160, Note_on_c, 1, 50, 100
3, 20256, Note_off_c, 1, 50, 64
3, 20280, Note_on_c, 1, 52, 100
3, 20736, Note_off_c, 1, 52, 64
3, 20760, Note_on_c, 1, 55, 100
3, 20856, Note_off_c, 1, 55, 64
3, 20880, Note_on_c, 1, 53, 100
3, 20976, Note_off_c, 1, 53, 64
3, 21000, Note_on_c, 1, 55, 100
3, 21456, Note_off_c, 1, 55, 64
3, 21480, Note_on_c, 1, 58, 100
3, 21576, Note_off_c, 1, 58, 64
3, 21600, Note_on_c, 1, 57, 100
3, 21696, Note_off_c, 1, 57, 64
3, 21720, Note_on_c, 1, 58, 100
3, 21816, Note_off_c, 1, 58, 64
3, 21840, Note_on_c, 1, 55, 100
3, 21936, Note_off_c, 1, 55, 64
3, 21960, Note_on_c, 1, 53, 100
3, 22056, Note_off_c, 1, 53, 64
3, 22080, Note_on_c, 1, 52, 100
3, 22176, Note_off_c, 1, 52, 64
3, 22200, Note_on_c, 1, 53, 100
3, 22296, Note_off_c, 1, 53, 64
3, 22320, Note_on_c, 1, 55, 100
3, 22416, Note_off_c, 1, 55, 64
3, 22440, Note_on_c, 1, 45, 100
3, 22632, Note_off_c, 1, 45, 64
3, 22800, Note_on_c, 1, 47, 100
3, 23040, Note_off_c, 1, 47, 64
3, 23160, Note_on_c, 1, 49, 100
3, 23352, Note_off_c, 1, 49, 64
3, 23400, Note_on_c, 1, 45, 100
3, 23496, Note_off_c, 1, 45, 64
3, 23520, Note_on_c, 1, 47, 100
3, 23712, Note_off_c, 1, 47, 64
3, 23760, Note_on_c, 1, 48, 100
3, 23856, Note_off_c, 1, 48, 64
3, 23880, Note_on_c, 1, 50, 100
3, 24072, Note_off_c, 1, 50, 64
3, 24240, Note_on_c, 1, 52, 100
3, 24432, Note_off_c, 1, 52, 64
3, 24600, Note_on_c, 1, 53, 100
3, 24792, Note_off_c, 1, 53, 64
3, 24960, Note_on_c, 1, 55, 100
3, 25416, Note_off_c, 1, 55, 64
3, 25440, Note_on_c, 1, 53, 100
3, 25536, Note_off_c, 1, 53, 64
3, 25560, Note_on_c, 1, 52, 100
3, 25656, Note_off_c, 1, 52, 64
3, 25680, Note_on_c, 1, 53, 100
3, 25776, Note_off_c, 1, 53, 64
3, 25800, Note_on_c, 1, 61, 100
3, 25896, Note_off_c, 1, 61, 64
3, 25920, Note_on_c, 1, 62, 100
3, 26016, Note_off_c, 1, 62, 64
3, 26040, Note_on_c, 1, 55, 100
3, 26136, Note_off_c, 1, 55, 64
3, 26160, Note_on_c, 1, 61, 100
3, 26256, Note_off_c, 1, 61, 64
3, 26280, Note_on_c, 1, 62, 100
3, 26376, Note_off_c, 1, 62, 64
3, 26400, Note_on_c, 1, 56, 100
3, 26496, Note_off_c, 1, 56, 64
3, 26520, Note_on_c, 1, 61, 100
3, 26616, Note_off_c, 1, 61, 64
3, 26640, Note_on_c, 1, 62, 100
3, 26736, Note_off_c, 1, 62, 64
3, 26760, Note_on_c, 1, 57, 100
3, 26856, Note_off_c, 1, 57, 64
3, 26880, Note_on_c, 1, 61, 100
3, 26976, Note_off_c, 1, 61, 64
3, 27000, Note_on_c, 1, 62, 100
3, 27096, Note_off_c, 1, 62, 64
3, 27120, Note_on_c, 1, 64, 100
3, 27216, Note_off_c, 1, 64, 64
3, 27240, Note_on_c, 1, 62, 100
3, 27336, Note_off_c, 1, 62, 64
3, 27360, Note_on_c, 1, 61, 100
3, 27456, Note_off_c, 1, 61, 64
3, 27480, Note_on_c, 1, 62, 100
3, 27576, Note_off_c, 1, 62, 64
3, 27600, Note_on_c, 1, 53, 100
3, 27696, Note_off_c, 1, 53, 64
3, 27720, Note_on_c, 1, 55, 100
3, 27816, Note_off_c, 1, 55, 64
3, 27840, Note_on_c, 1, 57, 100
3, 27936, Note_off_c, 1, 57, 64
3, 27960, Note_on_c, 1, 55, 100
3, 28056, Note_off_c, 1, 55, 64
3, 28080, Note_on_c, 1, 57, 100
3, 28176, Note_off_c, 1, 57, 64
3, 28200, Note_on_c, 1, 50, 100
3, 28296, Note_off_c, 1, 50, 64
3, 28320, Note_on_c, 1, 54, 100
3, 28416, Note_off_c, 1, 54, 64
3, 28440, Note_on_c, 1, 57, 100
3, 28536, Note_off_c, 1, 57, 64
3, 28560, Note_on_c, 1, 62, 100
3, 28785, Note_off_c, 1, 62, 64
3, 31680, Note_on_c, 1, 67, 100
3, 31776, Note_off_c, 1, 67, 64
3, 32880, Note_on_c, 1, 55, 100
3, 32976, Note_off_c, 1, 55, 64
3, 33000, Note_on_c, 1, 53, 100
3, 33096, Note_off_c, 1, 53, 64
3, 33120, Note_on_c, 1, 52, 100
3, 33216, Note_off_c, 1, 52, 64
3, 33240, Note_on_c, 1, 53, 100
3, 33336, Note_off_c, 1, 53, 64
3, 33360, Note_on_c, 1, 57, 100
3, 33456, Note_off_c, 1, 57, 64
3, 33480, Note_on_c, 1, 62, 100
3, 33576, Note_off_c, 1, 62, 64
3, 33600, Note_on_c, 1, 52, 100
3, 33696, Note_off_c, 1, 52, 64
3, 33720, Note_on_c, 1, 62, 100
3, 33816, Note_off_c, 1, 62, 64
3, 33840, Note_on_c, 1, 61, 100
3, 33936, Note_off_c, 1, 61, 64
3, 33960, Note_on_c, 1, 62, 100
3, 34416, Note_off_c, 1, 62, 64
3, 34440, Note_on_c, 1, 64, 100
3, 34536, Note_off_c, 1, 64, 64
3, 34560, Note_on_c, 1, 65, 100
3, 34656, Note_off_c, 1, 65, 64
3, 36720, Note_on_c, 1, 62, 100
3, 36816, Note_off_c, 1, 62, 64
3, 36840, Note_on_c, 1, 63, 100
3, 36936, Note_off_c, 1, 63, 64
3, 36960, Note_on_c, 1, 62, 100
3, 37056, Note_off_c, 1, 62, 64
3, 37080, Note_on_c, 1, 60, 100
3, 37176, Note_off_c, 1, 60, 64
3, 37200, Note_on_c, 1, 58, 100
3, 37296, Note_off_c, 1, 58, 64
3, 37320, Note_on_c, 1, 57, 100
3, 37416, Note_off_c, 1, 57, 64
3, 37440, Note_on_c, 1, 55, 100
3, 37536, Note_off_c, 1, 55, 64
3, 37560, Note_on_c, 1, 54, 100
3, 37656, Note_off_c, 1, 54, 64
3, 37680, Note_on_c, 1, 57, 100
3, 37776, Note_off_c, 1, 57, 64
3, 37800, Note_on_c, 1, 50, 100
3, 37896, Note_off_c, 1, 50, 64
3, 37920, Note_on_c, 1, 48, 100
3, 38016, Note_off_c, 1, 48, 64
3, 38040, Note_on_c, 1, 46, 100
3, 38136, Note_off_c, 1, 46, 64
3, 38160, Note_on_c, 1, 45, 100
3, 38256, Note_off_c, 1, 45, 64
3, 38280, Note_on_c, 1, 46, 100
3, 38376, Note_off_c, 1, 46, 64
3, 38400, Note_on_c, 1, 50, 100
3, 38496, Note_off_c, 1, 50, 64
3, 38520, Note_on_c, 1, 55, 100
3, 38616, Note_off_c, 1, 55, 64
3, 38640, Note_on_c, 1, 45, 100
3, 38736, Note_off_c, 1, 45, 64
3, 38760, Note_on_c, 1, 55, 100
3, 38856, Note_off_c, 1, 55, 64
3, 38880, Note_on_c, 1, 54, 100
3, 38976, Note_off_c, 1, 54, 64
3, 39000, Note_on_c, 1, 55, 100
3, 39096, Note_off_c, 1, 55, 64
3, 39120, Note_on_c, 1, 58, 100
3, 39216, Note_off_c, 1, 58, 64
3, 39240, Note_on_c, 1, 57, 100
3, 39336, Note_off_c, 1, 57, 64
3, 39360, Note_on_c, 1, 58, 100
3, 39456, Note_off_c, 1, 58, 64
3, 39480, Note_on_c, 1, 62, 100
3, 39576, Note_off_c, 1, 62, 64
3, 39600, Note_on_c, 1, 60, 100
3, 39696, Note_off_c, 1, 60, 64
3, 39720, Note_on_c, 1, 62, 100
3, 40176, Note_off_c, 1, 62, 64
3, 40200, Note_on_c, 1, 57, 100
3, 40296, Note_off_c, 1, 57, 64
3, 40320, Note_on_c, 1, 50, 100
3, 40416, Note_off_c, 1, 50, 64
3, 40440, Note_on_c, 1, 51, 100
3, 40536, Note_off_c, 1, 51, 64
3, 40560, Note_on_c, 1, 55, 100
3, 40656, Note_off_c, 1, 55, 64
3, 40680, Note_on_c, 1, 53, 100
3, 40776, Note_off_c, 1, 53, 64
3, 40800, Note_on_c, 1, 55, 100
3, 40896, Note_off_c, 1, 55, 64
3, 40920, Note_on_c, 1, 58, 100
3, 41016, Note_off_c, 1, 58, 64
3, 41040, Note_on_c, 1, 57, 100
3, 41136, Note_off_c, 1, 57, 64
3, 41160, Note_on_c, 1, 58, 100
3, 41616, Note_off_c, 1, 58, 64
3, 41640, Note_on_c, 1, 53, 100
3, 41736, Note_off_c, 1, 53, 64
3, 41760, Note_on_c, 1, 46, 100
3, 41856, Note_off_c, 1, 46, 64
3, 41880, Note_on_c, 1, 48, 100
3, 41976, Note_off_c, 1, 48, 64
3, 42000, Note_on_c, 1, 51, 100
3, 42096, Note_off_c, 1, 51, 64
3, 42120, Note_on_c, 1, 50, 100
3, 42216, Note_off_c, 1, 50, 64
3, 42240, Note_on_c, 1, 51, 100
3, 42336, Note_off_c, 1, 51, 64
3, 42360, Note_on_c, 1, 55, 100
3, 42456, Note_off_c, 1, 55, 64
3, 42480, Note_on_c, 1, 53, 100
3, 42576, Note_off_c, 1, 53, 64
3, 42600, Note_on_c, 1, 55, 100
3, 43152, Note_off_c, 1, 55, 64
3, 43200, Note_on_c, 1, 49, 100
3, 43296, Note_off_c, 1, 49, 64
3, 43320, Note_on_c, 1, 50, 100
3, 43512, Note_off_c, 1, 50, 64
3, 43560, Note_on_c, 1, 48, 100
3, 43656, Note_off_c, 1, 48, 64
3, 43680, Note_on_c, 1, 46, 100
3, 43704, Note_off_c, 1, 46, 64
3, 43710, Note_on_c, 1, 48, 100
3, 43734, Note_off_c, 1, 48, 64
3, 43740, Note_on_c, 1, 45, 100
3, 43992, Note_off_c, 1, 45, 64
3, 44040, Note_on_c, 1, 45, 100
3, 44328, Note_off_c, 1, 45, 64
3, 44640, Note_on_c, 1, 57, 100
3, 44736, Note_off_c, 1, 57, 64
3, 44760, Note_on_c, 1, 58, 100
3, 44856, Note_off_c, 1, 58, 64
3, 44880, Note_on_c, 1, 57, 100
3, 44976, Note_off_c, 1, 57, 64
3, 45000, Note_on_c, 1, 55, 100
3, 45096, Note_off_c, 1, 55, 64
3, 45120, Note_on_c, 1, 53, 100
3, 45216, Note_off_c, 1, 53, 64
3, 45240, Note_on_c, 1, 52, 100
3, 45336, Note_off_c, 1, 52, 64
3, 45360, Note_on_c, 1, 50, 100
3, 45456, Note_off_c, 1, 50, 64
3, 45480, Note_on_c, 1, 49, 100
3, 45576, Note_off_c, 1, 49, 64
3, 45600, Note_on_c, 1, 52, 100
3, 45696, Note_off_c, 1, 52, 64
3, 45720, Note_on_c, 1, 45, 100
3, 45816, Note_off_c, 1, 45, 64
3, 45840, Note_on_c, 1, 43, 100
3, 45936, Note_off_c, 1, 43, 64
3, 45960, Note_on_c, 1, 41, 100
3, 46056, Note_off_c, 1, 41, 64
3, 46080, Note_on_c, 1, 40, 100
3, 46176, Note_off_c, 1, 40, 64
3, 46200, Note_on_c, 1, 38, 100
3, 46296, Note_off_c, 1, 38, 64
3, 46320, Note_on_c, 1, 41, 100
3, 46416, Note_off_c, 1, 41, 64
3, 46440, Note_on_c, 1, 50, 100
3, 46536, Note_off_c, 1, 50, 64
3, 46560, Note_on_c, 1, 40, 100
3, 46656, Note_off_c, 1, 40, 64
3, 46680, Note_on_c, 1, 50, 100
3, 46776, Note_off_c, 1, 50, 64
3, 46800, Note_on_c, 1, 49, 100
3, 46896, Note_off_c, 1, 49, 64
3, 46920, Note_on_c, 1, 50, 100
3, 47376, Note_off_c, 1, 50, 64
3, 47400, Note_on_c, 1, 53, 100
3, 47496, Note_off_c, 1, 53, 64
3, 47520, Note_on_c, 1, 52, 100
3, 47616, Note_off_c, 1, 52, 64
3, 47640, Note_on_c, 1, 53, 100
3, 47736, Note_off_c, 1, 53, 64
3, 47760, Note_on_c, 1, 57, 100
3, 47856, Note_off_c, 1, 57, 64
3, 47880, Note_on_c, 1, 55, 100
3, 47976, Note_off_c, 1, 55, 64
3, 48000, Note_on_c, 1, 57, 100
3, 48288, Note_off_c, 1, 57, 64
3, 48360, Note_on_c, 1, 45, 100
3, 48456, Note_off_c, 1, 45, 64
3, 48480, Note_on_c, 1, 49, 100
3, 48576, Note_off_c, 1, 49, 64
3, 48600, Note_on_c, 1, 47, 100
3, 48696, Note_off_c, 1, 47, 64
3, 48720, Note_on_c, 1, 49, 100
3, 48816, Note_off_c, 1, 49, 64
3, 48840, Note_on_c, 1, 52, 100
3, 48936, Note_off_c, 1, 52, 64
3, 48960, Note_on_c, 1, 50, 100
3, 49056, Note_off_c, 1, 50, 64
3, 49080, Note_on_c, 1, 52, 100
3, 49536, Note_off_c, 1, 52, 64
3, 49560, Note_on_c, 1, 55, 100
3, 49656, Note_off_c, 1, 55, 64
3, 49680, Note_on_c, 1, 53, 100
3, 49776, Note_off_c, 1, 53, 64
3, 49800, Note_on_c, 1, 55, 100
3, 50256, Note_off_c, 1, 55, 64
3, 50280, Note_on_c, 1, 58, 100
3, 50376, Note_off_c, 1, 58, 64
3, 50400, Note_on_c, 1, 57, 100
3, 50496, Note_off_c, 1, 57, 64
3, 50520, Note_on_c, 1, 58, 100
3, 50616, Note_off_c, 1, 58, 64
3, 50640, Note_on_c, 1, 55, 100
3, 50736, Note_off_c, 1, 55, 64
3, 50760, Note_on_c, 1, 53, 100
3, 50856, Note_off_c, 1, 53, 64
3, 50880, Note_on_c, 1, 52, 100
3, 50976, Note_off_c, 1, 52, 64
3, 51000, Note_on_c, 1, 53, 100
3, 51096, Note_off_c, 1, 53, 64
3, 51120, Note_on_c, 1, 55, 100
3, 51216, Note_off_c, 1, 55, 64
3, 51240, Note_on_c, 1, 45, 100
3, 51432, Note_off_c, 1, 45, 64
3, 51600, Note_on_c, 1, 47, 100
3, 51840, Note_off_c, 1, 47, 64
3, 51960, Note_on_c, 1, 49, 100
3, 52152, Note_off_c, 1, 49, 64
3, 52200, Note_on_c, 1, 45, 100
3, 52296, Note_off_c, 1, 45, 64
3, 52320, Note_on_c, 1, 47, 100
3, 52512, Note_off_c, 1, 47, 64
3, 52560, Note_on_c, 1, 48, 100
3, 52656, Note_off_c, 1, 48, 64
3, 52680, Note_on_c, 1, 50, 100
3, 52872, Note_off_c, 1, 50, 64
3, 53040, Note_on_c, 1, 52, 100
3, 53232, Note_off_c, 1, 52, 64
3, 53400, Note_on_c, 1, 53, 100
3, 53592, Note_off_c, 1, 53, 64
3, 53760, Note_on_c, 1, 55, 100
3, 54216, Note_off_c, 1, 55, 64
3, 54240, Note_on_c, 1, 53, 100
3, 54336, Note_off_c, 1, 53, 64
3, 54360, Note_on_c, 1, 52, 100
3, 54456, Note_off_c, 1, 52, 64
3, 54480, Note_on_c, 1, 53, 100
3, 54576, Note_off_c, 1, 53, 64
3, 54600, Note_on_c, 1, 61, 100
3, 54696, Note_off_c, 1, 61, 64
3, 54720, Note_on_c, 1, 62, 100
3, 54816, Note_off_c, 1, 62, 64
3, 54840, Note_on_c, 1, 55, 100
3, 54936, Note_off_c, 1, 55, 64
3, 54960, Note_on_c, 1, 61, 100
3, 55056, Note_off_c, 1, 61, 64
3, 55080, Note_on_c, 1, 62, 100
3, 55176, Note_off_c, 1, 62, 64
3, 55200, Note_on_c, 1, 56, 100
3, 55296, Note_off_c, 1, 56, 64
3, 55320, Note_on_c, 1, 61, 100
3, 55416, Note_off_c, 1, 61, 64
3, 55440, Note_on_c, 1, 62, 100
3, 55536, Note_off_c, 1, 62, 64
3, 55560, Note_on_c, 1, 57, 100
3, 55656, Note_off_c, 1, 57, 64
3, 55680, Note_on_c, 1, 61, 100
3, 55776, Note_off_c, 1, 61, 64
3, 55800, Note_on_c, 1, 62, 100
3, 55896, Note_off_c, 1, 62, 64
3, 55920, Note_on_c, 1, 64, 100
3, 56016, Note_off_c, 1, 64, 64
3, 56040, Note_on_c, 1, 62, 100
3, 56136, Note_off_c, 1, 62, 64
3, 56160, Note_on_c, 1, 61, 100
3, 56256, Note_off_c, 1, 61, 64
3, 56280, Note_on_c, 1, 62, 100
3, 56376, Note_off_c, 1, 62, 64
3, 56400, Note_on_c, 1, 53, 100
3, 56496, Note_off_c, 1, 53, 64
3, 56520, Note_on_c, 1, 55, 100
3, 56616, Note_off_c, 1, 55, 64
3, 56640, Note_on_c, 1, 57, 100
3, 56736, Note_off_c, 1, 57, 64
3, 56760, Note_on_c, 1, 55, 100
3, 56856, Note_off_c, 1, 55, 64
3, 56880, Note_on_c, 1, 57, 100
3, 56976, Note_off_c, 1, 57, 64
3, 57000, Note_on_c, 1, 50, 100
3, 57096, Note_off_c, 1, 50, 64
3, 57120, Note_on_c, 1, 54, 100
3, 57216, Note_off_c, 1, 54, 64
3, 57240, Note_on_c, 1, 57, 100
3, 57336, Note_off_c, 1, 57, 64
3, 57360, Note_on_c, 1, 62, 100
3, 57585, Note_off_c, 1, 62, 64
3, 57600, Note_on_c, 1, 57, 100
3, 57696, Note_off_c, 1, 57, 64
3, 57720, Note_on_c, 1, 54, 100
3, 57816, Note_off_c, 1, 54, 64
3, 57840, Note_on_c, 1, 55, 100
3, 57936, Note_off_c, 1, 55, 64
3, 57960, Note_on_c, 1, 57, 100
3, 58056, Note_off_c, 1, 57, 64
3, 58080, Note_on_c, 1, 58, 100
3, 58176, Note_off_c, 1, 58, 64
3, 58200, Note_on_c, 1, 60, 100
3, 58296, Note_off_c, 1, 60, 64
3, 58320, Note_on_c, 1, 62, 100
3, 58416, Note_off_c, 1, 62, 64
3, 60480, Note_on_c, 1, 38, 100
3, 60576, Note_off_c, 1, 38, 64
3, 60600, Note_on_c, 1, 37, 100
3, 60696, Note_off_c, 1, 37, 64
3, 60720, Note_on_c, 1, 38, 100
3, 60816, Note_off_c, 1, 38, 64
3, 60840, Note_on_c, 1, 40, 100
3, 60936, Note_off_c, 1, 40, 64
3, 60960, Note_on_c, 1, 41, 100
3, 61056, Note_off_c, 1, 41, 64
3, 61080, Note_on_c, 1, 43, 100
3, 61176, Note_off_c, 1, 43, 64
3, 61200, Note_on_c, 1, 45, 100
3, 61296, Note_off_c, 1, 45, 64
3, 61320, Note_on_c, 1, 46, 100
3, 61416, Note_off_c, 1, 46, 64
3, 61440, Note_on_c, 1, 43, 100
3, 61536, Note_off_c, 1, 43, 64
3, 61560, Note_on_c, 1, 50, 100
3, 61656, Note_off_c, 1, 50, 64
3, 61680, Note_on_c, 1, 52, 100
3, 61776, Note_off_c, 1, 52, 64
3, 61800, Note_on_c, 1, 53, 100
3, 61896, Note_off_c, 1, 53, 64
3, 61920, Note_on_c, 1, 55, 100
3, 62016, Note_off_c, 1, 55, 64
3, 62040, Note_on_c, 1, 53, 100
3, 62136, Note_off_c, 1, 53, 64
3, 62160, Note_on_c, 1, 50, 100
3, 62256, Note_off_c, 1, 50, 64
3, 62280, Note_on_c, 1, 45, 100
3, 62376, Note_off_c, 1, 45, 64
3, 62400, Note_on_c, 1, 55, 100
3, 62496, Note_off_c, 1, 55, 64
3, 62520, Note_on_c, 1, 47, 100
3, 62616, Note_off_c, 1, 47, 64
3, 62640, Note_on_c, 1, 49, 100
3, 62736, Note_off_c, 1, 49, 64
3, 62760, Note_on_c, 1, 50, 100
3, 63216, Note_off_c, 1, 50, 64
3, 63240, Note_on_c, 1, 48, 100
3, 63336, Note_off_c, 1, 48, 64
3, 63360, Note_on_c, 1, 46, 100
3, 63456, Note_off_c, 1, 46, 64
3, 63480, Note_on_c, 1, 48, 100
3, 64032, Note_off_c, 1, 48, 64
3, 64080, Note_on_c, 1, 50, 100
3, 64176, Note_off_c, 1, 50, 64
3, 64200, Note_on_c, 1, 51, 100
3, 64296, Note_off_c, 1, 51, 64
3, 64320, Note_on_c, 1, 50, 100
3, 64416, Note_off_c, 1, 50, 64
3, 64440, Note_on_c, 1, 48, 100
3, 64536, Note_off_c, 1, 48, 64
3, 64560, Note_on_c, 1, 50, 100
3, 64656, Note_off_c, 1, 50, 64
3, 64680, Note_on_c, 1, 48, 100
3, 64776, Note_off_c, 1, 48, 64
3, 64800, Note_on_c, 1, 47, 100
3, 64896, Note_off_c, 1, 47, 64
3, 64920, Note_on_c, 1, 48, 100
3, 65112, Note_off_c, 1, 48, 64
3, 65160, Note_on_c, 1, 57, 100
3, 65256, Note_off_c, 1, 57, 64
3, 65280, Note_on_c, 1, 46, 100
3, 65472, Note_off_c, 1, 46, 64
3, 65520, Note_on_c, 1, 55, 100
3, 65616, Note_off_c, 1, 55, 64
3, 65640, Note_on_c, 1, 57, 100
3, 65736, Note_off_c, 1, 57, 64
3, 65760, Note_on_c, 1, 55, 100
3, 65856, Note_off_c, 1, 55, 64
3, 65880, Note_on_c, 1, 54, 100
3, 65976, Note_off_c, 1, 54, 64
3, 66000, Note_on_c, 1, 55, 100
3, 66096, Note_off_c, 1, 55, 64
3, 66120, Note_on_c, 1, 53, 100
3, 66216, Note_off_c, 1, 53, 64
3, 66240, Note_on_c, 1, 51, 100
3, 66336, Note_off_c, 1, 51, 64
3, 66360, Note_on_c, 1, 50, 100
3, 66456, Note_off_c, 1, 50, 64
3, 66480, Note_on_c, 1, 52, 100
3, 66576, Note_off_c, 1, 52, 64
3, 66600, Note_on_c, 1, 54, 100
3, 66696, Note_off_c, 1, 54, 64
3, 66720, Note_on_c, 1, 55, 100
3, 67176, Note_off_c, 1, 55, 64
3, 67200, Note_on_c, 1, 57, 100
3, 67296, Note_off_c, 1, 57, 64
3, 67320, Note_on_c, 1, 58, 100
3, 67416, Note_off_c, 1, 58, 64
3, 67440, Note_on_c, 1, 54, 100
3, 67728, Note_off_c, 1, 54, 64
3, 67800, Note_on_c, 1, 55, 100
3, 67800, Note_on_c, 1, 55, 100
3, 67992, Note_off_c, 1, 55, 64
3, 68040, Note_on_c, 1, 51, 100
3, 68088, Note_off_c, 1, 55, 64
3, 68136, Note_off_c, 1, 51, 64
3, 68160, Note_on_c, 1, 48, 100
3, 68160, Note_on_c, 1, 57, 100
3, 68256, Note_off_c, 1, 57, 64
3, 68280, Note_on_c, 1, 58, 100
3, 68352, Note_off_c, 1, 48, 64
3, 68376, Note_off_c, 1, 58, 64
3, 68400, Note_on_c, 1, 60, 100
3, 68400, Note_on_c, 1, 50, 100
3, 68496, Note_off_c, 1, 50, 64
3, 68496, Note_off_c, 1, 60, 64
3, 68520, Note_on_c, 1, 58, 100
3, 68520, Note_on_c, 1, 55, 100
3, 68808, Note_off_c, 1, 58, 64
3, 68880, Note_on_c, 1, 60, 100
3, 68928, Note_off_c, 1, 60, 64
3, 68940, Note_on_c, 1, 59, 100
3, 68988, Note_off_c, 1, 59, 64
3, 69000, Note_on_c, 1, 60, 100
3, 69048, Note_off_c, 1, 60, 64
3, 69060, Note_on_c, 1, 59, 100
3, 69096, Note_off_c, 1, 55, 64
3, 69108, Note_off_c, 1, 59, 64
3, 69120, Note_on_c, 1, 60, 100
3, 69168, Note_off_c, 1, 60, 64
3, 69180, Note_on_c, 1, 59, 100
3, 69228, Note_off_c, 1, 59, 64
3, 69240, Note_on_c, 1, 60, 100
3, 69336, Note_off_c, 1, 60, 64
3, 69360, Note_on_c, 1, 55, 100
3, 69456, Note_off_c, 1, 55, 64
3, 69480, Note_on_c, 1, 57, 100
3, 69576, Note_off_c, 1, 57, 64
3, 69600, Note_on_c, 1, 58, 100
3, 69696, Note_off_c, 1, 58, 64
3, 69720, Note_on_c, 1, 53, 100
3, 69816, Note_off_c, 1, 53, 64
3, 69840, Note_on_c, 1, 55, 100
3, 69936, Note_off_c, 1, 55, 64
3, 69960, Note_on_c, 1, 57, 100
3, 70152, Note_off_c, 1, 57, 64
3, 70200, Note_on_c, 1, 53, 100
3, 70296, Note_off_c, 1, 53, 64
3, 70320, Note_on_c, 1, 55, 100
3, 70512, Note_off_c, 1, 55, 64
3, 70560, Note_on_c, 1, 57, 100
3, 70656, Note_off_c, 1, 57, 64
3, 70680, Note_on_c, 1, 58, 100
3, 70776, Note_off_c, 1, 58, 64
3, 70800, Note_on_c, 1, 54, 100
3, 70896, Note_off_c, 1, 54, 64
3, 70920, Note_on_c, 1, 55, 100
3, 71016, Note_off_c, 1, 55, 64
3, 71040, Note_on_c, 1, 57, 100
3, 71136, Note_off_c, 1, 57, 64
3, 71160, Note_on_c, 1, 52, 100
3, 71256, Note_off_c, 1, 52, 64
3, 71280, Note_on_c, 1, 54, 100
3, 71376, Note_off_c, 1, 54, 64
3, 71400, Note_on_c, 1, 55, 100
3, 71496, Note_off_c, 1, 55, 64
3, 71520, Note_on_c, 1, 50, 100
3, 71616, Note_off_c, 1, 50, 64
3, 71640, Note_on_c, 1, 72, 100
3, 71736, Note_off_c, 1, 72, 64
3, 71760, Note_on_c, 1, 53, 100
3, 71856, Note_off_c, 1, 53, 64
3, 71880, Note_on_c, 1, 48, 100
3, 71976, Note_off_c, 1, 48, 64
3, 72000, Note_on_c, 1, 50, 100
3, 72096, Note_off_c, 1, 50, 64
3, 72120, Note_on_c, 1, 51, 100
3, 72216, Note_off_c, 1, 51, 64
3, 72240, Note_on_c, 1, 47, 100
3, 72336, Note_off_c, 1, 47, 64
3, 72360, Note_on_c, 1, 48, 100
3, 72456, Note_off_c, 1, 48, 64
3, 72480, Note_on_c, 1, 50, 100
3, 72576, Note_off_c, 1, 50, 64
3, 72600, Note_on_c, 1, 45, 100
3, 72696, Note_off_c, 1, 45, 64
3, 72720, Note_on_c, 1, 47, 100
3, 72816, Note_off_c, 1, 47, 64
3, 72840, Note_on_c, 1, 48, 100
3, 72936, Note_off_c, 1, 48, 64
3, 72960, Note_on_c, 1, 50, 100
3, 73056, Note_off_c, 1, 50, 64
3, 73080, Note_on_c, 1, 51, 100
3, 73176, Note_off_c, 1, 51, 64
3, 73200, Note_on_c, 1, 53, 100
3, 73296, Note_off_c, 1, 53, 64
3, 73320, Note_on_c, 1, 55, 100
3, 73416, Note_off_c, 1, 55, 64
3, 73440, Note_on_c, 1, 56, 100
3, 73536, Note_off_c, 1, 56, 64
3, 73560, Note_on_c, 1, 55, 100
3, 73656, Note_off_c, 1, 55, 64
3, 73680, Note_on_c, 1, 57, 100
3, 73776, Note_off_c, 1, 57, 64
3, 73800, Note_on_c, 1, 59, 100
3, 73896, Note_off_c, 1, 59, 64
3, 73920, Note_on_c, 1, 48, 100
3, 74016, Note_off_c, 1, 48, 64
3, 74040, Note_on_c, 1, 50, 100
3, 74136, Note_off_c, 1, 50, 64
3, 74160, Note_on_c, 1, 51, 100
3, 74256, Note_off_c, 1, 51, 64
3, 74280, Note_on_c, 1, 53, 100
3, 74376, Note_off_c, 1, 53, 64
3, 74400, Note_on_c, 1, 55, 100
3, 74496, Note_off_c, 1, 55, 64
3, 74520, Note_on_c, 1, 56, 100
3, 74616, Note_off_c, 1, 56, 64
3, 74640, Note_on_c, 1, 47, 100
3, 74736, Note_off_c, 1, 47, 64
3, 74760, Note_on_c, 1, 48, 100
3, 74856, Note_off_c, 1, 48, 64
3, 74880, Note_on_c, 1, 50, 100
3, 74976, Note_off_c, 1, 50, 64
3, 75000, Note_on_c, 1, 51, 100
3, 75192, Note_off_c, 1, 51, 64
3, 75240, Note_on_c, 1, 56, 100
3, 75336, Note_off_c, 1, 56, 64
3, 75360, Note_on_c, 1, 50, 100
3, 75552, Note_off_c, 1, 50, 64
3, 75600, Note_on_c, 1, 55, 100
3, 75696, Note_off_c, 1, 55, 64
3, 75720, Note_on_c, 1, 48, 100
3, 75912, Note_off_c, 1, 48, 64
3, 76320, Note_on_c, 1, 58, 100
3, 76416, Note_off_c, 1, 58, 64
3, 76440, Note_on_c, 1, 57, 100
3, 76728, Note_off_c, 1, 57, 64
3, 77040, Note_on_c, 1, 55, 100
3, 77136, Note_off_c, 1, 55, 64
3, 77160, Note_on_c, 1, 53, 100
3, 77448, Note_off_c, 1, 53, 64
3, 77760, Note_on_c, 1, 51, 100
3, 77856, Note_off_c, 1, 51, 64
3, 77880, Note_on_c, 1, 42, 100
3, 77976, Note_off_c, 1, 42, 64
3, 78000, Note_on_c, 1, 43, 100
3, 78096, Note_off_c, 1, 43, 64
3, 78120, Note_on_c, 1, 45, 100
3, 78216, Note_off_c, 1, 45, 64
3, 78240, Note_on_c, 1, 46, 100
3, 78336, Note_off_c, 1, 46, 64
3, 78360, Note_on_c, 1, 48, 100
3, 78456, Note_off_c, 1, 48, 64
3, 78480, Note_on_c, 1, 50, 100
3, 78576, Note_off_c, 1, 50, 64
3, 78600, Note_on_c, 1, 51, 100
3, 78696, Note_off_c, 1, 51, 64
3, 78720, Note_on_c, 1, 48, 100
3, 78816, Note_off_c, 1, 48, 64
3, 78840, Note_on_c, 1, 55, 100
3, 78936, Note_off_c, 1, 55, 64
3, 78960, Note_on_c, 1, 57, 100
3, 79056, Note_off_c, 1, 57, 64
3, 79080, Note_on_c, 1, 58, 100
3, 79176, Note_off_c, 1, 58, 64
3, 79200, Note_on_c, 1, 60, 100
3, 79296, Note_off_c, 1, 60, 64
3, 79320, Note_on_c, 1, 58, 100
3, 79416, Note_off_c, 1, 58, 64
3, 79440, Note_on_c, 1, 55, 100
3, 79536, Note_off_c, 1, 55, 64
3, 79560, Note_on_c, 1, 50, 100
3, 79656, Note_off_c, 1, 50, 64
3, 79680, Note_on_c, 1, 60, 100
3, 79776, Note_off_c, 1, 60, 64
3, 79800, Note_on_c, 1, 52, 100
3, 79896, Note_off_c, 1, 52, 64
3, 79920, Note_on_c, 1, 54, 100
3, 80016, Note_off_c, 1, 54, 64
3, 80040, Note_on_c, 1, 55, 100
3, 80136, Note_off_c, 1, 55, 64
3, 80160, Note_on_c, 1, 50, 100
3, 80256, Note_off_c, 1, 50, 64
3, 80280, Note_on_c, 1, 46, 100
3, 80376, Note_off_c, 1, 46, 64
3, 80400, Note_on_c, 1, 56, 100
3, 80496, Note_off_c, 1, 56, 64
3, 80520, Note_on_c, 1, 48, 100
3, 80616, Note_off_c, 1, 48, 64
3, 80640, Note_on_c, 1, 50, 100
3, 80736, Note_off_c, 1, 50, 64
3, 80760, Note_on_c, 1, 51, 100
3, 80856, Note_off_c, 1, 51, 64
3, 80880, Note_on_c, 1, 46, 100
3, 80976, Note_off_c, 1, 46, 64
3, 81000, Note_on_c, 1, 43, 100
3, 81096, Note_off_c, 1, 43, 64
3, 81120, Note_on_c, 1, 53, 100
3, 81216, Note_off_c, 1, 53, 64
3, 81240, Note_on_c, 1, 45, 100
3, 81336, Note_off_c, 1, 45, 64
3, 81360, Note_on_c, 1, 47, 100
3, 81456, Note_off_c, 1, 47, 64
3, 81480, Note_on_c, 1, 48, 100
3, 81672, Note_off_c, 1, 48, 64
3, 81840, Note_on_c, 1, 43, 100
3, 82032, Note_off_c, 1, 43, 64
3, 82200, Note_on_c, 1, 40, 100
3, 82392, Note_off_c, 1, 40, 64
3, 82560, Note_on_c, 1, 42, 100
3, 82752, Note_off_c, 1, 42, 64
3, 82920, Note_on_c, 1, 43, 100
3, 83112, Note_off_c, 1, 43, 64
3, 83280, Note_on_c, 1, 45, 100
3, 83472, Note_off_c, 1, 45, 64
3, 83640, Note_on_c, 1, 46, 100
3, 83832, Note_off_c, 1, 46, 64
3, 84000, Note_on_c, 1, 48, 100
3, 84192, Note_off_c, 1, 48, 64
3, 84360, Note_on_c, 1, 50, 100
3, 84552, Note_off_c, 1, 50, 64
3, 84720, Note_on_c, 1, 52, 100
3, 84912, Note_off_c, 1, 52, 64
3, 85080, Note_on_c, 1, 54, 100
3, 85272, Note_off_c, 1, 54, 64
3, 85320, Note_on_c, 1, 38, 100
3, 85416, Note_off_c, 1, 38, 64
3, 85440, Note_on_c, 1, 58, 100
3, 85440, Note_on_c, 1, 40, 100
3, 85536, Note_off_c, 1, 58, 64
3, 85560, Note_on_c, 1, 60, 100
3, 85632, Note_off_c, 1, 40, 64
3, 85656, Note_off_c, 1, 60, 64
3, 85680, Note_on_c, 1, 42, 100
3, 85680, Note_on_c, 1, 57, 100
3, 85776, Note_off_c, 1, 57, 64
3, 85776, Note_off_c, 1, 42, 64
3, 85800, Note_on_c, 1, 58, 100
3, 85800, Note_on_c, 1, 43, 100
3, 85896, Note_off_c, 1, 58, 64
3, 85920, Note_on_c, 1, 57, 100
3, 85992, Note_off_c, 1, 43, 64
3, 86016, Note_off_c, 1, 57, 64
3, 86040, Note_on_c, 1, 55, 100
3, 86136, Note_off_c, 1, 55, 64
3, 86160, Note_on_c, 1, 60, 100
3, 86160, Note_on_c, 1, 45, 100
3, 86256, Note_off_c, 1, 60, 64
3, 86280, Note_on_c, 1, 57, 100
3, 86352, Note_off_c, 1, 45, 64
3, 86376, Note_off_c, 1, 57, 64
3, 86400, Note_on_c, 1, 55, 100
3, 86496, Note_off_c, 1, 55, 64
3, 86520, Note_on_c, 1, 62, 100
3, 86520, Note_on_c, 1, 46, 100
3, 86616, Note_off_c, 1, 62, 64
3, 86640, Note_on_c, 1, 57, 100
3, 86712, Note_off_c, 1, 46, 64
3, 86736, Note_off_c, 1, 57, 64
3, 86760, Note_on_c, 1, 55, 100
3, 86856, Note_off_c, 1, 55, 64
3, 86880, Note_on_c, 1, 63, 100
3, 86880, Note_on_c, 1, 48, 100
3, 86976, Note_off_c, 1, 63, 64
3, 87000, Note_on_c, 1, 57, 100
3, 87072, Note_off_c, 1, 48, 64
3, 87096, Note_off_c, 1, 57, 64
3, 87120, Note_on_c, 1, 55, 100
3, 87216, Note_off_c, 1, 55, 64
3, 87240, Note_on_c, 1, 54, 100
3, 87240, Note_on_c, 1, 50, 100
3, 87336, Note_off_c, 1, 50, 64
3, 87336, Note_off_c, 1, 54, 64
3, 87360, Note_on_c, 1, 55, 100
3, 87360, Note_on_c, 1, 52, 100
3, 87456, Note_off_c, 1, 52, 64
3, 87456, Note_off_c, 1, 55, 64
3, 87480, Note_on_c, 1, 54, 100
3, 87480, Note_on_c, 1, 57, 100
3, 87576, Note_off_c, 1, 57, 64
3, 87576, Note_off_c, 1, 54, 64
3, 87600, Note_on_c, 1, 58, 100
3, 87600, Note_on_c, 1, 43, 100
3, 87696, Note_off_c, 1, 43, 64
3, 87696, Note_off_c, 1, 58, 64
3, 87720, Note_on_c, 1, 60, 100
3, 87720, Note_on_c, 1, 45, 100
3, 87816, Note_off_c, 1, 45, 64
3, 87816, Note_off_c, 1, 60, 64
3, 87840, Note_on_c, 1, 62, 100
3, 87840, Note_on_c, 1, 46, 100
3, 87936, Note_off_c, 1, 46, 64
3, 87936, Note_off_c, 1, 62, 64
3, 87960, Note_on_c, 1, 48, 100
3, 88056, Note_off_c, 1, 48, 64
3, 88080, Note_on_c, 1, 50, 100
3, 88176, Note_off_c, 1, 50, 64
3, 88200, Note_on_c, 1, 51, 100
3, 88296, Note_off_c, 1, 51, 64
3, 88320, Note_on_c, 1, 42, 100
3, 88416, Note_off_c, 1, 42, 64
3, 88440, Note_on_c, 1, 43, 100
3, 88536, Note_off_c, 1, 43, 64
3, 88560, Note_on_c, 1, 45, 100
3, 88656, Note_off_c, 1, 45, 64
3, 88680, Note_on_c, 1, 46, 100
3, 88872, Note_off_c, 1, 46, 64
3, 88920, Note_on_c, 1, 51, 100
3, 89016, Note_off_c, 1, 51, 64
3, 89040, Note_on_c, 1, 45, 100
3, 89232, Note_off_c, 1, 45, 64
3, 89280, Note_on_c, 1, 62, 100
3, 89376, Note_off_c, 1, 62, 64
3, 89400, Note_on_c, 1, 63, 100
3, 89496, Note_off_c, 1, 63, 64
3, 89520, Note_on_c, 1, 62, 100
3, 89616, Note_off_c, 1, 62, 64
3, 89640, Note_on_c, 1, 60, 100
3, 89736, Note_off_c, 1, 60, 64
3, 89760, Note_on_c, 1, 58, 100
3, 89856, Note_off_c, 1, 58, 64
3, 89880, Note_on_c, 1, 57, 100
3, 89976, Note_off_c, 1, 57, 64
3, 90000, Note_on_c, 1, 55, 100
3, 90096, Note_off_c, 1, 55, 64
3, 90120, Note_on_c, 1, 54, 100
3, 90216, Note_off_c, 1, 54, 64
3, 90240, Note_on_c, 1, 57, 100
3, 90336, Note_off_c, 1, 57, 64
3, 90360, Note_on_c, 1, 50, 100
3, 90456, Note_off_c, 1, 50, 64
3, 90480, Note_on_c, 1, 48, 100
3, 90576, Note_off_c, 1, 48, 64
3, 90600, Note_on_c, 1, 46, 100
3, 90696, Note_off_c, 1, 46, 64
3, 90720, Note_on_c, 1, 45, 100
3, 90816, Note_off_c, 1, 45, 64
3, 90840, Note_on_c, 1, 46, 100
3, 90936, Note_off_c, 1, 46, 64
3, 90960, Note_on_c, 1, 55, 100
3, 91056, Note_off_c, 1, 55, 64
3, 91080, Note_on_c, 1, 48, 100
3, 91176, Note_off_c, 1, 48, 64
3, 91200, Note_on_c, 1, 50, 100
3, 91296, Note_off_c, 1, 50, 64
3, 91320, Note_on_c, 1, 48, 100
3, 91416, Note_off_c, 1, 48, 64
3, 91440, Note_on_c, 1, 50, 100
3, 91536, Note_off_c, 1, 50, 64
3, 91560, Note_on_c, 1, 43, 100
3, 91656, Note_off_c, 1, 43, 64
3, 91680, Note_on_c, 1, 46, 100
3, 91776, Note_off_c, 1, 46, 64
3, 91800, Note_on_c, 1, 50, 100
3, 91896, Note_off_c, 1, 50, 64
3, 91920, Note_on_c, 1, 55, 100
3, 92112, Note_off_c, 1, 55, 64
3, 92160, Note_on_c, 1, 57, 100
3, 92256, Note_off_c, 1, 57, 64
3, 92280, Note_on_c, 1, 54, 100
3, 92376, Note_off_c, 1, 54, 64
3, 92400, Note_on_c, 1, 55, 100
3, 92496, Note_off_c, 1, 55, 64
3, 92520, Note_on_c, 1, 57, 100
3, 92616, Note_off_c, 1, 57, 64
3, 92640, Note_on_c, 1, 58, 100
3, 92736, Note_off_c, 1, 58, 64
3, 92760, Note_on_c, 1, 60, 100
3, 92856, Note_off_c, 1, 60, 64
3, 92880, Note_on_c, 1, 62, 100
3, 92976, Note_off_c, 1, 62, 64
3, 95040, Note_on_c, 1, 38, 100
3, 95136, Note_off_c, 1, 38, 64
3, 95160, Note_on_c, 1, 37, 100
3, 95256, Note_off_c, 1, 37, 64
3, 95280, Note_on_c, 1, 38, 100
3, 95376, Note_off_c, 1, 38, 64
3, 95400, Note_on_c, 1, 40, 100
3, 95496, Note_off_c, 1, 40, 64
3, 95520, Note_on_c, 1, 41, 100
3, 95616, Note_off_c, 1, 41, 64
3, 95640, Note_on_c, 1, 43, 100
3, 95736, Note_off_c, 1, 43, 64
3, 95760, Note_on_c, 1, 45, 100
3, 95856, Note_off_c, 1, 45, 64
3, 95880, Note_on_c, 1, 46, 100
3, 95976, Note_off_c, 1, 46, 64
3, 96000, Note_on_c, 1, 43, 100
3, 96096, Note_off_c, 1, 43, 64
3, 96120, Note_on_c, 1, 50, 100
3, 96216, Note_off_c, 1, 50, 64
3, 96240, Note_on_c, 1, 52, 100
3, 96336, Note_off_c, 1, 52, 64
3, 96360, Note_on_c, 1, 53, 100
3, 96456, Note_off_c, 1, 53, 64
3, 96480, Note_on_c, 1, 55, 100
3, 96576, Note_off_c, 1, 55, 64
3, 96600, Note_on_c, 1, 53, 100
3, 96696, Note_off_c, 1, 53, 64
3, 96720, Note_on_c, 1, 50, 100
3, 96816, Note_off_c, 1, 50, 64
3, 96840, Note_on_c, 1, 45, 100
3, 96936, Note_off_c, 1, 45, 64
3, 96960, Note_on_c, 1, 55, 100
3, 97056, Note_off_c, 1, 55, 64
3, 97080, Note_on_c, 1, 47, 100
3, 97176, Note_off_c, 1, 47, 64
3, 97200, Note_on_c, 1, 49, 100
3, 97296, Note_off_c, 1, 49, 64
3, 97320, Note_on_c, 1, 50, 100
3, 97776, Note_off_c, 1, 50, 64
3, 97800, Note_on_c, 1, 48, 100
3, 97896, Note_off_c, 1, 48, 64
3, 97920, Note_on_c, 1, 46, 100
3, 98016, Note_off_c, 1, 46, 64
3, 98040, Note_on_c, 1, 48, 100
3, 98592, Note_off_c, 1, 48, 64
3, 98640, Note_on_c, 1, 50, 100
3, 98736, Note_off_c, 1, 50, 64
3, 98760, Note_on_c, 1, 51, 100
3, 98856, Note_off_c, 1, 51, 64
3, 98880, Note_on_c, 1, 50, 100
3, 98976, Note_off_c, 1, 50, 64
3, 99000, Note_on_c, 1, 48, 100
3, 99096, Note_off_c, 1, 48, 64
3, 99120, Note_on_c, 1, 50, 100
3, 99216, Note_off_c, 1, 50, 64
3, 99240, Note_on_c, 1, 48, 100
3, 99336, Note_off_c, 1, 48, 64
3, 99360, Note_on_c, 1, 47, 100
3, 99456, Note_off_c, 1, 47, 64
3, 99480, Note_on_c, 1, 48, 100
3, 99672, Note_off_c, 1, 48, 64
3, 99720, Note_on_c, 1, 57, 100
3, 99816, Note_off_c, 1, 57, 64
3, 99840, Note_on_c, 1, 46, 100
3, 100032, Note_off_c, 1, 46, 64
3, 100080, Note_on_c, 1, 55, 100
3, 100176, Note_off_c, 1, 55, 64
3, 100200, Note_on_c, 1, 57, 100
3, 100296, Note_off_c, 1, 57, 64
3, 100320, Note_on_c, 1, 55, 100
3, 100416, Note_off_c, 1, 55, 64
3, 100440, Note_on_c, 1, 54, 100
3, 100536, Note_off_c, 1, 54, 64
3, 100560, Note_on_c, 1, 55, 100
3, 100656, Note_off_c, 1, 55, 64
3, 100680, Note_on_c, 1, 53, 100
3, 100776, Note_off_c, 1, 53, 64
3, 100800, Note_on_c, 1, 51, 100
3, 100896, Note_off_c, 1, 51, 64
3, 100920, Note_on_c, 1, 50, 100
3, 101016, Note_off_c, 1, 50, 64
3, 101040, Note_on_c, 1, 52, 100
3, 101136, Note_off_c, 1, 52, 64
3, 101160, Note_on_c, 1, 54, 100
3, 101256, Note_off_c, 1, 54, 64
3, 101280, Note_on_c, 1, 55, 100
3, 101736, Note_off_c, 1, 55, 64
3, 101760, Note_on_c, 1, 57, 100
3, 101856, Note_off_c, 1, 57, 64
3, 101880, Note_on_c, 1, 58, 100
3, 101976, Note_off_c, 1, 58, 64
3, 102000, Note_on_c, 1, 54, 100
3, 102288, Note_off_c, 1, 54, 64
3, 102360, Note_on_c, 1, 55, 100
3, 102360, Note_on_c, 1, 55, 100
3, 102552, Note_off_c, 1, 55, 64
3, 102600, Note_on_c, 1, 51, 100
3, 102648, Note_off_c, 1, 55, 64
3, 102696, Note_off_c, 1, 51, 64
3, 102720, Note_on_c, 1, 48, 100
3, 102720, Note_on_c, 1, 57, 100
3, 102816, Note_off_c, 1, 57, 64
3, 102840, Note_on_c, 1, 58, 100
3, 102912, Note_off_c, 1, 48, 64
3, 102936, Note_off_c, 1, 58, 64
3, 102960, Note_on_c, 1, 60, 100
3, 102960, Note_on_c, 1, 50, 100
3, 103056, Note_off_c, 1, 50, 64
3, 103056, Note_off_c, 1, 60, 64
3, 103080, Note_on_c, 1, 58, 100
3, 103080, Note_on_c, 1, 55, 100
3, 103368, Note_off_c, 1, 58, 64
3, 103440, Note_on_c, 1, 60, 100
3, 103488, Note_off_c, 1, 60, 64
3, 103500, Note_on_c, 1, 59, 100
3, 103548, Note_off_c, 1, 59, 64
3, 103560, Note_on_c, 1, 60, 100
3, 103608, Note_off_c, 1, 60, 64
3, 103620, Note_on_c, 1, 59, 100
3, 103656, Note_off_c, 1, 55, 64
3, 103668, Note_off_c, 1, 59, 64
3, 103680, Note_on_c, 1, 60, 100
3, 103728, Note_off_c, 1, 60, 64
3, 103740, Note_on_c, 1, 59, 100
3, 103788, Note_off_c, 1, 59, 64
3, 103800, Note_on_c, 1, 60, 100
3, 103896, Note_off_c, 1, 60, 64
3, 103920, Note_on_c, 1, 55, 100
3, 104016, Note_off_c, 1, 55, 64
3, 104040, Note_on_c, 1, 57, 100
3, 104136, Note_off_c, 1, 57, 64
3, 104160, Note_on_c, 1, 58, 100
3, 104256, Note_off_c, 1, 58, 64
3, 104280, Note_on_c, 1, 53, 100
3, 104376, Note_off_c, 1, 53, 64
3, 104400, Note_on_c, 1, 55, 100
3, 104496, Note_off_c, 1, 55, 64
3, 104520, Note_on_c, 1, 57, 100
3, 104712, Note_off_c, 1, 57, 64
3, 104760, Note_on_c, 1, 53, 100
3, 104856, Note_off_c, 1, 53, 64
3, 104880, Note_on_c, 1, 55, 100
3, 105072, Note_off_c, 1, 55, 64
3, 105120, Note_on_c, 1, 57, 100
3, 105216, Note_off_c, 1, 57, 64
3, 105240, Note_on_c, 1, 58, 100
3, 105336, Note_off_c, 1, 58, 64
3, 105360, Note_on_c, 1, 54, 100
3, 105456, Note_off_c, 1, 54, 64
3, 105480, Note_on_c, 1, 55, 100
3, 105576, Note_off_c, 1, 55, 64
3, 105600, Note_on_c, 1, 57, 100
3, 105696, Note_off_c, 1, 57, 64
3, 105720, Note_on_c, 1, 52, 100
3, 105816, Note_off_c, 1, 52, 64
3, 105840, Note_on_c, 1, 54, 100
3, 105936, Note_off_c, 1, 54, 64
3, 105960, Note_on_c, 1, 55, 100
3, 106056, Note_off_c, 1, 55, 64
3, 106080, Note_on_c, 1, 50, 100
3, 106176, Note_off_c, 1, 50, 64
3, 106200, Note_on_c, 1, 72, 100
3, 106296, Note_off_c, 1, 72, 64
3, 106320, Note_on_c, 1, 53, 100
3, 106416, Note_off_c, 1, 53, 64
3, 106440, Note_on_c, 1, 48, 100
3, 106536, Note_off_c, 1, 48, 64
3, 106560, Note_on_c, 1, 50, 100
3, 106656, Note_off_c, 1, 50, 64
3, 106680, Note_on_c, 1, 51, 100
3, 106776, Note_off_c, 1, 51, 64
3, 106800, Note_on_c, 1, 47, 100
3, 106896, Note_off_c, 1, 47, 64
3, 106920, Note_on_c, 1, 48, 100
3, 107016, Note_off_c, 1, 48, 64
3, 107040, Note_on_c, 1, 50, 100
3, 107136, Note_off_c, 1, 50, 64
3, 107160, Note_on_c, 1, 45, 100
3, 107256, Note_off_c, 1, 45, 64
3, 107280, Note_on_c, 1, 47, 100
3, 107376, Note_off_c, 1, 47, 64
3, 107400, Note_on_c, 1, 48, 100
3, 107496, Note_off_c, 1, 48, 64
3, 107520, Note_on_c, 1, 50, 100
3, 107616, Note_off_c, 1, 50, 64
3, 107640, Note_on_c, 1, 51, 100
3, 107736, Note_off_c, 1, 51, 64
3, 107760, Note_on_c, 1, 53, 100
3, 107856, Note_off_c, 1, 53, 64
3, 107880, Note_on_c, 1, 55, 100
3, 107976, Note_off_c, 1, 55, 64
3, 108000, Note_on_c, 1, 56, 100
3, 108096, Note_off_c, 1, 56, 64
3, 108120, Note_on_c, 1, 55, 100
3, 108216, Note_off_c, 1, 55, 64
3, 108240, Note_on_c, 1, 57, 100
3, 108336, Note_off_c, 1, 57, 64
3, 108360, Note_on_c, 1, 59, 100
3, 108456, Note_off_c, 1, 59, 64
3, 108480, Note_on_c, 1, 48, 100
3, 108576, Note_off_c, 1, 48, 64
3, 108600, Note_on_c, 1, 50, 100
3, 108696, Note_off_c, 1, 50, 64
3, 108720, Note_on_c, 1, 51, 100
3, 108816, Note_off_c, 1, 51, 64
3, 108840, Note_on_c, 1, 53, 100
3, 108936, Note_off_c, 1, 53, 64
3, 108960, Note_on_c, 1, 55, 100
3, 109056, Note_off_c, 1, 55, 64
3, 109080, Note_on_c, 1, 56, 100
3, 109176, Note_off_c, 1, 56, 64
3, 109200, Note_on_c, 1, 47, 100
3, 109296, Note_off_c, 1, 47, 64
3, 109320, Note_on_c, 1, 48, 100
3, 109416, Note_off_c, 1, 48, 64
3, 109440, Note_on_c, 1, 50, 100
3, 109536, Note_off_c, 1, 50, 64
3, 109560, Note_on_c, 1, 51, 100
3, 109752, Note_off_c, 1, 51, 64
3, 109800, Note_on_c, 1, 56, 100
3, 109896, Note_off_c, 1, 56, 64
3, 109920, Note_on_c, 1, 50, 100
3, 110112, Note_off_c, 1, 50, 64
3, 110160, Note_on_c, 1, 55, 100
3, 110256, Note_off_c, 1, 55, 64
3, 110280, Note_on_c, 1, 48, 100
3, 110472, Note_off_c, 1, 48, 64
3, 110880, Note_on_c, 1, 58, 100
3, 110976, Note_off_c, 1, 58, 64
3, 111000, Note_on_c, 1, 57, 100
3, 111288, Note_off_c, 1, 57, 64
3, 111600, Note_on_c, 1, 55, 100
3, 111696, Note_off_c, 1, 55, 64
3, 111720, Note_on_c, 1, 53, 100
3, 112008, Note_off_c, 1, 53, 64
3, 112320, Note_on_c, 1, 51, 100
3, 112416, Note_off_c, 1, 51, 64
3, 112440, Note_on_c, 1, 42, 100
3, 112536, Note_off_c, 1, 42, 64
3, 112560, Note_on_c, 1, 43, 100
3, 112656, Note_off_c, 1, 43, 64
3, 112680, Note_on_c, 1, 45, 100
3, 112776, Note_off_c, 1, 45, 64
3, 112800, Note_on_c, 1, 46, 100
3, 112896, Note_off_c, 1, 46, 64
3, 112920, Note_on_c, 1, 48, 100
3, 113016, Note_off_c, 1, 48, 64
3, 113040, Note_on_c, 1, 50, 100
3, 113136, Note_off_c, 1, 50, 64
3, 113160, Note_on_c, 1, 51, 100
3, 113256, Note_off_c, 1, 51, 64
3, 113280, Note_on_c, 1, 48, 100
3, 113376, Note_off_c, 1, 48, 64
3, 113400, Note_on_c, 1, 55, 100
3, 113496, Note_off_c, 1, 55, 64
3, 113520, Note_on_c, 1, 57, 100
3, 113616, Note_off_c, 1, 57, 64
3, 113640, Note_on_c, 1, 58, 100
3, 113736, Note_off_c, 1, 58, 64
3, 113760, Note_on_c, 1, 60, 100
3, 113856, Note_off_c, 1, 60, 64
3, 113880, Note_on_c, 1, 58, 100
3, 113976, Note_off_c, 1, 58, 64
3, 114000, Note_on_c, 1, 55, 100
3, 114096, Note_off_c, 1, 55, 64
3, 114120, Note_on_c, 1, 50, 100
3, 114216, Note_off_c, 1, 50, 64
3, 114240, Note_on_c, 1, 60, 100
3, 114336, Note_off_c, 1, 60, 64
3, 114360, Note_on_c, 1, 52, 100
3, 114456, Note_off_c, 1, 52, 64
3, 114480, Note_on_c, 1, 54, 100
3, 114576, Note_off_c, 1, 54, 64
3, 114600, Note_on_c, 1, 55, 100
3, 114696, Note_off_c, 1, 55, 64
3, 114720, Note_on_c, 1, 50, 100
3, 114816, Note_off_c, 1, 50, 64
3, 114840, Note_on_c, 1, 46, 100
3, 114936, Note_off_c, 1, 46, 64
3, 114960, Note_on_c, 1, 56, 100
3, 115056, Note_off_c, 1, 56, 64
3, 115080, Note_on_c, 1, 48, 100
3, 115176, Note_off_c, 1, 48, 64
3, 115200, Note_on_c, 1, 50, 100
3, 115296, Note_off_c, 1, 50, 64
3, 115320, Note_on_c, 1, 51, 100
3, 115416, Note_off_c, 1, 51, 64
3, 115440, Note_on_c, 1, 46, 100
3, 115536, Note_off_c, 1, 46, 64
3, 115560, Note_on_c, 1, 43, 100
3, 115656, Note_off_c, 1, 43, 64
3, 115680, Note_on_c, 1, 53, 100
3, 115776, Note_off_c, 1, 53, 64
3, 115800, Note_on_c, 1, 45, 100
3, 115896, Note_off_c, 1, 45, 64
3, 115920, Note_on_c, 1, 47, 100
3, 116016, Note_off_c, 1, 47, 64
3, 116040, Note_on_c, 1, 48, 100
3, 116232, Note_off_c, 1, 48, 64
3, 116400, Note_on_c, 1, 43, 100
3, 116592, Note_off_c, 1, 43, 64
3, 116760, Note_on_c, 1, 40, 100
3, 116952, Note_off_c, 1, 40, 64
3, 117120, Note_on_c, 1, 42, 100
3, 117312, Note_off_c, 1, 42, 64
3, 117480, Note_on_c, 1, 43, 100
3, 117672, Note_off_c, 1, 43, 64
3, 117840, Note_on_c, 1, 45, 100
3, 118032, Note_off_c, 1, 45, 64
3, 118200, Note_on_c, 1, 46, 100
3, 118392, Note_off_c, 1, 46, 64
3, 118560, Note_on_c, 1, 48, 100
3, 118752, Note_off_c, 1, 48, 64
3, 118920, Note_on_c, 1, 50, 100
3, 119112, Note_off_c, 1, 50, 64
3, 119280, Note_on_c, 1, 52, 100
3, 119472, Note_off_c, 1, 52, 64
3, 119640, Note_on_c, 1, 54, 100
3, 119832, Note_off_c, 1, 54, 64
3, 119880, Note_on_c, 1, 38, 100
3, 119976, Note_off_c, 1, 38, 64
3, 120000, Note_on_c, 1, 58, 100
3, 120000, Note_on_c, 1, 40, 100
3, 120096, Note_off_c, 1, 58, 64
3, 120120, Note_on_c, 1, 60, 100
3, 120192, Note_off_c, 1, 40, 64
3, 120216, Note_off_c, 1, 60, 64
3, 120240, Note_on_c, 1, 42, 100
3, 120240, Note_on_c, 1, 57, 100
3, 120336, Note_off_c, 1, 57, 64
3, 120336, Note_off_c, 1, 42, 64
3, 120360, Note_on_c, 1, 58, 100
3, 120360, Note_on_c, 1, 43, 100
3, 120456, Note_off_c, 1, 58, 64
3, 120480, Note_on_c, 1, 57, 100
3, 120552, Note_off_c, 1, 43, 64
3, 120576, Note_off_c, 1, 57, 64
3, 120600, Note_on_c, 1, 55, 100
3, 120696, Note_off_c, 1, 55, 64
3, 120720, Note_on_c, 1, 60, 100
3, 120720, Note_on_c, 1, 45, 100
3, 120816, Note_off_c, 1, 60, 64
3, 120840, Note_on_c, 1, 57, 100
3, 120912, Note_off_c, 1, 45, 64
3, 120936, Note_off_c, 1, 57, 64
3, 120960, Note_on_c, 1, 55, 100
3, 121056, Note_off_c, 1, 55, 64
3, 121080, Note_on_c, 1, 62, 100
3, 121080, Note_on_c, 1, 46, 100
3, 121176, Note_off_c, 1, 62, 64
3, 121200, Note_on_c, 1, 57, 100
3, 121272, Note_off_c, 1, 46, 64
3, 121296, Note_off_c, 1, 57, 64
3, 121320, Note_on_c, 1, 55, 100
3, 121416, Note_off_c, 1, 55, 64
3, 121440, Note_on_c, 1, 63, 100
3, 121440, Note_on_c, 1, 48, 100
3, 121536, Note_off_c, 1, 63, 64
3, 121560, Note_on_c, 1, 57, 100
3, 121632, Note_off_c, 1, 48, 64
3, 121656, Note_off_c, 1, 57, 64
3, 121680, Note_on_c, 1, 55, 100
3, 121776, Note_off_c, 1, 55, 64
3, 121800, Note_on_c, 1, 54, 100
3, 121800, Note_on_c, 1, 50, 100
3, 121896, Note_off_c, 1, 50, 64
3, 121896, Note_off_c, 1, 54, 64
3, 121920, Note_on_c, 1, 55, 100
3, 121920, Note_on_c, 1, 52, 100
3, 122016, Note_off_c, 1, 52, 64
3, 122016, Note_off_c, 1, 55, 64
3, 122040, Note_on_c, 1, 54, 100
3, 122040, Note_on_c, 1, 57, 100
3, 122136, Note_off_c, 1, 57, 64
3, 122136, Note_off_c, 1, 54, 64
3, 122160, Note_on_c, 1, 58, 100
3, 122160, Note_on_c, 1, 43, 100
3, 122256, Note_off_c, 1, 43, 64
3, 122256, Note_off_c, 1, 58, 64
3, 122280, Note_on_c, 1, 60, 100
3, 122280, Note_on_c, 1, 45, 100
3, 122376, Note_off_c, 1, 45, 64
3, 122376, Note_off_c, 1, 60, 64
3, 122400, Note_on_c, 1, 62, 100
3, 122400, Note_on_c, 1, 46, 100
3, 122496, Note_off_c, 1, 46, 64
3, 122496, Note_off_c, 1, 62, 64
3, 122520, Note_on_c, 1, 48, 100
3, 122616, Note_off_c, 1, 48, 64
3, 122640, Note_on_c, 1, 50, 100
3, 122736, Note_off_c, 1, 50, 64
3, 122760, Note_on_c, 1, 51, 100
3, 122856, Note_off_c, 1, 51, 64
3, 122880, Note_on_c, 1, 42, 100
3, 122976, Note_off_c, 1, 42, 64
3, 123000, Note_on_c, 1, 43, 100
3, 123096, Note_off_c, 1, 43, 64
3, 123120, Note_on_c, 1, 45, 100
3, 123216, Note_off_c, 1, 45, 64
3, 123240, Note_on_c, 1, 46, 100
3, 123432, Note_off_c, 1, 46, 64
3, 123480, Note_on_c, 1, 51, 100
3, 123576, Note_off_c, 1, 51, 64
3, 123600, Note_on_c, 1, 45, 100
3, 123792, Note_off_c, 1, 45, 64
3, 123840, Note_on_c, 1, 62, 100
3, 123936, Note_off_c, 1, 62, 64
3, 123960, Note_on_c, 1, 63, 100
3, 124056, Note_off_c, 1, 63, 64
3, 124080, Note_on_c, 1, 62, 100
3, 124176, Note_off_c, 1, 62, 64
3, 124200, Note_on_c, 1, 60, 100
3, 124296, Note_off_c, 1, 60, 64
3, 124320, Note_on_c, 1, 58, 100
3, 124416, Note_off_c, 1, 58, 64
3, 124440, Note_on_c, 1, 57, 100
3, 124536, Note_off_c, 1, 57, 64
3, 124560, Note_on_c, 1, 55, 100
3, 124656, Note_off_c, 1, 55, 64
3, 124680, Note_on_c, 1, 54, 100
3, 124776, Note_off_c, 1, 54, 64
3, 124800, Note_on_c, 1, 57, 100
3, 124896, Note_off_c, 1, 57, 64
3, 124920, Note_on_c, 1, 50, 100
3, 125016, Note_off_c, 1, 50, 64
3, 125040, Note_on_c, 1, 48, 100
3, 125136, Note_off_c, 1, 48, 64
3, 125160, Note_on_c, 1, 46, 100
3, 125256, Note_off_c, 1, 46, 64
3, 125280, Note_on_c, 1, 45, 100
3, 125376, Note_off_c, 1, 45, 64
3, 125400, Note_on_c, 1, 46, 100
3, 125496, Note_off_c, 1, 46, 64
3, 125520, Note_on_c, 1, 55, 100
3, 125616, Note_off_c, 1, 55, 64
3, 125640, Note_on_c, 1, 48, 100
3, 125736, Note_off_c, 1, 48, 64
3, 125760, Note_on_c, 1, 50, 100
3, 125856, Note_off_c, 1, 50, 64
3, 125880, Note_on_c, 1, 48, 100
3, 125976, Note_off_c, 1, 48, 64
3, 126000, Note_on_c, 1, 50, 100
3, 126096, Note_off_c, 1, 50, 64
3, 126120, Note_on_c, 1, 43, 100
3, 126216, Note_off_c, 1, 43, 64
3, 126240, Note_on_c, 1, 46, 100
3, 126336, Note_off_c, 1, 46, 64
3, 126360, Note_on_c, 1, 50, 100
3, 126456, Note_off_c, 1, 50, 64
3, 126480, Note_on_c, 1, 55, 100
3, 126672, Note_off_c, 1, 55, 64
3, 126672, End_track
4, 0, Start_track
4, 0, Title_t, "Arr. Gary Bricault, (c) 1997"
4, 0, End_track
0, 0, End_of_file
