0, 0, Header, 1, 4, 240
1, 0, Start_track
1, 0, Title_t, "untitled"
1, 0, SMPTE_offset, 96, 0, 3, 0, 0
1, 0, Time_signature, 1, 3, 12, 8
1, 0, Key_signature, 0, "major"
1, 0, Tempo, 416667
1, 120, Time_signature, 3, 1, 48, 8
1, 11640, Time_signature, 1, 3, 12, 8
1, 11760, Time_signature, 3, 1, 48, 8
1, 23280, Time_signature, 1, 3, 12, 8
1, 23400, Time_signature, 3, 1, 48, 8
1, 46440, Time_signature, 1, 3, 12, 8
1, 46560, Time_signature, 3, 1, 48, 8
1, 46560, End_track
2, 0, Start_track
2, 0, MIDI_port, 0
2, 0, Title_t, "English Suite 1, 6. Double 2"
2, 0, Program_c, 0, 0
2, 0, Control_c, 0, 7, 100
2, 0, Control_c, 0, 10, 64
2, 0, Note_on_c, 0, 69, 107
2, 96, Note_on_c, 0, 69, 0
2, 120, Note_on_c, 0, 69, 107
2, 240, Note_on_c, 0, 64, 107
2, 360, Note_on_c, 0, 61, 107
2, 696, Note_on_c, 0, 69, 0
2, 744, Note_on_c, 0, 61, 0
2, 744, Note_on_c, 0, 64, 0
2, 840, Note_on_c, 0, 64, 107
2, 1032, Note_on_c, 0, 64, 0
2, 1080, Note_on_c, 0, 66, 107
2, 1104, Note_on_c, 0, 66, 0
2, 1110, Note_on_c, 0, 65, 107
2, 1134, Note_on_c, 0, 65, 0
2, 1140, Note_on_c, 0, 66, 107
2, 1200, Note_on_c, 0, 66, 107
2, 1440, Note_on_c, 0, 67, 107
2, 1488, Note_on_c, 0, 66, 0
2, 1488, Note_on_c, 0, 66, 0
2, 1536, Note_on_c, 0, 67, 0
2, 1560, Note_on_c, 0, 66, 107
2, 1589, Note_on_c, 0, 66, 0
2, 1590, Note_on_c, 0, 64, 107
2, 1619, Note_on_c, 0, 64, 0
2, 1620, Note_on_c, 0, 66, 107
2, 1680, Note_on_c, 0, 66, 107
2, 1920, Note_on_c, 0, 69, 107
2, 1968, Note_on_c, 0, 66, 0
2, 2016, Note_on_c, 0, 69, 0
2, 2040, Note_on_c, 0, 74, 107
2, 2160, Note_on_c, 0, 73, 107
2, 2256, Note_on_c, 0, 73, 0
2, 2280, Note_on_c, 0, 71, 107
2, 2328, Note_on_c, 0, 74, 0
2, 2400, Note_on_c, 0, 76, 107
2, 2496, Note_on_c, 0, 76, 0
2, 2520, Note_on_c, 0, 73, 107
2, 2549, Note_on_c, 0, 73, 0
2, 2550, Note_on_c, 0, 74, 107
2, 2579, Note_on_c, 0, 74, 0
2, 2580, Note_on_c, 0, 73, 107
2, 2712, Note_on_c, 0, 71, 0
2, 2760, Note_on_c, 0, 69, 107
2, 2880, Note_on_c, 0, 71, 107
2, 2928, Note_on_c, 0, 73, 0
2, 2952, Note_on_c, 0, 69, 0
2, 2976, Note_on_c, 0, 71, 0
2, 3000, Note_on_c, 0, 71, 107
2, 3120, Note_on_c, 0, 68, 107
2, 3240, Note_on_c, 0, 64, 107
2, 3576, Note_on_c, 0, 71, 0
2, 3624, Note_on_c, 0, 64, 0
2, 3624, Note_on_c, 0, 68, 0
2, 3720, Note_on_c, 0, 64, 107
2, 3750, Note_on_c, 0, 71, 107
2, 3780, Note_on_c, 0, 76, 107
2, 3893, Note_on_c, 0, 76, 0
2, 3912, Note_on_c, 0, 64, 0
2, 3924, Note_on_c, 0, 71, 0
2, 3960, Note_on_c, 0, 74, 107
2, 3984, Note_on_c, 0, 74, 0
2, 3990, Note_on_c, 0, 73, 107
2, 4014, Note_on_c, 0, 73, 0
2, 4020, Note_on_c, 0, 74, 107
2, 4320, Note_on_c, 0, 76, 107
2, 4368, Note_on_c, 0, 74, 0
2, 4440, Note_on_c, 0, 73, 107
2, 4440, Note_on_c, 0, 69, 107
2, 4464, Note_on_c, 0, 73, 0
2, 4464, Note_on_c, 0, 76, 0
2, 4470, Note_on_c, 0, 74, 107
2, 4494, Note_on_c, 0, 74, 0
2, 4500, Note_on_c, 0, 73, 107
2, 4800, Note_on_c, 0, 71, 107
2, 4824, Note_on_c, 0, 69, 0
2, 4848, Note_on_c, 0, 73, 0
2, 4896, Note_on_c, 0, 71, 0
2, 4920, Note_on_c, 0, 69, 107
2, 5016, Note_on_c, 0, 69, 0
2, 5040, Note_on_c, 0, 73, 107
2, 5136, Note_on_c, 0, 73, 0
2, 5160, Note_on_c, 0, 78, 107
2, 5352, Note_on_c, 0, 78, 0
2, 5400, Note_on_c, 0, 76, 107
2, 5424, Note_on_c, 0, 76, 0
2, 5430, Note_on_c, 0, 74, 107
2, 5454, Note_on_c, 0, 74, 0
2, 5460, Note_on_c, 0, 76, 107
2, 5760, Note_on_c, 0, 78, 107
2, 5808, Note_on_c, 0, 76, 0
2, 5856, Note_on_c, 0, 78, 0
2, 5880, Note_on_c, 0, 75, 107
2, 5904, Note_on_c, 0, 75, 0
2, 5910, Note_on_c, 0, 76, 107
2, 5934, Note_on_c, 0, 76, 0
2, 5940, Note_on_c, 0, 75, 107
2, 6240, Note_on_c, 0, 73, 107
2, 6288, Note_on_c, 0, 75, 0
2, 6336, Note_on_c, 0, 73, 0
2, 6360, Note_on_c, 0, 71, 107
2, 6456, Note_on_c, 0, 71, 0
2, 6480, Note_on_c, 0, 78, 107
2, 6576, Note_on_c, 0, 78, 0
2, 6600, Note_on_c, 0, 83, 107
2, 6792, Note_on_c, 0, 83, 0
2, 6840, Note_on_c, 0, 83, 107
2, 6864, Note_on_c, 0, 83, 0
2, 6870, Note_on_c, 0, 81, 107
2, 6894, Note_on_c, 0, 81, 0
2, 6900, Note_on_c, 0, 80, 105
2, 6924, Note_on_c, 0, 80, 0
2, 6930, Note_on_c, 0, 81, 105
2, 6954, Note_on_c, 0, 81, 0
2, 6960, Note_on_c, 0, 83, 105
2, 6984, Note_on_c, 0, 83, 0
2, 6990, Note_on_c, 0, 81, 105
2, 7014, Note_on_c, 0, 81, 0
2, 7020, Note_on_c, 0, 83, 105
2, 7044, Note_on_c, 0, 83, 0
2, 7050, Note_on_c, 0, 81, 105
2, 7074, Note_on_c, 0, 81, 0
2, 7080, Note_on_c, 0, 83, 105
2, 7104, Note_on_c, 0, 83, 0
2, 7110, Note_on_c, 0, 81, 105
2, 7134, Note_on_c, 0, 81, 0
2, 7140, Note_on_c, 0, 80, 105
2, 7164, Note_on_c, 0, 80, 0
2, 7170, Note_on_c, 0, 81, 105
2, 7194, Note_on_c, 0, 81, 0
2, 7200, Note_on_c, 0, 83, 107
2, 7296, Note_on_c, 0, 83, 0
2, 7320, Note_on_c, 0, 80, 107
2, 7320, Note_on_c, 0, 64, 107
2, 7344, Note_on_c, 0, 80, 0
2, 7350, Note_on_c, 0, 81, 107
2, 7374, Note_on_c, 0, 81, 0
2, 7380, Note_on_c, 0, 80, 107
2, 7416, Note_on_c, 0, 64, 0
2, 7440, Note_on_c, 0, 80, 107
2, 7440, Note_on_c, 0, 63, 107
2, 7536, Note_on_c, 0, 63, 0
2, 7560, Note_on_c, 0, 64, 107
2, 7656, Note_on_c, 0, 64, 0
2, 7680, Note_on_c, 0, 81, 107
2, 7680, Note_on_c, 0, 66, 107
2, 7728, Note_on_c, 0, 80, 0
2, 7776, Note_on_c, 0, 81, 0
2, 7776, Note_on_c, 0, 66, 0
2, 7800, Note_on_c, 0, 83, 107
2, 7800, Note_on_c, 0, 68, 107
2, 7896, Note_on_c, 0, 68, 0
2, 7896, Note_on_c, 0, 83, 0
2, 7920, Note_on_c, 0, 80, 107
2, 7920, Note_on_c, 0, 64, 107
2, 8016, Note_on_c, 0, 64, 0
2, 8016, Note_on_c, 0, 80, 0
2, 8040, Note_on_c, 0, 66, 107
2, 8040, Note_on_c, 0, 81, 107
2, 8136, Note_on_c, 0, 81, 0
2, 8136, Note_on_c, 0, 66, 0
2, 8160, Note_on_c, 0, 68, 107
2, 8160, Note_on_c, 0, 83, 107
2, 8256, Note_on_c, 0, 83, 0
2, 8256, Note_on_c, 0, 68, 0
2, 8280, Note_on_c, 0, 73, 107
2, 8280, Note_on_c, 0, 69, 107
2, 8376, Note_on_c, 0, 69, 0
2, 8400, Note_on_c, 0, 68, 107
2, 8496, Note_on_c, 0, 68, 0
2, 8520, Note_on_c, 0, 69, 107
2, 8568, Note_on_c, 0, 73, 0
2, 8616, Note_on_c, 0, 69, 0
2, 8640, Note_on_c, 0, 81, 107
2, 8640, Note_on_c, 0, 66, 107
2, 8736, Note_on_c, 0, 81, 0
2, 8736, Note_on_c, 0, 66, 0
2, 8760, Note_on_c, 0, 75, 107
2, 8760, Note_on_c, 0, 71, 107
2, 8784, Note_on_c, 0, 75, 0
2, 8790, Note_on_c, 0, 76, 107
2, 8814, Note_on_c, 0, 76, 0
2, 8820, Note_on_c, 0, 75, 107
2, 9120, Note_on_c, 0, 73, 107
2, 9144, Note_on_c, 0, 71, 0
2, 9168, Note_on_c, 0, 75, 0
2, 9216, Note_on_c, 0, 73, 0
2, 9240, Note_on_c, 0, 71, 107
2, 9336, Note_on_c, 0, 71, 0
2, 9360, Note_on_c, 0, 69, 107
2, 9456, Note_on_c, 0, 69, 0
2, 9480, Note_on_c, 0, 68, 107
2, 9576, Note_on_c, 0, 68, 0
2, 9600, Note_on_c, 0, 76, 107
2, 9696, Note_on_c, 0, 76, 0
2, 9720, Note_on_c, 0, 66, 107
2, 9720, Note_on_c, 0, 63, 107
2, 9744, Note_on_c, 0, 66, 0
2, 9750, Note_on_c, 0, 68, 107
2, 9774, Note_on_c, 0, 68, 0
2, 9780, Note_on_c, 0, 66, 107
2, 10080, Note_on_c, 0, 64, 107
2, 10104, Note_on_c, 0, 63, 0
2, 10128, Note_on_c, 0, 66, 0
2, 10176, Note_on_c, 0, 64, 0
2, 10200, Note_on_c, 0, 64, 107
2, 11304, Note_on_c, 0, 64, 0
2, 11640, Note_on_c, 0, 69, 107
2, 11736, Note_on_c, 0, 69, 0
2, 11760, Note_on_c, 0, 69, 107
2, 11880, Note_on_c, 0, 64, 107
2, 12000, Note_on_c, 0, 61, 107
2, 12336, Note_on_c, 0, 69, 0
2, 12384, Note_on_c, 0, 64, 0
2, 12384, Note_on_c, 0, 61, 0
2, 12480, Note_on_c, 0, 64, 107
2, 12672, Note_on_c, 0, 64, 0
2, 12720, Note_on_c, 0, 66, 107
2, 12744, Note_on_c, 0, 66, 0
2, 12750, Note_on_c, 0, 65, 107
2, 12774, Note_on_c, 0, 65, 0
2, 12780, Note_on_c, 0, 66, 107
2, 12840, Note_on_c, 0, 66, 107
2, 13080, Note_on_c, 0, 67, 107
2, 13128, Note_on_c, 0, 66, 0
2, 13128, Note_on_c, 0, 66, 0
2, 13176, Note_on_c, 0, 67, 0
2, 13200, Note_on_c, 0, 66, 107
2, 13229, Note_on_c, 0, 66, 0
2, 13230, Note_on_c, 0, 64, 107
2, 13259, Note_on_c, 0, 64, 0
2, 13260, Note_on_c, 0, 66, 107
2, 13320, Note_on_c, 0, 66, 107
2, 13560, Note_on_c, 0, 69, 107
2, 13608, Note_on_c, 0, 66, 0
2, 13656, Note_on_c, 0, 69, 0
2, 13680, Note_on_c, 0, 74, 107
2, 13800, Note_on_c, 0, 73, 107
2, 13896, Note_on_c, 0, 73, 0
2, 13920, Note_on_c, 0, 71, 107
2, 13968, Note_on_c, 0, 74, 0
2, 14040, Note_on_c, 0, 76, 107
2, 14136, Note_on_c, 0, 76, 0
2, 14160, Note_on_c, 0, 73, 107
2, 14189, Note_on_c, 0, 73, 0
2, 14190, Note_on_c, 0, 74, 107
2, 14219, Note_on_c, 0, 74, 0
2, 14220, Note_on_c, 0, 73, 107
2, 14352, Note_on_c, 0, 71, 0
2, 14400, Note_on_c, 0, 69, 107
2, 14520, Note_on_c, 0, 71, 107
2, 14568, Note_on_c, 0, 73, 0
2, 14592, Note_on_c, 0, 69, 0
2, 14616, Note_on_c, 0, 71, 0
2, 14640, Note_on_c, 0, 71, 107
2, 14760, Note_on_c, 0, 68, 107
2, 14880, Note_on_c, 0, 64, 107
2, 15216, Note_on_c, 0, 71, 0
2, 15264, Note_on_c, 0, 68, 0
2, 15264, Note_on_c, 0, 64, 0
2, 15360, Note_on_c, 0, 64, 107
2, 15390, Note_on_c, 0, 71, 107
2, 15420, Note_on_c, 0, 76, 107
2, 15533, Note_on_c, 0, 76, 0
2, 15552, Note_on_c, 0, 64, 0
2, 15564, Note_on_c, 0, 71, 0
2, 15600, Note_on_c, 0, 74, 107
2, 15624, Note_on_c, 0, 74, 0
2, 15630, Note_on_c, 0, 73, 107
2, 15654, Note_on_c, 0, 73, 0
2, 15660, Note_on_c, 0, 74, 107
2, 15960, Note_on_c, 0, 76, 107
2, 16008, Note_on_c, 0, 74, 0
2, 16080, Note_on_c, 0, 73, 107
2, 16080, Note_on_c, 0, 69, 107
2, 16104, Note_on_c, 0, 73, 0
2, 16104, Note_on_c, 0, 76, 0
2, 16110, Note_on_c, 0, 74, 107
2, 16134, Note_on_c, 0, 74, 0
2, 16140, Note_on_c, 0, 73, 107
2, 16440, Note_on_c, 0, 71, 107
2, 16464, Note_on_c, 0, 69, 0
2, 16488, Note_on_c, 0, 73, 0
2, 16536, Note_on_c, 0, 71, 0
2, 16560, Note_on_c, 0, 69, 107
2, 16656, Note_on_c, 0, 69, 0
2, 16680, Note_on_c, 0, 73, 107
2, 16776, Note_on_c, 0, 73, 0
2, 16800, Note_on_c, 0, 78, 107
2, 16992, Note_on_c, 0, 78, 0
2, 17040, Note_on_c, 0, 76, 107
2, 17064, Note_on_c, 0, 76, 0
2, 17070, Note_on_c, 0, 74, 107
2, 17094, Note_on_c, 0, 74, 0
2, 17100, Note_on_c, 0, 76, 107
2, 17400, Note_on_c, 0, 78, 107
2, 17448, Note_on_c, 0, 76, 0
2, 17496, Note_on_c, 0, 78, 0
2, 17520, Note_on_c, 0, 75, 107
2, 17544, Note_on_c, 0, 75, 0
2, 17550, Note_on_c, 0, 76, 107
2, 17574, Note_on_c, 0, 76, 0
2, 17580, Note_on_c, 0, 75, 107
2, 17880, Note_on_c, 0, 73, 107
2, 17928, Note_on_c, 0, 75, 0
2, 17976, Note_on_c, 0, 73, 0
2, 18000, Note_on_c, 0, 71, 107
2, 18096, Note_on_c, 0, 71, 0
2, 18120, Note_on_c, 0, 78, 107
2, 18216, Note_on_c, 0, 78, 0
2, 18240, Note_on_c, 0, 83, 107
2, 18432, Note_on_c, 0, 83, 0
2, 18480, Note_on_c, 0, 83, 107
2, 18504, Note_on_c, 0, 83, 0
2, 18510, Note_on_c, 0, 81, 107
2, 18534, Note_on_c, 0, 81, 0
2, 18540, Note_on_c, 0, 80, 105
2, 18564, Note_on_c, 0, 80, 0
2, 18570, Note_on_c, 0, 81, 105
2, 18594, Note_on_c, 0, 81, 0
2, 18600, Note_on_c, 0, 83, 105
2, 18624, Note_on_c, 0, 83, 0
2, 18630, Note_on_c, 0, 81, 105
2, 18654, Note_on_c, 0, 81, 0
2, 18660, Note_on_c, 0, 83, 105
2, 18684, Note_on_c, 0, 83, 0
2, 18690, Note_on_c, 0, 81, 105
2, 18714, Note_on_c, 0, 81, 0
2, 18720, Note_on_c, 0, 83, 105
2, 18744, Note_on_c, 0, 83, 0
2, 18750, Note_on_c, 0, 81, 105
2, 18774, Note_on_c, 0, 81, 0
2, 18780, Note_on_c, 0, 80, 105
2, 18804, Note_on_c, 0, 80, 0
2, 18810, Note_on_c, 0, 81, 105
2, 18834, Note_on_c, 0, 81, 0
2, 18840, Note_on_c, 0, 83, 107
2, 18936, Note_on_c, 0, 83, 0
2, 18960, Note_on_c, 0, 80, 107
2, 18960, Note_on_c, 0, 64, 107
2, 18984, Note_on_c, 0, 80, 0
2, 18990, Note_on_c, 0, 81, 107
2, 19014, Note_on_c, 0, 81, 0
2, 19020, Note_on_c, 0, 80, 107
2, 19056, Note_on_c, 0, 64, 0
2, 19080, Note_on_c, 0, 80, 107
2, 19080, Note_on_c, 0, 63, 107
2, 19176, Note_on_c, 0, 63, 0
2, 19200, Note_on_c, 0, 64, 107
2, 19296, Note_on_c, 0, 64, 0
2, 19320, Note_on_c, 0, 81, 107
2, 19320, Note_on_c, 0, 66, 107
2, 19368, Note_on_c, 0, 80, 0
2, 19416, Note_on_c, 0, 81, 0
2, 19416, Note_on_c, 0, 66, 0
2, 19440, Note_on_c, 0, 83, 107
2, 19440, Note_on_c, 0, 68, 107
2, 19536, Note_on_c, 0, 68, 0
2, 19536, Note_on_c, 0, 83, 0
2, 19560, Note_on_c, 0, 80, 107
2, 19560, Note_on_c, 0, 64, 107
2, 19656, Note_on_c, 0, 64, 0
2, 19656, Note_on_c, 0, 80, 0
2, 19680, Note_on_c, 0, 66, 107
2, 19680, Note_on_c, 0, 81, 107
2, 19776, Note_on_c, 0, 81, 0
2, 19776, Note_on_c, 0, 66, 0
2, 19800, Note_on_c, 0, 68, 107
2, 19800, Note_on_c, 0, 83, 107
2, 19896, Note_on_c, 0, 83, 0
2, 19896, Note_on_c, 0, 68, 0
2, 19920, Note_on_c, 0, 73, 107
2, 19920, Note_on_c, 0, 69, 107
2, 20016, Note_on_c, 0, 69, 0
2, 20040, Note_on_c, 0, 68, 107
2, 20136, Note_on_c, 0, 68, 0
2, 20160, Note_on_c, 0, 69, 107
2, 20208, Note_on_c, 0, 73, 0
2, 20256, Note_on_c, 0, 69, 0
2, 20280, Note_on_c, 0, 81, 107
2, 20280, Note_on_c, 0, 66, 107
2, 20376, Note_on_c, 0, 81, 0
2, 20376, Note_on_c, 0, 66, 0
2, 20400, Note_on_c, 0, 75, 107
2, 20400, Note_on_c, 0, 71, 107
2, 20424, Note_on_c, 0, 75, 0
2, 20430, Note_on_c, 0, 76, 107
2, 20454, Note_on_c, 0, 76, 0
2, 20460, Note_on_c, 0, 75, 107
2, 20760, Note_on_c, 0, 73, 107
2, 20784, Note_on_c, 0, 71, 0
2, 20808, Note_on_c, 0, 75, 0
2, 20856, Note_on_c, 0, 73, 0
2, 20880, Note_on_c, 0, 71, 107
2, 20976, Note_on_c, 0, 71, 0
2, 21000, Note_on_c, 0, 69, 107
2, 21096, Note_on_c, 0, 69, 0
2, 21120, Note_on_c, 0, 68, 107
2, 21216, Note_on_c, 0, 68, 0
2, 21240, Note_on_c, 0, 76, 107
2, 21336, Note_on_c, 0, 76, 0
2, 21360, Note_on_c, 0, 66, 107
2, 21360, Note_on_c, 0, 63, 107
2, 21384, Note_on_c, 0, 66, 0
2, 21390, Note_on_c, 0, 68, 107
2, 21414, Note_on_c, 0, 68, 0
2, 21420, Note_on_c, 0, 66, 107
2, 21720, Note_on_c, 0, 64, 107
2, 21744, Note_on_c, 0, 63, 0
2, 21768, Note_on_c, 0, 66, 0
2, 21816, Note_on_c, 0, 64, 0
2, 21840, Note_on_c, 0, 64, 107
2, 22944, Note_on_c, 0, 64, 0
2, 23280, Note_on_c, 0, 71, 107
2, 23400, Note_on_c, 0, 71, 0
2, 23400, Note_on_c, 0, 71, 107
2, 23520, Note_on_c, 0, 68, 107
2, 23640, Note_on_c, 0, 64, 107
2, 23976, Note_on_c, 0, 71, 0
2, 24024, Note_on_c, 0, 68, 0
2, 24024, Note_on_c, 0, 64, 0
2, 24120, Note_on_c, 0, 68, 107
2, 24120, Note_on_c, 0, 64, 107
2, 24312, Note_on_c, 0, 64, 0
2, 24312, Note_on_c, 0, 68, 0
2, 24360, Note_on_c, 0, 66, 107
2, 24360, Note_on_c, 0, 69, 107
2, 24384, Note_on_c, 0, 69, 0
2, 24390, Note_on_c, 0, 68, 107
2, 24414, Note_on_c, 0, 68, 0
2, 24420, Note_on_c, 0, 69, 107
2, 24648, Note_on_c, 0, 66, 0
2, 24720, Note_on_c, 0, 71, 107
2, 24720, Note_on_c, 0, 68, 107
2, 24768, Note_on_c, 0, 69, 0
2, 24816, Note_on_c, 0, 71, 0
2, 24816, Note_on_c, 0, 68, 0
2, 24840, Note_on_c, 0, 73, 107
2, 24840, Note_on_c, 0, 69, 107
2, 25032, Note_on_c, 0, 69, 0
2, 25128, Note_on_c, 0, 73, 0
2, 25200, Note_on_c, 0, 69, 107
2, 25200, Note_on_c, 0, 69, 107
2, 25296, Note_on_c, 0, 69, 0
2, 25320, Note_on_c, 0, 78, 107
2, 25512, Note_on_c, 0, 69, 0
2, 25560, Note_on_c, 0, 74, 107
2, 25608, Note_on_c, 0, 78, 0
2, 25680, Note_on_c, 0, 79, 107
2, 25776, Note_on_c, 0, 79, 0
2, 25800, Note_on_c, 0, 76, 107
2, 25829, Note_on_c, 0, 76, 0
2, 25830, Note_on_c, 0, 78, 107
2, 25859, Note_on_c, 0, 78, 0
2, 25860, Note_on_c, 0, 76, 107
2, 25992, Note_on_c, 0, 74, 0
2, 26040, Note_on_c, 0, 73, 107
2, 26160, Note_on_c, 0, 74, 107
2, 26208, Note_on_c, 0, 74, 0
2, 26208, Note_on_c, 0, 76, 0
2, 26220, Note_on_c, 0, 73, 107
2, 26232, Note_on_c, 0, 73, 0
2, 26268, Note_on_c, 0, 73, 0
2, 26280, Note_on_c, 0, 74, 107
2, 26400, Note_on_c, 0, 71, 107
2, 26520, Note_on_c, 0, 66, 107
2, 26664, Note_on_c, 0, 74, 0
2, 26904, Note_on_c, 0, 66, 0
2, 27000, Note_on_c, 0, 71, 107
2, 27030, Note_on_c, 0, 78, 107
2, 27060, Note_on_c, 0, 83, 107
2, 27096, Note_on_c, 0, 71, 0
2, 27156, Note_on_c, 0, 83, 0
2, 27192, Note_on_c, 0, 71, 0
2, 27204, Note_on_c, 0, 78, 0
2, 27240, Note_on_c, 0, 78, 107
2, 27240, Note_on_c, 0, 83, 107
2, 27264, Note_on_c, 0, 83, 0
2, 27270, Note_on_c, 0, 81, 107
2, 27294, Note_on_c, 0, 81, 0
2, 27300, Note_on_c, 0, 80, 107
2, 27324, Note_on_c, 0, 80, 0
2, 27330, Note_on_c, 0, 81, 107
2, 27354, Note_on_c, 0, 81, 0
2, 27360, Note_on_c, 0, 83, 107
2, 27384, Note_on_c, 0, 83, 0
2, 27390, Note_on_c, 0, 81, 107
2, 27414, Note_on_c, 0, 81, 0
2, 27420, Note_on_c, 0, 83, 107
2, 27444, Note_on_c, 0, 83, 0
2, 27450, Note_on_c, 0, 81, 107
2, 27474, Note_on_c, 0, 81, 0
2, 27480, Note_on_c, 0, 83, 107
2, 27504, Note_on_c, 0, 83, 0
2, 27510, Note_on_c, 0, 81, 107
2, 27534, Note_on_c, 0, 81, 0
2, 27540, Note_on_c, 0, 80, 107
2, 27564, Note_on_c, 0, 80, 0
2, 27570, Note_on_c, 0, 81, 107
2, 27594, Note_on_c, 0, 81, 0
2, 27600, Note_on_c, 0, 83, 107
2, 27624, Note_on_c, 0, 78, 0
2, 27696, Note_on_c, 0, 83, 0
2, 27720, Note_on_c, 0, 79, 107
2, 27720, Note_on_c, 0, 76, 107
2, 27744, Note_on_c, 0, 79, 0
2, 27750, Note_on_c, 0, 81, 107
2, 27774, Note_on_c, 0, 81, 0
2, 27780, Note_on_c, 0, 79, 107
2, 28065, Note_on_c, 0, 79, 0
2, 28080, Note_on_c, 0, 78, 107
2, 28104, Note_on_c, 0, 76, 0
2, 28176, Note_on_c, 0, 78, 0
2, 28200, Note_on_c, 0, 76, 107
2, 28296, Note_on_c, 0, 76, 0
2, 28320, Note_on_c, 0, 79, 107
2, 28416, Note_on_c, 0, 79, 0
2, 28440, Note_on_c, 0, 62, 107
2, 28440, Note_on_c, 0, 71, 107
2, 28632, Note_on_c, 0, 71, 0
2, 28632, Note_on_c, 0, 62, 0
2, 28680, Note_on_c, 0, 64, 107
2, 28710, Note_on_c, 0, 67, 107
2, 28740, Note_on_c, 0, 69, 107
2, 28770, Note_on_c, 0, 73, 107
2, 28793, Note_on_c, 0, 64, 0
2, 29025, Note_on_c, 0, 69, 0
2, 29025, Note_on_c, 0, 67, 0
2, 29040, Note_on_c, 0, 74, 107
2, 29040, Note_on_c, 0, 66, 107
2, 29088, Note_on_c, 0, 73, 0
2, 29136, Note_on_c, 0, 74, 0
2, 29153, Note_on_c, 0, 66, 0
2, 29160, Note_on_c, 0, 73, 107
2, 29160, Note_on_c, 0, 64, 107
2, 29184, Note_on_c, 0, 73, 0
2, 29190, Note_on_c, 0, 74, 107
2, 29214, Note_on_c, 0, 74, 0
2, 29220, Note_on_c, 0, 73, 107
2, 29505, Note_on_c, 0, 73, 0
2, 29520, Note_on_c, 0, 71, 107
2, 29616, Note_on_c, 0, 71, 0
2, 29640, Note_on_c, 0, 69, 107
2, 29736, Note_on_c, 0, 69, 0
2, 29736, Note_on_c, 0, 64, 0
2, 29760, Note_on_c, 0, 76, 107
2, 29856, Note_on_c, 0, 76, 0
2, 29880, Note_on_c, 0, 69, 107
2, 29880, Note_on_c, 0, 81, 107
2, 30072, Note_on_c, 0, 81, 0
2, 30120, Note_on_c, 0, 76, 107
2, 30120, Note_on_c, 0, 79, 107
2, 30144, Note_on_c, 0, 79, 0
2, 30150, Note_on_c, 0, 78, 107
2, 30174, Note_on_c, 0, 78, 0
2, 30180, Note_on_c, 0, 79, 107
2, 30312, Note_on_c, 0, 76, 0
2, 30312, Note_on_c, 0, 69, 0
2, 30360, Note_on_c, 0, 74, 107
2, 30480, Note_on_c, 0, 81, 107
2, 30528, Note_on_c, 0, 79, 0
2, 30552, Note_on_c, 0, 74, 0
2, 30576, Note_on_c, 0, 81, 0
2, 30600, Note_on_c, 0, 78, 107
2, 30600, Note_on_c, 0, 69, 107
2, 30624, Note_on_c, 0, 78, 0
2, 30630, Note_on_c, 0, 80, 107
2, 30654, Note_on_c, 0, 80, 0
2, 30660, Note_on_c, 0, 78, 107
2, 30960, Note_on_c, 0, 76, 107
2, 31008, Note_on_c, 0, 78, 0
2, 31056, Note_on_c, 0, 76, 0
2, 31080, Note_on_c, 0, 74, 107
2, 31176, Note_on_c, 0, 74, 0
2, 31176, Note_on_c, 0, 69, 0
2, 31200, Note_on_c, 0, 73, 107
2, 31296, Note_on_c, 0, 73, 0
2, 31320, Note_on_c, 0, 71, 107
2, 31416, Note_on_c, 0, 71, 0
2, 31440, Note_on_c, 0, 76, 107
2, 31536, Note_on_c, 0, 76, 0
2, 31560, Note_on_c, 0, 67, 107
2, 31560, Note_on_c, 0, 73, 107
2, 31584, Note_on_c, 0, 73, 0
2, 31590, Note_on_c, 0, 74, 107
2, 31614, Note_on_c, 0, 74, 0
2, 31620, Note_on_c, 0, 73, 107
2, 31872, Note_on_c, 0, 73, 0
2, 31920, Note_on_c, 0, 74, 107
2, 31944, Note_on_c, 0, 67, 0
2, 32016, Note_on_c, 0, 74, 0
2, 32040, Note_on_c, 0, 74, 107
2, 32040, Note_on_c, 0, 69, 107
2, 32040, Note_on_c, 0, 66, 107
2, 32424, Note_on_c, 0, 69, 0
2, 32424, Note_on_c, 0, 66, 0
2, 32616, Note_on_c, 0, 74, 0
2, 32760, Note_on_c, 0, 78, 107
2, 32952, Note_on_c, 0, 78, 0
2, 33000, Note_on_c, 0, 79, 107
2, 33024, Note_on_c, 0, 79, 0
2, 33030, Note_on_c, 0, 78, 107
2, 33054, Note_on_c, 0, 78, 0
2, 33060, Note_on_c, 0, 79, 107
2, 33360, Note_on_c, 0, 78, 107
2, 33408, Note_on_c, 0, 79, 0
2, 33456, Note_on_c, 0, 78, 0
2, 33480, Note_on_c, 0, 76, 107
2, 33504, Note_on_c, 0, 76, 0
2, 33510, Note_on_c, 0, 78, 107
2, 33534, Note_on_c, 0, 78, 0
2, 33540, Note_on_c, 0, 76, 107
2, 33825, Note_on_c, 0, 76, 0
2, 33840, Note_on_c, 0, 74, 107
2, 33936, Note_on_c, 0, 74, 0
2, 33960, Note_on_c, 0, 73, 107
2, 34152, Note_on_c, 0, 73, 0
2, 34200, Note_on_c, 0, 71, 107
2, 34296, Note_on_c, 0, 71, 0
2, 34320, Note_on_c, 0, 70, 107
2, 34416, Note_on_c, 0, 70, 0
2, 34440, Note_on_c, 0, 71, 107
2, 34464, Note_on_c, 0, 71, 0
2, 34470, Note_on_c, 0, 70, 107
2, 34494, Note_on_c, 0, 70, 0
2, 34500, Note_on_c, 0, 71, 107
2, 34785, Note_on_c, 0, 71, 0
2, 34800, Note_on_c, 0, 73, 107
2, 34896, Note_on_c, 0, 73, 0
2, 34920, Note_on_c, 0, 70, 107
2, 34944, Note_on_c, 0, 70, 0
2, 34950, Note_on_c, 0, 71, 107
2, 34974, Note_on_c, 0, 71, 0
2, 34980, Note_on_c, 0, 70, 107
2, 35280, Note_on_c, 0, 68, 107
2, 35328, Note_on_c, 0, 70, 0
2, 35376, Note_on_c, 0, 68, 0
2, 35400, Note_on_c, 0, 66, 107
2, 35496, Note_on_c, 0, 66, 0
2, 35520, Note_on_c, 0, 73, 107
2, 35616, Note_on_c, 0, 73, 0
2, 35640, Note_on_c, 0, 78, 107
2, 35832, Note_on_c, 0, 78, 0
2, 35880, Note_on_c, 0, 76, 107
2, 35904, Note_on_c, 0, 76, 0
2, 35910, Note_on_c, 0, 75, 107
2, 35934, Note_on_c, 0, 75, 0
2, 35940, Note_on_c, 0, 76, 107
2, 36225, Note_on_c, 0, 76, 0
2, 36240, Note_on_c, 0, 78, 107
2, 36336, Note_on_c, 0, 78, 0
2, 36360, Note_on_c, 0, 66, 107
2, 36360, Note_on_c, 0, 74, 107
2, 36384, Note_on_c, 0, 74, 0
2, 36390, Note_on_c, 0, 76, 107
2, 36414, Note_on_c, 0, 76, 0
2, 36420, Note_on_c, 0, 74, 107
2, 36705, Note_on_c, 0, 74, 0
2, 36720, Note_on_c, 0, 73, 107
2, 36833, Note_on_c, 0, 73, 0
2, 36840, Note_on_c, 0, 66, 0
2, 36840, Note_on_c, 0, 71, 107
2, 36936, Note_on_c, 0, 71, 0
2, 36960, Note_on_c, 0, 70, 107
2, 37056, Note_on_c, 0, 70, 0
2, 37080, Note_on_c, 0, 71, 107
2, 37176, Note_on_c, 0, 71, 0
2, 37200, Note_on_c, 0, 73, 107
2, 37296, Note_on_c, 0, 73, 0
2, 37320, Note_on_c, 0, 70, 107
2, 37320, Note_on_c, 0, 73, 107
2, 37344, Note_on_c, 0, 73, 0
2, 37350, Note_on_c, 0, 74, 107
2, 37374, Note_on_c, 0, 74, 0
2, 37380, Note_on_c, 0, 73, 107
2, 37680, Note_on_c, 0, 71, 107
2, 37704, Note_on_c, 0, 70, 0
2, 37728, Note_on_c, 0, 73, 0
2, 37776, Note_on_c, 0, 71, 0
2, 37800, Note_on_c, 0, 66, 107
2, 37800, Note_on_c, 0, 71, 107
2, 37800, Note_on_c, 0, 62, 107
2, 38184, Note_on_c, 0, 62, 0
2, 38184, Note_on_c, 0, 66, 0
2, 38376, Note_on_c, 0, 71, 0
2, 38520, Note_on_c, 0, 71, 107
2, 38730, Note_on_c, 0, 74, 107
2, 38730, Note_on_c, 0, 73, 107
2, 38745, Note_on_c, 0, 73, 0
2, 38745, Note_on_c, 0, 71, 0
2, 38745, Note_on_c, 0, 74, 0
2, 38760, Note_on_c, 0, 71, 107
2, 38760, Note_on_c, 0, 76, 107
2, 39048, Note_on_c, 0, 76, 0
2, 39120, Note_on_c, 0, 74, 107
2, 39210, Note_on_c, 0, 71, 0
2, 39216, Note_on_c, 0, 74, 0
2, 39240, Note_on_c, 0, 73, 107
2, 39240, Note_on_c, 0, 69, 107
2, 39264, Note_on_c, 0, 73, 0
2, 39270, Note_on_c, 0, 74, 107
2, 39294, Note_on_c, 0, 74, 0
2, 39300, Note_on_c, 0, 73, 107
2, 39600, Note_on_c, 0, 71, 107
2, 39648, Note_on_c, 0, 73, 0
2, 39696, Note_on_c, 0, 71, 0
2, 39720, Note_on_c, 0, 69, 107
2, 39816, Note_on_c, 0, 69, 0
2, 39816, Note_on_c, 0, 69, 0
2, 39840, Note_on_c, 0, 73, 107
2, 39936, Note_on_c, 0, 73, 0
2, 39960, Note_on_c, 0, 66, 107
2, 39960, Note_on_c, 0, 57, 107
2, 40152, Note_on_c, 0, 57, 0
2, 40152, Note_on_c, 0, 66, 0
2, 40200, Note_on_c, 0, 59, 107
2, 40230, Note_on_c, 0, 62, 107
2, 40260, Note_on_c, 0, 64, 107
2, 40290, Note_on_c, 0, 68, 107
2, 40488, Note_on_c, 0, 59, 0
2, 40512, Note_on_c, 0, 62, 0
2, 40545, Note_on_c, 0, 64, 0
2, 40560, Note_on_c, 0, 69, 107
2, 40560, Note_on_c, 0, 61, 107
2, 40608, Note_on_c, 0, 68, 0
2, 40656, Note_on_c, 0, 69, 0
2, 40673, Note_on_c, 0, 61, 0
2, 40680, Note_on_c, 0, 68, 107
2, 40680, Note_on_c, 0, 59, 107
2, 40704, Note_on_c, 0, 68, 0
2, 40710, Note_on_c, 0, 69, 107
2, 40734, Note_on_c, 0, 69, 0
2, 40740, Note_on_c, 0, 68, 107
2, 41040, Note_on_c, 0, 66, 107
2, 41088, Note_on_c, 0, 68, 0
2, 41136, Note_on_c, 0, 66, 0
2, 41160, Note_on_c, 0, 64, 107
2, 41256, Note_on_c, 0, 59, 0
2, 41352, Note_on_c, 0, 64, 0
2, 41400, Note_on_c, 0, 71, 107
2, 41496, Note_on_c, 0, 71, 0
2, 41520, Note_on_c, 0, 73, 107
2, 41568, Note_on_c, 0, 73, 0
2, 41580, Note_on_c, 0, 74, 107
2, 41628, Note_on_c, 0, 74, 0
2, 41640, Note_on_c, 0, 73, 107
2, 41664, Note_on_c, 0, 73, 0
2, 41670, Note_on_c, 0, 74, 107
2, 41694, Note_on_c, 0, 74, 0
2, 41700, Note_on_c, 0, 73, 107
2, 41985, Note_on_c, 0, 73, 0
2, 42000, Note_on_c, 0, 71, 107
2, 42096, Note_on_c, 0, 71, 0
2, 42120, Note_on_c, 0, 71, 107
2, 42120, Note_on_c, 0, 76, 107
2, 42345, Note_on_c, 0, 71, 0
2, 42360, Note_on_c, 0, 69, 107
2, 42408, Note_on_c, 0, 76, 0
2, 42480, Note_on_c, 0, 78, 107
2, 42552, Note_on_c, 0, 69, 0
2, 42576, Note_on_c, 0, 78, 0
2, 42600, Note_on_c, 0, 79, 107
2, 42696, Note_on_c, 0, 79, 0
2, 42720, Note_on_c, 0, 76, 107
2, 42816, Note_on_c, 0, 76, 0
2, 42840, Note_on_c, 0, 69, 107
2, 42870, Note_on_c, 0, 76, 107
2, 42900, Note_on_c, 0, 81, 107
2, 43013, Note_on_c, 0, 81, 0
2, 43013, Note_on_c, 0, 76, 0
2, 43032, Note_on_c, 0, 69, 0
2, 43080, Note_on_c, 0, 79, 107
2, 43080, Note_on_c, 0, 74, 107
2, 43104, Note_on_c, 0, 79, 0
2, 43110, Note_on_c, 0, 78, 107
2, 43134, Note_on_c, 0, 78, 0
2, 43140, Note_on_c, 0, 79, 107
2, 43272, Note_on_c, 0, 74, 0
2, 43320, Note_on_c, 0, 76, 107
2, 43440, Note_on_c, 0, 81, 107
2, 43488, Note_on_c, 0, 79, 0
2, 43512, Note_on_c, 0, 76, 0
2, 43536, Note_on_c, 0, 81, 0
2, 43560, Note_on_c, 0, 69, 107
2, 43560, Note_on_c, 0, 78, 107
2, 43785, Note_on_c, 0, 69, 0
2, 43848, Note_on_c, 0, 78, 0
2, 43920, Note_on_c, 0, 80, 107
2, 43920, Note_on_c, 0, 74, 107
2, 44016, Note_on_c, 0, 80, 0
2, 44033, Note_on_c, 0, 74, 0
2, 44040, Note_on_c, 0, 73, 107
2, 44040, Note_on_c, 0, 81, 107
2, 44136, Note_on_c, 0, 81, 0
2, 44136, Note_on_c, 0, 73, 0
2, 44160, Note_on_c, 0, 74, 107
2, 44256, Note_on_c, 0, 74, 0
2, 44280, Note_on_c, 0, 73, 107
2, 44376, Note_on_c, 0, 73, 0
2, 44400, Note_on_c, 0, 71, 107
2, 44496, Note_on_c, 0, 71, 0
2, 44520, Note_on_c, 0, 68, 107
2, 44520, Note_on_c, 0, 71, 107
2, 44544, Note_on_c, 0, 71, 0
2, 44550, Note_on_c, 0, 73, 107
2, 44574, Note_on_c, 0, 73, 0
2, 44580, Note_on_c, 0, 71, 107
2, 44880, Note_on_c, 0, 69, 107
2, 44904, Note_on_c, 0, 68, 0
2, 44928, Note_on_c, 0, 71, 0
2, 44976, Note_on_c, 0, 69, 0
2, 45000, Note_on_c, 0, 69, 107
2, 45120, Note_on_c, 0, 64, 107
2, 45240, Note_on_c, 0, 61, 107
2, 46104, Note_on_c, 0, 61, 0
2, 46104, Note_on_c, 0, 69, 0
2, 46104, Note_on_c, 0, 64, 0
2, 46440, Note_on_c, 0, 71, 107
2, 46560, Note_on_c, 0, 71, 0
2, 46560, Note_on_c, 0, 71, 107
2, 46680, Note_on_c, 0, 68, 107
2, 46800, Note_on_c, 0, 64, 107
2, 47136, Note_on_c, 0, 71, 0
2, 47184, Note_on_c, 0, 68, 0
2, 47184, Note_on_c, 0, 64, 0
2, 47280, Note_on_c, 0, 68, 107
2, 47280, Note_on_c, 0, 64, 107
2, 47472, Note_on_c, 0, 64, 0
2, 47472, Note_on_c, 0, 68, 0
2, 47520, Note_on_c, 0, 66, 107
2, 47520, Note_on_c, 0, 69, 107
2, 47544, Note_on_c, 0, 69, 0
2, 47550, Note_on_c, 0, 68, 107
2, 47574, Note_on_c, 0, 68, 0
2, 47580, Note_on_c, 0, 69, 107
2, 47808, Note_on_c, 0, 66, 0
2, 47880, Note_on_c, 0, 71, 107
2, 47880, Note_on_c, 0, 68, 107
2, 47928, Note_on_c, 0, 69, 0
2, 47976, Note_on_c, 0, 71, 0
2, 47976, Note_on_c, 0, 68, 0
2, 48000, Note_on_c, 0, 73, 107
2, 48000, Note_on_c, 0, 69, 107
2, 48192, Note_on_c, 0, 69, 0
2, 48288, Note_on_c, 0, 73, 0
2, 48360, Note_on_c, 0, 69, 107
2, 48360, Note_on_c, 0, 69, 107
2, 48456, Note_on_c, 0, 69, 0
2, 48480, Note_on_c, 0, 78, 107
2, 48672, Note_on_c, 0, 69, 0
2, 48720, Note_on_c, 0, 74, 107
2, 48768, Note_on_c, 0, 78, 0
2, 48840, Note_on_c, 0, 79, 107
2, 48936, Note_on_c, 0, 79, 0
2, 48960, Note_on_c, 0, 76, 107
2, 48989, Note_on_c, 0, 76, 0
2, 48990, Note_on_c, 0, 78, 107
2, 49019, Note_on_c, 0, 78, 0
2, 49020, Note_on_c, 0, 76, 107
2, 49152, Note_on_c, 0, 74, 0
2, 49200, Note_on_c, 0, 73, 107
2, 49320, Note_on_c, 0, 74, 107
2, 49368, Note_on_c, 0, 74, 0
2, 49368, Note_on_c, 0, 76, 0
2, 49380, Note_on_c, 0, 73, 107
2, 49392, Note_on_c, 0, 73, 0
2, 49428, Note_on_c, 0, 73, 0
2, 49440, Note_on_c, 0, 74, 107
2, 49560, Note_on_c, 0, 71, 107
2, 49680, Note_on_c, 0, 66, 107
2, 49824, Note_on_c, 0, 74, 0
2, 50064, Note_on_c, 0, 66, 0
2, 50160, Note_on_c, 0, 71, 107
2, 50190, Note_on_c, 0, 78, 107
2, 50220, Note_on_c, 0, 83, 107
2, 50256, Note_on_c, 0, 71, 0
2, 50316, Note_on_c, 0, 83, 0
2, 50352, Note_on_c, 0, 71, 0
2, 50364, Note_on_c, 0, 78, 0
2, 50400, Note_on_c, 0, 78, 107
2, 50400, Note_on_c, 0, 83, 107
2, 50424, Note_on_c, 0, 83, 0
2, 50430, Note_on_c, 0, 81, 107
2, 50454, Note_on_c, 0, 81, 0
2, 50460, Note_on_c, 0, 80, 107
2, 50484, Note_on_c, 0, 80, 0
2, 50490, Note_on_c, 0, 81, 107
2, 50514, Note_on_c, 0, 81, 0
2, 50520, Note_on_c, 0, 83, 107
2, 50544, Note_on_c, 0, 83, 0
2, 50550, Note_on_c, 0, 81, 107
2, 50574, Note_on_c, 0, 81, 0
2, 50580, Note_on_c, 0, 83, 107
2, 50604, Note_on_c, 0, 83, 0
2, 50610, Note_on_c, 0, 81, 107
2, 50634, Note_on_c, 0, 81, 0
2, 50640, Note_on_c, 0, 83, 107
2, 50664, Note_on_c, 0, 83, 0
2, 50670, Note_on_c, 0, 81, 107
2, 50694, Note_on_c, 0, 81, 0
2, 50700, Note_on_c, 0, 80, 107
2, 50724, Note_on_c, 0, 80, 0
2, 50730, Note_on_c, 0, 81, 107
2, 50754, Note_on_c, 0, 81, 0
2, 50760, Note_on_c, 0, 83, 107
2, 50784, Note_on_c, 0, 78, 0
2, 50856, Note_on_c, 0, 83, 0
2, 50880, Note_on_c, 0, 79, 107
2, 50880, Note_on_c, 0, 76, 107
2, 50904, Note_on_c, 0, 79, 0
2, 50910, Note_on_c, 0, 81, 107
2, 50934, Note_on_c, 0, 81, 0
2, 50940, Note_on_c, 0, 79, 107
2, 51225, Note_on_c, 0, 79, 0
2, 51240, Note_on_c, 0, 78, 107
2, 51264, Note_on_c, 0, 76, 0
2, 51336, Note_on_c, 0, 78, 0
2, 51360, Note_on_c, 0, 76, 107
2, 51456, Note_on_c, 0, 76, 0
2, 51480, Note_on_c, 0, 79, 107
2, 51576, Note_on_c, 0, 79, 0
2, 51600, Note_on_c, 0, 62, 107
2, 51600, Note_on_c, 0, 71, 107
2, 51792, Note_on_c, 0, 71, 0
2, 51792, Note_on_c, 0, 62, 0
2, 51840, Note_on_c, 0, 64, 107
2, 51870, Note_on_c, 0, 67, 107
2, 51900, Note_on_c, 0, 69, 107
2, 51930, Note_on_c, 0, 73, 107
2, 51953, Note_on_c, 0, 64, 0
2, 52185, Note_on_c, 0, 69, 0
2, 52185, Note_on_c, 0, 67, 0
2, 52200, Note_on_c, 0, 74, 107
2, 52200, Note_on_c, 0, 66, 107
2, 52248, Note_on_c, 0, 73, 0
2, 52296, Note_on_c, 0, 74, 0
2, 52313, Note_on_c, 0, 66, 0
2, 52320, Note_on_c, 0, 73, 107
2, 52320, Note_on_c, 0, 64, 107
2, 52344, Note_on_c, 0, 73, 0
2, 52350, Note_on_c, 0, 74, 107
2, 52374, Note_on_c, 0, 74, 0
2, 52380, Note_on_c, 0, 73, 107
2, 52665, Note_on_c, 0, 73, 0
2, 52680, Note_on_c, 0, 71, 107
2, 52776, Note_on_c, 0, 71, 0
2, 52800, Note_on_c, 0, 69, 107
2, 52896, Note_on_c, 0, 69, 0
2, 52896, Note_on_c, 0, 64, 0
2, 52920, Note_on_c, 0, 76, 107
2, 53016, Note_on_c, 0, 76, 0
2, 53040, Note_on_c, 0, 69, 107
2, 53040, Note_on_c, 0, 81, 107
2, 53232, Note_on_c, 0, 81, 0
2, 53280, Note_on_c, 0, 76, 107
2, 53280, Note_on_c, 0, 79, 107
2, 53304, Note_on_c, 0, 79, 0
2, 53310, Note_on_c, 0, 78, 107
2, 53334, Note_on_c, 0, 78, 0
2, 53340, Note_on_c, 0, 79, 107
2, 53472, Note_on_c, 0, 76, 0
2, 53472, Note_on_c, 0, 69, 0
2, 53520, Note_on_c, 0, 74, 107
2, 53640, Note_on_c, 0, 81, 107
2, 53688, Note_on_c, 0, 79, 0
2, 53712, Note_on_c, 0, 74, 0
2, 53736, Note_on_c, 0, 81, 0
2, 53760, Note_on_c, 0, 78, 107
2, 53760, Note_on_c, 0, 69, 107
2, 53784, Note_on_c, 0, 78, 0
2, 53790, Note_on_c, 0, 80, 107
2, 53814, Note_on_c, 0, 80, 0
2, 53820, Note_on_c, 0, 78, 107
2, 54120, Note_on_c, 0, 76, 107
2, 54168, Note_on_c, 0, 78, 0
2, 54216, Note_on_c, 0, 76, 0
2, 54240, Note_on_c, 0, 74, 107
2, 54336, Note_on_c, 0, 74, 0
2, 54336, Note_on_c, 0, 69, 0
2, 54360, Note_on_c, 0, 73, 107
2, 54456, Note_on_c, 0, 73, 0
2, 54480, Note_on_c, 0, 71, 107
2, 54576, Note_on_c, 0, 71, 0
2, 54600, Note_on_c, 0, 76, 107
2, 54696, Note_on_c, 0, 76, 0
2, 54720, Note_on_c, 0, 67, 107
2, 54720, Note_on_c, 0, 73, 107
2, 54744, Note_on_c, 0, 73, 0
2, 54750, Note_on_c, 0, 74, 107
2, 54774, Note_on_c, 0, 74, 0
2, 54780, Note_on_c, 0, 73, 107
2, 55032, Note_on_c, 0, 73, 0
2, 55080, Note_on_c, 0, 74, 107
2, 55104, Note_on_c, 0, 67, 0
2, 55176, Note_on_c, 0, 74, 0
2, 55200, Note_on_c, 0, 74, 107
2, 55200, Note_on_c, 0, 69, 107
2, 55200, Note_on_c, 0, 66, 107
2, 55584, Note_on_c, 0, 69, 0
2, 55584, Note_on_c, 0, 66, 0
2, 55776, Note_on_c, 0, 74, 0
2, 55920, Note_on_c, 0, 78, 107
2, 56112, Note_on_c, 0, 78, 0
2, 56160, Note_on_c, 0, 79, 107
2, 56184, Note_on_c, 0, 79, 0
2, 56190, Note_on_c, 0, 78, 107
2, 56214, Note_on_c, 0, 78, 0
2, 56220, Note_on_c, 0, 79, 107
2, 56520, Note_on_c, 0, 78, 107
2, 56568, Note_on_c, 0, 79, 0
2, 56616, Note_on_c, 0, 78, 0
2, 56640, Note_on_c, 0, 76, 107
2, 56664, Note_on_c, 0, 76, 0
2, 56670, Note_on_c, 0, 78, 107
2, 56694, Note_on_c, 0, 78, 0
2, 56700, Note_on_c, 0, 76, 107
2, 56985, Note_on_c, 0, 76, 0
2, 57000, Note_on_c, 0, 74, 107
2, 57096, Note_on_c, 0, 74, 0
2, 57120, Note_on_c, 0, 73, 107
2, 57312, Note_on_c, 0, 73, 0
2, 57360, Note_on_c, 0, 71, 107
2, 57456, Note_on_c, 0, 71, 0
2, 57480, Note_on_c, 0, 70, 107
2, 57576, Note_on_c, 0, 70, 0
2, 57600, Note_on_c, 0, 71, 107
2, 57624, Note_on_c, 0, 71, 0
2, 57630, Note_on_c, 0, 70, 107
2, 57654, Note_on_c, 0, 70, 0
2, 57660, Note_on_c, 0, 71, 107
2, 57945, Note_on_c, 0, 71, 0
2, 57960, Note_on_c, 0, 73, 107
2, 58056, Note_on_c, 0, 73, 0
2, 58080, Note_on_c, 0, 70, 107
2, 58104, Note_on_c, 0, 70, 0
2, 58110, Note_on_c, 0, 71, 107
2, 58134, Note_on_c, 0, 71, 0
2, 58140, Note_on_c, 0, 70, 107
2, 58440, Note_on_c, 0, 68, 107
2, 58488, Note_on_c, 0, 70, 0
2, 58536, Note_on_c, 0, 68, 0
2, 58560, Note_on_c, 0, 66, 107
2, 58656, Note_on_c, 0, 66, 0
2, 58680, Note_on_c, 0, 73, 107
2, 58776, Note_on_c, 0, 73, 0
2, 58800, Note_on_c, 0, 78, 107
2, 58992, Note_on_c, 0, 78, 0
2, 59040, Note_on_c, 0, 76, 107
2, 59064, Note_on_c, 0, 76, 0
2, 59070, Note_on_c, 0, 75, 107
2, 59094, Note_on_c, 0, 75, 0
2, 59100, Note_on_c, 0, 76, 107
2, 59385, Note_on_c, 0, 76, 0
2, 59400, Note_on_c, 0, 78, 107
2, 59496, Note_on_c, 0, 78, 0
2, 59520, Note_on_c, 0, 66, 107
2, 59520, Note_on_c, 0, 74, 107
2, 59544, Note_on_c, 0, 74, 0
2, 59550, Note_on_c, 0, 76, 107
2, 59574, Note_on_c, 0, 76, 0
2, 59580, Note_on_c, 0, 74, 107
2, 59865, Note_on_c, 0, 74, 0
2, 59880, Note_on_c, 0, 73, 107
2, 59993, Note_on_c, 0, 73, 0
2, 60000, Note_on_c, 0, 66, 0
2, 60000, Note_on_c, 0, 71, 107
2, 60096, Note_on_c, 0, 71, 0
2, 60120, Note_on_c, 0, 70, 107
2, 60216, Note_on_c, 0, 70, 0
2, 60240, Note_on_c, 0, 71, 107
2, 60336, Note_on_c, 0, 71, 0
2, 60360, Note_on_c, 0, 73, 107
2, 60456, Note_on_c, 0, 73, 0
2, 60480, Note_on_c, 0, 70, 107
2, 60480, Note_on_c, 0, 73, 107
2, 60504, Note_on_c, 0, 73, 0
2, 60510, Note_on_c, 0, 74, 107
2, 60534, Note_on_c, 0, 74, 0
2, 60540, Note_on_c, 0, 73, 107
2, 60840, Note_on_c, 0, 71, 107
2, 60864, Note_on_c, 0, 70, 0
2, 60888, Note_on_c, 0, 73, 0
2, 60936, Note_on_c, 0, 71, 0
2, 60960, Note_on_c, 0, 66, 107
2, 60960, Note_on_c, 0, 71, 107
2, 60960, Note_on_c, 0, 62, 107
2, 61344, Note_on_c, 0, 62, 0
2, 61344, Note_on_c, 0, 66, 0
2, 61536, Note_on_c, 0, 71, 0
2, 61680, Note_on_c, 0, 71, 107
2, 61890, Note_on_c, 0, 74, 107
2, 61890, Note_on_c, 0, 73, 107
2, 61905, Note_on_c, 0, 73, 0
2, 61905, Note_on_c, 0, 71, 0
2, 61905, Note_on_c, 0, 74, 0
2, 61920, Note_on_c, 0, 71, 107
2, 61920, Note_on_c, 0, 76, 107
2, 62208, Note_on_c, 0, 76, 0
2, 62280, Note_on_c, 0, 74, 107
2, 62370, Note_on_c, 0, 71, 0
2, 62376, Note_on_c, 0, 74, 0
2, 62400, Note_on_c, 0, 73, 107
2, 62400, Note_on_c, 0, 69, 107
2, 62424, Note_on_c, 0, 73, 0
2, 62430, Note_on_c, 0, 74, 107
2, 62454, Note_on_c, 0, 74, 0
2, 62460, Note_on_c, 0, 73, 107
2, 62760, Note_on_c, 0, 71, 107
2, 62808, Note_on_c, 0, 73, 0
2, 62856, Note_on_c, 0, 71, 0
2, 62880, Note_on_c, 0, 69, 107
2, 62976, Note_on_c, 0, 69, 0
2, 62976, Note_on_c, 0, 69, 0
2, 63000, Note_on_c, 0, 73, 107
2, 63096, Note_on_c, 0, 73, 0
2, 63120, Note_on_c, 0, 66, 107
2, 63120, Note_on_c, 0, 57, 107
2, 63312, Note_on_c, 0, 57, 0
2, 63312, Note_on_c, 0, 66, 0
2, 63360, Note_on_c, 0, 59, 107
2, 63390, Note_on_c, 0, 62, 107
2, 63420, Note_on_c, 0, 64, 107
2, 63450, Note_on_c, 0, 68, 107
2, 63648, Note_on_c, 0, 59, 0
2, 63672, Note_on_c, 0, 62, 0
2, 63705, Note_on_c, 0, 64, 0
2, 63720, Note_on_c, 0, 69, 107
2, 63720, Note_on_c, 0, 61, 107
2, 63768, Note_on_c, 0, 68, 0
2, 63816, Note_on_c, 0, 69, 0
2, 63833, Note_on_c, 0, 61, 0
2, 63840, Note_on_c, 0, 68, 107
2, 63840, Note_on_c, 0, 59, 107
2, 63864, Note_on_c, 0, 68, 0
2, 63870, Note_on_c, 0, 69, 107
2, 63894, Note_on_c, 0, 69, 0
2, 63900, Note_on_c, 0, 68, 107
2, 64200, Note_on_c, 0, 66, 107
2, 64248, Note_on_c, 0, 68, 0
2, 64296, Note_on_c, 0, 66, 0
2, 64320, Note_on_c, 0, 64, 107
2, 64416, Note_on_c, 0, 59, 0
2, 64512, Note_on_c, 0, 64, 0
2, 64560, Note_on_c, 0, 71, 107
2, 64656, Note_on_c, 0, 71, 0
2, 64680, Note_on_c, 0, 73, 107
2, 64728, Note_on_c, 0, 73, 0
2, 64740, Note_on_c, 0, 74, 107
2, 64788, Note_on_c, 0, 74, 0
2, 64800, Note_on_c, 0, 73, 107
2, 64824, Note_on_c, 0, 73, 0
2, 64830, Note_on_c, 0, 74, 107
2, 64854, Note_on_c, 0, 74, 0
2, 64860, Note_on_c, 0, 73, 107
2, 65145, Note_on_c, 0, 73, 0
2, 65160, Note_on_c, 0, 71, 107
2, 65256, Note_on_c, 0, 71, 0
2, 65280, Note_on_c, 0, 71, 107
2, 65280, Note_on_c, 0, 76, 107
2, 65505, Note_on_c, 0, 71, 0
2, 65520, Note_on_c, 0, 69, 107
2, 65568, Note_on_c, 0, 76, 0
2, 65640, Note_on_c, 0, 78, 107
2, 65712, Note_on_c, 0, 69, 0
2, 65736, Note_on_c, 0, 78, 0
2, 65760, Note_on_c, 0, 79, 107
2, 65856, Note_on_c, 0, 79, 0
2, 65880, Note_on_c, 0, 76, 107
2, 65976, Note_on_c, 0, 76, 0
2, 66000, Note_on_c, 0, 69, 107
2, 66030, Note_on_c, 0, 76, 107
2, 66060, Note_on_c, 0, 81, 107
2, 66173, Note_on_c, 0, 81, 0
2, 66173, Note_on_c, 0, 76, 0
2, 66192, Note_on_c, 0, 69, 0
2, 66240, Note_on_c, 0, 79, 107
2, 66240, Note_on_c, 0, 74, 107
2, 66264, Note_on_c, 0, 79, 0
2, 66270, Note_on_c, 0, 78, 107
2, 66294, Note_on_c, 0, 78, 0
2, 66300, Note_on_c, 0, 79, 107
2, 66432, Note_on_c, 0, 74, 0
2, 66480, Note_on_c, 0, 76, 107
2, 66600, Note_on_c, 0, 81, 107
2, 66648, Note_on_c, 0, 79, 0
2, 66672, Note_on_c, 0, 76, 0
2, 66696, Note_on_c, 0, 81, 0
2, 66720, Note_on_c, 0, 69, 107
2, 66720, Note_on_c, 0, 78, 107
2, 66945, Note_on_c, 0, 69, 0
2, 67008, Note_on_c, 0, 78, 0
2, 67080, Note_on_c, 0, 80, 107
2, 67080, Note_on_c, 0, 74, 107
2, 67176, Note_on_c, 0, 80, 0
2, 67193, Note_on_c, 0, 74, 0
2, 67200, Note_on_c, 0, 73, 107
2, 67200, Note_on_c, 0, 81, 107
2, 67296, Note_on_c, 0, 81, 0
2, 67296, Note_on_c, 0, 73, 0
2, 67320, Note_on_c, 0, 74, 107
2, 67416, Note_on_c, 0, 74, 0
2, 67440, Note_on_c, 0, 73, 107
2, 67536, Note_on_c, 0, 73, 0
2, 67560, Note_on_c, 0, 71, 107
2, 67656, Note_on_c, 0, 71, 0
2, 67680, Note_on_c, 0, 68, 107
2, 67680, Note_on_c, 0, 71, 107
2, 67704, Note_on_c, 0, 71, 0
2, 67710, Note_on_c, 0, 73, 107
2, 67734, Note_on_c, 0, 73, 0
2, 67740, Note_on_c, 0, 71, 107
2, 68040, Note_on_c, 0, 69, 107
2, 68064, Note_on_c, 0, 68, 0
2, 68088, Note_on_c, 0, 71, 0
2, 68136, Note_on_c, 0, 69, 0
2, 68160, Note_on_c, 0, 69, 107
2, 68280, Note_on_c, 0, 64, 107
2, 68400, Note_on_c, 0, 61, 107
2, 69264, Note_on_c, 0, 61, 0
2, 69264, Note_on_c, 0, 69, 0
2, 69264, Note_on_c, 0, 66, 0
2, 69264, Note_on_c, 0, 66, 0
2, 69264, Note_on_c, 0, 80, 0
2, 69264, Note_on_c, 0, 64, 0
2, 69264, Note_on_c, 0, 80, 0
2, 69264, End_track
3, 0, Start_track
3, 0, MIDI_port, 0
3, 0, Title_t, "J.S. Bach, Edition Wood"
3, 0, Program_c, 1, 0
3, 0, Control_c, 1, 7, 100
3, 0, Control_c, 1, 10, 64
3, 120, Note_on_c, 1, 57, 107
3, 408, Note_on_c, 1, 57, 0
3, 480, Note_on_c, 1, 45, 107
3, 576, Note_on_c, 1, 45, 0
3, 600, Note_on_c, 1, 47, 107
3, 696, Note_on_c, 1, 47, 0
3, 720, Note_on_c, 1, 50, 107
3, 816, Note_on_c, 1, 50, 0
3, 840, Note_on_c, 1, 49, 107
3, 936, Note_on_c, 1, 49, 0
3, 960, Note_on_c, 1, 52, 107
3, 1056, Note_on_c, 1, 52, 0
3, 1080, Note_on_c, 1, 50, 107
3, 1176, Note_on_c, 1, 50, 0
3, 1200, Note_on_c, 1, 49, 107
3, 1296, Note_on_c, 1, 49, 0
3, 1320, Note_on_c, 1, 47, 107
3, 1416, Note_on_c, 1, 47, 0
3, 1440, Note_on_c, 1, 45, 107
3, 1536, Note_on_c, 1, 45, 0
3, 1560, Note_on_c, 1, 50, 107
3, 1656, Note_on_c, 1, 50, 0
3, 1680, Note_on_c, 1, 52, 107
3, 1776, Note_on_c, 1, 52, 0
3, 1800, Note_on_c, 1, 50, 107
3, 1896, Note_on_c, 1, 50, 0
3, 1920, Note_on_c, 1, 49, 107
3, 2016, Note_on_c, 1, 49, 0
3, 2040, Note_on_c, 1, 47, 107
3, 2136, Note_on_c, 1, 47, 0
3, 2160, Note_on_c, 1, 45, 107
3, 2256, Note_on_c, 1, 45, 0
3, 2280, Note_on_c, 1, 44, 107
3, 2376, Note_on_c, 1, 44, 0
3, 2400, Note_on_c, 1, 40, 107
3, 2496, Note_on_c, 1, 40, 0
3, 2520, Note_on_c, 1, 42, 107
3, 2616, Note_on_c, 1, 42, 0
3, 2640, Note_on_c, 1, 40, 107
3, 2736, Note_on_c, 1, 40, 0
3, 2760, Note_on_c, 1, 37, 107
3, 2856, Note_on_c, 1, 37, 0
3, 2880, Note_on_c, 1, 33, 107
3, 2976, Note_on_c, 1, 33, 0
3, 3000, Note_on_c, 1, 40, 107
3, 3288, Note_on_c, 1, 40, 0
3, 3360, Note_on_c, 1, 52, 107
3, 3456, Note_on_c, 1, 52, 0
3, 3480, Note_on_c, 1, 54, 107
3, 3576, Note_on_c, 1, 54, 0
3, 3600, Note_on_c, 1, 57, 107
3, 3696, Note_on_c, 1, 57, 0
3, 3720, Note_on_c, 1, 56, 107
3, 3816, Note_on_c, 1, 56, 0
3, 3840, Note_on_c, 1, 59, 107
3, 3936, Note_on_c, 1, 59, 0
3, 3960, Note_on_c, 1, 57, 107
3, 4056, Note_on_c, 1, 57, 0
3, 4080, Note_on_c, 1, 56, 107
3, 4176, Note_on_c, 1, 56, 0
3, 4200, Note_on_c, 1, 54, 107
3, 4296, Note_on_c, 1, 54, 0
3, 4320, Note_on_c, 1, 52, 107
3, 4416, Note_on_c, 1, 52, 0
3, 4440, Note_on_c, 1, 57, 107
3, 4536, Note_on_c, 1, 57, 0
3, 4560, Note_on_c, 1, 59, 107
3, 4656, Note_on_c, 1, 59, 0
3, 4680, Note_on_c, 1, 57, 107
3, 4776, Note_on_c, 1, 57, 0
3, 4800, Note_on_c, 1, 56, 107
3, 4896, Note_on_c, 1, 56, 0
3, 4920, Note_on_c, 1, 54, 107
3, 5016, Note_on_c, 1, 54, 0
3, 5040, Note_on_c, 1, 56, 107
3, 5136, Note_on_c, 1, 56, 0
3, 5160, Note_on_c, 1, 57, 107
3, 5256, Note_on_c, 1, 57, 0
3, 5280, Note_on_c, 1, 54, 107
3, 5376, Note_on_c, 1, 54, 0
3, 5400, Note_on_c, 1, 56, 107
3, 5496, Note_on_c, 1, 56, 0
3, 5520, Note_on_c, 1, 59, 107
3, 5616, Note_on_c, 1, 59, 0
3, 5640, Note_on_c, 1, 58, 107
3, 5736, Note_on_c, 1, 58, 0
3, 5760, Note_on_c, 1, 61, 107
3, 5856, Note_on_c, 1, 61, 0
3, 5880, Note_on_c, 1, 59, 107
3, 5976, Note_on_c, 1, 59, 0
3, 6000, Note_on_c, 1, 61, 107
3, 6096, Note_on_c, 1, 61, 0
3, 6120, Note_on_c, 1, 59, 107
3, 6216, Note_on_c, 1, 59, 0
3, 6240, Note_on_c, 1, 57, 107
3, 6336, Note_on_c, 1, 57, 0
3, 6360, Note_on_c, 1, 56, 107
3, 6456, Note_on_c, 1, 56, 0
3, 6480, Note_on_c, 1, 57, 107
3, 6576, Note_on_c, 1, 57, 0
3, 6600, Note_on_c, 1, 59, 107
3, 6696, Note_on_c, 1, 59, 0
3, 6720, Note_on_c, 1, 56, 107
3, 6816, Note_on_c, 1, 56, 0
3, 6840, Note_on_c, 1, 61, 107
3, 6936, Note_on_c, 1, 61, 0
3, 6960, Note_on_c, 1, 64, 107
3, 7056, Note_on_c, 1, 64, 0
3, 7080, Note_on_c, 1, 63, 107
3, 7176, Note_on_c, 1, 63, 0
3, 7200, Note_on_c, 1, 66, 107
3, 7296, Note_on_c, 1, 66, 0
3, 8880, Note_on_c, 1, 47, 107
3, 8976, Note_on_c, 1, 47, 0
3, 9000, Note_on_c, 1, 49, 107
3, 9096, Note_on_c, 1, 49, 0
3, 9120, Note_on_c, 1, 51, 107
3, 9216, Note_on_c, 1, 51, 0
3, 9240, Note_on_c, 1, 52, 107
3, 9336, Note_on_c, 1, 52, 0
3, 9360, Note_on_c, 1, 54, 107
3, 9456, Note_on_c, 1, 54, 0
3, 9480, Note_on_c, 1, 56, 107
3, 9576, Note_on_c, 1, 56, 0
3, 9600, Note_on_c, 1, 57, 107
3, 9696, Note_on_c, 1, 57, 0
3, 9720, Note_on_c, 1, 59, 107
3, 9816, Note_on_c, 1, 59, 0
3, 9840, Note_on_c, 1, 57, 107
3, 9936, Note_on_c, 1, 57, 0
3, 9960, Note_on_c, 1, 59, 107
3, 10056, Note_on_c, 1, 59, 0
3, 10080, Note_on_c, 1, 47, 107
3, 10176, Note_on_c, 1, 47, 0
3, 10200, Note_on_c, 1, 52, 107
3, 10320, Note_on_c, 1, 59, 107
3, 10425, Note_on_c, 1, 52, 0
3, 10440, Note_on_c, 1, 56, 107
3, 10560, Note_on_c, 1, 47, 107
3, 10673, Note_on_c, 1, 47, 0
3, 10680, Note_on_c, 1, 40, 107
3, 10680, Note_on_c, 1, 40, 107
3, 10793, Note_on_c, 1, 40, 0
3, 10800, Note_on_c, 1, 47, 107
3, 10913, Note_on_c, 1, 47, 0
3, 10920, Note_on_c, 1, 52, 107
3, 11304, Note_on_c, 1, 52, 0
3, 11304, Note_on_c, 1, 59, 0
3, 11304, Note_on_c, 1, 56, 0
3, 11400, Note_on_c, 1, 40, 0
3, 11760, Note_on_c, 1, 57, 107
3, 12048, Note_on_c, 1, 57, 0
3, 12120, Note_on_c, 1, 45, 107
3, 12216, Note_on_c, 1, 45, 0
3, 12240, Note_on_c, 1, 47, 107
3, 12336, Note_on_c, 1, 47, 0
3, 12360, Note_on_c, 1, 50, 107
3, 12456, Note_on_c, 1, 50, 0
3, 12480, Note_on_c, 1, 49, 107
3, 12576, Note_on_c, 1, 49, 0
3, 12600, Note_on_c, 1, 52, 107
3, 12696, Note_on_c, 1, 52, 0
3, 12720, Note_on_c, 1, 50, 107
3, 12816, Note_on_c, 1, 50, 0
3, 12840, Note_on_c, 1, 49, 107
3, 12936, Note_on_c, 1, 49, 0
3, 12960, Note_on_c, 1, 47, 107
3, 13056, Note_on_c, 1, 47, 0
3, 13080, Note_on_c, 1, 45, 107
3, 13176, Note_on_c, 1, 45, 0
3, 13200, Note_on_c, 1, 50, 107
3, 13296, Note_on_c, 1, 50, 0
3, 13320, Note_on_c, 1, 52, 107
3, 13416, Note_on_c, 1, 52, 0
3, 13440, Note_on_c, 1, 50, 107
3, 13536, Note_on_c, 1, 50, 0
3, 13560, Note_on_c, 1, 49, 107
3, 13656, Note_on_c, 1, 49, 0
3, 13680, Note_on_c, 1, 47, 107
3, 13776, Note_on_c, 1, 47, 0
3, 13800, Note_on_c, 1, 45, 107
3, 13896, Note_on_c, 1, 45, 0
3, 13920, Note_on_c, 1, 44, 107
3, 14016, Note_on_c, 1, 44, 0
3, 14040, Note_on_c, 1, 40, 107
3, 14136, Note_on_c, 1, 40, 0
3, 14160, Note_on_c, 1, 42, 107
3, 14256, Note_on_c, 1, 42, 0
3, 14280, Note_on_c, 1, 40, 107
3, 14376, Note_on_c, 1, 40, 0
3, 14400, Note_on_c, 1, 37, 107
3, 14496, Note_on_c, 1, 37, 0
3, 14520, Note_on_c, 1, 33, 107
3, 14616, Note_on_c, 1, 33, 0
3, 14640, Note_on_c, 1, 40, 107
3, 14928, Note_on_c, 1, 40, 0
3, 15000, Note_on_c, 1, 52, 107
3, 15096, Note_on_c, 1, 52, 0
3, 15120, Note_on_c, 1, 54, 107
3, 15216, Note_on_c, 1, 54, 0
3, 15240, Note_on_c, 1, 57, 107
3, 15336, Note_on_c, 1, 57, 0
3, 15360, Note_on_c, 1, 56, 107
3, 15456, Note_on_c, 1, 56, 0
3, 15480, Note_on_c, 1, 59, 107
3, 15576, Note_on_c, 1, 59, 0
3, 15600, Note_on_c, 1, 57, 107
3, 15696, Note_on_c, 1, 57, 0
3, 15720, Note_on_c, 1, 56, 107
3, 15816, Note_on_c, 1, 56, 0
3, 15840, Note_on_c, 1, 54, 107
3, 15936, Note_on_c, 1, 54, 0
3, 15960, Note_on_c, 1, 52, 107
3, 16056, Note_on_c, 1, 52, 0
3, 16080, Note_on_c, 1, 57, 107
3, 16176, Note_on_c, 1, 57, 0
3, 16200, Note_on_c, 1, 59, 107
3, 16296, Note_on_c, 1, 59, 0
3, 16320, Note_on_c, 1, 57, 107
3, 16416, Note_on_c, 1, 57, 0
3, 16440, Note_on_c, 1, 56, 107
3, 16536, Note_on_c, 1, 56, 0
3, 16560, Note_on_c, 1, 54, 107
3, 16656, Note_on_c, 1, 54, 0
3, 16680, Note_on_c, 1, 56, 107
3, 16776, Note_on_c, 1, 56, 0
3, 16800, Note_on_c, 1, 57, 107
3, 16896, Note_on_c, 1, 57, 0
3, 16920, Note_on_c, 1, 54, 107
3, 17016, Note_on_c, 1, 54, 0
3, 17040, Note_on_c, 1, 56, 107
3, 17136, Note_on_c, 1, 56, 0
3, 17160, Note_on_c, 1, 59, 107
3, 17256, Note_on_c, 1, 59, 0
3, 17280, Note_on_c, 1, 58, 107
3, 17376, Note_on_c, 1, 58, 0
3, 17400, Note_on_c, 1, 61, 107
3, 17496, Note_on_c, 1, 61, 0
3, 17520, Note_on_c, 1, 59, 107
3, 17616, Note_on_c, 1, 59, 0
3, 17640, Note_on_c, 1, 61, 107
3, 17736, Note_on_c, 1, 61, 0
3, 17760, Note_on_c, 1, 59, 107
3, 17856, Note_on_c, 1, 59, 0
3, 17880, Note_on_c, 1, 57, 107
3, 17976, Note_on_c, 1, 57, 0
3, 18000, Note_on_c, 1, 56, 107
3, 18096, Note_on_c, 1, 56, 0
3, 18120, Note_on_c, 1, 57, 107
3, 18216, Note_on_c, 1, 57, 0
3, 18240, Note_on_c, 1, 59, 107
3, 18336, Note_on_c, 1, 59, 0
3, 18360, Note_on_c, 1, 56, 107
3, 18456, Note_on_c, 1, 56, 0
3, 18480, Note_on_c, 1, 61, 107
3, 18576, Note_on_c, 1, 61, 0
3, 18600, Note_on_c, 1, 64, 107
3, 18696, Note_on_c, 1, 64, 0
3, 18720, Note_on_c, 1, 63, 107
3, 18816, Note_on_c, 1, 63, 0
3, 18840, Note_on_c, 1, 66, 107
3, 18936, Note_on_c, 1, 66, 0
3, 20520, Note_on_c, 1, 47, 107
3, 20616, Note_on_c, 1, 47, 0
3, 20640, Note_on_c, 1, 49, 107
3, 20736, Note_on_c, 1, 49, 0
3, 20760, Note_on_c, 1, 51, 107
3, 20856, Note_on_c, 1, 51, 0
3, 20880, Note_on_c, 1, 52, 107
3, 20976, Note_on_c, 1, 52, 0
3, 21000, Note_on_c, 1, 54, 107
3, 21096, Note_on_c, 1, 54, 0
3, 21120, Note_on_c, 1, 56, 107
3, 21216, Note_on_c, 1, 56, 0
3, 21240, Note_on_c, 1, 57, 107
3, 21336, Note_on_c, 1, 57, 0
3, 21360, Note_on_c, 1, 59, 107
3, 21456, Note_on_c, 1, 59, 0
3, 21480, Note_on_c, 1, 57, 107
3, 21576, Note_on_c, 1, 57, 0
3, 21600, Note_on_c, 1, 59, 107
3, 21696, Note_on_c, 1, 59, 0
3, 21720, Note_on_c, 1, 47, 107
3, 21816, Note_on_c, 1, 47, 0
3, 21840, Note_on_c, 1, 52, 107
3, 21960, Note_on_c, 1, 59, 107
3, 22065, Note_on_c, 1, 52, 0
3, 22080, Note_on_c, 1, 56, 107
3, 22200, Note_on_c, 1, 47, 107
3, 22313, Note_on_c, 1, 47, 0
3, 22320, Note_on_c, 1, 40, 107
3, 22320, Note_on_c, 1, 40, 107
3, 22433, Note_on_c, 1, 40, 0
3, 22440, Note_on_c, 1, 47, 107
3, 22553, Note_on_c, 1, 47, 0
3, 22560, Note_on_c, 1, 52, 107
3, 22944, Note_on_c, 1, 52, 0
3, 22944, Note_on_c, 1, 59, 0
3, 22944, Note_on_c, 1, 56, 0
3, 23040, Note_on_c, 1, 40, 0
3, 23400, Note_on_c, 1, 40, 107
3, 23592, Note_on_c, 1, 40, 0
3, 23760, Note_on_c, 1, 47, 107
3, 23856, Note_on_c, 1, 47, 0
3, 23880, Note_on_c, 1, 49, 107
3, 23976, Note_on_c, 1, 49, 0
3, 24000, Note_on_c, 1, 52, 107
3, 24096, Note_on_c, 1, 52, 0
3, 24120, Note_on_c, 1, 50, 107
3, 24216, Note_on_c, 1, 50, 0
3, 24240, Note_on_c, 1, 54, 107
3, 24336, Note_on_c, 1, 54, 0
3, 24360, Note_on_c, 1, 52, 107
3, 24456, Note_on_c, 1, 52, 0
3, 24480, Note_on_c, 1, 50, 107
3, 24576, Note_on_c, 1, 50, 0
3, 24600, Note_on_c, 1, 49, 107
3, 24696, Note_on_c, 1, 49, 0
3, 24720, Note_on_c, 1, 47, 107
3, 24816, Note_on_c, 1, 47, 0
3, 24840, Note_on_c, 1, 45, 107
3, 24936, Note_on_c, 1, 45, 0
3, 24960, Note_on_c, 1, 57, 107
3, 25056, Note_on_c, 1, 57, 0
3, 25080, Note_on_c, 1, 59, 107
3, 25176, Note_on_c, 1, 59, 0
3, 25200, Note_on_c, 1, 61, 107
3, 25296, Note_on_c, 1, 61, 0
3, 25320, Note_on_c, 1, 62, 107
3, 25416, Note_on_c, 1, 62, 0
3, 25440, Note_on_c, 1, 61, 107
3, 25536, Note_on_c, 1, 61, 0
3, 25560, Note_on_c, 1, 59, 107
3, 25656, Note_on_c, 1, 59, 0
3, 25680, Note_on_c, 1, 57, 107
3, 25776, Note_on_c, 1, 57, 0
3, 25800, Note_on_c, 1, 56, 107
3, 25896, Note_on_c, 1, 56, 0
3, 25920, Note_on_c, 1, 59, 107
3, 26016, Note_on_c, 1, 59, 0
3, 26040, Note_on_c, 1, 58, 107
3, 26136, Note_on_c, 1, 58, 0
3, 26160, Note_on_c, 1, 61, 107
3, 26256, Note_on_c, 1, 61, 0
3, 26280, Note_on_c, 1, 59, 107
3, 26376, Note_on_c, 1, 59, 0
3, 26400, Note_on_c, 1, 58, 107
3, 26496, Note_on_c, 1, 58, 0
3, 26520, Note_on_c, 1, 59, 107
3, 26616, Note_on_c, 1, 59, 0
3, 26640, Note_on_c, 1, 62, 107
3, 26736, Note_on_c, 1, 62, 0
3, 26760, Note_on_c, 1, 61, 107
3, 26856, Note_on_c, 1, 61, 0
3, 26880, Note_on_c, 1, 64, 107
3, 26976, Note_on_c, 1, 64, 0
3, 27000, Note_on_c, 1, 62, 107
3, 27096, Note_on_c, 1, 62, 0
3, 27120, Note_on_c, 1, 66, 107
3, 27216, Note_on_c, 1, 66, 0
3, 27240, Note_on_c, 1, 64, 107
3, 27336, Note_on_c, 1, 64, 0
3, 27360, Note_on_c, 1, 63, 107
3, 27456, Note_on_c, 1, 63, 0
3, 27480, Note_on_c, 1, 61, 107
3, 27576, Note_on_c, 1, 61, 0
3, 27600, Note_on_c, 1, 59, 107
3, 27696, Note_on_c, 1, 59, 0
3, 27720, Note_on_c, 1, 64, 107
3, 27816, Note_on_c, 1, 64, 0
3, 27840, Note_on_c, 1, 66, 107
3, 27936, Note_on_c, 1, 66, 0
3, 27960, Note_on_c, 1, 64, 107
3, 28056, Note_on_c, 1, 64, 0
3, 28080, Note_on_c, 1, 62, 107
3, 28176, Note_on_c, 1, 62, 0
3, 28200, Note_on_c, 1, 61, 107
3, 28296, Note_on_c, 1, 61, 0
3, 28320, Note_on_c, 1, 59, 107
3, 28416, Note_on_c, 1, 59, 0
3, 28440, Note_on_c, 1, 57, 107
3, 28536, Note_on_c, 1, 57, 0
3, 28560, Note_on_c, 1, 55, 107
3, 28656, Note_on_c, 1, 55, 0
3, 28680, Note_on_c, 1, 54, 107
3, 28776, Note_on_c, 1, 54, 0
3, 28800, Note_on_c, 1, 52, 107
3, 28896, Note_on_c, 1, 52, 0
3, 28920, Note_on_c, 1, 54, 107
3, 29016, Note_on_c, 1, 54, 0
3, 29040, Note_on_c, 1, 50, 107
3, 29136, Note_on_c, 1, 50, 0
3, 29160, Note_on_c, 1, 57, 107
3, 29256, Note_on_c, 1, 57, 0
3, 29280, Note_on_c, 1, 59, 107
3, 29376, Note_on_c, 1, 59, 0
3, 29400, Note_on_c, 1, 57, 107
3, 29496, Note_on_c, 1, 57, 0
3, 29520, Note_on_c, 1, 55, 107
3, 29616, Note_on_c, 1, 55, 0
3, 29640, Note_on_c, 1, 54, 107
3, 29736, Note_on_c, 1, 54, 0
3, 29760, Note_on_c, 1, 52, 107
3, 29856, Note_on_c, 1, 52, 0
3, 29880, Note_on_c, 1, 50, 107
3, 29976, Note_on_c, 1, 50, 0
3, 30000, Note_on_c, 1, 49, 107
3, 30096, Note_on_c, 1, 49, 0
3, 30120, Note_on_c, 1, 47, 107
3, 30216, Note_on_c, 1, 47, 0
3, 30240, Note_on_c, 1, 50, 107
3, 30336, Note_on_c, 1, 50, 0
3, 30360, Note_on_c, 1, 49, 107
3, 30456, Note_on_c, 1, 49, 0
3, 30480, Note_on_c, 1, 52, 107
3, 30576, Note_on_c, 1, 52, 0
3, 30600, Note_on_c, 1, 50, 107
3, 30696, Note_on_c, 1, 50, 0
3, 30720, Note_on_c, 1, 54, 107
3, 30816, Note_on_c, 1, 54, 0
3, 30840, Note_on_c, 1, 52, 107
3, 30936, Note_on_c, 1, 52, 0
3, 30960, Note_on_c, 1, 55, 107
3, 31056, Note_on_c, 1, 55, 0
3, 31080, Note_on_c, 1, 54, 107
3, 31176, Note_on_c, 1, 54, 0
3, 31200, Note_on_c, 1, 57, 107
3, 31296, Note_on_c, 1, 57, 0
3, 31320, Note_on_c, 1, 55, 107
3, 31416, Note_on_c, 1, 55, 0
3, 31440, Note_on_c, 1, 59, 107
3, 31536, Note_on_c, 1, 59, 0
3, 31560, Note_on_c, 1, 57, 107
3, 31656, Note_on_c, 1, 57, 0
3, 31680, Note_on_c, 1, 55, 107
3, 31776, Note_on_c, 1, 55, 0
3, 31800, Note_on_c, 1, 57, 107
3, 31896, Note_on_c, 1, 57, 0
3, 31920, Note_on_c, 1, 45, 107
3, 32016, Note_on_c, 1, 45, 0
3, 32040, Note_on_c, 1, 50, 107
3, 32136, Note_on_c, 1, 50, 0
3, 32160, Note_on_c, 1, 57, 107
3, 32256, Note_on_c, 1, 57, 0
3, 32280, Note_on_c, 1, 59, 107
3, 32376, Note_on_c, 1, 59, 0
3, 32400, Note_on_c, 1, 62, 107
3, 32496, Note_on_c, 1, 62, 0
3, 32520, Note_on_c, 1, 61, 107
3, 32616, Note_on_c, 1, 61, 0
3, 32640, Note_on_c, 1, 64, 107
3, 32736, Note_on_c, 1, 64, 0
3, 32760, Note_on_c, 1, 62, 107
3, 32856, Note_on_c, 1, 62, 0
3, 32880, Note_on_c, 1, 66, 107
3, 32976, Note_on_c, 1, 66, 0
3, 33000, Note_on_c, 1, 64, 107
3, 33096, Note_on_c, 1, 64, 0
3, 33120, Note_on_c, 1, 62, 107
3, 33216, Note_on_c, 1, 62, 0
3, 33240, Note_on_c, 1, 61, 107
3, 33336, Note_on_c, 1, 61, 0
3, 33360, Note_on_c, 1, 59, 107
3, 33456, Note_on_c, 1, 59, 0
3, 33480, Note_on_c, 1, 58, 107
3, 33576, Note_on_c, 1, 58, 0
3, 33600, Note_on_c, 1, 59, 107
3, 33696, Note_on_c, 1, 59, 0
3, 33720, Note_on_c, 1, 61, 107
3, 33816, Note_on_c, 1, 61, 0
3, 33840, Note_on_c, 1, 62, 107
3, 33936, Note_on_c, 1, 62, 0
3, 33960, Note_on_c, 1, 64, 107
3, 34056, Note_on_c, 1, 64, 0
3, 34080, Note_on_c, 1, 62, 107
3, 34176, Note_on_c, 1, 62, 0
3, 34200, Note_on_c, 1, 64, 107
3, 34296, Note_on_c, 1, 64, 0
3, 34320, Note_on_c, 1, 66, 107
3, 34416, Note_on_c, 1, 66, 0
3, 34440, Note_on_c, 1, 67, 107
3, 34536, Note_on_c, 1, 67, 0
3, 34560, Note_on_c, 1, 66, 107
3, 34656, Note_on_c, 1, 66, 0
3, 34680, Note_on_c, 1, 67, 107
3, 34776, Note_on_c, 1, 67, 0
3, 34800, Note_on_c, 1, 64, 107
3, 34896, Note_on_c, 1, 64, 0
3, 34920, Note_on_c, 1, 66, 107
3, 35016, Note_on_c, 1, 66, 0
3, 35040, Note_on_c, 1, 67, 107
3, 35136, Note_on_c, 1, 67, 0
3, 35160, Note_on_c, 1, 66, 107
3, 35256, Note_on_c, 1, 66, 0
3, 35280, Note_on_c, 1, 64, 107
3, 35376, Note_on_c, 1, 64, 0
3, 35400, Note_on_c, 1, 62, 107
3, 35496, Note_on_c, 1, 62, 0
3, 35520, Note_on_c, 1, 61, 107
3, 35616, Note_on_c, 1, 61, 0
3, 35640, Note_on_c, 1, 59, 107
3, 35736, Note_on_c, 1, 59, 0
3, 35760, Note_on_c, 1, 57, 107
3, 35856, Note_on_c, 1, 57, 0
3, 35880, Note_on_c, 1, 56, 107
3, 35976, Note_on_c, 1, 56, 0
3, 36000, Note_on_c, 1, 59, 107
3, 36096, Note_on_c, 1, 59, 0
3, 36120, Note_on_c, 1, 58, 107
3, 36216, Note_on_c, 1, 58, 0
3, 36240, Note_on_c, 1, 61, 107
3, 36336, Note_on_c, 1, 61, 0
3, 36360, Note_on_c, 1, 59, 107
3, 36456, Note_on_c, 1, 59, 0
3, 36480, Note_on_c, 1, 61, 107
3, 36576, Note_on_c, 1, 61, 0
3, 36600, Note_on_c, 1, 59, 107
3, 36696, Note_on_c, 1, 59, 0
3, 36720, Note_on_c, 1, 57, 107
3, 36816, Note_on_c, 1, 57, 0
3, 36840, Note_on_c, 1, 55, 107
3, 36936, Note_on_c, 1, 55, 0
3, 36960, Note_on_c, 1, 54, 107
3, 37056, Note_on_c, 1, 54, 0
3, 37080, Note_on_c, 1, 55, 107
3, 37176, Note_on_c, 1, 55, 0
3, 37200, Note_on_c, 1, 52, 107
3, 37296, Note_on_c, 1, 52, 0
3, 37320, Note_on_c, 1, 54, 107
3, 37416, Note_on_c, 1, 54, 0
3, 37440, Note_on_c, 1, 52, 107
3, 37536, Note_on_c, 1, 52, 0
3, 37560, Note_on_c, 1, 54, 107
3, 37656, Note_on_c, 1, 54, 0
3, 37680, Note_on_c, 1, 42, 107
3, 37776, Note_on_c, 1, 42, 0
3, 37800, Note_on_c, 1, 47, 107
3, 37896, Note_on_c, 1, 47, 0
3, 37920, Note_on_c, 1, 49, 107
3, 38016, Note_on_c, 1, 49, 0
3, 38040, Note_on_c, 1, 50, 107
3, 38136, Note_on_c, 1, 50, 0
3, 38160, Note_on_c, 1, 49, 107
3, 38256, Note_on_c, 1, 49, 0
3, 38280, Note_on_c, 1, 47, 107
3, 38376, Note_on_c, 1, 47, 0
3, 38400, Note_on_c, 1, 45, 107
3, 38496, Note_on_c, 1, 45, 0
3, 38520, Note_on_c, 1, 44, 107
3, 38616, Note_on_c, 1, 44, 0
3, 38640, Note_on_c, 1, 47, 107
3, 38736, Note_on_c, 1, 47, 0
3, 38760, Note_on_c, 1, 45, 107
3, 38856, Note_on_c, 1, 45, 0
3, 38880, Note_on_c, 1, 44, 107
3, 38976, Note_on_c, 1, 44, 0
3, 39000, Note_on_c, 1, 42, 107
3, 39096, Note_on_c, 1, 42, 0
3, 39120, Note_on_c, 1, 40, 107
3, 39216, Note_on_c, 1, 40, 0
3, 39240, Note_on_c, 1, 45, 107
3, 39336, Note_on_c, 1, 45, 0
3, 39360, Note_on_c, 1, 47, 107
3, 39456, Note_on_c, 1, 47, 0
3, 39480, Note_on_c, 1, 45, 107
3, 39576, Note_on_c, 1, 45, 0
3, 39600, Note_on_c, 1, 44, 107
3, 39696, Note_on_c, 1, 44, 0
3, 39720, Note_on_c, 1, 42, 107
3, 39816, Note_on_c, 1, 42, 0
3, 39840, Note_on_c, 1, 40, 107
3, 39936, Note_on_c, 1, 40, 0
3, 39960, Note_on_c, 1, 38, 107
3, 40056, Note_on_c, 1, 38, 0
3, 40080, Note_on_c, 1, 40, 107
3, 40176, Note_on_c, 1, 40, 0
3, 40200, Note_on_c, 1, 38, 107
3, 40296, Note_on_c, 1, 38, 0
3, 40320, Note_on_c, 1, 37, 107
3, 40416, Note_on_c, 1, 37, 0
3, 40440, Note_on_c, 1, 35, 107
3, 40536, Note_on_c, 1, 35, 0
3, 40560, Note_on_c, 1, 33, 107
3, 40656, Note_on_c, 1, 33, 0
3, 40680, Note_on_c, 1, 40, 107
3, 40776, Note_on_c, 1, 40, 0
3, 40800, Note_on_c, 1, 39, 107
3, 40896, Note_on_c, 1, 39, 0
3, 40920, Note_on_c, 1, 40, 107
3, 41016, Note_on_c, 1, 40, 0
3, 41040, Note_on_c, 1, 42, 107
3, 41136, Note_on_c, 1, 42, 0
3, 41160, Note_on_c, 1, 44, 107
3, 41256, Note_on_c, 1, 44, 0
3, 41280, Note_on_c, 1, 42, 107
3, 41376, Note_on_c, 1, 42, 0
3, 41400, Note_on_c, 1, 44, 107
3, 41496, Note_on_c, 1, 44, 0
3, 41520, Note_on_c, 1, 40, 107
3, 41616, Note_on_c, 1, 40, 0
3, 41640, Note_on_c, 1, 45, 107
3, 41736, Note_on_c, 1, 45, 0
3, 41760, Note_on_c, 1, 44, 107
3, 41856, Note_on_c, 1, 44, 0
3, 41880, Note_on_c, 1, 45, 107
3, 41976, Note_on_c, 1, 45, 0
3, 42000, Note_on_c, 1, 47, 107
3, 42096, Note_on_c, 1, 47, 0
3, 42120, Note_on_c, 1, 49, 107
3, 42216, Note_on_c, 1, 49, 0
3, 42240, Note_on_c, 1, 47, 107
3, 42336, Note_on_c, 1, 47, 0
3, 42360, Note_on_c, 1, 49, 107
3, 42456, Note_on_c, 1, 49, 0
3, 42480, Note_on_c, 1, 45, 107
3, 42576, Note_on_c, 1, 45, 0
3, 42600, Note_on_c, 1, 47, 107
3, 42696, Note_on_c, 1, 47, 0
3, 42720, Note_on_c, 1, 50, 107
3, 42816, Note_on_c, 1, 50, 0
3, 42840, Note_on_c, 1, 49, 107
3, 42936, Note_on_c, 1, 49, 0
3, 42960, Note_on_c, 1, 52, 107
3, 43056, Note_on_c, 1, 52, 0
3, 43080, Note_on_c, 1, 50, 107
3, 43176, Note_on_c, 1, 50, 0
3, 43200, Note_on_c, 1, 49, 107
3, 43296, Note_on_c, 1, 49, 0
3, 43320, Note_on_c, 1, 47, 107
3, 43416, Note_on_c, 1, 47, 0
3, 43440, Note_on_c, 1, 45, 107
3, 43536, Note_on_c, 1, 45, 0
3, 43560, Note_on_c, 1, 50, 107
3, 43656, Note_on_c, 1, 50, 0
3, 43680, Note_on_c, 1, 54, 107
3, 43776, Note_on_c, 1, 54, 0
3, 43800, Note_on_c, 1, 52, 107
3, 43896, Note_on_c, 1, 52, 0
3, 43920, Note_on_c, 1, 50, 107
3, 44016, Note_on_c, 1, 50, 0
3, 44040, Note_on_c, 1, 49, 107
3, 44136, Note_on_c, 1, 49, 0
3, 44160, Note_on_c, 1, 47, 107
3, 44256, Note_on_c, 1, 47, 0
3, 44280, Note_on_c, 1, 45, 107
3, 44376, Note_on_c, 1, 45, 0
3, 44400, Note_on_c, 1, 50, 107
3, 44496, Note_on_c, 1, 50, 0
3, 44520, Note_on_c, 1, 52, 107
3, 44616, Note_on_c, 1, 52, 0
3, 44640, Note_on_c, 1, 50, 107
3, 44736, Note_on_c, 1, 50, 0
3, 44760, Note_on_c, 1, 52, 107
3, 44856, Note_on_c, 1, 52, 0
3, 44880, Note_on_c, 1, 40, 107
3, 44976, Note_on_c, 1, 40, 0
3, 45000, Note_on_c, 1, 45, 107
3, 45225, Note_on_c, 1, 45, 0
3, 45360, Note_on_c, 1, 40, 107
3, 45473, Note_on_c, 1, 40, 0
3, 45480, Note_on_c, 1, 33, 107
3, 45480, Note_on_c, 1, 33, 107
3, 45576, Note_on_c, 1, 33, 0
3, 45600, Note_on_c, 1, 40, 107
3, 45696, Note_on_c, 1, 40, 0
3, 45720, Note_on_c, 1, 45, 107
3, 46104, Note_on_c, 1, 45, 0
3, 46104, Note_on_c, 1, 33, 0
3, 46560, Note_on_c, 1, 40, 107
3, 46752, Note_on_c, 1, 40, 0
3, 46920, Note_on_c, 1, 47, 107
3, 47016, Note_on_c, 1, 47, 0
3, 47040, Note_on_c, 1, 49, 107
3, 47136, Note_on_c, 1, 49, 0
3, 47160, Note_on_c, 1, 52, 107
3, 47256, Note_on_c, 1, 52, 0
3, 47280, Note_on_c, 1, 50, 107
3, 47376, Note_on_c, 1, 50, 0
3, 47400, Note_on_c, 1, 54, 107
3, 47496, Note_on_c, 1, 54, 0
3, 47520, Note_on_c, 1, 52, 107
3, 47616, Note_on_c, 1, 52, 0
3, 47640, Note_on_c, 1, 50, 107
3, 47736, Note_on_c, 1, 50, 0
3, 47760, Note_on_c, 1, 49, 107
3, 47856, Note_on_c, 1, 49, 0
3, 47880, Note_on_c, 1, 47, 107
3, 47976, Note_on_c, 1, 47, 0
3, 48000, Note_on_c, 1, 45, 107
3, 48096, Note_on_c, 1, 45, 0
3, 48120, Note_on_c, 1, 57, 107
3, 48216, Note_on_c, 1, 57, 0
3, 48240, Note_on_c, 1, 59, 107
3, 48336, Note_on_c, 1, 59, 0
3, 48360, Note_on_c, 1, 61, 107
3, 48456, Note_on_c, 1, 61, 0
3, 48480, Note_on_c, 1, 62, 107
3, 48576, Note_on_c, 1, 62, 0
3, 48600, Note_on_c, 1, 61, 107
3, 48696, Note_on_c, 1, 61, 0
3, 48720, Note_on_c, 1, 59, 107
3, 48816, Note_on_c, 1, 59, 0
3, 48840, Note_on_c, 1, 57, 107
3, 48936, Note_on_c, 1, 57, 0
3, 48960, Note_on_c, 1, 56, 107
3, 49056, Note_on_c, 1, 56, 0
3, 49080, Note_on_c, 1, 59, 107
3, 49176, Note_on_c, 1, 59, 0
3, 49200, Note_on_c, 1, 58, 107
3, 49296, Note_on_c, 1, 58, 0
3, 49320, Note_on_c, 1, 61, 107
3, 49416, Note_on_c, 1, 61, 0
3, 49440, Note_on_c, 1, 59, 107
3, 49536, Note_on_c, 1, 59, 0
3, 49560, Note_on_c, 1, 58, 107
3, 49656, Note_on_c, 1, 58, 0
3, 49680, Note_on_c, 1, 59, 107
3, 49776, Note_on_c, 1, 59, 0
3, 49800, Note_on_c, 1, 62, 107
3, 49896, Note_on_c, 1, 62, 0
3, 49920, Note_on_c, 1, 61, 107
3, 50016, Note_on_c, 1, 61, 0
3, 50040, Note_on_c, 1, 64, 107
3, 50136, Note_on_c, 1, 64, 0
3, 50160, Note_on_c, 1, 62, 107
3, 50256, Note_on_c, 1, 62, 0
3, 50280, Note_on_c, 1, 66, 107
3, 50376, Note_on_c, 1, 66, 0
3, 50400, Note_on_c, 1, 64, 107
3, 50496, Note_on_c, 1, 64, 0
3, 50520, Note_on_c, 1, 63, 107
3, 50616, Note_on_c, 1, 63, 0
3, 50640, Note_on_c, 1, 61, 107
3, 50736, Note_on_c, 1, 61, 0
3, 50760, Note_on_c, 1, 59, 107
3, 50856, Note_on_c, 1, 59, 0
3, 50880, Note_on_c, 1, 64, 107
3, 50976, Note_on_c, 1, 64, 0
3, 51000, Note_on_c, 1, 66, 107
3, 51096, Note_on_c, 1, 66, 0
3, 51120, Note_on_c, 1, 64, 107
3, 51216, Note_on_c, 1, 64, 0
3, 51240, Note_on_c, 1, 62, 107
3, 51336, Note_on_c, 1, 62, 0
3, 51360, Note_on_c, 1, 61, 107
3, 51456, Note_on_c, 1, 61, 0
3, 51480, Note_on_c, 1, 59, 107
3, 51576, Note_on_c, 1, 59, 0
3, 51600, Note_on_c, 1, 57, 107
3, 51696, Note_on_c, 1, 57, 0
3, 51720, Note_on_c, 1, 55, 107
3, 51816, Note_on_c, 1, 55, 0
3, 51840, Note_on_c, 1, 54, 107
3, 51936, Note_on_c, 1, 54, 0
3, 51960, Note_on_c, 1, 52, 107
3, 52056, Note_on_c, 1, 52, 0
3, 52080, Note_on_c, 1, 54, 107
3, 52176, Note_on_c, 1, 54, 0
3, 52200, Note_on_c, 1, 50, 107
3, 52296, Note_on_c, 1, 50, 0
3, 52320, Note_on_c, 1, 57, 107
3, 52416, Note_on_c, 1, 57, 0
3, 52440, Note_on_c, 1, 59, 107
3, 52536, Note_on_c, 1, 59, 0
3, 52560, Note_on_c, 1, 57, 107
3, 52656, Note_on_c, 1, 57, 0
3, 52680, Note_on_c, 1, 55, 107
3, 52776, Note_on_c, 1, 55, 0
3, 52800, Note_on_c, 1, 54, 107
3, 52896, Note_on_c, 1, 54, 0
3, 52920, Note_on_c, 1, 52, 107
3, 53016, Note_on_c, 1, 52, 0
3, 53040, Note_on_c, 1, 50, 107
3, 53136, Note_on_c, 1, 50, 0
3, 53160, Note_on_c, 1, 49, 107
3, 53256, Note_on_c, 1, 49, 0
3, 53280, Note_on_c, 1, 47, 107
3, 53376, Note_on_c, 1, 47, 0
3, 53400, Note_on_c, 1, 50, 107
3, 53496, Note_on_c, 1, 50, 0
3, 53520, Note_on_c, 1, 49, 107
3, 53616, Note_on_c, 1, 49, 0
3, 53640, Note_on_c, 1, 52, 107
3, 53736, Note_on_c, 1, 52, 0
3, 53760, Note_on_c, 1, 50, 107
3, 53856, Note_on_c, 1, 50, 0
3, 53880, Note_on_c, 1, 54, 107
3, 53976, Note_on_c, 1, 54, 0
3, 54000, Note_on_c, 1, 52, 107
3, 54096, Note_on_c, 1, 52, 0
3, 54120, Note_on_c, 1, 55, 107
3, 54216, Note_on_c, 1, 55, 0
3, 54240, Note_on_c, 1, 54, 107
3, 54336, Note_on_c, 1, 54, 0
3, 54360, Note_on_c, 1, 57, 107
3, 54456, Note_on_c, 1, 57, 0
3, 54480, Note_on_c, 1, 55, 107
3, 54576, Note_on_c, 1, 55, 0
3, 54600, Note_on_c, 1, 59, 107
3, 54696, Note_on_c, 1, 59, 0
3, 54720, Note_on_c, 1, 57, 107
3, 54816, Note_on_c, 1, 57, 0
3, 54840, Note_on_c, 1, 55, 107
3, 54936, Note_on_c, 1, 55, 0
3, 54960, Note_on_c, 1, 57, 107
3, 55056, Note_on_c, 1, 57, 0
3, 55080, Note_on_c, 1, 45, 107
3, 55176, Note_on_c, 1, 45, 0
3, 55200, Note_on_c, 1, 50, 107
3, 55296, Note_on_c, 1, 50, 0
3, 55320, Note_on_c, 1, 57, 107
3, 55416, Note_on_c, 1, 57, 0
3, 55440, Note_on_c, 1, 59, 107
3, 55536, Note_on_c, 1, 59, 0
3, 55560, Note_on_c, 1, 62, 107
3, 55656, Note_on_c, 1, 62, 0
3, 55680, Note_on_c, 1, 61, 107
3, 55776, Note_on_c, 1, 61, 0
3, 55800, Note_on_c, 1, 64, 107
3, 55896, Note_on_c, 1, 64, 0
3, 55920, Note_on_c, 1, 62, 107
3, 56016, Note_on_c, 1, 62, 0
3, 56040, Note_on_c, 1, 66, 107
3, 56136, Note_on_c, 1, 66, 0
3, 56160, Note_on_c, 1, 64, 107
3, 56256, Note_on_c, 1, 64, 0
3, 56280, Note_on_c, 1, 62, 107
3, 56376, Note_on_c, 1, 62, 0
3, 56400, Note_on_c, 1, 61, 107
3, 56496, Note_on_c, 1, 61, 0
3, 56520, Note_on_c, 1, 59, 107
3, 56616, Note_on_c, 1, 59, 0
3, 56640, Note_on_c, 1, 58, 107
3, 56736, Note_on_c, 1, 58, 0
3, 56760, Note_on_c, 1, 59, 107
3, 56856, Note_on_c, 1, 59, 0
3, 56880, Note_on_c, 1, 61, 107
3, 56976, Note_on_c, 1, 61, 0
3, 57000, Note_on_c, 1, 62, 107
3, 57096, Note_on_c, 1, 62, 0
3, 57120, Note_on_c, 1, 64, 107
3, 57216, Note_on_c, 1, 64, 0
3, 57240, Note_on_c, 1, 62, 107
3, 57336, Note_on_c, 1, 62, 0
3, 57360, Note_on_c, 1, 64, 107
3, 57456, Note_on_c, 1, 64, 0
3, 57480, Note_on_c, 1, 66, 107
3, 57576, Note_on_c, 1, 66, 0
3, 57600, Note_on_c, 1, 67, 107
3, 57696, Note_on_c, 1, 67, 0
3, 57720, Note_on_c, 1, 66, 107
3, 57816, Note_on_c, 1, 66, 0
3, 57840, Note_on_c, 1, 67, 107
3, 57936, Note_on_c, 1, 67, 0
3, 57960, Note_on_c, 1, 64, 107
3, 58056, Note_on_c, 1, 64, 0
3, 58080, Note_on_c, 1, 66, 107
3, 58176, Note_on_c, 1, 66, 0
3, 58200, Note_on_c, 1, 67, 107
3, 58296, Note_on_c, 1, 67, 0
3, 58320, Note_on_c, 1, 66, 107
3, 58416, Note_on_c, 1, 66, 0
3, 58440, Note_on_c, 1, 64, 107
3, 58536, Note_on_c, 1, 64, 0
3, 58560, Note_on_c, 1, 62, 107
3, 58656, Note_on_c, 1, 62, 0
3, 58680, Note_on_c, 1, 61, 107
3, 58776, Note_on_c, 1, 61, 0
3, 58800, Note_on_c, 1, 59, 107
3, 58896, Note_on_c, 1, 59, 0
3, 58920, Note_on_c, 1, 57, 107
3, 59016, Note_on_c, 1, 57, 0
3, 59040, Note_on_c, 1, 56, 107
3, 59136, Note_on_c, 1, 56, 0
3, 59160, Note_on_c, 1, 59, 107
3, 59256, Note_on_c, 1, 59, 0
3, 59280, Note_on_c, 1, 58, 107
3, 59376, Note_on_c, 1, 58, 0
3, 59400, Note_on_c, 1, 61, 107
3, 59496, Note_on_c, 1, 61, 0
3, 59520, Note_on_c, 1, 59, 107
3, 59616, Note_on_c, 1, 59, 0
3, 59640, Note_on_c, 1, 61, 107
3, 59736, Note_on_c, 1, 61, 0
3, 59760, Note_on_c, 1, 59, 107
3, 59856, Note_on_c, 1, 59, 0
3, 59880, Note_on_c, 1, 57, 107
3, 59976, Note_on_c, 1, 57, 0
3, 60000, Note_on_c, 1, 55, 107
3, 60096, Note_on_c, 1, 55, 0
3, 60120, Note_on_c, 1, 54, 107
3, 60216, Note_on_c, 1, 54, 0
3, 60240, Note_on_c, 1, 55, 107
3, 60336, Note_on_c, 1, 55, 0
3, 60360, Note_on_c, 1, 52, 107
3, 60456, Note_on_c, 1, 52, 0
3, 60480, Note_on_c, 1, 54, 107
3, 60576, Note_on_c, 1, 54, 0
3, 60600, Note_on_c, 1, 52, 107
3, 60696, Note_on_c, 1, 52, 0
3, 60720, Note_on_c, 1, 54, 107
3, 60816, Note_on_c, 1, 54, 0
3, 60840, Note_on_c, 1, 42, 107
3, 60936, Note_on_c, 1, 42, 0
3, 60960, Note_on_c, 1, 47, 107
3, 61056, Note_on_c, 1, 47, 0
3, 61080, Note_on_c, 1, 49, 107
3, 61176, Note_on_c, 1, 49, 0
3, 61200, Note_on_c, 1, 50, 107
3, 61296, Note_on_c, 1, 50, 0
3, 61320, Note_on_c, 1, 49, 107
3, 61416, Note_on_c, 1, 49, 0
3, 61440, Note_on_c, 1, 47, 107
3, 61536, Note_on_c, 1, 47, 0
3, 61560, Note_on_c, 1, 45, 107
3, 61656, Note_on_c, 1, 45, 0
3, 61680, Note_on_c, 1, 44, 107
3, 61776, Note_on_c, 1, 44, 0
3, 61800, Note_on_c, 1, 47, 107
3, 61896, Note_on_c, 1, 47, 0
3, 61920, Note_on_c, 1, 45, 107
3, 62016, Note_on_c, 1, 45, 0
3, 62040, Note_on_c, 1, 44, 107
3, 62136, Note_on_c, 1, 44, 0
3, 62160, Note_on_c, 1, 42, 107
3, 62256, Note_on_c, 1, 42, 0
3, 62280, Note_on_c, 1, 40, 107
3, 62376, Note_on_c, 1, 40, 0
3, 62400, Note_on_c, 1, 45, 107
3, 62496, Note_on_c, 1, 45, 0
3, 62520, Note_on_c, 1, 47, 107
3, 62616, Note_on_c, 1, 47, 0
3, 62640, Note_on_c, 1, 45, 107
3, 62736, Note_on_c, 1, 45, 0
3, 62760, Note_on_c, 1, 44, 107
3, 62856, Note_on_c, 1, 44, 0
3, 62880, Note_on_c, 1, 42, 107
3, 62976, Note_on_c, 1, 42, 0
3, 63000, Note_on_c, 1, 40, 107
3, 63096, Note_on_c, 1, 40, 0
3, 63120, Note_on_c, 1, 38, 107
3, 63216, Note_on_c, 1, 38, 0
3, 63240, Note_on_c, 1, 40, 107
3, 63336, Note_on_c, 1, 40, 0
3, 63360, Note_on_c, 1, 38, 107
3, 63456, Note_on_c, 1, 38, 0
3, 63480, Note_on_c, 1, 37, 107
3, 63576, Note_on_c, 1, 37, 0
3, 63600, Note_on_c, 1, 35, 107
3, 63696, Note_on_c, 1, 35, 0
3, 63720, Note_on_c, 1, 33, 107
3, 63816, Note_on_c, 1, 33, 0
3, 63840, Note_on_c, 1, 40, 107
3, 63936, Note_on_c, 1, 40, 0
3, 63960, Note_on_c, 1, 39, 107
3, 64056, Note_on_c, 1, 39, 0
3, 64080, Note_on_c, 1, 40, 107
3, 64176, Note_on_c, 1, 40, 0
3, 64200, Note_on_c, 1, 42, 107
3, 64296, Note_on_c, 1, 42, 0
3, 64320, Note_on_c, 1, 44, 107
3, 64416, Note_on_c, 1, 44, 0
3, 64440, Note_on_c, 1, 42, 107
3, 64536, Note_on_c, 1, 42, 0
3, 64560, Note_on_c, 1, 44, 107
3, 64656, Note_on_c, 1, 44, 0
3, 64680, Note_on_c, 1, 40, 107
3, 64776, Note_on_c, 1, 40, 0
3, 64800, Note_on_c, 1, 45, 107
3, 64896, Note_on_c, 1, 45, 0
3, 64920, Note_on_c, 1, 44, 107
3, 65016, Note_on_c, 1, 44, 0
3, 65040, Note_on_c, 1, 45, 107
3, 65136, Note_on_c, 1, 45, 0
3, 65160, Note_on_c, 1, 47, 107
3, 65256, Note_on_c, 1, 47, 0
3, 65280, Note_on_c, 1, 49, 107
3, 65376, Note_on_c, 1, 49, 0
3, 65400, Note_on_c, 1, 47, 107
3, 65496, Note_on_c, 1, 47, 0
3, 65520, Note_on_c, 1, 49, 107
3, 65616, Note_on_c, 1, 49, 0
3, 65640, Note_on_c, 1, 45, 107
3, 65736, Note_on_c, 1, 45, 0
3, 65760, Note_on_c, 1, 47, 107
3, 65856, Note_on_c, 1, 47, 0
3, 65880, Note_on_c, 1, 50, 107
3, 65976, Note_on_c, 1, 50, 0
3, 66000, Note_on_c, 1, 49, 107
3, 66096, Note_on_c, 1, 49, 0
3, 66120, Note_on_c, 1, 52, 107
3, 66216, Note_on_c, 1, 52, 0
3, 66240, Note_on_c, 1, 50, 107
3, 66336, Note_on_c, 1, 50, 0
3, 66360, Note_on_c, 1, 49, 107
3, 66456, Note_on_c, 1, 49, 0
3, 66480, Note_on_c, 1, 47, 107
3, 66576, Note_on_c, 1, 47, 0
3, 66600, Note_on_c, 1, 45, 107
3, 66696, Note_on_c, 1, 45, 0
3, 66720, Note_on_c, 1, 50, 107
3, 66816, Note_on_c, 1, 50, 0
3, 66840, Note_on_c, 1, 54, 107
3, 66936, Note_on_c, 1, 54, 0
3, 66960, Note_on_c, 1, 52, 107
3, 67056, Note_on_c, 1, 52, 0
3, 67080, Note_on_c, 1, 50, 107
3, 67176, Note_on_c, 1, 50, 0
3, 67200, Note_on_c, 1, 49, 107
3, 67296, Note_on_c, 1, 49, 0
3, 67320, Note_on_c, 1, 47, 107
3, 67416, Note_on_c, 1, 47, 0
3, 67440, Note_on_c, 1, 45, 107
3, 67536, Note_on_c, 1, 45, 0
3, 67560, Note_on_c, 1, 50, 107
3, 67656, Note_on_c, 1, 50, 0
3, 67680, Note_on_c, 1, 52, 107
3, 67776, Note_on_c, 1, 52, 0
3, 67800, Note_on_c, 1, 50, 107
3, 67896, Note_on_c, 1, 50, 0
3, 67920, Note_on_c, 1, 52, 107
3, 68016, Note_on_c, 1, 52, 0
3, 68040, Note_on_c, 1, 40, 107
3, 68136, Note_on_c, 1, 40, 0
3, 68160, Note_on_c, 1, 45, 107
3, 68385, Note_on_c, 1, 45, 0
3, 68520, Note_on_c, 1, 40, 107
3, 68633, Note_on_c, 1, 40, 0
3, 68640, Note_on_c, 1, 33, 107
3, 68640, Note_on_c, 1, 33, 107
3, 68736, Note_on_c, 1, 33, 0
3, 68760, Note_on_c, 1, 40, 107
3, 68856, Note_on_c, 1, 40, 0
3, 68880, Note_on_c, 1, 45, 107
3, 69264, Note_on_c, 1, 45, 0
3, 69264, Note_on_c, 1, 33, 0
3, 69264, End_track
4, 0, Start_track
4, 0, MIDI_port, 0
4, 0, Title_t, "Arr. Gary Bricault, (c) 1997"
4, 0, End_track
0, 0, End_of_file
