0, 0, Header, 1, 4, 240
1, 0, Start_track
1, 0, Title_t, "untitled"
1, 0, SMPTE_offset, 96, 0, 3, 0, 0
1, 0, Time_signature, 3, 2, 24, 8
1, 0, Key_signature, 0, "major"
1, 0, Tempo, 1071429
1, 0, End_track
2, 0, Start_track
2, 0, MIDI_port, 0
2, 0, Title_t, "English Suite 2, 4B Sarabande B"
2, 0, Program_c, 0, 0
2, 0, Control_c, 0, 7, 100
2, 0, Control_c, 0, 10, 64
2, 0, Note_on_c, 0, 69, 107
2, 0, Note_on_c, 0, 72, 107
2, 0, Note_on_c, 0, 64, 107
2, 192, Note_on_c, 0, 64, 0
2, 192, Note_on_c, 0, 72, 0
2, 192, Note_on_c, 0, 69, 0
2, 240, Note_on_c, 0, 72, 107
2, 240, Note_on_c, 0, 64, 107
2, 240, Note_on_c, 0, 65, 107
2, 336, Note_on_c, 0, 64, 0
2, 336, Note_on_c, 0, 72, 0
2, 360, Note_on_c, 0, 62, 107
2, 360, Note_on_c, 0, 71, 107
2, 432, Note_on_c, 0, 65, 0
2, 456, Note_on_c, 0, 71, 0
2, 456, Note_on_c, 0, 62, 0
2, 480, Note_on_c, 0, 64, 107
2, 480, Note_on_c, 0, 60, 107
2, 480, Note_on_c, 0, 69, 107
2, 576, Note_on_c, 0, 69, 0
2, 576, Note_on_c, 0, 60, 0
2, 600, Note_on_c, 0, 68, 107
2, 600, Note_on_c, 0, 59, 107
2, 615, Note_on_c, 0, 68, 0
2, 615, Note_on_c, 0, 69, 107
2, 630, Note_on_c, 0, 69, 0
2, 630, Note_on_c, 0, 68, 107
2, 678, Note_on_c, 0, 68, 0
2, 696, Note_on_c, 0, 59, 0
2, 705, Note_on_c, 0, 64, 0
2, 720, Note_on_c, 0, 69, 107
2, 720, Note_on_c, 0, 60, 107
2, 777, Note_on_c, 0, 69, 0
2, 780, Note_on_c, 0, 68, 107
2, 828, Note_on_c, 0, 68, 0
2, 840, Note_on_c, 0, 71, 107
2, 888, Note_on_c, 0, 71, 0
2, 900, Note_on_c, 0, 69, 107
2, 912, Note_on_c, 0, 60, 0
2, 948, Note_on_c, 0, 69, 0
2, 960, Note_on_c, 0, 69, 107
2, 960, Note_on_c, 0, 60, 107
2, 1344, Note_on_c, 0, 60, 0
2, 1410, Note_on_c, 0, 69, 0
2, 1485, Note_on_c, 0, 64, 107
2, 1500, Note_on_c, 0, 69, 107
2, 1515, Note_on_c, 0, 72, 107
2, 1530, Note_on_c, 0, 76, 107
2, 1613, Note_on_c, 0, 69, 0
2, 1613, Note_on_c, 0, 64, 0
2, 1626, Note_on_c, 0, 72, 0
2, 1673, Note_on_c, 0, 76, 0
2, 1680, Note_on_c, 0, 65, 107
2, 1680, Note_on_c, 0, 72, 107
2, 1680, Note_on_c, 0, 76, 107
2, 1776, Note_on_c, 0, 76, 0
2, 1776, Note_on_c, 0, 72, 0
2, 1800, Note_on_c, 0, 71, 107
2, 1800, Note_on_c, 0, 74, 107
2, 1896, Note_on_c, 0, 74, 0
2, 1896, Note_on_c, 0, 71, 0
2, 1896, Note_on_c, 0, 65, 0
2, 1920, Note_on_c, 0, 64, 107
2, 1920, Note_on_c, 0, 72, 107
2, 1920, Note_on_c, 0, 69, 107
2, 2016, Note_on_c, 0, 69, 0
2, 2016, Note_on_c, 0, 72, 0
2, 2040, Note_on_c, 0, 71, 107
2, 2040, Note_on_c, 0, 68, 107
2, 2136, Note_on_c, 0, 68, 0
2, 2136, Note_on_c, 0, 71, 0
2, 2136, Note_on_c, 0, 64, 0
2, 2160, Note_on_c, 0, 64, 107
2, 2160, Note_on_c, 0, 71, 107
2, 2160, Note_on_c, 0, 68, 107
2, 2352, Note_on_c, 0, 68, 0
2, 2352, Note_on_c, 0, 71, 0
2, 2400, Note_on_c, 0, 72, 107
2, 2400, Note_on_c, 0, 69, 107
2, 2415, Note_on_c, 0, 72, 0
2, 2415, Note_on_c, 0, 71, 107
2, 2427, Note_on_c, 0, 71, 0
2, 2430, Note_on_c, 0, 72, 107
2, 2448, Note_on_c, 0, 64, 0
2, 2520, Note_on_c, 0, 62, 107
2, 2556, Note_on_c, 0, 72, 0
2, 2580, Note_on_c, 0, 71, 107
2, 2592, Note_on_c, 0, 69, 0
2, 2616, Note_on_c, 0, 62, 0
2, 2628, Note_on_c, 0, 71, 0
2, 2640, Note_on_c, 0, 64, 107
2, 2640, Note_on_c, 0, 60, 107
2, 2640, Note_on_c, 0, 69, 107
2, 2736, Note_on_c, 0, 60, 0
2, 2760, Note_on_c, 0, 59, 107
2, 2832, Note_on_c, 0, 69, 0
2, 2832, Note_on_c, 0, 64, 0
2, 2856, Note_on_c, 0, 59, 0
2, 2880, Note_on_c, 0, 72, 107
2, 2976, Note_on_c, 0, 72, 0
2, 3000, Note_on_c, 0, 70, 107
2, 3048, Note_on_c, 0, 70, 0
2, 3060, Note_on_c, 0, 69, 107
2, 3108, Note_on_c, 0, 69, 0
2, 3120, Note_on_c, 0, 67, 107
2, 3168, Note_on_c, 0, 67, 0
2, 3180, Note_on_c, 0, 65, 107
2, 3276, Note_on_c, 0, 65, 0
2, 3300, Note_on_c, 0, 67, 107
2, 3324, Note_on_c, 0, 67, 0
2, 3330, Note_on_c, 0, 64, 107
2, 3354, Note_on_c, 0, 64, 0
2, 3360, Note_on_c, 0, 65, 107
2, 3408, Note_on_c, 0, 65, 0
2, 3420, Note_on_c, 0, 69, 107
2, 3468, Note_on_c, 0, 69, 0
2, 3480, Note_on_c, 0, 71, 107
2, 3528, Note_on_c, 0, 71, 0
2, 3540, Note_on_c, 0, 74, 107
2, 3564, Note_on_c, 0, 74, 0
2, 3570, Note_on_c, 0, 72, 107
2, 3594, Note_on_c, 0, 72, 0
2, 3600, Note_on_c, 0, 74, 107
2, 3696, Note_on_c, 0, 74, 0
2, 3720, Note_on_c, 0, 72, 107
2, 3768, Note_on_c, 0, 72, 0
2, 3780, Note_on_c, 0, 71, 107
2, 3828, Note_on_c, 0, 71, 0
2, 3840, Note_on_c, 0, 69, 107
2, 3888, Note_on_c, 0, 69, 0
2, 3900, Note_on_c, 0, 67, 107
2, 3948, Note_on_c, 0, 67, 0
2, 3960, Note_on_c, 0, 65, 107
2, 4008, Note_on_c, 0, 65, 0
2, 4020, Note_on_c, 0, 67, 107
2, 4044, Note_on_c, 0, 67, 0
2, 4050, Note_on_c, 0, 64, 107
2, 4074, Note_on_c, 0, 64, 0
2, 4080, Note_on_c, 0, 65, 107
2, 4152, Note_on_c, 0, 65, 0
2, 4170, Note_on_c, 0, 67, 107
2, 4194, Note_on_c, 0, 67, 0
2, 4200, Note_on_c, 0, 69, 107
2, 4224, Note_on_c, 0, 69, 0
2, 4230, Note_on_c, 0, 71, 107
2, 4254, Note_on_c, 0, 71, 0
2, 4260, Note_on_c, 0, 72, 107
2, 4284, Note_on_c, 0, 72, 0
2, 4290, Note_on_c, 0, 74, 107
2, 4314, Note_on_c, 0, 74, 0
2, 4320, Note_on_c, 0, 76, 107
2, 4320, Note_on_c, 0, 72, 107
2, 4320, Note_on_c, 0, 67, 107
2, 4416, Note_on_c, 0, 76, 0
2, 4440, Note_on_c, 0, 74, 107
2, 4512, Note_on_c, 0, 67, 0
2, 4512, Note_on_c, 0, 72, 0
2, 4536, Note_on_c, 0, 74, 0
2, 4560, Note_on_c, 0, 72, 107
2, 4560, Note_on_c, 0, 74, 107
2, 4560, Note_on_c, 0, 60, 107
2, 4584, Note_on_c, 0, 74, 0
2, 4590, Note_on_c, 0, 76, 107
2, 4614, Note_on_c, 0, 76, 0
2, 4620, Note_on_c, 0, 77, 107
2, 4668, Note_on_c, 0, 77, 0
2, 4680, Note_on_c, 0, 76, 107
2, 4752, Note_on_c, 0, 60, 0
2, 4752, Note_on_c, 0, 72, 0
2, 4776, Note_on_c, 0, 76, 0
2, 4800, Note_on_c, 0, 74, 107
2, 4800, Note_on_c, 0, 65, 107
2, 4800, Note_on_c, 0, 69, 107
2, 4848, Note_on_c, 0, 74, 0
2, 4860, Note_on_c, 0, 77, 107
2, 4884, Note_on_c, 0, 77, 0
2, 4890, Note_on_c, 0, 76, 107
2, 4896, Note_on_c, 0, 65, 0
2, 4914, Note_on_c, 0, 76, 0
2, 4920, Note_on_c, 0, 64, 107
2, 4920, Note_on_c, 0, 74, 107
2, 4968, Note_on_c, 0, 74, 0
2, 4980, Note_on_c, 0, 76, 107
2, 4992, Note_on_c, 0, 69, 0
2, 5004, Note_on_c, 0, 76, 0
2, 5010, Note_on_c, 0, 72, 107
2, 5016, Note_on_c, 0, 64, 0
2, 5034, Note_on_c, 0, 72, 0
2, 5040, Note_on_c, 0, 72, 107
2, 5040, Note_on_c, 0, 71, 107
2, 5040, Note_on_c, 0, 62, 107
2, 5088, Note_on_c, 0, 72, 0
2, 5100, Note_on_c, 0, 79, 107
2, 5232, Note_on_c, 0, 71, 0
2, 5244, Note_on_c, 0, 79, 0
2, 5265, Note_on_c, 0, 62, 0
2, 5280, Note_on_c, 0, 62, 107
2, 5280, Note_on_c, 0, 71, 107
2, 5280, Note_on_c, 0, 79, 107
2, 5664, Note_on_c, 0, 79, 0
2, 5664, Note_on_c, 0, 71, 0
2, 5730, Note_on_c, 0, 62, 0
2, 5760, Note_on_c, 0, 70, 107
2, 5808, Note_on_c, 0, 70, 0
2, 5820, Note_on_c, 0, 69, 107
2, 5868, Note_on_c, 0, 69, 0
2, 5880, Note_on_c, 0, 70, 107
2, 5928, Note_on_c, 0, 70, 0
2, 5940, Note_on_c, 0, 79, 107
2, 5988, Note_on_c, 0, 79, 0
2, 6000, Note_on_c, 0, 76, 107
2, 6048, Note_on_c, 0, 76, 0
2, 6060, Note_on_c, 0, 72, 107
2, 6108, Note_on_c, 0, 72, 0
2, 6120, Note_on_c, 0, 70, 107
2, 6168, Note_on_c, 0, 70, 0
2, 6180, Note_on_c, 0, 69, 107
2, 6228, Note_on_c, 0, 69, 0
2, 6240, Note_on_c, 0, 70, 107
2, 6288, Note_on_c, 0, 70, 0
2, 6300, Note_on_c, 0, 69, 107
2, 6348, Note_on_c, 0, 69, 0
2, 6360, Note_on_c, 0, 70, 107
2, 6408, Note_on_c, 0, 70, 0
2, 6420, Note_on_c, 0, 79, 107
2, 6468, Note_on_c, 0, 79, 0
2, 6480, Note_on_c, 0, 69, 107
2, 6528, Note_on_c, 0, 69, 0
2, 6540, Note_on_c, 0, 67, 107
2, 6588, Note_on_c, 0, 67, 0
2, 6600, Note_on_c, 0, 69, 107
2, 6648, Note_on_c, 0, 69, 0
2, 6660, Note_on_c, 0, 72, 107
2, 6708, Note_on_c, 0, 72, 0
2, 6720, Note_on_c, 0, 74, 107
2, 6768, Note_on_c, 0, 74, 0
2, 6780, Note_on_c, 0, 76, 107
2, 6828, Note_on_c, 0, 76, 0
2, 6840, Note_on_c, 0, 77, 107
2, 6888, Note_on_c, 0, 77, 0
2, 6900, Note_on_c, 0, 79, 107
2, 6948, Note_on_c, 0, 79, 0
2, 6960, Note_on_c, 0, 81, 107
2, 7008, Note_on_c, 0, 81, 0
2, 7020, Note_on_c, 0, 75, 107
2, 7068, Note_on_c, 0, 75, 0
2, 7080, Note_on_c, 0, 74, 107
2, 7128, Note_on_c, 0, 74, 0
2, 7140, Note_on_c, 0, 72, 107
2, 7188, Note_on_c, 0, 72, 0
2, 7200, Note_on_c, 0, 83, 107
2, 7215, Note_on_c, 0, 83, 0
2, 7215, Note_on_c, 0, 81, 107
2, 7227, Note_on_c, 0, 81, 0
2, 7230, Note_on_c, 0, 79, 107
2, 7242, Note_on_c, 0, 79, 0
2, 7245, Note_on_c, 0, 81, 107
2, 7257, Note_on_c, 0, 81, 0
2, 7260, Note_on_c, 0, 83, 107
2, 7308, Note_on_c, 0, 83, 0
2, 7320, Note_on_c, 0, 84, 107
2, 7416, Note_on_c, 0, 84, 0
2, 7440, Note_on_c, 0, 72, 107
2, 7440, Note_on_c, 0, 67, 107
2, 7440, Note_on_c, 0, 77, 107
2, 7536, Note_on_c, 0, 77, 0
2, 7560, Note_on_c, 0, 76, 107
2, 7632, Note_on_c, 0, 67, 0
2, 7632, Note_on_c, 0, 72, 0
2, 7656, Note_on_c, 0, 76, 0
2, 7680, Note_on_c, 0, 74, 107
2, 7680, Note_on_c, 0, 65, 107
2, 7680, Note_on_c, 0, 71, 107
2, 7776, Note_on_c, 0, 74, 0
2, 7800, Note_on_c, 0, 72, 107
2, 7872, Note_on_c, 0, 71, 0
2, 7872, Note_on_c, 0, 65, 0
2, 7896, Note_on_c, 0, 72, 0
2, 7920, Note_on_c, 0, 72, 107
2, 7920, Note_on_c, 0, 67, 107
2, 7920, Note_on_c, 0, 65, 107
2, 8016, Note_on_c, 0, 65, 0
2, 8040, Note_on_c, 0, 62, 107
2, 8112, Note_on_c, 0, 67, 0
2, 8112, Note_on_c, 0, 72, 0
2, 8136, Note_on_c, 0, 62, 0
2, 8160, Note_on_c, 0, 67, 107
2, 8160, Note_on_c, 0, 72, 107
2, 8160, Note_on_c, 0, 64, 107
2, 8544, Note_on_c, 0, 64, 0
2, 8544, Note_on_c, 0, 72, 0
2, 8544, Note_on_c, 0, 67, 0
2, 8640, Note_on_c, 0, 69, 107
2, 8640, Note_on_c, 0, 72, 107
2, 8640, Note_on_c, 0, 64, 107
2, 8832, Note_on_c, 0, 64, 0
2, 8832, Note_on_c, 0, 72, 0
2, 8832, Note_on_c, 0, 69, 0
2, 8880, Note_on_c, 0, 72, 107
2, 8880, Note_on_c, 0, 64, 107
2, 8880, Note_on_c, 0, 65, 107
2, 8976, Note_on_c, 0, 64, 0
2, 8976, Note_on_c, 0, 72, 0
2, 9000, Note_on_c, 0, 62, 107
2, 9000, Note_on_c, 0, 71, 107
2, 9072, Note_on_c, 0, 65, 0
2, 9096, Note_on_c, 0, 71, 0
2, 9096, Note_on_c, 0, 62, 0
2, 9120, Note_on_c, 0, 64, 107
2, 9120, Note_on_c, 0, 60, 107
2, 9120, Note_on_c, 0, 69, 107
2, 9216, Note_on_c, 0, 69, 0
2, 9216, Note_on_c, 0, 60, 0
2, 9240, Note_on_c, 0, 68, 107
2, 9240, Note_on_c, 0, 59, 107
2, 9255, Note_on_c, 0, 68, 0
2, 9255, Note_on_c, 0, 69, 107
2, 9270, Note_on_c, 0, 69, 0
2, 9270, Note_on_c, 0, 68, 107
2, 9318, Note_on_c, 0, 68, 0
2, 9336, Note_on_c, 0, 59, 0
2, 9345, Note_on_c, 0, 64, 0
2, 9360, Note_on_c, 0, 69, 107
2, 9360, Note_on_c, 0, 60, 107
2, 9417, Note_on_c, 0, 69, 0
2, 9420, Note_on_c, 0, 68, 107
2, 9468, Note_on_c, 0, 68, 0
2, 9480, Note_on_c, 0, 71, 107
2, 9528, Note_on_c, 0, 71, 0
2, 9540, Note_on_c, 0, 69, 107
2, 9552, Note_on_c, 0, 60, 0
2, 9588, Note_on_c, 0, 69, 0
2, 9600, Note_on_c, 0, 69, 107
2, 9600, Note_on_c, 0, 60, 107
2, 9984, Note_on_c, 0, 60, 0
2, 10050, Note_on_c, 0, 69, 0
2, 10125, Note_on_c, 0, 64, 107
2, 10140, Note_on_c, 0, 69, 107
2, 10155, Note_on_c, 0, 72, 107
2, 10170, Note_on_c, 0, 76, 107
2, 10253, Note_on_c, 0, 69, 0
2, 10253, Note_on_c, 0, 64, 0
2, 10266, Note_on_c, 0, 72, 0
2, 10313, Note_on_c, 0, 76, 0
2, 10320, Note_on_c, 0, 65, 107
2, 10320, Note_on_c, 0, 72, 107
2, 10320, Note_on_c, 0, 76, 107
2, 10416, Note_on_c, 0, 76, 0
2, 10416, Note_on_c, 0, 72, 0
2, 10440, Note_on_c, 0, 71, 107
2, 10440, Note_on_c, 0, 74, 107
2, 10536, Note_on_c, 0, 74, 0
2, 10536, Note_on_c, 0, 71, 0
2, 10536, Note_on_c, 0, 65, 0
2, 10560, Note_on_c, 0, 64, 107
2, 10560, Note_on_c, 0, 72, 107
2, 10560, Note_on_c, 0, 69, 107
2, 10656, Note_on_c, 0, 69, 0
2, 10656, Note_on_c, 0, 72, 0
2, 10680, Note_on_c, 0, 71, 107
2, 10680, Note_on_c, 0, 68, 107
2, 10776, Note_on_c, 0, 68, 0
2, 10776, Note_on_c, 0, 71, 0
2, 10776, Note_on_c, 0, 64, 0
2, 10800, Note_on_c, 0, 64, 107
2, 10800, Note_on_c, 0, 71, 107
2, 10800, Note_on_c, 0, 68, 107
2, 10992, Note_on_c, 0, 68, 0
2, 10992, Note_on_c, 0, 71, 0
2, 11040, Note_on_c, 0, 72, 107
2, 11040, Note_on_c, 0, 69, 107
2, 11055, Note_on_c, 0, 72, 0
2, 11055, Note_on_c, 0, 71, 107
2, 11067, Note_on_c, 0, 71, 0
2, 11070, Note_on_c, 0, 72, 107
2, 11088, Note_on_c, 0, 64, 0
2, 11160, Note_on_c, 0, 62, 107
2, 11196, Note_on_c, 0, 72, 0
2, 11220, Note_on_c, 0, 71, 107
2, 11232, Note_on_c, 0, 69, 0
2, 11256, Note_on_c, 0, 62, 0
2, 11268, Note_on_c, 0, 71, 0
2, 11280, Note_on_c, 0, 64, 107
2, 11280, Note_on_c, 0, 60, 107
2, 11280, Note_on_c, 0, 69, 107
2, 11376, Note_on_c, 0, 60, 0
2, 11400, Note_on_c, 0, 59, 107
2, 11472, Note_on_c, 0, 69, 0
2, 11472, Note_on_c, 0, 64, 0
2, 11496, Note_on_c, 0, 59, 0
2, 11520, Note_on_c, 0, 72, 107
2, 11616, Note_on_c, 0, 72, 0
2, 11640, Note_on_c, 0, 70, 107
2, 11688, Note_on_c, 0, 70, 0
2, 11700, Note_on_c, 0, 69, 107
2, 11748, Note_on_c, 0, 69, 0
2, 11760, Note_on_c, 0, 67, 107
2, 11808, Note_on_c, 0, 67, 0
2, 11820, Note_on_c, 0, 65, 107
2, 11916, Note_on_c, 0, 65, 0
2, 11940, Note_on_c, 0, 67, 107
2, 11964, Note_on_c, 0, 67, 0
2, 11970, Note_on_c, 0, 64, 107
2, 11994, Note_on_c, 0, 64, 0
2, 12000, Note_on_c, 0, 65, 107
2, 12048, Note_on_c, 0, 65, 0
2, 12060, Note_on_c, 0, 69, 107
2, 12108, Note_on_c, 0, 69, 0
2, 12120, Note_on_c, 0, 71, 107
2, 12168, Note_on_c, 0, 71, 0
2, 12180, Note_on_c, 0, 74, 107
2, 12204, Note_on_c, 0, 74, 0
2, 12210, Note_on_c, 0, 72, 107
2, 12234, Note_on_c, 0, 72, 0
2, 12240, Note_on_c, 0, 74, 107
2, 12336, Note_on_c, 0, 74, 0
2, 12360, Note_on_c, 0, 72, 107
2, 12408, Note_on_c, 0, 72, 0
2, 12420, Note_on_c, 0, 71, 107
2, 12468, Note_on_c, 0, 71, 0
2, 12480, Note_on_c, 0, 69, 107
2, 12528, Note_on_c, 0, 69, 0
2, 12540, Note_on_c, 0, 67, 107
2, 12588, Note_on_c, 0, 67, 0
2, 12600, Note_on_c, 0, 65, 107
2, 12648, Note_on_c, 0, 65, 0
2, 12660, Note_on_c, 0, 67, 107
2, 12684, Note_on_c, 0, 67, 0
2, 12690, Note_on_c, 0, 64, 107
2, 12714, Note_on_c, 0, 64, 0
2, 12720, Note_on_c, 0, 65, 107
2, 12792, Note_on_c, 0, 65, 0
2, 12810, Note_on_c, 0, 67, 107
2, 12834, Note_on_c, 0, 67, 0
2, 12840, Note_on_c, 0, 69, 107
2, 12864, Note_on_c, 0, 69, 0
2, 12870, Note_on_c, 0, 71, 107
2, 12894, Note_on_c, 0, 71, 0
2, 12900, Note_on_c, 0, 72, 107
2, 12924, Note_on_c, 0, 72, 0
2, 12930, Note_on_c, 0, 74, 107
2, 12954, Note_on_c, 0, 74, 0
2, 12960, Note_on_c, 0, 76, 107
2, 12960, Note_on_c, 0, 72, 107
2, 12960, Note_on_c, 0, 67, 107
2, 13056, Note_on_c, 0, 76, 0
2, 13080, Note_on_c, 0, 74, 107
2, 13152, Note_on_c, 0, 67, 0
2, 13152, Note_on_c, 0, 72, 0
2, 13176, Note_on_c, 0, 74, 0
2, 13200, Note_on_c, 0, 72, 107
2, 13200, Note_on_c, 0, 74, 107
2, 13200, Note_on_c, 0, 60, 107
2, 13224, Note_on_c, 0, 74, 0
2, 13230, Note_on_c, 0, 76, 107
2, 13254, Note_on_c, 0, 76, 0
2, 13260, Note_on_c, 0, 77, 107
2, 13308, Note_on_c, 0, 77, 0
2, 13320, Note_on_c, 0, 76, 107
2, 13392, Note_on_c, 0, 60, 0
2, 13392, Note_on_c, 0, 72, 0
2, 13416, Note_on_c, 0, 76, 0
2, 13440, Note_on_c, 0, 74, 107
2, 13440, Note_on_c, 0, 65, 107
2, 13440, Note_on_c, 0, 69, 107
2, 13488, Note_on_c, 0, 74, 0
2, 13500, Note_on_c, 0, 77, 107
2, 13524, Note_on_c, 0, 77, 0
2, 13530, Note_on_c, 0, 76, 107
2, 13536, Note_on_c, 0, 65, 0
2, 13554, Note_on_c, 0, 76, 0
2, 13560, Note_on_c, 0, 64, 107
2, 13560, Note_on_c, 0, 74, 107
2, 13608, Note_on_c, 0, 74, 0
2, 13620, Note_on_c, 0, 76, 107
2, 13632, Note_on_c, 0, 69, 0
2, 13644, Note_on_c, 0, 76, 0
2, 13650, Note_on_c, 0, 72, 107
2, 13656, Note_on_c, 0, 64, 0
2, 13674, Note_on_c, 0, 72, 0
2, 13680, Note_on_c, 0, 72, 107
2, 13680, Note_on_c, 0, 71, 107
2, 13680, Note_on_c, 0, 62, 107
2, 13728, Note_on_c, 0, 72, 0
2, 13740, Note_on_c, 0, 79, 107
2, 13872, Note_on_c, 0, 71, 0
2, 13884, Note_on_c, 0, 79, 0
2, 13905, Note_on_c, 0, 62, 0
2, 13920, Note_on_c, 0, 62, 107
2, 13920, Note_on_c, 0, 71, 107
2, 13920, Note_on_c, 0, 79, 107
2, 14304, Note_on_c, 0, 79, 0
2, 14304, Note_on_c, 0, 71, 0
2, 14370, Note_on_c, 0, 62, 0
2, 14400, Note_on_c, 0, 70, 107
2, 14448, Note_on_c, 0, 70, 0
2, 14460, Note_on_c, 0, 69, 107
2, 14508, Note_on_c, 0, 69, 0
2, 14520, Note_on_c, 0, 70, 107
2, 14568, Note_on_c, 0, 70, 0
2, 14580, Note_on_c, 0, 79, 107
2, 14628, Note_on_c, 0, 79, 0
2, 14640, Note_on_c, 0, 76, 107
2, 14688, Note_on_c, 0, 76, 0
2, 14700, Note_on_c, 0, 72, 107
2, 14748, Note_on_c, 0, 72, 0
2, 14760, Note_on_c, 0, 70, 107
2, 14808, Note_on_c, 0, 70, 0
2, 14820, Note_on_c, 0, 69, 107
2, 14868, Note_on_c, 0, 69, 0
2, 14880, Note_on_c, 0, 70, 107
2, 14928, Note_on_c, 0, 70, 0
2, 14940, Note_on_c, 0, 69, 107
2, 14988, Note_on_c, 0, 69, 0
2, 15000, Note_on_c, 0, 70, 107
2, 15048, Note_on_c, 0, 70, 0
2, 15060, Note_on_c, 0, 79, 107
2, 15108, Note_on_c, 0, 79, 0
2, 15120, Note_on_c, 0, 69, 107
2, 15168, Note_on_c, 0, 69, 0
2, 15180, Note_on_c, 0, 67, 107
2, 15228, Note_on_c, 0, 67, 0
2, 15240, Note_on_c, 0, 69, 107
2, 15288, Note_on_c, 0, 69, 0
2, 15300, Note_on_c, 0, 72, 107
2, 15348, Note_on_c, 0, 72, 0
2, 15360, Note_on_c, 0, 74, 107
2, 15408, Note_on_c, 0, 74, 0
2, 15420, Note_on_c, 0, 76, 107
2, 15468, Note_on_c, 0, 76, 0
2, 15480, Note_on_c, 0, 77, 107
2, 15528, Note_on_c, 0, 77, 0
2, 15540, Note_on_c, 0, 79, 107
2, 15588, Note_on_c, 0, 79, 0
2, 15600, Note_on_c, 0, 81, 107
2, 15648, Note_on_c, 0, 81, 0
2, 15660, Note_on_c, 0, 75, 107
2, 15708, Note_on_c, 0, 75, 0
2, 15720, Note_on_c, 0, 74, 107
2, 15768, Note_on_c, 0, 74, 0
2, 15780, Note_on_c, 0, 72, 107
2, 15828, Note_on_c, 0, 72, 0
2, 15840, Note_on_c, 0, 83, 107
2, 15855, Note_on_c, 0, 83, 0
2, 15855, Note_on_c, 0, 81, 107
2, 15867, Note_on_c, 0, 81, 0
2, 15870, Note_on_c, 0, 79, 107
2, 15882, Note_on_c, 0, 79, 0
2, 15885, Note_on_c, 0, 81, 107
2, 15897, Note_on_c, 0, 81, 0
2, 15900, Note_on_c, 0, 83, 107
2, 15948, Note_on_c, 0, 83, 0
2, 15960, Note_on_c, 0, 84, 107
2, 16056, Note_on_c, 0, 84, 0
2, 16080, Note_on_c, 0, 72, 107
2, 16080, Note_on_c, 0, 67, 107
2, 16080, Note_on_c, 0, 77, 107
2, 16176, Note_on_c, 0, 77, 0
2, 16200, Note_on_c, 0, 76, 107
2, 16272, Note_on_c, 0, 67, 0
2, 16272, Note_on_c, 0, 72, 0
2, 16296, Note_on_c, 0, 76, 0
2, 16320, Note_on_c, 0, 74, 107
2, 16320, Note_on_c, 0, 65, 107
2, 16320, Note_on_c, 0, 71, 107
2, 16416, Note_on_c, 0, 74, 0
2, 16440, Note_on_c, 0, 72, 107
2, 16512, Note_on_c, 0, 71, 0
2, 16512, Note_on_c, 0, 65, 0
2, 16536, Note_on_c, 0, 72, 0
2, 16560, Note_on_c, 0, 72, 107
2, 16560, Note_on_c, 0, 67, 107
2, 16560, Note_on_c, 0, 65, 107
2, 16656, Note_on_c, 0, 65, 0
2, 16680, Note_on_c, 0, 62, 107
2, 16752, Note_on_c, 0, 67, 0
2, 16752, Note_on_c, 0, 72, 0
2, 16776, Note_on_c, 0, 62, 0
2, 16800, Note_on_c, 0, 67, 107
2, 16800, Note_on_c, 0, 72, 107
2, 16800, Note_on_c, 0, 64, 107
2, 17184, Note_on_c, 0, 64, 0
2, 17184, Note_on_c, 0, 72, 0
2, 17184, Note_on_c, 0, 67, 0
2, 17280, Note_on_c, 0, 64, 107
2, 17280, Note_on_c, 0, 67, 107
2, 17472, Note_on_c, 0, 67, 0
2, 17472, Note_on_c, 0, 64, 0
2, 17520, Note_on_c, 0, 67, 107
2, 17520, Note_on_c, 0, 64, 107
2, 17616, Note_on_c, 0, 64, 0
2, 17616, Note_on_c, 0, 67, 0
2, 17640, Note_on_c, 0, 62, 107
2, 17640, Note_on_c, 0, 65, 107
2, 17736, Note_on_c, 0, 65, 0
2, 17736, Note_on_c, 0, 62, 0
2, 17760, Note_on_c, 0, 64, 107
2, 17760, Note_on_c, 0, 60, 107
2, 17856, Note_on_c, 0, 60, 0
2, 17856, Note_on_c, 0, 64, 0
2, 17880, Note_on_c, 0, 62, 107
2, 17880, Note_on_c, 0, 59, 107
2, 17976, Note_on_c, 0, 59, 0
2, 17976, Note_on_c, 0, 62, 0
2, 18000, Note_on_c, 0, 62, 107
2, 18000, Note_on_c, 0, 60, 107
2, 18113, Note_on_c, 0, 62, 0
2, 18180, Note_on_c, 0, 64, 107
2, 18192, Note_on_c, 0, 60, 0
2, 18204, Note_on_c, 0, 64, 0
2, 18210, Note_on_c, 0, 65, 107
2, 18234, Note_on_c, 0, 65, 0
2, 18240, Note_on_c, 0, 60, 107
2, 18240, Note_on_c, 0, 64, 107
2, 18624, Note_on_c, 0, 64, 0
2, 18624, Note_on_c, 0, 60, 0
2, 18720, Note_on_c, 0, 63, 107
2, 18768, Note_on_c, 0, 63, 0
2, 18780, Note_on_c, 0, 66, 107
2, 18828, Note_on_c, 0, 66, 0
2, 18840, Note_on_c, 0, 69, 107
2, 18888, Note_on_c, 0, 69, 0
2, 18900, Note_on_c, 0, 72, 107
2, 18948, Note_on_c, 0, 72, 0
2, 18960, Note_on_c, 0, 71, 107
2, 19008, Note_on_c, 0, 71, 0
2, 19020, Note_on_c, 0, 66, 107
2, 19068, Note_on_c, 0, 66, 0
2, 19080, Note_on_c, 0, 67, 107
2, 19128, Note_on_c, 0, 67, 0
2, 19140, Note_on_c, 0, 63, 107
2, 19188, Note_on_c, 0, 63, 0
2, 19200, Note_on_c, 0, 64, 107
2, 19200, Note_on_c, 0, 64, 107
2, 19248, Note_on_c, 0, 64, 0
2, 19260, Note_on_c, 0, 67, 107
2, 19308, Note_on_c, 0, 67, 0
2, 19320, Note_on_c, 0, 70, 107
2, 19368, Note_on_c, 0, 70, 0
2, 19380, Note_on_c, 0, 73, 107
2, 19392, Note_on_c, 0, 64, 0
2, 19428, Note_on_c, 0, 73, 0
2, 19440, Note_on_c, 0, 66, 107
2, 19440, Note_on_c, 0, 76, 107
2, 19488, Note_on_c, 0, 76, 0
2, 19500, Note_on_c, 0, 75, 107
2, 19548, Note_on_c, 0, 75, 0
2, 19560, Note_on_c, 0, 78, 107
2, 19608, Note_on_c, 0, 78, 0
2, 19620, Note_on_c, 0, 76, 107
2, 19632, Note_on_c, 0, 66, 0
2, 19668, Note_on_c, 0, 76, 0
2, 19680, Note_on_c, 0, 71, 107
2, 19680, Note_on_c, 0, 78, 107
2, 19728, Note_on_c, 0, 78, 0
2, 19740, Note_on_c, 0, 76, 107
2, 19788, Note_on_c, 0, 76, 0
2, 19800, Note_on_c, 0, 75, 107
2, 19848, Note_on_c, 0, 75, 0
2, 19860, Note_on_c, 0, 73, 107
2, 19872, Note_on_c, 0, 71, 0
2, 19908, Note_on_c, 0, 73, 0
2, 19920, Note_on_c, 0, 71, 107
2, 20112, Note_on_c, 0, 71, 0
2, 20160, Note_on_c, 0, 79, 107
2, 20208, Note_on_c, 0, 79, 0
2, 20220, Note_on_c, 0, 78, 107
2, 20268, Note_on_c, 0, 78, 0
2, 20280, Note_on_c, 0, 76, 107
2, 20328, Note_on_c, 0, 76, 0
2, 20340, Note_on_c, 0, 74, 107
2, 20388, Note_on_c, 0, 74, 0
2, 20400, Note_on_c, 0, 72, 107
2, 20448, Note_on_c, 0, 72, 0
2, 20460, Note_on_c, 0, 71, 107
2, 20508, Note_on_c, 0, 71, 0
2, 20520, Note_on_c, 0, 70, 107
2, 20568, Note_on_c, 0, 70, 0
2, 20580, Note_on_c, 0, 71, 107
2, 20628, Note_on_c, 0, 71, 0
2, 20640, Note_on_c, 0, 70, 107
2, 20688, Note_on_c, 0, 70, 0
2, 20700, Note_on_c, 0, 73, 107
2, 20748, Note_on_c, 0, 73, 0
2, 20760, Note_on_c, 0, 76, 107
2, 20808, Note_on_c, 0, 76, 0
2, 20820, Note_on_c, 0, 79, 107
2, 20868, Note_on_c, 0, 79, 0
2, 20880, Note_on_c, 0, 78, 107
2, 20928, Note_on_c, 0, 78, 0
2, 20940, Note_on_c, 0, 76, 107
2, 20988, Note_on_c, 0, 76, 0
2, 21000, Note_on_c, 0, 75, 107
2, 21048, Note_on_c, 0, 75, 0
2, 21060, Note_on_c, 0, 73, 107
2, 21108, Note_on_c, 0, 73, 0
2, 21120, Note_on_c, 0, 71, 107
2, 21168, Note_on_c, 0, 71, 0
2, 21180, Note_on_c, 0, 69, 107
2, 21228, Note_on_c, 0, 69, 0
2, 21240, Note_on_c, 0, 68, 107
2, 21288, Note_on_c, 0, 68, 0
2, 21300, Note_on_c, 0, 69, 107
2, 21348, Note_on_c, 0, 69, 0
2, 21360, Note_on_c, 0, 68, 107
2, 21408, Note_on_c, 0, 68, 0
2, 21420, Note_on_c, 0, 71, 107
2, 21468, Note_on_c, 0, 71, 0
2, 21480, Note_on_c, 0, 74, 107
2, 21528, Note_on_c, 0, 74, 0
2, 21540, Note_on_c, 0, 77, 107
2, 21588, Note_on_c, 0, 77, 0
2, 21600, Note_on_c, 0, 76, 110
2, 21648, Note_on_c, 0, 76, 0
2, 21660, Note_on_c, 0, 81, 110
2, 21708, Note_on_c, 0, 81, 0
2, 21720, Note_on_c, 0, 83, 110
2, 21768, Note_on_c, 0, 83, 0
2, 21780, Note_on_c, 0, 84, 110
2, 21828, Note_on_c, 0, 84, 0
2, 21840, Note_on_c, 0, 83, 110
2, 21888, Note_on_c, 0, 83, 0
2, 21900, Note_on_c, 0, 81, 110
2, 21948, Note_on_c, 0, 81, 0
2, 21960, Note_on_c, 0, 84, 110
2, 22008, Note_on_c, 0, 84, 0
2, 22020, Note_on_c, 0, 83, 110
2, 22068, Note_on_c, 0, 83, 0
2, 22080, Note_on_c, 0, 81, 110
2, 22128, Note_on_c, 0, 81, 0
2, 22140, Note_on_c, 0, 79, 110
2, 22188, Note_on_c, 0, 79, 0
2, 22200, Note_on_c, 0, 75, 110
2, 22200, Note_on_c, 0, 71, 110
2, 22200, Note_on_c, 0, 81, 110
2, 22248, Note_on_c, 0, 81, 0
2, 22260, Note_on_c, 0, 78, 110
2, 22296, Note_on_c, 0, 71, 0
2, 22296, Note_on_c, 0, 75, 0
2, 22308, Note_on_c, 0, 78, 0
2, 22320, Note_on_c, 0, 75, 107
2, 22320, Note_on_c, 0, 71, 107
2, 22320, Note_on_c, 0, 78, 107
2, 22380, Note_on_c, 0, 78, 0
2, 22380, Note_on_c, 0, 75, 0
2, 22440, Note_on_c, 0, 79, 107
2, 22440, Note_on_c, 0, 76, 107
2, 22512, Note_on_c, 0, 71, 0
2, 22553, Note_on_c, 0, 76, 0
2, 22553, Note_on_c, 0, 79, 0
2, 22560, Note_on_c, 0, 71, 107
2, 22560, Note_on_c, 0, 67, 107
2, 22560, Note_on_c, 0, 78, 107
2, 22617, Note_on_c, 0, 78, 0
2, 22620, Note_on_c, 0, 76, 107
2, 22944, Note_on_c, 0, 67, 0
2, 22956, Note_on_c, 0, 76, 0
2, 23010, Note_on_c, 0, 71, 0
2, 23040, Note_on_c, 0, 79, 107
2, 23136, Note_on_c, 0, 79, 0
2, 23220, Note_on_c, 0, 81, 107
2, 23249, Note_on_c, 0, 81, 0
2, 23250, Note_on_c, 0, 82, 105
2, 23274, Note_on_c, 0, 82, 0
2, 23280, Note_on_c, 0, 81, 105
2, 23328, Note_on_c, 0, 81, 0
2, 23340, Note_on_c, 0, 79, 107
2, 23400, Note_on_c, 0, 77, 107
2, 23496, Note_on_c, 0, 77, 0
2, 23520, Note_on_c, 0, 76, 107
2, 23616, Note_on_c, 0, 76, 0
2, 23640, Note_on_c, 0, 74, 107
2, 23676, Note_on_c, 0, 79, 0
2, 23736, Note_on_c, 0, 74, 0
2, 23760, Note_on_c, 0, 79, 105
2, 23760, Note_on_c, 0, 73, 107
2, 23808, Note_on_c, 0, 79, 0
2, 23820, Note_on_c, 0, 76, 105
2, 23868, Note_on_c, 0, 76, 0
2, 23880, Note_on_c, 0, 79, 105
2, 23880, Note_on_c, 0, 70, 107
2, 23928, Note_on_c, 0, 79, 0
2, 23940, Note_on_c, 0, 77, 105
2, 23952, Note_on_c, 0, 73, 0
2, 23976, Note_on_c, 0, 70, 0
2, 23988, Note_on_c, 0, 77, 0
2, 24000, Note_on_c, 0, 77, 105
2, 24000, Note_on_c, 0, 69, 107
2, 24000, Note_on_c, 0, 73, 107
2, 24048, Note_on_c, 0, 77, 0
2, 24060, Note_on_c, 0, 79, 107
2, 24096, Note_on_c, 0, 69, 0
2, 24120, Note_on_c, 0, 67, 107
2, 24216, Note_on_c, 0, 67, 0
2, 24240, Note_on_c, 0, 65, 107
2, 24336, Note_on_c, 0, 65, 0
2, 24360, Note_on_c, 0, 64, 107
2, 24384, Note_on_c, 0, 73, 0
2, 24396, Note_on_c, 0, 79, 0
2, 24456, Note_on_c, 0, 64, 0
2, 24480, Note_on_c, 0, 77, 107
2, 24576, Note_on_c, 0, 77, 0
2, 24660, Note_on_c, 0, 79, 107
2, 24689, Note_on_c, 0, 79, 0
2, 24690, Note_on_c, 0, 81, 105
2, 24714, Note_on_c, 0, 81, 0
2, 24720, Note_on_c, 0, 79, 105
2, 24735, Note_on_c, 0, 79, 0
2, 24780, Note_on_c, 0, 77, 107
2, 24840, Note_on_c, 0, 76, 107
2, 24936, Note_on_c, 0, 76, 0
2, 24960, Note_on_c, 0, 74, 107
2, 25056, Note_on_c, 0, 74, 0
2, 25080, Note_on_c, 0, 72, 107
2, 25116, Note_on_c, 0, 77, 0
2, 25176, Note_on_c, 0, 72, 0
2, 25200, Note_on_c, 0, 77, 105
2, 25200, Note_on_c, 0, 71, 107
2, 25248, Note_on_c, 0, 77, 0
2, 25260, Note_on_c, 0, 76, 105
2, 25308, Note_on_c, 0, 76, 0
2, 25320, Note_on_c, 0, 69, 107
2, 25320, Note_on_c, 0, 74, 105
2, 25368, Note_on_c, 0, 74, 0
2, 25380, Note_on_c, 0, 77, 105
2, 25392, Note_on_c, 0, 71, 0
2, 25404, Note_on_c, 0, 77, 0
2, 25410, Note_on_c, 0, 76, 105
2, 25416, Note_on_c, 0, 69, 0
2, 25434, Note_on_c, 0, 76, 0
2, 25440, Note_on_c, 0, 76, 105
2, 25440, Note_on_c, 0, 67, 107
2, 25440, Note_on_c, 0, 71, 107
2, 25488, Note_on_c, 0, 76, 0
2, 25500, Note_on_c, 0, 77, 107
2, 25536, Note_on_c, 0, 67, 0
2, 25560, Note_on_c, 0, 65, 107
2, 25656, Note_on_c, 0, 65, 0
2, 25680, Note_on_c, 0, 64, 107
2, 25776, Note_on_c, 0, 64, 0
2, 25800, Note_on_c, 0, 62, 107
2, 25824, Note_on_c, 0, 71, 0
2, 25836, Note_on_c, 0, 77, 0
2, 25896, Note_on_c, 0, 62, 0
2, 25920, Note_on_c, 0, 76, 110
2, 25968, Note_on_c, 0, 76, 0
2, 25980, Note_on_c, 0, 74, 110
2, 26028, Note_on_c, 0, 74, 0
2, 26040, Note_on_c, 0, 74, 110
2, 26088, Note_on_c, 0, 74, 0
2, 26100, Note_on_c, 0, 72, 110
2, 26148, Note_on_c, 0, 72, 0
2, 26160, Note_on_c, 0, 72, 110
2, 26208, Note_on_c, 0, 72, 0
2, 26220, Note_on_c, 0, 77, 110
2, 26268, Note_on_c, 0, 77, 0
2, 26280, Note_on_c, 0, 77, 110
2, 26328, Note_on_c, 0, 77, 0
2, 26340, Note_on_c, 0, 76, 110
2, 26388, Note_on_c, 0, 76, 0
2, 26400, Note_on_c, 0, 76, 110
2, 26448, Note_on_c, 0, 76, 0
2, 26460, Note_on_c, 0, 81, 110
2, 26508, Note_on_c, 0, 81, 0
2, 26520, Note_on_c, 0, 72, 107
2, 26520, Note_on_c, 0, 81, 110
2, 26568, Note_on_c, 0, 81, 0
2, 26580, Note_on_c, 0, 79, 110
2, 26616, Note_on_c, 0, 72, 0
2, 26628, Note_on_c, 0, 79, 0
2, 26640, Note_on_c, 0, 79, 110
2, 26640, Note_on_c, 0, 77, 107
2, 26688, Note_on_c, 0, 79, 0
2, 26700, Note_on_c, 0, 82, 110
2, 26736, Note_on_c, 0, 77, 0
2, 26748, Note_on_c, 0, 82, 0
2, 26760, Note_on_c, 0, 76, 107
2, 26760, Note_on_c, 0, 82, 110
2, 26808, Note_on_c, 0, 82, 0
2, 26820, Note_on_c, 0, 81, 110
2, 26856, Note_on_c, 0, 76, 0
2, 26868, Note_on_c, 0, 81, 0
2, 26880, Note_on_c, 0, 81, 110
2, 26880, Note_on_c, 0, 74, 107
2, 26928, Note_on_c, 0, 81, 0
2, 26940, Note_on_c, 0, 80, 110
2, 26976, Note_on_c, 0, 74, 0
2, 26988, Note_on_c, 0, 80, 0
2, 27000, Note_on_c, 0, 80, 110
2, 27000, Note_on_c, 0, 72, 107
2, 27048, Note_on_c, 0, 80, 0
2, 27060, Note_on_c, 0, 81, 110
2, 27096, Note_on_c, 0, 72, 0
2, 27108, Note_on_c, 0, 81, 0
2, 27120, Note_on_c, 0, 71, 107
2, 27120, Note_on_c, 0, 81, 110
2, 27168, Note_on_c, 0, 81, 0
2, 27180, Note_on_c, 0, 77, 110
2, 27216, Note_on_c, 0, 71, 0
2, 27228, Note_on_c, 0, 77, 0
2, 27240, Note_on_c, 0, 72, 107
2, 27240, Note_on_c, 0, 77, 110
2, 27288, Note_on_c, 0, 77, 0
2, 27300, Note_on_c, 0, 76, 110
2, 27336, Note_on_c, 0, 72, 0
2, 27348, Note_on_c, 0, 76, 0
2, 27360, Note_on_c, 0, 76, 110
2, 27360, Note_on_c, 0, 69, 107
2, 27408, Note_on_c, 0, 76, 0
2, 27420, Note_on_c, 0, 75, 110
2, 27468, Note_on_c, 0, 75, 0
2, 27480, Note_on_c, 0, 75, 110
2, 27528, Note_on_c, 0, 75, 0
2, 27540, Note_on_c, 0, 76, 110
2, 27552, Note_on_c, 0, 69, 0
2, 27588, Note_on_c, 0, 76, 0
2, 27600, Note_on_c, 0, 76, 110
2, 27624, Note_on_c, 0, 76, 0
2, 27630, Note_on_c, 0, 74, 110
2, 27702, Note_on_c, 0, 74, 0
2, 27720, Note_on_c, 0, 72, 110
2, 27816, Note_on_c, 0, 72, 0
2, 27840, Note_on_c, 0, 62, 107
2, 27840, Note_on_c, 0, 68, 107
2, 27840, Note_on_c, 0, 71, 110
2, 27852, Note_on_c, 0, 71, 0
2, 27855, Note_on_c, 0, 72, 110
2, 27867, Note_on_c, 0, 72, 0
2, 27870, Note_on_c, 0, 71, 110
2, 27948, Note_on_c, 0, 71, 0
2, 27960, Note_on_c, 0, 69, 110
2, 28032, Note_on_c, 0, 68, 0
2, 28032, Note_on_c, 0, 62, 0
2, 28056, Note_on_c, 0, 69, 0
2, 28080, Note_on_c, 0, 69, 107
2, 28080, Note_on_c, 0, 64, 107
2, 28080, Note_on_c, 0, 60, 107
2, 28272, Note_on_c, 0, 60, 0
2, 28272, Note_on_c, 0, 64, 0
2, 28272, Note_on_c, 0, 69, 0
2, 28320, Note_on_c, 0, 60, 107
2, 28320, Note_on_c, 0, 64, 107
2, 28320, Note_on_c, 0, 69, 107
2, 28704, Note_on_c, 0, 69, 0
2, 28704, Note_on_c, 0, 64, 0
2, 28704, Note_on_c, 0, 60, 0
2, 28800, Note_on_c, 0, 64, 107
2, 28800, Note_on_c, 0, 67, 107
2, 28992, Note_on_c, 0, 67, 0
2, 28992, Note_on_c, 0, 64, 0
2, 29040, Note_on_c, 0, 67, 107
2, 29040, Note_on_c, 0, 64, 107
2, 29136, Note_on_c, 0, 64, 0
2, 29136, Note_on_c, 0, 67, 0
2, 29160, Note_on_c, 0, 62, 107
2, 29160, Note_on_c, 0, 65, 107
2, 29256, Note_on_c, 0, 65, 0
2, 29256, Note_on_c, 0, 62, 0
2, 29280, Note_on_c, 0, 64, 107
2, 29280, Note_on_c, 0, 60, 107
2, 29376, Note_on_c, 0, 60, 0
2, 29376, Note_on_c, 0, 64, 0
2, 29400, Note_on_c, 0, 62, 107
2, 29400, Note_on_c, 0, 59, 107
2, 29496, Note_on_c, 0, 59, 0
2, 29496, Note_on_c, 0, 62, 0
2, 29520, Note_on_c, 0, 62, 107
2, 29520, Note_on_c, 0, 60, 107
2, 29633, Note_on_c, 0, 62, 0
2, 29700, Note_on_c, 0, 64, 107
2, 29712, Note_on_c, 0, 60, 0
2, 29724, Note_on_c, 0, 64, 0
2, 29730, Note_on_c, 0, 65, 107
2, 29754, Note_on_c, 0, 65, 0
2, 29760, Note_on_c, 0, 60, 107
2, 29760, Note_on_c, 0, 64, 107
2, 30144, Note_on_c, 0, 64, 0
2, 30144, Note_on_c, 0, 60, 0
2, 30240, Note_on_c, 0, 63, 107
2, 30288, Note_on_c, 0, 63, 0
2, 30300, Note_on_c, 0, 66, 107
2, 30348, Note_on_c, 0, 66, 0
2, 30360, Note_on_c, 0, 69, 107
2, 30408, Note_on_c, 0, 69, 0
2, 30420, Note_on_c, 0, 72, 107
2, 30468, Note_on_c, 0, 72, 0
2, 30480, Note_on_c, 0, 71, 107
2, 30528, Note_on_c, 0, 71, 0
2, 30540, Note_on_c, 0, 66, 107
2, 30588, Note_on_c, 0, 66, 0
2, 30600, Note_on_c, 0, 67, 107
2, 30648, Note_on_c, 0, 67, 0
2, 30660, Note_on_c, 0, 63, 107
2, 30708, Note_on_c, 0, 63, 0
2, 30720, Note_on_c, 0, 64, 107
2, 30720, Note_on_c, 0, 64, 107
2, 30768, Note_on_c, 0, 64, 0
2, 30780, Note_on_c, 0, 67, 107
2, 30828, Note_on_c, 0, 67, 0
2, 30840, Note_on_c, 0, 70, 107
2, 30888, Note_on_c, 0, 70, 0
2, 30900, Note_on_c, 0, 73, 107
2, 30912, Note_on_c, 0, 64, 0
2, 30948, Note_on_c, 0, 73, 0
2, 30960, Note_on_c, 0, 66, 107
2, 30960, Note_on_c, 0, 76, 107
2, 31008, Note_on_c, 0, 76, 0
2, 31020, Note_on_c, 0, 75, 107
2, 31068, Note_on_c, 0, 75, 0
2, 31080, Note_on_c, 0, 78, 107
2, 31128, Note_on_c, 0, 78, 0
2, 31140, Note_on_c, 0, 76, 107
2, 31152, Note_on_c, 0, 66, 0
2, 31188, Note_on_c, 0, 76, 0
2, 31200, Note_on_c, 0, 71, 107
2, 31200, Note_on_c, 0, 78, 107
2, 31248, Note_on_c, 0, 78, 0
2, 31260, Note_on_c, 0, 76, 107
2, 31308, Note_on_c, 0, 76, 0
2, 31320, Note_on_c, 0, 75, 107
2, 31368, Note_on_c, 0, 75, 0
2, 31380, Note_on_c, 0, 73, 107
2, 31392, Note_on_c, 0, 71, 0
2, 31428, Note_on_c, 0, 73, 0
2, 31440, Note_on_c, 0, 71, 107
2, 31632, Note_on_c, 0, 71, 0
2, 31680, Note_on_c, 0, 79, 107
2, 31728, Note_on_c, 0, 79, 0
2, 31740, Note_on_c, 0, 78, 107
2, 31788, Note_on_c, 0, 78, 0
2, 31800, Note_on_c, 0, 76, 107
2, 31848, Note_on_c, 0, 76, 0
2, 31860, Note_on_c, 0, 74, 107
2, 31908, Note_on_c, 0, 74, 0
2, 31920, Note_on_c, 0, 72, 107
2, 31968, Note_on_c, 0, 72, 0
2, 31980, Note_on_c, 0, 71, 107
2, 32028, Note_on_c, 0, 71, 0
2, 32040, Note_on_c, 0, 70, 107
2, 32088, Note_on_c, 0, 70, 0
2, 32100, Note_on_c, 0, 71, 107
2, 32148, Note_on_c, 0, 71, 0
2, 32160, Note_on_c, 0, 70, 107
2, 32208, Note_on_c, 0, 70, 0
2, 32220, Note_on_c, 0, 73, 107
2, 32268, Note_on_c, 0, 73, 0
2, 32280, Note_on_c, 0, 76, 107
2, 32328, Note_on_c, 0, 76, 0
2, 32340, Note_on_c, 0, 79, 107
2, 32388, Note_on_c, 0, 79, 0
2, 32400, Note_on_c, 0, 78, 107
2, 32448, Note_on_c, 0, 78, 0
2, 32460, Note_on_c, 0, 76, 107
2, 32508, Note_on_c, 0, 76, 0
2, 32520, Note_on_c, 0, 75, 107
2, 32568, Note_on_c, 0, 75, 0
2, 32580, Note_on_c, 0, 73, 107
2, 32628, Note_on_c, 0, 73, 0
2, 32640, Note_on_c, 0, 71, 107
2, 32688, Note_on_c, 0, 71, 0
2, 32700, Note_on_c, 0, 69, 107
2, 32748, Note_on_c, 0, 69, 0
2, 32760, Note_on_c, 0, 68, 107
2, 32808, Note_on_c, 0, 68, 0
2, 32820, Note_on_c, 0, 69, 107
2, 32868, Note_on_c, 0, 69, 0
2, 32880, Note_on_c, 0, 68, 107
2, 32928, Note_on_c, 0, 68, 0
2, 32940, Note_on_c, 0, 71, 107
2, 32988, Note_on_c, 0, 71, 0
2, 33000, Note_on_c, 0, 74, 107
2, 33048, Note_on_c, 0, 74, 0
2, 33060, Note_on_c, 0, 77, 107
2, 33108, Note_on_c, 0, 77, 0
2, 33120, Note_on_c, 0, 76, 110
2, 33168, Note_on_c, 0, 76, 0
2, 33180, Note_on_c, 0, 81, 110
2, 33228, Note_on_c, 0, 81, 0
2, 33240, Note_on_c, 0, 83, 110
2, 33288, Note_on_c, 0, 83, 0
2, 33300, Note_on_c, 0, 84, 110
2, 33348, Note_on_c, 0, 84, 0
2, 33360, Note_on_c, 0, 83, 110
2, 33408, Note_on_c, 0, 83, 0
2, 33420, Note_on_c, 0, 81, 110
2, 33468, Note_on_c, 0, 81, 0
2, 33480, Note_on_c, 0, 84, 110
2, 33528, Note_on_c, 0, 84, 0
2, 33540, Note_on_c, 0, 83, 110
2, 33588, Note_on_c, 0, 83, 0
2, 33600, Note_on_c, 0, 81, 110
2, 33648, Note_on_c, 0, 81, 0
2, 33660, Note_on_c, 0, 79, 110
2, 33708, Note_on_c, 0, 79, 0
2, 33720, Note_on_c, 0, 75, 110
2, 33720, Note_on_c, 0, 71, 110
2, 33720, Note_on_c, 0, 81, 110
2, 33768, Note_on_c, 0, 81, 0
2, 33780, Note_on_c, 0, 78, 110
2, 33816, Note_on_c, 0, 71, 0
2, 33816, Note_on_c, 0, 75, 0
2, 33828, Note_on_c, 0, 78, 0
2, 33840, Note_on_c, 0, 75, 107
2, 33840, Note_on_c, 0, 71, 107
2, 33840, Note_on_c, 0, 78, 107
2, 33900, Note_on_c, 0, 78, 0
2, 33900, Note_on_c, 0, 75, 0
2, 33960, Note_on_c, 0, 79, 107
2, 33960, Note_on_c, 0, 76, 107
2, 34032, Note_on_c, 0, 71, 0
2, 34073, Note_on_c, 0, 76, 0
2, 34073, Note_on_c, 0, 79, 0
2, 34080, Note_on_c, 0, 71, 107
2, 34080, Note_on_c, 0, 67, 107
2, 34080, Note_on_c, 0, 78, 107
2, 34137, Note_on_c, 0, 78, 0
2, 34140, Note_on_c, 0, 76, 107
2, 34464, Note_on_c, 0, 67, 0
2, 34476, Note_on_c, 0, 76, 0
2, 34530, Note_on_c, 0, 71, 0
2, 34560, Note_on_c, 0, 79, 107
2, 34656, Note_on_c, 0, 79, 0
2, 34740, Note_on_c, 0, 81, 107
2, 34769, Note_on_c, 0, 81, 0
2, 34770, Note_on_c, 0, 82, 105
2, 34794, Note_on_c, 0, 82, 0
2, 34800, Note_on_c, 0, 81, 105
2, 34848, Note_on_c, 0, 81, 0
2, 34860, Note_on_c, 0, 79, 107
2, 34920, Note_on_c, 0, 77, 107
2, 35016, Note_on_c, 0, 77, 0
2, 35040, Note_on_c, 0, 76, 107
2, 35136, Note_on_c, 0, 76, 0
2, 35160, Note_on_c, 0, 74, 107
2, 35196, Note_on_c, 0, 79, 0
2, 35256, Note_on_c, 0, 74, 0
2, 35280, Note_on_c, 0, 79, 105
2, 35280, Note_on_c, 0, 73, 107
2, 35328, Note_on_c, 0, 79, 0
2, 35340, Note_on_c, 0, 76, 105
2, 35388, Note_on_c, 0, 76, 0
2, 35400, Note_on_c, 0, 79, 105
2, 35400, Note_on_c, 0, 70, 107
2, 35448, Note_on_c, 0, 79, 0
2, 35460, Note_on_c, 0, 77, 105
2, 35472, Note_on_c, 0, 73, 0
2, 35496, Note_on_c, 0, 70, 0
2, 35508, Note_on_c, 0, 77, 0
2, 35520, Note_on_c, 0, 77, 105
2, 35520, Note_on_c, 0, 69, 107
2, 35520, Note_on_c, 0, 73, 107
2, 35568, Note_on_c, 0, 77, 0
2, 35580, Note_on_c, 0, 79, 107
2, 35616, Note_on_c, 0, 69, 0
2, 35640, Note_on_c, 0, 67, 107
2, 35736, Note_on_c, 0, 67, 0
2, 35760, Note_on_c, 0, 65, 107
2, 35856, Note_on_c, 0, 65, 0
2, 35880, Note_on_c, 0, 64, 107
2, 35904, Note_on_c, 0, 73, 0
2, 35916, Note_on_c, 0, 79, 0
2, 35976, Note_on_c, 0, 64, 0
2, 36000, Note_on_c, 0, 77, 107
2, 36096, Note_on_c, 0, 77, 0
2, 36180, Note_on_c, 0, 79, 107
2, 36209, Note_on_c, 0, 79, 0
2, 36210, Note_on_c, 0, 81, 105
2, 36234, Note_on_c, 0, 81, 0
2, 36240, Note_on_c, 0, 79, 105
2, 36255, Note_on_c, 0, 79, 0
2, 36300, Note_on_c, 0, 77, 107
2, 36360, Note_on_c, 0, 76, 107
2, 36456, Note_on_c, 0, 76, 0
2, 36480, Note_on_c, 0, 74, 107
2, 36576, Note_on_c, 0, 74, 0
2, 36600, Note_on_c, 0, 72, 107
2, 36636, Note_on_c, 0, 77, 0
2, 36696, Note_on_c, 0, 72, 0
2, 36720, Note_on_c, 0, 77, 105
2, 36720, Note_on_c, 0, 71, 107
2, 36768, Note_on_c, 0, 77, 0
2, 36780, Note_on_c, 0, 76, 105
2, 36828, Note_on_c, 0, 76, 0
2, 36840, Note_on_c, 0, 69, 107
2, 36840, Note_on_c, 0, 74, 105
2, 36888, Note_on_c, 0, 74, 0
2, 36900, Note_on_c, 0, 77, 105
2, 36912, Note_on_c, 0, 71, 0
2, 36924, Note_on_c, 0, 77, 0
2, 36930, Note_on_c, 0, 76, 105
2, 36936, Note_on_c, 0, 69, 0
2, 36954, Note_on_c, 0, 76, 0
2, 36960, Note_on_c, 0, 76, 105
2, 36960, Note_on_c, 0, 67, 107
2, 36960, Note_on_c, 0, 71, 107
2, 37008, Note_on_c, 0, 76, 0
2, 37020, Note_on_c, 0, 77, 107
2, 37056, Note_on_c, 0, 67, 0
2, 37080, Note_on_c, 0, 65, 107
2, 37176, Note_on_c, 0, 65, 0
2, 37200, Note_on_c, 0, 64, 107
2, 37296, Note_on_c, 0, 64, 0
2, 37320, Note_on_c, 0, 62, 107
2, 37344, Note_on_c, 0, 71, 0
2, 37356, Note_on_c, 0, 77, 0
2, 37416, Note_on_c, 0, 62, 0
2, 37440, Note_on_c, 0, 76, 110
2, 37488, Note_on_c, 0, 76, 0
2, 37500, Note_on_c, 0, 74, 110
2, 37548, Note_on_c, 0, 74, 0
2, 37560, Note_on_c, 0, 74, 110
2, 37608, Note_on_c, 0, 74, 0
2, 37620, Note_on_c, 0, 72, 110
2, 37668, Note_on_c, 0, 72, 0
2, 37680, Note_on_c, 0, 72, 110
2, 37728, Note_on_c, 0, 72, 0
2, 37740, Note_on_c, 0, 77, 110
2, 37788, Note_on_c, 0, 77, 0
2, 37800, Note_on_c, 0, 77, 110
2, 37848, Note_on_c, 0, 77, 0
2, 37860, Note_on_c, 0, 76, 110
2, 37908, Note_on_c, 0, 76, 0
2, 37920, Note_on_c, 0, 76, 110
2, 37968, Note_on_c, 0, 76, 0
2, 37980, Note_on_c, 0, 81, 110
2, 38028, Note_on_c, 0, 81, 0
2, 38040, Note_on_c, 0, 72, 107
2, 38040, Note_on_c, 0, 81, 110
2, 38088, Note_on_c, 0, 81, 0
2, 38100, Note_on_c, 0, 79, 110
2, 38136, Note_on_c, 0, 72, 0
2, 38148, Note_on_c, 0, 79, 0
2, 38160, Note_on_c, 0, 79, 110
2, 38160, Note_on_c, 0, 77, 107
2, 38208, Note_on_c, 0, 79, 0
2, 38220, Note_on_c, 0, 82, 110
2, 38256, Note_on_c, 0, 77, 0
2, 38268, Note_on_c, 0, 82, 0
2, 38280, Note_on_c, 0, 76, 107
2, 38280, Note_on_c, 0, 82, 110
2, 38328, Note_on_c, 0, 82, 0
2, 38340, Note_on_c, 0, 81, 110
2, 38376, Note_on_c, 0, 76, 0
2, 38388, Note_on_c, 0, 81, 0
2, 38400, Note_on_c, 0, 81, 110
2, 38400, Note_on_c, 0, 74, 107
2, 38448, Note_on_c, 0, 81, 0
2, 38460, Note_on_c, 0, 80, 110
2, 38496, Note_on_c, 0, 74, 0
2, 38508, Note_on_c, 0, 80, 0
2, 38520, Note_on_c, 0, 80, 110
2, 38520, Note_on_c, 0, 72, 107
2, 38568, Note_on_c, 0, 80, 0
2, 38580, Note_on_c, 0, 81, 110
2, 38616, Note_on_c, 0, 72, 0
2, 38628, Note_on_c, 0, 81, 0
2, 38640, Note_on_c, 0, 71, 107
2, 38640, Note_on_c, 0, 81, 110
2, 38688, Note_on_c, 0, 81, 0
2, 38700, Note_on_c, 0, 77, 110
2, 38736, Note_on_c, 0, 71, 0
2, 38748, Note_on_c, 0, 77, 0
2, 38760, Note_on_c, 0, 72, 107
2, 38760, Note_on_c, 0, 77, 110
2, 38808, Note_on_c, 0, 77, 0
2, 38820, Note_on_c, 0, 76, 110
2, 38856, Note_on_c, 0, 72, 0
2, 38868, Note_on_c, 0, 76, 0
2, 38880, Note_on_c, 0, 76, 110
2, 38880, Note_on_c, 0, 69, 107
2, 38928, Note_on_c, 0, 76, 0
2, 38940, Note_on_c, 0, 75, 110
2, 38988, Note_on_c, 0, 75, 0
2, 39000, Note_on_c, 0, 75, 110
2, 39048, Note_on_c, 0, 75, 0
2, 39060, Note_on_c, 0, 76, 110
2, 39072, Note_on_c, 0, 69, 0
2, 39108, Note_on_c, 0, 76, 0
2, 39120, Note_on_c, 0, 76, 110
2, 39144, Note_on_c, 0, 76, 0
2, 39150, Note_on_c, 0, 74, 110
2, 39222, Note_on_c, 0, 74, 0
2, 39240, Note_on_c, 0, 72, 110
2, 39336, Note_on_c, 0, 72, 0
2, 39360, Note_on_c, 0, 62, 107
2, 39360, Note_on_c, 0, 68, 107
2, 39360, Note_on_c, 0, 71, 110
2, 39372, Note_on_c, 0, 71, 0
2, 39375, Note_on_c, 0, 72, 110
2, 39387, Note_on_c, 0, 72, 0
2, 39390, Note_on_c, 0, 71, 110
2, 39468, Note_on_c, 0, 71, 0
2, 39480, Note_on_c, 0, 69, 110
2, 39552, Note_on_c, 0, 68, 0
2, 39552, Note_on_c, 0, 62, 0
2, 39576, Note_on_c, 0, 69, 0
2, 39600, Note_on_c, 0, 69, 107
2, 39600, Note_on_c, 0, 64, 107
2, 39600, Note_on_c, 0, 60, 107
2, 39792, Note_on_c, 0, 60, 0
2, 39792, Note_on_c, 0, 64, 0
2, 39792, Note_on_c, 0, 69, 0
2, 39840, Note_on_c, 0, 60, 107
2, 39840, Note_on_c, 0, 64, 107
2, 39840, Note_on_c, 0, 69, 107
2, 40224, Note_on_c, 0, 69, 0
2, 40224, Note_on_c, 0, 64, 0
2, 40224, Note_on_c, 0, 60, 0
2, 40224, End_track
3, 0, Start_track
3, 0, MIDI_port, 0
3, 0, Title_t, "J.S. Bach, Edition Wood"
3, 0, Program_c, 1, 0
3, 0, Control_c, 1, 7, 100
3, 0, Control_c, 1, 10, 64
3, 0, Note_on_c, 1, 57, 107
3, 192, Note_on_c, 1, 57, 0
3, 240, Note_on_c, 1, 50, 107
3, 432, Note_on_c, 1, 50, 0
3, 480, Note_on_c, 1, 52, 107
3, 672, Note_on_c, 1, 52, 0
3, 720, Note_on_c, 1, 53, 107
3, 720, Note_on_c, 1, 57, 107
3, 912, Note_on_c, 1, 57, 0
3, 912, Note_on_c, 1, 53, 0
3, 960, Note_on_c, 1, 52, 107
3, 960, Note_on_c, 1, 57, 107
3, 1056, Note_on_c, 1, 52, 0
3, 1080, Note_on_c, 1, 50, 107
3, 1176, Note_on_c, 1, 50, 0
3, 1200, Note_on_c, 1, 48, 107
3, 1296, Note_on_c, 1, 48, 0
3, 1320, Note_on_c, 1, 47, 107
3, 1344, Note_on_c, 1, 57, 0
3, 1416, Note_on_c, 1, 47, 0
3, 1440, Note_on_c, 1, 48, 107
3, 1455, Note_on_c, 1, 52, 107
3, 1470, Note_on_c, 1, 57, 107
3, 1644, Note_on_c, 1, 57, 0
3, 1644, Note_on_c, 1, 52, 0
3, 1665, Note_on_c, 1, 48, 0
3, 1680, Note_on_c, 1, 50, 107
3, 1680, Note_on_c, 1, 57, 107
3, 1872, Note_on_c, 1, 57, 0
3, 1872, Note_on_c, 1, 50, 0
3, 1920, Note_on_c, 1, 52, 107
3, 2112, Note_on_c, 1, 52, 0
3, 2160, Note_on_c, 1, 45, 107
3, 2352, Note_on_c, 1, 45, 0
3, 2400, Note_on_c, 1, 48, 107
3, 2592, Note_on_c, 1, 48, 0
3, 2640, Note_on_c, 1, 52, 107
3, 2880, Note_on_c, 1, 52, 0
3, 2880, Note_on_c, 1, 57, 107
3, 3072, Note_on_c, 1, 57, 0
3, 3120, Note_on_c, 1, 45, 107
3, 3312, Note_on_c, 1, 45, 0
3, 3600, Note_on_c, 1, 59, 107
3, 3792, Note_on_c, 1, 59, 0
3, 3840, Note_on_c, 1, 47, 107
3, 4032, Note_on_c, 1, 47, 0
3, 4320, Note_on_c, 1, 60, 107
3, 4416, Note_on_c, 1, 60, 0
3, 4440, Note_on_c, 1, 59, 107
3, 4536, Note_on_c, 1, 59, 0
3, 4560, Note_on_c, 1, 57, 107
3, 4656, Note_on_c, 1, 57, 0
3, 4680, Note_on_c, 1, 55, 107
3, 4776, Note_on_c, 1, 55, 0
3, 4800, Note_on_c, 1, 53, 107
3, 4913, Note_on_c, 1, 53, 0
3, 5040, Note_on_c, 1, 53, 107
3, 5136, Note_on_c, 1, 53, 0
3, 5160, Note_on_c, 1, 52, 107
3, 5256, Note_on_c, 1, 52, 0
3, 5280, Note_on_c, 1, 55, 107
3, 5376, Note_on_c, 1, 55, 0
3, 5400, Note_on_c, 1, 53, 107
3, 5496, Note_on_c, 1, 53, 0
3, 5520, Note_on_c, 1, 52, 107
3, 5616, Note_on_c, 1, 52, 0
3, 5640, Note_on_c, 1, 50, 107
3, 5736, Note_on_c, 1, 50, 0
3, 5760, Note_on_c, 1, 52, 107
3, 6144, Note_on_c, 1, 52, 0
3, 6480, Note_on_c, 1, 53, 107
3, 6864, Note_on_c, 1, 53, 0
3, 6960, Note_on_c, 1, 54, 107
3, 7152, Note_on_c, 1, 54, 0
3, 7440, Note_on_c, 1, 55, 107
3, 7632, Note_on_c, 1, 55, 0
3, 7680, Note_on_c, 1, 43, 107
3, 7872, Note_on_c, 1, 43, 0
3, 7920, Note_on_c, 1, 48, 107
3, 8112, Note_on_c, 1, 48, 0
3, 8160, Note_on_c, 1, 36, 107
3, 8544, Note_on_c, 1, 36, 0
3, 8640, Note_on_c, 1, 57, 107
3, 8832, Note_on_c, 1, 57, 0
3, 8880, Note_on_c, 1, 50, 107
3, 9072, Note_on_c, 1, 50, 0
3, 9120, Note_on_c, 1, 52, 107
3, 9312, Note_on_c, 1, 52, 0
3, 9360, Note_on_c, 1, 53, 107
3, 9360, Note_on_c, 1, 57, 107
3, 9552, Note_on_c, 1, 57, 0
3, 9552, Note_on_c, 1, 53, 0
3, 9600, Note_on_c, 1, 52, 107
3, 9600, Note_on_c, 1, 57, 107
3, 9696, Note_on_c, 1, 52, 0
3, 9720, Note_on_c, 1, 50, 107
3, 9816, Note_on_c, 1, 50, 0
3, 9840, Note_on_c, 1, 48, 107
3, 9936, Note_on_c, 1, 48, 0
3, 9960, Note_on_c, 1, 47, 107
3, 9984, Note_on_c, 1, 57, 0
3, 10056, Note_on_c, 1, 47, 0
3, 10080, Note_on_c, 1, 48, 107
3, 10095, Note_on_c, 1, 52, 107
3, 10110, Note_on_c, 1, 57, 107
3, 10284, Note_on_c, 1, 57, 0
3, 10284, Note_on_c, 1, 52, 0
3, 10305, Note_on_c, 1, 48, 0
3, 10320, Note_on_c, 1, 50, 107
3, 10320, Note_on_c, 1, 57, 107
3, 10512, Note_on_c, 1, 57, 0
3, 10512, Note_on_c, 1, 50, 0
3, 10560, Note_on_c, 1, 52, 107
3, 10752, Note_on_c, 1, 52, 0
3, 10800, Note_on_c, 1, 45, 107
3, 10992, Note_on_c, 1, 45, 0
3, 11040, Note_on_c, 1, 48, 107
3, 11232, Note_on_c, 1, 48, 0
3, 11280, Note_on_c, 1, 52, 107
3, 11520, Note_on_c, 1, 52, 0
3, 11520, Note_on_c, 1, 57, 107
3, 11712, Note_on_c, 1, 57, 0
3, 11760, Note_on_c, 1, 45, 107
3, 11952, Note_on_c, 1, 45, 0
3, 12240, Note_on_c, 1, 59, 107
3, 12432, Note_on_c, 1, 59, 0
3, 12480, Note_on_c, 1, 47, 107
3, 12672, Note_on_c, 1, 47, 0
3, 12960, Note_on_c, 1, 60, 107
3, 13056, Note_on_c, 1, 60, 0
3, 13080, Note_on_c, 1, 59, 107
3, 13176, Note_on_c, 1, 59, 0
3, 13200, Note_on_c, 1, 57, 107
3, 13296, Note_on_c, 1, 57, 0
3, 13320, Note_on_c, 1, 55, 107
3, 13416, Note_on_c, 1, 55, 0
3, 13440, Note_on_c, 1, 53, 107
3, 13553, Note_on_c, 1, 53, 0
3, 13680, Note_on_c, 1, 53, 107
3, 13776, Note_on_c, 1, 53, 0
3, 13800, Note_on_c, 1, 52, 107
3, 13896, Note_on_c, 1, 52, 0
3, 13920, Note_on_c, 1, 55, 107
3, 14016, Note_on_c, 1, 55, 0
3, 14040, Note_on_c, 1, 53, 107
3, 14136, Note_on_c, 1, 53, 0
3, 14160, Note_on_c, 1, 52, 107
3, 14256, Note_on_c, 1, 52, 0
3, 14280, Note_on_c, 1, 50, 107
3, 14376, Note_on_c, 1, 50, 0
3, 14400, Note_on_c, 1, 52, 107
3, 14784, Note_on_c, 1, 52, 0
3, 15120, Note_on_c, 1, 53, 107
3, 15504, Note_on_c, 1, 53, 0
3, 15600, Note_on_c, 1, 54, 107
3, 15792, Note_on_c, 1, 54, 0
3, 16080, Note_on_c, 1, 55, 107
3, 16272, Note_on_c, 1, 55, 0
3, 16320, Note_on_c, 1, 43, 107
3, 16512, Note_on_c, 1, 43, 0
3, 16560, Note_on_c, 1, 48, 107
3, 16752, Note_on_c, 1, 48, 0
3, 16800, Note_on_c, 1, 36, 107
3, 17184, Note_on_c, 1, 36, 0
3, 17280, Note_on_c, 1, 48, 107
3, 17280, Note_on_c, 1, 60, 107
3, 17376, Note_on_c, 1, 48, 0
3, 17400, Note_on_c, 1, 52, 107
3, 17472, Note_on_c, 1, 60, 0
3, 17496, Note_on_c, 1, 52, 0
3, 17520, Note_on_c, 1, 55, 107
3, 17520, Note_on_c, 1, 60, 107
3, 17712, Note_on_c, 1, 60, 0
3, 17712, Note_on_c, 1, 55, 0
3, 17760, Note_on_c, 1, 55, 107
3, 17760, Note_on_c, 1, 43, 107
3, 17952, Note_on_c, 1, 43, 0
3, 17952, Note_on_c, 1, 55, 0
3, 18000, Note_on_c, 1, 55, 107
3, 18000, Note_on_c, 1, 48, 107
3, 18192, Note_on_c, 1, 48, 0
3, 18192, Note_on_c, 1, 55, 0
3, 18240, Note_on_c, 1, 48, 107
3, 18240, Note_on_c, 1, 55, 107
3, 18336, Note_on_c, 1, 48, 0
3, 18360, Note_on_c, 1, 47, 107
3, 18456, Note_on_c, 1, 47, 0
3, 18480, Note_on_c, 1, 45, 107
3, 18576, Note_on_c, 1, 45, 0
3, 18600, Note_on_c, 1, 43, 107
3, 18624, Note_on_c, 1, 55, 0
3, 18696, Note_on_c, 1, 43, 0
3, 18720, Note_on_c, 1, 42, 107
3, 18912, Note_on_c, 1, 42, 0
3, 18960, Note_on_c, 1, 43, 107
3, 19152, Note_on_c, 1, 43, 0
3, 19200, Note_on_c, 1, 52, 107
3, 19392, Note_on_c, 1, 52, 0
3, 19440, Note_on_c, 1, 59, 107
3, 19440, Note_on_c, 1, 47, 107
3, 19536, Note_on_c, 1, 59, 0
3, 19560, Note_on_c, 1, 61, 107
3, 19632, Note_on_c, 1, 47, 0
3, 19656, Note_on_c, 1, 61, 0
3, 19680, Note_on_c, 1, 59, 107
3, 19680, Note_on_c, 1, 63, 107
3, 19776, Note_on_c, 1, 59, 0
3, 19800, Note_on_c, 1, 57, 107
3, 19872, Note_on_c, 1, 63, 0
3, 19896, Note_on_c, 1, 57, 0
3, 19920, Note_on_c, 1, 55, 107
3, 20016, Note_on_c, 1, 55, 0
3, 20040, Note_on_c, 1, 54, 107
3, 20136, Note_on_c, 1, 54, 0
3, 20160, Note_on_c, 1, 52, 107
3, 20352, Note_on_c, 1, 52, 0
3, 20400, Note_on_c, 1, 64, 107
3, 20592, Note_on_c, 1, 64, 0
3, 20760, Note_on_c, 1, 52, 107
3, 20856, Note_on_c, 1, 52, 0
3, 20880, Note_on_c, 1, 51, 107
3, 21072, Note_on_c, 1, 51, 0
3, 21120, Note_on_c, 1, 63, 107
3, 21312, Note_on_c, 1, 63, 0
3, 21480, Note_on_c, 1, 50, 107
3, 21576, Note_on_c, 1, 50, 0
3, 21600, Note_on_c, 1, 48, 107
3, 21792, Note_on_c, 1, 48, 0
3, 21840, Note_on_c, 1, 43, 107
3, 22032, Note_on_c, 1, 43, 0
3, 22080, Note_on_c, 1, 47, 107
3, 22272, Note_on_c, 1, 47, 0
3, 22320, Note_on_c, 1, 40, 107
3, 22512, Note_on_c, 1, 40, 0
3, 22560, Note_on_c, 1, 43, 107
3, 22752, Note_on_c, 1, 43, 0
3, 22800, Note_on_c, 1, 47, 107
3, 22992, Note_on_c, 1, 47, 0
3, 23040, Note_on_c, 1, 52, 107
3, 23232, Note_on_c, 1, 52, 0
3, 23280, Note_on_c, 1, 53, 107
3, 23472, Note_on_c, 1, 53, 0
3, 23520, Note_on_c, 1, 55, 107
3, 23712, Note_on_c, 1, 55, 0
3, 23760, Note_on_c, 1, 57, 107
3, 23952, Note_on_c, 1, 57, 0
3, 24480, Note_on_c, 1, 50, 107
3, 24480, Note_on_c, 1, 62, 107
3, 24672, Note_on_c, 1, 62, 0
3, 24672, Note_on_c, 1, 50, 0
3, 24720, Note_on_c, 1, 52, 107
3, 24912, Note_on_c, 1, 52, 0
3, 24960, Note_on_c, 1, 53, 107
3, 25152, Note_on_c, 1, 53, 0
3, 25200, Note_on_c, 1, 55, 107
3, 25392, Note_on_c, 1, 55, 0
3, 25920, Note_on_c, 1, 60, 107
3, 26016, Note_on_c, 1, 60, 0
3, 26040, Note_on_c, 1, 59, 107
3, 26136, Note_on_c, 1, 59, 0
3, 26160, Note_on_c, 1, 57, 107
3, 26256, Note_on_c, 1, 57, 0
3, 26280, Note_on_c, 1, 55, 107
3, 26376, Note_on_c, 1, 55, 0
3, 26400, Note_on_c, 1, 53, 107
3, 26496, Note_on_c, 1, 53, 0
3, 26520, Note_on_c, 1, 52, 107
3, 26616, Note_on_c, 1, 52, 0
3, 26640, Note_on_c, 1, 50, 107
3, 26736, Note_on_c, 1, 50, 0
3, 26760, Note_on_c, 1, 48, 107
3, 26856, Note_on_c, 1, 48, 0
3, 26880, Note_on_c, 1, 47, 107
3, 26976, Note_on_c, 1, 47, 0
3, 27000, Note_on_c, 1, 45, 107
3, 27096, Note_on_c, 1, 45, 0
3, 27120, Note_on_c, 1, 44, 107
3, 27216, Note_on_c, 1, 44, 0
3, 27240, Note_on_c, 1, 45, 107
3, 27336, Note_on_c, 1, 45, 0
3, 27360, Note_on_c, 1, 42, 107
3, 27552, Note_on_c, 1, 42, 0
3, 27600, Note_on_c, 1, 40, 107
3, 27792, Note_on_c, 1, 40, 0
3, 27840, Note_on_c, 1, 52, 107
3, 28032, Note_on_c, 1, 52, 0
3, 28080, Note_on_c, 1, 45, 107
3, 28176, Note_on_c, 1, 45, 0
3, 28200, Note_on_c, 1, 48, 107
3, 28248, Note_on_c, 1, 48, 0
3, 28260, Note_on_c, 1, 52, 107
3, 28308, Note_on_c, 1, 52, 0
3, 28320, Note_on_c, 1, 57, 107
3, 28704, Note_on_c, 1, 57, 0
3, 28800, Note_on_c, 1, 48, 107
3, 28800, Note_on_c, 1, 60, 107
3, 28896, Note_on_c, 1, 48, 0
3, 28920, Note_on_c, 1, 52, 107
3, 28992, Note_on_c, 1, 60, 0
3, 29016, Note_on_c, 1, 52, 0
3, 29040, Note_on_c, 1, 55, 107
3, 29040, Note_on_c, 1, 60, 107
3, 29232, Note_on_c, 1, 60, 0
3, 29232, Note_on_c, 1, 55, 0
3, 29280, Note_on_c, 1, 55, 107
3, 29280, Note_on_c, 1, 43, 107
3, 29472, Note_on_c, 1, 43, 0
3, 29472, Note_on_c, 1, 55, 0
3, 29520, Note_on_c, 1, 55, 107
3, 29520, Note_on_c, 1, 48, 107
3, 29712, Note_on_c, 1, 48, 0
3, 29712, Note_on_c, 1, 55, 0
3, 29760, Note_on_c, 1, 48, 107
3, 29760, Note_on_c, 1, 55, 107
3, 29856, Note_on_c, 1, 48, 0
3, 29880, Note_on_c, 1, 47, 107
3, 29976, Note_on_c, 1, 47, 0
3, 30000, Note_on_c, 1, 45, 107
3, 30096, Note_on_c, 1, 45, 0
3, 30120, Note_on_c, 1, 43, 107
3, 30144, Note_on_c, 1, 55, 0
3, 30216, Note_on_c, 1, 43, 0
3, 30240, Note_on_c, 1, 42, 107
3, 30432, Note_on_c, 1, 42, 0
3, 30480, Note_on_c, 1, 43, 107
3, 30672, Note_on_c, 1, 43, 0
3, 30720, Note_on_c, 1, 52, 107
3, 30912, Note_on_c, 1, 52, 0
3, 30960, Note_on_c, 1, 59, 107
3, 30960, Note_on_c, 1, 47, 107
3, 31056, Note_on_c, 1, 59, 0
3, 31080, Note_on_c, 1, 61, 107
3, 31152, Note_on_c, 1, 47, 0
3, 31176, Note_on_c, 1, 61, 0
3, 31200, Note_on_c, 1, 59, 107
3, 31200, Note_on_c, 1, 63, 107
3, 31296, Note_on_c, 1, 59, 0
3, 31320, Note_on_c, 1, 57, 107
3, 31392, Note_on_c, 1, 63, 0
3, 31416, Note_on_c, 1, 57, 0
3, 31440, Note_on_c, 1, 55, 107
3, 31536, Note_on_c, 1, 55, 0
3, 31560, Note_on_c, 1, 54, 107
3, 31656, Note_on_c, 1, 54, 0
3, 31680, Note_on_c, 1, 52, 107
3, 31872, Note_on_c, 1, 52, 0
3, 31920, Note_on_c, 1, 64, 107
3, 32112, Note_on_c, 1, 64, 0
3, 32280, Note_on_c, 1, 52, 107
3, 32376, Note_on_c, 1, 52, 0
3, 32400, Note_on_c, 1, 51, 107
3, 32592, Note_on_c, 1, 51, 0
3, 32640, Note_on_c, 1, 63, 107
3, 32832, Note_on_c, 1, 63, 0
3, 33000, Note_on_c, 1, 50, 107
3, 33096, Note_on_c, 1, 50, 0
3, 33120, Note_on_c, 1, 48, 107
3, 33312, Note_on_c, 1, 48, 0
3, 33360, Note_on_c, 1, 43, 107
3, 33552, Note_on_c, 1, 43, 0
3, 33600, Note_on_c, 1, 47, 107
3, 33792, Note_on_c, 1, 47, 0
3, 33840, Note_on_c, 1, 40, 107
3, 34032, Note_on_c, 1, 40, 0
3, 34080, Note_on_c, 1, 43, 107
3, 34272, Note_on_c, 1, 43, 0
3, 34320, Note_on_c, 1, 47, 107
3, 34512, Note_on_c, 1, 47, 0
3, 34560, Note_on_c, 1, 52, 107
3, 34752, Note_on_c, 1, 52, 0
3, 34800, Note_on_c, 1, 53, 107
3, 34992, Note_on_c, 1, 53, 0
3, 35040, Note_on_c, 1, 55, 107
3, 35232, Note_on_c, 1, 55, 0
3, 35280, Note_on_c, 1, 57, 107
3, 35472, Note_on_c, 1, 57, 0
3, 36000, Note_on_c, 1, 50, 107
3, 36000, Note_on_c, 1, 62, 107
3, 36192, Note_on_c, 1, 62, 0
3, 36192, Note_on_c, 1, 50, 0
3, 36240, Note_on_c, 1, 52, 107
3, 36432, Note_on_c, 1, 52, 0
3, 36480, Note_on_c, 1, 53, 107
3, 36672, Note_on_c, 1, 53, 0
3, 36720, Note_on_c, 1, 55, 107
3, 36912, Note_on_c, 1, 55, 0
3, 37440, Note_on_c, 1, 60, 107
3, 37536, Note_on_c, 1, 60, 0
3, 37560, Note_on_c, 1, 59, 107
3, 37656, Note_on_c, 1, 59, 0
3, 37680, Note_on_c, 1, 57, 107
3, 37776, Note_on_c, 1, 57, 0
3, 37800, Note_on_c, 1, 55, 107
3, 37896, Note_on_c, 1, 55, 0
3, 37920, Note_on_c, 1, 53, 107
3, 38016, Note_on_c, 1, 53, 0
3, 38040, Note_on_c, 1, 52, 107
3, 38136, Note_on_c, 1, 52, 0
3, 38160, Note_on_c, 1, 50, 107
3, 38256, Note_on_c, 1, 50, 0
3, 38280, Note_on_c, 1, 48, 107
3, 38376, Note_on_c, 1, 48, 0
3, 38400, Note_on_c, 1, 47, 107
3, 38496, Note_on_c, 1, 47, 0
3, 38520, Note_on_c, 1, 45, 107
3, 38616, Note_on_c, 1, 45, 0
3, 38640, Note_on_c, 1, 44, 107
3, 38736, Note_on_c, 1, 44, 0
3, 38760, Note_on_c, 1, 45, 107
3, 38856, Note_on_c, 1, 45, 0
3, 38880, Note_on_c, 1, 42, 107
3, 39072, Note_on_c, 1, 42, 0
3, 39120, Note_on_c, 1, 40, 107
3, 39312, Note_on_c, 1, 40, 0
3, 39360, Note_on_c, 1, 52, 107
3, 39552, Note_on_c, 1, 52, 0
3, 39600, Note_on_c, 1, 45, 107
3, 39696, Note_on_c, 1, 45, 0
3, 39720, Note_on_c, 1, 48, 107
3, 39768, Note_on_c, 1, 48, 0
3, 39780, Note_on_c, 1, 52, 107
3, 39828, Note_on_c, 1, 52, 0
3, 39840, Note_on_c, 1, 57, 107
3, 40224, Note_on_c, 1, 57, 0
3, 40224, End_track
4, 0, Start_track
4, 0, MIDI_port, 0
4, 0, Title_t, "Arr. Gary Bricault, (c) 1997"
4, 0, End_track
0, 0, End_of_file
