0, 0, Header, 1, 4, 240
1, 0, Start_track
1, 0, Time_signature, 3, 2, 24, 8
1, 0, Tempo, 909091
1, 5760, Time_signature, 3, 2, 24, 8
1, 5760, End_track
2, 0, Start_track
2, 0, Title_t, "English Suite 3, 4b. Saraband B"
2, 0, Program_c, 0, 0
2, 45, Note_on_c, 0, 62, 107
2, 60, Note_on_c, 0, 67, 107
2, 75, Note_on_c, 0, 70, 107
2, 104, Note_off_c, 0, 70, 64
2, 117, Note_off_c, 0, 62, 64
2, 120, Note_on_c, 0, 60, 107
2, 120, Note_on_c, 0, 69, 107
2, 204, Note_off_c, 0, 67, 64
2, 216, Note_off_c, 0, 69, 64
2, 216, Note_off_c, 0, 60, 64
2, 240, Note_on_c, 0, 60, 107
2, 240, Note_on_c, 0, 69, 107
2, 264, Note_off_c, 0, 69, 64
2, 270, Note_on_c, 0, 67, 107
2, 294, Note_off_c, 0, 67, 64
2, 300, Note_on_c, 0, 69, 107
2, 504, Note_off_c, 0, 69, 64
2, 510, Note_on_c, 0, 72, 107
2, 534, Note_off_c, 0, 72, 64
2, 540, Note_on_c, 0, 70, 107
2, 564, Note_off_c, 0, 70, 64
2, 570, Note_on_c, 0, 69, 107
2, 594, Note_off_c, 0, 69, 64
2, 600, Note_on_c, 0, 72, 107
2, 624, Note_off_c, 0, 72, 64
2, 630, Note_on_c, 0, 70, 107
2, 654, Note_off_c, 0, 70, 64
2, 660, Note_on_c, 0, 74, 107
2, 684, Note_off_c, 0, 74, 64
2, 690, Note_on_c, 0, 72, 107
2, 714, Note_off_c, 0, 72, 64
2, 720, Note_on_c, 0, 72, 107
2, 816, Note_off_c, 0, 72, 64
2, 840, Note_on_c, 0, 70, 107
2, 897, Note_off_c, 0, 70, 64
2, 900, Note_on_c, 0, 69, 107
2, 912, Note_off_c, 0, 60, 64
2, 948, Note_off_c, 0, 69, 64
2, 960, Note_on_c, 0, 60, 107
2, 960, Note_on_c, 0, 67, 107
2, 1185, Note_off_c, 0, 67, 64
2, 1200, Note_on_c, 0, 67, 107
2, 1224, Note_off_c, 0, 67, 64
2, 1230, Note_on_c, 0, 66, 107
2, 1254, Note_off_c, 0, 66, 64
2, 1260, Note_on_c, 0, 67, 107
2, 1284, Note_off_c, 0, 67, 64
2, 1290, Note_on_c, 0, 66, 107
2, 1377, Note_off_c, 0, 66, 64
2, 1380, Note_on_c, 0, 69, 107
2, 1409, Note_off_c, 0, 69, 64
2, 1410, Note_on_c, 0, 67, 107
2, 1439, Note_off_c, 0, 67, 64
2, 1440, Note_on_c, 0, 67, 107
2, 1488, Note_off_c, 0, 67, 64
2, 1500, Note_on_c, 0, 69, 107
2, 1557, Note_off_c, 0, 69, 64
2, 1560, Note_on_c, 0, 63, 107
2, 1632, Note_off_c, 0, 60, 64
2, 1656, Note_off_c, 0, 63, 64
2, 1680, Note_on_c, 0, 63, 107
2, 1824, Note_off_c, 0, 63, 64
2, 1830, Note_on_c, 0, 62, 107
2, 1854, Note_off_c, 0, 62, 64
2, 1860, Note_on_c, 0, 60, 107
2, 1884, Note_off_c, 0, 60, 64
2, 1890, Note_on_c, 0, 62, 107
2, 1914, Note_off_c, 0, 62, 64
2, 1920, Note_on_c, 0, 63, 107
2, 1935, Note_off_c, 0, 63, 64
2, 1935, Note_on_c, 0, 62, 107
2, 1950, Note_off_c, 0, 62, 64
2, 1950, Note_on_c, 0, 60, 107
2, 1965, Note_off_c, 0, 60, 64
2, 1965, Note_on_c, 0, 62, 107
2, 1980, Note_off_c, 0, 62, 64
2, 1980, Note_on_c, 0, 63, 107
2, 1995, Note_off_c, 0, 63, 64
2, 1995, Note_on_c, 0, 62, 107
2, 2010, Note_off_c, 0, 62, 64
2, 2010, Note_on_c, 0, 63, 107
2, 2022, Note_off_c, 0, 63, 64
2, 2025, Note_on_c, 0, 62, 107
2, 2037, Note_off_c, 0, 62, 64
2, 2040, Note_on_c, 0, 63, 107
2, 2052, Note_off_c, 0, 63, 64
2, 2055, Note_on_c, 0, 62, 107
2, 2067, Note_off_c, 0, 62, 64
2, 2070, Note_on_c, 0, 63, 107
2, 2082, Note_off_c, 0, 63, 64
2, 2085, Note_on_c, 0, 62, 107
2, 2097, Note_off_c, 0, 62, 64
2, 2100, Note_on_c, 0, 63, 107
2, 2124, Note_off_c, 0, 63, 64
2, 2130, Note_on_c, 0, 60, 107
2, 2154, Note_off_c, 0, 60, 64
2, 2160, Note_on_c, 0, 60, 107
2, 2175, Note_off_c, 0, 60, 64
2, 2175, Note_on_c, 0, 58, 107
2, 2190, Note_off_c, 0, 58, 64
2, 2190, Note_on_c, 0, 60, 107
2, 2205, Note_off_c, 0, 60, 64
2, 2205, Note_on_c, 0, 58, 107
2, 2220, Note_off_c, 0, 58, 64
2, 2220, Note_on_c, 0, 60, 107
2, 2235, Note_off_c, 0, 60, 64
2, 2235, Note_on_c, 0, 58, 107
2, 2250, Note_off_c, 0, 58, 64
2, 2250, Note_on_c, 0, 60, 107
2, 2265, Note_off_c, 0, 60, 64
2, 2265, Note_on_c, 0, 58, 107
2, 2280, Note_off_c, 0, 58, 64
2, 2280, Note_on_c, 0, 60, 107
2, 2295, Note_off_c, 0, 60, 64
2, 2295, Note_on_c, 0, 58, 107
2, 2310, Note_off_c, 0, 58, 64
2, 2310, Note_on_c, 0, 60, 107
2, 2325, Note_off_c, 0, 60, 64
2, 2325, Note_on_c, 0, 58, 107
2, 2340, Note_off_c, 0, 58, 64
2, 2340, Note_on_c, 0, 60, 107
2, 2352, Note_off_c, 0, 60, 64
2, 2355, Note_on_c, 0, 58, 107
2, 2367, Note_off_c, 0, 58, 64
2, 2370, Note_on_c, 0, 60, 107
2, 2382, Note_off_c, 0, 60, 64
2, 2385, Note_on_c, 0, 58, 107
2, 2397, Note_off_c, 0, 58, 64
2, 2400, Note_on_c, 0, 60, 107
2, 2412, Note_off_c, 0, 60, 64
2, 2415, Note_on_c, 0, 58, 107
2, 2427, Note_off_c, 0, 58, 64
2, 2430, Note_on_c, 0, 60, 107
2, 2442, Note_off_c, 0, 60, 64
2, 2445, Note_on_c, 0, 58, 107
2, 2457, Note_off_c, 0, 58, 64
2, 2460, Note_on_c, 0, 60, 107
2, 2472, Note_off_c, 0, 60, 64
2, 2475, Note_on_c, 0, 58, 107
2, 2487, Note_off_c, 0, 58, 64
2, 2490, Note_on_c, 0, 60, 107
2, 2502, Note_off_c, 0, 60, 64
2, 2505, Note_on_c, 0, 58, 107
2, 2517, Note_off_c, 0, 58, 64
2, 2520, Note_on_c, 0, 57, 107
2, 2616, Note_off_c, 0, 57, 64
2, 2640, Note_on_c, 0, 57, 107
2, 2760, Note_off_c, 0, 57, 64
2, 2760, Note_on_c, 0, 55, 107
2, 2880, Note_on_c, 0, 62, 107
2, 2880, Note_on_c, 0, 58, 107
2, 2952, Note_off_c, 0, 55, 64
2, 2976, Note_off_c, 0, 62, 64
2, 3000, Note_on_c, 0, 65, 107
2, 3048, Note_off_c, 0, 65, 64
2, 3060, Note_on_c, 0, 64, 107
2, 3072, Note_off_c, 0, 58, 64
2, 3108, Note_off_c, 0, 64, 64
2, 3120, Note_on_c, 0, 64, 107
2, 3120, Note_on_c, 0, 59, 107
2, 3177, Note_off_c, 0, 64, 64
2, 3180, Note_on_c, 0, 65, 107
2, 3209, Note_off_c, 0, 65, 64
2, 3210, Note_on_c, 0, 64, 107
2, 3234, Note_off_c, 0, 64, 64
2, 3240, Note_on_c, 0, 65, 107
2, 3492, Note_off_c, 0, 65, 64
2, 3504, Note_off_c, 0, 59, 64
2, 3540, Note_on_c, 0, 62, 107
2, 3600, Note_on_c, 0, 60, 107
2, 3600, Note_on_c, 0, 65, 107
2, 3636, Note_off_c, 0, 62, 64
2, 3648, Note_off_c, 0, 65, 64
2, 3660, Note_on_c, 0, 64, 107
2, 3717, Note_off_c, 0, 64, 64
2, 3720, Note_on_c, 0, 67, 107
2, 3768, Note_off_c, 0, 67, 64
2, 3780, Note_on_c, 0, 66, 107
2, 3792, Note_off_c, 0, 60, 64
2, 3828, Note_off_c, 0, 66, 64
2, 3840, Note_on_c, 0, 66, 107
2, 3840, Note_on_c, 0, 60, 107
2, 3897, Note_off_c, 0, 66, 64
2, 3900, Note_on_c, 0, 67, 107
2, 3924, Note_off_c, 0, 67, 64
2, 3930, Note_on_c, 0, 66, 107
2, 3954, Note_off_c, 0, 66, 64
2, 3960, Note_on_c, 0, 67, 107
2, 4245, Note_off_c, 0, 67, 64
2, 4260, Note_on_c, 0, 69, 107
2, 4320, Note_on_c, 0, 67, 107
2, 4341, Note_off_c, 0, 67, 64
2, 4350, Note_on_c, 0, 66, 107
2, 4356, Note_off_c, 0, 69, 64
2, 4379, Note_off_c, 0, 66, 64
2, 4380, Note_on_c, 0, 67, 107
2, 4428, Note_off_c, 0, 67, 64
2, 4440, Note_on_c, 0, 66, 107
2, 4488, Note_off_c, 0, 66, 64
2, 4500, Note_on_c, 0, 67, 107
2, 4512, Note_off_c, 0, 60, 64
2, 4548, Note_off_c, 0, 67, 64
2, 4560, Note_on_c, 0, 61, 107
2, 4560, Note_on_c, 0, 69, 107
2, 4589, Note_off_c, 0, 69, 64
2, 4590, Note_on_c, 0, 67, 107
2, 4619, Note_off_c, 0, 67, 64
2, 4620, Note_on_c, 0, 66, 107
2, 4649, Note_off_c, 0, 66, 64
2, 4650, Note_on_c, 0, 67, 107
2, 4679, Note_off_c, 0, 67, 64
2, 4680, Note_on_c, 0, 69, 107
2, 4695, Note_off_c, 0, 69, 64
2, 4695, Note_on_c, 0, 67, 107
2, 4710, Note_off_c, 0, 67, 64
2, 4710, Note_on_c, 0, 69, 107
2, 4725, Note_off_c, 0, 69, 64
2, 4725, Note_on_c, 0, 67, 107
2, 4740, Note_off_c, 0, 67, 64
2, 4740, Note_on_c, 0, 69, 107
2, 4752, Note_off_c, 0, 69, 64
2, 4755, Note_on_c, 0, 67, 107
2, 4767, Note_off_c, 0, 67, 64
2, 4770, Note_on_c, 0, 69, 107
2, 4782, Note_off_c, 0, 69, 64
2, 4785, Note_on_c, 0, 67, 107
2, 4797, Note_off_c, 0, 67, 64
2, 4800, Note_on_c, 0, 69, 107
2, 4812, Note_off_c, 0, 69, 64
2, 4815, Note_on_c, 0, 67, 107
2, 4827, Note_off_c, 0, 67, 64
2, 4830, Note_on_c, 0, 69, 107
2, 4842, Note_off_c, 0, 69, 64
2, 4845, Note_on_c, 0, 67, 107
2, 4857, Note_off_c, 0, 67, 64
2, 4860, Note_on_c, 0, 69, 107
2, 4872, Note_off_c, 0, 69, 64
2, 4875, Note_on_c, 0, 67, 107
2, 4887, Note_off_c, 0, 67, 64
2, 4890, Note_on_c, 0, 69, 107
2, 4902, Note_off_c, 0, 69, 64
2, 4905, Note_on_c, 0, 67, 107
2, 4917, Note_off_c, 0, 67, 64
2, 4920, Note_on_c, 0, 66, 107
2, 4944, Note_off_c, 0, 61, 64
2, 4968, Note_off_c, 0, 66, 64
2, 4980, Note_on_c, 0, 67, 107
2, 5028, Note_off_c, 0, 67, 64
2, 5040, Note_on_c, 0, 70, 107
2, 5088, Note_off_c, 0, 70, 64
2, 5100, Note_on_c, 0, 69, 107
2, 5160, Note_on_c, 0, 61, 107
2, 5213, Note_off_c, 0, 69, 64
2, 5256, Note_off_c, 0, 61, 64
2, 5280, Note_on_c, 0, 62, 107
2, 5280, Note_on_c, 0, 69, 107
2, 5304, Note_off_c, 0, 62, 64
2, 5310, Note_on_c, 0, 63, 107
2, 5334, Note_off_c, 0, 63, 64
2, 5340, Note_on_c, 0, 62, 107
2, 5364, Note_off_c, 0, 62, 64
2, 5370, Note_on_c, 0, 61, 107
2, 5394, Note_off_c, 0, 61, 64
2, 5400, Note_on_c, 0, 62, 107
2, 5664, Note_off_c, 0, 69, 64
2, 5685, Note_off_c, 0, 62, 64
2, 5805, Note_on_c, 0, 62, 107
2, 5820, Note_on_c, 0, 67, 107
2, 5835, Note_on_c, 0, 70, 107
2, 5864, Note_off_c, 0, 70, 64
2, 5877, Note_off_c, 0, 62, 64
2, 5880, Note_on_c, 0, 60, 107
2, 5880, Note_on_c, 0, 69, 107
2, 5964, Note_off_c, 0, 67, 64
2, 5976, Note_off_c, 0, 69, 64
2, 5976, Note_off_c, 0, 60, 64
2, 6000, Note_on_c, 0, 60, 107
2, 6000, Note_on_c, 0, 69, 107
2, 6024, Note_off_c, 0, 69, 64
2, 6030, Note_on_c, 0, 67, 107
2, 6054, Note_off_c, 0, 67, 64
2, 6060, Note_on_c, 0, 69, 107
2, 6264, Note_off_c, 0, 69, 64
2, 6270, Note_on_c, 0, 72, 107
2, 6294, Note_off_c, 0, 72, 64
2, 6300, Note_on_c, 0, 70, 107
2, 6324, Note_off_c, 0, 70, 64
2, 6330, Note_on_c, 0, 69, 107
2, 6354, Note_off_c, 0, 69, 64
2, 6360, Note_on_c, 0, 72, 107
2, 6384, Note_off_c, 0, 72, 64
2, 6390, Note_on_c, 0, 70, 107
2, 6414, Note_off_c, 0, 70, 64
2, 6420, Note_on_c, 0, 74, 107
2, 6444, Note_off_c, 0, 74, 64
2, 6450, Note_on_c, 0, 72, 107
2, 6474, Note_off_c, 0, 72, 64
2, 6480, Note_on_c, 0, 72, 107
2, 6576, Note_off_c, 0, 72, 64
2, 6600, Note_on_c, 0, 70, 107
2, 6657, Note_off_c, 0, 70, 64
2, 6660, Note_on_c, 0, 69, 107
2, 6672, Note_off_c, 0, 60, 64
2, 6708, Note_off_c, 0, 69, 64
2, 6720, Note_on_c, 0, 60, 107
2, 6720, Note_on_c, 0, 67, 107
2, 6945, Note_off_c, 0, 67, 64
2, 6960, Note_on_c, 0, 67, 107
2, 6984, Note_off_c, 0, 67, 64
2, 6990, Note_on_c, 0, 66, 107
2, 7014, Note_off_c, 0, 66, 64
2, 7020, Note_on_c, 0, 67, 107
2, 7044, Note_off_c, 0, 67, 64
2, 7050, Note_on_c, 0, 66, 107
2, 7137, Note_off_c, 0, 66, 64
2, 7140, Note_on_c, 0, 69, 107
2, 7169, Note_off_c, 0, 69, 64
2, 7170, Note_on_c, 0, 67, 107
2, 7199, Note_off_c, 0, 67, 64
2, 7200, Note_on_c, 0, 67, 107
2, 7248, Note_off_c, 0, 67, 64
2, 7260, Note_on_c, 0, 69, 107
2, 7317, Note_off_c, 0, 69, 64
2, 7320, Note_on_c, 0, 63, 107
2, 7392, Note_off_c, 0, 60, 64
2, 7416, Note_off_c, 0, 63, 64
2, 7440, Note_on_c, 0, 63, 107
2, 7584, Note_off_c, 0, 63, 64
2, 7590, Note_on_c, 0, 62, 107
2, 7614, Note_off_c, 0, 62, 64
2, 7620, Note_on_c, 0, 60, 107
2, 7644, Note_off_c, 0, 60, 64
2, 7650, Note_on_c, 0, 62, 107
2, 7674, Note_off_c, 0, 62, 64
2, 7680, Note_on_c, 0, 63, 107
2, 7695, Note_off_c, 0, 63, 64
2, 7695, Note_on_c, 0, 62, 107
2, 7710, Note_off_c, 0, 62, 64
2, 7710, Note_on_c, 0, 60, 107
2, 7725, Note_off_c, 0, 60, 64
2, 7725, Note_on_c, 0, 62, 107
2, 7740, Note_off_c, 0, 62, 64
2, 7740, Note_on_c, 0, 63, 107
2, 7755, Note_off_c, 0, 63, 64
2, 7755, Note_on_c, 0, 62, 107
2, 7770, Note_off_c, 0, 62, 64
2, 7770, Note_on_c, 0, 63, 107
2, 7782, Note_off_c, 0, 63, 64
2, 7785, Note_on_c, 0, 62, 107
2, 7797, Note_off_c, 0, 62, 64
2, 7800, Note_on_c, 0, 63, 107
2, 7812, Note_off_c, 0, 63, 64
2, 7815, Note_on_c, 0, 62, 107
2, 7827, Note_off_c, 0, 62, 64
2, 7830, Note_on_c, 0, 63, 107
2, 7842, Note_off_c, 0, 63, 64
2, 7845, Note_on_c, 0, 62, 107
2, 7857, Note_off_c, 0, 62, 64
2, 7860, Note_on_c, 0, 63, 107
2, 7884, Note_off_c, 0, 63, 64
2, 7890, Note_on_c, 0, 60, 107
2, 7914, Note_off_c, 0, 60, 64
2, 7920, Note_on_c, 0, 60, 107
2, 7935, Note_off_c, 0, 60, 64
2, 7935, Note_on_c, 0, 58, 107
2, 7950, Note_off_c, 0, 58, 64
2, 7950, Note_on_c, 0, 60, 107
2, 7965, Note_off_c, 0, 60, 64
2, 7965, Note_on_c, 0, 58, 107
2, 7980, Note_off_c, 0, 58, 64
2, 7980, Note_on_c, 0, 60, 107
2, 7995, Note_off_c, 0, 60, 64
2, 7995, Note_on_c, 0, 58, 107
2, 8010, Note_off_c, 0, 58, 64
2, 8010, Note_on_c, 0, 60, 107
2, 8025, Note_off_c, 0, 60, 64
2, 8025, Note_on_c, 0, 58, 107
2, 8040, Note_off_c, 0, 58, 64
2, 8040, Note_on_c, 0, 60, 107
2, 8055, Note_off_c, 0, 60, 64
2, 8055, Note_on_c, 0, 58, 107
2, 8070, Note_off_c, 0, 58, 64
2, 8070, Note_on_c, 0, 60, 107
2, 8085, Note_off_c, 0, 60, 64
2, 8085, Note_on_c, 0, 58, 107
2, 8100, Note_off_c, 0, 58, 64
2, 8100, Note_on_c, 0, 60, 107
2, 8112, Note_off_c, 0, 60, 64
2, 8115, Note_on_c, 0, 58, 107
2, 8127, Note_off_c, 0, 58, 64
2, 8130, Note_on_c, 0, 60, 107
2, 8142, Note_off_c, 0, 60, 64
2, 8145, Note_on_c, 0, 58, 107
2, 8157, Note_off_c, 0, 58, 64
2, 8160, Note_on_c, 0, 60, 107
2, 8172, Note_off_c, 0, 60, 64
2, 8175, Note_on_c, 0, 58, 107
2, 8187, Note_off_c, 0, 58, 64
2, 8190, Note_on_c, 0, 60, 107
2, 8202, Note_off_c, 0, 60, 64
2, 8205, Note_on_c, 0, 58, 107
2, 8217, Note_off_c, 0, 58, 64
2, 8220, Note_on_c, 0, 60, 107
2, 8232, Note_off_c, 0, 60, 64
2, 8235, Note_on_c, 0, 58, 107
2, 8247, Note_off_c, 0, 58, 64
2, 8250, Note_on_c, 0, 60, 107
2, 8262, Note_off_c, 0, 60, 64
2, 8265, Note_on_c, 0, 58, 107
2, 8277, Note_off_c, 0, 58, 64
2, 8280, Note_on_c, 0, 57, 107
2, 8376, Note_off_c, 0, 57, 64
2, 8400, Note_on_c, 0, 57, 107
2, 8520, Note_off_c, 0, 57, 64
2, 8520, Note_on_c, 0, 55, 107
2, 8640, Note_on_c, 0, 62, 107
2, 8640, Note_on_c, 0, 58, 107
2, 8712, Note_off_c, 0, 55, 64
2, 8736, Note_off_c, 0, 62, 64
2, 8760, Note_on_c, 0, 65, 107
2, 8808, Note_off_c, 0, 65, 64
2, 8820, Note_on_c, 0, 64, 107
2, 8832, Note_off_c, 0, 58, 64
2, 8868, Note_off_c, 0, 64, 64
2, 8880, Note_on_c, 0, 64, 107
2, 8880, Note_on_c, 0, 59, 107
2, 8937, Note_off_c, 0, 64, 64
2, 8940, Note_on_c, 0, 65, 107
2, 8969, Note_off_c, 0, 65, 64
2, 8970, Note_on_c, 0, 64, 107
2, 8994, Note_off_c, 0, 64, 64
2, 9000, Note_on_c, 0, 65, 107
2, 9252, Note_off_c, 0, 65, 64
2, 9264, Note_off_c, 0, 59, 64
2, 9300, Note_on_c, 0, 62, 107
2, 9360, Note_on_c, 0, 60, 107
2, 9360, Note_on_c, 0, 65, 107
2, 9396, Note_off_c, 0, 62, 64
2, 9408, Note_off_c, 0, 65, 64
2, 9420, Note_on_c, 0, 64, 107
2, 9477, Note_off_c, 0, 64, 64
2, 9480, Note_on_c, 0, 67, 107
2, 9528, Note_off_c, 0, 67, 64
2, 9540, Note_on_c, 0, 66, 107
2, 9552, Note_off_c, 0, 60, 64
2, 9588, Note_off_c, 0, 66, 64
2, 9600, Note_on_c, 0, 66, 107
2, 9600, Note_on_c, 0, 60, 107
2, 9657, Note_off_c, 0, 66, 64
2, 9660, Note_on_c, 0, 67, 107
2, 9684, Note_off_c, 0, 67, 64
2, 9690, Note_on_c, 0, 66, 107
2, 9714, Note_off_c, 0, 66, 64
2, 9720, Note_on_c, 0, 67, 107
2, 10005, Note_off_c, 0, 67, 64
2, 10020, Note_on_c, 0, 69, 107
2, 10080, Note_on_c, 0, 67, 107
2, 10101, Note_off_c, 0, 67, 64
2, 10110, Note_on_c, 0, 66, 107
2, 10116, Note_off_c, 0, 69, 64
2, 10139, Note_off_c, 0, 66, 64
2, 10140, Note_on_c, 0, 67, 107
2, 10188, Note_off_c, 0, 67, 64
2, 10200, Note_on_c, 0, 66, 107
2, 10248, Note_off_c, 0, 66, 64
2, 10260, Note_on_c, 0, 67, 107
2, 10272, Note_off_c, 0, 60, 64
2, 10308, Note_off_c, 0, 67, 64
2, 10320, Note_on_c, 0, 61, 107
2, 10320, Note_on_c, 0, 69, 107
2, 10349, Note_off_c, 0, 69, 64
2, 10350, Note_on_c, 0, 67, 107
2, 10379, Note_off_c, 0, 67, 64
2, 10380, Note_on_c, 0, 66, 107
2, 10409, Note_off_c, 0, 66, 64
2, 10410, Note_on_c, 0, 67, 107
2, 10439, Note_off_c, 0, 67, 64
2, 10440, Note_on_c, 0, 69, 107
2, 10455, Note_off_c, 0, 69, 64
2, 10455, Note_on_c, 0, 67, 107
2, 10470, Note_off_c, 0, 67, 64
2, 10470, Note_on_c, 0, 69, 107
2, 10485, Note_off_c, 0, 69, 64
2, 10485, Note_on_c, 0, 67, 107
2, 10500, Note_off_c, 0, 67, 64
2, 10500, Note_on_c, 0, 69, 107
2, 10512, Note_off_c, 0, 69, 64
2, 10515, Note_on_c, 0, 67, 107
2, 10527, Note_off_c, 0, 67, 64
2, 10530, Note_on_c, 0, 69, 107
2, 10542, Note_off_c, 0, 69, 64
2, 10545, Note_on_c, 0, 67, 107
2, 10557, Note_off_c, 0, 67, 64
2, 10560, Note_on_c, 0, 69, 107
2, 10572, Note_off_c, 0, 69, 64
2, 10575, Note_on_c, 0, 67, 107
2, 10587, Note_off_c, 0, 67, 64
2, 10590, Note_on_c, 0, 69, 107
2, 10602, Note_off_c, 0, 69, 64
2, 10605, Note_on_c, 0, 67, 107
2, 10617, Note_off_c, 0, 67, 64
2, 10620, Note_on_c, 0, 69, 107
2, 10632, Note_off_c, 0, 69, 64
2, 10635, Note_on_c, 0, 67, 107
2, 10647, Note_off_c, 0, 67, 64
2, 10650, Note_on_c, 0, 69, 107
2, 10662, Note_off_c, 0, 69, 64
2, 10665, Note_on_c, 0, 67, 107
2, 10677, Note_off_c, 0, 67, 64
2, 10680, Note_on_c, 0, 66, 107
2, 10704, Note_off_c, 0, 61, 64
2, 10728, Note_off_c, 0, 66, 64
2, 10740, Note_on_c, 0, 67, 107
2, 10788, Note_off_c, 0, 67, 64
2, 10800, Note_on_c, 0, 70, 107
2, 10848, Note_off_c, 0, 70, 64
2, 10860, Note_on_c, 0, 69, 107
2, 10920, Note_on_c, 0, 61, 107
2, 10973, Note_off_c, 0, 69, 64
2, 11016, Note_off_c, 0, 61, 64
2, 11040, Note_on_c, 0, 62, 107
2, 11040, Note_on_c, 0, 69, 107
2, 11064, Note_off_c, 0, 62, 64
2, 11070, Note_on_c, 0, 63, 107
2, 11094, Note_off_c, 0, 63, 64
2, 11100, Note_on_c, 0, 62, 107
2, 11124, Note_off_c, 0, 62, 64
2, 11130, Note_on_c, 0, 61, 107
2, 11154, Note_off_c, 0, 61, 64
2, 11160, Note_on_c, 0, 62, 107
2, 11424, Note_off_c, 0, 69, 64
2, 11445, Note_off_c, 0, 62, 64
2, 11520, Note_on_c, 0, 70, 107
2, 11520, Note_on_c, 0, 65, 107
2, 11616, Note_off_c, 0, 70, 64
2, 11640, Note_on_c, 0, 74, 107
2, 11712, Note_off_c, 0, 65, 64
2, 11736, Note_off_c, 0, 74, 64
2, 11760, Note_on_c, 0, 65, 107
2, 11790, Note_on_c, 0, 70, 107
2, 11820, Note_on_c, 0, 74, 107
2, 11850, Note_on_c, 0, 77, 107
2, 11985, Note_off_c, 0, 65, 64
2, 12024, Note_off_c, 0, 77, 64
2, 12030, Note_on_c, 0, 79, 107
2, 12054, Note_off_c, 0, 79, 64
2, 12060, Note_on_c, 0, 77, 107
2, 12072, Note_off_c, 0, 74, 64
2, 12084, Note_off_c, 0, 77, 64
2, 12090, Note_on_c, 0, 75, 107
2, 12114, Note_off_c, 0, 75, 64
2, 12120, Note_on_c, 0, 74, 107
2, 12132, Note_off_c, 0, 70, 64
2, 12144, Note_off_c, 0, 74, 64
2, 12150, Note_on_c, 0, 72, 107
2, 12174, Note_off_c, 0, 72, 64
2, 12180, Note_on_c, 0, 70, 107
2, 12192, Note_off_c, 0, 70, 64
2, 12195, Note_on_c, 0, 68, 107
2, 12207, Note_off_c, 0, 68, 64
2, 12210, Note_on_c, 0, 70, 107
2, 12222, Note_off_c, 0, 70, 64
2, 12225, Note_on_c, 0, 67, 107
2, 12237, Note_off_c, 0, 67, 64
2, 12240, Note_on_c, 0, 68, 107
2, 12240, Note_on_c, 0, 65, 107
2, 12288, Note_off_c, 0, 68, 64
2, 12300, Note_on_c, 0, 65, 107
2, 12336, Note_off_c, 0, 65, 64
2, 12348, Note_off_c, 0, 65, 64
2, 12360, Note_on_c, 0, 67, 107
2, 12456, Note_off_c, 0, 67, 64
2, 12480, Note_on_c, 0, 62, 107
2, 12480, Note_on_c, 0, 65, 107
2, 12480, Note_on_c, 0, 68, 107
2, 12600, Note_off_c, 0, 68, 64
2, 12600, Note_on_c, 0, 67, 107
2, 12864, Note_off_c, 0, 65, 64
2, 12960, Note_off_c, 0, 62, 64
2, 12960, Note_on_c, 0, 74, 107
2, 12984, Note_off_c, 0, 67, 64
2, 13008, Note_off_c, 0, 74, 64
2, 13020, Note_on_c, 0, 72, 107
2, 13068, Note_off_c, 0, 72, 64
2, 13080, Note_on_c, 0, 71, 107
2, 13128, Note_off_c, 0, 71, 64
2, 13140, Note_on_c, 0, 74, 107
2, 13169, Note_off_c, 0, 74, 64
2, 13170, Note_on_c, 0, 77, 107
2, 13199, Note_off_c, 0, 77, 64
2, 13200, Note_on_c, 0, 80, 107
2, 13392, Note_off_c, 0, 80, 64
2, 13440, Note_on_c, 0, 80, 107
2, 13455, Note_off_c, 0, 80, 64
2, 13455, Note_on_c, 0, 79, 107
2, 13470, Note_off_c, 0, 79, 64
2, 13470, Note_on_c, 0, 80, 107
2, 13482, Note_off_c, 0, 80, 64
2, 13485, Note_on_c, 0, 79, 107
2, 13548, Note_off_c, 0, 79, 64
2, 13560, Note_on_c, 0, 77, 107
2, 13584, Note_off_c, 0, 77, 64
2, 13590, Note_on_c, 0, 79, 107
2, 13602, Note_off_c, 0, 79, 64
2, 13605, Note_on_c, 0, 80, 107
2, 13617, Note_off_c, 0, 80, 64
2, 13620, Note_on_c, 0, 79, 107
2, 13644, Note_off_c, 0, 79, 64
2, 13650, Note_on_c, 0, 77, 107
2, 13674, Note_off_c, 0, 77, 64
2, 13680, Note_on_c, 0, 77, 107
2, 13680, Note_on_c, 0, 67, 107
2, 13704, Note_off_c, 0, 77, 64
2, 13710, Note_on_c, 0, 75, 107
2, 13734, Note_off_c, 0, 75, 64
2, 13740, Note_on_c, 0, 74, 107
2, 13764, Note_off_c, 0, 74, 64
2, 13770, Note_on_c, 0, 75, 107
2, 13799, Note_off_c, 0, 75, 64
2, 13800, Note_on_c, 0, 77, 107
2, 13812, Note_off_c, 0, 77, 64
2, 13815, Note_on_c, 0, 75, 107
2, 13827, Note_off_c, 0, 75, 64
2, 13830, Note_on_c, 0, 77, 107
2, 13842, Note_off_c, 0, 77, 64
2, 13845, Note_on_c, 0, 75, 107
2, 13857, Note_off_c, 0, 75, 64
2, 13860, Note_on_c, 0, 77, 107
2, 13872, Note_off_c, 0, 77, 64
2, 13872, Note_off_c, 0, 67, 64
2, 13875, Note_on_c, 0, 75, 107
2, 13887, Note_off_c, 0, 75, 64
2, 13890, Note_on_c, 0, 77, 107
2, 13902, Note_off_c, 0, 77, 64
2, 13905, Note_on_c, 0, 75, 107
2, 13917, Note_off_c, 0, 75, 64
2, 13920, Note_on_c, 0, 77, 107
2, 13932, Note_off_c, 0, 77, 64
2, 13935, Note_on_c, 0, 75, 107
2, 13947, Note_off_c, 0, 75, 64
2, 13950, Note_on_c, 0, 77, 107
2, 13962, Note_off_c, 0, 77, 64
2, 13965, Note_on_c, 0, 75, 107
2, 13977, Note_off_c, 0, 75, 64
2, 13980, Note_on_c, 0, 77, 107
2, 13992, Note_off_c, 0, 77, 64
2, 13995, Note_on_c, 0, 75, 107
2, 14007, Note_off_c, 0, 75, 64
2, 14010, Note_on_c, 0, 77, 107
2, 14022, Note_off_c, 0, 77, 64
2, 14025, Note_on_c, 0, 75, 107
2, 14037, Note_off_c, 0, 75, 64
2, 14040, Note_on_c, 0, 74, 107
2, 14040, Note_on_c, 0, 65, 107
2, 14136, Note_off_c, 0, 65, 64
2, 14136, Note_off_c, 0, 74, 64
2, 14160, Note_on_c, 0, 74, 107
2, 14160, Note_on_c, 0, 63, 107
2, 14217, Note_off_c, 0, 74, 64
2, 14220, Note_on_c, 0, 72, 107
2, 14352, Note_off_c, 0, 63, 64
2, 14400, Note_on_c, 0, 75, 107
2, 14400, Note_on_c, 0, 69, 107
2, 14400, Note_on_c, 0, 72, 107
2, 14412, Note_off_c, 0, 72, 64
2, 14592, Note_off_c, 0, 72, 64
2, 14592, Note_off_c, 0, 69, 64
2, 14640, Note_on_c, 0, 66, 107
2, 14640, Note_on_c, 0, 69, 107
2, 15024, Note_off_c, 0, 69, 64
2, 15024, Note_off_c, 0, 66, 64
2, 15120, Note_on_c, 0, 73, 107
2, 15120, Note_on_c, 0, 70, 107
2, 15312, Note_off_c, 0, 70, 64
2, 15312, Note_off_c, 0, 73, 64
2, 15360, Note_on_c, 0, 70, 107
2, 15360, Note_on_c, 0, 67, 107
2, 15744, Note_off_c, 0, 67, 64
2, 15744, Note_off_c, 0, 70, 64
2, 15840, Note_on_c, 0, 65, 107
2, 15840, Note_on_c, 0, 71, 107
2, 16032, Note_off_c, 0, 71, 64
2, 16032, Note_off_c, 0, 65, 64
2, 16080, Note_on_c, 0, 65, 107
2, 16080, Note_on_c, 0, 68, 107
2, 16272, Note_off_c, 0, 68, 64
2, 16320, Note_on_c, 0, 71, 107
2, 16656, Note_off_c, 0, 71, 64
2, 16680, Note_on_c, 0, 68, 107
2, 16752, Note_off_c, 0, 65, 64
2, 16752, Note_off_c, 0, 75, 64
2, 16776, Note_off_c, 0, 68, 64
2, 16800, Note_on_c, 0, 68, 107
2, 16800, Note_on_c, 0, 67, 107
2, 16800, Note_on_c, 0, 75, 107
2, 16913, Note_off_c, 0, 68, 64
2, 16920, Note_on_c, 0, 70, 107
2, 17184, Note_off_c, 0, 75, 64
2, 17184, Note_off_c, 0, 67, 64
2, 17280, Note_on_c, 0, 73, 107
2, 17295, Note_off_c, 0, 73, 64
2, 17295, Note_on_c, 0, 71, 107
2, 17304, Note_off_c, 0, 70, 64
2, 17310, Note_off_c, 0, 71, 64
2, 17310, Note_on_c, 0, 70, 107
2, 17325, Note_off_c, 0, 70, 64
2, 17325, Note_on_c, 0, 71, 107
2, 17340, Note_off_c, 0, 71, 64
2, 17340, Note_on_c, 0, 73, 107
2, 17388, Note_off_c, 0, 73, 64
2, 17400, Note_on_c, 0, 71, 107
2, 17448, Note_off_c, 0, 71, 64
2, 17460, Note_on_c, 0, 70, 107
2, 17520, Note_on_c, 0, 68, 107
2, 17520, Note_on_c, 0, 61, 107
2, 17633, Note_off_c, 0, 68, 64
2, 17640, Note_on_c, 0, 67, 107
2, 17712, Note_off_c, 0, 70, 64
2, 17760, Note_on_c, 0, 67, 107
2, 17808, Note_off_c, 0, 67, 64
2, 17820, Note_on_c, 0, 68, 107
2, 17865, Note_off_c, 0, 67, 64
2, 17868, Note_off_c, 0, 68, 64
2, 17880, Note_on_c, 0, 70, 107
2, 17892, Note_off_c, 0, 70, 64
2, 17895, Note_on_c, 0, 68, 107
2, 17904, Note_off_c, 0, 61, 64
2, 17907, Note_off_c, 0, 68, 64
2, 17910, Note_on_c, 0, 70, 107
2, 17925, Note_off_c, 0, 70, 64
2, 17925, Note_on_c, 0, 68, 107
2, 17937, Note_off_c, 0, 68, 64
2, 17940, Note_on_c, 0, 67, 107
2, 17969, Note_off_c, 0, 67, 64
2, 17970, Note_on_c, 0, 68, 107
2, 17999, Note_off_c, 0, 68, 64
2, 18000, Note_on_c, 0, 70, 107
2, 18048, Note_off_c, 0, 70, 64
2, 18060, Note_on_c, 0, 68, 107
2, 18084, Note_off_c, 0, 68, 64
2, 18090, Note_on_c, 0, 67, 107
2, 18114, Note_off_c, 0, 67, 64
2, 18120, Note_on_c, 0, 68, 107
2, 18168, Note_off_c, 0, 68, 64
2, 18180, Note_on_c, 0, 67, 107
2, 18204, Note_off_c, 0, 67, 64
2, 18210, Note_on_c, 0, 65, 107
2, 18234, Note_off_c, 0, 65, 64
2, 18240, Note_on_c, 0, 67, 107
2, 18240, Note_on_c, 0, 65, 107
2, 18240, Note_on_c, 0, 61, 107
2, 18297, Note_off_c, 0, 65, 64
2, 18300, Note_on_c, 0, 64, 107
2, 18432, Note_off_c, 0, 67, 64
2, 18480, Note_on_c, 0, 67, 107
2, 18525, Note_off_c, 0, 64, 64
2, 18576, Note_off_c, 0, 67, 64
2, 18600, Note_on_c, 0, 66, 107
2, 18624, Note_off_c, 0, 61, 64
2, 18648, Note_off_c, 0, 66, 64
2, 18660, Note_on_c, 0, 69, 107
2, 18684, Note_off_c, 0, 69, 64
2, 18690, Note_on_c, 0, 67, 107
2, 18714, Note_off_c, 0, 67, 64
2, 18720, Note_on_c, 0, 67, 107
2, 18744, Note_off_c, 0, 67, 64
2, 18750, Note_on_c, 0, 69, 107
2, 18774, Note_off_c, 0, 69, 64
2, 18780, Note_on_c, 0, 70, 107
2, 18804, Note_off_c, 0, 70, 64
2, 18810, Note_on_c, 0, 69, 107
2, 18834, Note_off_c, 0, 69, 64
2, 18840, Note_on_c, 0, 67, 107
2, 18864, Note_off_c, 0, 67, 64
2, 18870, Note_on_c, 0, 65, 107
2, 18894, Note_off_c, 0, 65, 64
2, 18900, Note_on_c, 0, 64, 107
2, 18924, Note_off_c, 0, 64, 64
2, 18930, Note_on_c, 0, 65, 107
2, 18942, Note_off_c, 0, 65, 64
2, 18945, Note_on_c, 0, 67, 107
2, 18957, Note_off_c, 0, 67, 64
2, 18960, Note_on_c, 0, 62, 107
2, 19073, Note_off_c, 0, 62, 64
2, 19080, Note_on_c, 0, 61, 107
2, 19248, Note_off_c, 0, 61, 64
2, 19260, Note_on_c, 0, 64, 107
2, 19308, Note_off_c, 0, 64, 64
2, 19320, Note_on_c, 0, 67, 107
2, 19368, Note_off_c, 0, 67, 64
2, 19380, Note_on_c, 0, 70, 107
2, 19404, Note_off_c, 0, 70, 64
2, 19410, Note_on_c, 0, 69, 107
2, 19434, Note_off_c, 0, 69, 64
2, 19440, Note_on_c, 0, 69, 107
2, 19488, Note_off_c, 0, 69, 64
2, 19500, Note_on_c, 0, 72, 107
2, 19524, Note_off_c, 0, 72, 64
2, 19530, Note_on_c, 0, 70, 107
2, 19554, Note_off_c, 0, 70, 64
2, 19560, Note_on_c, 0, 69, 107
2, 19560, Note_on_c, 0, 69, 107
2, 19584, Note_off_c, 0, 69, 64
2, 19590, Note_on_c, 0, 70, 107
2, 19614, Note_off_c, 0, 70, 64
2, 19620, Note_on_c, 0, 72, 107
2, 19680, Note_on_c, 0, 62, 107
2, 19793, Note_off_c, 0, 62, 64
2, 19860, Note_on_c, 0, 62, 107
2, 19872, Note_off_c, 0, 72, 64
2, 19872, Note_off_c, 0, 69, 64
2, 19876, Note_off_c, 0, 62, 64
2, 19880, Note_on_c, 0, 64, 107
2, 19896, Note_off_c, 0, 64, 64
2, 19900, Note_on_c, 0, 66, 107
2, 19916, Note_off_c, 0, 66, 64
2, 19920, Note_on_c, 0, 67, 107
2, 19935, Note_off_c, 0, 67, 64
2, 19935, Note_on_c, 0, 66, 107
2, 19950, Note_off_c, 0, 66, 64
2, 19950, Note_on_c, 0, 67, 107
2, 19965, Note_off_c, 0, 67, 64
2, 19965, Note_on_c, 0, 66, 107
2, 19980, Note_off_c, 0, 66, 64
2, 19980, Note_on_c, 0, 67, 107
2, 19995, Note_off_c, 0, 67, 64
2, 19995, Note_on_c, 0, 66, 107
2, 20010, Note_off_c, 0, 66, 64
2, 20010, Note_on_c, 0, 67, 107
2, 20022, Note_off_c, 0, 67, 64
2, 20025, Note_on_c, 0, 66, 107
2, 20037, Note_off_c, 0, 66, 64
2, 20040, Note_on_c, 0, 67, 107
2, 20052, Note_off_c, 0, 67, 64
2, 20055, Note_on_c, 0, 66, 107
2, 20067, Note_off_c, 0, 66, 64
2, 20070, Note_on_c, 0, 67, 107
2, 20082, Note_off_c, 0, 67, 64
2, 20085, Note_on_c, 0, 66, 107
2, 20097, Note_off_c, 0, 66, 64
2, 20100, Note_on_c, 0, 64, 107
2, 20124, Note_off_c, 0, 64, 64
2, 20130, Note_on_c, 0, 66, 107
2, 20159, Note_off_c, 0, 66, 64
2, 20160, Note_on_c, 0, 59, 107
2, 20160, Note_on_c, 0, 67, 107
2, 20160, Note_on_c, 0, 62, 107
2, 20352, Note_off_c, 0, 62, 64
2, 20352, Note_off_c, 0, 59, 64
2, 20400, Note_on_c, 0, 65, 107
2, 20400, Note_on_c, 0, 59, 107
2, 20784, Note_off_c, 0, 59, 64
2, 20784, Note_off_c, 0, 65, 64
2, 20880, Note_on_c, 0, 63, 107
2, 20880, Note_on_c, 0, 60, 107
2, 21072, Note_off_c, 0, 60, 64
2, 21072, Note_off_c, 0, 63, 64
2, 21120, Note_on_c, 0, 63, 107
2, 21120, Note_on_c, 0, 60, 107
2, 21504, Note_off_c, 0, 60, 64
2, 21504, Note_off_c, 0, 63, 64
2, 21600, Note_on_c, 0, 64, 107
2, 21600, Note_on_c, 0, 58, 107
2, 21648, Note_off_c, 0, 67, 64
2, 21660, Note_on_c, 0, 69, 107
2, 21696, Note_off_c, 0, 58, 64
2, 21696, Note_off_c, 0, 64, 64
2, 21708, Note_off_c, 0, 69, 64
2, 21720, Note_on_c, 0, 70, 107
2, 21768, Note_off_c, 0, 70, 64
2, 21780, Note_on_c, 0, 67, 107
2, 21828, Note_off_c, 0, 67, 64
2, 21840, Note_on_c, 0, 66, 107
2, 21888, Note_off_c, 0, 66, 64
2, 21900, Note_on_c, 0, 67, 107
2, 21948, Note_off_c, 0, 67, 64
2, 21960, Note_on_c, 0, 61, 107
2, 21960, Note_on_c, 0, 61, 107
2, 22008, Note_off_c, 0, 61, 64
2, 22020, Note_on_c, 0, 70, 107
2, 22056, Note_off_c, 0, 61, 64
2, 22068, Note_off_c, 0, 70, 64
2, 22080, Note_on_c, 0, 67, 107
2, 22080, Note_on_c, 0, 60, 107
2, 22104, Note_off_c, 0, 67, 64
2, 22110, Note_on_c, 0, 66, 107
2, 22134, Note_off_c, 0, 66, 64
2, 22140, Note_on_c, 0, 64, 107
2, 22164, Note_off_c, 0, 64, 64
2, 22170, Note_on_c, 0, 66, 107
2, 22194, Note_off_c, 0, 66, 64
2, 22200, Note_on_c, 0, 69, 107
2, 22212, Note_off_c, 0, 69, 64
2, 22215, Note_on_c, 0, 67, 107
2, 22227, Note_off_c, 0, 67, 64
2, 22230, Note_on_c, 0, 69, 107
2, 22242, Note_off_c, 0, 69, 64
2, 22245, Note_on_c, 0, 67, 107
2, 22260, Note_off_c, 0, 67, 64
2, 22260, Note_on_c, 0, 69, 107
2, 22272, Note_off_c, 0, 60, 64
2, 22284, Note_off_c, 0, 69, 64
2, 22290, Note_on_c, 0, 66, 107
2, 22314, Note_off_c, 0, 66, 64
2, 22320, Note_on_c, 0, 60, 107
2, 22320, Note_on_c, 0, 67, 107
2, 22320, Note_on_c, 0, 62, 107
2, 22416, Note_off_c, 0, 60, 64
2, 22440, Note_on_c, 0, 57, 107
2, 22512, Note_off_c, 0, 62, 64
2, 22512, Note_off_c, 0, 67, 64
2, 22536, Note_off_c, 0, 57, 64
2, 22560, Note_on_c, 0, 57, 107
2, 22590, Note_on_c, 0, 62, 107
2, 22620, Note_on_c, 0, 67, 107
2, 22673, Note_off_c, 0, 57, 64
2, 22680, Note_on_c, 0, 58, 107
2, 22905, Note_off_c, 0, 67, 64
2, 22905, Note_off_c, 0, 62, 64
2, 23040, Note_on_c, 0, 70, 107
2, 23040, Note_on_c, 0, 65, 107
2, 23064, Note_off_c, 0, 58, 64
2, 23136, Note_off_c, 0, 70, 64
2, 23160, Note_on_c, 0, 74, 107
2, 23232, Note_off_c, 0, 65, 64
2, 23256, Note_off_c, 0, 74, 64
2, 23280, Note_on_c, 0, 65, 107
2, 23310, Note_on_c, 0, 70, 107
2, 23340, Note_on_c, 0, 74, 107
2, 23370, Note_on_c, 0, 77, 107
2, 23505, Note_off_c, 0, 65, 64
2, 23544, Note_off_c, 0, 77, 64
2, 23550, Note_on_c, 0, 79, 107
2, 23574, Note_off_c, 0, 79, 64
2, 23580, Note_on_c, 0, 77, 107
2, 23592, Note_off_c, 0, 74, 64
2, 23604, Note_off_c, 0, 77, 64
2, 23610, Note_on_c, 0, 75, 107
2, 23634, Note_off_c, 0, 75, 64
2, 23640, Note_on_c, 0, 74, 107
2, 23652, Note_off_c, 0, 70, 64
2, 23664, Note_off_c, 0, 74, 64
2, 23670, Note_on_c, 0, 72, 107
2, 23694, Note_off_c, 0, 72, 64
2, 23700, Note_on_c, 0, 70, 107
2, 23712, Note_off_c, 0, 70, 64
2, 23715, Note_on_c, 0, 68, 107
2, 23727, Note_off_c, 0, 68, 64
2, 23730, Note_on_c, 0, 70, 107
2, 23742, Note_off_c, 0, 70, 64
2, 23745, Note_on_c, 0, 67, 107
2, 23757, Note_off_c, 0, 67, 64
2, 23760, Note_on_c, 0, 68, 107
2, 23760, Note_on_c, 0, 65, 107
2, 23808, Note_off_c, 0, 68, 64
2, 23820, Note_on_c, 0, 65, 107
2, 23856, Note_off_c, 0, 65, 64
2, 23868, Note_off_c, 0, 65, 64
2, 23880, Note_on_c, 0, 67, 107
2, 23976, Note_off_c, 0, 67, 64
2, 24000, Note_on_c, 0, 62, 107
2, 24000, Note_on_c, 0, 65, 107
2, 24000, Note_on_c, 0, 68, 107
2, 24120, Note_off_c, 0, 68, 64
2, 24120, Note_on_c, 0, 67, 107
2, 24384, Note_off_c, 0, 65, 64
2, 24480, Note_off_c, 0, 62, 64
2, 24480, Note_on_c, 0, 74, 107
2, 24504, Note_off_c, 0, 67, 64
2, 24528, Note_off_c, 0, 74, 64
2, 24540, Note_on_c, 0, 72, 107
2, 24588, Note_off_c, 0, 72, 64
2, 24600, Note_on_c, 0, 71, 107
2, 24648, Note_off_c, 0, 71, 64
2, 24660, Note_on_c, 0, 74, 107
2, 24689, Note_off_c, 0, 74, 64
2, 24690, Note_on_c, 0, 77, 107
2, 24719, Note_off_c, 0, 77, 64
2, 24720, Note_on_c, 0, 80, 107
2, 24912, Note_off_c, 0, 80, 64
2, 24960, Note_on_c, 0, 80, 107
2, 24975, Note_off_c, 0, 80, 64
2, 24975, Note_on_c, 0, 79, 107
2, 24990, Note_off_c, 0, 79, 64
2, 24990, Note_on_c, 0, 80, 107
2, 25002, Note_off_c, 0, 80, 64
2, 25005, Note_on_c, 0, 79, 107
2, 25068, Note_off_c, 0, 79, 64
2, 25080, Note_on_c, 0, 77, 107
2, 25104, Note_off_c, 0, 77, 64
2, 25110, Note_on_c, 0, 79, 107
2, 25122, Note_off_c, 0, 79, 64
2, 25125, Note_on_c, 0, 80, 107
2, 25137, Note_off_c, 0, 80, 64
2, 25140, Note_on_c, 0, 79, 107
2, 25164, Note_off_c, 0, 79, 64
2, 25170, Note_on_c, 0, 77, 107
2, 25194, Note_off_c, 0, 77, 64
2, 25200, Note_on_c, 0, 77, 107
2, 25200, Note_on_c, 0, 67, 107
2, 25224, Note_off_c, 0, 77, 64
2, 25230, Note_on_c, 0, 75, 107
2, 25254, Note_off_c, 0, 75, 64
2, 25260, Note_on_c, 0, 74, 107
2, 25284, Note_off_c, 0, 74, 64
2, 25290, Note_on_c, 0, 75, 107
2, 25319, Note_off_c, 0, 75, 64
2, 25320, Note_on_c, 0, 77, 107
2, 25332, Note_off_c, 0, 77, 64
2, 25335, Note_on_c, 0, 75, 107
2, 25347, Note_off_c, 0, 75, 64
2, 25350, Note_on_c, 0, 77, 107
2, 25362, Note_off_c, 0, 77, 64
2, 25365, Note_on_c, 0, 75, 107
2, 25377, Note_off_c, 0, 75, 64
2, 25380, Note_on_c, 0, 77, 107
2, 25392, Note_off_c, 0, 77, 64
2, 25392, Note_off_c, 0, 67, 64
2, 25395, Note_on_c, 0, 75, 107
2, 25407, Note_off_c, 0, 75, 64
2, 25410, Note_on_c, 0, 77, 107
2, 25422, Note_off_c, 0, 77, 64
2, 25425, Note_on_c, 0, 75, 107
2, 25437, Note_off_c, 0, 75, 64
2, 25440, Note_on_c, 0, 77, 107
2, 25452, Note_off_c, 0, 77, 64
2, 25455, Note_on_c, 0, 75, 107
2, 25467, Note_off_c, 0, 75, 64
2, 25470, Note_on_c, 0, 77, 107
2, 25482, Note_off_c, 0, 77, 64
2, 25485, Note_on_c, 0, 75, 107
2, 25497, Note_off_c, 0, 75, 64
2, 25500, Note_on_c, 0, 77, 107
2, 25512, Note_off_c, 0, 77, 64
2, 25515, Note_on_c, 0, 75, 107
2, 25527, Note_off_c, 0, 75, 64
2, 25530, Note_on_c, 0, 77, 107
2, 25542, Note_off_c, 0, 77, 64
2, 25545, Note_on_c, 0, 75, 107
2, 25557, Note_off_c, 0, 75, 64
2, 25560, Note_on_c, 0, 74, 107
2, 25560, Note_on_c, 0, 65, 107
2, 25656, Note_off_c, 0, 65, 64
2, 25656, Note_off_c, 0, 74, 64
2, 25680, Note_on_c, 0, 74, 107
2, 25680, Note_on_c, 0, 63, 107
2, 25737, Note_off_c, 0, 74, 64
2, 25740, Note_on_c, 0, 72, 107
2, 25872, Note_off_c, 0, 63, 64
2, 25920, Note_on_c, 0, 75, 107
2, 25920, Note_on_c, 0, 69, 107
2, 25920, Note_on_c, 0, 72, 107
2, 25932, Note_off_c, 0, 72, 64
2, 26112, Note_off_c, 0, 72, 64
2, 26112, Note_off_c, 0, 69, 64
2, 26160, Note_on_c, 0, 66, 107
2, 26160, Note_on_c, 0, 69, 107
2, 26544, Note_off_c, 0, 69, 64
2, 26544, Note_off_c, 0, 66, 64
2, 26640, Note_on_c, 0, 73, 107
2, 26640, Note_on_c, 0, 70, 107
2, 26832, Note_off_c, 0, 70, 64
2, 26832, Note_off_c, 0, 73, 64
2, 26880, Note_on_c, 0, 70, 107
2, 26880, Note_on_c, 0, 67, 107
2, 27264, Note_off_c, 0, 67, 64
2, 27264, Note_off_c, 0, 70, 64
2, 27360, Note_on_c, 0, 65, 107
2, 27360, Note_on_c, 0, 71, 107
2, 27552, Note_off_c, 0, 71, 64
2, 27552, Note_off_c, 0, 65, 64
2, 27600, Note_on_c, 0, 65, 107
2, 27600, Note_on_c, 0, 68, 107
2, 27792, Note_off_c, 0, 68, 64
2, 27840, Note_on_c, 0, 71, 107
2, 28176, Note_off_c, 0, 71, 64
2, 28200, Note_on_c, 0, 68, 107
2, 28272, Note_off_c, 0, 65, 64
2, 28272, Note_off_c, 0, 75, 64
2, 28296, Note_off_c, 0, 68, 64
2, 28320, Note_on_c, 0, 68, 107
2, 28320, Note_on_c, 0, 67, 107
2, 28320, Note_on_c, 0, 75, 107
2, 28433, Note_off_c, 0, 68, 64
2, 28440, Note_on_c, 0, 70, 107
2, 28704, Note_off_c, 0, 75, 64
2, 28704, Note_off_c, 0, 67, 64
2, 28800, Note_on_c, 0, 73, 107
2, 28815, Note_off_c, 0, 73, 64
2, 28815, Note_on_c, 0, 71, 107
2, 28824, Note_off_c, 0, 70, 64
2, 28830, Note_off_c, 0, 71, 64
2, 28830, Note_on_c, 0, 70, 107
2, 28845, Note_off_c, 0, 70, 64
2, 28845, Note_on_c, 0, 71, 107
2, 28860, Note_off_c, 0, 71, 64
2, 28860, Note_on_c, 0, 73, 107
2, 28908, Note_off_c, 0, 73, 64
2, 28920, Note_on_c, 0, 71, 107
2, 28968, Note_off_c, 0, 71, 64
2, 28980, Note_on_c, 0, 70, 107
2, 29040, Note_on_c, 0, 68, 107
2, 29040, Note_on_c, 0, 61, 107
2, 29153, Note_off_c, 0, 68, 64
2, 29160, Note_on_c, 0, 67, 107
2, 29232, Note_off_c, 0, 70, 64
2, 29280, Note_on_c, 0, 67, 107
2, 29328, Note_off_c, 0, 67, 64
2, 29340, Note_on_c, 0, 68, 107
2, 29385, Note_off_c, 0, 67, 64
2, 29388, Note_off_c, 0, 68, 64
2, 29400, Note_on_c, 0, 70, 107
2, 29412, Note_off_c, 0, 70, 64
2, 29415, Note_on_c, 0, 68, 107
2, 29424, Note_off_c, 0, 61, 64
2, 29427, Note_off_c, 0, 68, 64
2, 29430, Note_on_c, 0, 70, 107
2, 29445, Note_off_c, 0, 70, 64
2, 29445, Note_on_c, 0, 68, 107
2, 29457, Note_off_c, 0, 68, 64
2, 29460, Note_on_c, 0, 67, 107
2, 29489, Note_off_c, 0, 67, 64
2, 29490, Note_on_c, 0, 68, 107
2, 29519, Note_off_c, 0, 68, 64
2, 29520, Note_on_c, 0, 70, 107
2, 29568, Note_off_c, 0, 70, 64
2, 29580, Note_on_c, 0, 68, 107
2, 29604, Note_off_c, 0, 68, 64
2, 29610, Note_on_c, 0, 67, 107
2, 29634, Note_off_c, 0, 67, 64
2, 29640, Note_on_c, 0, 68, 107
2, 29688, Note_off_c, 0, 68, 64
2, 29700, Note_on_c, 0, 67, 107
2, 29724, Note_off_c, 0, 67, 64
2, 29730, Note_on_c, 0, 65, 107
2, 29754, Note_off_c, 0, 65, 64
2, 29760, Note_on_c, 0, 67, 107
2, 29760, Note_on_c, 0, 65, 107
2, 29760, Note_on_c, 0, 61, 107
2, 29817, Note_off_c, 0, 65, 64
2, 29820, Note_on_c, 0, 64, 107
2, 29952, Note_off_c, 0, 67, 64
2, 30000, Note_on_c, 0, 67, 107
2, 30045, Note_off_c, 0, 64, 64
2, 30096, Note_off_c, 0, 67, 64
2, 30120, Note_on_c, 0, 66, 107
2, 30144, Note_off_c, 0, 61, 64
2, 30168, Note_off_c, 0, 66, 64
2, 30180, Note_on_c, 0, 69, 107
2, 30204, Note_off_c, 0, 69, 64
2, 30210, Note_on_c, 0, 67, 107
2, 30234, Note_off_c, 0, 67, 64
2, 30240, Note_on_c, 0, 67, 107
2, 30264, Note_off_c, 0, 67, 64
2, 30270, Note_on_c, 0, 69, 107
2, 30294, Note_off_c, 0, 69, 64
2, 30300, Note_on_c, 0, 70, 107
2, 30324, Note_off_c, 0, 70, 64
2, 30330, Note_on_c, 0, 69, 107
2, 30354, Note_off_c, 0, 69, 64
2, 30360, Note_on_c, 0, 67, 107
2, 30384, Note_off_c, 0, 67, 64
2, 30390, Note_on_c, 0, 65, 107
2, 30414, Note_off_c, 0, 65, 64
2, 30420, Note_on_c, 0, 64, 107
2, 30444, Note_off_c, 0, 64, 64
2, 30450, Note_on_c, 0, 65, 107
2, 30462, Note_off_c, 0, 65, 64
2, 30465, Note_on_c, 0, 67, 107
2, 30477, Note_off_c, 0, 67, 64
2, 30480, Note_on_c, 0, 62, 107
2, 30593, Note_off_c, 0, 62, 64
2, 30600, Note_on_c, 0, 61, 107
2, 30768, Note_off_c, 0, 61, 64
2, 30780, Note_on_c, 0, 64, 107
2, 30828, Note_off_c, 0, 64, 64
2, 30840, Note_on_c, 0, 67, 107
2, 30888, Note_off_c, 0, 67, 64
2, 30900, Note_on_c, 0, 70, 107
2, 30924, Note_off_c, 0, 70, 64
2, 30930, Note_on_c, 0, 69, 107
2, 30954, Note_off_c, 0, 69, 64
2, 30960, Note_on_c, 0, 69, 107
2, 31008, Note_off_c, 0, 69, 64
2, 31020, Note_on_c, 0, 72, 107
2, 31044, Note_off_c, 0, 72, 64
2, 31050, Note_on_c, 0, 70, 107
2, 31074, Note_off_c, 0, 70, 64
2, 31080, Note_on_c, 0, 69, 107
2, 31080, Note_on_c, 0, 69, 107
2, 31104, Note_off_c, 0, 69, 64
2, 31110, Note_on_c, 0, 70, 107
2, 31134, Note_off_c, 0, 70, 64
2, 31140, Note_on_c, 0, 72, 107
2, 31200, Note_on_c, 0, 62, 107
2, 31313, Note_off_c, 0, 62, 64
2, 31380, Note_on_c, 0, 62, 107
2, 31392, Note_off_c, 0, 72, 64
2, 31392, Note_off_c, 0, 69, 64
2, 31396, Note_off_c, 0, 62, 64
2, 31400, Note_on_c, 0, 64, 107
2, 31416, Note_off_c, 0, 64, 64
2, 31420, Note_on_c, 0, 66, 107
2, 31436, Note_off_c, 0, 66, 64
2, 31440, Note_on_c, 0, 67, 107
2, 31455, Note_off_c, 0, 67, 64
2, 31455, Note_on_c, 0, 66, 107
2, 31470, Note_off_c, 0, 66, 64
2, 31470, Note_on_c, 0, 67, 107
2, 31485, Note_off_c, 0, 67, 64
2, 31485, Note_on_c, 0, 66, 107
2, 31500, Note_off_c, 0, 66, 64
2, 31500, Note_on_c, 0, 67, 107
2, 31515, Note_off_c, 0, 67, 64
2, 31515, Note_on_c, 0, 66, 107
2, 31530, Note_off_c, 0, 66, 64
2, 31530, Note_on_c, 0, 67, 107
2, 31542, Note_off_c, 0, 67, 64
2, 31545, Note_on_c, 0, 66, 107
2, 31557, Note_off_c, 0, 66, 64
2, 31560, Note_on_c, 0, 67, 107
2, 31572, Note_off_c, 0, 67, 64
2, 31575, Note_on_c, 0, 66, 107
2, 31587, Note_off_c, 0, 66, 64
2, 31590, Note_on_c, 0, 67, 107
2, 31602, Note_off_c, 0, 67, 64
2, 31605, Note_on_c, 0, 66, 107
2, 31617, Note_off_c, 0, 66, 64
2, 31620, Note_on_c, 0, 64, 107
2, 31644, Note_off_c, 0, 64, 64
2, 31650, Note_on_c, 0, 66, 107
2, 31679, Note_off_c, 0, 66, 64
2, 31680, Note_on_c, 0, 59, 107
2, 31680, Note_on_c, 0, 67, 107
2, 31680, Note_on_c, 0, 62, 107
2, 31872, Note_off_c, 0, 62, 64
2, 31872, Note_off_c, 0, 59, 64
2, 31920, Note_on_c, 0, 65, 107
2, 31920, Note_on_c, 0, 59, 107
2, 32304, Note_off_c, 0, 59, 64
2, 32304, Note_off_c, 0, 65, 64
2, 32400, Note_on_c, 0, 63, 107
2, 32400, Note_on_c, 0, 60, 107
2, 32592, Note_off_c, 0, 60, 64
2, 32592, Note_off_c, 0, 63, 64
2, 32640, Note_on_c, 0, 63, 107
2, 32640, Note_on_c, 0, 60, 107
2, 33024, Note_off_c, 0, 60, 64
2, 33024, Note_off_c, 0, 63, 64
2, 33120, Note_on_c, 0, 64, 107
2, 33120, Note_on_c, 0, 58, 107
2, 33168, Note_off_c, 0, 67, 64
2, 33180, Note_on_c, 0, 69, 107
2, 33216, Note_off_c, 0, 58, 64
2, 33216, Note_off_c, 0, 64, 64
2, 33228, Note_off_c, 0, 69, 64
2, 33240, Note_on_c, 0, 70, 107
2, 33288, Note_off_c, 0, 70, 64
2, 33300, Note_on_c, 0, 67, 107
2, 33348, Note_off_c, 0, 67, 64
2, 33360, Note_on_c, 0, 66, 107
2, 33408, Note_off_c, 0, 66, 64
2, 33420, Note_on_c, 0, 67, 107
2, 33468, Note_off_c, 0, 67, 64
2, 33480, Note_on_c, 0, 61, 107
2, 33480, Note_on_c, 0, 61, 107
2, 33528, Note_off_c, 0, 61, 64
2, 33540, Note_on_c, 0, 70, 107
2, 33576, Note_off_c, 0, 61, 64
2, 33588, Note_off_c, 0, 70, 64
2, 33600, Note_on_c, 0, 67, 107
2, 33600, Note_on_c, 0, 60, 107
2, 33624, Note_off_c, 0, 67, 64
2, 33630, Note_on_c, 0, 66, 107
2, 33654, Note_off_c, 0, 66, 64
2, 33660, Note_on_c, 0, 64, 107
2, 33684, Note_off_c, 0, 64, 64
2, 33690, Note_on_c, 0, 66, 107
2, 33714, Note_off_c, 0, 66, 64
2, 33720, Note_on_c, 0, 69, 107
2, 33732, Note_off_c, 0, 69, 64
2, 33735, Note_on_c, 0, 67, 107
2, 33747, Note_off_c, 0, 67, 64
2, 33750, Note_on_c, 0, 69, 107
2, 33762, Note_off_c, 0, 69, 64
2, 33765, Note_on_c, 0, 67, 107
2, 33780, Note_off_c, 0, 67, 64
2, 33780, Note_on_c, 0, 69, 107
2, 33792, Note_off_c, 0, 60, 64
2, 33804, Note_off_c, 0, 69, 64
2, 33810, Note_on_c, 0, 66, 107
2, 33834, Note_off_c, 0, 66, 64
2, 33840, Note_on_c, 0, 60, 107
2, 33840, Note_on_c, 0, 67, 107
2, 33840, Note_on_c, 0, 62, 107
2, 33936, Note_off_c, 0, 60, 64
2, 33960, Note_on_c, 0, 57, 107
2, 34032, Note_off_c, 0, 62, 64
2, 34032, Note_off_c, 0, 67, 64
2, 34056, Note_off_c, 0, 57, 64
2, 34080, Note_on_c, 0, 57, 107
2, 34110, Note_on_c, 0, 62, 107
2, 34140, Note_on_c, 0, 67, 107
2, 34193, Note_off_c, 0, 57, 64
2, 34200, Note_on_c, 0, 58, 107
2, 34425, Note_off_c, 0, 67, 64
2, 34425, Note_off_c, 0, 62, 64
2, 34560, Note_off_c, 0, 58, 64
2, 34560, End_track
3, 0, Start_track
3, 0, Title_t, "J.S. Bach, Edition Wood"
3, 0, Program_c, 1, 0
3, 0, Note_on_c, 1, 43, 107
3, 15, Note_on_c, 1, 50, 107
3, 30, Note_on_c, 1, 55, 107
3, 173, Note_off_c, 1, 55, 64
3, 173, Note_off_c, 1, 50, 64
3, 240, Note_on_c, 1, 51, 107
3, 960, Note_on_c, 1, 57, 107
3, 1632, Note_off_c, 1, 51, 64
3, 1632, Note_off_c, 1, 57, 64
3, 1680, Note_on_c, 1, 48, 107
3, 1680, Note_on_c, 1, 57, 107
3, 1680, Note_on_c, 1, 54, 107
3, 2064, Note_off_c, 1, 54, 64
3, 2064, Note_off_c, 1, 57, 64
3, 2064, Note_off_c, 1, 48, 64
3, 2160, Note_on_c, 1, 50, 107
3, 2160, Note_on_c, 1, 55, 107
3, 3072, Note_off_c, 1, 55, 64
3, 3072, Note_off_c, 1, 50, 64
3, 3120, Note_on_c, 1, 50, 107
3, 3120, Note_on_c, 1, 55, 107
3, 3504, Note_off_c, 1, 50, 64
3, 3600, Note_on_c, 1, 48, 107
3, 3696, Note_off_c, 1, 48, 64
3, 3720, Note_on_c, 1, 50, 107
3, 3792, Note_off_c, 1, 55, 64
3, 3816, Note_off_c, 1, 50, 64
3, 3840, Note_on_c, 1, 57, 107
3, 3840, Note_on_c, 1, 51, 107
3, 4512, Note_off_c, 1, 51, 64
3, 4512, Note_off_c, 1, 57, 64
3, 4560, Note_on_c, 1, 58, 107
3, 4560, Note_on_c, 1, 52, 107
3, 4896, Note_off_c, 1, 43, 64
3, 4944, Note_off_c, 1, 52, 64
3, 4944, Note_off_c, 1, 58, 64
3, 5040, Note_on_c, 1, 50, 107
3, 5160, Note_on_c, 1, 52, 107
3, 5256, Note_off_c, 1, 52, 64
3, 5280, Note_on_c, 1, 57, 107
3, 5280, Note_on_c, 1, 54, 107
3, 5304, Note_off_c, 1, 54, 64
3, 5310, Note_on_c, 1, 55, 107
3, 5334, Note_off_c, 1, 55, 64
3, 5340, Note_on_c, 1, 54, 107
3, 5364, Note_off_c, 1, 54, 64
3, 5370, Note_on_c, 1, 52, 107
3, 5394, Note_off_c, 1, 52, 64
3, 5400, Note_on_c, 1, 54, 107
3, 5490, Note_off_c, 1, 50, 64
3, 5685, Note_off_c, 1, 54, 64
3, 5730, Note_off_c, 1, 57, 64
3, 5760, Note_on_c, 1, 43, 107
3, 5775, Note_on_c, 1, 50, 107
3, 5790, Note_on_c, 1, 55, 107
3, 5933, Note_off_c, 1, 55, 64
3, 5933, Note_off_c, 1, 50, 64
3, 6000, Note_on_c, 1, 51, 107
3, 6720, Note_on_c, 1, 57, 107
3, 7392, Note_off_c, 1, 51, 64
3, 7392, Note_off_c, 1, 57, 64
3, 7440, Note_on_c, 1, 48, 107
3, 7440, Note_on_c, 1, 57, 107
3, 7440, Note_on_c, 1, 54, 107
3, 7824, Note_off_c, 1, 54, 64
3, 7824, Note_off_c, 1, 57, 64
3, 7824, Note_off_c, 1, 48, 64
3, 7920, Note_on_c, 1, 50, 107
3, 7920, Note_on_c, 1, 55, 107
3, 8832, Note_off_c, 1, 55, 64
3, 8832, Note_off_c, 1, 50, 64
3, 8880, Note_on_c, 1, 50, 107
3, 8880, Note_on_c, 1, 55, 107
3, 9264, Note_off_c, 1, 50, 64
3, 9360, Note_on_c, 1, 48, 107
3, 9456, Note_off_c, 1, 48, 64
3, 9480, Note_on_c, 1, 50, 107
3, 9552, Note_off_c, 1, 55, 64
3, 9576, Note_off_c, 1, 50, 64
3, 9600, Note_on_c, 1, 57, 107
3, 9600, Note_on_c, 1, 51, 107
3, 10272, Note_off_c, 1, 51, 64
3, 10272, Note_off_c, 1, 57, 64
3, 10320, Note_on_c, 1, 58, 107
3, 10320, Note_on_c, 1, 52, 107
3, 10656, Note_off_c, 1, 43, 64
3, 10704, Note_off_c, 1, 52, 64
3, 10704, Note_off_c, 1, 58, 64
3, 10800, Note_on_c, 1, 50, 107
3, 10920, Note_on_c, 1, 52, 107
3, 11016, Note_off_c, 1, 52, 64
3, 11040, Note_on_c, 1, 57, 107
3, 11040, Note_on_c, 1, 54, 107
3, 11064, Note_off_c, 1, 54, 64
3, 11070, Note_on_c, 1, 55, 107
3, 11094, Note_off_c, 1, 55, 64
3, 11100, Note_on_c, 1, 54, 107
3, 11124, Note_off_c, 1, 54, 64
3, 11130, Note_on_c, 1, 52, 107
3, 11154, Note_off_c, 1, 52, 64
3, 11160, Note_on_c, 1, 54, 107
3, 11250, Note_off_c, 1, 50, 64
3, 11445, Note_off_c, 1, 54, 64
3, 11490, Note_off_c, 1, 57, 64
3, 11520, Note_on_c, 1, 53, 107
3, 11520, Note_on_c, 1, 58, 107
3, 11520, Note_on_c, 1, 50, 107
3, 12432, Note_off_c, 1, 58, 64
3, 12432, Note_off_c, 1, 53, 64
3, 12432, Note_off_c, 1, 50, 64
3, 12480, Note_on_c, 1, 55, 107
3, 12480, Note_on_c, 1, 47, 107
3, 13152, Note_off_c, 1, 55, 64
3, 13200, Note_on_c, 1, 53, 107
3, 13392, Note_off_c, 1, 53, 64
3, 13440, Note_on_c, 1, 53, 107
3, 13455, Note_off_c, 1, 53, 64
3, 13455, Note_on_c, 1, 51, 107
3, 13470, Note_off_c, 1, 51, 64
3, 13470, Note_on_c, 1, 53, 107
3, 13482, Note_off_c, 1, 53, 64
3, 13485, Note_on_c, 1, 51, 107
3, 13536, Note_off_c, 1, 47, 64
3, 13557, Note_off_c, 1, 51, 64
3, 13560, Note_on_c, 1, 50, 107
3, 13656, Note_off_c, 1, 50, 64
3, 13680, Note_on_c, 1, 48, 107
3, 13920, Note_on_c, 1, 55, 107
3, 14112, Note_off_c, 1, 55, 64
3, 14160, Note_on_c, 1, 60, 107
3, 14256, Note_off_c, 1, 48, 64
3, 14352, Note_off_c, 1, 60, 64
3, 14400, Note_on_c, 1, 42, 107
3, 14496, Note_off_c, 1, 42, 64
3, 14520, Note_on_c, 1, 45, 107
3, 14616, Note_off_c, 1, 45, 64
3, 14640, Note_on_c, 1, 48, 107
3, 14688, Note_off_c, 1, 48, 64
3, 14700, Note_on_c, 1, 51, 107
3, 14748, Note_off_c, 1, 51, 64
3, 14760, Note_on_c, 1, 50, 107
3, 14808, Note_off_c, 1, 50, 64
3, 14820, Note_on_c, 1, 48, 107
3, 14868, Note_off_c, 1, 48, 64
3, 14880, Note_on_c, 1, 46, 107
3, 14928, Note_off_c, 1, 46, 64
3, 14940, Note_on_c, 1, 45, 107
3, 14988, Note_off_c, 1, 45, 64
3, 15000, Note_on_c, 1, 43, 107
3, 15048, Note_off_c, 1, 43, 64
3, 15060, Note_on_c, 1, 45, 107
3, 15084, Note_off_c, 1, 45, 64
3, 15090, Note_on_c, 1, 42, 107
3, 15114, Note_off_c, 1, 42, 64
3, 15120, Note_on_c, 1, 43, 107
3, 15216, Note_off_c, 1, 43, 64
3, 15240, Note_on_c, 1, 46, 107
3, 15336, Note_off_c, 1, 46, 64
3, 15360, Note_on_c, 1, 49, 107
3, 15417, Note_off_c, 1, 49, 64
3, 15420, Note_on_c, 1, 48, 107
3, 15468, Note_off_c, 1, 48, 64
3, 15480, Note_on_c, 1, 50, 107
3, 15528, Note_off_c, 1, 50, 64
3, 15540, Note_on_c, 1, 53, 107
3, 15588, Note_off_c, 1, 53, 64
3, 15600, Note_on_c, 1, 51, 107
3, 15648, Note_off_c, 1, 51, 64
3, 15660, Note_on_c, 1, 50, 107
3, 15708, Note_off_c, 1, 50, 64
3, 15720, Note_on_c, 1, 48, 107
3, 15744, Note_off_c, 1, 48, 64
3, 15750, Note_on_c, 1, 46, 107
3, 15774, Note_off_c, 1, 46, 64
3, 15780, Note_on_c, 1, 44, 107
3, 15804, Note_off_c, 1, 44, 64
3, 15810, Note_on_c, 1, 46, 107
3, 15822, Note_off_c, 1, 46, 64
3, 15825, Note_on_c, 1, 43, 107
3, 15837, Note_off_c, 1, 43, 64
3, 15840, Note_on_c, 1, 44, 107
3, 15888, Note_off_c, 1, 44, 64
3, 15900, Note_on_c, 1, 46, 107
3, 15948, Note_off_c, 1, 46, 64
3, 15960, Note_on_c, 1, 47, 107
3, 16008, Note_off_c, 1, 47, 64
3, 16020, Note_on_c, 1, 44, 107
3, 16068, Note_off_c, 1, 44, 64
3, 16080, Note_on_c, 1, 53, 107
3, 16128, Note_off_c, 1, 53, 64
3, 16140, Note_on_c, 1, 51, 107
3, 16164, Note_off_c, 1, 51, 64
3, 16170, Note_on_c, 1, 50, 107
3, 16194, Note_off_c, 1, 50, 64
3, 16200, Note_on_c, 1, 53, 107
3, 16248, Note_off_c, 1, 53, 64
3, 16260, Note_on_c, 1, 50, 107
3, 16308, Note_off_c, 1, 50, 64
3, 16320, Note_on_c, 1, 47, 107
3, 16416, Note_off_c, 1, 47, 64
3, 16440, Note_on_c, 1, 47, 107
3, 16452, Note_off_c, 1, 47, 64
3, 16455, Note_on_c, 1, 46, 107
3, 16467, Note_off_c, 1, 46, 64
3, 16470, Note_on_c, 1, 47, 107
3, 16482, Note_off_c, 1, 47, 64
3, 16485, Note_on_c, 1, 46, 107
3, 16500, Note_off_c, 1, 46, 64
3, 16500, Note_on_c, 1, 47, 107
3, 16524, Note_off_c, 1, 47, 64
3, 16530, Note_on_c, 1, 44, 107
3, 16554, Note_off_c, 1, 44, 64
3, 16560, Note_on_c, 1, 51, 107
3, 16752, Note_off_c, 1, 51, 64
3, 16800, Note_on_c, 1, 39, 107
3, 17184, Note_off_c, 1, 39, 64
3, 17280, Note_on_c, 1, 40, 107
3, 17520, Note_on_c, 1, 52, 107
3, 17904, Note_off_c, 1, 52, 64
3, 18240, Note_on_c, 1, 52, 107
3, 18624, Note_off_c, 1, 52, 64
3, 18960, Note_on_c, 1, 55, 107
3, 18960, Note_on_c, 1, 52, 107
3, 19296, Note_off_c, 1, 40, 64
3, 19344, Note_off_c, 1, 52, 64
3, 19344, Note_off_c, 1, 55, 64
3, 19440, Note_on_c, 1, 42, 107
3, 19680, Note_on_c, 1, 57, 107
3, 20016, Note_off_c, 1, 42, 64
3, 20064, Note_off_c, 1, 57, 64
3, 20160, Note_on_c, 1, 41, 107
3, 20256, Note_off_c, 1, 41, 64
3, 20280, Note_on_c, 1, 47, 107
3, 20376, Note_off_c, 1, 47, 64
3, 20400, Note_on_c, 1, 50, 107
3, 20496, Note_off_c, 1, 50, 64
3, 20520, Note_on_c, 1, 53, 107
3, 20616, Note_off_c, 1, 53, 64
3, 20640, Note_on_c, 1, 56, 107
3, 20688, Note_off_c, 1, 56, 64
3, 20700, Note_on_c, 1, 55, 107
3, 20724, Note_off_c, 1, 55, 64
3, 20730, Note_on_c, 1, 53, 107
3, 20754, Note_off_c, 1, 53, 64
3, 20760, Note_on_c, 1, 51, 107
3, 20784, Note_off_c, 1, 51, 64
3, 20790, Note_on_c, 1, 53, 107
3, 20814, Note_off_c, 1, 53, 64
3, 20820, Note_on_c, 1, 50, 107
3, 20868, Note_off_c, 1, 50, 64
3, 20880, Note_on_c, 1, 51, 107
3, 20928, Note_off_c, 1, 51, 64
3, 20940, Note_on_c, 1, 50, 107
3, 20988, Note_off_c, 1, 50, 64
3, 21000, Note_on_c, 1, 48, 107
3, 21048, Note_off_c, 1, 48, 64
3, 21060, Note_on_c, 1, 50, 107
3, 21084, Note_off_c, 1, 50, 64
3, 21090, Note_on_c, 1, 47, 107
3, 21114, Note_off_c, 1, 47, 64
3, 21120, Note_on_c, 1, 48, 107
3, 21168, Note_off_c, 1, 48, 64
3, 21180, Note_on_c, 1, 51, 107
3, 21228, Note_off_c, 1, 51, 64
3, 21240, Note_on_c, 1, 50, 107
3, 21288, Note_off_c, 1, 50, 64
3, 21300, Note_on_c, 1, 48, 107
3, 21348, Note_off_c, 1, 48, 64
3, 21360, Note_on_c, 1, 46, 107
3, 21384, Note_off_c, 1, 46, 64
3, 21390, Note_on_c, 1, 44, 107
3, 21414, Note_off_c, 1, 44, 64
3, 21420, Note_on_c, 1, 46, 107
3, 21444, Note_off_c, 1, 46, 64
3, 21450, Note_on_c, 1, 43, 107
3, 21474, Note_off_c, 1, 43, 64
3, 21480, Note_on_c, 1, 44, 107
3, 21504, Note_off_c, 1, 44, 64
3, 21510, Note_on_c, 1, 42, 107
3, 21534, Note_off_c, 1, 42, 64
3, 21540, Note_on_c, 1, 43, 107
3, 21588, Note_off_c, 1, 43, 64
3, 21600, Note_on_c, 1, 37, 107
3, 21792, Note_off_c, 1, 37, 64
3, 21840, Note_on_c, 1, 38, 107
3, 22080, Note_on_c, 1, 50, 107
3, 22224, Note_off_c, 1, 38, 64
3, 22272, Note_off_c, 1, 50, 64
3, 22320, Note_on_c, 1, 43, 107
3, 22560, Note_on_c, 1, 55, 107
3, 22896, Note_off_c, 1, 43, 64
3, 22944, Note_off_c, 1, 55, 64
3, 23040, Note_on_c, 1, 53, 107
3, 23040, Note_on_c, 1, 58, 107
3, 23040, Note_on_c, 1, 50, 107
3, 23952, Note_off_c, 1, 58, 64
3, 23952, Note_off_c, 1, 53, 64
3, 23952, Note_off_c, 1, 50, 64
3, 24000, Note_on_c, 1, 55, 107
3, 24000, Note_on_c, 1, 47, 107
3, 24672, Note_off_c, 1, 55, 64
3, 24720, Note_on_c, 1, 53, 107
3, 24912, Note_off_c, 1, 53, 64
3, 24960, Note_on_c, 1, 53, 107
3, 24975, Note_off_c, 1, 53, 64
3, 24975, Note_on_c, 1, 51, 107
3, 24990, Note_off_c, 1, 51, 64
3, 24990, Note_on_c, 1, 53, 107
3, 25002, Note_off_c, 1, 53, 64
3, 25005, Note_on_c, 1, 51, 107
3, 25056, Note_off_c, 1, 47, 64
3, 25077, Note_off_c, 1, 51, 64
3, 25080, Note_on_c, 1, 50, 107
3, 25176, Note_off_c, 1, 50, 64
3, 25200, Note_on_c, 1, 48, 107
3, 25440, Note_on_c, 1, 55, 107
3, 25632, Note_off_c, 1, 55, 64
3, 25680, Note_on_c, 1, 60, 107
3, 25776, Note_off_c, 1, 48, 64
3, 25872, Note_off_c, 1, 60, 64
3, 25920, Note_on_c, 1, 42, 107
3, 26016, Note_off_c, 1, 42, 64
3, 26040, Note_on_c, 1, 45, 107
3, 26136, Note_off_c, 1, 45, 64
3, 26160, Note_on_c, 1, 48, 107
3, 26208, Note_off_c, 1, 48, 64
3, 26220, Note_on_c, 1, 51, 107
3, 26268, Note_off_c, 1, 51, 64
3, 26280, Note_on_c, 1, 50, 107
3, 26328, Note_off_c, 1, 50, 64
3, 26340, Note_on_c, 1, 48, 107
3, 26388, Note_off_c, 1, 48, 64
3, 26400, Note_on_c, 1, 46, 107
3, 26448, Note_off_c, 1, 46, 64
3, 26460, Note_on_c, 1, 45, 107
3, 26508, Note_off_c, 1, 45, 64
3, 26520, Note_on_c, 1, 43, 107
3, 26568, Note_off_c, 1, 43, 64
3, 26580, Note_on_c, 1, 45, 107
3, 26604, Note_off_c, 1, 45, 64
3, 26610, Note_on_c, 1, 42, 107
3, 26634, Note_off_c, 1, 42, 64
3, 26640, Note_on_c, 1, 43, 107
3, 26736, Note_off_c, 1, 43, 64
3, 26760, Note_on_c, 1, 46, 107
3, 26856, Note_off_c, 1, 46, 64
3, 26880, Note_on_c, 1, 49, 107
3, 26937, Note_off_c, 1, 49, 64
3, 26940, Note_on_c, 1, 48, 107
3, 26988, Note_off_c, 1, 48, 64
3, 27000, Note_on_c, 1, 50, 107
3, 27048, Note_off_c, 1, 50, 64
3, 27060, Note_on_c, 1, 53, 107
3, 27108, Note_off_c, 1, 53, 64
3, 27120, Note_on_c, 1, 51, 107
3, 27168, Note_off_c, 1, 51, 64
3, 27180, Note_on_c, 1, 50, 107
3, 27228, Note_off_c, 1, 50, 64
3, 27240, Note_on_c, 1, 48, 107
3, 27264, Note_off_c, 1, 48, 64
3, 27270, Note_on_c, 1, 46, 107
3, 27294, Note_off_c, 1, 46, 64
3, 27300, Note_on_c, 1, 44, 107
3, 27324, Note_off_c, 1, 44, 64
3, 27330, Note_on_c, 1, 46, 107
3, 27342, Note_off_c, 1, 46, 64
3, 27345, Note_on_c, 1, 43, 107
3, 27357, Note_off_c, 1, 43, 64
3, 27360, Note_on_c, 1, 44, 107
3, 27408, Note_off_c, 1, 44, 64
3, 27420, Note_on_c, 1, 46, 107
3, 27468, Note_off_c, 1, 46, 64
3, 27480, Note_on_c, 1, 47, 107
3, 27528, Note_off_c, 1, 47, 64
3, 27540, Note_on_c, 1, 44, 107
3, 27588, Note_off_c, 1, 44, 64
3, 27600, Note_on_c, 1, 53, 107
3, 27648, Note_off_c, 1, 53, 64
3, 27660, Note_on_c, 1, 51, 107
3, 27684, Note_off_c, 1, 51, 64
3, 27690, Note_on_c, 1, 50, 107
3, 27714, Note_off_c, 1, 50, 64
3, 27720, Note_on_c, 1, 53, 107
3, 27768, Note_off_c, 1, 53, 64
3, 27780, Note_on_c, 1, 50, 107
3, 27828, Note_off_c, 1, 50, 64
3, 27840, Note_on_c, 1, 47, 107
3, 27936, Note_off_c, 1, 47, 64
3, 27960, Note_on_c, 1, 47, 107
3, 27972, Note_off_c, 1, 47, 64
3, 27975, Note_on_c, 1, 46, 107
3, 27987, Note_off_c, 1, 46, 64
3, 27990, Note_on_c, 1, 47, 107
3, 28002, Note_off_c, 1, 47, 64
3, 28005, Note_on_c, 1, 46, 107
3, 28020, Note_off_c, 1, 46, 64
3, 28020, Note_on_c, 1, 47, 107
3, 28044, Note_off_c, 1, 47, 64
3, 28050, Note_on_c, 1, 44, 107
3, 28074, Note_off_c, 1, 44, 64
3, 28080, Note_on_c, 1, 51, 107
3, 28272, Note_off_c, 1, 51, 64
3, 28320, Note_on_c, 1, 39, 107
3, 28704, Note_off_c, 1, 39, 64
3, 28800, Note_on_c, 1, 40, 107
3, 29040, Note_on_c, 1, 52, 107
3, 29424, Note_off_c, 1, 52, 64
3, 29760, Note_on_c, 1, 52, 107
3, 30144, Note_off_c, 1, 52, 64
3, 30480, Note_on_c, 1, 55, 107
3, 30480, Note_on_c, 1, 52, 107
3, 30816, Note_off_c, 1, 40, 64
3, 30864, Note_off_c, 1, 52, 64
3, 30864, Note_off_c, 1, 55, 64
3, 30960, Note_on_c, 1, 42, 107
3, 31200, Note_on_c, 1, 57, 107
3, 31536, Note_off_c, 1, 42, 64
3, 31584, Note_off_c, 1, 57, 64
3, 31680, Note_on_c, 1, 41, 107
3, 31776, Note_off_c, 1, 41, 64
3, 31800, Note_on_c, 1, 47, 107
3, 31896, Note_off_c, 1, 47, 64
3, 31920, Note_on_c, 1, 50, 107
3, 32016, Note_off_c, 1, 50, 64
3, 32040, Note_on_c, 1, 53, 107
3, 32136, Note_off_c, 1, 53, 64
3, 32160, Note_on_c, 1, 56, 107
3, 32208, Note_off_c, 1, 56, 64
3, 32220, Note_on_c, 1, 55, 107
3, 32244, Note_off_c, 1, 55, 64
3, 32250, Note_on_c, 1, 53, 107
3, 32274, Note_off_c, 1, 53, 64
3, 32280, Note_on_c, 1, 51, 107
3, 32304, Note_off_c, 1, 51, 64
3, 32310, Note_on_c, 1, 53, 107
3, 32334, Note_off_c, 1, 53, 64
3, 32340, Note_on_c, 1, 50, 107
3, 32388, Note_off_c, 1, 50, 64
3, 32400, Note_on_c, 1, 51, 107
3, 32448, Note_off_c, 1, 51, 64
3, 32460, Note_on_c, 1, 50, 107
3, 32508, Note_off_c, 1, 50, 64
3, 32520, Note_on_c, 1, 48, 107
3, 32568, Note_off_c, 1, 48, 64
3, 32580, Note_on_c, 1, 50, 107
3, 32604, Note_off_c, 1, 50, 64
3, 32610, Note_on_c, 1, 47, 107
3, 32634, Note_off_c, 1, 47, 64
3, 32640, Note_on_c, 1, 48, 107
3, 32688, Note_off_c, 1, 48, 64
3, 32700, Note_on_c, 1, 51, 107
3, 32748, Note_off_c, 1, 51, 64
3, 32760, Note_on_c, 1, 50, 107
3, 32808, Note_off_c, 1, 50, 64
3, 32820, Note_on_c, 1, 48, 107
3, 32868, Note_off_c, 1, 48, 64
3, 32880, Note_on_c, 1, 46, 107
3, 32904, Note_off_c, 1, 46, 64
3, 32910, Note_on_c, 1, 44, 107
3, 32934, Note_off_c, 1, 44, 64
3, 32940, Note_on_c, 1, 46, 107
3, 32964, Note_off_c, 1, 46, 64
3, 32970, Note_on_c, 1, 43, 107
3, 32994, Note_off_c, 1, 43, 64
3, 33000, Note_on_c, 1, 44, 107
3, 33024, Note_off_c, 1, 44, 64
3, 33030, Note_on_c, 1, 42, 107
3, 33054, Note_off_c, 1, 42, 64
3, 33060, Note_on_c, 1, 43, 107
3, 33108, Note_off_c, 1, 43, 64
3, 33120, Note_on_c, 1, 37, 107
3, 33312, Note_off_c, 1, 37, 64
3, 33360, Note_on_c, 1, 38, 107
3, 33600, Note_on_c, 1, 50, 107
3, 33744, Note_off_c, 1, 38, 64
3, 33792, Note_off_c, 1, 50, 64
3, 33840, Note_on_c, 1, 43, 107
3, 34080, Note_on_c, 1, 55, 107
3, 34416, Note_off_c, 1, 43, 64
3, 34464, Note_off_c, 1, 55, 64
3, 34464, End_track
4, 0, Start_track
4, 0, Title_t, "Arr. Gary Bricault, (c) 1997"
4, 0, End_track
0, 0, End_of_file
