0, 0, Header, 1, 4, 240
1, 0, Start_track
1, 0, Title_t, "untitled"
1, 0, SMPTE_offset, 96, 0, 3, 0, 0
1, 0, Time_signature, 1, 4, 6, 8
1, 0, Key_signature, 0, "major"
1, 0, Tempo, 833333
1, 60, Time_signature, 4, 2, 24, 8
1, 14460, Time_signature, 15, 4, 6, 8
1, 15360, Time_signature, 1, 4, 6, 8
1, 15420, Time_signature, 4, 2, 24, 8
1, 29820, Time_signature, 15, 4, 6, 8
1, 30720, Time_signature, 1, 4, 6, 8
1, 30780, Time_signature, 4, 2, 24, 8
1, 45180, Time_signature, 15, 4, 6, 8
1, 46080, Time_signature, 1, 4, 6, 8
1, 46140, Time_signature, 4, 2, 24, 8
1, 60540, Time_signature, 15, 4, 6, 8
1, 60540, End_track
2, 0, Start_track
2, 0, MIDI_port, 0
2, 0, Title_t, "English Suite 1, 2. Allemande"
2, 0, Program_c, 0, 0
2, 0, Control_c, 0, 7, 100
2, 0, Control_c, 0, 10, 64
2, 0, Note_on_c, 0, 81, 107
2, 48, Note_on_c, 0, 81, 0
2, 60, Note_on_c, 0, 81, 107
2, 252, Note_on_c, 0, 81, 0
2, 300, Note_on_c, 0, 69, 107
2, 360, Note_on_c, 0, 73, 107
2, 408, Note_on_c, 0, 73, 0
2, 420, Note_on_c, 0, 76, 107
2, 468, Note_on_c, 0, 76, 0
2, 480, Note_on_c, 0, 81, 107
2, 492, Note_on_c, 0, 69, 0
2, 540, Note_on_c, 0, 71, 107
2, 588, Note_on_c, 0, 81, 0
2, 600, Note_on_c, 0, 81, 107
2, 648, Note_on_c, 0, 81, 0
2, 660, Note_on_c, 0, 80, 107
2, 708, Note_on_c, 0, 80, 0
2, 720, Note_on_c, 0, 78, 107
2, 768, Note_on_c, 0, 78, 0
2, 780, Note_on_c, 0, 80, 107
2, 828, Note_on_c, 0, 80, 0
2, 840, Note_on_c, 0, 83, 107
2, 888, Note_on_c, 0, 83, 0
2, 900, Note_on_c, 0, 76, 107
2, 924, Note_on_c, 0, 71, 0
2, 948, Note_on_c, 0, 76, 0
2, 960, Note_on_c, 0, 78, 107
2, 1008, Note_on_c, 0, 78, 0
2, 1020, Note_on_c, 0, 79, 107
2, 1080, Note_on_c, 0, 76, 107
2, 1140, Note_on_c, 0, 73, 107
2, 1200, Note_on_c, 0, 69, 107
2, 1308, Note_on_c, 0, 79, 0
2, 1356, Note_on_c, 0, 76, 0
2, 1356, Note_on_c, 0, 73, 0
2, 1356, Note_on_c, 0, 69, 0
2, 1380, Note_on_c, 0, 78, 107
2, 1380, Note_on_c, 0, 74, 107
2, 1476, Note_on_c, 0, 78, 0
2, 1500, Note_on_c, 0, 76, 107
2, 1548, Note_on_c, 0, 74, 0
2, 1560, Note_on_c, 0, 74, 107
2, 1608, Note_on_c, 0, 74, 0
2, 1620, Note_on_c, 0, 73, 107
2, 1668, Note_on_c, 0, 73, 0
2, 1680, Note_on_c, 0, 71, 107
2, 1728, Note_on_c, 0, 71, 0
2, 1740, Note_on_c, 0, 73, 107
2, 1884, Note_on_c, 0, 76, 0
2, 1980, Note_on_c, 0, 76, 107
2, 2268, Note_on_c, 0, 76, 0
2, 2268, Note_on_c, 0, 73, 0
2, 2280, Note_on_c, 0, 69, 107
2, 2340, Note_on_c, 0, 74, 107
2, 2376, Note_on_c, 0, 69, 0
2, 2400, Note_on_c, 0, 68, 107
2, 2448, Note_on_c, 0, 68, 0
2, 2460, Note_on_c, 0, 69, 107
2, 2508, Note_on_c, 0, 74, 0
2, 2520, Note_on_c, 0, 74, 107
2, 2568, Note_on_c, 0, 74, 0
2, 2580, Note_on_c, 0, 73, 107
2, 2628, Note_on_c, 0, 73, 0
2, 2640, Note_on_c, 0, 71, 107
2, 2652, Note_on_c, 0, 69, 0
2, 2688, Note_on_c, 0, 71, 0
2, 2700, Note_on_c, 0, 69, 107
2, 2700, Note_on_c, 0, 73, 107
2, 2729, Note_on_c, 0, 69, 0
2, 2730, Note_on_c, 0, 68, 107
2, 2759, Note_on_c, 0, 68, 0
2, 2760, Note_on_c, 0, 69, 107
2, 2856, Note_on_c, 0, 69, 0
2, 2892, Note_on_c, 0, 73, 0
2, 2940, Note_on_c, 0, 66, 107
2, 2940, Note_on_c, 0, 71, 107
2, 3132, Note_on_c, 0, 71, 0
2, 3132, Note_on_c, 0, 66, 0
2, 3180, Note_on_c, 0, 71, 107
2, 3300, Note_on_c, 0, 64, 107
2, 3324, Note_on_c, 0, 71, 0
2, 3360, Note_on_c, 0, 73, 107
2, 3408, Note_on_c, 0, 73, 0
2, 3420, Note_on_c, 0, 69, 107
2, 3468, Note_on_c, 0, 69, 0
2, 3480, Note_on_c, 0, 73, 107
2, 3528, Note_on_c, 0, 73, 0
2, 3540, Note_on_c, 0, 66, 107
2, 3588, Note_on_c, 0, 66, 0
2, 3600, Note_on_c, 0, 68, 107
2, 3648, Note_on_c, 0, 68, 0
2, 3660, Note_on_c, 0, 69, 107
2, 3708, Note_on_c, 0, 64, 0
2, 3720, Note_on_c, 0, 66, 107
2, 3768, Note_on_c, 0, 66, 0
2, 3780, Note_on_c, 0, 63, 107
2, 3852, Note_on_c, 0, 69, 0
2, 3876, Note_on_c, 0, 63, 0
2, 3900, Note_on_c, 0, 69, 107
2, 3900, Note_on_c, 0, 64, 107
2, 3948, Note_on_c, 0, 69, 0
2, 3960, Note_on_c, 0, 69, 107
2, 4008, Note_on_c, 0, 69, 0
2, 4020, Note_on_c, 0, 68, 107
2, 4068, Note_on_c, 0, 68, 0
2, 4080, Note_on_c, 0, 66, 107
2, 4092, Note_on_c, 0, 64, 0
2, 4128, Note_on_c, 0, 66, 0
2, 4140, Note_on_c, 0, 64, 107
2, 4140, Note_on_c, 0, 68, 107
2, 4169, Note_on_c, 0, 64, 0
2, 4170, Note_on_c, 0, 63, 107
2, 4194, Note_on_c, 0, 63, 0
2, 4200, Note_on_c, 0, 64, 107
2, 4524, Note_on_c, 0, 64, 0
2, 4524, Note_on_c, 0, 68, 0
2, 4560, Note_on_c, 0, 68, 107
2, 4608, Note_on_c, 0, 68, 0
2, 4620, Note_on_c, 0, 69, 107
2, 4620, Note_on_c, 0, 64, 107
2, 4668, Note_on_c, 0, 69, 0
2, 4680, Note_on_c, 0, 71, 107
2, 4728, Note_on_c, 0, 71, 0
2, 4740, Note_on_c, 0, 73, 107
2, 4755, Note_on_c, 0, 73, 0
2, 4755, Note_on_c, 0, 71, 107
2, 4767, Note_on_c, 0, 71, 0
2, 4770, Note_on_c, 0, 73, 107
2, 4794, Note_on_c, 0, 73, 0
2, 4800, Note_on_c, 0, 69, 107
2, 4824, Note_on_c, 0, 69, 0
2, 4830, Note_on_c, 0, 71, 107
2, 4854, Note_on_c, 0, 71, 0
2, 4860, Note_on_c, 0, 73, 107
2, 4920, Note_on_c, 0, 71, 107
2, 4968, Note_on_c, 0, 71, 0
2, 4980, Note_on_c, 0, 69, 107
2, 5028, Note_on_c, 0, 69, 0
2, 5040, Note_on_c, 0, 68, 107
2, 5088, Note_on_c, 0, 68, 0
2, 5100, Note_on_c, 0, 69, 107
2, 5484, Note_on_c, 0, 69, 0
2, 5484, Note_on_c, 0, 73, 0
2, 5484, Note_on_c, 0, 64, 0
2, 5520, Note_on_c, 0, 73, 107
2, 5568, Note_on_c, 0, 73, 0
2, 5580, Note_on_c, 0, 74, 107
2, 5580, Note_on_c, 0, 69, 107
2, 5628, Note_on_c, 0, 74, 0
2, 5640, Note_on_c, 0, 73, 107
2, 5664, Note_on_c, 0, 73, 0
2, 5670, Note_on_c, 0, 74, 107
2, 5694, Note_on_c, 0, 74, 0
2, 5700, Note_on_c, 0, 76, 107
2, 5748, Note_on_c, 0, 76, 0
2, 5760, Note_on_c, 0, 74, 107
2, 5772, Note_on_c, 0, 69, 0
2, 5784, Note_on_c, 0, 74, 0
2, 5790, Note_on_c, 0, 76, 107
2, 5814, Note_on_c, 0, 76, 0
2, 5820, Note_on_c, 0, 69, 107
2, 5820, Note_on_c, 0, 78, 107
2, 5880, Note_on_c, 0, 76, 107
2, 5940, Note_on_c, 0, 76, 0
2, 5940, Note_on_c, 0, 74, 107
2, 6000, Note_on_c, 0, 74, 0
2, 6000, Note_on_c, 0, 73, 107
2, 6060, Note_on_c, 0, 73, 0
2, 6060, Note_on_c, 0, 74, 107
2, 6204, Note_on_c, 0, 78, 0
2, 6204, Note_on_c, 0, 69, 0
2, 6240, Note_on_c, 0, 74, 0
2, 6240, Note_on_c, 0, 78, 107
2, 6288, Note_on_c, 0, 78, 0
2, 6300, Note_on_c, 0, 80, 107
2, 6300, Note_on_c, 0, 76, 107
2, 6348, Note_on_c, 0, 80, 0
2, 6360, Note_on_c, 0, 81, 107
2, 6408, Note_on_c, 0, 81, 0
2, 6420, Note_on_c, 0, 80, 107
2, 6468, Note_on_c, 0, 80, 0
2, 6480, Note_on_c, 0, 81, 107
2, 6528, Note_on_c, 0, 81, 0
2, 6540, Note_on_c, 0, 83, 107
2, 6555, Note_on_c, 0, 83, 0
2, 6555, Note_on_c, 0, 81, 107
2, 6570, Note_on_c, 0, 81, 0
2, 6570, Note_on_c, 0, 83, 107
2, 6585, Note_on_c, 0, 83, 0
2, 6585, Note_on_c, 0, 81, 107
2, 6600, Note_on_c, 0, 81, 0
2, 6600, Note_on_c, 0, 83, 107
2, 6615, Note_on_c, 0, 83, 0
2, 6615, Note_on_c, 0, 81, 107
2, 6630, Note_on_c, 0, 81, 0
2, 6630, Note_on_c, 0, 83, 107
2, 6645, Note_on_c, 0, 83, 0
2, 6645, Note_on_c, 0, 81, 107
2, 6660, Note_on_c, 0, 81, 0
2, 6660, Note_on_c, 0, 83, 107
2, 6675, Note_on_c, 0, 83, 0
2, 6675, Note_on_c, 0, 81, 107
2, 6684, Note_on_c, 0, 76, 0
2, 6690, Note_on_c, 0, 81, 0
2, 6690, Note_on_c, 0, 83, 107
2, 6702, Note_on_c, 0, 83, 0
2, 6705, Note_on_c, 0, 81, 107
2, 6717, Note_on_c, 0, 81, 0
2, 6720, Note_on_c, 0, 80, 107
2, 6744, Note_on_c, 0, 80, 0
2, 6750, Note_on_c, 0, 81, 107
2, 6774, Note_on_c, 0, 81, 0
2, 6780, Note_on_c, 0, 83, 107
2, 6780, Note_on_c, 0, 76, 107
2, 6828, Note_on_c, 0, 76, 0
2, 6840, Note_on_c, 0, 81, 107
2, 6888, Note_on_c, 0, 81, 0
2, 6900, Note_on_c, 0, 80, 107
2, 6948, Note_on_c, 0, 80, 0
2, 6960, Note_on_c, 0, 78, 107
2, 7008, Note_on_c, 0, 78, 0
2, 7020, Note_on_c, 0, 76, 107
2, 7068, Note_on_c, 0, 76, 0
2, 7080, Note_on_c, 0, 74, 107
2, 7128, Note_on_c, 0, 74, 0
2, 7140, Note_on_c, 0, 73, 107
2, 7188, Note_on_c, 0, 73, 0
2, 7200, Note_on_c, 0, 71, 107
2, 7248, Note_on_c, 0, 71, 0
2, 7260, Note_on_c, 0, 73, 107
2, 7308, Note_on_c, 0, 83, 0
2, 7320, Note_on_c, 0, 76, 107
2, 7368, Note_on_c, 0, 76, 0
2, 7380, Note_on_c, 0, 81, 107
2, 7404, Note_on_c, 0, 73, 0
2, 7440, Note_on_c, 0, 73, 107
2, 7476, Note_on_c, 0, 81, 0
2, 7488, Note_on_c, 0, 73, 0
2, 7500, Note_on_c, 0, 71, 107
2, 7560, Note_on_c, 0, 74, 107
2, 7620, Note_on_c, 0, 81, 107
2, 7668, Note_on_c, 0, 81, 0
2, 7680, Note_on_c, 0, 80, 107
2, 7692, Note_on_c, 0, 71, 0
2, 7728, Note_on_c, 0, 74, 0
2, 7740, Note_on_c, 0, 57, 107
2, 7740, Note_on_c, 0, 73, 107
2, 7788, Note_on_c, 0, 57, 0
2, 7788, Note_on_c, 0, 80, 0
2, 7800, Note_on_c, 0, 64, 107
2, 7800, Note_on_c, 0, 80, 107
2, 7848, Note_on_c, 0, 80, 0
2, 7848, Note_on_c, 0, 64, 0
2, 7860, Note_on_c, 0, 78, 107
2, 7860, Note_on_c, 0, 66, 107
2, 7908, Note_on_c, 0, 66, 0
2, 7908, Note_on_c, 0, 78, 0
2, 7920, Note_on_c, 0, 68, 107
2, 7920, Note_on_c, 0, 76, 107
2, 7968, Note_on_c, 0, 76, 0
2, 7968, Note_on_c, 0, 68, 0
2, 7980, Note_on_c, 0, 69, 107
2, 7980, Note_on_c, 0, 78, 107
2, 8028, Note_on_c, 0, 78, 0
2, 8040, Note_on_c, 0, 81, 107
2, 8088, Note_on_c, 0, 81, 0
2, 8100, Note_on_c, 0, 73, 107
2, 8124, Note_on_c, 0, 69, 0
2, 8124, Note_on_c, 0, 73, 0
2, 8148, Note_on_c, 0, 73, 0
2, 8160, Note_on_c, 0, 68, 107
2, 8160, Note_on_c, 0, 75, 107
2, 8208, Note_on_c, 0, 75, 0
2, 8208, Note_on_c, 0, 68, 0
2, 8220, Note_on_c, 0, 76, 107
2, 8220, Note_on_c, 0, 76, 107
2, 8268, Note_on_c, 0, 76, 0
2, 8280, Note_on_c, 0, 73, 107
2, 8340, Note_on_c, 0, 70, 107
2, 8400, Note_on_c, 0, 66, 107
2, 8445, Note_on_c, 0, 76, 0
2, 8448, Note_on_c, 0, 73, 0
2, 8448, Note_on_c, 0, 70, 0
2, 8460, Note_on_c, 0, 73, 107
2, 8460, Note_on_c, 0, 70, 107
2, 8460, Note_on_c, 0, 76, 107
2, 8489, Note_on_c, 0, 76, 0
2, 8490, Note_on_c, 0, 75, 107
2, 8514, Note_on_c, 0, 75, 0
2, 8520, Note_on_c, 0, 76, 107
2, 8633, Note_on_c, 0, 76, 0
2, 8640, Note_on_c, 0, 78, 107
2, 8652, Note_on_c, 0, 70, 0
2, 8652, Note_on_c, 0, 73, 0
2, 8700, Note_on_c, 0, 78, 0
2, 8700, Note_on_c, 0, 75, 107
2, 8760, Note_on_c, 0, 73, 107
2, 8808, Note_on_c, 0, 73, 0
2, 8820, Note_on_c, 0, 71, 107
2, 8868, Note_on_c, 0, 71, 0
2, 8880, Note_on_c, 0, 70, 107
2, 8928, Note_on_c, 0, 70, 0
2, 8940, Note_on_c, 0, 71, 107
2, 9084, Note_on_c, 0, 75, 0
2, 9084, Note_on_c, 0, 66, 0
2, 9180, Note_on_c, 0, 75, 107
2, 9180, Note_on_c, 0, 66, 107
2, 9372, Note_on_c, 0, 66, 0
2, 9372, Note_on_c, 0, 75, 0
2, 9372, Note_on_c, 0, 71, 0
2, 9420, Note_on_c, 0, 74, 107
2, 9420, Note_on_c, 0, 71, 107
2, 9449, Note_on_c, 0, 74, 0
2, 9450, Note_on_c, 0, 73, 107
2, 9474, Note_on_c, 0, 73, 0
2, 9480, Note_on_c, 0, 59, 107
2, 9480, Note_on_c, 0, 74, 107
2, 9528, Note_on_c, 0, 59, 0
2, 9540, Note_on_c, 0, 64, 107
2, 9576, Note_on_c, 0, 74, 0
2, 9600, Note_on_c, 0, 76, 107
2, 9612, Note_on_c, 0, 71, 0
2, 9648, Note_on_c, 0, 76, 0
2, 9660, Note_on_c, 0, 71, 107
2, 9660, Note_on_c, 0, 73, 107
2, 9708, Note_on_c, 0, 71, 0
2, 9720, Note_on_c, 0, 71, 107
2, 9768, Note_on_c, 0, 71, 0
2, 9780, Note_on_c, 0, 69, 107
2, 9828, Note_on_c, 0, 69, 0
2, 9840, Note_on_c, 0, 68, 107
2, 9852, Note_on_c, 0, 73, 0
2, 9852, Note_on_c, 0, 64, 0
2, 9888, Note_on_c, 0, 68, 0
2, 9900, Note_on_c, 0, 69, 107
2, 9948, Note_on_c, 0, 69, 0
2, 9960, Note_on_c, 0, 73, 107
2, 10008, Note_on_c, 0, 73, 0
2, 10020, Note_on_c, 0, 66, 107
2, 10068, Note_on_c, 0, 66, 0
2, 10080, Note_on_c, 0, 68, 107
2, 10128, Note_on_c, 0, 68, 0
2, 10140, Note_on_c, 0, 69, 107
2, 10140, Note_on_c, 0, 69, 107
2, 10200, Note_on_c, 0, 66, 107
2, 10260, Note_on_c, 0, 63, 107
2, 10320, Note_on_c, 0, 59, 107
2, 10332, Note_on_c, 0, 69, 0
2, 10368, Note_on_c, 0, 63, 0
2, 10368, Note_on_c, 0, 69, 0
2, 10368, Note_on_c, 0, 66, 0
2, 10368, Note_on_c, 0, 59, 0
2, 10380, Note_on_c, 0, 68, 107
2, 10440, Note_on_c, 0, 59, 107
2, 10488, Note_on_c, 0, 59, 0
2, 10500, Note_on_c, 0, 64, 107
2, 10524, Note_on_c, 0, 68, 0
2, 10560, Note_on_c, 0, 68, 107
2, 10596, Note_on_c, 0, 64, 0
2, 10608, Note_on_c, 0, 68, 0
2, 10620, Note_on_c, 0, 68, 107
2, 10668, Note_on_c, 0, 68, 0
2, 10680, Note_on_c, 0, 68, 107
2, 10728, Note_on_c, 0, 68, 0
2, 10740, Note_on_c, 0, 66, 107
2, 10788, Note_on_c, 0, 66, 0
2, 10800, Note_on_c, 0, 64, 107
2, 10848, Note_on_c, 0, 64, 0
2, 10860, Note_on_c, 0, 66, 107
2, 10908, Note_on_c, 0, 66, 0
2, 10920, Note_on_c, 0, 69, 107
2, 10968, Note_on_c, 0, 69, 0
2, 10980, Note_on_c, 0, 61, 107
2, 11028, Note_on_c, 0, 61, 0
2, 11040, Note_on_c, 0, 63, 107
2, 11088, Note_on_c, 0, 63, 0
2, 11100, Note_on_c, 0, 64, 107
2, 11292, Note_on_c, 0, 64, 0
2, 11340, Note_on_c, 0, 64, 107
2, 11369, Note_on_c, 0, 64, 0
2, 11370, Note_on_c, 0, 63, 107
2, 11394, Note_on_c, 0, 63, 0
2, 11400, Note_on_c, 0, 64, 107
2, 11496, Note_on_c, 0, 64, 0
2, 11520, Note_on_c, 0, 66, 107
2, 11568, Note_on_c, 0, 66, 0
2, 11580, Note_on_c, 0, 63, 107
2, 11772, Note_on_c, 0, 63, 0
2, 11820, Note_on_c, 0, 59, 107
2, 11820, Note_on_c, 0, 59, 107
2, 11868, Note_on_c, 0, 59, 0
2, 11880, Note_on_c, 0, 63, 107
2, 11928, Note_on_c, 0, 63, 0
2, 11940, Note_on_c, 0, 66, 107
2, 11988, Note_on_c, 0, 66, 0
2, 12000, Note_on_c, 0, 71, 107
2, 12012, Note_on_c, 0, 59, 0
2, 12060, Note_on_c, 0, 61, 107
2, 12108, Note_on_c, 0, 71, 0
2, 12120, Note_on_c, 0, 71, 107
2, 12168, Note_on_c, 0, 71, 0
2, 12180, Note_on_c, 0, 70, 107
2, 12228, Note_on_c, 0, 70, 0
2, 12240, Note_on_c, 0, 68, 107
2, 12288, Note_on_c, 0, 68, 0
2, 12300, Note_on_c, 0, 70, 107
2, 12348, Note_on_c, 0, 70, 0
2, 12360, Note_on_c, 0, 73, 107
2, 12408, Note_on_c, 0, 73, 0
2, 12420, Note_on_c, 0, 66, 107
2, 12444, Note_on_c, 0, 61, 0
2, 12468, Note_on_c, 0, 66, 0
2, 12480, Note_on_c, 0, 68, 107
2, 12528, Note_on_c, 0, 68, 0
2, 12540, Note_on_c, 0, 69, 107
2, 12540, Note_on_c, 0, 69, 107
2, 12588, Note_on_c, 0, 69, 0
2, 12600, Note_on_c, 0, 66, 107
2, 12660, Note_on_c, 0, 63, 107
2, 12720, Note_on_c, 0, 59, 107
2, 12828, Note_on_c, 0, 59, 0
2, 12828, Note_on_c, 0, 63, 0
2, 12828, Note_on_c, 0, 66, 0
2, 12840, Note_on_c, 0, 59, 107
2, 12876, Note_on_c, 0, 69, 0
2, 12900, Note_on_c, 0, 64, 107
2, 12900, Note_on_c, 0, 68, 107
2, 12984, Note_on_c, 0, 59, 0
2, 12996, Note_on_c, 0, 68, 0
2, 12996, Note_on_c, 0, 64, 0
2, 13020, Note_on_c, 0, 64, 107
2, 13020, Note_on_c, 0, 66, 107
2, 13068, Note_on_c, 0, 64, 0
2, 13080, Note_on_c, 0, 64, 107
2, 13128, Note_on_c, 0, 64, 0
2, 13140, Note_on_c, 0, 63, 107
2, 13188, Note_on_c, 0, 63, 0
2, 13200, Note_on_c, 0, 61, 107
2, 13248, Note_on_c, 0, 61, 0
2, 13260, Note_on_c, 0, 63, 107
2, 13404, Note_on_c, 0, 66, 0
2, 13500, Note_on_c, 0, 66, 107
2, 13788, Note_on_c, 0, 66, 0
2, 13788, Note_on_c, 0, 63, 0
2, 13800, Note_on_c, 0, 59, 107
2, 13860, Note_on_c, 0, 64, 107
2, 13896, Note_on_c, 0, 59, 0
2, 13920, Note_on_c, 0, 58, 107
2, 13968, Note_on_c, 0, 58, 0
2, 13980, Note_on_c, 0, 59, 107
2, 14009, Note_on_c, 0, 64, 0
2, 14010, Note_on_c, 0, 66, 107
2, 14039, Note_on_c, 0, 66, 0
2, 14040, Note_on_c, 0, 68, 107
2, 14069, Note_on_c, 0, 68, 0
2, 14070, Note_on_c, 0, 69, 107
2, 14099, Note_on_c, 0, 69, 0
2, 14100, Note_on_c, 0, 68, 107
2, 14129, Note_on_c, 0, 68, 0
2, 14130, Note_on_c, 0, 66, 107
2, 14159, Note_on_c, 0, 66, 0
2, 14160, Note_on_c, 0, 68, 107
2, 14189, Note_on_c, 0, 68, 0
2, 14190, Note_on_c, 0, 69, 107
2, 14219, Note_on_c, 0, 69, 0
2, 14220, Note_on_c, 0, 64, 107
2, 14232, Note_on_c, 0, 64, 0
2, 14235, Note_on_c, 0, 63, 107
2, 14247, Note_on_c, 0, 63, 0
2, 14250, Note_on_c, 0, 64, 107
2, 14262, Note_on_c, 0, 64, 0
2, 14265, Note_on_c, 0, 63, 107
2, 14277, Note_on_c, 0, 63, 0
2, 14280, Note_on_c, 0, 64, 107
2, 14292, Note_on_c, 0, 64, 0
2, 14295, Note_on_c, 0, 63, 107
2, 14307, Note_on_c, 0, 63, 0
2, 14310, Note_on_c, 0, 64, 107
2, 14322, Note_on_c, 0, 64, 0
2, 14325, Note_on_c, 0, 63, 107
2, 14337, Note_on_c, 0, 63, 0
2, 14340, Note_on_c, 0, 64, 107
2, 14352, Note_on_c, 0, 64, 0
2, 14355, Note_on_c, 0, 63, 107
2, 14367, Note_on_c, 0, 63, 0
2, 14370, Note_on_c, 0, 64, 107
2, 14385, Note_on_c, 0, 64, 0
2, 14385, Note_on_c, 0, 63, 107
2, 14397, Note_on_c, 0, 63, 0
2, 14400, Note_on_c, 0, 64, 107
2, 14448, Note_on_c, 0, 64, 0
2, 14460, Note_on_c, 0, 64, 107
2, 14508, Note_on_c, 0, 59, 0
2, 14520, Note_on_c, 0, 59, 107
2, 14568, Note_on_c, 0, 59, 0
2, 14580, Note_on_c, 0, 61, 107
2, 14628, Note_on_c, 0, 61, 0
2, 14640, Note_on_c, 0, 62, 107
2, 14688, Note_on_c, 0, 62, 0
2, 14700, Note_on_c, 0, 61, 107
2, 14844, Note_on_c, 0, 61, 0
2, 14844, Note_on_c, 0, 64, 0
2, 14880, Note_on_c, 0, 63, 107
2, 14880, Note_on_c, 0, 57, 107
2, 14880, Note_on_c, 0, 60, 107
2, 14928, Note_on_c, 0, 60, 0
2, 14928, Note_on_c, 0, 57, 0
2, 14928, Note_on_c, 0, 63, 0
2, 14940, Note_on_c, 0, 56, 107
2, 14940, Note_on_c, 0, 64, 107
2, 14940, Note_on_c, 0, 59, 107
2, 15228, Note_on_c, 0, 59, 0
2, 15228, Note_on_c, 0, 64, 0
2, 15228, Note_on_c, 0, 56, 0
2, 15360, Note_on_c, 0, 81, 107
2, 15408, Note_on_c, 0, 81, 0
2, 15420, Note_on_c, 0, 81, 107
2, 15612, Note_on_c, 0, 81, 0
2, 15660, Note_on_c, 0, 69, 107
2, 15720, Note_on_c, 0, 73, 107
2, 15768, Note_on_c, 0, 73, 0
2, 15780, Note_on_c, 0, 76, 107
2, 15828, Note_on_c, 0, 76, 0
2, 15840, Note_on_c, 0, 81, 107
2, 15852, Note_on_c, 0, 69, 0
2, 15900, Note_on_c, 0, 71, 107
2, 15948, Note_on_c, 0, 81, 0
2, 15960, Note_on_c, 0, 81, 107
2, 16008, Note_on_c, 0, 81, 0
2, 16020, Note_on_c, 0, 80, 107
2, 16068, Note_on_c, 0, 80, 0
2, 16080, Note_on_c, 0, 78, 107
2, 16128, Note_on_c, 0, 78, 0
2, 16140, Note_on_c, 0, 80, 107
2, 16188, Note_on_c, 0, 80, 0
2, 16200, Note_on_c, 0, 83, 107
2, 16248, Note_on_c, 0, 83, 0
2, 16260, Note_on_c, 0, 76, 107
2, 16284, Note_on_c, 0, 71, 0
2, 16308, Note_on_c, 0, 76, 0
2, 16320, Note_on_c, 0, 78, 107
2, 16368, Note_on_c, 0, 78, 0
2, 16380, Note_on_c, 0, 79, 107
2, 16440, Note_on_c, 0, 76, 107
2, 16500, Note_on_c, 0, 73, 107
2, 16560, Note_on_c, 0, 69, 107
2, 16668, Note_on_c, 0, 79, 0
2, 16716, Note_on_c, 0, 76, 0
2, 16716, Note_on_c, 0, 73, 0
2, 16716, Note_on_c, 0, 69, 0
2, 16740, Note_on_c, 0, 78, 107
2, 16740, Note_on_c, 0, 74, 107
2, 16836, Note_on_c, 0, 78, 0
2, 16860, Note_on_c, 0, 76, 107
2, 16908, Note_on_c, 0, 74, 0
2, 16920, Note_on_c, 0, 74, 107
2, 16968, Note_on_c, 0, 74, 0
2, 16980, Note_on_c, 0, 73, 107
2, 17028, Note_on_c, 0, 73, 0
2, 17040, Note_on_c, 0, 71, 107
2, 17088, Note_on_c, 0, 71, 0
2, 17100, Note_on_c, 0, 73, 107
2, 17244, Note_on_c, 0, 76, 0
2, 17340, Note_on_c, 0, 76, 107
2, 17628, Note_on_c, 0, 76, 0
2, 17628, Note_on_c, 0, 73, 0
2, 17640, Note_on_c, 0, 69, 107
2, 17700, Note_on_c, 0, 74, 107
2, 17736, Note_on_c, 0, 69, 0
2, 17760, Note_on_c, 0, 68, 107
2, 17808, Note_on_c, 0, 68, 0
2, 17820, Note_on_c, 0, 69, 107
2, 17868, Note_on_c, 0, 74, 0
2, 17880, Note_on_c, 0, 74, 107
2, 17928, Note_on_c, 0, 74, 0
2, 17940, Note_on_c, 0, 73, 107
2, 17988, Note_on_c, 0, 73, 0
2, 18000, Note_on_c, 0, 71, 107
2, 18012, Note_on_c, 0, 69, 0
2, 18048, Note_on_c, 0, 71, 0
2, 18060, Note_on_c, 0, 69, 107
2, 18060, Note_on_c, 0, 73, 107
2, 18089, Note_on_c, 0, 69, 0
2, 18090, Note_on_c, 0, 68, 107
2, 18119, Note_on_c, 0, 68, 0
2, 18120, Note_on_c, 0, 69, 107
2, 18216, Note_on_c, 0, 69, 0
2, 18252, Note_on_c, 0, 73, 0
2, 18300, Note_on_c, 0, 66, 107
2, 18300, Note_on_c, 0, 71, 107
2, 18492, Note_on_c, 0, 71, 0
2, 18492, Note_on_c, 0, 66, 0
2, 18540, Note_on_c, 0, 71, 107
2, 18660, Note_on_c, 0, 64, 107
2, 18684, Note_on_c, 0, 71, 0
2, 18720, Note_on_c, 0, 73, 107
2, 18768, Note_on_c, 0, 73, 0
2, 18780, Note_on_c, 0, 69, 107
2, 18828, Note_on_c, 0, 69, 0
2, 18840, Note_on_c, 0, 73, 107
2, 18888, Note_on_c, 0, 73, 0
2, 18900, Note_on_c, 0, 66, 107
2, 18948, Note_on_c, 0, 66, 0
2, 18960, Note_on_c, 0, 68, 107
2, 19008, Note_on_c, 0, 68, 0
2, 19020, Note_on_c, 0, 69, 107
2, 19068, Note_on_c, 0, 64, 0
2, 19080, Note_on_c, 0, 66, 107
2, 19128, Note_on_c, 0, 66, 0
2, 19140, Note_on_c, 0, 63, 107
2, 19212, Note_on_c, 0, 69, 0
2, 19236, Note_on_c, 0, 63, 0
2, 19260, Note_on_c, 0, 69, 107
2, 19260, Note_on_c, 0, 64, 107
2, 19308, Note_on_c, 0, 69, 0
2, 19320, Note_on_c, 0, 69, 107
2, 19368, Note_on_c, 0, 69, 0
2, 19380, Note_on_c, 0, 68, 107
2, 19428, Note_on_c, 0, 68, 0
2, 19440, Note_on_c, 0, 66, 107
2, 19452, Note_on_c, 0, 64, 0
2, 19488, Note_on_c, 0, 66, 0
2, 19500, Note_on_c, 0, 64, 107
2, 19500, Note_on_c, 0, 68, 107
2, 19529, Note_on_c, 0, 64, 0
2, 19530, Note_on_c, 0, 63, 107
2, 19554, Note_on_c, 0, 63, 0
2, 19560, Note_on_c, 0, 64, 107
2, 19884, Note_on_c, 0, 64, 0
2, 19884, Note_on_c, 0, 68, 0
2, 19920, Note_on_c, 0, 68, 107
2, 19968, Note_on_c, 0, 68, 0
2, 19980, Note_on_c, 0, 69, 107
2, 19980, Note_on_c, 0, 64, 107
2, 20028, Note_on_c, 0, 69, 0
2, 20040, Note_on_c, 0, 71, 107
2, 20088, Note_on_c, 0, 71, 0
2, 20100, Note_on_c, 0, 73, 107
2, 20115, Note_on_c, 0, 73, 0
2, 20115, Note_on_c, 0, 71, 107
2, 20127, Note_on_c, 0, 71, 0
2, 20130, Note_on_c, 0, 73, 107
2, 20154, Note_on_c, 0, 73, 0
2, 20160, Note_on_c, 0, 69, 107
2, 20184, Note_on_c, 0, 69, 0
2, 20190, Note_on_c, 0, 71, 107
2, 20214, Note_on_c, 0, 71, 0
2, 20220, Note_on_c, 0, 73, 107
2, 20280, Note_on_c, 0, 71, 107
2, 20328, Note_on_c, 0, 71, 0
2, 20340, Note_on_c, 0, 69, 107
2, 20388, Note_on_c, 0, 69, 0
2, 20400, Note_on_c, 0, 68, 107
2, 20448, Note_on_c, 0, 68, 0
2, 20460, Note_on_c, 0, 69, 107
2, 20844, Note_on_c, 0, 69, 0
2, 20844, Note_on_c, 0, 73, 0
2, 20844, Note_on_c, 0, 64, 0
2, 20880, Note_on_c, 0, 73, 107
2, 20928, Note_on_c, 0, 73, 0
2, 20940, Note_on_c, 0, 74, 107
2, 20940, Note_on_c, 0, 69, 107
2, 20988, Note_on_c, 0, 74, 0
2, 21000, Note_on_c, 0, 73, 107
2, 21024, Note_on_c, 0, 73, 0
2, 21030, Note_on_c, 0, 74, 107
2, 21054, Note_on_c, 0, 74, 0
2, 21060, Note_on_c, 0, 76, 107
2, 21108, Note_on_c, 0, 76, 0
2, 21120, Note_on_c, 0, 74, 107
2, 21132, Note_on_c, 0, 69, 0
2, 21144, Note_on_c, 0, 74, 0
2, 21150, Note_on_c, 0, 76, 107
2, 21174, Note_on_c, 0, 76, 0
2, 21180, Note_on_c, 0, 69, 107
2, 21180, Note_on_c, 0, 78, 107
2, 21240, Note_on_c, 0, 76, 107
2, 21300, Note_on_c, 0, 76, 0
2, 21300, Note_on_c, 0, 74, 107
2, 21360, Note_on_c, 0, 74, 0
2, 21360, Note_on_c, 0, 73, 107
2, 21420, Note_on_c, 0, 73, 0
2, 21420, Note_on_c, 0, 74, 107
2, 21564, Note_on_c, 0, 78, 0
2, 21564, Note_on_c, 0, 69, 0
2, 21600, Note_on_c, 0, 74, 0
2, 21600, Note_on_c, 0, 78, 107
2, 21648, Note_on_c, 0, 78, 0
2, 21660, Note_on_c, 0, 80, 107
2, 21660, Note_on_c, 0, 76, 107
2, 21708, Note_on_c, 0, 80, 0
2, 21720, Note_on_c, 0, 81, 107
2, 21768, Note_on_c, 0, 81, 0
2, 21780, Note_on_c, 0, 80, 107
2, 21828, Note_on_c, 0, 80, 0
2, 21840, Note_on_c, 0, 81, 107
2, 21888, Note_on_c, 0, 81, 0
2, 21900, Note_on_c, 0, 83, 107
2, 21915, Note_on_c, 0, 83, 0
2, 21915, Note_on_c, 0, 81, 107
2, 21930, Note_on_c, 0, 81, 0
2, 21930, Note_on_c, 0, 83, 107
2, 21945, Note_on_c, 0, 83, 0
2, 21945, Note_on_c, 0, 81, 107
2, 21960, Note_on_c, 0, 81, 0
2, 21960, Note_on_c, 0, 83, 107
2, 21975, Note_on_c, 0, 83, 0
2, 21975, Note_on_c, 0, 81, 107
2, 21990, Note_on_c, 0, 81, 0
2, 21990, Note_on_c, 0, 83, 107
2, 22005, Note_on_c, 0, 83, 0
2, 22005, Note_on_c, 0, 81, 107
2, 22020, Note_on_c, 0, 81, 0
2, 22020, Note_on_c, 0, 83, 107
2, 22035, Note_on_c, 0, 83, 0
2, 22035, Note_on_c, 0, 81, 107
2, 22044, Note_on_c, 0, 76, 0
2, 22050, Note_on_c, 0, 81, 0
2, 22050, Note_on_c, 0, 83, 107
2, 22062, Note_on_c, 0, 83, 0
2, 22065, Note_on_c, 0, 81, 107
2, 22077, Note_on_c, 0, 81, 0
2, 22080, Note_on_c, 0, 80, 107
2, 22104, Note_on_c, 0, 80, 0
2, 22110, Note_on_c, 0, 81, 107
2, 22134, Note_on_c, 0, 81, 0
2, 22140, Note_on_c, 0, 83, 107
2, 22140, Note_on_c, 0, 76, 107
2, 22188, Note_on_c, 0, 76, 0
2, 22200, Note_on_c, 0, 81, 107
2, 22248, Note_on_c, 0, 81, 0
2, 22260, Note_on_c, 0, 80, 107
2, 22308, Note_on_c, 0, 80, 0
2, 22320, Note_on_c, 0, 78, 107
2, 22368, Note_on_c, 0, 78, 0
2, 22380, Note_on_c, 0, 76, 107
2, 22428, Note_on_c, 0, 76, 0
2, 22440, Note_on_c, 0, 74, 107
2, 22488, Note_on_c, 0, 74, 0
2, 22500, Note_on_c, 0, 73, 107
2, 22548, Note_on_c, 0, 73, 0
2, 22560, Note_on_c, 0, 71, 107
2, 22608, Note_on_c, 0, 71, 0
2, 22620, Note_on_c, 0, 73, 107
2, 22668, Note_on_c, 0, 83, 0
2, 22680, Note_on_c, 0, 76, 107
2, 22728, Note_on_c, 0, 76, 0
2, 22740, Note_on_c, 0, 81, 107
2, 22764, Note_on_c, 0, 73, 0
2, 22800, Note_on_c, 0, 73, 107
2, 22836, Note_on_c, 0, 81, 0
2, 22848, Note_on_c, 0, 73, 0
2, 22860, Note_on_c, 0, 71, 107
2, 22920, Note_on_c, 0, 74, 107
2, 22980, Note_on_c, 0, 81, 107
2, 23028, Note_on_c, 0, 81, 0
2, 23040, Note_on_c, 0, 80, 107
2, 23052, Note_on_c, 0, 71, 0
2, 23088, Note_on_c, 0, 74, 0
2, 23100, Note_on_c, 0, 57, 107
2, 23100, Note_on_c, 0, 73, 107
2, 23148, Note_on_c, 0, 57, 0
2, 23148, Note_on_c, 0, 80, 0
2, 23160, Note_on_c, 0, 64, 107
2, 23160, Note_on_c, 0, 80, 107
2, 23208, Note_on_c, 0, 80, 0
2, 23208, Note_on_c, 0, 64, 0
2, 23220, Note_on_c, 0, 78, 107
2, 23220, Note_on_c, 0, 66, 107
2, 23268, Note_on_c, 0, 66, 0
2, 23268, Note_on_c, 0, 78, 0
2, 23280, Note_on_c, 0, 68, 107
2, 23280, Note_on_c, 0, 76, 107
2, 23328, Note_on_c, 0, 76, 0
2, 23328, Note_on_c, 0, 68, 0
2, 23340, Note_on_c, 0, 69, 107
2, 23340, Note_on_c, 0, 78, 107
2, 23388, Note_on_c, 0, 78, 0
2, 23400, Note_on_c, 0, 81, 107
2, 23448, Note_on_c, 0, 81, 0
2, 23460, Note_on_c, 0, 73, 107
2, 23484, Note_on_c, 0, 69, 0
2, 23484, Note_on_c, 0, 73, 0
2, 23508, Note_on_c, 0, 73, 0
2, 23520, Note_on_c, 0, 68, 107
2, 23520, Note_on_c, 0, 75, 107
2, 23568, Note_on_c, 0, 75, 0
2, 23568, Note_on_c, 0, 68, 0
2, 23580, Note_on_c, 0, 76, 107
2, 23580, Note_on_c, 0, 76, 107
2, 23628, Note_on_c, 0, 76, 0
2, 23640, Note_on_c, 0, 73, 107
2, 23700, Note_on_c, 0, 70, 107
2, 23760, Note_on_c, 0, 66, 107
2, 23805, Note_on_c, 0, 76, 0
2, 23808, Note_on_c, 0, 73, 0
2, 23808, Note_on_c, 0, 70, 0
2, 23820, Note_on_c, 0, 73, 107
2, 23820, Note_on_c, 0, 70, 107
2, 23820, Note_on_c, 0, 76, 107
2, 23849, Note_on_c, 0, 76, 0
2, 23850, Note_on_c, 0, 75, 107
2, 23874, Note_on_c, 0, 75, 0
2, 23880, Note_on_c, 0, 76, 107
2, 23993, Note_on_c, 0, 76, 0
2, 24000, Note_on_c, 0, 78, 107
2, 24012, Note_on_c, 0, 70, 0
2, 24012, Note_on_c, 0, 73, 0
2, 24060, Note_on_c, 0, 78, 0
2, 24060, Note_on_c, 0, 75, 107
2, 24120, Note_on_c, 0, 73, 107
2, 24168, Note_on_c, 0, 73, 0
2, 24180, Note_on_c, 0, 71, 107
2, 24228, Note_on_c, 0, 71, 0
2, 24240, Note_on_c, 0, 70, 107
2, 24288, Note_on_c, 0, 70, 0
2, 24300, Note_on_c, 0, 71, 107
2, 24444, Note_on_c, 0, 75, 0
2, 24444, Note_on_c, 0, 66, 0
2, 24540, Note_on_c, 0, 75, 107
2, 24540, Note_on_c, 0, 66, 107
2, 24732, Note_on_c, 0, 66, 0
2, 24732, Note_on_c, 0, 75, 0
2, 24732, Note_on_c, 0, 71, 0
2, 24780, Note_on_c, 0, 74, 107
2, 24780, Note_on_c, 0, 71, 107
2, 24809, Note_on_c, 0, 74, 0
2, 24810, Note_on_c, 0, 73, 107
2, 24834, Note_on_c, 0, 73, 0
2, 24840, Note_on_c, 0, 59, 107
2, 24840, Note_on_c, 0, 74, 107
2, 24888, Note_on_c, 0, 59, 0
2, 24900, Note_on_c, 0, 64, 107
2, 24936, Note_on_c, 0, 74, 0
2, 24960, Note_on_c, 0, 76, 107
2, 24972, Note_on_c, 0, 71, 0
2, 25008, Note_on_c, 0, 76, 0
2, 25020, Note_on_c, 0, 71, 107
2, 25020, Note_on_c, 0, 73, 107
2, 25068, Note_on_c, 0, 71, 0
2, 25080, Note_on_c, 0, 71, 107
2, 25128, Note_on_c, 0, 71, 0
2, 25140, Note_on_c, 0, 69, 107
2, 25188, Note_on_c, 0, 69, 0
2, 25200, Note_on_c, 0, 68, 107
2, 25212, Note_on_c, 0, 73, 0
2, 25212, Note_on_c, 0, 64, 0
2, 25248, Note_on_c, 0, 68, 0
2, 25260, Note_on_c, 0, 69, 107
2, 25308, Note_on_c, 0, 69, 0
2, 25320, Note_on_c, 0, 73, 107
2, 25368, Note_on_c, 0, 73, 0
2, 25380, Note_on_c, 0, 66, 107
2, 25428, Note_on_c, 0, 66, 0
2, 25440, Note_on_c, 0, 68, 107
2, 25488, Note_on_c, 0, 68, 0
2, 25500, Note_on_c, 0, 69, 107
2, 25500, Note_on_c, 0, 69, 107
2, 25560, Note_on_c, 0, 66, 107
2, 25620, Note_on_c, 0, 63, 107
2, 25680, Note_on_c, 0, 59, 107
2, 25692, Note_on_c, 0, 69, 0
2, 25728, Note_on_c, 0, 63, 0
2, 25728, Note_on_c, 0, 69, 0
2, 25728, Note_on_c, 0, 66, 0
2, 25728, Note_on_c, 0, 59, 0
2, 25740, Note_on_c, 0, 68, 107
2, 25800, Note_on_c, 0, 59, 107
2, 25848, Note_on_c, 0, 59, 0
2, 25860, Note_on_c, 0, 64, 107
2, 25884, Note_on_c, 0, 68, 0
2, 25920, Note_on_c, 0, 68, 107
2, 25956, Note_on_c, 0, 64, 0
2, 25968, Note_on_c, 0, 68, 0
2, 25980, Note_on_c, 0, 68, 107
2, 26028, Note_on_c, 0, 68, 0
2, 26040, Note_on_c, 0, 68, 107
2, 26088, Note_on_c, 0, 68, 0
2, 26100, Note_on_c, 0, 66, 107
2, 26148, Note_on_c, 0, 66, 0
2, 26160, Note_on_c, 0, 64, 107
2, 26208, Note_on_c, 0, 64, 0
2, 26220, Note_on_c, 0, 66, 107
2, 26268, Note_on_c, 0, 66, 0
2, 26280, Note_on_c, 0, 69, 107
2, 26328, Note_on_c, 0, 69, 0
2, 26340, Note_on_c, 0, 61, 107
2, 26388, Note_on_c, 0, 61, 0
2, 26400, Note_on_c, 0, 63, 107
2, 26448, Note_on_c, 0, 63, 0
2, 26460, Note_on_c, 0, 64, 107
2, 26652, Note_on_c, 0, 64, 0
2, 26700, Note_on_c, 0, 64, 107
2, 26729, Note_on_c, 0, 64, 0
2, 26730, Note_on_c, 0, 63, 107
2, 26754, Note_on_c, 0, 63, 0
2, 26760, Note_on_c, 0, 64, 107
2, 26856, Note_on_c, 0, 64, 0
2, 26880, Note_on_c, 0, 66, 107
2, 26928, Note_on_c, 0, 66, 0
2, 26940, Note_on_c, 0, 63, 107
2, 27132, Note_on_c, 0, 63, 0
2, 27180, Note_on_c, 0, 59, 107
2, 27180, Note_on_c, 0, 59, 107
2, 27228, Note_on_c, 0, 59, 0
2, 27240, Note_on_c, 0, 63, 107
2, 27288, Note_on_c, 0, 63, 0
2, 27300, Note_on_c, 0, 66, 107
2, 27348, Note_on_c, 0, 66, 0
2, 27360, Note_on_c, 0, 71, 107
2, 27372, Note_on_c, 0, 59, 0
2, 27420, Note_on_c, 0, 61, 107
2, 27468, Note_on_c, 0, 71, 0
2, 27480, Note_on_c, 0, 71, 107
2, 27528, Note_on_c, 0, 71, 0
2, 27540, Note_on_c, 0, 70, 107
2, 27588, Note_on_c, 0, 70, 0
2, 27600, Note_on_c, 0, 68, 107
2, 27648, Note_on_c, 0, 68, 0
2, 27660, Note_on_c, 0, 70, 107
2, 27708, Note_on_c, 0, 70, 0
2, 27720, Note_on_c, 0, 73, 107
2, 27768, Note_on_c, 0, 73, 0
2, 27780, Note_on_c, 0, 66, 107
2, 27804, Note_on_c, 0, 61, 0
2, 27828, Note_on_c, 0, 66, 0
2, 27840, Note_on_c, 0, 68, 107
2, 27888, Note_on_c, 0, 68, 0
2, 27900, Note_on_c, 0, 69, 107
2, 27900, Note_on_c, 0, 69, 107
2, 27948, Note_on_c, 0, 69, 0
2, 27960, Note_on_c, 0, 66, 107
2, 28020, Note_on_c, 0, 63, 107
2, 28080, Note_on_c, 0, 59, 107
2, 28188, Note_on_c, 0, 59, 0
2, 28188, Note_on_c, 0, 63, 0
2, 28188, Note_on_c, 0, 66, 0
2, 28200, Note_on_c, 0, 59, 107
2, 28236, Note_on_c, 0, 69, 0
2, 28260, Note_on_c, 0, 64, 107
2, 28260, Note_on_c, 0, 68, 107
2, 28344, Note_on_c, 0, 59, 0
2, 28356, Note_on_c, 0, 68, 0
2, 28356, Note_on_c, 0, 64, 0
2, 28380, Note_on_c, 0, 64, 107
2, 28380, Note_on_c, 0, 66, 107
2, 28428, Note_on_c, 0, 64, 0
2, 28440, Note_on_c, 0, 64, 107
2, 28488, Note_on_c, 0, 64, 0
2, 28500, Note_on_c, 0, 63, 107
2, 28548, Note_on_c, 0, 63, 0
2, 28560, Note_on_c, 0, 61, 107
2, 28608, Note_on_c, 0, 61, 0
2, 28620, Note_on_c, 0, 63, 107
2, 28764, Note_on_c, 0, 66, 0
2, 28860, Note_on_c, 0, 66, 107
2, 29148, Note_on_c, 0, 66, 0
2, 29148, Note_on_c, 0, 63, 0
2, 29160, Note_on_c, 0, 59, 107
2, 29220, Note_on_c, 0, 64, 107
2, 29256, Note_on_c, 0, 59, 0
2, 29280, Note_on_c, 0, 58, 107
2, 29328, Note_on_c, 0, 58, 0
2, 29340, Note_on_c, 0, 59, 107
2, 29369, Note_on_c, 0, 64, 0
2, 29370, Note_on_c, 0, 66, 107
2, 29399, Note_on_c, 0, 66, 0
2, 29400, Note_on_c, 0, 68, 107
2, 29429, Note_on_c, 0, 68, 0
2, 29430, Note_on_c, 0, 69, 107
2, 29459, Note_on_c, 0, 69, 0
2, 29460, Note_on_c, 0, 68, 107
2, 29489, Note_on_c, 0, 68, 0
2, 29490, Note_on_c, 0, 66, 107
2, 29519, Note_on_c, 0, 66, 0
2, 29520, Note_on_c, 0, 68, 107
2, 29549, Note_on_c, 0, 68, 0
2, 29550, Note_on_c, 0, 69, 107
2, 29579, Note_on_c, 0, 69, 0
2, 29580, Note_on_c, 0, 64, 107
2, 29592, Note_on_c, 0, 64, 0
2, 29595, Note_on_c, 0, 63, 107
2, 29607, Note_on_c, 0, 63, 0
2, 29610, Note_on_c, 0, 64, 107
2, 29622, Note_on_c, 0, 64, 0
2, 29625, Note_on_c, 0, 63, 107
2, 29637, Note_on_c, 0, 63, 0
2, 29640, Note_on_c, 0, 64, 107
2, 29652, Note_on_c, 0, 64, 0
2, 29655, Note_on_c, 0, 63, 107
2, 29667, Note_on_c, 0, 63, 0
2, 29670, Note_on_c, 0, 64, 107
2, 29682, Note_on_c, 0, 64, 0
2, 29685, Note_on_c, 0, 63, 107
2, 29697, Note_on_c, 0, 63, 0
2, 29700, Note_on_c, 0, 64, 107
2, 29712, Note_on_c, 0, 64, 0
2, 29715, Note_on_c, 0, 63, 107
2, 29727, Note_on_c, 0, 63, 0
2, 29730, Note_on_c, 0, 64, 107
2, 29745, Note_on_c, 0, 64, 0
2, 29745, Note_on_c, 0, 63, 107
2, 29757, Note_on_c, 0, 63, 0
2, 29760, Note_on_c, 0, 64, 107
2, 29808, Note_on_c, 0, 64, 0
2, 29820, Note_on_c, 0, 64, 107
2, 29868, Note_on_c, 0, 59, 0
2, 29880, Note_on_c, 0, 59, 107
2, 29928, Note_on_c, 0, 59, 0
2, 29940, Note_on_c, 0, 61, 107
2, 29988, Note_on_c, 0, 61, 0
2, 30000, Note_on_c, 0, 62, 107
2, 30048, Note_on_c, 0, 62, 0
2, 30060, Note_on_c, 0, 61, 107
2, 30204, Note_on_c, 0, 61, 0
2, 30204, Note_on_c, 0, 64, 0
2, 30240, Note_on_c, 0, 63, 107
2, 30240, Note_on_c, 0, 57, 107
2, 30240, Note_on_c, 0, 60, 107
2, 30288, Note_on_c, 0, 60, 0
2, 30288, Note_on_c, 0, 57, 0
2, 30288, Note_on_c, 0, 63, 0
2, 30300, Note_on_c, 0, 56, 107
2, 30300, Note_on_c, 0, 64, 107
2, 30300, Note_on_c, 0, 59, 107
2, 30588, Note_on_c, 0, 59, 0
2, 30588, Note_on_c, 0, 64, 0
2, 30588, Note_on_c, 0, 56, 0
2, 30720, Note_on_c, 0, 71, 107
2, 30777, Note_on_c, 0, 71, 0
2, 30780, Note_on_c, 0, 71, 107
2, 30972, Note_on_c, 0, 71, 0
2, 31080, Note_on_c, 0, 68, 107
2, 31140, Note_on_c, 0, 71, 107
2, 31200, Note_on_c, 0, 76, 107
2, 31248, Note_on_c, 0, 76, 0
2, 31248, Note_on_c, 0, 71, 0
2, 31248, Note_on_c, 0, 68, 0
2, 31260, Note_on_c, 0, 61, 107
2, 31260, Note_on_c, 0, 70, 107
2, 31260, Note_on_c, 0, 66, 107
2, 31884, Note_on_c, 0, 66, 0
2, 31884, Note_on_c, 0, 70, 0
2, 31884, Note_on_c, 0, 61, 0
2, 31920, Note_on_c, 0, 64, 107
2, 31968, Note_on_c, 0, 64, 0
2, 31980, Note_on_c, 0, 62, 107
2, 32028, Note_on_c, 0, 62, 0
2, 32040, Note_on_c, 0, 66, 107
2, 32100, Note_on_c, 0, 71, 107
2, 32160, Note_on_c, 0, 74, 107
2, 32208, Note_on_c, 0, 74, 0
2, 32208, Note_on_c, 0, 71, 0
2, 32208, Note_on_c, 0, 66, 0
2, 32220, Note_on_c, 0, 76, 107
2, 32268, Note_on_c, 0, 76, 0
2, 32280, Note_on_c, 0, 79, 107
2, 32328, Note_on_c, 0, 79, 0
2, 32340, Note_on_c, 0, 73, 107
2, 32388, Note_on_c, 0, 73, 0
2, 32400, Note_on_c, 0, 76, 107
2, 32448, Note_on_c, 0, 76, 0
2, 32460, Note_on_c, 0, 70, 107
2, 32508, Note_on_c, 0, 70, 0
2, 32520, Note_on_c, 0, 73, 107
2, 32568, Note_on_c, 0, 73, 0
2, 32580, Note_on_c, 0, 66, 107
2, 32580, Note_on_c, 0, 66, 107
2, 32628, Note_on_c, 0, 66, 0
2, 32640, Note_on_c, 0, 76, 107
2, 32688, Note_on_c, 0, 76, 0
2, 32700, Note_on_c, 0, 74, 107
2, 32748, Note_on_c, 0, 66, 0
2, 32760, Note_on_c, 0, 66, 107
2, 32808, Note_on_c, 0, 66, 0
2, 32820, Note_on_c, 0, 68, 107
2, 32868, Note_on_c, 0, 68, 0
2, 32880, Note_on_c, 0, 70, 107
2, 32928, Note_on_c, 0, 70, 0
2, 32940, Note_on_c, 0, 71, 107
2, 32988, Note_on_c, 0, 71, 0
2, 33000, Note_on_c, 0, 74, 107
2, 33048, Note_on_c, 0, 74, 0
2, 33060, Note_on_c, 0, 67, 107
2, 33084, Note_on_c, 0, 74, 0
2, 33108, Note_on_c, 0, 67, 0
2, 33120, Note_on_c, 0, 71, 107
2, 33168, Note_on_c, 0, 71, 0
2, 33180, Note_on_c, 0, 68, 107
2, 33180, Note_on_c, 0, 73, 107
2, 33180, Note_on_c, 0, 65, 107
2, 33564, Note_on_c, 0, 65, 0
2, 33564, Note_on_c, 0, 68, 0
2, 33660, Note_on_c, 0, 69, 107
2, 33660, Note_on_c, 0, 66, 107
2, 33852, Note_on_c, 0, 66, 0
2, 33852, Note_on_c, 0, 69, 0
2, 33852, Note_on_c, 0, 73, 0
2, 33900, Note_on_c, 0, 59, 107
2, 33900, Note_on_c, 0, 59, 107
2, 33948, Note_on_c, 0, 59, 0
2, 33960, Note_on_c, 0, 63, 107
2, 34020, Note_on_c, 0, 66, 107
2, 34080, Note_on_c, 0, 71, 107
2, 34092, Note_on_c, 0, 59, 0
2, 34128, Note_on_c, 0, 63, 0
2, 34128, Note_on_c, 0, 66, 0
2, 34128, Note_on_c, 0, 71, 0
2, 34140, Note_on_c, 0, 65, 107
2, 34140, Note_on_c, 0, 71, 107
2, 34188, Note_on_c, 0, 71, 0
2, 34200, Note_on_c, 0, 68, 107
2, 34236, Note_on_c, 0, 65, 0
2, 34248, Note_on_c, 0, 68, 0
2, 34260, Note_on_c, 0, 73, 107
2, 34308, Note_on_c, 0, 73, 0
2, 34320, Note_on_c, 0, 71, 107
2, 34368, Note_on_c, 0, 71, 0
2, 34380, Note_on_c, 0, 69, 107
2, 34440, Note_on_c, 0, 66, 107
2, 34476, Note_on_c, 0, 69, 0
2, 34500, Note_on_c, 0, 74, 107
2, 34536, Note_on_c, 0, 66, 0
2, 34560, Note_on_c, 0, 65, 107
2, 34596, Note_on_c, 0, 74, 0
2, 34608, Note_on_c, 0, 65, 0
2, 34620, Note_on_c, 0, 73, 107
2, 34680, Note_on_c, 0, 64, 107
2, 34728, Note_on_c, 0, 64, 0
2, 34740, Note_on_c, 0, 66, 107
2, 34764, Note_on_c, 0, 73, 0
2, 34800, Note_on_c, 0, 71, 107
2, 34848, Note_on_c, 0, 71, 0
2, 34860, Note_on_c, 0, 69, 107
2, 34908, Note_on_c, 0, 66, 0
2, 34920, Note_on_c, 0, 66, 107
2, 34956, Note_on_c, 0, 69, 0
2, 34980, Note_on_c, 0, 68, 107
2, 35016, Note_on_c, 0, 66, 0
2, 35040, Note_on_c, 0, 64, 107
2, 35076, Note_on_c, 0, 68, 0
2, 35088, Note_on_c, 0, 64, 0
2, 35100, Note_on_c, 0, 66, 107
2, 35100, Note_on_c, 0, 66, 107
2, 35148, Note_on_c, 0, 66, 0
2, 35148, Note_on_c, 0, 66, 0
2, 35160, Note_on_c, 0, 73, 107
2, 35160, Note_on_c, 0, 58, 107
2, 35208, Note_on_c, 0, 58, 0
2, 35208, Note_on_c, 0, 73, 0
2, 35220, Note_on_c, 0, 61, 107
2, 35220, Note_on_c, 0, 78, 107
2, 35268, Note_on_c, 0, 78, 0
2, 35268, Note_on_c, 0, 61, 0
2, 35280, Note_on_c, 0, 80, 107
2, 35280, Note_on_c, 0, 65, 107
2, 35328, Note_on_c, 0, 65, 0
2, 35328, Note_on_c, 0, 80, 0
2, 35340, Note_on_c, 0, 81, 107
2, 35340, Note_on_c, 0, 66, 107
2, 35388, Note_on_c, 0, 66, 0
2, 35400, Note_on_c, 0, 69, 107
2, 35448, Note_on_c, 0, 69, 0
2, 35460, Note_on_c, 0, 62, 107
2, 35484, Note_on_c, 0, 81, 0
2, 35508, Note_on_c, 0, 62, 0
2, 35520, Note_on_c, 0, 66, 107
2, 35520, Note_on_c, 0, 81, 107
2, 35568, Note_on_c, 0, 81, 0
2, 35568, Note_on_c, 0, 66, 0
2, 35580, Note_on_c, 0, 60, 107
2, 35580, Note_on_c, 0, 81, 107
2, 35628, Note_on_c, 0, 81, 0
2, 35640, Note_on_c, 0, 78, 107
2, 35688, Note_on_c, 0, 78, 0
2, 35700, Note_on_c, 0, 75, 107
2, 35748, Note_on_c, 0, 75, 0
2, 35760, Note_on_c, 0, 78, 107
2, 35772, Note_on_c, 0, 60, 0
2, 35808, Note_on_c, 0, 78, 0
2, 35820, Note_on_c, 0, 72, 107
2, 35868, Note_on_c, 0, 72, 0
2, 35880, Note_on_c, 0, 75, 107
2, 35928, Note_on_c, 0, 75, 0
2, 35940, Note_on_c, 0, 68, 107
2, 35988, Note_on_c, 0, 68, 0
2, 36000, Note_on_c, 0, 78, 107
2, 36048, Note_on_c, 0, 78, 0
2, 36060, Note_on_c, 0, 76, 107
2, 36060, Note_on_c, 0, 76, 107
2, 36108, Note_on_c, 0, 76, 0
2, 36120, Note_on_c, 0, 75, 107
2, 36168, Note_on_c, 0, 75, 0
2, 36180, Note_on_c, 0, 73, 107
2, 36228, Note_on_c, 0, 73, 0
2, 36240, Note_on_c, 0, 71, 107
2, 36252, Note_on_c, 0, 76, 0
2, 36288, Note_on_c, 0, 71, 0
2, 36300, Note_on_c, 0, 76, 107
2, 36300, Note_on_c, 0, 69, 107
2, 36348, Note_on_c, 0, 76, 0
2, 36360, Note_on_c, 0, 76, 107
2, 36408, Note_on_c, 0, 76, 0
2, 36420, Note_on_c, 0, 75, 107
2, 36468, Note_on_c, 0, 75, 0
2, 36480, Note_on_c, 0, 73, 107
2, 36528, Note_on_c, 0, 73, 0
2, 36540, Note_on_c, 0, 72, 107
2, 36588, Note_on_c, 0, 69, 0
2, 36600, Note_on_c, 0, 68, 107
2, 36636, Note_on_c, 0, 72, 0
2, 36660, Note_on_c, 0, 70, 107
2, 36708, Note_on_c, 0, 70, 0
2, 36720, Note_on_c, 0, 72, 107
2, 36744, Note_on_c, 0, 68, 0
2, 36768, Note_on_c, 0, 72, 0
2, 36780, Note_on_c, 0, 68, 107
2, 36780, Note_on_c, 0, 73, 107
2, 36828, Note_on_c, 0, 73, 0
2, 36840, Note_on_c, 0, 72, 107
2, 36888, Note_on_c, 0, 72, 0
2, 36900, Note_on_c, 0, 73, 107
2, 36948, Note_on_c, 0, 73, 0
2, 36960, Note_on_c, 0, 75, 107
2, 36972, Note_on_c, 0, 68, 0
2, 37008, Note_on_c, 0, 75, 0
2, 37020, Note_on_c, 0, 76, 107
2, 37068, Note_on_c, 0, 76, 0
2, 37080, Note_on_c, 0, 78, 107
2, 37128, Note_on_c, 0, 78, 0
2, 37140, Note_on_c, 0, 80, 107
2, 37188, Note_on_c, 0, 80, 0
2, 37200, Note_on_c, 0, 81, 107
2, 37248, Note_on_c, 0, 81, 0
2, 37260, Note_on_c, 0, 72, 107
2, 37260, Note_on_c, 0, 76, 107
2, 37272, Note_on_c, 0, 76, 0
2, 37275, Note_on_c, 0, 75, 107
2, 37287, Note_on_c, 0, 75, 0
2, 37290, Note_on_c, 0, 76, 107
2, 37302, Note_on_c, 0, 76, 0
2, 37305, Note_on_c, 0, 75, 107
2, 37317, Note_on_c, 0, 75, 0
2, 37320, Note_on_c, 0, 76, 107
2, 37332, Note_on_c, 0, 76, 0
2, 37335, Note_on_c, 0, 75, 107
2, 37347, Note_on_c, 0, 75, 0
2, 37350, Note_on_c, 0, 76, 107
2, 37362, Note_on_c, 0, 76, 0
2, 37365, Note_on_c, 0, 75, 107
2, 37377, Note_on_c, 0, 75, 0
2, 37380, Note_on_c, 0, 76, 107
2, 37392, Note_on_c, 0, 76, 0
2, 37395, Note_on_c, 0, 75, 107
2, 37407, Note_on_c, 0, 75, 0
2, 37410, Note_on_c, 0, 76, 107
2, 37422, Note_on_c, 0, 76, 0
2, 37425, Note_on_c, 0, 75, 107
2, 37437, Note_on_c, 0, 75, 0
2, 37440, Note_on_c, 0, 73, 107
2, 37452, Note_on_c, 0, 72, 0
2, 37488, Note_on_c, 0, 73, 0
2, 37500, Note_on_c, 0, 73, 107
2, 37500, Note_on_c, 0, 73, 107
2, 37548, Note_on_c, 0, 73, 0
2, 37560, Note_on_c, 0, 68, 107
2, 37620, Note_on_c, 0, 64, 107
2, 37788, Note_on_c, 0, 64, 0
2, 37788, Note_on_c, 0, 68, 0
2, 37788, Note_on_c, 0, 73, 0
2, 37800, Note_on_c, 0, 74, 107
2, 37848, Note_on_c, 0, 74, 0
2, 37860, Note_on_c, 0, 73, 107
2, 37908, Note_on_c, 0, 73, 0
2, 37920, Note_on_c, 0, 74, 107
2, 37968, Note_on_c, 0, 74, 0
2, 37980, Note_on_c, 0, 76, 107
2, 38028, Note_on_c, 0, 76, 0
2, 38040, Note_on_c, 0, 79, 107
2, 38088, Note_on_c, 0, 79, 0
2, 38100, Note_on_c, 0, 73, 107
2, 38148, Note_on_c, 0, 73, 0
2, 38160, Note_on_c, 0, 76, 107
2, 38208, Note_on_c, 0, 76, 0
2, 38220, Note_on_c, 0, 70, 107
2, 38268, Note_on_c, 0, 70, 0
2, 38280, Note_on_c, 0, 73, 107
2, 38328, Note_on_c, 0, 73, 0
2, 38340, Note_on_c, 0, 66, 107
2, 38388, Note_on_c, 0, 66, 0
2, 38400, Note_on_c, 0, 76, 107
2, 38448, Note_on_c, 0, 76, 0
2, 38460, Note_on_c, 0, 74, 107
2, 38460, Note_on_c, 0, 74, 107
2, 38508, Note_on_c, 0, 74, 0
2, 38520, Note_on_c, 0, 71, 107
2, 38580, Note_on_c, 0, 66, 107
2, 38652, Note_on_c, 0, 74, 0
2, 38700, Note_on_c, 0, 74, 107
2, 38748, Note_on_c, 0, 74, 0
2, 38748, Note_on_c, 0, 66, 0
2, 38748, Note_on_c, 0, 71, 0
2, 38760, Note_on_c, 0, 73, 107
2, 38808, Note_on_c, 0, 73, 0
2, 38820, Note_on_c, 0, 71, 107
2, 38868, Note_on_c, 0, 71, 0
2, 38880, Note_on_c, 0, 73, 107
2, 38928, Note_on_c, 0, 73, 0
2, 38940, Note_on_c, 0, 74, 107
2, 38988, Note_on_c, 0, 74, 0
2, 39000, Note_on_c, 0, 76, 107
2, 39024, Note_on_c, 0, 76, 0
2, 39030, Note_on_c, 0, 78, 107
2, 39054, Note_on_c, 0, 78, 0
2, 39060, Note_on_c, 0, 71, 107
2, 39108, Note_on_c, 0, 71, 0
2, 39120, Note_on_c, 0, 73, 107
2, 39144, Note_on_c, 0, 73, 0
2, 39150, Note_on_c, 0, 74, 107
2, 39174, Note_on_c, 0, 74, 0
2, 39180, Note_on_c, 0, 68, 107
2, 39228, Note_on_c, 0, 68, 0
2, 39240, Note_on_c, 0, 69, 107
2, 39264, Note_on_c, 0, 69, 0
2, 39270, Note_on_c, 0, 71, 107
2, 39294, Note_on_c, 0, 71, 0
2, 39300, Note_on_c, 0, 64, 107
2, 39348, Note_on_c, 0, 64, 0
2, 39360, Note_on_c, 0, 74, 107
2, 39408, Note_on_c, 0, 74, 0
2, 39420, Note_on_c, 0, 73, 107
2, 39420, Note_on_c, 0, 73, 107
2, 39468, Note_on_c, 0, 73, 0
2, 39480, Note_on_c, 0, 69, 107
2, 39540, Note_on_c, 0, 64, 107
2, 39708, Note_on_c, 0, 64, 0
2, 39708, Note_on_c, 0, 69, 0
2, 39708, Note_on_c, 0, 73, 0
2, 39720, Note_on_c, 0, 69, 107
2, 39768, Note_on_c, 0, 69, 0
2, 39780, Note_on_c, 0, 71, 107
2, 39828, Note_on_c, 0, 71, 0
2, 39840, Note_on_c, 0, 73, 107
2, 39888, Note_on_c, 0, 73, 0
2, 39900, Note_on_c, 0, 74, 107
2, 39948, Note_on_c, 0, 74, 0
2, 39960, Note_on_c, 0, 76, 107
2, 40008, Note_on_c, 0, 76, 0
2, 40020, Note_on_c, 0, 74, 107
2, 40068, Note_on_c, 0, 74, 0
2, 40080, Note_on_c, 0, 73, 107
2, 40128, Note_on_c, 0, 73, 0
2, 40140, Note_on_c, 0, 71, 107
2, 40188, Note_on_c, 0, 71, 0
2, 40200, Note_on_c, 0, 69, 107
2, 40248, Note_on_c, 0, 69, 0
2, 40260, Note_on_c, 0, 68, 107
2, 40308, Note_on_c, 0, 68, 0
2, 40320, Note_on_c, 0, 69, 107
2, 40368, Note_on_c, 0, 69, 0
2, 40380, Note_on_c, 0, 68, 107
2, 40395, Note_on_c, 0, 68, 0
2, 40395, Note_on_c, 0, 69, 107
2, 40407, Note_on_c, 0, 69, 0
2, 40410, Note_on_c, 0, 68, 107
2, 40434, Note_on_c, 0, 68, 0
2, 40440, Note_on_c, 0, 64, 107
2, 40488, Note_on_c, 0, 64, 0
2, 40500, Note_on_c, 0, 68, 107
2, 40548, Note_on_c, 0, 68, 0
2, 40560, Note_on_c, 0, 71, 107
2, 40608, Note_on_c, 0, 71, 0
2, 40620, Note_on_c, 0, 76, 107
2, 40764, Note_on_c, 0, 76, 0
2, 40800, Note_on_c, 0, 74, 107
2, 40848, Note_on_c, 0, 74, 0
2, 40860, Note_on_c, 0, 73, 107
2, 40875, Note_on_c, 0, 73, 0
2, 40875, Note_on_c, 0, 74, 107
2, 40887, Note_on_c, 0, 74, 0
2, 40890, Note_on_c, 0, 73, 107
2, 40914, Note_on_c, 0, 73, 0
2, 40920, Note_on_c, 0, 69, 107
2, 40968, Note_on_c, 0, 69, 0
2, 40980, Note_on_c, 0, 73, 107
2, 41028, Note_on_c, 0, 73, 0
2, 41040, Note_on_c, 0, 76, 107
2, 41088, Note_on_c, 0, 76, 0
2, 41100, Note_on_c, 0, 81, 107
2, 41244, Note_on_c, 0, 81, 0
2, 41280, Note_on_c, 0, 79, 107
2, 41328, Note_on_c, 0, 79, 0
2, 41340, Note_on_c, 0, 78, 107
2, 41388, Note_on_c, 0, 78, 0
2, 41400, Note_on_c, 0, 81, 107
2, 41448, Note_on_c, 0, 81, 0
2, 41460, Note_on_c, 0, 74, 107
2, 41508, Note_on_c, 0, 74, 0
2, 41520, Note_on_c, 0, 76, 107
2, 41568, Note_on_c, 0, 76, 0
2, 41580, Note_on_c, 0, 78, 107
2, 41628, Note_on_c, 0, 78, 0
2, 41640, Note_on_c, 0, 74, 107
2, 41688, Note_on_c, 0, 74, 0
2, 41700, Note_on_c, 0, 71, 107
2, 41748, Note_on_c, 0, 71, 0
2, 41760, Note_on_c, 0, 73, 107
2, 41808, Note_on_c, 0, 73, 0
2, 41820, Note_on_c, 0, 74, 107
2, 41868, Note_on_c, 0, 74, 0
2, 41880, Note_on_c, 0, 78, 107
2, 41928, Note_on_c, 0, 78, 0
2, 41940, Note_on_c, 0, 71, 107
2, 41988, Note_on_c, 0, 71, 0
2, 42000, Note_on_c, 0, 73, 107
2, 42048, Note_on_c, 0, 73, 0
2, 42060, Note_on_c, 0, 74, 107
2, 42108, Note_on_c, 0, 74, 0
2, 42120, Note_on_c, 0, 71, 107
2, 42168, Note_on_c, 0, 71, 0
2, 42180, Note_on_c, 0, 68, 107
2, 42228, Note_on_c, 0, 68, 0
2, 42240, Note_on_c, 0, 69, 107
2, 42288, Note_on_c, 0, 69, 0
2, 42300, Note_on_c, 0, 68, 107
2, 42329, Note_on_c, 0, 68, 0
2, 42330, Note_on_c, 0, 69, 107
2, 42354, Note_on_c, 0, 69, 0
2, 42360, Note_on_c, 0, 68, 107
2, 42456, Note_on_c, 0, 68, 0
2, 42480, Note_on_c, 0, 66, 107
2, 42528, Note_on_c, 0, 66, 0
2, 42540, Note_on_c, 0, 64, 107
2, 42540, Note_on_c, 0, 64, 107
2, 42588, Note_on_c, 0, 64, 0
2, 42600, Note_on_c, 0, 68, 107
2, 42648, Note_on_c, 0, 68, 0
2, 42660, Note_on_c, 0, 71, 107
2, 42708, Note_on_c, 0, 71, 0
2, 42720, Note_on_c, 0, 76, 107
2, 42732, Note_on_c, 0, 64, 0
2, 42780, Note_on_c, 0, 66, 107
2, 42828, Note_on_c, 0, 76, 0
2, 42840, Note_on_c, 0, 76, 107
2, 42888, Note_on_c, 0, 76, 0
2, 42900, Note_on_c, 0, 75, 107
2, 42948, Note_on_c, 0, 75, 0
2, 42960, Note_on_c, 0, 73, 107
2, 43008, Note_on_c, 0, 73, 0
2, 43020, Note_on_c, 0, 75, 107
2, 43068, Note_on_c, 0, 75, 0
2, 43080, Note_on_c, 0, 78, 107
2, 43128, Note_on_c, 0, 78, 0
2, 43140, Note_on_c, 0, 71, 107
2, 43164, Note_on_c, 0, 66, 0
2, 43188, Note_on_c, 0, 71, 0
2, 43200, Note_on_c, 0, 73, 107
2, 43248, Note_on_c, 0, 73, 0
2, 43260, Note_on_c, 0, 74, 107
2, 43260, Note_on_c, 0, 74, 107
2, 43308, Note_on_c, 0, 74, 0
2, 43320, Note_on_c, 0, 71, 107
2, 43380, Note_on_c, 0, 68, 107
2, 43440, Note_on_c, 0, 64, 107
2, 43548, Note_on_c, 0, 64, 0
2, 43548, Note_on_c, 0, 68, 0
2, 43548, Note_on_c, 0, 71, 0
2, 43560, Note_on_c, 0, 64, 107
2, 43596, Note_on_c, 0, 74, 0
2, 43620, Note_on_c, 0, 73, 107
2, 43620, Note_on_c, 0, 69, 107
2, 43704, Note_on_c, 0, 64, 0
2, 43716, Note_on_c, 0, 69, 0
2, 43716, Note_on_c, 0, 73, 0
2, 43740, Note_on_c, 0, 71, 107
2, 43740, Note_on_c, 0, 69, 107
2, 43788, Note_on_c, 0, 69, 0
2, 43800, Note_on_c, 0, 69, 107
2, 43848, Note_on_c, 0, 69, 0
2, 43860, Note_on_c, 0, 68, 107
2, 43908, Note_on_c, 0, 68, 0
2, 43920, Note_on_c, 0, 66, 107
2, 43968, Note_on_c, 0, 66, 0
2, 43980, Note_on_c, 0, 68, 107
2, 44508, Note_on_c, 0, 68, 0
2, 44520, Note_on_c, 0, 64, 107
2, 44556, Note_on_c, 0, 71, 0
2, 44580, Note_on_c, 0, 69, 107
2, 44616, Note_on_c, 0, 64, 0
2, 44640, Note_on_c, 0, 63, 107
2, 44688, Note_on_c, 0, 63, 0
2, 44700, Note_on_c, 0, 64, 107
2, 44724, Note_on_c, 0, 69, 0
2, 44730, Note_on_c, 0, 71, 107
2, 44754, Note_on_c, 0, 71, 0
2, 44760, Note_on_c, 0, 73, 107
2, 44784, Note_on_c, 0, 73, 0
2, 44790, Note_on_c, 0, 74, 107
2, 44814, Note_on_c, 0, 74, 0
2, 44820, Note_on_c, 0, 73, 107
2, 44844, Note_on_c, 0, 73, 0
2, 44850, Note_on_c, 0, 71, 107
2, 44874, Note_on_c, 0, 71, 0
2, 44880, Note_on_c, 0, 73, 107
2, 44904, Note_on_c, 0, 73, 0
2, 44910, Note_on_c, 0, 74, 107
2, 44934, Note_on_c, 0, 74, 0
2, 44940, Note_on_c, 0, 69, 107
2, 44952, Note_on_c, 0, 69, 0
2, 44955, Note_on_c, 0, 68, 107
2, 44967, Note_on_c, 0, 68, 0
2, 44970, Note_on_c, 0, 69, 107
2, 44982, Note_on_c, 0, 69, 0
2, 44985, Note_on_c, 0, 68, 107
2, 44997, Note_on_c, 0, 68, 0
2, 45000, Note_on_c, 0, 69, 107
2, 45012, Note_on_c, 0, 69, 0
2, 45015, Note_on_c, 0, 68, 107
2, 45027, Note_on_c, 0, 68, 0
2, 45030, Note_on_c, 0, 69, 107
2, 45042, Note_on_c, 0, 69, 0
2, 45045, Note_on_c, 0, 68, 107
2, 45057, Note_on_c, 0, 68, 0
2, 45060, Note_on_c, 0, 69, 107
2, 45072, Note_on_c, 0, 69, 0
2, 45075, Note_on_c, 0, 68, 107
2, 45087, Note_on_c, 0, 68, 0
2, 45090, Note_on_c, 0, 69, 107
2, 45102, Note_on_c, 0, 69, 0
2, 45105, Note_on_c, 0, 68, 107
2, 45117, Note_on_c, 0, 68, 0
2, 45120, Note_on_c, 0, 69, 107
2, 45168, Note_on_c, 0, 69, 0
2, 45180, Note_on_c, 0, 69, 107
2, 45228, Note_on_c, 0, 64, 0
2, 45240, Note_on_c, 0, 64, 107
2, 45288, Note_on_c, 0, 64, 0
2, 45300, Note_on_c, 0, 66, 107
2, 45348, Note_on_c, 0, 66, 0
2, 45360, Note_on_c, 0, 67, 107
2, 45408, Note_on_c, 0, 67, 0
2, 45420, Note_on_c, 0, 66, 107
2, 45564, Note_on_c, 0, 66, 0
2, 45564, Note_on_c, 0, 69, 0
2, 45600, Note_on_c, 0, 66, 107
2, 45600, Note_on_c, 0, 62, 107
2, 45600, Note_on_c, 0, 68, 107
2, 45648, Note_on_c, 0, 68, 0
2, 45648, Note_on_c, 0, 62, 0
2, 45648, Note_on_c, 0, 66, 0
2, 45660, Note_on_c, 0, 61, 107
2, 45660, Note_on_c, 0, 69, 107
2, 45660, Note_on_c, 0, 64, 107
2, 45948, Note_on_c, 0, 64, 0
2, 45948, Note_on_c, 0, 69, 0
2, 45948, Note_on_c, 0, 61, 0
2, 46080, Note_on_c, 0, 71, 107
2, 46137, Note_on_c, 0, 71, 0
2, 46140, Note_on_c, 0, 71, 107
2, 46332, Note_on_c, 0, 71, 0
2, 46440, Note_on_c, 0, 68, 107
2, 46500, Note_on_c, 0, 71, 107
2, 46560, Note_on_c, 0, 76, 107
2, 46608, Note_on_c, 0, 76, 0
2, 46608, Note_on_c, 0, 71, 0
2, 46608, Note_on_c, 0, 68, 0
2, 46620, Note_on_c, 0, 61, 107
2, 46620, Note_on_c, 0, 70, 107
2, 46620, Note_on_c, 0, 66, 107
2, 47244, Note_on_c, 0, 66, 0
2, 47244, Note_on_c, 0, 70, 0
2, 47244, Note_on_c, 0, 61, 0
2, 47280, Note_on_c, 0, 64, 107
2, 47328, Note_on_c, 0, 64, 0
2, 47340, Note_on_c, 0, 62, 107
2, 47388, Note_on_c, 0, 62, 0
2, 47400, Note_on_c, 0, 66, 107
2, 47460, Note_on_c, 0, 71, 107
2, 47520, Note_on_c, 0, 74, 107
2, 47568, Note_on_c, 0, 74, 0
2, 47568, Note_on_c, 0, 71, 0
2, 47568, Note_on_c, 0, 66, 0
2, 47580, Note_on_c, 0, 76, 107
2, 47628, Note_on_c, 0, 76, 0
2, 47640, Note_on_c, 0, 79, 107
2, 47688, Note_on_c, 0, 79, 0
2, 47700, Note_on_c, 0, 73, 107
2, 47748, Note_on_c, 0, 73, 0
2, 47760, Note_on_c, 0, 76, 107
2, 47808, Note_on_c, 0, 76, 0
2, 47820, Note_on_c, 0, 70, 107
2, 47868, Note_on_c, 0, 70, 0
2, 47880, Note_on_c, 0, 73, 107
2, 47928, Note_on_c, 0, 73, 0
2, 47940, Note_on_c, 0, 66, 107
2, 47940, Note_on_c, 0, 66, 107
2, 47988, Note_on_c, 0, 66, 0
2, 48000, Note_on_c, 0, 76, 107
2, 48048, Note_on_c, 0, 76, 0
2, 48060, Note_on_c, 0, 74, 107
2, 48108, Note_on_c, 0, 66, 0
2, 48120, Note_on_c, 0, 66, 107
2, 48168, Note_on_c, 0, 66, 0
2, 48180, Note_on_c, 0, 68, 107
2, 48228, Note_on_c, 0, 68, 0
2, 48240, Note_on_c, 0, 70, 107
2, 48288, Note_on_c, 0, 70, 0
2, 48300, Note_on_c, 0, 71, 107
2, 48348, Note_on_c, 0, 71, 0
2, 48360, Note_on_c, 0, 74, 107
2, 48408, Note_on_c, 0, 74, 0
2, 48420, Note_on_c, 0, 67, 107
2, 48444, Note_on_c, 0, 74, 0
2, 48468, Note_on_c, 0, 67, 0
2, 48480, Note_on_c, 0, 71, 107
2, 48528, Note_on_c, 0, 71, 0
2, 48540, Note_on_c, 0, 68, 107
2, 48540, Note_on_c, 0, 73, 107
2, 48540, Note_on_c, 0, 65, 107
2, 48924, Note_on_c, 0, 65, 0
2, 48924, Note_on_c, 0, 68, 0
2, 49020, Note_on_c, 0, 69, 107
2, 49020, Note_on_c, 0, 66, 107
2, 49212, Note_on_c, 0, 66, 0
2, 49212, Note_on_c, 0, 69, 0
2, 49212, Note_on_c, 0, 73, 0
2, 49260, Note_on_c, 0, 59, 107
2, 49260, Note_on_c, 0, 59, 107
2, 49308, Note_on_c, 0, 59, 0
2, 49320, Note_on_c, 0, 63, 107
2, 49380, Note_on_c, 0, 66, 107
2, 49440, Note_on_c, 0, 71, 107
2, 49452, Note_on_c, 0, 59, 0
2, 49488, Note_on_c, 0, 63, 0
2, 49488, Note_on_c, 0, 66, 0
2, 49488, Note_on_c, 0, 71, 0
2, 49500, Note_on_c, 0, 65, 107
2, 49500, Note_on_c, 0, 71, 107
2, 49548, Note_on_c, 0, 71, 0
2, 49560, Note_on_c, 0, 68, 107
2, 49596, Note_on_c, 0, 65, 0
2, 49608, Note_on_c, 0, 68, 0
2, 49620, Note_on_c, 0, 73, 107
2, 49668, Note_on_c, 0, 73, 0
2, 49680, Note_on_c, 0, 71, 107
2, 49728, Note_on_c, 0, 71, 0
2, 49740, Note_on_c, 0, 69, 107
2, 49800, Note_on_c, 0, 66, 107
2, 49836, Note_on_c, 0, 69, 0
2, 49860, Note_on_c, 0, 74, 107
2, 49896, Note_on_c, 0, 66, 0
2, 49920, Note_on_c, 0, 65, 107
2, 49956, Note_on_c, 0, 74, 0
2, 49968, Note_on_c, 0, 65, 0
2, 49980, Note_on_c, 0, 73, 107
2, 50040, Note_on_c, 0, 64, 107
2, 50088, Note_on_c, 0, 64, 0
2, 50100, Note_on_c, 0, 66, 107
2, 50124, Note_on_c, 0, 73, 0
2, 50160, Note_on_c, 0, 71, 107
2, 50208, Note_on_c, 0, 71, 0
2, 50220, Note_on_c, 0, 69, 107
2, 50268, Note_on_c, 0, 66, 0
2, 50280, Note_on_c, 0, 66, 107
2, 50316, Note_on_c, 0, 69, 0
2, 50340, Note_on_c, 0, 68, 107
2, 50376, Note_on_c, 0, 66, 0
2, 50400, Note_on_c, 0, 64, 107
2, 50436, Note_on_c, 0, 68, 0
2, 50448, Note_on_c, 0, 64, 0
2, 50460, Note_on_c, 0, 66, 107
2, 50460, Note_on_c, 0, 66, 107
2, 50508, Note_on_c, 0, 66, 0
2, 50508, Note_on_c, 0, 66, 0
2, 50520, Note_on_c, 0, 73, 107
2, 50520, Note_on_c, 0, 58, 107
2, 50568, Note_on_c, 0, 58, 0
2, 50568, Note_on_c, 0, 73, 0
2, 50580, Note_on_c, 0, 61, 107
2, 50580, Note_on_c, 0, 78, 107
2, 50628, Note_on_c, 0, 78, 0
2, 50628, Note_on_c, 0, 61, 0
2, 50640, Note_on_c, 0, 80, 107
2, 50640, Note_on_c, 0, 65, 107
2, 50688, Note_on_c, 0, 65, 0
2, 50688, Note_on_c, 0, 80, 0
2, 50700, Note_on_c, 0, 81, 107
2, 50700, Note_on_c, 0, 66, 107
2, 50748, Note_on_c, 0, 66, 0
2, 50760, Note_on_c, 0, 69, 107
2, 50808, Note_on_c, 0, 69, 0
2, 50820, Note_on_c, 0, 62, 107
2, 50844, Note_on_c, 0, 81, 0
2, 50868, Note_on_c, 0, 62, 0
2, 50880, Note_on_c, 0, 66, 107
2, 50880, Note_on_c, 0, 81, 107
2, 50928, Note_on_c, 0, 81, 0
2, 50928, Note_on_c, 0, 66, 0
2, 50940, Note_on_c, 0, 60, 107
2, 50940, Note_on_c, 0, 81, 107
2, 50988, Note_on_c, 0, 81, 0
2, 51000, Note_on_c, 0, 78, 107
2, 51048, Note_on_c, 0, 78, 0
2, 51060, Note_on_c, 0, 75, 107
2, 51108, Note_on_c, 0, 75, 0
2, 51120, Note_on_c, 0, 78, 107
2, 51132, Note_on_c, 0, 60, 0
2, 51168, Note_on_c, 0, 78, 0
2, 51180, Note_on_c, 0, 72, 107
2, 51228, Note_on_c, 0, 72, 0
2, 51240, Note_on_c, 0, 75, 107
2, 51288, Note_on_c, 0, 75, 0
2, 51300, Note_on_c, 0, 68, 107
2, 51348, Note_on_c, 0, 68, 0
2, 51360, Note_on_c, 0, 78, 107
2, 51408, Note_on_c, 0, 78, 0
2, 51420, Note_on_c, 0, 76, 107
2, 51420, Note_on_c, 0, 76, 107
2, 51468, Note_on_c, 0, 76, 0
2, 51480, Note_on_c, 0, 75, 107
2, 51528, Note_on_c, 0, 75, 0
2, 51540, Note_on_c, 0, 73, 107
2, 51588, Note_on_c, 0, 73, 0
2, 51600, Note_on_c, 0, 71, 107
2, 51612, Note_on_c, 0, 76, 0
2, 51648, Note_on_c, 0, 71, 0
2, 51660, Note_on_c, 0, 76, 107
2, 51660, Note_on_c, 0, 69, 107
2, 51708, Note_on_c, 0, 76, 0
2, 51720, Note_on_c, 0, 76, 107
2, 51768, Note_on_c, 0, 76, 0
2, 51780, Note_on_c, 0, 75, 107
2, 51828, Note_on_c, 0, 75, 0
2, 51840, Note_on_c, 0, 73, 107
2, 51888, Note_on_c, 0, 73, 0
2, 51900, Note_on_c, 0, 72, 107
2, 51948, Note_on_c, 0, 69, 0
2, 51960, Note_on_c, 0, 68, 107
2, 51996, Note_on_c, 0, 72, 0
2, 52020, Note_on_c, 0, 70, 107
2, 52068, Note_on_c, 0, 70, 0
2, 52080, Note_on_c, 0, 72, 107
2, 52104, Note_on_c, 0, 68, 0
2, 52128, Note_on_c, 0, 72, 0
2, 52140, Note_on_c, 0, 68, 107
2, 52140, Note_on_c, 0, 73, 107
2, 52188, Note_on_c, 0, 73, 0
2, 52200, Note_on_c, 0, 72, 107
2, 52248, Note_on_c, 0, 72, 0
2, 52260, Note_on_c, 0, 73, 107
2, 52308, Note_on_c, 0, 73, 0
2, 52320, Note_on_c, 0, 75, 107
2, 52332, Note_on_c, 0, 68, 0
2, 52368, Note_on_c, 0, 75, 0
2, 52380, Note_on_c, 0, 76, 107
2, 52428, Note_on_c, 0, 76, 0
2, 52440, Note_on_c, 0, 78, 107
2, 52488, Note_on_c, 0, 78, 0
2, 52500, Note_on_c, 0, 80, 107
2, 52548, Note_on_c, 0, 80, 0
2, 52560, Note_on_c, 0, 81, 107
2, 52608, Note_on_c, 0, 81, 0
2, 52620, Note_on_c, 0, 72, 107
2, 52620, Note_on_c, 0, 76, 107
2, 52632, Note_on_c, 0, 76, 0
2, 52635, Note_on_c, 0, 75, 107
2, 52647, Note_on_c, 0, 75, 0
2, 52650, Note_on_c, 0, 76, 107
2, 52662, Note_on_c, 0, 76, 0
2, 52665, Note_on_c, 0, 75, 107
2, 52677, Note_on_c, 0, 75, 0
2, 52680, Note_on_c, 0, 76, 107
2, 52692, Note_on_c, 0, 76, 0
2, 52695, Note_on_c, 0, 75, 107
2, 52707, Note_on_c, 0, 75, 0
2, 52710, Note_on_c, 0, 76, 107
2, 52722, Note_on_c, 0, 76, 0
2, 52725, Note_on_c, 0, 75, 107
2, 52737, Note_on_c, 0, 75, 0
2, 52740, Note_on_c, 0, 76, 107
2, 52752, Note_on_c, 0, 76, 0
2, 52755, Note_on_c, 0, 75, 107
2, 52767, Note_on_c, 0, 75, 0
2, 52770, Note_on_c, 0, 76, 107
2, 52782, Note_on_c, 0, 76, 0
2, 52785, Note_on_c, 0, 75, 107
2, 52797, Note_on_c, 0, 75, 0
2, 52800, Note_on_c, 0, 73, 107
2, 52812, Note_on_c, 0, 72, 0
2, 52848, Note_on_c, 0, 73, 0
2, 52860, Note_on_c, 0, 73, 107
2, 52860, Note_on_c, 0, 73, 107
2, 52908, Note_on_c, 0, 73, 0
2, 52920, Note_on_c, 0, 68, 107
2, 52980, Note_on_c, 0, 64, 107
2, 53148, Note_on_c, 0, 64, 0
2, 53148, Note_on_c, 0, 68, 0
2, 53148, Note_on_c, 0, 73, 0
2, 53160, Note_on_c, 0, 74, 107
2, 53208, Note_on_c, 0, 74, 0
2, 53220, Note_on_c, 0, 73, 107
2, 53268, Note_on_c, 0, 73, 0
2, 53280, Note_on_c, 0, 74, 107
2, 53328, Note_on_c, 0, 74, 0
2, 53340, Note_on_c, 0, 76, 107
2, 53388, Note_on_c, 0, 76, 0
2, 53400, Note_on_c, 0, 79, 107
2, 53448, Note_on_c, 0, 79, 0
2, 53460, Note_on_c, 0, 73, 107
2, 53508, Note_on_c, 0, 73, 0
2, 53520, Note_on_c, 0, 76, 107
2, 53568, Note_on_c, 0, 76, 0
2, 53580, Note_on_c, 0, 70, 107
2, 53628, Note_on_c, 0, 70, 0
2, 53640, Note_on_c, 0, 73, 107
2, 53688, Note_on_c, 0, 73, 0
2, 53700, Note_on_c, 0, 66, 107
2, 53748, Note_on_c, 0, 66, 0
2, 53760, Note_on_c, 0, 76, 107
2, 53808, Note_on_c, 0, 76, 0
2, 53820, Note_on_c, 0, 74, 107
2, 53820, Note_on_c, 0, 74, 107
2, 53868, Note_on_c, 0, 74, 0
2, 53880, Note_on_c, 0, 71, 107
2, 53940, Note_on_c, 0, 66, 107
2, 54012, Note_on_c, 0, 74, 0
2, 54060, Note_on_c, 0, 74, 107
2, 54108, Note_on_c, 0, 74, 0
2, 54108, Note_on_c, 0, 66, 0
2, 54108, Note_on_c, 0, 71, 0
2, 54120, Note_on_c, 0, 73, 107
2, 54168, Note_on_c, 0, 73, 0
2, 54180, Note_on_c, 0, 71, 107
2, 54228, Note_on_c, 0, 71, 0
2, 54240, Note_on_c, 0, 73, 107
2, 54288, Note_on_c, 0, 73, 0
2, 54300, Note_on_c, 0, 74, 107
2, 54348, Note_on_c, 0, 74, 0
2, 54360, Note_on_c, 0, 76, 107
2, 54384, Note_on_c, 0, 76, 0
2, 54390, Note_on_c, 0, 78, 107
2, 54414, Note_on_c, 0, 78, 0
2, 54420, Note_on_c, 0, 71, 107
2, 54468, Note_on_c, 0, 71, 0
2, 54480, Note_on_c, 0, 73, 107
2, 54504, Note_on_c, 0, 73, 0
2, 54510, Note_on_c, 0, 74, 107
2, 54534, Note_on_c, 0, 74, 0
2, 54540, Note_on_c, 0, 68, 107
2, 54588, Note_on_c, 0, 68, 0
2, 54600, Note_on_c, 0, 69, 107
2, 54624, Note_on_c, 0, 69, 0
2, 54630, Note_on_c, 0, 71, 107
2, 54654, Note_on_c, 0, 71, 0
2, 54660, Note_on_c, 0, 64, 107
2, 54708, Note_on_c, 0, 64, 0
2, 54720, Note_on_c, 0, 74, 107
2, 54768, Note_on_c, 0, 74, 0
2, 54780, Note_on_c, 0, 73, 107
2, 54780, Note_on_c, 0, 73, 107
2, 54828, Note_on_c, 0, 73, 0
2, 54840, Note_on_c, 0, 69, 107
2, 54900, Note_on_c, 0, 64, 107
2, 55068, Note_on_c, 0, 64, 0
2, 55068, Note_on_c, 0, 69, 0
2, 55068, Note_on_c, 0, 73, 0
2, 55080, Note_on_c, 0, 69, 107
2, 55128, Note_on_c, 0, 69, 0
2, 55140, Note_on_c, 0, 71, 107
2, 55188, Note_on_c, 0, 71, 0
2, 55200, Note_on_c, 0, 73, 107
2, 55248, Note_on_c, 0, 73, 0
2, 55260, Note_on_c, 0, 74, 107
2, 55308, Note_on_c, 0, 74, 0
2, 55320, Note_on_c, 0, 76, 107
2, 55368, Note_on_c, 0, 76, 0
2, 55380, Note_on_c, 0, 74, 107
2, 55428, Note_on_c, 0, 74, 0
2, 55440, Note_on_c, 0, 73, 107
2, 55488, Note_on_c, 0, 73, 0
2, 55500, Note_on_c, 0, 71, 107
2, 55548, Note_on_c, 0, 71, 0
2, 55560, Note_on_c, 0, 69, 107
2, 55608, Note_on_c, 0, 69, 0
2, 55620, Note_on_c, 0, 68, 107
2, 55668, Note_on_c, 0, 68, 0
2, 55680, Note_on_c, 0, 69, 107
2, 55728, Note_on_c, 0, 69, 0
2, 55740, Note_on_c, 0, 68, 107
2, 55755, Note_on_c, 0, 68, 0
2, 55755, Note_on_c, 0, 69, 107
2, 55767, Note_on_c, 0, 69, 0
2, 55770, Note_on_c, 0, 68, 107
2, 55794, Note_on_c, 0, 68, 0
2, 55800, Note_on_c, 0, 64, 107
2, 55848, Note_on_c, 0, 64, 0
2, 55860, Note_on_c, 0, 68, 107
2, 55908, Note_on_c, 0, 68, 0
2, 55920, Note_on_c, 0, 71, 107
2, 55968, Note_on_c, 0, 71, 0
2, 55980, Note_on_c, 0, 76, 107
2, 56124, Note_on_c, 0, 76, 0
2, 56160, Note_on_c, 0, 74, 107
2, 56208, Note_on_c, 0, 74, 0
2, 56220, Note_on_c, 0, 73, 107
2, 56235, Note_on_c, 0, 73, 0
2, 56235, Note_on_c, 0, 74, 107
2, 56247, Note_on_c, 0, 74, 0
2, 56250, Note_on_c, 0, 73, 107
2, 56274, Note_on_c, 0, 73, 0
2, 56280, Note_on_c, 0, 69, 107
2, 56328, Note_on_c, 0, 69, 0
2, 56340, Note_on_c, 0, 73, 107
2, 56388, Note_on_c, 0, 73, 0
2, 56400, Note_on_c, 0, 76, 107
2, 56448, Note_on_c, 0, 76, 0
2, 56460, Note_on_c, 0, 81, 107
2, 56604, Note_on_c, 0, 81, 0
2, 56640, Note_on_c, 0, 79, 107
2, 56688, Note_on_c, 0, 79, 0
2, 56700, Note_on_c, 0, 78, 107
2, 56748, Note_on_c, 0, 78, 0
2, 56760, Note_on_c, 0, 81, 107
2, 56808, Note_on_c, 0, 81, 0
2, 56820, Note_on_c, 0, 74, 107
2, 56868, Note_on_c, 0, 74, 0
2, 56880, Note_on_c, 0, 76, 107
2, 56928, Note_on_c, 0, 76, 0
2, 56940, Note_on_c, 0, 78, 107
2, 56988, Note_on_c, 0, 78, 0
2, 57000, Note_on_c, 0, 74, 107
2, 57048, Note_on_c, 0, 74, 0
2, 57060, Note_on_c, 0, 71, 107
2, 57108, Note_on_c, 0, 71, 0
2, 57120, Note_on_c, 0, 73, 107
2, 57168, Note_on_c, 0, 73, 0
2, 57180, Note_on_c, 0, 74, 107
2, 57228, Note_on_c, 0, 74, 0
2, 57240, Note_on_c, 0, 78, 107
2, 57288, Note_on_c, 0, 78, 0
2, 57300, Note_on_c, 0, 71, 107
2, 57348, Note_on_c, 0, 71, 0
2, 57360, Note_on_c, 0, 73, 107
2, 57408, Note_on_c, 0, 73, 0
2, 57420, Note_on_c, 0, 74, 107
2, 57468, Note_on_c, 0, 74, 0
2, 57480, Note_on_c, 0, 71, 107
2, 57528, Note_on_c, 0, 71, 0
2, 57540, Note_on_c, 0, 68, 107
2, 57588, Note_on_c, 0, 68, 0
2, 57600, Note_on_c, 0, 69, 107
2, 57648, Note_on_c, 0, 69, 0
2, 57660, Note_on_c, 0, 68, 107
2, 57689, Note_on_c, 0, 68, 0
2, 57690, Note_on_c, 0, 69, 107
2, 57714, Note_on_c, 0, 69, 0
2, 57720, Note_on_c, 0, 68, 107
2, 57816, Note_on_c, 0, 68, 0
2, 57840, Note_on_c, 0, 66, 107
2, 57888, Note_on_c, 0, 66, 0
2, 57900, Note_on_c, 0, 64, 107
2, 57900, Note_on_c, 0, 64, 107
2, 57948, Note_on_c, 0, 64, 0
2, 57960, Note_on_c, 0, 68, 107
2, 58008, Note_on_c, 0, 68, 0
2, 58020, Note_on_c, 0, 71, 107
2, 58068, Note_on_c, 0, 71, 0
2, 58080, Note_on_c, 0, 76, 107
2, 58092, Note_on_c, 0, 64, 0
2, 58140, Note_on_c, 0, 66, 107
2, 58188, Note_on_c, 0, 76, 0
2, 58200, Note_on_c, 0, 76, 107
2, 58248, Note_on_c, 0, 76, 0
2, 58260, Note_on_c, 0, 75, 107
2, 58308, Note_on_c, 0, 75, 0
2, 58320, Note_on_c, 0, 73, 107
2, 58368, Note_on_c, 0, 73, 0
2, 58380, Note_on_c, 0, 75, 107
2, 58428, Note_on_c, 0, 75, 0
2, 58440, Note_on_c, 0, 78, 107
2, 58488, Note_on_c, 0, 78, 0
2, 58500, Note_on_c, 0, 71, 107
2, 58524, Note_on_c, 0, 66, 0
2, 58548, Note_on_c, 0, 71, 0
2, 58560, Note_on_c, 0, 73, 107
2, 58608, Note_on_c, 0, 73, 0
2, 58620, Note_on_c, 0, 74, 107
2, 58620, Note_on_c, 0, 74, 107
2, 58668, Note_on_c, 0, 74, 0
2, 58680, Note_on_c, 0, 71, 107
2, 58740, Note_on_c, 0, 68, 107
2, 58800, Note_on_c, 0, 64, 107
2, 58908, Note_on_c, 0, 64, 0
2, 58908, Note_on_c, 0, 68, 0
2, 58908, Note_on_c, 0, 71, 0
2, 58920, Note_on_c, 0, 64, 107
2, 58956, Note_on_c, 0, 74, 0
2, 58980, Note_on_c, 0, 73, 107
2, 58980, Note_on_c, 0, 69, 107
2, 59064, Note_on_c, 0, 64, 0
2, 59076, Note_on_c, 0, 69, 0
2, 59076, Note_on_c, 0, 73, 0
2, 59100, Note_on_c, 0, 71, 107
2, 59100, Note_on_c, 0, 69, 107
2, 59148, Note_on_c, 0, 69, 0
2, 59160, Note_on_c, 0, 69, 107
2, 59208, Note_on_c, 0, 69, 0
2, 59220, Note_on_c, 0, 68, 107
2, 59268, Note_on_c, 0, 68, 0
2, 59280, Note_on_c, 0, 66, 107
2, 59328, Note_on_c, 0, 66, 0
2, 59340, Note_on_c, 0, 68, 107
2, 59868, Note_on_c, 0, 68, 0
2, 59880, Note_on_c, 0, 64, 107
2, 59916, Note_on_c, 0, 71, 0
2, 59940, Note_on_c, 0, 69, 107
2, 59976, Note_on_c, 0, 64, 0
2, 60000, Note_on_c, 0, 63, 107
2, 60048, Note_on_c, 0, 63, 0
2, 60060, Note_on_c, 0, 64, 107
2, 60084, Note_on_c, 0, 69, 0
2, 60090, Note_on_c, 0, 71, 107
2, 60114, Note_on_c, 0, 71, 0
2, 60120, Note_on_c, 0, 73, 107
2, 60144, Note_on_c, 0, 73, 0
2, 60150, Note_on_c, 0, 74, 107
2, 60174, Note_on_c, 0, 74, 0
2, 60180, Note_on_c, 0, 73, 107
2, 60204, Note_on_c, 0, 73, 0
2, 60210, Note_on_c, 0, 71, 107
2, 60234, Note_on_c, 0, 71, 0
2, 60240, Note_on_c, 0, 73, 107
2, 60264, Note_on_c, 0, 73, 0
2, 60270, Note_on_c, 0, 74, 107
2, 60294, Note_on_c, 0, 74, 0
2, 60300, Note_on_c, 0, 69, 107
2, 60312, Note_on_c, 0, 69, 0
2, 60315, Note_on_c, 0, 68, 107
2, 60327, Note_on_c, 0, 68, 0
2, 60330, Note_on_c, 0, 69, 107
2, 60342, Note_on_c, 0, 69, 0
2, 60345, Note_on_c, 0, 68, 107
2, 60357, Note_on_c, 0, 68, 0
2, 60360, Note_on_c, 0, 69, 107
2, 60372, Note_on_c, 0, 69, 0
2, 60375, Note_on_c, 0, 68, 107
2, 60387, Note_on_c, 0, 68, 0
2, 60390, Note_on_c, 0, 69, 107
2, 60402, Note_on_c, 0, 69, 0
2, 60405, Note_on_c, 0, 68, 107
2, 60417, Note_on_c, 0, 68, 0
2, 60420, Note_on_c, 0, 69, 107
2, 60432, Note_on_c, 0, 69, 0
2, 60435, Note_on_c, 0, 68, 107
2, 60447, Note_on_c, 0, 68, 0
2, 60450, Note_on_c, 0, 69, 107
2, 60462, Note_on_c, 0, 69, 0
2, 60465, Note_on_c, 0, 68, 107
2, 60477, Note_on_c, 0, 68, 0
2, 60480, Note_on_c, 0, 69, 107
2, 60528, Note_on_c, 0, 69, 0
2, 60540, Note_on_c, 0, 69, 107
2, 60588, Note_on_c, 0, 64, 0
2, 60600, Note_on_c, 0, 64, 107
2, 60648, Note_on_c, 0, 64, 0
2, 60660, Note_on_c, 0, 66, 107
2, 60708, Note_on_c, 0, 66, 0
2, 60720, Note_on_c, 0, 67, 107
2, 60768, Note_on_c, 0, 67, 0
2, 60780, Note_on_c, 0, 66, 107
2, 60924, Note_on_c, 0, 66, 0
2, 60924, Note_on_c, 0, 69, 0
2, 60960, Note_on_c, 0, 66, 107
2, 60960, Note_on_c, 0, 62, 107
2, 60960, Note_on_c, 0, 68, 107
2, 61008, Note_on_c, 0, 68, 0
2, 61008, Note_on_c, 0, 62, 0
2, 61008, Note_on_c, 0, 66, 0
2, 61020, Note_on_c, 0, 61, 107
2, 61020, Note_on_c, 0, 69, 107
2, 61020, Note_on_c, 0, 64, 107
2, 61308, Note_on_c, 0, 64, 0
2, 61308, Note_on_c, 0, 69, 0
2, 61308, Note_on_c, 0, 61, 0
2, 61308, End_track
3, 0, Start_track
3, 0, MIDI_port, 0
3, 0, Title_t, "J.S. Bach, Edition Wood"
3, 0, Program_c, 1, 0
3, 0, Control_c, 1, 7, 100
3, 0, Control_c, 1, 10, 64
3, 120, Note_on_c, 1, 57, 107
3, 180, Note_on_c, 1, 61, 107
3, 240, Note_on_c, 1, 64, 107
3, 492, Note_on_c, 1, 64, 0
3, 492, Note_on_c, 1, 61, 0
3, 540, Note_on_c, 1, 62, 107
3, 924, Note_on_c, 1, 62, 0
3, 1020, Note_on_c, 1, 64, 107
3, 1212, Note_on_c, 1, 64, 0
3, 1260, Note_on_c, 1, 66, 107
3, 1404, Note_on_c, 1, 66, 0
3, 1440, Note_on_c, 1, 68, 107
3, 1488, Note_on_c, 1, 68, 0
3, 1500, Note_on_c, 1, 69, 107
3, 1788, Note_on_c, 1, 69, 0
3, 1800, Note_on_c, 1, 71, 107
3, 1848, Note_on_c, 1, 71, 0
3, 1860, Note_on_c, 1, 64, 107
3, 1908, Note_on_c, 1, 64, 0
3, 1920, Note_on_c, 1, 66, 107
3, 1968, Note_on_c, 1, 66, 0
3, 1980, Note_on_c, 1, 67, 107
3, 2028, Note_on_c, 1, 67, 0
3, 2040, Note_on_c, 1, 64, 107
3, 2088, Note_on_c, 1, 64, 0
3, 2100, Note_on_c, 1, 61, 107
3, 2124, Note_on_c, 1, 57, 0
3, 2160, Note_on_c, 1, 57, 107
3, 2196, Note_on_c, 1, 61, 0
3, 2220, Note_on_c, 1, 66, 107
3, 2316, Note_on_c, 1, 66, 0
3, 2340, Note_on_c, 1, 65, 107
3, 2436, Note_on_c, 1, 65, 0
3, 2460, Note_on_c, 1, 64, 107
3, 2652, Note_on_c, 1, 64, 0
3, 2700, Note_on_c, 1, 64, 107
3, 2748, Note_on_c, 1, 57, 0
3, 2760, Note_on_c, 1, 61, 107
3, 2808, Note_on_c, 1, 61, 0
3, 2820, Note_on_c, 1, 54, 107
3, 2868, Note_on_c, 1, 54, 0
3, 2880, Note_on_c, 1, 56, 107
3, 2892, Note_on_c, 1, 64, 0
3, 2928, Note_on_c, 1, 56, 0
3, 2940, Note_on_c, 1, 57, 107
3, 2940, Note_on_c, 1, 63, 107
3, 2988, Note_on_c, 1, 57, 0
3, 3000, Note_on_c, 1, 54, 107
3, 3048, Note_on_c, 1, 54, 0
3, 3060, Note_on_c, 1, 51, 107
3, 3108, Note_on_c, 1, 51, 0
3, 3120, Note_on_c, 1, 47, 107
3, 3132, Note_on_c, 1, 63, 0
3, 3168, Note_on_c, 1, 47, 0
3, 3180, Note_on_c, 1, 56, 107
3, 3240, Note_on_c, 1, 59, 107
3, 3336, Note_on_c, 1, 59, 0
3, 3372, Note_on_c, 1, 56, 0
3, 3420, Note_on_c, 1, 54, 107
3, 3420, Note_on_c, 1, 61, 107
3, 3756, Note_on_c, 1, 61, 0
3, 3780, Note_on_c, 1, 59, 107
3, 3804, Note_on_c, 1, 54, 0
3, 3828, Note_on_c, 1, 59, 0
3, 3840, Note_on_c, 1, 57, 107
3, 3888, Note_on_c, 1, 57, 0
3, 3900, Note_on_c, 1, 59, 107
3, 3900, Note_on_c, 1, 52, 107
3, 4092, Note_on_c, 1, 59, 0
3, 4140, Note_on_c, 1, 59, 107
3, 4188, Note_on_c, 1, 52, 0
3, 4200, Note_on_c, 1, 54, 107
3, 4248, Note_on_c, 1, 54, 0
3, 4260, Note_on_c, 1, 47, 107
3, 4308, Note_on_c, 1, 47, 0
3, 4320, Note_on_c, 1, 49, 107
3, 4368, Note_on_c, 1, 49, 0
3, 4380, Note_on_c, 1, 50, 107
3, 4440, Note_on_c, 1, 47, 107
3, 4500, Note_on_c, 1, 44, 107
3, 4524, Note_on_c, 1, 59, 0
3, 4560, Note_on_c, 1, 40, 107
3, 4608, Note_on_c, 1, 40, 0
3, 4608, Note_on_c, 1, 44, 0
3, 4608, Note_on_c, 1, 47, 0
3, 4608, Note_on_c, 1, 50, 0
3, 4620, Note_on_c, 1, 49, 107
3, 4680, Note_on_c, 1, 57, 107
3, 4716, Note_on_c, 1, 49, 0
3, 4740, Note_on_c, 1, 47, 107
3, 4800, Note_on_c, 1, 57, 0
3, 4800, Note_on_c, 1, 56, 107
3, 4836, Note_on_c, 1, 47, 0
3, 4860, Note_on_c, 1, 56, 0
3, 4860, Note_on_c, 1, 45, 107
3, 5040, Note_on_c, 1, 52, 107
3, 5052, Note_on_c, 1, 45, 0
3, 5088, Note_on_c, 1, 52, 0
3, 5100, Note_on_c, 1, 57, 107
3, 5148, Note_on_c, 1, 57, 0
3, 5160, Note_on_c, 1, 59, 107
3, 5208, Note_on_c, 1, 59, 0
3, 5220, Note_on_c, 1, 52, 107
3, 5268, Note_on_c, 1, 52, 0
3, 5280, Note_on_c, 1, 54, 107
3, 5328, Note_on_c, 1, 54, 0
3, 5340, Note_on_c, 1, 55, 107
3, 5400, Note_on_c, 1, 52, 107
3, 5460, Note_on_c, 1, 49, 107
3, 5520, Note_on_c, 1, 45, 107
3, 5568, Note_on_c, 1, 45, 0
3, 5568, Note_on_c, 1, 55, 0
3, 5568, Note_on_c, 1, 52, 0
3, 5568, Note_on_c, 1, 49, 0
3, 5580, Note_on_c, 1, 54, 107
3, 5640, Note_on_c, 1, 62, 107
3, 5676, Note_on_c, 1, 54, 0
3, 5700, Note_on_c, 1, 52, 107
3, 5736, Note_on_c, 1, 62, 0
3, 5760, Note_on_c, 1, 61, 107
3, 5796, Note_on_c, 1, 52, 0
3, 5808, Note_on_c, 1, 61, 0
3, 5820, Note_on_c, 1, 50, 107
3, 6000, Note_on_c, 1, 57, 107
3, 6012, Note_on_c, 1, 50, 0
3, 6048, Note_on_c, 1, 57, 0
3, 6060, Note_on_c, 1, 62, 107
3, 6108, Note_on_c, 1, 62, 0
3, 6120, Note_on_c, 1, 66, 107
3, 6168, Note_on_c, 1, 66, 0
3, 6180, Note_on_c, 1, 59, 107
3, 6228, Note_on_c, 1, 59, 0
3, 6240, Note_on_c, 1, 61, 107
3, 6288, Note_on_c, 1, 61, 0
3, 6300, Note_on_c, 1, 62, 107
3, 6300, Note_on_c, 1, 62, 107
3, 6348, Note_on_c, 1, 62, 0
3, 6360, Note_on_c, 1, 59, 107
3, 6420, Note_on_c, 1, 56, 107
3, 6480, Note_on_c, 1, 52, 107
3, 6492, Note_on_c, 1, 62, 0
3, 6528, Note_on_c, 1, 59, 0
3, 6528, Note_on_c, 1, 56, 0
3, 6528, Note_on_c, 1, 52, 0
3, 6540, Note_on_c, 1, 61, 107
3, 6600, Note_on_c, 1, 64, 107
3, 6636, Note_on_c, 1, 61, 0
3, 6660, Note_on_c, 1, 59, 107
3, 6708, Note_on_c, 1, 59, 0
3, 6720, Note_on_c, 1, 57, 107
3, 6768, Note_on_c, 1, 57, 0
3, 6780, Note_on_c, 1, 55, 107
3, 6960, Note_on_c, 1, 57, 107
3, 7008, Note_on_c, 1, 57, 0
3, 7020, Note_on_c, 1, 59, 107
3, 7140, Note_on_c, 1, 64, 0
3, 7140, Note_on_c, 1, 64, 107
3, 7164, Note_on_c, 1, 55, 0
3, 7212, Note_on_c, 1, 59, 0
3, 7260, Note_on_c, 1, 57, 107
3, 7356, Note_on_c, 1, 57, 0
3, 7380, Note_on_c, 1, 61, 107
3, 7428, Note_on_c, 1, 61, 0
3, 7440, Note_on_c, 1, 57, 107
3, 7452, Note_on_c, 1, 64, 0
3, 7488, Note_on_c, 1, 57, 0
3, 7500, Note_on_c, 1, 64, 107
3, 7500, Note_on_c, 1, 64, 107
3, 7596, Note_on_c, 1, 64, 0
3, 7620, Note_on_c, 1, 52, 107
3, 7692, Note_on_c, 1, 64, 0
3, 7716, Note_on_c, 1, 52, 0
3, 7740, Note_on_c, 1, 57, 107
3, 8028, Note_on_c, 1, 57, 0
3, 8100, Note_on_c, 1, 57, 107
3, 8196, Note_on_c, 1, 57, 0
3, 8220, Note_on_c, 1, 58, 107
3, 8508, Note_on_c, 1, 58, 0
3, 8520, Note_on_c, 1, 54, 107
3, 8568, Note_on_c, 1, 54, 0
3, 8580, Note_on_c, 1, 56, 107
3, 8628, Note_on_c, 1, 56, 0
3, 8640, Note_on_c, 1, 58, 107
3, 8688, Note_on_c, 1, 58, 0
3, 8700, Note_on_c, 1, 59, 107
3, 8988, Note_on_c, 1, 59, 0
3, 9000, Note_on_c, 1, 61, 107
3, 9048, Note_on_c, 1, 61, 0
3, 9060, Note_on_c, 1, 54, 107
3, 9108, Note_on_c, 1, 54, 0
3, 9120, Note_on_c, 1, 56, 107
3, 9168, Note_on_c, 1, 56, 0
3, 9180, Note_on_c, 1, 57, 107
3, 9228, Note_on_c, 1, 57, 0
3, 9240, Note_on_c, 1, 57, 107
3, 9240, Note_on_c, 1, 54, 107
3, 9300, Note_on_c, 1, 51, 107
3, 9360, Note_on_c, 1, 47, 107
3, 9408, Note_on_c, 1, 47, 0
3, 9408, Note_on_c, 1, 57, 0
3, 9408, Note_on_c, 1, 54, 0
3, 9408, Note_on_c, 1, 51, 0
3, 9420, Note_on_c, 1, 56, 107
3, 9612, Note_on_c, 1, 56, 0
3, 9660, Note_on_c, 1, 57, 107
3, 9756, Note_on_c, 1, 57, 0
3, 9780, Note_on_c, 1, 56, 107
3, 9876, Note_on_c, 1, 56, 0
3, 9900, Note_on_c, 1, 54, 107
3, 9996, Note_on_c, 1, 54, 0
3, 10020, Note_on_c, 1, 52, 107
3, 10116, Note_on_c, 1, 52, 0
3, 10140, Note_on_c, 1, 51, 107
3, 10236, Note_on_c, 1, 51, 0
3, 10260, Note_on_c, 1, 47, 107
3, 10356, Note_on_c, 1, 47, 0
3, 10380, Note_on_c, 1, 52, 107
3, 10380, Note_on_c, 1, 52, 107
3, 10476, Note_on_c, 1, 52, 0
3, 10500, Note_on_c, 1, 40, 107
3, 10596, Note_on_c, 1, 40, 0
3, 10620, Note_on_c, 1, 45, 107
3, 10668, Note_on_c, 1, 52, 0
3, 10680, Note_on_c, 1, 52, 107
3, 10728, Note_on_c, 1, 52, 0
3, 10740, Note_on_c, 1, 54, 107
3, 10788, Note_on_c, 1, 54, 0
3, 10800, Note_on_c, 1, 56, 107
3, 10848, Note_on_c, 1, 56, 0
3, 10860, Note_on_c, 1, 57, 107
3, 10956, Note_on_c, 1, 45, 0
3, 10980, Note_on_c, 1, 45, 107
3, 11004, Note_on_c, 1, 57, 0
3, 11040, Note_on_c, 1, 56, 107
3, 11076, Note_on_c, 1, 45, 0
3, 11088, Note_on_c, 1, 56, 0
3, 11100, Note_on_c, 1, 64, 107
3, 11100, Note_on_c, 1, 46, 107
3, 11160, Note_on_c, 1, 61, 107
3, 11220, Note_on_c, 1, 58, 107
3, 11280, Note_on_c, 1, 54, 107
3, 11328, Note_on_c, 1, 61, 0
3, 11328, Note_on_c, 1, 64, 0
3, 11388, Note_on_c, 1, 46, 0
3, 11400, Note_on_c, 1, 42, 107
3, 11448, Note_on_c, 1, 42, 0
3, 11460, Note_on_c, 1, 44, 107
3, 11508, Note_on_c, 1, 44, 0
3, 11520, Note_on_c, 1, 46, 107
3, 11532, Note_on_c, 1, 54, 0
3, 11532, Note_on_c, 1, 58, 0
3, 11568, Note_on_c, 1, 46, 0
3, 11580, Note_on_c, 1, 35, 107
3, 11628, Note_on_c, 1, 35, 0
3, 11640, Note_on_c, 1, 47, 107
3, 11700, Note_on_c, 1, 51, 107
3, 11760, Note_on_c, 1, 54, 107
3, 12012, Note_on_c, 1, 54, 0
3, 12012, Note_on_c, 1, 51, 0
3, 12060, Note_on_c, 1, 52, 107
3, 12444, Note_on_c, 1, 52, 0
3, 12540, Note_on_c, 1, 54, 107
3, 12732, Note_on_c, 1, 54, 0
3, 12780, Note_on_c, 1, 56, 107
3, 12924, Note_on_c, 1, 56, 0
3, 12960, Note_on_c, 1, 58, 107
3, 13008, Note_on_c, 1, 58, 0
3, 13020, Note_on_c, 1, 59, 107
3, 13308, Note_on_c, 1, 59, 0
3, 13320, Note_on_c, 1, 61, 107
3, 13368, Note_on_c, 1, 61, 0
3, 13380, Note_on_c, 1, 54, 107
3, 13404, Note_on_c, 1, 47, 0
3, 13428, Note_on_c, 1, 54, 0
3, 13440, Note_on_c, 1, 56, 107
3, 13488, Note_on_c, 1, 56, 0
3, 13500, Note_on_c, 1, 57, 107
3, 13500, Note_on_c, 1, 47, 107
3, 13500, Note_on_c, 1, 57, 107
3, 13548, Note_on_c, 1, 57, 0
3, 13560, Note_on_c, 1, 54, 107
3, 13620, Note_on_c, 1, 51, 107
3, 13644, Note_on_c, 1, 47, 0
3, 13680, Note_on_c, 1, 47, 107
3, 13692, Note_on_c, 1, 57, 0
3, 13716, Note_on_c, 1, 51, 0
3, 13716, Note_on_c, 1, 54, 0
3, 13740, Note_on_c, 1, 56, 107
3, 13836, Note_on_c, 1, 56, 0
3, 13860, Note_on_c, 1, 55, 107
3, 13956, Note_on_c, 1, 55, 0
3, 13980, Note_on_c, 1, 54, 107
3, 14076, Note_on_c, 1, 54, 0
3, 14100, Note_on_c, 1, 52, 107
3, 14196, Note_on_c, 1, 52, 0
3, 14220, Note_on_c, 1, 54, 107
3, 14268, Note_on_c, 1, 54, 0
3, 14280, Note_on_c, 1, 56, 107
3, 14328, Note_on_c, 1, 56, 0
3, 14340, Note_on_c, 1, 57, 107
3, 14364, Note_on_c, 1, 47, 0
3, 14460, Note_on_c, 1, 52, 107
3, 14556, Note_on_c, 1, 57, 0
3, 14580, Note_on_c, 1, 56, 107
3, 14748, Note_on_c, 1, 56, 0
3, 14760, Note_on_c, 1, 57, 107
3, 14808, Note_on_c, 1, 57, 0
3, 14820, Note_on_c, 1, 54, 107
3, 14844, Note_on_c, 1, 52, 0
3, 14916, Note_on_c, 1, 54, 0
3, 14940, Note_on_c, 1, 52, 107
3, 15000, Note_on_c, 1, 40, 107
3, 15060, Note_on_c, 1, 44, 107
3, 15120, Note_on_c, 1, 47, 107
3, 15132, Note_on_c, 1, 52, 0
3, 15168, Note_on_c, 1, 44, 0
3, 15180, Note_on_c, 1, 44, 107
3, 15180, Note_on_c, 1, 52, 107
3, 15276, Note_on_c, 1, 52, 0
3, 15324, Note_on_c, 1, 47, 0
3, 15324, Note_on_c, 1, 40, 0
3, 15324, Note_on_c, 1, 44, 0
3, 15480, Note_on_c, 1, 57, 107
3, 15540, Note_on_c, 1, 61, 107
3, 15600, Note_on_c, 1, 64, 107
3, 15852, Note_on_c, 1, 64, 0
3, 15852, Note_on_c, 1, 61, 0
3, 15900, Note_on_c, 1, 62, 107
3, 16284, Note_on_c, 1, 62, 0
3, 16380, Note_on_c, 1, 64, 107
3, 16572, Note_on_c, 1, 64, 0
3, 16620, Note_on_c, 1, 66, 107
3, 16764, Note_on_c, 1, 66, 0
3, 16800, Note_on_c, 1, 68, 107
3, 16848, Note_on_c, 1, 68, 0
3, 16860, Note_on_c, 1, 69, 107
3, 17148, Note_on_c, 1, 69, 0
3, 17160, Note_on_c, 1, 71, 107
3, 17208, Note_on_c, 1, 71, 0
3, 17220, Note_on_c, 1, 64, 107
3, 17268, Note_on_c, 1, 64, 0
3, 17280, Note_on_c, 1, 66, 107
3, 17328, Note_on_c, 1, 66, 0
3, 17340, Note_on_c, 1, 67, 107
3, 17388, Note_on_c, 1, 67, 0
3, 17400, Note_on_c, 1, 64, 107
3, 17448, Note_on_c, 1, 64, 0
3, 17460, Note_on_c, 1, 61, 107
3, 17484, Note_on_c, 1, 57, 0
3, 17520, Note_on_c, 1, 57, 107
3, 17556, Note_on_c, 1, 61, 0
3, 17580, Note_on_c, 1, 66, 107
3, 17676, Note_on_c, 1, 66, 0
3, 17700, Note_on_c, 1, 65, 107
3, 17796, Note_on_c, 1, 65, 0
3, 17820, Note_on_c, 1, 64, 107
3, 18012, Note_on_c, 1, 64, 0
3, 18060, Note_on_c, 1, 64, 107
3, 18108, Note_on_c, 1, 57, 0
3, 18120, Note_on_c, 1, 61, 107
3, 18168, Note_on_c, 1, 61, 0
3, 18180, Note_on_c, 1, 54, 107
3, 18228, Note_on_c, 1, 54, 0
3, 18240, Note_on_c, 1, 56, 107
3, 18252, Note_on_c, 1, 64, 0
3, 18288, Note_on_c, 1, 56, 0
3, 18300, Note_on_c, 1, 57, 107
3, 18300, Note_on_c, 1, 63, 107
3, 18348, Note_on_c, 1, 57, 0
3, 18360, Note_on_c, 1, 54, 107
3, 18408, Note_on_c, 1, 54, 0
3, 18420, Note_on_c, 1, 51, 107
3, 18468, Note_on_c, 1, 51, 0
3, 18480, Note_on_c, 1, 47, 107
3, 18492, Note_on_c, 1, 63, 0
3, 18528, Note_on_c, 1, 47, 0
3, 18540, Note_on_c, 1, 56, 107
3, 18600, Note_on_c, 1, 59, 107
3, 18696, Note_on_c, 1, 59, 0
3, 18732, Note_on_c, 1, 56, 0
3, 18780, Note_on_c, 1, 54, 107
3, 18780, Note_on_c, 1, 61, 107
3, 19116, Note_on_c, 1, 61, 0
3, 19140, Note_on_c, 1, 59, 107
3, 19164, Note_on_c, 1, 54, 0
3, 19188, Note_on_c, 1, 59, 0
3, 19200, Note_on_c, 1, 57, 107
3, 19248, Note_on_c, 1, 57, 0
3, 19260, Note_on_c, 1, 59, 107
3, 19260, Note_on_c, 1, 52, 107
3, 19452, Note_on_c, 1, 59, 0
3, 19500, Note_on_c, 1, 59, 107
3, 19548, Note_on_c, 1, 52, 0
3, 19560, Note_on_c, 1, 54, 107
3, 19608, Note_on_c, 1, 54, 0
3, 19620, Note_on_c, 1, 47, 107
3, 19668, Note_on_c, 1, 47, 0
3, 19680, Note_on_c, 1, 49, 107
3, 19728, Note_on_c, 1, 49, 0
3, 19740, Note_on_c, 1, 50, 107
3, 19800, Note_on_c, 1, 47, 107
3, 19860, Note_on_c, 1, 44, 107
3, 19884, Note_on_c, 1, 59, 0
3, 19920, Note_on_c, 1, 40, 107
3, 19968, Note_on_c, 1, 40, 0
3, 19968, Note_on_c, 1, 44, 0
3, 19968, Note_on_c, 1, 47, 0
3, 19968, Note_on_c, 1, 50, 0
3, 19980, Note_on_c, 1, 49, 107
3, 20040, Note_on_c, 1, 57, 107
3, 20076, Note_on_c, 1, 49, 0
3, 20100, Note_on_c, 1, 47, 107
3, 20160, Note_on_c, 1, 57, 0
3, 20160, Note_on_c, 1, 56, 107
3, 20196, Note_on_c, 1, 47, 0
3, 20220, Note_on_c, 1, 56, 0
3, 20220, Note_on_c, 1, 45, 107
3, 20400, Note_on_c, 1, 52, 107
3, 20412, Note_on_c, 1, 45, 0
3, 20448, Note_on_c, 1, 52, 0
3, 20460, Note_on_c, 1, 57, 107
3, 20508, Note_on_c, 1, 57, 0
3, 20520, Note_on_c, 1, 59, 107
3, 20568, Note_on_c, 1, 59, 0
3, 20580, Note_on_c, 1, 52, 107
3, 20628, Note_on_c, 1, 52, 0
3, 20640, Note_on_c, 1, 54, 107
3, 20688, Note_on_c, 1, 54, 0
3, 20700, Note_on_c, 1, 55, 107
3, 20760, Note_on_c, 1, 52, 107
3, 20820, Note_on_c, 1, 49, 107
3, 20880, Note_on_c, 1, 45, 107
3, 20928, Note_on_c, 1, 45, 0
3, 20928, Note_on_c, 1, 55, 0
3, 20928, Note_on_c, 1, 52, 0
3, 20928, Note_on_c, 1, 49, 0
3, 20940, Note_on_c, 1, 54, 107
3, 21000, Note_on_c, 1, 62, 107
3, 21036, Note_on_c, 1, 54, 0
3, 21060, Note_on_c, 1, 52, 107
3, 21096, Note_on_c, 1, 62, 0
3, 21120, Note_on_c, 1, 61, 107
3, 21156, Note_on_c, 1, 52, 0
3, 21168, Note_on_c, 1, 61, 0
3, 21180, Note_on_c, 1, 50, 107
3, 21360, Note_on_c, 1, 57, 107
3, 21372, Note_on_c, 1, 50, 0
3, 21408, Note_on_c, 1, 57, 0
3, 21420, Note_on_c, 1, 62, 107
3, 21468, Note_on_c, 1, 62, 0
3, 21480, Note_on_c, 1, 66, 107
3, 21528, Note_on_c, 1, 66, 0
3, 21540, Note_on_c, 1, 59, 107
3, 21588, Note_on_c, 1, 59, 0
3, 21600, Note_on_c, 1, 61, 107
3, 21648, Note_on_c, 1, 61, 0
3, 21660, Note_on_c, 1, 62, 107
3, 21660, Note_on_c, 1, 62, 107
3, 21708, Note_on_c, 1, 62, 0
3, 21720, Note_on_c, 1, 59, 107
3, 21780, Note_on_c, 1, 56, 107
3, 21840, Note_on_c, 1, 52, 107
3, 21852, Note_on_c, 1, 62, 0
3, 21888, Note_on_c, 1, 59, 0
3, 21888, Note_on_c, 1, 56, 0
3, 21888, Note_on_c, 1, 52, 0
3, 21900, Note_on_c, 1, 61, 107
3, 21960, Note_on_c, 1, 64, 107
3, 21996, Note_on_c, 1, 61, 0
3, 22020, Note_on_c, 1, 59, 107
3, 22068, Note_on_c, 1, 59, 0
3, 22080, Note_on_c, 1, 57, 107
3, 22128, Note_on_c, 1, 57, 0
3, 22140, Note_on_c, 1, 55, 107
3, 22320, Note_on_c, 1, 57, 107
3, 22368, Note_on_c, 1, 57, 0
3, 22380, Note_on_c, 1, 59, 107
3, 22500, Note_on_c, 1, 64, 0
3, 22500, Note_on_c, 1, 64, 107
3, 22524, Note_on_c, 1, 55, 0
3, 22572, Note_on_c, 1, 59, 0
3, 22620, Note_on_c, 1, 57, 107
3, 22716, Note_on_c, 1, 57, 0
3, 22740, Note_on_c, 1, 61, 107
3, 22788, Note_on_c, 1, 61, 0
3, 22800, Note_on_c, 1, 57, 107
3, 22812, Note_on_c, 1, 64, 0
3, 22848, Note_on_c, 1, 57, 0
3, 22860, Note_on_c, 1, 64, 107
3, 22860, Note_on_c, 1, 64, 107
3, 22956, Note_on_c, 1, 64, 0
3, 22980, Note_on_c, 1, 52, 107
3, 23052, Note_on_c, 1, 64, 0
3, 23076, Note_on_c, 1, 52, 0
3, 23100, Note_on_c, 1, 57, 107
3, 23388, Note_on_c, 1, 57, 0
3, 23460, Note_on_c, 1, 57, 107
3, 23556, Note_on_c, 1, 57, 0
3, 23580, Note_on_c, 1, 58, 107
3, 23868, Note_on_c, 1, 58, 0
3, 23880, Note_on_c, 1, 54, 107
3, 23928, Note_on_c, 1, 54, 0
3, 23940, Note_on_c, 1, 56, 107
3, 23988, Note_on_c, 1, 56, 0
3, 24000, Note_on_c, 1, 58, 107
3, 24048, Note_on_c, 1, 58, 0
3, 24060, Note_on_c, 1, 59, 107
3, 24348, Note_on_c, 1, 59, 0
3, 24360, Note_on_c, 1, 61, 107
3, 24408, Note_on_c, 1, 61, 0
3, 24420, Note_on_c, 1, 54, 107
3, 24468, Note_on_c, 1, 54, 0
3, 24480, Note_on_c, 1, 56, 107
3, 24528, Note_on_c, 1, 56, 0
3, 24540, Note_on_c, 1, 57, 107
3, 24588, Note_on_c, 1, 57, 0
3, 24600, Note_on_c, 1, 57, 107
3, 24600, Note_on_c, 1, 54, 107
3, 24660, Note_on_c, 1, 51, 107
3, 24720, Note_on_c, 1, 47, 107
3, 24768, Note_on_c, 1, 47, 0
3, 24768, Note_on_c, 1, 57, 0
3, 24768, Note_on_c, 1, 54, 0
3, 24768, Note_on_c, 1, 51, 0
3, 24780, Note_on_c, 1, 56, 107
3, 24972, Note_on_c, 1, 56, 0
3, 25020, Note_on_c, 1, 57, 107
3, 25116, Note_on_c, 1, 57, 0
3, 25140, Note_on_c, 1, 56, 107
3, 25236, Note_on_c, 1, 56, 0
3, 25260, Note_on_c, 1, 54, 107
3, 25356, Note_on_c, 1, 54, 0
3, 25380, Note_on_c, 1, 52, 107
3, 25476, Note_on_c, 1, 52, 0
3, 25500, Note_on_c, 1, 51, 107
3, 25596, Note_on_c, 1, 51, 0
3, 25620, Note_on_c, 1, 47, 107
3, 25716, Note_on_c, 1, 47, 0
3, 25740, Note_on_c, 1, 52, 107
3, 25740, Note_on_c, 1, 52, 107
3, 25836, Note_on_c, 1, 52, 0
3, 25860, Note_on_c, 1, 40, 107
3, 25956, Note_on_c, 1, 40, 0
3, 25980, Note_on_c, 1, 45, 107
3, 26028, Note_on_c, 1, 52, 0
3, 26040, Note_on_c, 1, 52, 107
3, 26088, Note_on_c, 1, 52, 0
3, 26100, Note_on_c, 1, 54, 107
3, 26148, Note_on_c, 1, 54, 0
3, 26160, Note_on_c, 1, 56, 107
3, 26208, Note_on_c, 1, 56, 0
3, 26220, Note_on_c, 1, 57, 107
3, 26316, Note_on_c, 1, 45, 0
3, 26340, Note_on_c, 1, 45, 107
3, 26364, Note_on_c, 1, 57, 0
3, 26400, Note_on_c, 1, 56, 107
3, 26436, Note_on_c, 1, 45, 0
3, 26448, Note_on_c, 1, 56, 0
3, 26460, Note_on_c, 1, 64, 107
3, 26460, Note_on_c, 1, 46, 107
3, 26520, Note_on_c, 1, 61, 107
3, 26580, Note_on_c, 1, 58, 107
3, 26640, Note_on_c, 1, 54, 107
3, 26688, Note_on_c, 1, 61, 0
3, 26688, Note_on_c, 1, 64, 0
3, 26748, Note_on_c, 1, 46, 0
3, 26760, Note_on_c, 1, 42, 107
3, 26808, Note_on_c, 1, 42, 0
3, 26820, Note_on_c, 1, 44, 107
3, 26868, Note_on_c, 1, 44, 0
3, 26880, Note_on_c, 1, 46, 107
3, 26892, Note_on_c, 1, 54, 0
3, 26892, Note_on_c, 1, 58, 0
3, 26928, Note_on_c, 1, 46, 0
3, 26940, Note_on_c, 1, 35, 107
3, 26988, Note_on_c, 1, 35, 0
3, 27000, Note_on_c, 1, 47, 107
3, 27060, Note_on_c, 1, 51, 107
3, 27120, Note_on_c, 1, 54, 107
3, 27372, Note_on_c, 1, 54, 0
3, 27372, Note_on_c, 1, 51, 0
3, 27420, Note_on_c, 1, 52, 107
3, 27804, Note_on_c, 1, 52, 0
3, 27900, Note_on_c, 1, 54, 107
3, 28092, Note_on_c, 1, 54, 0
3, 28140, Note_on_c, 1, 56, 107
3, 28284, Note_on_c, 1, 56, 0
3, 28320, Note_on_c, 1, 58, 107
3, 28368, Note_on_c, 1, 58, 0
3, 28380, Note_on_c, 1, 59, 107
3, 28668, Note_on_c, 1, 59, 0
3, 28680, Note_on_c, 1, 61, 107
3, 28728, Note_on_c, 1, 61, 0
3, 28740, Note_on_c, 1, 54, 107
3, 28764, Note_on_c, 1, 47, 0
3, 28788, Note_on_c, 1, 54, 0
3, 28800, Note_on_c, 1, 56, 107
3, 28848, Note_on_c, 1, 56, 0
3, 28860, Note_on_c, 1, 57, 107
3, 28860, Note_on_c, 1, 47, 107
3, 28860, Note_on_c, 1, 57, 107
3, 28908, Note_on_c, 1, 57, 0
3, 28920, Note_on_c, 1, 54, 107
3, 28980, Note_on_c, 1, 51, 107
3, 29004, Note_on_c, 1, 47, 0
3, 29040, Note_on_c, 1, 47, 107
3, 29052, Note_on_c, 1, 57, 0
3, 29076, Note_on_c, 1, 51, 0
3, 29076, Note_on_c, 1, 54, 0
3, 29100, Note_on_c, 1, 56, 107
3, 29196, Note_on_c, 1, 56, 0
3, 29220, Note_on_c, 1, 55, 107
3, 29316, Note_on_c, 1, 55, 0
3, 29340, Note_on_c, 1, 54, 107
3, 29436, Note_on_c, 1, 54, 0
3, 29460, Note_on_c, 1, 52, 107
3, 29556, Note_on_c, 1, 52, 0
3, 29580, Note_on_c, 1, 54, 107
3, 29628, Note_on_c, 1, 54, 0
3, 29640, Note_on_c, 1, 56, 107
3, 29688, Note_on_c, 1, 56, 0
3, 29700, Note_on_c, 1, 57, 107
3, 29724, Note_on_c, 1, 47, 0
3, 29820, Note_on_c, 1, 52, 107
3, 29916, Note_on_c, 1, 57, 0
3, 29940, Note_on_c, 1, 56, 107
3, 30108, Note_on_c, 1, 56, 0
3, 30120, Note_on_c, 1, 57, 107
3, 30168, Note_on_c, 1, 57, 0
3, 30180, Note_on_c, 1, 54, 107
3, 30204, Note_on_c, 1, 52, 0
3, 30276, Note_on_c, 1, 54, 0
3, 30300, Note_on_c, 1, 52, 107
3, 30360, Note_on_c, 1, 40, 107
3, 30420, Note_on_c, 1, 44, 107
3, 30480, Note_on_c, 1, 47, 107
3, 30492, Note_on_c, 1, 52, 0
3, 30528, Note_on_c, 1, 44, 0
3, 30540, Note_on_c, 1, 44, 107
3, 30540, Note_on_c, 1, 52, 107
3, 30636, Note_on_c, 1, 52, 0
3, 30684, Note_on_c, 1, 47, 0
3, 30684, Note_on_c, 1, 40, 0
3, 30684, Note_on_c, 1, 44, 0
3, 30840, Note_on_c, 1, 52, 107
3, 30900, Note_on_c, 1, 56, 107
3, 30960, Note_on_c, 1, 59, 107
3, 31020, Note_on_c, 1, 64, 107
3, 31212, Note_on_c, 1, 64, 0
3, 31212, Note_on_c, 1, 59, 0
3, 31212, Note_on_c, 1, 56, 0
3, 31308, Note_on_c, 1, 52, 0
3, 31320, Note_on_c, 1, 55, 107
3, 31368, Note_on_c, 1, 55, 0
3, 31380, Note_on_c, 1, 49, 107
3, 31428, Note_on_c, 1, 49, 0
3, 31440, Note_on_c, 1, 52, 107
3, 31488, Note_on_c, 1, 52, 0
3, 31500, Note_on_c, 1, 46, 107
3, 31548, Note_on_c, 1, 46, 0
3, 31560, Note_on_c, 1, 49, 107
3, 31608, Note_on_c, 1, 49, 0
3, 31620, Note_on_c, 1, 42, 107
3, 31668, Note_on_c, 1, 42, 0
3, 31680, Note_on_c, 1, 52, 107
3, 31728, Note_on_c, 1, 52, 0
3, 31740, Note_on_c, 1, 50, 107
3, 31740, Note_on_c, 1, 50, 107
3, 31788, Note_on_c, 1, 50, 0
3, 31800, Note_on_c, 1, 54, 107
3, 31860, Note_on_c, 1, 58, 107
3, 31920, Note_on_c, 1, 61, 107
3, 31932, Note_on_c, 1, 50, 0
3, 31968, Note_on_c, 1, 54, 0
3, 31968, Note_on_c, 1, 58, 0
3, 31968, Note_on_c, 1, 61, 0
3, 31980, Note_on_c, 1, 50, 107
3, 31980, Note_on_c, 1, 59, 107
3, 32076, Note_on_c, 1, 50, 0
3, 32100, Note_on_c, 1, 54, 107
3, 32100, Note_on_c, 1, 50, 107
3, 32196, Note_on_c, 1, 50, 0
3, 32196, Note_on_c, 1, 54, 0
3, 32220, Note_on_c, 1, 49, 107
3, 32220, Note_on_c, 1, 55, 107
3, 32316, Note_on_c, 1, 55, 0
3, 32316, Note_on_c, 1, 59, 0
3, 32340, Note_on_c, 1, 55, 107
3, 32340, Note_on_c, 1, 52, 107
3, 32412, Note_on_c, 1, 49, 0
3, 32436, Note_on_c, 1, 52, 0
3, 32436, Note_on_c, 1, 55, 0
3, 32460, Note_on_c, 1, 54, 107
3, 32460, Note_on_c, 1, 54, 107
3, 32556, Note_on_c, 1, 54, 0
3, 32580, Note_on_c, 1, 42, 107
3, 32652, Note_on_c, 1, 54, 0
3, 32676, Note_on_c, 1, 42, 0
3, 32700, Note_on_c, 1, 47, 107
3, 33228, Note_on_c, 1, 47, 0
3, 33240, Note_on_c, 1, 50, 107
3, 33288, Note_on_c, 1, 50, 0
3, 33300, Note_on_c, 1, 44, 107
3, 33348, Note_on_c, 1, 44, 0
3, 33360, Note_on_c, 1, 47, 107
3, 33408, Note_on_c, 1, 47, 0
3, 33420, Note_on_c, 1, 41, 107
3, 33468, Note_on_c, 1, 41, 0
3, 33480, Note_on_c, 1, 44, 107
3, 33528, Note_on_c, 1, 44, 0
3, 33540, Note_on_c, 1, 37, 107
3, 33588, Note_on_c, 1, 37, 0
3, 33600, Note_on_c, 1, 47, 107
3, 33648, Note_on_c, 1, 47, 0
3, 33660, Note_on_c, 1, 45, 107
3, 33660, Note_on_c, 1, 45, 107
3, 33708, Note_on_c, 1, 45, 0
3, 33720, Note_on_c, 1, 49, 107
3, 33780, Note_on_c, 1, 54, 107
3, 33840, Note_on_c, 1, 57, 107
3, 33888, Note_on_c, 1, 57, 0
3, 33888, Note_on_c, 1, 54, 0
3, 33888, Note_on_c, 1, 49, 0
3, 33900, Note_on_c, 1, 51, 107
3, 33996, Note_on_c, 1, 51, 0
3, 33996, Note_on_c, 1, 45, 0
3, 34020, Note_on_c, 1, 45, 107
3, 34116, Note_on_c, 1, 45, 0
3, 34140, Note_on_c, 1, 44, 107
3, 34188, Note_on_c, 1, 44, 0
3, 34200, Note_on_c, 1, 49, 107
3, 34248, Note_on_c, 1, 49, 0
3, 34260, Note_on_c, 1, 51, 107
3, 34308, Note_on_c, 1, 51, 0
3, 34320, Note_on_c, 1, 53, 107
3, 34368, Note_on_c, 1, 53, 0
3, 34380, Note_on_c, 1, 54, 107
3, 34428, Note_on_c, 1, 54, 0
3, 34440, Note_on_c, 1, 53, 107
3, 34488, Note_on_c, 1, 53, 0
3, 34500, Note_on_c, 1, 54, 107
3, 34548, Note_on_c, 1, 54, 0
3, 34560, Note_on_c, 1, 56, 107
3, 34608, Note_on_c, 1, 56, 0
3, 34620, Note_on_c, 1, 57, 107
3, 34668, Note_on_c, 1, 57, 0
3, 34680, Note_on_c, 1, 56, 107
3, 34728, Note_on_c, 1, 56, 0
3, 34740, Note_on_c, 1, 57, 107
3, 34788, Note_on_c, 1, 57, 0
3, 34800, Note_on_c, 1, 59, 107
3, 34848, Note_on_c, 1, 59, 0
3, 34860, Note_on_c, 1, 61, 107
3, 34956, Note_on_c, 1, 61, 0
3, 34980, Note_on_c, 1, 49, 107
3, 35076, Note_on_c, 1, 49, 0
3, 35100, Note_on_c, 1, 54, 107
3, 35292, Note_on_c, 1, 54, 0
3, 35460, Note_on_c, 1, 54, 107
3, 35556, Note_on_c, 1, 54, 0
3, 35580, Note_on_c, 1, 56, 107
3, 35868, Note_on_c, 1, 56, 0
3, 35880, Note_on_c, 1, 56, 107
3, 35928, Note_on_c, 1, 56, 0
3, 35940, Note_on_c, 1, 58, 107
3, 35988, Note_on_c, 1, 58, 0
3, 36000, Note_on_c, 1, 60, 107
3, 36048, Note_on_c, 1, 60, 0
3, 36060, Note_on_c, 1, 61, 107
3, 36108, Note_on_c, 1, 61, 0
3, 36120, Note_on_c, 1, 64, 107
3, 36168, Note_on_c, 1, 64, 0
3, 36180, Note_on_c, 1, 57, 107
3, 36228, Note_on_c, 1, 57, 0
3, 36240, Note_on_c, 1, 61, 107
3, 36288, Note_on_c, 1, 61, 0
3, 36300, Note_on_c, 1, 54, 107
3, 36348, Note_on_c, 1, 54, 0
3, 36360, Note_on_c, 1, 57, 107
3, 36408, Note_on_c, 1, 57, 0
3, 36420, Note_on_c, 1, 51, 107
3, 36468, Note_on_c, 1, 51, 0
3, 36480, Note_on_c, 1, 54, 107
3, 36528, Note_on_c, 1, 54, 0
3, 36540, Note_on_c, 1, 44, 107
3, 36540, Note_on_c, 1, 44, 107
3, 36588, Note_on_c, 1, 44, 0
3, 36600, Note_on_c, 1, 51, 107
3, 36648, Note_on_c, 1, 51, 0
3, 36660, Note_on_c, 1, 56, 107
3, 36708, Note_on_c, 1, 56, 0
3, 36720, Note_on_c, 1, 54, 107
3, 36732, Note_on_c, 1, 44, 0
3, 36768, Note_on_c, 1, 54, 0
3, 36780, Note_on_c, 1, 52, 107
3, 36840, Note_on_c, 1, 61, 107
3, 36876, Note_on_c, 1, 52, 0
3, 36900, Note_on_c, 1, 51, 107
3, 36936, Note_on_c, 1, 61, 0
3, 36960, Note_on_c, 1, 60, 107
3, 36996, Note_on_c, 1, 51, 0
3, 37008, Note_on_c, 1, 60, 0
3, 37020, Note_on_c, 1, 49, 107
3, 37068, Note_on_c, 1, 49, 0
3, 37080, Note_on_c, 1, 51, 107
3, 37128, Note_on_c, 1, 51, 0
3, 37140, Note_on_c, 1, 52, 107
3, 37188, Note_on_c, 1, 52, 0
3, 37200, Note_on_c, 1, 54, 107
3, 37248, Note_on_c, 1, 54, 0
3, 37260, Note_on_c, 1, 56, 107
3, 37260, Note_on_c, 1, 56, 107
3, 37356, Note_on_c, 1, 56, 0
3, 37380, Note_on_c, 1, 44, 107
3, 37452, Note_on_c, 1, 56, 0
3, 37476, Note_on_c, 1, 44, 0
3, 37500, Note_on_c, 1, 49, 107
3, 37500, Note_on_c, 1, 56, 107
3, 37644, Note_on_c, 1, 56, 0
3, 37680, Note_on_c, 1, 56, 107
3, 37692, Note_on_c, 1, 49, 0
3, 37728, Note_on_c, 1, 56, 0
3, 37740, Note_on_c, 1, 61, 107
3, 37769, Note_on_c, 1, 61, 0
3, 37770, Note_on_c, 1, 59, 107
3, 37794, Note_on_c, 1, 59, 0
3, 37800, Note_on_c, 1, 61, 107
3, 37896, Note_on_c, 1, 61, 0
3, 37920, Note_on_c, 1, 59, 107
3, 37968, Note_on_c, 1, 59, 0
3, 37980, Note_on_c, 1, 58, 107
3, 38028, Note_on_c, 1, 58, 0
3, 38040, Note_on_c, 1, 59, 107
3, 38088, Note_on_c, 1, 59, 0
3, 38100, Note_on_c, 1, 58, 107
3, 38148, Note_on_c, 1, 58, 0
3, 38160, Note_on_c, 1, 56, 107
3, 38208, Note_on_c, 1, 56, 0
3, 38220, Note_on_c, 1, 54, 107
3, 38268, Note_on_c, 1, 54, 0
3, 38280, Note_on_c, 1, 52, 107
3, 38328, Note_on_c, 1, 52, 0
3, 38340, Note_on_c, 1, 50, 107
3, 38388, Note_on_c, 1, 50, 0
3, 38400, Note_on_c, 1, 49, 107
3, 38448, Note_on_c, 1, 49, 0
3, 38460, Note_on_c, 1, 47, 107
3, 38640, Note_on_c, 1, 54, 107
3, 38652, Note_on_c, 1, 47, 0
3, 38688, Note_on_c, 1, 54, 0
3, 38700, Note_on_c, 1, 59, 107
3, 38729, Note_on_c, 1, 59, 0
3, 38730, Note_on_c, 1, 57, 107
3, 38754, Note_on_c, 1, 57, 0
3, 38760, Note_on_c, 1, 57, 107
3, 38856, Note_on_c, 1, 57, 0
3, 38880, Note_on_c, 1, 57, 107
3, 38928, Note_on_c, 1, 57, 0
3, 38940, Note_on_c, 1, 56, 107
3, 38988, Note_on_c, 1, 56, 0
3, 39000, Note_on_c, 1, 57, 107
3, 39048, Note_on_c, 1, 57, 0
3, 39060, Note_on_c, 1, 56, 107
3, 39108, Note_on_c, 1, 56, 0
3, 39120, Note_on_c, 1, 54, 107
3, 39168, Note_on_c, 1, 54, 0
3, 39180, Note_on_c, 1, 52, 107
3, 39228, Note_on_c, 1, 52, 0
3, 39240, Note_on_c, 1, 50, 107
3, 39288, Note_on_c, 1, 50, 0
3, 39300, Note_on_c, 1, 49, 107
3, 39348, Note_on_c, 1, 49, 0
3, 39360, Note_on_c, 1, 47, 107
3, 39408, Note_on_c, 1, 47, 0
3, 39600, Note_on_c, 1, 52, 107
3, 39648, Note_on_c, 1, 52, 0
3, 39660, Note_on_c, 1, 57, 107
3, 39689, Note_on_c, 1, 57, 0
3, 39690, Note_on_c, 1, 56, 107
3, 39714, Note_on_c, 1, 56, 0
3, 39720, Note_on_c, 1, 57, 107
3, 39833, Note_on_c, 1, 57, 0
3, 39840, Note_on_c, 1, 55, 107
3, 39888, Note_on_c, 1, 55, 0
3, 39900, Note_on_c, 1, 54, 107
3, 39948, Note_on_c, 1, 54, 0
3, 39960, Note_on_c, 1, 55, 107
3, 40008, Note_on_c, 1, 55, 0
3, 40020, Note_on_c, 1, 54, 107
3, 40068, Note_on_c, 1, 54, 0
3, 40080, Note_on_c, 1, 52, 107
3, 40128, Note_on_c, 1, 52, 0
3, 40140, Note_on_c, 1, 50, 107
3, 40188, Note_on_c, 1, 50, 0
3, 40200, Note_on_c, 1, 49, 107
3, 40248, Note_on_c, 1, 49, 0
3, 40260, Note_on_c, 1, 47, 107
3, 40308, Note_on_c, 1, 47, 0
3, 40320, Note_on_c, 1, 45, 107
3, 40368, Note_on_c, 1, 45, 0
3, 40380, Note_on_c, 1, 52, 107
3, 40524, Note_on_c, 1, 52, 0
3, 40560, Note_on_c, 1, 50, 107
3, 40608, Note_on_c, 1, 50, 0
3, 40620, Note_on_c, 1, 49, 107
3, 40635, Note_on_c, 1, 49, 0
3, 40635, Note_on_c, 1, 50, 107
3, 40647, Note_on_c, 1, 50, 0
3, 40650, Note_on_c, 1, 49, 107
3, 40674, Note_on_c, 1, 49, 0
3, 40680, Note_on_c, 1, 45, 107
3, 40728, Note_on_c, 1, 45, 0
3, 40740, Note_on_c, 1, 49, 107
3, 40788, Note_on_c, 1, 49, 0
3, 40800, Note_on_c, 1, 52, 107
3, 40848, Note_on_c, 1, 52, 0
3, 40860, Note_on_c, 1, 57, 107
3, 41004, Note_on_c, 1, 57, 0
3, 41040, Note_on_c, 1, 55, 107
3, 41088, Note_on_c, 1, 55, 0
3, 41100, Note_on_c, 1, 54, 107
3, 41115, Note_on_c, 1, 54, 0
3, 41115, Note_on_c, 1, 55, 107
3, 41127, Note_on_c, 1, 55, 0
3, 41130, Note_on_c, 1, 54, 107
3, 41154, Note_on_c, 1, 54, 0
3, 41160, Note_on_c, 1, 50, 107
3, 41208, Note_on_c, 1, 50, 0
3, 41220, Note_on_c, 1, 54, 107
3, 41268, Note_on_c, 1, 54, 0
3, 41280, Note_on_c, 1, 57, 107
3, 41328, Note_on_c, 1, 57, 0
3, 41340, Note_on_c, 1, 62, 107
3, 41436, Note_on_c, 1, 62, 0
3, 41460, Note_on_c, 1, 61, 107
3, 41556, Note_on_c, 1, 61, 0
3, 41580, Note_on_c, 1, 59, 107
3, 41676, Note_on_c, 1, 59, 0
3, 41700, Note_on_c, 1, 57, 107
3, 41796, Note_on_c, 1, 57, 0
3, 41820, Note_on_c, 1, 59, 107
3, 41916, Note_on_c, 1, 59, 0
3, 41940, Note_on_c, 1, 57, 107
3, 42036, Note_on_c, 1, 57, 0
3, 42060, Note_on_c, 1, 56, 107
3, 42156, Note_on_c, 1, 56, 0
3, 42180, Note_on_c, 1, 54, 107
3, 42276, Note_on_c, 1, 54, 0
3, 42300, Note_on_c, 1, 52, 107
3, 42300, Note_on_c, 1, 52, 107
3, 42348, Note_on_c, 1, 52, 0
3, 42360, Note_on_c, 1, 54, 107
3, 42408, Note_on_c, 1, 54, 0
3, 42420, Note_on_c, 1, 56, 107
3, 42480, Note_on_c, 1, 59, 107
3, 42732, Note_on_c, 1, 59, 0
3, 42732, Note_on_c, 1, 56, 0
3, 42780, Note_on_c, 1, 57, 107
3, 43164, Note_on_c, 1, 57, 0
3, 43260, Note_on_c, 1, 59, 107
3, 43452, Note_on_c, 1, 59, 0
3, 43500, Note_on_c, 1, 61, 107
3, 43644, Note_on_c, 1, 61, 0
3, 43680, Note_on_c, 1, 63, 107
3, 43728, Note_on_c, 1, 63, 0
3, 43740, Note_on_c, 1, 64, 107
3, 44028, Note_on_c, 1, 64, 0
3, 44040, Note_on_c, 1, 66, 107
3, 44088, Note_on_c, 1, 66, 0
3, 44100, Note_on_c, 1, 59, 107
3, 44148, Note_on_c, 1, 59, 0
3, 44160, Note_on_c, 1, 61, 107
3, 44208, Note_on_c, 1, 61, 0
3, 44220, Note_on_c, 1, 62, 107
3, 44280, Note_on_c, 1, 59, 107
3, 44340, Note_on_c, 1, 56, 107
3, 44364, Note_on_c, 1, 52, 0
3, 44400, Note_on_c, 1, 52, 107
3, 44453, Note_on_c, 1, 62, 0
3, 44453, Note_on_c, 1, 56, 0
3, 44453, Note_on_c, 1, 59, 0
3, 44460, Note_on_c, 1, 61, 107
3, 44556, Note_on_c, 1, 61, 0
3, 44580, Note_on_c, 1, 60, 107
3, 44676, Note_on_c, 1, 60, 0
3, 44700, Note_on_c, 1, 59, 107
3, 44796, Note_on_c, 1, 59, 0
3, 44820, Note_on_c, 1, 57, 107
3, 44916, Note_on_c, 1, 57, 0
3, 44940, Note_on_c, 1, 59, 107
3, 44988, Note_on_c, 1, 59, 0
3, 45000, Note_on_c, 1, 61, 107
3, 45048, Note_on_c, 1, 61, 0
3, 45060, Note_on_c, 1, 62, 107
3, 45084, Note_on_c, 1, 52, 0
3, 45180, Note_on_c, 1, 57, 107
3, 45276, Note_on_c, 1, 62, 0
3, 45300, Note_on_c, 1, 61, 107
3, 45468, Note_on_c, 1, 61, 0
3, 45480, Note_on_c, 1, 62, 107
3, 45528, Note_on_c, 1, 62, 0
3, 45540, Note_on_c, 1, 59, 107
3, 45564, Note_on_c, 1, 57, 0
3, 45636, Note_on_c, 1, 59, 0
3, 45660, Note_on_c, 1, 57, 107
3, 45720, Note_on_c, 1, 45, 107
3, 45780, Note_on_c, 1, 49, 107
3, 45840, Note_on_c, 1, 52, 107
3, 45852, Note_on_c, 1, 57, 0
3, 45888, Note_on_c, 1, 49, 0
3, 45900, Note_on_c, 1, 57, 107
3, 46044, Note_on_c, 1, 57, 0
3, 46044, Note_on_c, 1, 45, 0
3, 46044, Note_on_c, 1, 52, 0
3, 46200, Note_on_c, 1, 52, 107
3, 46260, Note_on_c, 1, 56, 107
3, 46320, Note_on_c, 1, 59, 107
3, 46380, Note_on_c, 1, 64, 107
3, 46572, Note_on_c, 1, 64, 0
3, 46572, Note_on_c, 1, 59, 0
3, 46572, Note_on_c, 1, 56, 0
3, 46668, Note_on_c, 1, 52, 0
3, 46680, Note_on_c, 1, 55, 107
3, 46728, Note_on_c, 1, 55, 0
3, 46740, Note_on_c, 1, 49, 107
3, 46788, Note_on_c, 1, 49, 0
3, 46800, Note_on_c, 1, 52, 107
3, 46848, Note_on_c, 1, 52, 0
3, 46860, Note_on_c, 1, 46, 107
3, 46908, Note_on_c, 1, 46, 0
3, 46920, Note_on_c, 1, 49, 107
3, 46968, Note_on_c, 1, 49, 0
3, 46980, Note_on_c, 1, 42, 107
3, 47028, Note_on_c, 1, 42, 0
3, 47040, Note_on_c, 1, 52, 107
3, 47088, Note_on_c, 1, 52, 0
3, 47100, Note_on_c, 1, 50, 107
3, 47100, Note_on_c, 1, 50, 107
3, 47148, Note_on_c, 1, 50, 0
3, 47160, Note_on_c, 1, 54, 107
3, 47220, Note_on_c, 1, 58, 107
3, 47280, Note_on_c, 1, 61, 107
3, 47292, Note_on_c, 1, 50, 0
3, 47328, Note_on_c, 1, 54, 0
3, 47328, Note_on_c, 1, 58, 0
3, 47328, Note_on_c, 1, 61, 0
3, 47340, Note_on_c, 1, 50, 107
3, 47340, Note_on_c, 1, 59, 107
3, 47436, Note_on_c, 1, 50, 0
3, 47460, Note_on_c, 1, 54, 107
3, 47460, Note_on_c, 1, 50, 107
3, 47556, Note_on_c, 1, 50, 0
3, 47556, Note_on_c, 1, 54, 0
3, 47580, Note_on_c, 1, 49, 107
3, 47580, Note_on_c, 1, 55, 107
3, 47676, Note_on_c, 1, 55, 0
3, 47676, Note_on_c, 1, 59, 0
3, 47700, Note_on_c, 1, 55, 107
3, 47700, Note_on_c, 1, 52, 107
3, 47772, Note_on_c, 1, 49, 0
3, 47796, Note_on_c, 1, 52, 0
3, 47796, Note_on_c, 1, 55, 0
3, 47820, Note_on_c, 1, 54, 107
3, 47820, Note_on_c, 1, 54, 107
3, 47916, Note_on_c, 1, 54, 0
3, 47940, Note_on_c, 1, 42, 107
3, 48012, Note_on_c, 1, 54, 0
3, 48036, Note_on_c, 1, 42, 0
3, 48060, Note_on_c, 1, 47, 107
3, 48588, Note_on_c, 1, 47, 0
3, 48600, Note_on_c, 1, 50, 107
3, 48648, Note_on_c, 1, 50, 0
3, 48660, Note_on_c, 1, 44, 107
3, 48708, Note_on_c, 1, 44, 0
3, 48720, Note_on_c, 1, 47, 107
3, 48768, Note_on_c, 1, 47, 0
3, 48780, Note_on_c, 1, 41, 107
3, 48828, Note_on_c, 1, 41, 0
3, 48840, Note_on_c, 1, 44, 107
3, 48888, Note_on_c, 1, 44, 0
3, 48900, Note_on_c, 1, 37, 107
3, 48948, Note_on_c, 1, 37, 0
3, 48960, Note_on_c, 1, 47, 107
3, 49008, Note_on_c, 1, 47, 0
3, 49020, Note_on_c, 1, 45, 107
3, 49020, Note_on_c, 1, 45, 107
3, 49068, Note_on_c, 1, 45, 0
3, 49080, Note_on_c, 1, 49, 107
3, 49140, Note_on_c, 1, 54, 107
3, 49200, Note_on_c, 1, 57, 107
3, 49248, Note_on_c, 1, 57, 0
3, 49248, Note_on_c, 1, 54, 0
3, 49248, Note_on_c, 1, 49, 0
3, 49260, Note_on_c, 1, 51, 107
3, 49356, Note_on_c, 1, 51, 0
3, 49356, Note_on_c, 1, 45, 0
3, 49380, Note_on_c, 1, 45, 107
3, 49476, Note_on_c, 1, 45, 0
3, 49500, Note_on_c, 1, 44, 107
3, 49548, Note_on_c, 1, 44, 0
3, 49560, Note_on_c, 1, 49, 107
3, 49608, Note_on_c, 1, 49, 0
3, 49620, Note_on_c, 1, 51, 107
3, 49668, Note_on_c, 1, 51, 0
3, 49680, Note_on_c, 1, 53, 107
3, 49728, Note_on_c, 1, 53, 0
3, 49740, Note_on_c, 1, 54, 107
3, 49788, Note_on_c, 1, 54, 0
3, 49800, Note_on_c, 1, 53, 107
3, 49848, Note_on_c, 1, 53, 0
3, 49860, Note_on_c, 1, 54, 107
3, 49908, Note_on_c, 1, 54, 0
3, 49920, Note_on_c, 1, 56, 107
3, 49968, Note_on_c, 1, 56, 0
3, 49980, Note_on_c, 1, 57, 107
3, 50028, Note_on_c, 1, 57, 0
3, 50040, Note_on_c, 1, 56, 107
3, 50088, Note_on_c, 1, 56, 0
3, 50100, Note_on_c, 1, 57, 107
3, 50148, Note_on_c, 1, 57, 0
3, 50160, Note_on_c, 1, 59, 107
3, 50208, Note_on_c, 1, 59, 0
3, 50220, Note_on_c, 1, 61, 107
3, 50316, Note_on_c, 1, 61, 0
3, 50340, Note_on_c, 1, 49, 107
3, 50436, Note_on_c, 1, 49, 0
3, 50460, Note_on_c, 1, 54, 107
3, 50652, Note_on_c, 1, 54, 0
3, 50820, Note_on_c, 1, 54, 107
3, 50916, Note_on_c, 1, 54, 0
3, 50940, Note_on_c, 1, 56, 107
3, 51228, Note_on_c, 1, 56, 0
3, 51240, Note_on_c, 1, 56, 107
3, 51288, Note_on_c, 1, 56, 0
3, 51300, Note_on_c, 1, 58, 107
3, 51348, Note_on_c, 1, 58, 0
3, 51360, Note_on_c, 1, 60, 107
3, 51408, Note_on_c, 1, 60, 0
3, 51420, Note_on_c, 1, 61, 107
3, 51468, Note_on_c, 1, 61, 0
3, 51480, Note_on_c, 1, 64, 107
3, 51528, Note_on_c, 1, 64, 0
3, 51540, Note_on_c, 1, 57, 107
3, 51588, Note_on_c, 1, 57, 0
3, 51600, Note_on_c, 1, 61, 107
3, 51648, Note_on_c, 1, 61, 0
3, 51660, Note_on_c, 1, 54, 107
3, 51708, Note_on_c, 1, 54, 0
3, 51720, Note_on_c, 1, 57, 107
3, 51768, Note_on_c, 1, 57, 0
3, 51780, Note_on_c, 1, 51, 107
3, 51828, Note_on_c, 1, 51, 0
3, 51840, Note_on_c, 1, 54, 107
3, 51888, Note_on_c, 1, 54, 0
3, 51900, Note_on_c, 1, 44, 107
3, 51900, Note_on_c, 1, 44, 107
3, 51948, Note_on_c, 1, 44, 0
3, 51960, Note_on_c, 1, 51, 107
3, 52008, Note_on_c, 1, 51, 0
3, 52020, Note_on_c, 1, 56, 107
3, 52068, Note_on_c, 1, 56, 0
3, 52080, Note_on_c, 1, 54, 107
3, 52092, Note_on_c, 1, 44, 0
3, 52128, Note_on_c, 1, 54, 0
3, 52140, Note_on_c, 1, 52, 107
3, 52200, Note_on_c, 1, 61, 107
3, 52236, Note_on_c, 1, 52, 0
3, 52260, Note_on_c, 1, 51, 107
3, 52296, Note_on_c, 1, 61, 0
3, 52320, Note_on_c, 1, 60, 107
3, 52356, Note_on_c, 1, 51, 0
3, 52368, Note_on_c, 1, 60, 0
3, 52380, Note_on_c, 1, 49, 107
3, 52428, Note_on_c, 1, 49, 0
3, 52440, Note_on_c, 1, 51, 107
3, 52488, Note_on_c, 1, 51, 0
3, 52500, Note_on_c, 1, 52, 107
3, 52548, Note_on_c, 1, 52, 0
3, 52560, Note_on_c, 1, 54, 107
3, 52608, Note_on_c, 1, 54, 0
3, 52620, Note_on_c, 1, 56, 107
3, 52620, Note_on_c, 1, 56, 107
3, 52716, Note_on_c, 1, 56, 0
3, 52740, Note_on_c, 1, 44, 107
3, 52812, Note_on_c, 1, 56, 0
3, 52836, Note_on_c, 1, 44, 0
3, 52860, Note_on_c, 1, 49, 107
3, 52860, Note_on_c, 1, 56, 107
3, 53004, Note_on_c, 1, 56, 0
3, 53040, Note_on_c, 1, 56, 107
3, 53052, Note_on_c, 1, 49, 0
3, 53088, Note_on_c, 1, 56, 0
3, 53100, Note_on_c, 1, 61, 107
3, 53129, Note_on_c, 1, 61, 0
3, 53130, Note_on_c, 1, 59, 107
3, 53154, Note_on_c, 1, 59, 0
3, 53160, Note_on_c, 1, 61, 107
3, 53256, Note_on_c, 1, 61, 0
3, 53280, Note_on_c, 1, 59, 107
3, 53328, Note_on_c, 1, 59, 0
3, 53340, Note_on_c, 1, 58, 107
3, 53388, Note_on_c, 1, 58, 0
3, 53400, Note_on_c, 1, 59, 107
3, 53448, Note_on_c, 1, 59, 0
3, 53460, Note_on_c, 1, 58, 107
3, 53508, Note_on_c, 1, 58, 0
3, 53520, Note_on_c, 1, 56, 107
3, 53568, Note_on_c, 1, 56, 0
3, 53580, Note_on_c, 1, 54, 107
3, 53628, Note_on_c, 1, 54, 0
3, 53640, Note_on_c, 1, 52, 107
3, 53688, Note_on_c, 1, 52, 0
3, 53700, Note_on_c, 1, 50, 107
3, 53748, Note_on_c, 1, 50, 0
3, 53760, Note_on_c, 1, 49, 107
3, 53808, Note_on_c, 1, 49, 0
3, 53820, Note_on_c, 1, 47, 107
3, 54000, Note_on_c, 1, 54, 107
3, 54012, Note_on_c, 1, 47, 0
3, 54048, Note_on_c, 1, 54, 0
3, 54060, Note_on_c, 1, 59, 107
3, 54089, Note_on_c, 1, 59, 0
3, 54090, Note_on_c, 1, 57, 107
3, 54114, Note_on_c, 1, 57, 0
3, 54120, Note_on_c, 1, 57, 107
3, 54216, Note_on_c, 1, 57, 0
3, 54240, Note_on_c, 1, 57, 107
3, 54288, Note_on_c, 1, 57, 0
3, 54300, Note_on_c, 1, 56, 107
3, 54348, Note_on_c, 1, 56, 0
3, 54360, Note_on_c, 1, 57, 107
3, 54408, Note_on_c, 1, 57, 0
3, 54420, Note_on_c, 1, 56, 107
3, 54468, Note_on_c, 1, 56, 0
3, 54480, Note_on_c, 1, 54, 107
3, 54528, Note_on_c, 1, 54, 0
3, 54540, Note_on_c, 1, 52, 107
3, 54588, Note_on_c, 1, 52, 0
3, 54600, Note_on_c, 1, 50, 107
3, 54648, Note_on_c, 1, 50, 0
3, 54660, Note_on_c, 1, 49, 107
3, 54708, Note_on_c, 1, 49, 0
3, 54720, Note_on_c, 1, 47, 107
3, 54768, Note_on_c, 1, 47, 0
3, 54960, Note_on_c, 1, 52, 107
3, 55008, Note_on_c, 1, 52, 0
3, 55020, Note_on_c, 1, 57, 107
3, 55049, Note_on_c, 1, 57, 0
3, 55050, Note_on_c, 1, 56, 107
3, 55074, Note_on_c, 1, 56, 0
3, 55080, Note_on_c, 1, 57, 107
3, 55193, Note_on_c, 1, 57, 0
3, 55200, Note_on_c, 1, 55, 107
3, 55248, Note_on_c, 1, 55, 0
3, 55260, Note_on_c, 1, 54, 107
3, 55308, Note_on_c, 1, 54, 0
3, 55320, Note_on_c, 1, 55, 107
3, 55368, Note_on_c, 1, 55, 0
3, 55380, Note_on_c, 1, 54, 107
3, 55428, Note_on_c, 1, 54, 0
3, 55440, Note_on_c, 1, 52, 107
3, 55488, Note_on_c, 1, 52, 0
3, 55500, Note_on_c, 1, 50, 107
3, 55548, Note_on_c, 1, 50, 0
3, 55560, Note_on_c, 1, 49, 107
3, 55608, Note_on_c, 1, 49, 0
3, 55620, Note_on_c, 1, 47, 107
3, 55668, Note_on_c, 1, 47, 0
3, 55680, Note_on_c, 1, 45, 107
3, 55728, Note_on_c, 1, 45, 0
3, 55740, Note_on_c, 1, 52, 107
3, 55884, Note_on_c, 1, 52, 0
3, 55920, Note_on_c, 1, 50, 107
3, 55968, Note_on_c, 1, 50, 0
3, 55980, Note_on_c, 1, 49, 107
3, 55995, Note_on_c, 1, 49, 0
3, 55995, Note_on_c, 1, 50, 107
3, 56007, Note_on_c, 1, 50, 0
3, 56010, Note_on_c, 1, 49, 107
3, 56034, Note_on_c, 1, 49, 0
3, 56040, Note_on_c, 1, 45, 107
3, 56088, Note_on_c, 1, 45, 0
3, 56100, Note_on_c, 1, 49, 107
3, 56148, Note_on_c, 1, 49, 0
3, 56160, Note_on_c, 1, 52, 107
3, 56208, Note_on_c, 1, 52, 0
3, 56220, Note_on_c, 1, 57, 107
3, 56364, Note_on_c, 1, 57, 0
3, 56400, Note_on_c, 1, 55, 107
3, 56448, Note_on_c, 1, 55, 0
3, 56460, Note_on_c, 1, 54, 107
3, 56475, Note_on_c, 1, 54, 0
3, 56475, Note_on_c, 1, 55, 107
3, 56487, Note_on_c, 1, 55, 0
3, 56490, Note_on_c, 1, 54, 107
3, 56514, Note_on_c, 1, 54, 0
3, 56520, Note_on_c, 1, 50, 107
3, 56568, Note_on_c, 1, 50, 0
3, 56580, Note_on_c, 1, 54, 107
3, 56628, Note_on_c, 1, 54, 0
3, 56640, Note_on_c, 1, 57, 107
3, 56688, Note_on_c, 1, 57, 0
3, 56700, Note_on_c, 1, 62, 107
3, 56796, Note_on_c, 1, 62, 0
3, 56820, Note_on_c, 1, 61, 107
3, 56916, Note_on_c, 1, 61, 0
3, 56940, Note_on_c, 1, 59, 107
3, 57036, Note_on_c, 1, 59, 0
3, 57060, Note_on_c, 1, 57, 107
3, 57156, Note_on_c, 1, 57, 0
3, 57180, Note_on_c, 1, 59, 107
3, 57276, Note_on_c, 1, 59, 0
3, 57300, Note_on_c, 1, 57, 107
3, 57396, Note_on_c, 1, 57, 0
3, 57420, Note_on_c, 1, 56, 107
3, 57516, Note_on_c, 1, 56, 0
3, 57540, Note_on_c, 1, 54, 107
3, 57636, Note_on_c, 1, 54, 0
3, 57660, Note_on_c, 1, 52, 107
3, 57660, Note_on_c, 1, 52, 107
3, 57708, Note_on_c, 1, 52, 0
3, 57720, Note_on_c, 1, 54, 107
3, 57768, Note_on_c, 1, 54, 0
3, 57780, Note_on_c, 1, 56, 107
3, 57840, Note_on_c, 1, 59, 107
3, 58092, Note_on_c, 1, 59, 0
3, 58092, Note_on_c, 1, 56, 0
3, 58140, Note_on_c, 1, 57, 107
3, 58524, Note_on_c, 1, 57, 0
3, 58620, Note_on_c, 1, 59, 107
3, 58812, Note_on_c, 1, 59, 0
3, 58860, Note_on_c, 1, 61, 107
3, 59004, Note_on_c, 1, 61, 0
3, 59040, Note_on_c, 1, 63, 107
3, 59088, Note_on_c, 1, 63, 0
3, 59100, Note_on_c, 1, 64, 107
3, 59388, Note_on_c, 1, 64, 0
3, 59400, Note_on_c, 1, 66, 107
3, 59448, Note_on_c, 1, 66, 0
3, 59460, Note_on_c, 1, 59, 107
3, 59508, Note_on_c, 1, 59, 0
3, 59520, Note_on_c, 1, 61, 107
3, 59568, Note_on_c, 1, 61, 0
3, 59580, Note_on_c, 1, 62, 107
3, 59640, Note_on_c, 1, 59, 107
3, 59700, Note_on_c, 1, 56, 107
3, 59724, Note_on_c, 1, 52, 0
3, 59760, Note_on_c, 1, 52, 107
3, 59813, Note_on_c, 1, 62, 0
3, 59813, Note_on_c, 1, 56, 0
3, 59813, Note_on_c, 1, 59, 0
3, 59820, Note_on_c, 1, 61, 107
3, 59916, Note_on_c, 1, 61, 0
3, 59940, Note_on_c, 1, 60, 107
3, 60036, Note_on_c, 1, 60, 0
3, 60060, Note_on_c, 1, 59, 107
3, 60156, Note_on_c, 1, 59, 0
3, 60180, Note_on_c, 1, 57, 107
3, 60276, Note_on_c, 1, 57, 0
3, 60300, Note_on_c, 1, 59, 107
3, 60348, Note_on_c, 1, 59, 0
3, 60360, Note_on_c, 1, 61, 107
3, 60408, Note_on_c, 1, 61, 0
3, 60420, Note_on_c, 1, 62, 107
3, 60444, Note_on_c, 1, 52, 0
3, 60540, Note_on_c, 1, 57, 107
3, 60636, Note_on_c, 1, 62, 0
3, 60660, Note_on_c, 1, 61, 107
3, 60828, Note_on_c, 1, 61, 0
3, 60840, Note_on_c, 1, 62, 107
3, 60888, Note_on_c, 1, 62, 0
3, 60900, Note_on_c, 1, 59, 107
3, 60924, Note_on_c, 1, 57, 0
3, 60996, Note_on_c, 1, 59, 0
3, 61020, Note_on_c, 1, 57, 107
3, 61080, Note_on_c, 1, 45, 107
3, 61140, Note_on_c, 1, 49, 107
3, 61200, Note_on_c, 1, 52, 107
3, 61212, Note_on_c, 1, 57, 0
3, 61248, Note_on_c, 1, 49, 0
3, 61260, Note_on_c, 1, 57, 107
3, 61404, Note_on_c, 1, 57, 0
3, 61404, Note_on_c, 1, 45, 0
3, 61404, Note_on_c, 1, 52, 0
3, 61404, End_track
4, 0, Start_track
4, 0, MIDI_port, 0
4, 0, Title_t, "Arr. Gary Bricault, (c) 1997"
4, 0, End_track
0, 0, End_of_file
