0, 0, Header, 1, 16, 384
1, 0, Start_track
1, 0, Time_signature, 2, 2, 96, 8
1, 0, Sequencer_specific, 3, 0, 0, 65
1, 0, Tempo, 1153846
1, 109244, Tempo, 1666666
1, 109824, Tempo, 1153846
1, 109824, End_track
2, 0, Start_track
2, 0, Title_t, "Mozart -Piano"
2, 0, Control_c, 0, 0, 0
2, 0, Program_c, 0, 0
2, 0, Control_c, 0, 7, 104
2, 0, Control_c, 0, 10, 84
2, 0, Control_c, 0, 91, 43
2, 0, Control_c, 0, 93, 44
2, 0, Key_signature, -2, "major"
2, 0, Control_c, 0, 121, 0
2, 96, Control_c, 0, 10, 73
2, 192, Control_c, 0, 91, 63
2, 240, Control_c, 0, 93, 40
2, 288, Program_c, 0, 0
2, 768, Note_on_c, 0, 70, 60
2, 792, Note_off_c, 0, 70, 0
2, 792, Note_on_c, 0, 72, 60
2, 816, Note_off_c, 0, 72, 0
2, 816, Note_on_c, 0, 70, 60
2, 840, Note_off_c, 0, 70, 0
2, 840, Note_on_c, 0, 72, 60
2, 864, Note_off_c, 0, 72, 0
2, 864, Note_on_c, 0, 70, 60
2, 888, Note_off_c, 0, 70, 0
2, 888, Note_on_c, 0, 72, 60
2, 912, Note_off_c, 0, 72, 0
2, 912, Note_on_c, 0, 70, 60
2, 936, Note_off_c, 0, 70, 0
2, 936, Note_on_c, 0, 72, 60
2, 960, Note_off_c, 0, 72, 0
2, 960, Note_on_c, 0, 70, 60
2, 984, Note_off_c, 0, 70, 0
2, 984, Note_on_c, 0, 72, 60
2, 1008, Note_off_c, 0, 72, 0
2, 1008, Note_on_c, 0, 69, 60
2, 1032, Note_off_c, 0, 69, 0
2, 1032, Note_on_c, 0, 70, 60
2, 1056, Note_off_c, 0, 70, 0
2, 1056, Note_on_c, 0, 72, 60
2, 1100, Note_off_c, 0, 72, 100
2, 1104, Note_on_c, 0, 74, 60
2, 1148, Note_off_c, 0, 74, 100
2, 1152, Note_on_c, 0, 70, 60
2, 1212, Note_off_c, 0, 70, 100
2, 1216, Note_on_c, 0, 69, 60
2, 1276, Note_off_c, 0, 69, 100
2, 1280, Note_on_c, 0, 72, 60
2, 1340, Note_off_c, 0, 72, 100
2, 1344, Note_on_c, 0, 70, 60
2, 1404, Note_off_c, 0, 70, 100
2, 1408, Note_on_c, 0, 69, 60
2, 1468, Note_off_c, 0, 69, 100
2, 1472, Note_on_c, 0, 75, 60
2, 1532, Note_off_c, 0, 75, 100
2, 1536, Note_on_c, 0, 72, 60
2, 1596, Note_off_c, 0, 72, 100
2, 1600, Note_on_c, 0, 70, 60
2, 1660, Note_off_c, 0, 70, 100
2, 1664, Note_on_c, 0, 74, 60
2, 1724, Note_off_c, 0, 74, 100
2, 1728, Note_on_c, 0, 72, 60
2, 1788, Note_off_c, 0, 72, 100
2, 1792, Note_on_c, 0, 70, 60
2, 1852, Note_off_c, 0, 70, 100
2, 1856, Note_on_c, 0, 77, 60
2, 1916, Note_off_c, 0, 77, 100
2, 1920, Note_on_c, 0, 74, 60
2, 2108, Note_off_c, 0, 74, 100
2, 2304, Note_on_c, 0, 79, 90
2, 2304, Note_on_c, 0, 75, 90
2, 2304, Note_on_c, 0, 70, 90
2, 2492, Note_off_c, 0, 79, 100
2, 2492, Note_off_c, 0, 75, 100
2, 2492, Note_off_c, 0, 70, 100
2, 2496, Note_on_c, 0, 77, 90
2, 2496, Note_on_c, 0, 74, 90
2, 2496, Note_on_c, 0, 70, 90
2, 2684, Note_off_c, 0, 77, 100
2, 2684, Note_off_c, 0, 74, 100
2, 2684, Note_off_c, 0, 70, 100
2, 2688, Note_on_c, 0, 77, 90
2, 2732, Note_off_c, 0, 77, 100
2, 2736, Note_on_c, 0, 82, 90
2, 2780, Note_off_c, 0, 82, 100
2, 2784, Note_on_c, 0, 81, 90
2, 2828, Note_off_c, 0, 81, 100
2, 2832, Note_on_c, 0, 82, 90
2, 2876, Note_off_c, 0, 82, 100
2, 2880, Note_on_c, 0, 86, 90
2, 2924, Note_off_c, 0, 86, 100
2, 2928, Note_on_c, 0, 82, 90
2, 2972, Note_off_c, 0, 82, 100
2, 2976, Note_on_c, 0, 81, 90
2, 3020, Note_off_c, 0, 81, 100
2, 3024, Note_on_c, 0, 82, 90
2, 3068, Note_off_c, 0, 82, 100
2, 3072, Note_on_c, 0, 75, 90
2, 3072, Note_on_c, 0, 72, 90
2, 3260, Note_off_c, 0, 75, 100
2, 3260, Note_off_c, 0, 72, 100
2, 3264, Note_on_c, 0, 74, 90
2, 3264, Note_on_c, 0, 70, 90
2, 3452, Note_off_c, 0, 74, 100
2, 3452, Note_off_c, 0, 70, 100
2, 3840, Note_on_c, 0, 58, 60
2, 3864, Note_off_c, 0, 58, 0
2, 3864, Note_on_c, 0, 60, 60
2, 3888, Note_off_c, 0, 60, 0
2, 3888, Note_on_c, 0, 58, 60
2, 3912, Note_off_c, 0, 58, 0
2, 3912, Note_on_c, 0, 60, 60
2, 3936, Note_off_c, 0, 60, 0
2, 3936, Note_on_c, 0, 58, 60
2, 3960, Note_off_c, 0, 58, 0
2, 3960, Note_on_c, 0, 60, 60
2, 3984, Note_off_c, 0, 60, 0
2, 3984, Note_on_c, 0, 58, 60
2, 4008, Note_off_c, 0, 58, 0
2, 4008, Note_on_c, 0, 60, 60
2, 4032, Note_off_c, 0, 60, 0
2, 4032, Note_on_c, 0, 58, 60
2, 4056, Note_off_c, 0, 58, 0
2, 4056, Note_on_c, 0, 60, 60
2, 4080, Note_off_c, 0, 60, 0
2, 4080, Note_on_c, 0, 57, 60
2, 4104, Note_off_c, 0, 57, 0
2, 4104, Note_on_c, 0, 58, 60
2, 4128, Note_off_c, 0, 58, 0
2, 4128, Note_on_c, 0, 60, 60
2, 4172, Note_off_c, 0, 60, 100
2, 4176, Note_on_c, 0, 62, 60
2, 4220, Note_off_c, 0, 62, 100
2, 4224, Note_on_c, 0, 58, 60
2, 4284, Note_off_c, 0, 58, 100
2, 4288, Note_on_c, 0, 57, 60
2, 4348, Note_off_c, 0, 57, 100
2, 4352, Note_on_c, 0, 60, 60
2, 4412, Note_off_c, 0, 60, 100
2, 4416, Note_on_c, 0, 58, 60
2, 4476, Note_off_c, 0, 58, 100
2, 4480, Note_on_c, 0, 57, 60
2, 4540, Note_off_c, 0, 57, 100
2, 4544, Note_on_c, 0, 63, 60
2, 4604, Note_off_c, 0, 63, 100
2, 4608, Note_on_c, 0, 60, 60
2, 4668, Note_off_c, 0, 60, 100
2, 4672, Note_on_c, 0, 58, 60
2, 4732, Note_off_c, 0, 58, 100
2, 4736, Note_on_c, 0, 62, 60
2, 4796, Note_off_c, 0, 62, 100
2, 4800, Note_on_c, 0, 60, 60
2, 4860, Note_off_c, 0, 60, 100
2, 4864, Note_on_c, 0, 58, 60
2, 4924, Note_off_c, 0, 58, 100
2, 4928, Note_on_c, 0, 65, 60
2, 4988, Note_off_c, 0, 65, 100
2, 4992, Note_on_c, 0, 62, 60
2, 5180, Note_off_c, 0, 62, 100
2, 5376, Note_on_c, 0, 67, 90
2, 5436, Note_off_c, 0, 67, 100
2, 5440, Note_on_c, 0, 72, 90
2, 5500, Note_off_c, 0, 72, 100
2, 5504, Note_on_c, 0, 75, 90
2, 5564, Note_off_c, 0, 75, 100
2, 5568, Note_on_c, 0, 72, 90
2, 5628, Note_off_c, 0, 72, 100
2, 5632, Note_on_c, 0, 75, 90
2, 5692, Note_off_c, 0, 75, 100
2, 5696, Note_on_c, 0, 79, 90
2, 5756, Note_off_c, 0, 79, 100
2, 5760, Note_on_c, 0, 79, 90
2, 5804, Note_off_c, 0, 79, 100
2, 5808, Note_on_c, 0, 77, 90
2, 5852, Note_off_c, 0, 77, 100
2, 5856, Note_on_c, 0, 75, 90
2, 5900, Note_off_c, 0, 75, 100
2, 5904, Note_on_c, 0, 74, 90
2, 5948, Note_off_c, 0, 74, 100
2, 5952, Note_on_c, 0, 74, 90
2, 5996, Note_off_c, 0, 74, 100
2, 6000, Note_on_c, 0, 72, 90
2, 6044, Note_off_c, 0, 72, 100
2, 6048, Note_on_c, 0, 70, 90
2, 6092, Note_off_c, 0, 70, 100
2, 6096, Note_on_c, 0, 69, 90
2, 6140, Note_off_c, 0, 69, 100
2, 6144, Note_on_c, 0, 70, 90
2, 6524, Note_off_c, 0, 70, 100
2, 6624, Note_on_c, 0, 70, 90
2, 6716, Note_off_c, 0, 70, 100
2, 6720, Note_on_c, 0, 69, 90
2, 6812, Note_off_c, 0, 69, 100
2, 6816, Note_on_c, 0, 68, 90
2, 6908, Note_off_c, 0, 68, 100
2, 6912, Note_on_c, 0, 67, 90
2, 7004, Note_off_c, 0, 67, 100
2, 7008, Note_on_c, 0, 69, 90
2, 7052, Note_off_c, 0, 69, 100
2, 7056, Note_on_c, 0, 71, 90
2, 7100, Note_off_c, 0, 71, 100
2, 7104, Note_on_c, 0, 72, 90
2, 7148, Note_off_c, 0, 72, 100
2, 7152, Note_on_c, 0, 74, 90
2, 7196, Note_off_c, 0, 74, 100
2, 7200, Note_on_c, 0, 75, 90
2, 7244, Note_off_c, 0, 75, 100
2, 7248, Note_on_c, 0, 77, 90
2, 7292, Note_off_c, 0, 77, 100
2, 7296, Note_on_c, 0, 79, 90
2, 7340, Note_off_c, 0, 79, 100
2, 7344, Note_on_c, 0, 81, 90
2, 7388, Note_off_c, 0, 81, 100
2, 7392, Note_on_c, 0, 82, 90
2, 7424, Note_on_c, 0, 81, 90
2, 7436, Note_off_c, 0, 82, 100
2, 7468, Note_off_c, 0, 81, 100
2, 7488, Note_on_c, 0, 82, 90
2, 7532, Note_off_c, 0, 82, 100
2, 7536, Note_on_c, 0, 81, 90
2, 7580, Note_off_c, 0, 81, 100
2, 7584, Note_on_c, 0, 82, 90
2, 7628, Note_off_c, 0, 82, 100
2, 7632, Note_on_c, 0, 79, 90
2, 7676, Note_off_c, 0, 79, 100
2, 7680, Note_on_c, 0, 77, 90
2, 8060, Note_off_c, 0, 77, 100
2, 8160, Note_on_c, 0, 70, 90
2, 8252, Note_off_c, 0, 70, 100
2, 8256, Note_on_c, 0, 69, 90
2, 8348, Note_off_c, 0, 69, 100
2, 8352, Note_on_c, 0, 68, 90
2, 8444, Note_off_c, 0, 68, 100
2, 8448, Note_on_c, 0, 67, 90
2, 8544, Note_on_c, 0, 69, 90
2, 8588, Note_off_c, 0, 69, 100
2, 8592, Note_on_c, 0, 71, 90
2, 8636, Note_off_c, 0, 67, 100
2, 8636, Note_off_c, 0, 71, 100
2, 8640, Note_on_c, 0, 72, 90
2, 8684, Note_off_c, 0, 72, 100
2, 8688, Note_on_c, 0, 74, 90
2, 8732, Note_off_c, 0, 74, 100
2, 8736, Note_on_c, 0, 75, 90
2, 8780, Note_off_c, 0, 75, 100
2, 8784, Note_on_c, 0, 77, 90
2, 8828, Note_off_c, 0, 77, 100
2, 8832, Note_on_c, 0, 79, 90
2, 8876, Note_off_c, 0, 79, 100
2, 8880, Note_on_c, 0, 81, 90
2, 8924, Note_off_c, 0, 81, 100
2, 8928, Note_on_c, 0, 82, 90
2, 8972, Note_off_c, 0, 82, 100
2, 8976, Note_on_c, 0, 81, 90
2, 9020, Note_off_c, 0, 81, 100
2, 9024, Note_on_c, 0, 82, 90
2, 9068, Note_off_c, 0, 82, 100
2, 9072, Note_on_c, 0, 81, 90
2, 9116, Note_off_c, 0, 81, 100
2, 9120, Note_on_c, 0, 82, 90
2, 9164, Note_off_c, 0, 82, 100
2, 9168, Note_on_c, 0, 79, 90
2, 9212, Note_off_c, 0, 79, 100
2, 9216, Note_on_c, 0, 77, 90
2, 9404, Note_off_c, 0, 77, 100
2, 9456, Note_on_c, 0, 82, 90
2, 9500, Note_off_c, 0, 82, 100
2, 9504, Note_on_c, 0, 84, 90
2, 9548, Note_off_c, 0, 84, 100
2, 9552, Note_on_c, 0, 82, 90
2, 9596, Note_off_c, 0, 82, 100
2, 9600, Note_on_c, 0, 86, 90
2, 9644, Note_off_c, 0, 86, 100
2, 9648, Note_on_c, 0, 84, 90
2, 9692, Note_off_c, 0, 84, 100
2, 9696, Note_on_c, 0, 82, 90
2, 9740, Note_off_c, 0, 82, 100
2, 9744, Note_on_c, 0, 81, 90
2, 9788, Note_off_c, 0, 81, 100
2, 9792, Note_on_c, 0, 79, 90
2, 9836, Note_off_c, 0, 79, 100
2, 9840, Note_on_c, 0, 77, 90
2, 9884, Note_off_c, 0, 77, 100
2, 9888, Note_on_c, 0, 75, 90
2, 9932, Note_off_c, 0, 75, 100
2, 9936, Note_on_c, 0, 74, 90
2, 9980, Note_off_c, 0, 74, 100
2, 9984, Note_on_c, 0, 75, 90
2, 10172, Note_off_c, 0, 75, 100
2, 10224, Note_on_c, 0, 81, 60
2, 10268, Note_off_c, 0, 81, 100
2, 10272, Note_on_c, 0, 82, 60
2, 10316, Note_off_c, 0, 82, 100
2, 10320, Note_on_c, 0, 81, 60
2, 10364, Note_off_c, 0, 81, 100
2, 10368, Note_on_c, 0, 84, 60
2, 10412, Note_off_c, 0, 84, 100
2, 10416, Note_on_c, 0, 82, 60
2, 10460, Note_off_c, 0, 82, 100
2, 10464, Note_on_c, 0, 81, 60
2, 10508, Note_off_c, 0, 81, 100
2, 10512, Note_on_c, 0, 79, 60
2, 10556, Note_off_c, 0, 79, 100
2, 10560, Note_on_c, 0, 77, 60
2, 10604, Note_off_c, 0, 77, 100
2, 10608, Note_on_c, 0, 75, 60
2, 10652, Note_off_c, 0, 75, 100
2, 10656, Note_on_c, 0, 74, 60
2, 10700, Note_off_c, 0, 74, 100
2, 10704, Note_on_c, 0, 72, 60
2, 10748, Note_off_c, 0, 72, 100
2, 10752, Note_on_c, 0, 74, 60
2, 10940, Note_off_c, 0, 74, 100
2, 10992, Note_on_c, 0, 77, 90
2, 11036, Note_off_c, 0, 77, 100
2, 11040, Note_on_c, 0, 79, 90
2, 11084, Note_off_c, 0, 79, 100
2, 11088, Note_on_c, 0, 77, 90
2, 11132, Note_off_c, 0, 77, 100
2, 11136, Note_on_c, 0, 82, 90
2, 11180, Note_off_c, 0, 82, 100
2, 11184, Note_on_c, 0, 81, 90
2, 11228, Note_off_c, 0, 81, 100
2, 11232, Note_on_c, 0, 79, 90
2, 11276, Note_off_c, 0, 79, 100
2, 11280, Note_on_c, 0, 77, 90
2, 11324, Note_off_c, 0, 77, 100
2, 11328, Note_on_c, 0, 75, 90
2, 11372, Note_off_c, 0, 75, 100
2, 11376, Note_on_c, 0, 74, 90
2, 11420, Note_off_c, 0, 74, 100
2, 11424, Note_on_c, 0, 72, 90
2, 11424, Note_on_c, 0, 65, 90
2, 11424, Note_on_c, 0, 62, 90
2, 11468, Note_off_c, 0, 72, 100
2, 11472, Note_on_c, 0, 70, 90
2, 11516, Note_off_c, 0, 65, 100
2, 11516, Note_off_c, 0, 62, 100
2, 11516, Note_off_c, 0, 70, 100
2, 11520, Note_on_c, 0, 63, 90
2, 11520, Note_on_c, 0, 67, 90
2, 11520, Note_on_c, 0, 74, 90
2, 11564, Note_off_c, 0, 74, 100
2, 11568, Note_on_c, 0, 72, 90
2, 11612, Note_off_c, 0, 72, 100
2, 11616, Note_on_c, 0, 75, 90
2, 11660, Note_off_c, 0, 75, 100
2, 11664, Note_on_c, 0, 74, 90
2, 11708, Note_off_c, 0, 74, 100
2, 11712, Note_on_c, 0, 77, 90
2, 11756, Note_off_c, 0, 77, 100
2, 11760, Note_on_c, 0, 75, 90
2, 11804, Note_off_c, 0, 75, 100
2, 11808, Note_on_c, 0, 79, 90
2, 11852, Note_off_c, 0, 79, 100
2, 11856, Note_on_c, 0, 78, 90
2, 11900, Note_off_c, 0, 63, 100
2, 11900, Note_off_c, 0, 67, 100
2, 11900, Note_off_c, 0, 78, 100
2, 11904, Note_on_c, 0, 79, 90
2, 11948, Note_off_c, 0, 79, 100
2, 11952, Note_on_c, 0, 77, 90
2, 11996, Note_off_c, 0, 77, 100
2, 12000, Note_on_c, 0, 75, 90
2, 12044, Note_off_c, 0, 75, 100
2, 12048, Note_on_c, 0, 74, 90
2, 12092, Note_off_c, 0, 74, 100
2, 12096, Note_on_c, 0, 72, 90
2, 12140, Note_off_c, 0, 72, 100
2, 12144, Note_on_c, 0, 70, 90
2, 12188, Note_off_c, 0, 70, 100
2, 12192, Note_on_c, 0, 69, 90
2, 12192, Note_on_c, 0, 64, 90
2, 12192, Note_on_c, 0, 67, 90
2, 12236, Note_off_c, 0, 69, 100
2, 12240, Note_on_c, 0, 70, 90
2, 12284, Note_off_c, 0, 64, 100
2, 12284, Note_off_c, 0, 67, 100
2, 12284, Note_off_c, 0, 70, 100
2, 12288, Note_on_c, 0, 65, 90
2, 12288, Note_on_c, 0, 69, 90
2, 12332, Note_off_c, 0, 69, 100
2, 12336, Note_on_c, 0, 70, 90
2, 12380, Note_off_c, 0, 70, 100
2, 12384, Note_on_c, 0, 72, 90
2, 12428, Note_off_c, 0, 72, 100
2, 12432, Note_on_c, 0, 74, 90
2, 12476, Note_off_c, 0, 65, 100
2, 12476, Note_off_c, 0, 74, 100
2, 12480, Note_on_c, 0, 75, 90
2, 12524, Note_off_c, 0, 75, 100
2, 12528, Note_on_c, 0, 77, 90
2, 12572, Note_off_c, 0, 77, 100
2, 12576, Note_on_c, 0, 75, 90
2, 12620, Note_off_c, 0, 75, 100
2, 12624, Note_on_c, 0, 77, 90
2, 12668, Note_off_c, 0, 77, 100
2, 12672, Note_on_c, 0, 65, 90
2, 12860, Note_off_c, 0, 65, 100
2, 13344, Note_on_c, 0, 84, 60
2, 13432, Note_off_c, 0, 84, 100
2, 13440, Note_on_c, 0, 84, 60
2, 13528, Note_off_c, 0, 84, 100
2, 13536, Note_on_c, 0, 84, 60
2, 13624, Note_off_c, 0, 84, 100
2, 13632, Note_on_c, 0, 84, 60
2, 13720, Note_off_c, 0, 84, 100
2, 13728, Note_on_c, 0, 84, 60
2, 13816, Note_off_c, 0, 84, 100
2, 13824, Note_on_c, 0, 84, 60
2, 13824, Note_on_c, 0, 65, 60
2, 13916, Note_off_c, 0, 65, 100
2, 13920, Note_on_c, 0, 72, 60
2, 14012, Note_off_c, 0, 84, 100
2, 14012, Note_off_c, 0, 72, 100
2, 14016, Note_on_c, 0, 69, 60
2, 14108, Note_off_c, 0, 69, 100
2, 14112, Note_on_c, 0, 82, 60
2, 14112, Note_on_c, 0, 72, 60
2, 14156, Note_off_c, 0, 82, 100
2, 14160, Note_on_c, 0, 81, 60
2, 14204, Note_off_c, 0, 72, 100
2, 14204, Note_off_c, 0, 81, 100
2, 14208, Note_on_c, 0, 79, 60
2, 14208, Note_on_c, 0, 67, 60
2, 14300, Note_off_c, 0, 79, 100
2, 14300, Note_off_c, 0, 67, 100
2, 14304, Note_on_c, 0, 77, 60
2, 14304, Note_on_c, 0, 72, 60
2, 14396, Note_off_c, 0, 77, 100
2, 14396, Note_off_c, 0, 72, 100
2, 14400, Note_on_c, 0, 76, 60
2, 14400, Note_on_c, 0, 70, 60
2, 14492, Note_off_c, 0, 76, 100
2, 14492, Note_off_c, 0, 70, 100
2, 14496, Note_on_c, 0, 79, 60
2, 14496, Note_on_c, 0, 72, 60
2, 14588, Note_off_c, 0, 79, 100
2, 14588, Note_off_c, 0, 72, 100
2, 14592, Note_on_c, 0, 77, 60
2, 14592, Note_on_c, 0, 69, 60
2, 14684, Note_off_c, 0, 69, 100
2, 14688, Note_on_c, 0, 65, 60
2, 14780, Note_off_c, 0, 77, 100
2, 14780, Note_off_c, 0, 65, 100
2, 14784, Note_on_c, 0, 72, 60
2, 14872, Note_off_c, 0, 72, 100
2, 14880, Note_on_c, 0, 84, 60
2, 14968, Note_off_c, 0, 84, 100
2, 14976, Note_on_c, 0, 84, 60
2, 15064, Note_off_c, 0, 84, 100
2, 15072, Note_on_c, 0, 84, 60
2, 15160, Note_off_c, 0, 84, 100
2, 15168, Note_on_c, 0, 84, 60
2, 15256, Note_off_c, 0, 84, 100
2, 15264, Note_on_c, 0, 84, 60
2, 15352, Note_off_c, 0, 84, 100
2, 15360, Note_on_c, 0, 84, 60
2, 15360, Note_on_c, 0, 65, 60
2, 15452, Note_off_c, 0, 65, 100
2, 15456, Note_on_c, 0, 72, 60
2, 15548, Note_off_c, 0, 84, 100
2, 15548, Note_off_c, 0, 72, 100
2, 15552, Note_on_c, 0, 69, 60
2, 15644, Note_off_c, 0, 69, 100
2, 15648, Note_on_c, 0, 82, 60
2, 15648, Note_on_c, 0, 72, 60
2, 15692, Note_off_c, 0, 82, 100
2, 15696, Note_on_c, 0, 81, 60
2, 15740, Note_off_c, 0, 72, 100
2, 15740, Note_off_c, 0, 81, 100
2, 15744, Note_on_c, 0, 79, 60
2, 15744, Note_on_c, 0, 64, 60
2, 15836, Note_off_c, 0, 79, 100
2, 15836, Note_off_c, 0, 64, 100
2, 15840, Note_on_c, 0, 81, 60
2, 15840, Note_on_c, 0, 72, 60
2, 15932, Note_off_c, 0, 81, 100
2, 15932, Note_off_c, 0, 72, 100
2, 15936, Note_on_c, 0, 82, 60
2, 15936, Note_on_c, 0, 67, 60
2, 16028, Note_off_c, 0, 82, 100
2, 16028, Note_off_c, 0, 67, 100
2, 16032, Note_on_c, 0, 79, 60
2, 16032, Note_on_c, 0, 72, 60
2, 16124, Note_off_c, 0, 79, 100
2, 16124, Note_off_c, 0, 72, 100
2, 16128, Note_on_c, 0, 81, 60
2, 16128, Note_on_c, 0, 65, 60
2, 16220, Note_off_c, 0, 65, 100
2, 16224, Note_on_c, 0, 69, 60
2, 16316, Note_off_c, 0, 81, 100
2, 16316, Note_off_c, 0, 69, 100
2, 16320, Note_on_c, 0, 72, 60
2, 16408, Note_off_c, 0, 72, 100
2, 16416, Note_on_c, 0, 84, 60
2, 16504, Note_off_c, 0, 84, 100
2, 16512, Note_on_c, 0, 84, 60
2, 16600, Note_off_c, 0, 84, 100
2, 16608, Note_on_c, 0, 84, 60
2, 16696, Note_off_c, 0, 84, 100
2, 16704, Note_on_c, 0, 84, 60
2, 16792, Note_off_c, 0, 84, 100
2, 16800, Note_on_c, 0, 84, 60
2, 16888, Note_off_c, 0, 84, 100
2, 16896, Note_on_c, 0, 84, 90
2, 16940, Note_off_c, 0, 84, 100
2, 16944, Note_on_c, 0, 74, 90
2, 16988, Note_off_c, 0, 74, 100
2, 16992, Note_on_c, 0, 73, 90
2, 17036, Note_off_c, 0, 73, 100
2, 17040, Note_on_c, 0, 74, 90
2, 17084, Note_off_c, 0, 74, 100
2, 17088, Note_on_c, 0, 75, 90
2, 17132, Note_off_c, 0, 75, 100
2, 17136, Note_on_c, 0, 74, 90
2, 17180, Note_off_c, 0, 74, 100
2, 17184, Note_on_c, 0, 76, 90
2, 17228, Note_off_c, 0, 76, 100
2, 17232, Note_on_c, 0, 74, 90
2, 17276, Note_off_c, 0, 74, 100
2, 17280, Note_on_c, 0, 77, 90
2, 17324, Note_off_c, 0, 77, 100
2, 17328, Note_on_c, 0, 74, 90
2, 17372, Note_off_c, 0, 74, 100
2, 17376, Note_on_c, 0, 78, 90
2, 17420, Note_off_c, 0, 78, 100
2, 17424, Note_on_c, 0, 74, 90
2, 17468, Note_off_c, 0, 74, 100
2, 17472, Note_on_c, 0, 79, 90
2, 17516, Note_off_c, 0, 79, 100
2, 17520, Note_on_c, 0, 74, 90
2, 17564, Note_off_c, 0, 74, 100
2, 17568, Note_on_c, 0, 81, 90
2, 17612, Note_off_c, 0, 81, 100
2, 17616, Note_on_c, 0, 74, 90
2, 17660, Note_off_c, 0, 74, 100
2, 17664, Note_on_c, 0, 82, 90
2, 17664, Note_on_c, 0, 67, 90
2, 17708, Note_off_c, 0, 67, 100
2, 17712, Note_on_c, 0, 69, 90
2, 17756, Note_off_c, 0, 69, 100
2, 17760, Note_on_c, 0, 70, 90
2, 17804, Note_off_c, 0, 70, 100
2, 17808, Note_on_c, 0, 69, 90
2, 17852, Note_off_c, 0, 69, 100
2, 17856, Note_on_c, 0, 67, 90
2, 17900, Note_off_c, 0, 67, 100
2, 17904, Note_on_c, 0, 69, 90
2, 17948, Note_off_c, 0, 69, 100
2, 17952, Note_on_c, 0, 65, 90
2, 17996, Note_off_c, 0, 65, 100
2, 18000, Note_on_c, 0, 67, 90
2, 18044, Note_off_c, 0, 82, 100
2, 18044, Note_off_c, 0, 67, 100
2, 18048, Note_on_c, 0, 64, 90
2, 18092, Note_off_c, 0, 64, 100
2, 18096, Note_on_c, 0, 65, 90
2, 18140, Note_off_c, 0, 65, 100
2, 18144, Note_on_c, 0, 62, 90
2, 18144, Note_on_c, 0, 82, 90
2, 18188, Note_off_c, 0, 62, 100
2, 18192, Note_on_c, 0, 64, 90
2, 18236, Note_off_c, 0, 82, 100
2, 18236, Note_off_c, 0, 64, 0
2, 18240, Note_on_c, 0, 60, 90
2, 18240, Note_on_c, 0, 84, 90
2, 18264, Note_off_c, 0, 84, 0
2, 18264, Note_on_c, 0, 82, 90
2, 18284, Note_off_c, 0, 60, 100
2, 18288, Note_off_c, 0, 82, 0
2, 18288, Note_on_c, 0, 62, 90
2, 18288, Note_on_c, 0, 84, 90
2, 18312, Note_off_c, 0, 84, 0
2, 18312, Note_on_c, 0, 82, 90
2, 18332, Note_off_c, 0, 62, 100
2, 18336, Note_off_c, 0, 82, 0
2, 18336, Note_on_c, 0, 81, 90
2, 18336, Note_on_c, 0, 58, 90
2, 18380, Note_off_c, 0, 81, 100
2, 18380, Note_off_c, 0, 58, 100
2, 18384, Note_on_c, 0, 82, 90
2, 18400, Note_on_c, 0, 60, 90
2, 18428, Note_off_c, 0, 82, 100
2, 18432, Note_on_c, 0, 84, 90
2, 18444, Note_off_c, 0, 60, 100
2, 18476, Note_off_c, 0, 84, 100
2, 18480, Note_on_c, 0, 72, 90
2, 18524, Note_off_c, 0, 72, 100
2, 18528, Note_on_c, 0, 71, 90
2, 18572, Note_off_c, 0, 71, 100
2, 18576, Note_on_c, 0, 72, 90
2, 18620, Note_off_c, 0, 72, 100
2, 18624, Note_on_c, 0, 73, 90
2, 18668, Note_off_c, 0, 73, 100
2, 18672, Note_on_c, 0, 72, 90
2, 18716, Note_off_c, 0, 72, 100
2, 18720, Note_on_c, 0, 74, 90
2, 18764, Note_off_c, 0, 74, 100
2, 18768, Note_on_c, 0, 72, 90
2, 18812, Note_off_c, 0, 72, 100
2, 18816, Note_on_c, 0, 75, 90
2, 18860, Note_off_c, 0, 75, 100
2, 18864, Note_on_c, 0, 72, 90
2, 18908, Note_off_c, 0, 72, 100
2, 18912, Note_on_c, 0, 76, 90
2, 18956, Note_off_c, 0, 76, 100
2, 18960, Note_on_c, 0, 72, 90
2, 19004, Note_off_c, 0, 72, 100
2, 19008, Note_on_c, 0, 77, 90
2, 19052, Note_off_c, 0, 77, 100
2, 19056, Note_on_c, 0, 72, 90
2, 19100, Note_off_c, 0, 72, 100
2, 19104, Note_on_c, 0, 79, 90
2, 19148, Note_off_c, 0, 79, 100
2, 19152, Note_on_c, 0, 72, 90
2, 19196, Note_off_c, 0, 72, 100
2, 19200, Note_on_c, 0, 81, 90
2, 19200, Note_on_c, 0, 65, 90
2, 19244, Note_off_c, 0, 65, 100
2, 19248, Note_on_c, 0, 67, 90
2, 19292, Note_off_c, 0, 67, 100
2, 19296, Note_on_c, 0, 69, 90
2, 19340, Note_off_c, 0, 69, 100
2, 19344, Note_on_c, 0, 67, 90
2, 19388, Note_off_c, 0, 67, 100
2, 19392, Note_on_c, 0, 65, 90
2, 19436, Note_off_c, 0, 65, 100
2, 19440, Note_on_c, 0, 67, 90
2, 19484, Note_off_c, 0, 67, 100
2, 19488, Note_on_c, 0, 64, 90
2, 19532, Note_off_c, 0, 64, 100
2, 19536, Note_on_c, 0, 65, 90
2, 19580, Note_off_c, 0, 81, 100
2, 19580, Note_off_c, 0, 65, 100
2, 19584, Note_on_c, 0, 62, 90
2, 19628, Note_off_c, 0, 62, 100
2, 19632, Note_on_c, 0, 64, 90
2, 19676, Note_off_c, 0, 64, 100
2, 19680, Note_on_c, 0, 60, 90
2, 19696, Note_on_c, 0, 81, 90
2, 19724, Note_off_c, 0, 60, 100
2, 19728, Note_on_c, 0, 62, 90
2, 19772, Note_off_c, 0, 62, 100
2, 19776, Note_on_c, 0, 58, 90
2, 19776, Note_on_c, 0, 81, 90
2, 19788, Note_off_c, 0, 81, 100
2, 19800, Note_off_c, 0, 81, 0
2, 19800, Note_on_c, 0, 82, 90
2, 19820, Note_off_c, 0, 58, 100
2, 19824, Note_off_c, 0, 82, 0
2, 19824, Note_on_c, 0, 60, 90
2, 19824, Note_on_c, 0, 82, 90
2, 19848, Note_off_c, 0, 82, 0
2, 19848, Note_on_c, 0, 81, 90
2, 19868, Note_off_c, 0, 60, 100
2, 19872, Note_off_c, 0, 81, 0
2, 19872, Note_on_c, 0, 79, 90
2, 19872, Note_on_c, 0, 57, 90
2, 19916, Note_off_c, 0, 79, 100
2, 19916, Note_off_c, 0, 57, 100
2, 19920, Note_on_c, 0, 81, 90
2, 19920, Note_on_c, 0, 58, 90
2, 19964, Note_off_c, 0, 81, 100
2, 19964, Note_off_c, 0, 58, 100
2, 19968, Note_on_c, 0, 82, 90
2, 20012, Note_off_c, 0, 82, 100
2, 20016, Note_on_c, 0, 70, 90
2, 20060, Note_off_c, 0, 70, 100
2, 20064, Note_on_c, 0, 69, 90
2, 20108, Note_off_c, 0, 69, 100
2, 20112, Note_on_c, 0, 70, 90
2, 20156, Note_off_c, 0, 70, 100
2, 20160, Note_on_c, 0, 72, 90
2, 20204, Note_off_c, 0, 72, 100
2, 20208, Note_on_c, 0, 69, 90
2, 20252, Note_off_c, 0, 69, 100
2, 20256, Note_on_c, 0, 73, 90
2, 20300, Note_off_c, 0, 73, 100
2, 20304, Note_on_c, 0, 70, 90
2, 20348, Note_off_c, 0, 70, 100
2, 20352, Note_on_c, 0, 74, 90
2, 20396, Note_off_c, 0, 74, 100
2, 20400, Note_on_c, 0, 70, 90
2, 20444, Note_off_c, 0, 70, 100
2, 20448, Note_on_c, 0, 76, 90
2, 20492, Note_off_c, 0, 76, 100
2, 20496, Note_on_c, 0, 70, 90
2, 20540, Note_off_c, 0, 70, 100
2, 20544, Note_on_c, 0, 77, 90
2, 20588, Note_off_c, 0, 77, 100
2, 20592, Note_on_c, 0, 70, 90
2, 20636, Note_off_c, 0, 70, 100
2, 20640, Note_on_c, 0, 78, 90
2, 20684, Note_off_c, 0, 78, 100
2, 20688, Note_on_c, 0, 70, 90
2, 20732, Note_off_c, 0, 70, 100
2, 20736, Note_on_c, 0, 79, 90
2, 20736, Note_on_c, 0, 60, 79
2, 20780, Note_off_c, 0, 60, 100
2, 20784, Note_on_c, 0, 64, 79
2, 20828, Note_off_c, 0, 64, 100
2, 20832, Note_on_c, 0, 67, 79
2, 20876, Note_off_c, 0, 67, 100
2, 20880, Note_on_c, 0, 64, 79
2, 20924, Note_off_c, 0, 79, 100
2, 20924, Note_off_c, 0, 64, 100
2, 20928, Note_on_c, 0, 60, 79
2, 20972, Note_off_c, 0, 60, 100
2, 20976, Note_on_c, 0, 64, 79
2, 21020, Note_off_c, 0, 64, 100
2, 21024, Note_on_c, 0, 82, 90
2, 21024, Note_on_c, 0, 67, 79
2, 21068, Note_off_c, 0, 67, 100
2, 21072, Note_on_c, 0, 64, 79
2, 21116, Note_off_c, 0, 82, 100
2, 21116, Note_off_c, 0, 64, 100
2, 21120, Note_on_c, 0, 60, 79
2, 21120, Note_on_c, 0, 67, 79
2, 21164, Note_off_c, 0, 60, 100
2, 21164, Note_off_c, 0, 67, 100
2, 21168, Note_on_c, 0, 81, 90
2, 21216, Note_on_c, 0, 79, 90
2, 21216, Note_on_c, 0, 70, 79
2, 21260, Note_off_c, 0, 81, 100
2, 21260, Note_off_c, 0, 70, 100
2, 21264, Note_on_c, 0, 67, 79
2, 21308, Note_off_c, 0, 79, 100
2, 21308, Note_off_c, 0, 67, 100
2, 21312, Note_on_c, 0, 77, 90
2, 21312, Note_on_c, 0, 60, 79
2, 21356, Note_off_c, 0, 60, 100
2, 21360, Note_on_c, 0, 67, 79
2, 21404, Note_off_c, 0, 77, 100
2, 21404, Note_off_c, 0, 67, 100
2, 21408, Note_on_c, 0, 70, 79
2, 21408, Note_on_c, 0, 76, 90
2, 21452, Note_off_c, 0, 70, 100
2, 21456, Note_on_c, 0, 67, 79
2, 21500, Note_off_c, 0, 76, 64
2, 21500, Note_off_c, 0, 67, 100
2, 21504, Note_on_c, 0, 79, 90
2, 21504, Note_on_c, 0, 60, 79
2, 21548, Note_off_c, 0, 60, 100
2, 21552, Note_on_c, 0, 65, 79
2, 21596, Note_off_c, 0, 79, 100
2, 21596, Note_off_c, 0, 65, 100
2, 21600, Note_on_c, 0, 77, 90
2, 21600, Note_on_c, 0, 69, 79
2, 21644, Note_off_c, 0, 69, 100
2, 21648, Note_on_c, 0, 65, 79
2, 21692, Note_off_c, 0, 77, 100
2, 21692, Note_off_c, 0, 65, 100
2, 21696, Note_on_c, 0, 60, 79
2, 21740, Note_off_c, 0, 60, 100
2, 21744, Note_on_c, 0, 65, 79
2, 21788, Note_off_c, 0, 65, 100
2, 21792, Note_on_c, 0, 84, 90
2, 21792, Note_on_c, 0, 69, 79
2, 21836, Note_off_c, 0, 69, 100
2, 21840, Note_on_c, 0, 65, 79
2, 21884, Note_off_c, 0, 84, 100
2, 21884, Note_off_c, 0, 65, 100
2, 21888, Note_on_c, 0, 82, 90
2, 21888, Note_on_c, 0, 60, 79
2, 21932, Note_off_c, 0, 60, 100
2, 21936, Note_on_c, 0, 63, 79
2, 21980, Note_off_c, 0, 82, 100
2, 21980, Note_off_c, 0, 63, 100
2, 21984, Note_on_c, 0, 81, 90
2, 21984, Note_on_c, 0, 66, 79
2, 22028, Note_off_c, 0, 66, 100
2, 22032, Note_on_c, 0, 63, 79
2, 22076, Note_off_c, 0, 81, 100
2, 22076, Note_off_c, 0, 63, 100
2, 22080, Note_on_c, 0, 79, 90
2, 22080, Note_on_c, 0, 60, 79
2, 22124, Note_off_c, 0, 60, 100
2, 22128, Note_on_c, 0, 63, 79
2, 22172, Note_off_c, 0, 79, 100
2, 22172, Note_off_c, 0, 63, 100
2, 22176, Note_on_c, 0, 78, 90
2, 22176, Note_on_c, 0, 69, 79
2, 22220, Note_off_c, 0, 69, 100
2, 22224, Note_on_c, 0, 63, 79
2, 22268, Note_off_c, 0, 78, 100
2, 22268, Note_off_c, 0, 63, 100
2, 22272, Note_on_c, 0, 79, 90
2, 22272, Note_on_c, 0, 58, 79
2, 22316, Note_off_c, 0, 58, 100
2, 22320, Note_on_c, 0, 62, 79
2, 22364, Note_off_c, 0, 79, 100
2, 22364, Note_off_c, 0, 62, 100
2, 22368, Note_on_c, 0, 67, 79
2, 22412, Note_off_c, 0, 67, 100
2, 22416, Note_on_c, 0, 62, 79
2, 22416, Note_on_c, 0, 81, 90
2, 22460, Note_off_c, 0, 62, 100
2, 22460, Note_off_c, 0, 81, 100
2, 22464, Note_on_c, 0, 58, 79
2, 22464, Note_on_c, 0, 84, 90
2, 22508, Note_off_c, 0, 58, 100
2, 22508, Note_off_c, 0, 84, 100
2, 22512, Note_on_c, 0, 62, 79
2, 22512, Note_on_c, 0, 82, 90
2, 22556, Note_off_c, 0, 62, 100
2, 22556, Note_off_c, 0, 82, 100
2, 22560, Note_on_c, 0, 81, 90
2, 22560, Note_on_c, 0, 67, 79
2, 22604, Note_off_c, 0, 81, 100
2, 22604, Note_off_c, 0, 67, 100
2, 22608, Note_on_c, 0, 79, 90
2, 22608, Note_on_c, 0, 62, 79
2, 22652, Note_off_c, 0, 79, 100
2, 22652, Note_off_c, 0, 62, 100
2, 22656, Note_on_c, 0, 77, 90
2, 22656, Note_on_c, 0, 60, 79
2, 22700, Note_off_c, 0, 60, 100
2, 22704, Note_on_c, 0, 65, 79
2, 22748, Note_off_c, 0, 65, 100
2, 22752, Note_on_c, 0, 69, 79
2, 22796, Note_off_c, 0, 69, 100
2, 22800, Note_on_c, 0, 65, 79
2, 22844, Note_off_c, 0, 77, 100
2, 22844, Note_off_c, 0, 65, 100
2, 22848, Note_on_c, 0, 76, 90
2, 22848, Note_on_c, 0, 60, 79
2, 22892, Note_off_c, 0, 60, 100
2, 22896, Note_on_c, 0, 67, 79
2, 22928, Note_on_c, 0, 70, 79
2, 22940, Note_off_c, 0, 67, 100
2, 22972, Note_off_c, 0, 70, 100
2, 22992, Note_on_c, 0, 67, 79
2, 23036, Note_off_c, 0, 76, 100
2, 23036, Note_off_c, 0, 67, 100
2, 23088, Note_on_c, 0, 77, 90
2, 23132, Note_off_c, 0, 77, 100
2, 23136, Note_on_c, 0, 75, 90
2, 23180, Note_off_c, 0, 75, 100
2, 23184, Note_on_c, 0, 77, 90
2, 23228, Note_off_c, 0, 77, 100
2, 23280, Note_on_c, 0, 72, 90
2, 23324, Note_off_c, 0, 72, 100
2, 23328, Note_on_c, 0, 70, 90
2, 23372, Note_off_c, 0, 70, 100
2, 23376, Note_on_c, 0, 72, 90
2, 23420, Note_off_c, 0, 72, 100
2, 23472, Note_on_c, 0, 69, 90
2, 23516, Note_off_c, 0, 69, 100
2, 23520, Note_on_c, 0, 67, 90
2, 23564, Note_off_c, 0, 67, 100
2, 23568, Note_on_c, 0, 69, 90
2, 23612, Note_off_c, 0, 69, 100
2, 23664, Note_on_c, 0, 65, 90
2, 23708, Note_off_c, 0, 65, 100
2, 23712, Note_on_c, 0, 63, 90
2, 23756, Note_off_c, 0, 63, 100
2, 23760, Note_on_c, 0, 65, 90
2, 23804, Note_off_c, 0, 65, 100
2, 23808, Note_on_c, 0, 70, 60
2, 23808, Note_on_c, 0, 60, 49
2, 23852, Note_off_c, 0, 70, 100
2, 23852, Note_off_c, 0, 60, 100
2, 23856, Note_on_c, 0, 72, 60
2, 23856, Note_on_c, 0, 67, 49
2, 23900, Note_off_c, 0, 72, 100
2, 23900, Note_off_c, 0, 67, 100
2, 23904, Note_on_c, 0, 76, 60
2, 23904, Note_on_c, 0, 70, 49
2, 23948, Note_off_c, 0, 70, 100
2, 23952, Note_on_c, 0, 67, 49
2, 23996, Note_off_c, 0, 67, 100
2, 24000, Note_on_c, 0, 60, 49
2, 24044, Note_off_c, 0, 60, 100
2, 24048, Note_on_c, 0, 67, 49
2, 24092, Note_off_c, 0, 76, 100
2, 24092, Note_off_c, 0, 67, 100
2, 24096, Note_on_c, 0, 82, 60
2, 24096, Note_on_c, 0, 70, 49
2, 24140, Note_off_c, 0, 70, 100
2, 24144, Note_on_c, 0, 67, 49
2, 24188, Note_off_c, 0, 82, 100
2, 24188, Note_off_c, 0, 67, 100
2, 24192, Note_on_c, 0, 81, 60
2, 24192, Note_on_c, 0, 60, 49
2, 24236, Note_off_c, 0, 60, 100
2, 24240, Note_on_c, 0, 67, 49
2, 24284, Note_off_c, 0, 81, 100
2, 24284, Note_off_c, 0, 67, 100
2, 24288, Note_on_c, 0, 79, 60
2, 24288, Note_on_c, 0, 70, 49
2, 24332, Note_off_c, 0, 70, 100
2, 24336, Note_on_c, 0, 67, 49
2, 24380, Note_off_c, 0, 79, 100
2, 24380, Note_off_c, 0, 67, 100
2, 24384, Note_on_c, 0, 77, 60
2, 24384, Note_on_c, 0, 60, 49
2, 24428, Note_off_c, 0, 60, 100
2, 24432, Note_on_c, 0, 67, 49
2, 24476, Note_off_c, 0, 77, 100
2, 24476, Note_off_c, 0, 67, 100
2, 24480, Note_on_c, 0, 76, 60
2, 24480, Note_on_c, 0, 70, 49
2, 24524, Note_off_c, 0, 70, 100
2, 24528, Note_on_c, 0, 67, 49
2, 24572, Note_off_c, 0, 76, 100
2, 24572, Note_off_c, 0, 67, 100
2, 24576, Note_on_c, 0, 79, 60
2, 24576, Note_on_c, 0, 60, 49
2, 24620, Note_off_c, 0, 60, 100
2, 24624, Note_on_c, 0, 65, 49
2, 24668, Note_off_c, 0, 79, 100
2, 24668, Note_off_c, 0, 65, 100
2, 24672, Note_on_c, 0, 77, 60
2, 24672, Note_on_c, 0, 69, 49
2, 24716, Note_off_c, 0, 69, 100
2, 24720, Note_on_c, 0, 65, 49
2, 24764, Note_off_c, 0, 77, 100
2, 24764, Note_off_c, 0, 65, 100
2, 24768, Note_on_c, 0, 60, 49
2, 24812, Note_off_c, 0, 60, 100
2, 24816, Note_on_c, 0, 65, 49
2, 24860, Note_off_c, 0, 65, 100
2, 24864, Note_on_c, 0, 84, 60
2, 24864, Note_on_c, 0, 69, 49
2, 24908, Note_off_c, 0, 69, 100
2, 24912, Note_on_c, 0, 65, 49
2, 24956, Note_off_c, 0, 84, 100
2, 24956, Note_off_c, 0, 65, 100
2, 24960, Note_on_c, 0, 82, 60
2, 24960, Note_on_c, 0, 60, 49
2, 25004, Note_off_c, 0, 60, 100
2, 25008, Note_on_c, 0, 63, 49
2, 25052, Note_off_c, 0, 82, 100
2, 25052, Note_off_c, 0, 63, 100
2, 25056, Note_on_c, 0, 81, 60
2, 25056, Note_on_c, 0, 66, 49
2, 25100, Note_off_c, 0, 66, 100
2, 25104, Note_on_c, 0, 63, 49
2, 25148, Note_off_c, 0, 81, 100
2, 25148, Note_off_c, 0, 63, 100
2, 25152, Note_on_c, 0, 79, 60
2, 25152, Note_on_c, 0, 60, 49
2, 25196, Note_off_c, 0, 60, 100
2, 25200, Note_on_c, 0, 63, 49
2, 25244, Note_off_c, 0, 79, 100
2, 25244, Note_off_c, 0, 63, 100
2, 25248, Note_on_c, 0, 78, 60
2, 25264, Note_on_c, 0, 69, 49
2, 25296, Note_on_c, 0, 63, 49
2, 25308, Note_off_c, 0, 69, 100
2, 25340, Note_off_c, 0, 78, 100
2, 25340, Note_off_c, 0, 63, 100
2, 25344, Note_on_c, 0, 79, 60
2, 25344, Note_on_c, 0, 58, 49
2, 25388, Note_off_c, 0, 58, 100
2, 25392, Note_on_c, 0, 62, 49
2, 25436, Note_off_c, 0, 79, 100
2, 25436, Note_off_c, 0, 62, 100
2, 25440, Note_on_c, 0, 67, 49
2, 25484, Note_off_c, 0, 67, 100
2, 25488, Note_on_c, 0, 81, 60
2, 25488, Note_on_c, 0, 62, 49
2, 25532, Note_off_c, 0, 81, 100
2, 25532, Note_off_c, 0, 62, 100
2, 25536, Note_on_c, 0, 81, 60
2, 25536, Note_on_c, 0, 58, 49
2, 25580, Note_off_c, 0, 81, 100
2, 25580, Note_off_c, 0, 58, 100
2, 25584, Note_on_c, 0, 82, 60
2, 25584, Note_on_c, 0, 62, 49
2, 25628, Note_off_c, 0, 82, 100
2, 25628, Note_off_c, 0, 62, 100
2, 25632, Note_on_c, 0, 84, 60
2, 25632, Note_on_c, 0, 67, 49
2, 25676, Note_off_c, 0, 84, 100
2, 25676, Note_off_c, 0, 67, 100
2, 25680, Note_on_c, 0, 86, 60
2, 25680, Note_on_c, 0, 62, 49
2, 25724, Note_off_c, 0, 86, 100
2, 25724, Note_off_c, 0, 62, 100
2, 25728, Note_on_c, 0, 86, 60
2, 25728, Note_on_c, 0, 60, 49
2, 25760, Note_off_c, 0, 86, 100
2, 25760, Note_on_c, 0, 77, 60
2, 25772, Note_off_c, 0, 60, 100
2, 25776, Note_on_c, 0, 65, 67
2, 25820, Note_off_c, 0, 65, 0
2, 25824, Note_on_c, 0, 69, 49
2, 25868, Note_off_c, 0, 69, 100
2, 25872, Note_on_c, 0, 65, 49
2, 25916, Note_off_c, 0, 77, 100
2, 25916, Note_off_c, 0, 65, 100
2, 25920, Note_on_c, 0, 60, 49
2, 25920, Note_on_c, 0, 79, 60
2, 25944, Note_off_c, 0, 79, 100
2, 25944, Note_on_c, 0, 81, 60
2, 25964, Note_off_c, 0, 60, 100
2, 25968, Note_off_c, 0, 81, 100
2, 25968, Note_on_c, 0, 79, 60
2, 25968, Note_on_c, 0, 64, 49
2, 25992, Note_off_c, 0, 79, 100
2, 25992, Note_on_c, 0, 81, 60
2, 26012, Note_off_c, 0, 64, 100
2, 26016, Note_off_c, 0, 81, 100
2, 26016, Note_on_c, 0, 70, 49
2, 26016, Note_on_c, 0, 77, 60
2, 26060, Note_off_c, 0, 70, 100
2, 26060, Note_off_c, 0, 77, 0
2, 26064, Note_on_c, 0, 64, 49
2, 26064, Note_on_c, 0, 79, 60
2, 26108, Note_off_c, 0, 64, 100
2, 26108, Note_off_c, 0, 79, 0
2, 26112, Note_on_c, 0, 65, 49
2, 26112, Note_on_c, 0, 69, 49
2, 26160, Note_on_c, 0, 84, 90
2, 26204, Note_off_c, 0, 84, 100
2, 26208, Note_on_c, 0, 81, 90
2, 26252, Note_off_c, 0, 81, 100
2, 26256, Note_on_c, 0, 77, 90
2, 26300, Note_off_c, 0, 65, 100
2, 26300, Note_off_c, 0, 69, 100
2, 26300, Note_off_c, 0, 77, 100
2, 26304, Note_on_c, 0, 72, 90
2, 26348, Note_off_c, 0, 72, 100
2, 26352, Note_on_c, 0, 69, 90
2, 26396, Note_off_c, 0, 69, 100
2, 26400, Note_on_c, 0, 65, 90
2, 26444, Note_off_c, 0, 65, 100
2, 26496, Note_on_c, 0, 63, 90
2, 26496, Note_on_c, 0, 60, 90
2, 26876, Note_off_c, 0, 63, 100
2, 26876, Note_off_c, 0, 60, 100
2, 26880, Note_on_c, 0, 63, 90
2, 26880, Note_on_c, 0, 60, 90
2, 26972, Note_off_c, 0, 63, 100
2, 26972, Note_off_c, 0, 60, 100
2, 26976, Note_on_c, 0, 62, 90
2, 27068, Note_off_c, 0, 62, 100
2, 27168, Note_on_c, 0, 74, 60
2, 27168, Note_on_c, 0, 70, 60
2, 27260, Note_off_c, 0, 74, 100
2, 27260, Note_off_c, 0, 70, 100
2, 27360, Note_on_c, 0, 72, 60
2, 27360, Note_on_c, 0, 69, 60
2, 27452, Note_off_c, 0, 72, 100
2, 27452, Note_off_c, 0, 69, 100
2, 27552, Note_on_c, 0, 64, 60
2, 27552, Note_on_c, 0, 58, 60
2, 27644, Note_off_c, 0, 64, 100
2, 27644, Note_off_c, 0, 58, 100
2, 27696, Note_on_c, 0, 84, 90
2, 27740, Note_off_c, 0, 84, 100
2, 27744, Note_on_c, 0, 81, 90
2, 27788, Note_off_c, 0, 81, 100
2, 27792, Note_on_c, 0, 77, 90
2, 27836, Note_off_c, 0, 77, 100
2, 27840, Note_on_c, 0, 72, 90
2, 27884, Note_off_c, 0, 72, 100
2, 27888, Note_on_c, 0, 69, 90
2, 27932, Note_off_c, 0, 69, 100
2, 27936, Note_on_c, 0, 65, 90
2, 27980, Note_off_c, 0, 65, 100
2, 28032, Note_on_c, 0, 63, 90
2, 28032, Note_on_c, 0, 60, 90
2, 28412, Note_off_c, 0, 63, 100
2, 28412, Note_off_c, 0, 60, 100
2, 28416, Note_on_c, 0, 63, 90
2, 28416, Note_on_c, 0, 60, 90
2, 28508, Note_off_c, 0, 63, 100
2, 28508, Note_off_c, 0, 60, 100
2, 28512, Note_on_c, 0, 62, 90
2, 28604, Note_off_c, 0, 62, 100
2, 28704, Note_on_c, 0, 74, 60
2, 28704, Note_on_c, 0, 70, 60
2, 28796, Note_off_c, 0, 74, 100
2, 28796, Note_off_c, 0, 70, 100
2, 28896, Note_on_c, 0, 72, 60
2, 28896, Note_on_c, 0, 69, 60
2, 28988, Note_off_c, 0, 72, 100
2, 28988, Note_off_c, 0, 69, 100
2, 29088, Note_on_c, 0, 64, 60
2, 29088, Note_on_c, 0, 58, 60
2, 29180, Note_off_c, 0, 64, 100
2, 29180, Note_off_c, 0, 58, 100
2, 29184, Note_on_c, 0, 65, 60
2, 29184, Note_on_c, 0, 57, 60
2, 29372, Note_off_c, 0, 65, 100
2, 29372, Note_off_c, 0, 57, 100
2, 29472, Note_on_c, 0, 65, 60
2, 29472, Note_on_c, 0, 69, 60
2, 29564, Note_off_c, 0, 65, 100
2, 29564, Note_off_c, 0, 69, 100
2, 29568, Note_on_c, 0, 67, 60
2, 29568, Note_on_c, 0, 63, 60
2, 29660, Note_off_c, 0, 67, 100
2, 29660, Note_off_c, 0, 63, 100
2, 29664, Note_on_c, 0, 67, 60
2, 29664, Note_on_c, 0, 63, 60
2, 29756, Note_off_c, 0, 67, 100
2, 29756, Note_off_c, 0, 63, 100
2, 29856, Note_on_c, 0, 70, 60
2, 29856, Note_on_c, 0, 67, 60
2, 29948, Note_off_c, 0, 70, 100
2, 29948, Note_off_c, 0, 67, 100
2, 29952, Note_on_c, 0, 65, 60
2, 29952, Note_on_c, 0, 69, 60
2, 30044, Note_off_c, 0, 65, 100
2, 30044, Note_off_c, 0, 69, 100
2, 30048, Note_on_c, 0, 65, 60
2, 30048, Note_on_c, 0, 69, 60
2, 30140, Note_off_c, 0, 65, 100
2, 30140, Note_off_c, 0, 69, 100
2, 30240, Note_on_c, 0, 81, 60
2, 30240, Note_on_c, 0, 77, 60
2, 30332, Note_off_c, 0, 81, 100
2, 30332, Note_off_c, 0, 77, 100
2, 30336, Note_on_c, 0, 79, 60
2, 30336, Note_on_c, 0, 75, 60
2, 30428, Note_off_c, 0, 79, 100
2, 30428, Note_off_c, 0, 75, 100
2, 30432, Note_on_c, 0, 79, 60
2, 30432, Note_on_c, 0, 75, 60
2, 30524, Note_off_c, 0, 79, 100
2, 30524, Note_off_c, 0, 75, 100
2, 30624, Note_on_c, 0, 82, 90
2, 30624, Note_on_c, 0, 75, 90
2, 30624, Note_on_c, 0, 79, 90
2, 30716, Note_off_c, 0, 82, 100
2, 30716, Note_off_c, 0, 75, 100
2, 30716, Note_off_c, 0, 79, 100
2, 30720, Note_on_c, 0, 82, 90
2, 30720, Note_on_c, 0, 79, 90
2, 30720, Note_on_c, 0, 76, 90
2, 31100, Note_off_c, 0, 82, 100
2, 31100, Note_off_c, 0, 79, 100
2, 31100, Note_off_c, 0, 76, 100
2, 31104, Note_on_c, 0, 81, 90
2, 31104, Note_on_c, 0, 77, 90
2, 31292, Note_off_c, 0, 81, 100
2, 31292, Note_off_c, 0, 77, 100
2, 31488, Note_on_c, 0, 70, 60
2, 31512, Note_off_c, 0, 70, 0
2, 31512, Note_on_c, 0, 72, 60
2, 31536, Note_off_c, 0, 72, 0
2, 31536, Note_on_c, 0, 70, 60
2, 31560, Note_off_c, 0, 70, 0
2, 31560, Note_on_c, 0, 72, 60
2, 31584, Note_off_c, 0, 72, 0
2, 31584, Note_on_c, 0, 70, 60
2, 31608, Note_off_c, 0, 70, 0
2, 31608, Note_on_c, 0, 72, 60
2, 31632, Note_off_c, 0, 72, 0
2, 31632, Note_on_c, 0, 70, 60
2, 31656, Note_off_c, 0, 70, 0
2, 31656, Note_on_c, 0, 72, 60
2, 31680, Note_off_c, 0, 72, 0
2, 31680, Note_on_c, 0, 70, 60
2, 31704, Note_off_c, 0, 70, 0
2, 31704, Note_on_c, 0, 72, 60
2, 31728, Note_off_c, 0, 72, 0
2, 31728, Note_on_c, 0, 69, 60
2, 31752, Note_off_c, 0, 69, 0
2, 31752, Note_on_c, 0, 70, 60
2, 31776, Note_off_c, 0, 70, 0
2, 31776, Note_on_c, 0, 72, 60
2, 31820, Note_off_c, 0, 72, 100
2, 31824, Note_on_c, 0, 74, 60
2, 31868, Note_off_c, 0, 74, 100
2, 31872, Note_on_c, 0, 70, 60
2, 31932, Note_off_c, 0, 70, 100
2, 31936, Note_on_c, 0, 69, 60
2, 31996, Note_off_c, 0, 69, 100
2, 32000, Note_on_c, 0, 72, 60
2, 32060, Note_off_c, 0, 72, 100
2, 32064, Note_on_c, 0, 70, 60
2, 32124, Note_off_c, 0, 70, 100
2, 32128, Note_on_c, 0, 69, 60
2, 32188, Note_off_c, 0, 69, 100
2, 32192, Note_on_c, 0, 75, 60
2, 32252, Note_off_c, 0, 75, 100
2, 32256, Note_on_c, 0, 72, 60
2, 32316, Note_off_c, 0, 72, 100
2, 32320, Note_on_c, 0, 70, 60
2, 32380, Note_off_c, 0, 70, 100
2, 32384, Note_on_c, 0, 74, 60
2, 32444, Note_off_c, 0, 74, 100
2, 32448, Note_on_c, 0, 72, 60
2, 32508, Note_off_c, 0, 72, 100
2, 32512, Note_on_c, 0, 70, 60
2, 32572, Note_off_c, 0, 70, 100
2, 32576, Note_on_c, 0, 77, 60
2, 32636, Note_off_c, 0, 77, 100
2, 32640, Note_on_c, 0, 74, 60
2, 32828, Note_off_c, 0, 74, 100
2, 33024, Note_on_c, 0, 79, 90
2, 33024, Note_on_c, 0, 75, 90
2, 33024, Note_on_c, 0, 70, 90
2, 33212, Note_off_c, 0, 79, 100
2, 33212, Note_off_c, 0, 75, 100
2, 33212, Note_off_c, 0, 70, 100
2, 33216, Note_on_c, 0, 77, 90
2, 33216, Note_on_c, 0, 74, 90
2, 33216, Note_on_c, 0, 70, 90
2, 33404, Note_off_c, 0, 77, 100
2, 33404, Note_off_c, 0, 74, 100
2, 33404, Note_off_c, 0, 70, 100
2, 33408, Note_on_c, 0, 77, 90
2, 33452, Note_off_c, 0, 77, 100
2, 33456, Note_on_c, 0, 82, 90
2, 33500, Note_off_c, 0, 82, 100
2, 33504, Note_on_c, 0, 81, 90
2, 33548, Note_off_c, 0, 81, 100
2, 33552, Note_on_c, 0, 82, 90
2, 33596, Note_off_c, 0, 82, 100
2, 33600, Note_on_c, 0, 86, 90
2, 33644, Note_off_c, 0, 86, 100
2, 33648, Note_on_c, 0, 82, 90
2, 33692, Note_off_c, 0, 82, 100
2, 33696, Note_on_c, 0, 81, 90
2, 33740, Note_off_c, 0, 81, 100
2, 33744, Note_on_c, 0, 82, 90
2, 33788, Note_off_c, 0, 82, 100
2, 33792, Note_on_c, 0, 75, 90
2, 33792, Note_on_c, 0, 72, 90
2, 33980, Note_off_c, 0, 75, 100
2, 33980, Note_off_c, 0, 72, 100
2, 33984, Note_on_c, 0, 74, 90
2, 33984, Note_on_c, 0, 70, 90
2, 34172, Note_off_c, 0, 74, 100
2, 34172, Note_off_c, 0, 70, 100
2, 34560, Note_on_c, 0, 58, 60
2, 34584, Note_off_c, 0, 58, 0
2, 34584, Note_on_c, 0, 60, 60
2, 34608, Note_off_c, 0, 60, 0
2, 34608, Note_on_c, 0, 58, 60
2, 34632, Note_off_c, 0, 58, 0
2, 34632, Note_on_c, 0, 60, 60
2, 34656, Note_off_c, 0, 60, 0
2, 34656, Note_on_c, 0, 58, 60
2, 34680, Note_off_c, 0, 58, 0
2, 34680, Note_on_c, 0, 60, 60
2, 34704, Note_off_c, 0, 60, 0
2, 34704, Note_on_c, 0, 58, 60
2, 34728, Note_off_c, 0, 58, 0
2, 34728, Note_on_c, 0, 60, 60
2, 34752, Note_off_c, 0, 60, 0
2, 34752, Note_on_c, 0, 58, 60
2, 34776, Note_off_c, 0, 58, 0
2, 34776, Note_on_c, 0, 60, 60
2, 34800, Note_off_c, 0, 60, 0
2, 34800, Note_on_c, 0, 57, 60
2, 34824, Note_off_c, 0, 57, 0
2, 34824, Note_on_c, 0, 58, 60
2, 34848, Note_off_c, 0, 58, 0
2, 34848, Note_on_c, 0, 60, 60
2, 34892, Note_off_c, 0, 60, 100
2, 34896, Note_on_c, 0, 62, 60
2, 34940, Note_off_c, 0, 62, 100
2, 34944, Note_on_c, 0, 58, 60
2, 35004, Note_off_c, 0, 58, 100
2, 35008, Note_on_c, 0, 57, 60
2, 35068, Note_off_c, 0, 57, 100
2, 35072, Note_on_c, 0, 60, 60
2, 35132, Note_off_c, 0, 60, 100
2, 35136, Note_on_c, 0, 58, 60
2, 35196, Note_off_c, 0, 58, 100
2, 35200, Note_on_c, 0, 57, 60
2, 35260, Note_off_c, 0, 57, 100
2, 35264, Note_on_c, 0, 63, 60
2, 35324, Note_off_c, 0, 63, 100
2, 35328, Note_on_c, 0, 60, 60
2, 35388, Note_off_c, 0, 60, 100
2, 35392, Note_on_c, 0, 58, 60
2, 35452, Note_off_c, 0, 58, 100
2, 35456, Note_on_c, 0, 62, 60
2, 35516, Note_off_c, 0, 62, 100
2, 35520, Note_on_c, 0, 60, 60
2, 35580, Note_off_c, 0, 60, 100
2, 35584, Note_on_c, 0, 58, 60
2, 35644, Note_off_c, 0, 58, 100
2, 35648, Note_on_c, 0, 65, 60
2, 35708, Note_off_c, 0, 65, 100
2, 35712, Note_on_c, 0, 62, 60
2, 35900, Note_off_c, 0, 62, 100
2, 36096, Note_on_c, 0, 67, 90
2, 36156, Note_off_c, 0, 67, 100
2, 36160, Note_on_c, 0, 72, 90
2, 36220, Note_off_c, 0, 72, 100
2, 36224, Note_on_c, 0, 75, 90
2, 36284, Note_off_c, 0, 75, 100
2, 36288, Note_on_c, 0, 72, 90
2, 36348, Note_off_c, 0, 72, 100
2, 36352, Note_on_c, 0, 75, 90
2, 36412, Note_off_c, 0, 75, 100
2, 36416, Note_on_c, 0, 79, 90
2, 36476, Note_off_c, 0, 79, 100
2, 36480, Note_on_c, 0, 79, 90
2, 36524, Note_off_c, 0, 79, 100
2, 36528, Note_on_c, 0, 77, 90
2, 36572, Note_off_c, 0, 77, 100
2, 36576, Note_on_c, 0, 75, 90
2, 36620, Note_off_c, 0, 75, 100
2, 36624, Note_on_c, 0, 74, 90
2, 36668, Note_off_c, 0, 74, 100
2, 36672, Note_on_c, 0, 74, 90
2, 36716, Note_off_c, 0, 74, 100
2, 36720, Note_on_c, 0, 72, 90
2, 36764, Note_off_c, 0, 72, 100
2, 36768, Note_on_c, 0, 70, 90
2, 36812, Note_off_c, 0, 70, 100
2, 36816, Note_on_c, 0, 69, 90
2, 36860, Note_off_c, 0, 69, 100
2, 36864, Note_on_c, 0, 70, 90
2, 37244, Note_off_c, 0, 70, 100
2, 37344, Note_on_c, 0, 70, 90
2, 37436, Note_off_c, 0, 70, 100
2, 37440, Note_on_c, 0, 69, 90
2, 37532, Note_off_c, 0, 69, 100
2, 37536, Note_on_c, 0, 68, 90
2, 37628, Note_off_c, 0, 68, 100
2, 37632, Note_on_c, 0, 67, 90
2, 37724, Note_off_c, 0, 67, 100
2, 37728, Note_on_c, 0, 69, 90
2, 37772, Note_off_c, 0, 69, 100
2, 37776, Note_on_c, 0, 71, 90
2, 37820, Note_off_c, 0, 71, 100
2, 37824, Note_on_c, 0, 72, 90
2, 37868, Note_off_c, 0, 72, 100
2, 37872, Note_on_c, 0, 74, 90
2, 37916, Note_off_c, 0, 74, 100
2, 37920, Note_on_c, 0, 75, 90
2, 37952, Note_on_c, 0, 77, 90
2, 37964, Note_off_c, 0, 75, 100
2, 37996, Note_off_c, 0, 77, 100
2, 38016, Note_on_c, 0, 79, 90
2, 38060, Note_off_c, 0, 79, 100
2, 38064, Note_on_c, 0, 81, 90
2, 38108, Note_off_c, 0, 81, 100
2, 38112, Note_on_c, 0, 82, 90
2, 38144, Note_on_c, 0, 81, 90
2, 38156, Note_off_c, 0, 82, 100
2, 38188, Note_off_c, 0, 81, 100
2, 38208, Note_on_c, 0, 82, 90
2, 38252, Note_off_c, 0, 82, 100
2, 38256, Note_on_c, 0, 81, 90
2, 38300, Note_off_c, 0, 81, 100
2, 38304, Note_on_c, 0, 82, 90
2, 38348, Note_off_c, 0, 82, 100
2, 38352, Note_on_c, 0, 79, 90
2, 38396, Note_off_c, 0, 79, 100
2, 38400, Note_on_c, 0, 77, 90
2, 38780, Note_off_c, 0, 77, 100
2, 38880, Note_on_c, 0, 70, 90
2, 38972, Note_off_c, 0, 70, 100
2, 38976, Note_on_c, 0, 69, 90
2, 39068, Note_off_c, 0, 69, 100
2, 39072, Note_on_c, 0, 68, 90
2, 39164, Note_off_c, 0, 68, 100
2, 39168, Note_on_c, 0, 67, 90
2, 39264, Note_on_c, 0, 69, 90
2, 39308, Note_off_c, 0, 69, 100
2, 39312, Note_on_c, 0, 71, 90
2, 39356, Note_off_c, 0, 67, 100
2, 39356, Note_off_c, 0, 71, 100
2, 39360, Note_on_c, 0, 72, 90
2, 39404, Note_off_c, 0, 72, 100
2, 39408, Note_on_c, 0, 74, 90
2, 39452, Note_off_c, 0, 74, 100
2, 39456, Note_on_c, 0, 75, 90
2, 39500, Note_off_c, 0, 75, 100
2, 39504, Note_on_c, 0, 77, 90
2, 39548, Note_off_c, 0, 77, 100
2, 39552, Note_on_c, 0, 79, 90
2, 39596, Note_off_c, 0, 79, 100
2, 39600, Note_on_c, 0, 81, 90
2, 39644, Note_off_c, 0, 81, 100
2, 39648, Note_on_c, 0, 82, 90
2, 39692, Note_off_c, 0, 82, 100
2, 39696, Note_on_c, 0, 81, 90
2, 39740, Note_off_c, 0, 81, 100
2, 39744, Note_on_c, 0, 82, 90
2, 39788, Note_off_c, 0, 82, 100
2, 39792, Note_on_c, 0, 81, 90
2, 39836, Note_off_c, 0, 81, 100
2, 39840, Note_on_c, 0, 82, 90
2, 39884, Note_off_c, 0, 82, 100
2, 39888, Note_on_c, 0, 79, 90
2, 39932, Note_off_c, 0, 79, 100
2, 39936, Note_on_c, 0, 77, 90
2, 40124, Note_off_c, 0, 77, 100
2, 40176, Note_on_c, 0, 82, 90
2, 40220, Note_off_c, 0, 82, 100
2, 40224, Note_on_c, 0, 84, 90
2, 40268, Note_off_c, 0, 84, 100
2, 40272, Note_on_c, 0, 82, 90
2, 40316, Note_off_c, 0, 82, 100
2, 40320, Note_on_c, 0, 86, 90
2, 40364, Note_off_c, 0, 86, 100
2, 40368, Note_on_c, 0, 84, 90
2, 40412, Note_off_c, 0, 84, 100
2, 40416, Note_on_c, 0, 82, 90
2, 40460, Note_off_c, 0, 82, 100
2, 40464, Note_on_c, 0, 81, 90
2, 40508, Note_off_c, 0, 81, 100
2, 40512, Note_on_c, 0, 79, 90
2, 40556, Note_off_c, 0, 79, 100
2, 40560, Note_on_c, 0, 77, 90
2, 40604, Note_off_c, 0, 77, 100
2, 40608, Note_on_c, 0, 75, 90
2, 40652, Note_off_c, 0, 75, 100
2, 40656, Note_on_c, 0, 74, 90
2, 40700, Note_off_c, 0, 74, 100
2, 40704, Note_on_c, 0, 75, 90
2, 40892, Note_off_c, 0, 75, 100
2, 40944, Note_on_c, 0, 81, 60
2, 40988, Note_off_c, 0, 81, 100
2, 40992, Note_on_c, 0, 82, 60
2, 41036, Note_off_c, 0, 82, 100
2, 41040, Note_on_c, 0, 81, 60
2, 41084, Note_off_c, 0, 81, 100
2, 41088, Note_on_c, 0, 84, 60
2, 41132, Note_off_c, 0, 84, 100
2, 41136, Note_on_c, 0, 82, 60
2, 41180, Note_off_c, 0, 82, 100
2, 41184, Note_on_c, 0, 81, 60
2, 41228, Note_off_c, 0, 81, 100
2, 41232, Note_on_c, 0, 79, 60
2, 41276, Note_off_c, 0, 79, 100
2, 41280, Note_on_c, 0, 77, 60
2, 41324, Note_off_c, 0, 77, 100
2, 41328, Note_on_c, 0, 75, 60
2, 41372, Note_off_c, 0, 75, 100
2, 41376, Note_on_c, 0, 74, 60
2, 41420, Note_off_c, 0, 74, 100
2, 41424, Note_on_c, 0, 72, 60
2, 41468, Note_off_c, 0, 72, 100
2, 41472, Note_on_c, 0, 74, 60
2, 41660, Note_off_c, 0, 74, 100
2, 41712, Note_on_c, 0, 77, 90
2, 41756, Note_off_c, 0, 77, 100
2, 41760, Note_on_c, 0, 79, 90
2, 41804, Note_off_c, 0, 79, 100
2, 41808, Note_on_c, 0, 77, 90
2, 41852, Note_off_c, 0, 77, 100
2, 41856, Note_on_c, 0, 82, 90
2, 41900, Note_off_c, 0, 82, 100
2, 41904, Note_on_c, 0, 81, 90
2, 41948, Note_off_c, 0, 81, 100
2, 41952, Note_on_c, 0, 79, 90
2, 41996, Note_off_c, 0, 79, 100
2, 42000, Note_on_c, 0, 77, 90
2, 42044, Note_off_c, 0, 77, 100
2, 42048, Note_on_c, 0, 75, 90
2, 42092, Note_off_c, 0, 75, 100
2, 42096, Note_on_c, 0, 74, 90
2, 42140, Note_off_c, 0, 74, 100
2, 42144, Note_on_c, 0, 72, 90
2, 42144, Note_on_c, 0, 65, 90
2, 42144, Note_on_c, 0, 62, 90
2, 42188, Note_off_c, 0, 72, 100
2, 42192, Note_on_c, 0, 70, 90
2, 42236, Note_off_c, 0, 65, 100
2, 42236, Note_off_c, 0, 62, 100
2, 42236, Note_off_c, 0, 70, 100
2, 42240, Note_on_c, 0, 63, 90
2, 42240, Note_on_c, 0, 67, 90
2, 42240, Note_on_c, 0, 74, 90
2, 42284, Note_off_c, 0, 74, 100
2, 42288, Note_on_c, 0, 72, 90
2, 42332, Note_off_c, 0, 72, 100
2, 42336, Note_on_c, 0, 75, 90
2, 42380, Note_off_c, 0, 75, 100
2, 42384, Note_on_c, 0, 74, 90
2, 42428, Note_off_c, 0, 74, 100
2, 42432, Note_on_c, 0, 77, 90
2, 42476, Note_off_c, 0, 77, 100
2, 42480, Note_on_c, 0, 75, 90
2, 42524, Note_off_c, 0, 75, 100
2, 42528, Note_on_c, 0, 79, 90
2, 42572, Note_off_c, 0, 79, 100
2, 42576, Note_on_c, 0, 78, 90
2, 42620, Note_off_c, 0, 63, 100
2, 42620, Note_off_c, 0, 67, 100
2, 42620, Note_off_c, 0, 78, 100
2, 42624, Note_on_c, 0, 79, 90
2, 42668, Note_off_c, 0, 79, 100
2, 42672, Note_on_c, 0, 77, 90
2, 42716, Note_off_c, 0, 77, 100
2, 42720, Note_on_c, 0, 75, 90
2, 42764, Note_off_c, 0, 75, 100
2, 42768, Note_on_c, 0, 74, 90
2, 42812, Note_off_c, 0, 74, 100
2, 42816, Note_on_c, 0, 72, 90
2, 42860, Note_off_c, 0, 72, 100
2, 42864, Note_on_c, 0, 70, 90
2, 42908, Note_off_c, 0, 70, 100
2, 42912, Note_on_c, 0, 69, 90
2, 42912, Note_on_c, 0, 64, 90
2, 42912, Note_on_c, 0, 67, 90
2, 42956, Note_off_c, 0, 69, 100
2, 42960, Note_on_c, 0, 70, 90
2, 43004, Note_off_c, 0, 64, 100
2, 43004, Note_off_c, 0, 67, 100
2, 43004, Note_off_c, 0, 70, 100
2, 43008, Note_on_c, 0, 65, 90
2, 43008, Note_on_c, 0, 69, 90
2, 43052, Note_off_c, 0, 69, 100
2, 43056, Note_on_c, 0, 70, 90
2, 43100, Note_off_c, 0, 70, 100
2, 43104, Note_on_c, 0, 72, 90
2, 43148, Note_off_c, 0, 72, 100
2, 43152, Note_on_c, 0, 74, 90
2, 43196, Note_off_c, 0, 65, 100
2, 43196, Note_off_c, 0, 74, 100
2, 43200, Note_on_c, 0, 75, 90
2, 43244, Note_off_c, 0, 75, 100
2, 43248, Note_on_c, 0, 77, 90
2, 43292, Note_off_c, 0, 77, 100
2, 43296, Note_on_c, 0, 75, 90
2, 43340, Note_off_c, 0, 75, 100
2, 43344, Note_on_c, 0, 77, 90
2, 43388, Note_off_c, 0, 77, 100
2, 43392, Note_on_c, 0, 65, 90
2, 43580, Note_off_c, 0, 65, 100
2, 44064, Note_on_c, 0, 84, 60
2, 44152, Note_off_c, 0, 84, 100
2, 44160, Note_on_c, 0, 84, 60
2, 44248, Note_off_c, 0, 84, 100
2, 44256, Note_on_c, 0, 84, 60
2, 44344, Note_off_c, 0, 84, 100
2, 44352, Note_on_c, 0, 84, 60
2, 44440, Note_off_c, 0, 84, 100
2, 44448, Note_on_c, 0, 84, 60
2, 44536, Note_off_c, 0, 84, 100
2, 44544, Note_on_c, 0, 84, 60
2, 44544, Note_on_c, 0, 65, 60
2, 44636, Note_off_c, 0, 65, 100
2, 44640, Note_on_c, 0, 72, 60
2, 44732, Note_off_c, 0, 84, 100
2, 44732, Note_off_c, 0, 72, 100
2, 44736, Note_on_c, 0, 69, 60
2, 44828, Note_off_c, 0, 69, 100
2, 44832, Note_on_c, 0, 82, 60
2, 44832, Note_on_c, 0, 72, 60
2, 44876, Note_off_c, 0, 82, 100
2, 44880, Note_on_c, 0, 81, 60
2, 44924, Note_off_c, 0, 72, 100
2, 44924, Note_off_c, 0, 81, 100
2, 44928, Note_on_c, 0, 79, 60
2, 44928, Note_on_c, 0, 67, 60
2, 45020, Note_off_c, 0, 79, 100
2, 45020, Note_off_c, 0, 67, 100
2, 45024, Note_on_c, 0, 77, 60
2, 45024, Note_on_c, 0, 72, 60
2, 45116, Note_off_c, 0, 77, 100
2, 45116, Note_off_c, 0, 72, 100
2, 45120, Note_on_c, 0, 76, 60
2, 45120, Note_on_c, 0, 70, 60
2, 45212, Note_off_c, 0, 76, 100
2, 45212, Note_off_c, 0, 70, 100
2, 45216, Note_on_c, 0, 79, 60
2, 45216, Note_on_c, 0, 72, 60
2, 45308, Note_off_c, 0, 79, 100
2, 45308, Note_off_c, 0, 72, 100
2, 45312, Note_on_c, 0, 77, 60
2, 45312, Note_on_c, 0, 69, 60
2, 45404, Note_off_c, 0, 69, 100
2, 45408, Note_on_c, 0, 65, 60
2, 45500, Note_off_c, 0, 77, 100
2, 45500, Note_off_c, 0, 65, 100
2, 45504, Note_on_c, 0, 72, 60
2, 45592, Note_off_c, 0, 72, 100
2, 45600, Note_on_c, 0, 84, 60
2, 45688, Note_off_c, 0, 84, 100
2, 45696, Note_on_c, 0, 84, 60
2, 45784, Note_off_c, 0, 84, 100
2, 45792, Note_on_c, 0, 84, 60
2, 45880, Note_off_c, 0, 84, 100
2, 45888, Note_on_c, 0, 84, 60
2, 45976, Note_off_c, 0, 84, 100
2, 45984, Note_on_c, 0, 84, 60
2, 46072, Note_off_c, 0, 84, 100
2, 46080, Note_on_c, 0, 84, 60
2, 46080, Note_on_c, 0, 65, 60
2, 46172, Note_off_c, 0, 65, 100
2, 46176, Note_on_c, 0, 72, 60
2, 46268, Note_off_c, 0, 84, 100
2, 46268, Note_off_c, 0, 72, 100
2, 46272, Note_on_c, 0, 69, 60
2, 46364, Note_off_c, 0, 69, 100
2, 46368, Note_on_c, 0, 82, 60
2, 46368, Note_on_c, 0, 72, 60
2, 46412, Note_off_c, 0, 82, 100
2, 46416, Note_on_c, 0, 81, 60
2, 46460, Note_off_c, 0, 72, 100
2, 46460, Note_off_c, 0, 81, 100
2, 46464, Note_on_c, 0, 79, 60
2, 46464, Note_on_c, 0, 64, 60
2, 46556, Note_off_c, 0, 79, 100
2, 46556, Note_off_c, 0, 64, 100
2, 46560, Note_on_c, 0, 81, 60
2, 46560, Note_on_c, 0, 72, 60
2, 46652, Note_off_c, 0, 81, 100
2, 46652, Note_off_c, 0, 72, 100
2, 46656, Note_on_c, 0, 82, 60
2, 46656, Note_on_c, 0, 67, 60
2, 46748, Note_off_c, 0, 82, 100
2, 46748, Note_off_c, 0, 67, 100
2, 46752, Note_on_c, 0, 79, 60
2, 46752, Note_on_c, 0, 72, 60
2, 46844, Note_off_c, 0, 79, 100
2, 46844, Note_off_c, 0, 72, 100
2, 46848, Note_on_c, 0, 81, 60
2, 46848, Note_on_c, 0, 65, 60
2, 46940, Note_off_c, 0, 65, 100
2, 46944, Note_on_c, 0, 69, 60
2, 47036, Note_off_c, 0, 81, 100
2, 47036, Note_off_c, 0, 69, 100
2, 47040, Note_on_c, 0, 72, 60
2, 47132, Note_off_c, 0, 72, 100
2, 47136, Note_on_c, 0, 84, 60
2, 47224, Note_off_c, 0, 84, 100
2, 47232, Note_on_c, 0, 84, 60
2, 47320, Note_off_c, 0, 84, 100
2, 47328, Note_on_c, 0, 84, 60
2, 47416, Note_off_c, 0, 84, 100
2, 47424, Note_on_c, 0, 84, 60
2, 47512, Note_off_c, 0, 84, 100
2, 47520, Note_on_c, 0, 84, 60
2, 47612, Note_off_c, 0, 84, 100
2, 47616, Note_on_c, 0, 84, 90
2, 47660, Note_off_c, 0, 84, 100
2, 47664, Note_on_c, 0, 74, 90
2, 47708, Note_off_c, 0, 74, 100
2, 47712, Note_on_c, 0, 73, 90
2, 47756, Note_off_c, 0, 73, 100
2, 47760, Note_on_c, 0, 74, 90
2, 47804, Note_off_c, 0, 74, 100
2, 47808, Note_on_c, 0, 75, 90
2, 47852, Note_off_c, 0, 75, 100
2, 47856, Note_on_c, 0, 74, 90
2, 47900, Note_off_c, 0, 74, 100
2, 47904, Note_on_c, 0, 76, 90
2, 47948, Note_off_c, 0, 76, 100
2, 47952, Note_on_c, 0, 74, 90
2, 47996, Note_off_c, 0, 74, 100
2, 48000, Note_on_c, 0, 77, 90
2, 48044, Note_off_c, 0, 77, 100
2, 48048, Note_on_c, 0, 74, 90
2, 48092, Note_off_c, 0, 74, 100
2, 48096, Note_on_c, 0, 78, 90
2, 48140, Note_off_c, 0, 78, 100
2, 48144, Note_on_c, 0, 74, 90
2, 48188, Note_off_c, 0, 74, 100
2, 48192, Note_on_c, 0, 79, 90
2, 48236, Note_off_c, 0, 79, 100
2, 48240, Note_on_c, 0, 74, 90
2, 48284, Note_off_c, 0, 74, 100
2, 48288, Note_on_c, 0, 81, 90
2, 48332, Note_off_c, 0, 81, 100
2, 48336, Note_on_c, 0, 74, 90
2, 48380, Note_off_c, 0, 74, 100
2, 48384, Note_on_c, 0, 82, 90
2, 48384, Note_on_c, 0, 67, 90
2, 48428, Note_off_c, 0, 67, 100
2, 48432, Note_on_c, 0, 69, 90
2, 48476, Note_off_c, 0, 69, 100
2, 48480, Note_on_c, 0, 70, 90
2, 48524, Note_off_c, 0, 70, 100
2, 48528, Note_on_c, 0, 69, 90
2, 48572, Note_off_c, 0, 69, 100
2, 48576, Note_on_c, 0, 67, 90
2, 48620, Note_off_c, 0, 67, 100
2, 48624, Note_on_c, 0, 69, 90
2, 48668, Note_off_c, 0, 69, 100
2, 48672, Note_on_c, 0, 65, 90
2, 48716, Note_off_c, 0, 65, 100
2, 48720, Note_on_c, 0, 67, 90
2, 48764, Note_off_c, 0, 82, 100
2, 48764, Note_off_c, 0, 67, 100
2, 48768, Note_on_c, 0, 64, 90
2, 48812, Note_off_c, 0, 64, 100
2, 48816, Note_on_c, 0, 65, 90
2, 48860, Note_off_c, 0, 65, 100
2, 48864, Note_on_c, 0, 62, 90
2, 48864, Note_on_c, 0, 82, 90
2, 48908, Note_off_c, 0, 62, 100
2, 48912, Note_on_c, 0, 64, 90
2, 48956, Note_off_c, 0, 82, 100
2, 48956, Note_off_c, 0, 64, 0
2, 48960, Note_on_c, 0, 60, 90
2, 48960, Note_on_c, 0, 84, 90
2, 48984, Note_off_c, 0, 84, 0
2, 48984, Note_on_c, 0, 82, 90
2, 49004, Note_off_c, 0, 60, 100
2, 49008, Note_off_c, 0, 82, 0
2, 49008, Note_on_c, 0, 62, 90
2, 49008, Note_on_c, 0, 84, 90
2, 49032, Note_off_c, 0, 84, 0
2, 49032, Note_on_c, 0, 82, 90
2, 49052, Note_off_c, 0, 62, 100
2, 49056, Note_off_c, 0, 82, 0
2, 49056, Note_on_c, 0, 81, 90
2, 49056, Note_on_c, 0, 58, 90
2, 49100, Note_off_c, 0, 81, 100
2, 49100, Note_off_c, 0, 58, 100
2, 49104, Note_on_c, 0, 82, 90
2, 49104, Note_on_c, 0, 60, 90
2, 49148, Note_off_c, 0, 82, 100
2, 49152, Note_on_c, 0, 84, 90
2, 49156, Note_off_c, 0, 60, 64
2, 49196, Note_off_c, 0, 84, 100
2, 49200, Note_on_c, 0, 72, 90
2, 49244, Note_off_c, 0, 72, 100
2, 49248, Note_on_c, 0, 71, 90
2, 49292, Note_off_c, 0, 71, 100
2, 49296, Note_on_c, 0, 72, 90
2, 49340, Note_off_c, 0, 72, 100
2, 49344, Note_on_c, 0, 73, 90
2, 49388, Note_off_c, 0, 73, 100
2, 49392, Note_on_c, 0, 72, 90
2, 49436, Note_off_c, 0, 72, 100
2, 49440, Note_on_c, 0, 74, 90
2, 49484, Note_off_c, 0, 74, 100
2, 49488, Note_on_c, 0, 72, 90
2, 49532, Note_off_c, 0, 72, 100
2, 49536, Note_on_c, 0, 75, 90
2, 49580, Note_off_c, 0, 75, 100
2, 49584, Note_on_c, 0, 72, 90
2, 49628, Note_off_c, 0, 72, 100
2, 49632, Note_on_c, 0, 76, 90
2, 49676, Note_off_c, 0, 76, 100
2, 49680, Note_on_c, 0, 72, 90
2, 49724, Note_off_c, 0, 72, 100
2, 49728, Note_on_c, 0, 77, 90
2, 49772, Note_off_c, 0, 77, 100
2, 49776, Note_on_c, 0, 72, 90
2, 49820, Note_off_c, 0, 72, 100
2, 49824, Note_on_c, 0, 79, 90
2, 49868, Note_off_c, 0, 79, 100
2, 49872, Note_on_c, 0, 72, 90
2, 49916, Note_off_c, 0, 72, 100
2, 49920, Note_on_c, 0, 81, 90
2, 49920, Note_on_c, 0, 65, 90
2, 49964, Note_off_c, 0, 65, 100
2, 49968, Note_on_c, 0, 67, 90
2, 50012, Note_off_c, 0, 67, 100
2, 50016, Note_on_c, 0, 69, 90
2, 50060, Note_off_c, 0, 69, 100
2, 50064, Note_on_c, 0, 67, 90
2, 50108, Note_off_c, 0, 67, 100
2, 50112, Note_on_c, 0, 65, 90
2, 50156, Note_off_c, 0, 65, 100
2, 50160, Note_on_c, 0, 67, 90
2, 50204, Note_off_c, 0, 67, 100
2, 50208, Note_on_c, 0, 64, 90
2, 50252, Note_off_c, 0, 64, 100
2, 50256, Note_on_c, 0, 65, 90
2, 50300, Note_off_c, 0, 81, 100
2, 50300, Note_off_c, 0, 65, 100
2, 50304, Note_on_c, 0, 62, 90
2, 50348, Note_off_c, 0, 62, 100
2, 50352, Note_on_c, 0, 64, 90
2, 50396, Note_off_c, 0, 64, 100
2, 50400, Note_on_c, 0, 60, 90
2, 50416, Note_on_c, 0, 81, 90
2, 50444, Note_off_c, 0, 60, 100
2, 50448, Note_on_c, 0, 62, 90
2, 50492, Note_off_c, 0, 62, 100
2, 50496, Note_on_c, 0, 58, 90
2, 50496, Note_on_c, 0, 81, 90
2, 50508, Note_off_c, 0, 81, 100
2, 50520, Note_off_c, 0, 81, 0
2, 50520, Note_on_c, 0, 82, 90
2, 50540, Note_off_c, 0, 58, 100
2, 50544, Note_off_c, 0, 82, 0
2, 50544, Note_on_c, 0, 60, 90
2, 50544, Note_on_c, 0, 82, 90
2, 50568, Note_off_c, 0, 82, 0
2, 50568, Note_on_c, 0, 81, 90
2, 50588, Note_off_c, 0, 60, 100
2, 50592, Note_off_c, 0, 81, 0
2, 50592, Note_on_c, 0, 79, 90
2, 50592, Note_on_c, 0, 57, 90
2, 50636, Note_off_c, 0, 79, 100
2, 50636, Note_off_c, 0, 57, 100
2, 50640, Note_on_c, 0, 81, 90
2, 50640, Note_on_c, 0, 58, 90
2, 50684, Note_off_c, 0, 81, 100
2, 50684, Note_off_c, 0, 58, 100
2, 50688, Note_on_c, 0, 82, 90
2, 50732, Note_off_c, 0, 82, 100
2, 50736, Note_on_c, 0, 70, 90
2, 50780, Note_off_c, 0, 70, 100
2, 50784, Note_on_c, 0, 69, 90
2, 50828, Note_off_c, 0, 69, 100
2, 50832, Note_on_c, 0, 70, 90
2, 50876, Note_off_c, 0, 70, 100
2, 50880, Note_on_c, 0, 72, 90
2, 50924, Note_off_c, 0, 72, 100
2, 50928, Note_on_c, 0, 69, 90
2, 50972, Note_off_c, 0, 69, 100
2, 50976, Note_on_c, 0, 73, 90
2, 51020, Note_off_c, 0, 73, 100
2, 51024, Note_on_c, 0, 70, 90
2, 51068, Note_off_c, 0, 70, 100
2, 51072, Note_on_c, 0, 74, 90
2, 51116, Note_off_c, 0, 74, 100
2, 51120, Note_on_c, 0, 70, 90
2, 51164, Note_off_c, 0, 70, 100
2, 51168, Note_on_c, 0, 76, 90
2, 51212, Note_off_c, 0, 76, 100
2, 51216, Note_on_c, 0, 70, 90
2, 51260, Note_off_c, 0, 70, 100
2, 51264, Note_on_c, 0, 77, 90
2, 51308, Note_off_c, 0, 77, 100
2, 51312, Note_on_c, 0, 70, 90
2, 51356, Note_off_c, 0, 70, 100
2, 51360, Note_on_c, 0, 78, 90
2, 51404, Note_off_c, 0, 78, 100
2, 51408, Note_on_c, 0, 70, 90
2, 51452, Note_off_c, 0, 70, 100
2, 51456, Note_on_c, 0, 79, 90
2, 51456, Note_on_c, 0, 60, 79
2, 51500, Note_off_c, 0, 60, 100
2, 51504, Note_on_c, 0, 64, 79
2, 51548, Note_off_c, 0, 64, 100
2, 51552, Note_on_c, 0, 67, 79
2, 51596, Note_off_c, 0, 67, 100
2, 51600, Note_on_c, 0, 64, 79
2, 51644, Note_off_c, 0, 79, 100
2, 51644, Note_off_c, 0, 64, 100
2, 51648, Note_on_c, 0, 60, 79
2, 51692, Note_off_c, 0, 60, 100
2, 51696, Note_on_c, 0, 64, 79
2, 51740, Note_off_c, 0, 64, 100
2, 51744, Note_on_c, 0, 82, 90
2, 51744, Note_on_c, 0, 67, 79
2, 51788, Note_off_c, 0, 67, 100
2, 51792, Note_on_c, 0, 64, 79
2, 51836, Note_off_c, 0, 82, 100
2, 51836, Note_off_c, 0, 64, 100
2, 51840, Note_on_c, 0, 60, 79
2, 51856, Note_on_c, 0, 81, 90
2, 51884, Note_off_c, 0, 60, 100
2, 51888, Note_on_c, 0, 67, 79
2, 51932, Note_off_c, 0, 67, 100
2, 51936, Note_on_c, 0, 79, 90
2, 51936, Note_on_c, 0, 70, 79
2, 51948, Note_off_c, 0, 81, 100
2, 51980, Note_off_c, 0, 70, 100
2, 51984, Note_on_c, 0, 67, 79
2, 52028, Note_off_c, 0, 79, 100
2, 52028, Note_off_c, 0, 67, 100
2, 52032, Note_on_c, 0, 77, 90
2, 52032, Note_on_c, 0, 60, 79
2, 52076, Note_off_c, 0, 60, 100
2, 52080, Note_on_c, 0, 67, 79
2, 52124, Note_off_c, 0, 77, 100
2, 52124, Note_off_c, 0, 67, 100
2, 52128, Note_on_c, 0, 70, 79
2, 52144, Note_on_c, 0, 76, 90
2, 52172, Note_off_c, 0, 70, 100
2, 52176, Note_on_c, 0, 67, 79
2, 52220, Note_off_c, 0, 67, 100
2, 52224, Note_on_c, 0, 79, 90
2, 52224, Note_on_c, 0, 60, 79
2, 52236, Note_off_c, 0, 76, 100
2, 52268, Note_off_c, 0, 60, 100
2, 52272, Note_on_c, 0, 65, 79
2, 52316, Note_off_c, 0, 79, 100
2, 52316, Note_off_c, 0, 65, 100
2, 52320, Note_on_c, 0, 77, 90
2, 52320, Note_on_c, 0, 69, 79
2, 52364, Note_off_c, 0, 69, 100
2, 52368, Note_on_c, 0, 65, 79
2, 52412, Note_off_c, 0, 77, 100
2, 52412, Note_off_c, 0, 65, 100
2, 52416, Note_on_c, 0, 60, 79
2, 52460, Note_off_c, 0, 60, 100
2, 52464, Note_on_c, 0, 65, 79
2, 52508, Note_off_c, 0, 65, 100
2, 52512, Note_on_c, 0, 84, 90
2, 52512, Note_on_c, 0, 69, 79
2, 52556, Note_off_c, 0, 69, 100
2, 52560, Note_on_c, 0, 65, 79
2, 52604, Note_off_c, 0, 84, 100
2, 52604, Note_off_c, 0, 65, 100
2, 52608, Note_on_c, 0, 82, 90
2, 52608, Note_on_c, 0, 60, 79
2, 52652, Note_off_c, 0, 60, 100
2, 52656, Note_on_c, 0, 63, 79
2, 52700, Note_off_c, 0, 82, 100
2, 52700, Note_off_c, 0, 63, 100
2, 52704, Note_on_c, 0, 81, 90
2, 52704, Note_on_c, 0, 66, 79
2, 52748, Note_off_c, 0, 66, 100
2, 52752, Note_on_c, 0, 63, 79
2, 52796, Note_off_c, 0, 81, 100
2, 52796, Note_off_c, 0, 63, 100
2, 52800, Note_on_c, 0, 79, 90
2, 52800, Note_on_c, 0, 60, 79
2, 52844, Note_off_c, 0, 60, 100
2, 52848, Note_on_c, 0, 63, 79
2, 52892, Note_off_c, 0, 79, 100
2, 52892, Note_off_c, 0, 63, 100
2, 52896, Note_on_c, 0, 78, 90
2, 52896, Note_on_c, 0, 69, 79
2, 52940, Note_off_c, 0, 69, 100
2, 52944, Note_on_c, 0, 63, 79
2, 52988, Note_off_c, 0, 78, 100
2, 52988, Note_off_c, 0, 63, 100
2, 52992, Note_on_c, 0, 79, 90
2, 52992, Note_on_c, 0, 58, 79
2, 53036, Note_off_c, 0, 58, 100
2, 53040, Note_on_c, 0, 62, 79
2, 53084, Note_off_c, 0, 79, 100
2, 53084, Note_off_c, 0, 62, 100
2, 53088, Note_on_c, 0, 67, 79
2, 53132, Note_off_c, 0, 67, 100
2, 53136, Note_on_c, 0, 62, 79
2, 53136, Note_on_c, 0, 81, 90
2, 53180, Note_off_c, 0, 62, 100
2, 53180, Note_off_c, 0, 81, 100
2, 53184, Note_on_c, 0, 58, 79
2, 53184, Note_on_c, 0, 84, 90
2, 53228, Note_off_c, 0, 58, 100
2, 53228, Note_off_c, 0, 84, 100
2, 53232, Note_on_c, 0, 62, 79
2, 53232, Note_on_c, 0, 82, 90
2, 53276, Note_off_c, 0, 62, 100
2, 53276, Note_off_c, 0, 82, 100
2, 53280, Note_on_c, 0, 81, 90
2, 53280, Note_on_c, 0, 67, 79
2, 53324, Note_off_c, 0, 81, 100
2, 53324, Note_off_c, 0, 67, 100
2, 53328, Note_on_c, 0, 79, 90
2, 53328, Note_on_c, 0, 62, 79
2, 53372, Note_off_c, 0, 79, 100
2, 53372, Note_off_c, 0, 62, 100
2, 53376, Note_on_c, 0, 77, 90
2, 53376, Note_on_c, 0, 60, 79
2, 53420, Note_off_c, 0, 60, 100
2, 53424, Note_on_c, 0, 65, 79
2, 53468, Note_off_c, 0, 65, 100
2, 53472, Note_on_c, 0, 69, 79
2, 53516, Note_off_c, 0, 69, 100
2, 53520, Note_on_c, 0, 65, 79
2, 53564, Note_off_c, 0, 77, 100
2, 53564, Note_off_c, 0, 65, 100
2, 53568, Note_on_c, 0, 76, 90
2, 53568, Note_on_c, 0, 60, 79
2, 53612, Note_off_c, 0, 60, 100
2, 53616, Note_on_c, 0, 67, 79
2, 53648, Note_on_c, 0, 70, 79
2, 53660, Note_off_c, 0, 67, 100
2, 53692, Note_off_c, 0, 70, 100
2, 53712, Note_on_c, 0, 67, 79
2, 53756, Note_off_c, 0, 76, 100
2, 53756, Note_off_c, 0, 67, 100
2, 53808, Note_on_c, 0, 77, 90
2, 53852, Note_off_c, 0, 77, 100
2, 53856, Note_on_c, 0, 75, 90
2, 53900, Note_off_c, 0, 75, 100
2, 53904, Note_on_c, 0, 77, 90
2, 53948, Note_off_c, 0, 77, 100
2, 54000, Note_on_c, 0, 72, 90
2, 54044, Note_off_c, 0, 72, 100
2, 54048, Note_on_c, 0, 70, 90
2, 54092, Note_off_c, 0, 70, 100
2, 54096, Note_on_c, 0, 72, 90
2, 54140, Note_off_c, 0, 72, 100
2, 54192, Note_on_c, 0, 69, 90
2, 54236, Note_off_c, 0, 69, 100
2, 54240, Note_on_c, 0, 67, 90
2, 54284, Note_off_c, 0, 67, 100
2, 54288, Note_on_c, 0, 69, 90
2, 54332, Note_off_c, 0, 69, 100
2, 54384, Note_on_c, 0, 65, 90
2, 54428, Note_off_c, 0, 65, 100
2, 54432, Note_on_c, 0, 63, 90
2, 54476, Note_off_c, 0, 63, 100
2, 54480, Note_on_c, 0, 65, 90
2, 54524, Note_off_c, 0, 65, 100
2, 54528, Note_on_c, 0, 70, 60
2, 54528, Note_on_c, 0, 60, 49
2, 54572, Note_off_c, 0, 70, 100
2, 54572, Note_off_c, 0, 60, 100
2, 54576, Note_on_c, 0, 72, 60
2, 54576, Note_on_c, 0, 67, 49
2, 54620, Note_off_c, 0, 72, 100
2, 54620, Note_off_c, 0, 67, 100
2, 54624, Note_on_c, 0, 76, 60
2, 54624, Note_on_c, 0, 70, 49
2, 54668, Note_off_c, 0, 70, 100
2, 54672, Note_on_c, 0, 67, 49
2, 54716, Note_off_c, 0, 67, 100
2, 54720, Note_on_c, 0, 60, 49
2, 54764, Note_off_c, 0, 60, 100
2, 54768, Note_on_c, 0, 67, 49
2, 54812, Note_off_c, 0, 76, 100
2, 54812, Note_off_c, 0, 67, 100
2, 54816, Note_on_c, 0, 82, 60
2, 54816, Note_on_c, 0, 70, 49
2, 54860, Note_off_c, 0, 70, 100
2, 54864, Note_on_c, 0, 67, 49
2, 54908, Note_off_c, 0, 82, 100
2, 54908, Note_off_c, 0, 67, 100
2, 54912, Note_on_c, 0, 81, 60
2, 54912, Note_on_c, 0, 60, 49
2, 54956, Note_off_c, 0, 60, 100
2, 54960, Note_on_c, 0, 67, 49
2, 55004, Note_off_c, 0, 81, 100
2, 55004, Note_off_c, 0, 67, 100
2, 55008, Note_on_c, 0, 79, 60
2, 55008, Note_on_c, 0, 70, 49
2, 55052, Note_off_c, 0, 70, 100
2, 55056, Note_on_c, 0, 67, 49
2, 55100, Note_off_c, 0, 79, 100
2, 55100, Note_off_c, 0, 67, 100
2, 55104, Note_on_c, 0, 77, 60
2, 55104, Note_on_c, 0, 60, 49
2, 55148, Note_off_c, 0, 60, 100
2, 55152, Note_on_c, 0, 67, 49
2, 55196, Note_off_c, 0, 77, 100
2, 55196, Note_off_c, 0, 67, 100
2, 55200, Note_on_c, 0, 76, 60
2, 55200, Note_on_c, 0, 70, 49
2, 55244, Note_off_c, 0, 70, 100
2, 55248, Note_on_c, 0, 67, 49
2, 55292, Note_off_c, 0, 76, 100
2, 55292, Note_off_c, 0, 67, 100
2, 55296, Note_on_c, 0, 79, 60
2, 55296, Note_on_c, 0, 60, 49
2, 55340, Note_off_c, 0, 60, 100
2, 55344, Note_on_c, 0, 65, 49
2, 55388, Note_off_c, 0, 79, 100
2, 55388, Note_off_c, 0, 65, 100
2, 55392, Note_on_c, 0, 77, 60
2, 55392, Note_on_c, 0, 69, 49
2, 55436, Note_off_c, 0, 69, 100
2, 55440, Note_on_c, 0, 65, 49
2, 55484, Note_off_c, 0, 77, 100
2, 55484, Note_off_c, 0, 65, 100
2, 55488, Note_on_c, 0, 60, 49
2, 55532, Note_off_c, 0, 60, 100
2, 55536, Note_on_c, 0, 65, 49
2, 55580, Note_off_c, 0, 65, 100
2, 55584, Note_on_c, 0, 84, 60
2, 55584, Note_on_c, 0, 69, 49
2, 55628, Note_off_c, 0, 69, 100
2, 55632, Note_on_c, 0, 65, 49
2, 55676, Note_off_c, 0, 84, 100
2, 55676, Note_off_c, 0, 65, 100
2, 55680, Note_on_c, 0, 82, 60
2, 55680, Note_on_c, 0, 60, 49
2, 55724, Note_off_c, 0, 60, 100
2, 55728, Note_on_c, 0, 63, 49
2, 55772, Note_off_c, 0, 82, 100
2, 55772, Note_off_c, 0, 63, 100
2, 55776, Note_on_c, 0, 81, 60
2, 55776, Note_on_c, 0, 66, 49
2, 55820, Note_off_c, 0, 66, 100
2, 55824, Note_on_c, 0, 63, 49
2, 55868, Note_off_c, 0, 81, 100
2, 55868, Note_off_c, 0, 63, 100
2, 55872, Note_on_c, 0, 79, 60
2, 55872, Note_on_c, 0, 60, 49
2, 55916, Note_off_c, 0, 60, 100
2, 55920, Note_on_c, 0, 63, 49
2, 55964, Note_off_c, 0, 79, 100
2, 55964, Note_off_c, 0, 63, 100
2, 55968, Note_on_c, 0, 78, 60
2, 55984, Note_on_c, 0, 69, 49
2, 56016, Note_on_c, 0, 63, 49
2, 56028, Note_off_c, 0, 69, 100
2, 56060, Note_off_c, 0, 78, 100
2, 56060, Note_off_c, 0, 63, 100
2, 56064, Note_on_c, 0, 79, 60
2, 56064, Note_on_c, 0, 58, 49
2, 56108, Note_off_c, 0, 58, 100
2, 56112, Note_on_c, 0, 62, 49
2, 56156, Note_off_c, 0, 79, 100
2, 56156, Note_off_c, 0, 62, 100
2, 56160, Note_on_c, 0, 67, 49
2, 56204, Note_off_c, 0, 67, 100
2, 56208, Note_on_c, 0, 81, 60
2, 56208, Note_on_c, 0, 62, 49
2, 56252, Note_off_c, 0, 81, 100
2, 56252, Note_off_c, 0, 62, 100
2, 56256, Note_on_c, 0, 81, 60
2, 56256, Note_on_c, 0, 58, 49
2, 56300, Note_off_c, 0, 81, 100
2, 56300, Note_off_c, 0, 58, 100
2, 56304, Note_on_c, 0, 82, 60
2, 56304, Note_on_c, 0, 62, 49
2, 56348, Note_off_c, 0, 82, 100
2, 56348, Note_off_c, 0, 62, 100
2, 56352, Note_on_c, 0, 84, 60
2, 56352, Note_on_c, 0, 67, 49
2, 56396, Note_off_c, 0, 84, 100
2, 56396, Note_off_c, 0, 67, 100
2, 56400, Note_on_c, 0, 86, 60
2, 56400, Note_on_c, 0, 62, 49
2, 56444, Note_off_c, 0, 86, 100
2, 56444, Note_off_c, 0, 62, 100
2, 56448, Note_on_c, 0, 86, 60
2, 56448, Note_on_c, 0, 60, 49
2, 56480, Note_off_c, 0, 86, 100
2, 56480, Note_on_c, 0, 77, 60
2, 56492, Note_off_c, 0, 60, 100
2, 56496, Note_on_c, 0, 65, 67
2, 56540, Note_off_c, 0, 65, 0
2, 56544, Note_on_c, 0, 69, 49
2, 56588, Note_off_c, 0, 69, 100
2, 56592, Note_on_c, 0, 65, 49
2, 56636, Note_off_c, 0, 77, 100
2, 56636, Note_off_c, 0, 65, 100
2, 56640, Note_on_c, 0, 60, 49
2, 56640, Note_on_c, 0, 79, 60
2, 56664, Note_off_c, 0, 79, 100
2, 56664, Note_on_c, 0, 81, 60
2, 56684, Note_off_c, 0, 60, 100
2, 56688, Note_off_c, 0, 81, 100
2, 56688, Note_on_c, 0, 79, 60
2, 56688, Note_on_c, 0, 64, 49
2, 56712, Note_off_c, 0, 79, 100
2, 56712, Note_on_c, 0, 81, 60
2, 56732, Note_off_c, 0, 64, 100
2, 56736, Note_off_c, 0, 81, 100
2, 56736, Note_on_c, 0, 70, 49
2, 56736, Note_on_c, 0, 77, 60
2, 56780, Note_off_c, 0, 70, 100
2, 56780, Note_off_c, 0, 77, 0
2, 56784, Note_on_c, 0, 64, 49
2, 56784, Note_on_c, 0, 79, 60
2, 56828, Note_off_c, 0, 64, 100
2, 56828, Note_off_c, 0, 79, 0
2, 56832, Note_on_c, 0, 65, 49
2, 56832, Note_on_c, 0, 69, 49
2, 56880, Note_on_c, 0, 84, 90
2, 56924, Note_off_c, 0, 84, 100
2, 56928, Note_on_c, 0, 81, 90
2, 56972, Note_off_c, 0, 81, 100
2, 56976, Note_on_c, 0, 77, 90
2, 57020, Note_off_c, 0, 65, 100
2, 57020, Note_off_c, 0, 69, 100
2, 57020, Note_off_c, 0, 77, 100
2, 57024, Note_on_c, 0, 72, 90
2, 57068, Note_off_c, 0, 72, 100
2, 57072, Note_on_c, 0, 69, 90
2, 57116, Note_off_c, 0, 69, 100
2, 57120, Note_on_c, 0, 65, 90
2, 57164, Note_off_c, 0, 65, 100
2, 57216, Note_on_c, 0, 63, 90
2, 57216, Note_on_c, 0, 60, 90
2, 57596, Note_off_c, 0, 63, 100
2, 57596, Note_off_c, 0, 60, 100
2, 57600, Note_on_c, 0, 63, 90
2, 57600, Note_on_c, 0, 60, 90
2, 57692, Note_off_c, 0, 63, 100
2, 57692, Note_off_c, 0, 60, 100
2, 57696, Note_on_c, 0, 62, 90
2, 57788, Note_off_c, 0, 62, 100
2, 57888, Note_on_c, 0, 74, 60
2, 57888, Note_on_c, 0, 70, 60
2, 57980, Note_off_c, 0, 74, 100
2, 57980, Note_off_c, 0, 70, 100
2, 58080, Note_on_c, 0, 72, 60
2, 58080, Note_on_c, 0, 69, 60
2, 58172, Note_off_c, 0, 72, 100
2, 58172, Note_off_c, 0, 69, 100
2, 58272, Note_on_c, 0, 64, 60
2, 58272, Note_on_c, 0, 58, 60
2, 58364, Note_off_c, 0, 64, 100
2, 58364, Note_off_c, 0, 58, 100
2, 58416, Note_on_c, 0, 84, 90
2, 58460, Note_off_c, 0, 84, 100
2, 58464, Note_on_c, 0, 81, 90
2, 58508, Note_off_c, 0, 81, 100
2, 58512, Note_on_c, 0, 77, 90
2, 58556, Note_off_c, 0, 77, 100
2, 58560, Note_on_c, 0, 72, 90
2, 58604, Note_off_c, 0, 72, 100
2, 58608, Note_on_c, 0, 69, 90
2, 58652, Note_off_c, 0, 69, 100
2, 58656, Note_on_c, 0, 65, 90
2, 58700, Note_off_c, 0, 65, 100
2, 58752, Note_on_c, 0, 63, 90
2, 58752, Note_on_c, 0, 60, 90
2, 59132, Note_off_c, 0, 63, 100
2, 59132, Note_off_c, 0, 60, 100
2, 59136, Note_on_c, 0, 63, 90
2, 59136, Note_on_c, 0, 60, 90
2, 59228, Note_off_c, 0, 63, 100
2, 59228, Note_off_c, 0, 60, 100
2, 59232, Note_on_c, 0, 62, 90
2, 59324, Note_off_c, 0, 62, 100
2, 59424, Note_on_c, 0, 74, 60
2, 59424, Note_on_c, 0, 70, 60
2, 59516, Note_off_c, 0, 74, 100
2, 59516, Note_off_c, 0, 70, 100
2, 59616, Note_on_c, 0, 72, 60
2, 59616, Note_on_c, 0, 69, 60
2, 59708, Note_off_c, 0, 72, 100
2, 59708, Note_off_c, 0, 69, 100
2, 59808, Note_on_c, 0, 64, 60
2, 59808, Note_on_c, 0, 58, 60
2, 59900, Note_off_c, 0, 64, 100
2, 59900, Note_off_c, 0, 58, 100
2, 59904, Note_on_c, 0, 65, 60
2, 59904, Note_on_c, 0, 57, 60
2, 60092, Note_off_c, 0, 65, 100
2, 60092, Note_off_c, 0, 57, 100
2, 60192, Note_on_c, 0, 65, 60
2, 60192, Note_on_c, 0, 69, 60
2, 60284, Note_off_c, 0, 65, 100
2, 60284, Note_off_c, 0, 69, 100
2, 60288, Note_on_c, 0, 67, 60
2, 60288, Note_on_c, 0, 63, 60
2, 60380, Note_off_c, 0, 67, 100
2, 60380, Note_off_c, 0, 63, 100
2, 60384, Note_on_c, 0, 67, 60
2, 60384, Note_on_c, 0, 63, 60
2, 60476, Note_off_c, 0, 67, 100
2, 60476, Note_off_c, 0, 63, 100
2, 60576, Note_on_c, 0, 70, 60
2, 60576, Note_on_c, 0, 67, 60
2, 60668, Note_off_c, 0, 70, 100
2, 60668, Note_off_c, 0, 67, 100
2, 60672, Note_on_c, 0, 65, 60
2, 60672, Note_on_c, 0, 69, 60
2, 60764, Note_off_c, 0, 65, 100
2, 60764, Note_off_c, 0, 69, 100
2, 60768, Note_on_c, 0, 65, 60
2, 60768, Note_on_c, 0, 69, 60
2, 60860, Note_off_c, 0, 65, 100
2, 60860, Note_off_c, 0, 69, 100
2, 60960, Note_on_c, 0, 81, 60
2, 60960, Note_on_c, 0, 77, 60
2, 61052, Note_off_c, 0, 81, 100
2, 61052, Note_off_c, 0, 77, 100
2, 61056, Note_on_c, 0, 79, 60
2, 61056, Note_on_c, 0, 75, 60
2, 61148, Note_off_c, 0, 79, 100
2, 61148, Note_off_c, 0, 75, 100
2, 61152, Note_on_c, 0, 79, 60
2, 61152, Note_on_c, 0, 75, 60
2, 61244, Note_off_c, 0, 79, 100
2, 61244, Note_off_c, 0, 75, 100
2, 61344, Note_on_c, 0, 82, 90
2, 61344, Note_on_c, 0, 75, 90
2, 61344, Note_on_c, 0, 79, 90
2, 61436, Note_off_c, 0, 82, 100
2, 61436, Note_off_c, 0, 75, 100
2, 61436, Note_off_c, 0, 79, 100
2, 61440, Note_on_c, 0, 82, 90
2, 61440, Note_on_c, 0, 79, 90
2, 61440, Note_on_c, 0, 76, 90
2, 61820, Note_off_c, 0, 82, 100
2, 61820, Note_off_c, 0, 79, 100
2, 61820, Note_off_c, 0, 76, 100
2, 61824, Note_on_c, 0, 81, 90
2, 61824, Note_on_c, 0, 77, 90
2, 62012, Note_off_c, 0, 81, 100
2, 62012, Note_off_c, 0, 77, 100
2, 62208, Note_on_c, 0, 65, 60
2, 62208, Note_on_c, 0, 70, 60
2, 62240, Note_off_c, 0, 70, 100
2, 62240, Note_on_c, 0, 72, 60
2, 62252, Note_off_c, 0, 65, 100
2, 62256, Note_on_c, 0, 69, 60
2, 62272, Note_off_c, 0, 72, 100
2, 62272, Note_on_c, 0, 74, 60
2, 62300, Note_off_c, 0, 69, 100
2, 62304, Note_off_c, 0, 74, 100
2, 62304, Note_on_c, 0, 72, 60
2, 62304, Note_on_c, 0, 68, 60
2, 62348, Note_off_c, 0, 68, 100
2, 62352, Note_on_c, 0, 69, 60
2, 62396, Note_off_c, 0, 69, 100
2, 62400, Note_on_c, 0, 65, 60
2, 62444, Note_off_c, 0, 65, 100
2, 62448, Note_on_c, 0, 69, 60
2, 62492, Note_off_c, 0, 69, 100
2, 62496, Note_on_c, 0, 68, 60
2, 62540, Note_off_c, 0, 68, 100
2, 62544, Note_on_c, 0, 69, 60
2, 62588, Note_off_c, 0, 69, 100
2, 62592, Note_on_c, 0, 72, 60
2, 62592, Note_on_c, 0, 65, 60
2, 62636, Note_off_c, 0, 65, 100
2, 62640, Note_on_c, 0, 69, 60
2, 62684, Note_off_c, 0, 72, 100
2, 62684, Note_off_c, 0, 72, 100
2, 62684, Note_off_c, 0, 69, 100
2, 62688, Note_on_c, 0, 77, 60
2, 62688, Note_on_c, 0, 68, 60
2, 62732, Note_off_c, 0, 68, 100
2, 62736, Note_on_c, 0, 69, 60
2, 62780, Note_off_c, 0, 77, 100
2, 62780, Note_off_c, 0, 69, 100
2, 62784, Note_on_c, 0, 76, 60
2, 62784, Note_on_c, 0, 65, 60
2, 62828, Note_off_c, 0, 65, 100
2, 62832, Note_on_c, 0, 69, 60
2, 62876, Note_off_c, 0, 76, 100
2, 62876, Note_off_c, 0, 69, 100
2, 62880, Note_on_c, 0, 74, 60
2, 62880, Note_on_c, 0, 68, 60
2, 62924, Note_off_c, 0, 68, 100
2, 62928, Note_on_c, 0, 69, 60
2, 62972, Note_off_c, 0, 74, 100
2, 62972, Note_off_c, 0, 69, 100
2, 62976, Note_on_c, 0, 64, 60
2, 62976, Note_on_c, 0, 76, 60
2, 63000, Note_off_c, 0, 76, 64
2, 63000, Note_on_c, 0, 74, 60
2, 63020, Note_off_c, 0, 64, 100
2, 63024, Note_off_c, 0, 74, 64
2, 63024, Note_on_c, 0, 67, 60
2, 63024, Note_on_c, 0, 76, 60
2, 63048, Note_off_c, 0, 76, 64
2, 63048, Note_on_c, 0, 74, 60
2, 63068, Note_off_c, 0, 67, 100
2, 63072, Note_off_c, 0, 74, 64
2, 63072, Note_on_c, 0, 72, 60
2, 63072, Note_on_c, 0, 66, 60
2, 63116, Note_off_c, 0, 66, 100
2, 63120, Note_on_c, 0, 67, 60
2, 63164, Note_off_c, 0, 72, 100
2, 63164, Note_off_c, 0, 67, 100
2, 63168, Note_on_c, 0, 64, 60
2, 63212, Note_off_c, 0, 64, 100
2, 63216, Note_on_c, 0, 67, 60
2, 63260, Note_off_c, 0, 67, 100
2, 63264, Note_on_c, 0, 72, 60
2, 63264, Note_on_c, 0, 66, 60
2, 63308, Note_off_c, 0, 66, 100
2, 63312, Note_on_c, 0, 67, 60
2, 63356, Note_off_c, 0, 72, 100
2, 63356, Note_off_c, 0, 67, 100
2, 63360, Note_on_c, 0, 71, 60
2, 63360, Note_on_c, 0, 64, 60
2, 63404, Note_off_c, 0, 64, 100
2, 63408, Note_on_c, 0, 67, 60
2, 63452, Note_off_c, 0, 71, 100
2, 63452, Note_off_c, 0, 67, 100
2, 63456, Note_on_c, 0, 72, 60
2, 63456, Note_on_c, 0, 66, 60
2, 63500, Note_off_c, 0, 66, 100
2, 63504, Note_on_c, 0, 67, 60
2, 63548, Note_off_c, 0, 72, 100
2, 63548, Note_off_c, 0, 67, 100
2, 63552, Note_on_c, 0, 74, 60
2, 63552, Note_on_c, 0, 64, 60
2, 63596, Note_off_c, 0, 64, 100
2, 63600, Note_on_c, 0, 67, 60
2, 63644, Note_off_c, 0, 74, 100
2, 63644, Note_off_c, 0, 67, 100
2, 63648, Note_on_c, 0, 72, 60
2, 63648, Note_on_c, 0, 66, 60
2, 63692, Note_off_c, 0, 66, 100
2, 63696, Note_on_c, 0, 67, 60
2, 63740, Note_off_c, 0, 72, 100
2, 63740, Note_off_c, 0, 67, 100
2, 63744, Note_on_c, 0, 74, 60
2, 63744, Note_on_c, 0, 62, 60
2, 63768, Note_off_c, 0, 74, 64
2, 63768, Note_on_c, 0, 72, 60
2, 63788, Note_off_c, 0, 62, 100
2, 63792, Note_off_c, 0, 72, 64
2, 63792, Note_on_c, 0, 74, 60
2, 63792, Note_on_c, 0, 65, 60
2, 63816, Note_off_c, 0, 74, 64
2, 63816, Note_on_c, 0, 72, 60
2, 63836, Note_off_c, 0, 65, 100
2, 63840, Note_off_c, 0, 72, 64
2, 63840, Note_on_c, 0, 64, 60
2, 63840, Note_on_c, 0, 70, 60
2, 63884, Note_off_c, 0, 64, 100
2, 63888, Note_on_c, 0, 65, 60
2, 63932, Note_off_c, 0, 70, 64
2, 63932, Note_off_c, 0, 65, 100
2, 63936, Note_on_c, 0, 62, 60
2, 63980, Note_off_c, 0, 62, 100
2, 63984, Note_on_c, 0, 65, 60
2, 64028, Note_off_c, 0, 65, 100
2, 64032, Note_on_c, 0, 70, 60
2, 64032, Note_on_c, 0, 62, 60
2, 64076, Note_off_c, 0, 62, 100
2, 64080, Note_on_c, 0, 65, 60
2, 64124, Note_off_c, 0, 70, 100
2, 64124, Note_off_c, 0, 65, 100
2, 64128, Note_on_c, 0, 60, 60
2, 64128, Note_on_c, 0, 72, 60
2, 64152, Note_off_c, 0, 72, 64
2, 64152, Note_on_c, 0, 70, 60
2, 64172, Note_off_c, 0, 60, 100
2, 64176, Note_off_c, 0, 70, 64
2, 64176, Note_on_c, 0, 72, 60
2, 64176, Note_on_c, 0, 64, 60
2, 64200, Note_off_c, 0, 72, 64
2, 64200, Note_on_c, 0, 70, 60
2, 64220, Note_off_c, 0, 64, 100
2, 64224, Note_off_c, 0, 70, 64
2, 64224, Note_on_c, 0, 60, 60
2, 64224, Note_on_c, 0, 69, 60
2, 64268, Note_off_c, 0, 60, 100
2, 64272, Note_on_c, 0, 64, 60
2, 64316, Note_off_c, 0, 69, 64
2, 64316, Note_off_c, 0, 64, 100
2, 64320, Note_on_c, 0, 60, 60
2, 64364, Note_off_c, 0, 60, 100
2, 64368, Note_on_c, 0, 64, 60
2, 64412, Note_off_c, 0, 64, 100
2, 64416, Note_on_c, 0, 69, 60
2, 64416, Note_on_c, 0, 62, 60
2, 64460, Note_off_c, 0, 62, 100
2, 64464, Note_on_c, 0, 64, 60
2, 64508, Note_off_c, 0, 69, 100
2, 64508, Note_off_c, 0, 64, 100
2, 64512, Note_on_c, 0, 58, 60
2, 64512, Note_on_c, 0, 70, 60
2, 64536, Note_off_c, 0, 70, 64
2, 64536, Note_on_c, 0, 69, 60
2, 64556, Note_off_c, 0, 58, 100
2, 64560, Note_off_c, 0, 69, 64
2, 64560, Note_on_c, 0, 62, 60
2, 64560, Note_on_c, 0, 70, 60
2, 64584, Note_off_c, 0, 70, 64
2, 64584, Note_on_c, 0, 69, 60
2, 64604, Note_off_c, 0, 62, 100
2, 64608, Note_off_c, 0, 69, 64
2, 64608, Note_on_c, 0, 67, 60
2, 64608, Note_on_c, 0, 60, 60
2, 64652, Note_off_c, 0, 60, 100
2, 64656, Note_on_c, 0, 62, 60
2, 64700, Note_off_c, 0, 67, 100
2, 64700, Note_off_c, 0, 62, 100
2, 64704, Note_on_c, 0, 70, 60
2, 64704, Note_on_c, 0, 58, 60
2, 64748, Note_off_c, 0, 58, 100
2, 64752, Note_on_c, 0, 62, 60
2, 64796, Note_off_c, 0, 70, 100
2, 64796, Note_off_c, 0, 62, 100
2, 64800, Note_on_c, 0, 67, 60
2, 64800, Note_on_c, 0, 60, 60
2, 64844, Note_off_c, 0, 60, 100
2, 64848, Note_on_c, 0, 62, 60
2, 64892, Note_off_c, 0, 67, 100
2, 64892, Note_off_c, 0, 62, 100
2, 64896, Note_on_c, 0, 64, 60
2, 64896, Note_on_c, 0, 57, 60
2, 64940, Note_off_c, 0, 57, 100
2, 64944, Note_on_c, 0, 60, 60
2, 64988, Note_off_c, 0, 64, 100
2, 64988, Note_off_c, 0, 60, 100
2, 64992, Note_on_c, 0, 65, 60
2, 64992, Note_on_c, 0, 58, 60
2, 65036, Note_off_c, 0, 58, 100
2, 65040, Note_on_c, 0, 60, 60
2, 65084, Note_off_c, 0, 65, 100
2, 65084, Note_off_c, 0, 60, 100
2, 65088, Note_on_c, 0, 57, 60
2, 65132, Note_off_c, 0, 57, 100
2, 65136, Note_on_c, 0, 60, 60
2, 65180, Note_off_c, 0, 60, 100
2, 65184, Note_on_c, 0, 58, 60
2, 65228, Note_off_c, 0, 58, 100
2, 65232, Note_on_c, 0, 60, 60
2, 65276, Note_off_c, 0, 60, 100
2, 65280, Note_on_c, 0, 65, 60
2, 65304, Note_off_c, 0, 65, 64
2, 65304, Note_on_c, 0, 67, 60
2, 65328, Note_off_c, 0, 67, 64
2, 65328, Note_on_c, 0, 65, 60
2, 65352, Note_off_c, 0, 65, 64
2, 65352, Note_on_c, 0, 67, 60
2, 65376, Note_off_c, 0, 67, 64
2, 65376, Note_on_c, 0, 65, 60
2, 65400, Note_off_c, 0, 65, 64
2, 65400, Note_on_c, 0, 67, 60
2, 65424, Note_off_c, 0, 67, 64
2, 65424, Note_on_c, 0, 67, 60
2, 65448, Note_off_c, 0, 67, 64
2, 65448, Note_on_c, 0, 65, 60
2, 65472, Note_off_c, 0, 65, 64
2, 65472, Note_on_c, 0, 65, 60
2, 65496, Note_off_c, 0, 65, 64
2, 65496, Note_on_c, 0, 67, 60
2, 65520, Note_off_c, 0, 67, 64
2, 65520, Note_on_c, 0, 63, 60
2, 65544, Note_off_c, 0, 63, 64
2, 65544, Note_on_c, 0, 65, 60
2, 65568, Note_off_c, 0, 65, 64
2, 65568, Note_on_c, 0, 67, 60
2, 65612, Note_off_c, 0, 67, 100
2, 65616, Note_on_c, 0, 69, 60
2, 65660, Note_off_c, 0, 69, 100
2, 65664, Note_on_c, 0, 65, 60
2, 65724, Note_off_c, 0, 65, 100
2, 65728, Note_on_c, 0, 64, 60
2, 65788, Note_off_c, 0, 64, 100
2, 65792, Note_on_c, 0, 67, 60
2, 65852, Note_off_c, 0, 67, 100
2, 65856, Note_on_c, 0, 65, 60
2, 65916, Note_off_c, 0, 65, 100
2, 65920, Note_on_c, 0, 64, 60
2, 65980, Note_off_c, 0, 64, 100
2, 65984, Note_on_c, 0, 70, 60
2, 66044, Note_off_c, 0, 70, 100
2, 66048, Note_on_c, 0, 67, 60
2, 66108, Note_off_c, 0, 67, 100
2, 66112, Note_on_c, 0, 65, 60
2, 66172, Note_off_c, 0, 65, 100
2, 66176, Note_on_c, 0, 69, 60
2, 66236, Note_off_c, 0, 69, 100
2, 66240, Note_on_c, 0, 67, 60
2, 66300, Note_off_c, 0, 67, 100
2, 66304, Note_on_c, 0, 65, 60
2, 66364, Note_off_c, 0, 65, 100
2, 66368, Note_on_c, 0, 72, 60
2, 66428, Note_off_c, 0, 72, 100
2, 66432, Note_on_c, 0, 69, 60
2, 66620, Note_off_c, 0, 69, 100
2, 66816, Note_on_c, 0, 67, 90
2, 66876, Note_off_c, 0, 67, 100
2, 66880, Note_on_c, 0, 70, 90
2, 66940, Note_off_c, 0, 70, 100
2, 66944, Note_on_c, 0, 74, 90
2, 67004, Note_off_c, 0, 74, 100
2, 67008, Note_on_c, 0, 79, 90
2, 67068, Note_off_c, 0, 79, 100
2, 67072, Note_on_c, 0, 82, 90
2, 67132, Note_off_c, 0, 82, 100
2, 67136, Note_on_c, 0, 86, 90
2, 67196, Note_off_c, 0, 86, 100
2, 67200, Note_on_c, 0, 86, 90
2, 67244, Note_off_c, 0, 86, 100
2, 67248, Note_on_c, 0, 84, 90
2, 67292, Note_off_c, 0, 84, 100
2, 67296, Note_on_c, 0, 82, 90
2, 67340, Note_off_c, 0, 82, 100
2, 67344, Note_on_c, 0, 81, 90
2, 67388, Note_off_c, 0, 81, 100
2, 67392, Note_on_c, 0, 81, 90
2, 67436, Note_off_c, 0, 81, 100
2, 67440, Note_on_c, 0, 79, 90
2, 67484, Note_off_c, 0, 79, 100
2, 67488, Note_on_c, 0, 77, 90
2, 67532, Note_off_c, 0, 77, 100
2, 67536, Note_on_c, 0, 76, 90
2, 67580, Note_off_c, 0, 76, 100
2, 67584, Note_on_c, 0, 77, 90
2, 67964, Note_off_c, 0, 77, 100
2, 68416, Note_on_c, 0, 81, 60
2, 68476, Note_off_c, 0, 81, 100
2, 68480, Note_on_c, 0, 82, 60
2, 68540, Note_off_c, 0, 82, 100
2, 68544, Note_on_c, 0, 84, 60
2, 68604, Note_off_c, 0, 84, 100
2, 68608, Note_on_c, 0, 78, 60
2, 68668, Note_off_c, 0, 78, 100
2, 68672, Note_on_c, 0, 79, 60
2, 68732, Note_off_c, 0, 79, 100
2, 68736, Note_on_c, 0, 81, 60
2, 68796, Note_off_c, 0, 81, 100
2, 68800, Note_on_c, 0, 72, 60
2, 68860, Note_off_c, 0, 72, 100
2, 68864, Note_on_c, 0, 74, 60
2, 68924, Note_off_c, 0, 74, 100
2, 68928, Note_on_c, 0, 75, 60
2, 68988, Note_off_c, 0, 75, 100
2, 68992, Note_on_c, 0, 69, 60
2, 69052, Note_off_c, 0, 69, 100
2, 69056, Note_on_c, 0, 72, 60
2, 69116, Note_off_c, 0, 72, 100
2, 69120, Note_on_c, 0, 70, 60
2, 69500, Note_off_c, 0, 70, 100
2, 69952, Note_on_c, 0, 74, 60
2, 70012, Note_off_c, 0, 74, 100
2, 70016, Note_on_c, 0, 75, 60
2, 70076, Note_off_c, 0, 75, 100
2, 70080, Note_on_c, 0, 77, 60
2, 70140, Note_off_c, 0, 77, 100
2, 70144, Note_on_c, 0, 70, 60
2, 70204, Note_off_c, 0, 70, 100
2, 70208, Note_on_c, 0, 72, 60
2, 70268, Note_off_c, 0, 72, 100
2, 70272, Note_on_c, 0, 74, 60
2, 70332, Note_off_c, 0, 74, 100
2, 70336, Note_on_c, 0, 65, 60
2, 70396, Note_off_c, 0, 65, 100
2, 70400, Note_on_c, 0, 67, 60
2, 70460, Note_off_c, 0, 67, 100
2, 70464, Note_on_c, 0, 68, 60
2, 70524, Note_off_c, 0, 68, 100
2, 70528, Note_on_c, 0, 62, 60
2, 70588, Note_off_c, 0, 62, 100
2, 70592, Note_on_c, 0, 65, 60
2, 70652, Note_off_c, 0, 65, 100
2, 70656, Note_on_c, 0, 63, 60
2, 71036, Note_off_c, 0, 63, 100
2, 71488, Note_on_c, 0, 79, 60
2, 71488, Note_on_c, 0, 82, 60
2, 71548, Note_off_c, 0, 79, 100
2, 71548, Note_off_c, 0, 82, 100
2, 71552, Note_on_c, 0, 78, 60
2, 71552, Note_on_c, 0, 81, 60
2, 71612, Note_off_c, 0, 78, 100
2, 71612, Note_off_c, 0, 81, 100
2, 71616, Note_on_c, 0, 82, 60
2, 71616, Note_on_c, 0, 79, 60
2, 71676, Note_off_c, 0, 82, 100
2, 71676, Note_off_c, 0, 79, 100
2, 71680, Note_on_c, 0, 81, 60
2, 71680, Note_on_c, 0, 78, 60
2, 71740, Note_off_c, 0, 81, 100
2, 71740, Note_off_c, 0, 78, 100
2, 71744, Note_on_c, 0, 82, 60
2, 71744, Note_on_c, 0, 79, 60
2, 71804, Note_off_c, 0, 82, 100
2, 71804, Note_off_c, 0, 79, 100
2, 71872, Note_on_c, 0, 70, 60
2, 71872, Note_on_c, 0, 67, 60
2, 71932, Note_off_c, 0, 70, 100
2, 71932, Note_off_c, 0, 67, 100
2, 71936, Note_on_c, 0, 69, 60
2, 71936, Note_on_c, 0, 66, 60
2, 71996, Note_off_c, 0, 69, 100
2, 71996, Note_off_c, 0, 66, 100
2, 72000, Note_on_c, 0, 70, 60
2, 72000, Note_on_c, 0, 67, 60
2, 72060, Note_off_c, 0, 70, 100
2, 72060, Note_off_c, 0, 67, 100
2, 72064, Note_on_c, 0, 69, 60
2, 72064, Note_on_c, 0, 66, 60
2, 72124, Note_off_c, 0, 69, 100
2, 72124, Note_off_c, 0, 66, 100
2, 72128, Note_on_c, 0, 70, 60
2, 72128, Note_on_c, 0, 67, 60
2, 72188, Note_off_c, 0, 70, 100
2, 72188, Note_off_c, 0, 67, 100
2, 72192, Note_on_c, 0, 66, 90
2, 72192, Note_on_c, 0, 69, 90
2, 72380, Note_off_c, 0, 66, 100
2, 72380, Note_off_c, 0, 69, 100
2, 72384, Note_on_c, 0, 66, 90
2, 72400, Note_on_c, 0, 69, 90
2, 72416, Note_on_c, 0, 75, 90
2, 72572, Note_off_c, 0, 66, 100
2, 72588, Note_off_c, 0, 69, 100
2, 72604, Note_off_c, 0, 75, 100
2, 72960, Note_on_c, 0, 74, 90
2, 73004, Note_off_c, 0, 74, 100
2, 73008, Note_on_c, 0, 79, 90
2, 73052, Note_off_c, 0, 79, 100
2, 73056, Note_on_c, 0, 78, 90
2, 73100, Note_off_c, 0, 78, 100
2, 73104, Note_on_c, 0, 79, 90
2, 73148, Note_off_c, 0, 79, 100
2, 73152, Note_on_c, 0, 81, 90
2, 73196, Note_off_c, 0, 81, 100
2, 73200, Note_on_c, 0, 79, 90
2, 73244, Note_off_c, 0, 79, 100
2, 73248, Note_on_c, 0, 78, 90
2, 73292, Note_off_c, 0, 78, 100
2, 73296, Note_on_c, 0, 79, 90
2, 73340, Note_off_c, 0, 79, 100
2, 73344, Note_on_c, 0, 82, 90
2, 73388, Note_off_c, 0, 82, 100
2, 73392, Note_on_c, 0, 79, 90
2, 73436, Note_off_c, 0, 79, 100
2, 73440, Note_on_c, 0, 78, 90
2, 73484, Note_off_c, 0, 78, 100
2, 73488, Note_on_c, 0, 79, 90
2, 73532, Note_off_c, 0, 79, 100
2, 73536, Note_on_c, 0, 75, 90
2, 73580, Note_off_c, 0, 75, 100
2, 73584, Note_on_c, 0, 79, 90
2, 73628, Note_off_c, 0, 79, 100
2, 73632, Note_on_c, 0, 78, 90
2, 73676, Note_off_c, 0, 78, 100
2, 73680, Note_on_c, 0, 79, 90
2, 73724, Note_off_c, 0, 79, 100
2, 73728, Note_on_c, 0, 74, 90
2, 73772, Note_off_c, 0, 74, 100
2, 73776, Note_on_c, 0, 79, 90
2, 73820, Note_off_c, 0, 79, 100
2, 73824, Note_on_c, 0, 78, 90
2, 73868, Note_off_c, 0, 78, 100
2, 73872, Note_on_c, 0, 79, 90
2, 73916, Note_off_c, 0, 79, 100
2, 73920, Note_on_c, 0, 81, 90
2, 73964, Note_off_c, 0, 81, 100
2, 73968, Note_on_c, 0, 79, 90
2, 74012, Note_off_c, 0, 79, 100
2, 74016, Note_on_c, 0, 78, 90
2, 74060, Note_off_c, 0, 78, 100
2, 74064, Note_on_c, 0, 79, 90
2, 74108, Note_off_c, 0, 79, 100
2, 74112, Note_on_c, 0, 82, 90
2, 74156, Note_off_c, 0, 82, 100
2, 74160, Note_on_c, 0, 79, 90
2, 74204, Note_off_c, 0, 79, 100
2, 74208, Note_on_c, 0, 78, 90
2, 74240, Note_on_c, 0, 79, 90
2, 74252, Note_off_c, 0, 78, 100
2, 74284, Note_off_c, 0, 79, 100
2, 74304, Note_on_c, 0, 72, 90
2, 74348, Note_off_c, 0, 72, 100
2, 74352, Note_on_c, 0, 79, 90
2, 74396, Note_off_c, 0, 79, 100
2, 74400, Note_on_c, 0, 78, 90
2, 74444, Note_off_c, 0, 78, 100
2, 74448, Note_on_c, 0, 79, 90
2, 74492, Note_off_c, 0, 79, 100
2, 74496, Note_on_c, 0, 70, 90
2, 74496, Note_on_c, 0, 62, 90
2, 74540, Note_off_c, 0, 62, 100
2, 74544, Note_on_c, 0, 67, 90
2, 74588, Note_off_c, 0, 70, 100
2, 74588, Note_off_c, 0, 67, 100
2, 74592, Note_on_c, 0, 79, 90
2, 74592, Note_on_c, 0, 66, 90
2, 74636, Note_off_c, 0, 66, 100
2, 74640, Note_on_c, 0, 67, 90
2, 74684, Note_off_c, 0, 79, 100
2, 74684, Note_off_c, 0, 67, 100
2, 74688, Note_on_c, 0, 71, 90
2, 74688, Note_on_c, 0, 62, 90
2, 74732, Note_off_c, 0, 62, 100
2, 74736, Note_on_c, 0, 67, 90
2, 74780, Note_off_c, 0, 71, 100
2, 74780, Note_off_c, 0, 67, 100
2, 74784, Note_on_c, 0, 77, 90
2, 74784, Note_on_c, 0, 66, 90
2, 74828, Note_off_c, 0, 66, 100
2, 74832, Note_on_c, 0, 67, 90
2, 74876, Note_off_c, 0, 77, 100
2, 74876, Note_off_c, 0, 67, 100
2, 74880, Note_on_c, 0, 72, 90
2, 74880, Note_on_c, 0, 60, 90
2, 74924, Note_off_c, 0, 60, 100
2, 74928, Note_on_c, 0, 67, 90
2, 74972, Note_off_c, 0, 72, 100
2, 74972, Note_off_c, 0, 67, 100
2, 74976, Note_on_c, 0, 75, 90
2, 74976, Note_on_c, 0, 66, 90
2, 75020, Note_off_c, 0, 66, 100
2, 75024, Note_on_c, 0, 67, 90
2, 75068, Note_off_c, 0, 67, 100
2, 75072, Note_on_c, 0, 59, 90
2, 75116, Note_off_c, 0, 59, 100
2, 75120, Note_on_c, 0, 67, 90
2, 75164, Note_off_c, 0, 75, 100
2, 75164, Note_off_c, 0, 67, 100
2, 75168, Note_on_c, 0, 74, 90
2, 75168, Note_on_c, 0, 66, 90
2, 75212, Note_off_c, 0, 66, 100
2, 75216, Note_on_c, 0, 67, 90
2, 75260, Note_off_c, 0, 74, 100
2, 75260, Note_off_c, 0, 67, 100
2, 75264, Note_on_c, 0, 60, 90
2, 75264, Note_on_c, 0, 77, 90
2, 75288, Note_off_c, 0, 77, 64
2, 75288, Note_on_c, 0, 75, 90
2, 75308, Note_off_c, 0, 60, 100
2, 75312, Note_off_c, 0, 75, 64
2, 75312, Note_on_c, 0, 67, 90
2, 75312, Note_on_c, 0, 77, 90
2, 75336, Note_off_c, 0, 77, 64
2, 75336, Note_on_c, 0, 75, 90
2, 75356, Note_off_c, 0, 67, 100
2, 75360, Note_off_c, 0, 75, 64
2, 75360, Note_on_c, 0, 66, 90
2, 75360, Note_on_c, 0, 77, 90
2, 75384, Note_off_c, 0, 77, 64
2, 75384, Note_on_c, 0, 75, 90
2, 75404, Note_off_c, 0, 66, 100
2, 75408, Note_off_c, 0, 75, 64
2, 75408, Note_on_c, 0, 67, 90
2, 75408, Note_on_c, 0, 77, 90
2, 75432, Note_off_c, 0, 77, 64
2, 75432, Note_on_c, 0, 75, 90
2, 75452, Note_off_c, 0, 67, 100
2, 75456, Note_off_c, 0, 75, 64
2, 75456, Note_on_c, 0, 60, 90
2, 75456, Note_on_c, 0, 77, 90
2, 75480, Note_off_c, 0, 77, 64
2, 75480, Note_on_c, 0, 75, 90
2, 75500, Note_off_c, 0, 60, 100
2, 75504, Note_off_c, 0, 75, 64
2, 75504, Note_on_c, 0, 69, 90
2, 75504, Note_on_c, 0, 77, 90
2, 75528, Note_off_c, 0, 77, 64
2, 75528, Note_on_c, 0, 75, 90
2, 75548, Note_off_c, 0, 69, 100
2, 75552, Note_off_c, 0, 75, 64
2, 75552, Note_on_c, 0, 74, 90
2, 75552, Note_on_c, 0, 70, 90
2, 75596, Note_off_c, 0, 74, 100
2, 75596, Note_off_c, 0, 70, 100
2, 75600, Note_on_c, 0, 72, 90
2, 75600, Note_on_c, 0, 69, 90
2, 75644, Note_off_c, 0, 72, 100
2, 75644, Note_off_c, 0, 69, 100
2, 75648, Note_on_c, 0, 70, 90
2, 75648, Note_on_c, 0, 62, 90
2, 75692, Note_off_c, 0, 62, 100
2, 75696, Note_on_c, 0, 67, 90
2, 75740, Note_off_c, 0, 67, 100
2, 75744, Note_on_c, 0, 66, 90
2, 75776, Note_off_c, 0, 70, 100
2, 75788, Note_off_c, 0, 66, 100
2, 75792, Note_on_c, 0, 67, 90
2, 75836, Note_off_c, 0, 67, 100
2, 75840, Note_on_c, 0, 62, 90
2, 75840, Note_on_c, 0, 69, 90
2, 75864, Note_off_c, 0, 69, 64
2, 75864, Note_on_c, 0, 70, 90
2, 75884, Note_off_c, 0, 62, 100
2, 75888, Note_off_c, 0, 70, 64
2, 75888, Note_on_c, 0, 66, 90
2, 75888, Note_on_c, 0, 69, 90
2, 75912, Note_off_c, 0, 69, 64
2, 75912, Note_on_c, 0, 70, 90
2, 75932, Note_off_c, 0, 66, 100
2, 75936, Note_off_c, 0, 70, 64
2, 75936, Note_on_c, 0, 64, 90
2, 75936, Note_on_c, 0, 67, 90
2, 75980, Note_off_c, 0, 64, 100
2, 75980, Note_off_c, 0, 67, 64
2, 75984, Note_on_c, 0, 66, 90
2, 75984, Note_on_c, 0, 69, 90
2, 76028, Note_off_c, 0, 66, 100
2, 76028, Note_off_c, 0, 69, 64
2, 76032, Note_on_c, 0, 70, 90
2, 76032, Note_on_c, 0, 55, 90
2, 76076, Note_off_c, 0, 55, 100
2, 76080, Note_on_c, 0, 67, 90
2, 76124, Note_off_c, 0, 70, 100
2, 76124, Note_off_c, 0, 67, 100
2, 76128, Note_on_c, 0, 79, 90
2, 76128, Note_on_c, 0, 66, 90
2, 76172, Note_off_c, 0, 66, 100
2, 76176, Note_on_c, 0, 67, 90
2, 76220, Note_off_c, 0, 79, 100
2, 76220, Note_off_c, 0, 67, 100
2, 76224, Note_on_c, 0, 71, 90
2, 76224, Note_on_c, 0, 62, 90
2, 76268, Note_off_c, 0, 62, 100
2, 76272, Note_on_c, 0, 67, 90
2, 76316, Note_off_c, 0, 71, 100
2, 76316, Note_off_c, 0, 67, 100
2, 76320, Note_on_c, 0, 77, 90
2, 76320, Note_on_c, 0, 66, 90
2, 76364, Note_off_c, 0, 66, 100
2, 76368, Note_on_c, 0, 67, 90
2, 76412, Note_off_c, 0, 77, 100
2, 76412, Note_off_c, 0, 67, 100
2, 76416, Note_on_c, 0, 72, 90
2, 76416, Note_on_c, 0, 60, 90
2, 76460, Note_off_c, 0, 60, 100
2, 76464, Note_on_c, 0, 67, 90
2, 76508, Note_off_c, 0, 72, 100
2, 76508, Note_off_c, 0, 67, 100
2, 76512, Note_on_c, 0, 75, 90
2, 76512, Note_on_c, 0, 66, 90
2, 76556, Note_off_c, 0, 66, 100
2, 76560, Note_on_c, 0, 67, 90
2, 76604, Note_off_c, 0, 67, 100
2, 76608, Note_on_c, 0, 59, 90
2, 76652, Note_off_c, 0, 59, 100
2, 76656, Note_on_c, 0, 67, 90
2, 76700, Note_off_c, 0, 75, 100
2, 76700, Note_off_c, 0, 67, 100
2, 76704, Note_on_c, 0, 74, 90
2, 76704, Note_on_c, 0, 66, 90
2, 76748, Note_off_c, 0, 66, 100
2, 76752, Note_on_c, 0, 67, 90
2, 76796, Note_off_c, 0, 74, 100
2, 76796, Note_off_c, 0, 67, 100
2, 76800, Note_on_c, 0, 60, 90
2, 76800, Note_on_c, 0, 77, 90
2, 76824, Note_off_c, 0, 77, 64
2, 76824, Note_on_c, 0, 75, 90
2, 76844, Note_off_c, 0, 60, 100
2, 76848, Note_off_c, 0, 75, 64
2, 76848, Note_on_c, 0, 67, 90
2, 76848, Note_on_c, 0, 77, 90
2, 76872, Note_off_c, 0, 77, 64
2, 76872, Note_on_c, 0, 75, 90
2, 76892, Note_off_c, 0, 67, 100
2, 76896, Note_off_c, 0, 75, 64
2, 76896, Note_on_c, 0, 66, 90
2, 76896, Note_on_c, 0, 77, 90
2, 76920, Note_off_c, 0, 77, 64
2, 76920, Note_on_c, 0, 75, 90
2, 76940, Note_off_c, 0, 66, 100
2, 76944, Note_off_c, 0, 75, 64
2, 76944, Note_on_c, 0, 67, 90
2, 76944, Note_on_c, 0, 77, 90
2, 76968, Note_off_c, 0, 77, 64
2, 76968, Note_on_c, 0, 75, 90
2, 76988, Note_off_c, 0, 67, 100
2, 76992, Note_off_c, 0, 75, 64
2, 76992, Note_on_c, 0, 60, 90
2, 76992, Note_on_c, 0, 77, 90
2, 77016, Note_off_c, 0, 77, 64
2, 77016, Note_on_c, 0, 75, 90
2, 77024, Note_on_c, 0, 77, 90
2, 77036, Note_off_c, 0, 60, 100
2, 77040, Note_off_c, 0, 75, 64
2, 77040, Note_on_c, 0, 69, 90
2, 77048, Note_off_c, 0, 77, 64
2, 77064, Note_on_c, 0, 75, 90
2, 77084, Note_off_c, 0, 69, 100
2, 77088, Note_off_c, 0, 75, 64
2, 77088, Note_on_c, 0, 74, 90
2, 77088, Note_on_c, 0, 70, 90
2, 77132, Note_off_c, 0, 74, 100
2, 77132, Note_off_c, 0, 70, 100
2, 77136, Note_on_c, 0, 72, 90
2, 77136, Note_on_c, 0, 69, 90
2, 77180, Note_off_c, 0, 72, 100
2, 77180, Note_off_c, 0, 69, 100
2, 77184, Note_on_c, 0, 70, 90
2, 77184, Note_on_c, 0, 62, 90
2, 77228, Note_off_c, 0, 62, 100
2, 77232, Note_on_c, 0, 67, 90
2, 77276, Note_off_c, 0, 67, 100
2, 77280, Note_on_c, 0, 66, 90
2, 77324, Note_off_c, 0, 66, 100
2, 77328, Note_on_c, 0, 67, 90
2, 77372, Note_off_c, 0, 70, 100
2, 77372, Note_off_c, 0, 67, 100
2, 77376, Note_on_c, 0, 62, 90
2, 77376, Note_on_c, 0, 69, 90
2, 77400, Note_off_c, 0, 69, 64
2, 77400, Note_on_c, 0, 70, 90
2, 77420, Note_off_c, 0, 62, 100
2, 77424, Note_off_c, 0, 70, 64
2, 77424, Note_on_c, 0, 66, 90
2, 77424, Note_on_c, 0, 69, 90
2, 77448, Note_off_c, 0, 69, 64
2, 77448, Note_on_c, 0, 70, 90
2, 77468, Note_off_c, 0, 66, 100
2, 77472, Note_off_c, 0, 70, 64
2, 77472, Note_on_c, 0, 64, 90
2, 77472, Note_on_c, 0, 67, 90
2, 77516, Note_off_c, 0, 64, 100
2, 77516, Note_off_c, 0, 67, 64
2, 77520, Note_on_c, 0, 66, 90
2, 77520, Note_on_c, 0, 69, 90
2, 77564, Note_off_c, 0, 66, 100
2, 77564, Note_off_c, 0, 69, 64
2, 77568, Note_on_c, 0, 67, 90
2, 77756, Note_off_c, 0, 67, 100
2, 77856, Note_on_c, 0, 67, 60
2, 77948, Note_off_c, 0, 67, 100
2, 77952, Note_on_c, 0, 70, 60
2, 78140, Note_off_c, 0, 70, 100
2, 78240, Note_on_c, 0, 70, 69
2, 78332, Note_off_c, 0, 70, 100
2, 78336, Note_on_c, 0, 75, 72
2, 78524, Note_off_c, 0, 75, 100
2, 78624, Note_on_c, 0, 75, 78
2, 78716, Note_off_c, 0, 75, 100
2, 78720, Note_on_c, 0, 79, 79
2, 78908, Note_off_c, 0, 79, 100
2, 79008, Note_on_c, 0, 79, 87
2, 79100, Note_off_c, 0, 79, 100
2, 79104, Note_on_c, 0, 80, 90
2, 79148, Note_off_c, 0, 80, 100
2, 79152, Note_on_c, 0, 82, 90
2, 79196, Note_off_c, 0, 82, 100
2, 79200, Note_on_c, 0, 80, 90
2, 79244, Note_off_c, 0, 80, 100
2, 79248, Note_on_c, 0, 79, 90
2, 79292, Note_off_c, 0, 79, 100
2, 79296, Note_on_c, 0, 77, 90
2, 79340, Note_off_c, 0, 77, 100
2, 79344, Note_on_c, 0, 79, 90
2, 79388, Note_off_c, 0, 79, 100
2, 79392, Note_on_c, 0, 77, 90
2, 79436, Note_off_c, 0, 77, 100
2, 79440, Note_on_c, 0, 75, 90
2, 79484, Note_off_c, 0, 75, 100
2, 79488, Note_on_c, 0, 74, 90
2, 79532, Note_off_c, 0, 74, 100
2, 79536, Note_on_c, 0, 75, 90
2, 79580, Note_off_c, 0, 75, 100
2, 79584, Note_on_c, 0, 74, 90
2, 79628, Note_off_c, 0, 74, 100
2, 79632, Note_on_c, 0, 72, 90
2, 79676, Note_off_c, 0, 72, 100
2, 79680, Note_on_c, 0, 70, 90
2, 79724, Note_off_c, 0, 70, 100
2, 79728, Note_on_c, 0, 72, 90
2, 79772, Note_off_c, 0, 72, 100
2, 79776, Note_on_c, 0, 70, 90
2, 79820, Note_off_c, 0, 70, 100
2, 79824, Note_on_c, 0, 68, 90
2, 79868, Note_off_c, 0, 68, 100
2, 79920, Note_on_c, 0, 67, 60
2, 79964, Note_off_c, 0, 67, 100
2, 79968, Note_on_c, 0, 68, 60
2, 80012, Note_off_c, 0, 68, 100
2, 80016, Note_on_c, 0, 67, 60
2, 80060, Note_off_c, 0, 67, 100
2, 80112, Note_on_c, 0, 70, 60
2, 80156, Note_off_c, 0, 70, 100
2, 80160, Note_on_c, 0, 72, 60
2, 80204, Note_off_c, 0, 72, 100
2, 80208, Note_on_c, 0, 70, 60
2, 80252, Note_off_c, 0, 70, 100
2, 80320, Note_on_c, 0, 75, 60
2, 80352, Note_on_c, 0, 77, 60
2, 80364, Note_off_c, 0, 75, 100
2, 80396, Note_off_c, 0, 77, 100
2, 80400, Note_on_c, 0, 75, 60
2, 80444, Note_off_c, 0, 75, 100
2, 80496, Note_on_c, 0, 79, 60
2, 80540, Note_off_c, 0, 79, 100
2, 80560, Note_on_c, 0, 80, 60
2, 80592, Note_on_c, 0, 79, 60
2, 80604, Note_off_c, 0, 80, 100
2, 80636, Note_off_c, 0, 79, 100
2, 80640, Note_on_c, 0, 80, 90
2, 80684, Note_off_c, 0, 80, 100
2, 80688, Note_on_c, 0, 82, 90
2, 80732, Note_off_c, 0, 82, 100
2, 80736, Note_on_c, 0, 80, 90
2, 80780, Note_off_c, 0, 80, 100
2, 80784, Note_on_c, 0, 79, 90
2, 80828, Note_off_c, 0, 79, 100
2, 80832, Note_on_c, 0, 77, 90
2, 80876, Note_off_c, 0, 77, 100
2, 80880, Note_on_c, 0, 79, 90
2, 80924, Note_off_c, 0, 79, 100
2, 80928, Note_on_c, 0, 77, 90
2, 80972, Note_off_c, 0, 77, 100
2, 80976, Note_on_c, 0, 75, 90
2, 81020, Note_off_c, 0, 75, 100
2, 81024, Note_on_c, 0, 74, 90
2, 81068, Note_off_c, 0, 74, 100
2, 81072, Note_on_c, 0, 75, 90
2, 81116, Note_off_c, 0, 75, 100
2, 81120, Note_on_c, 0, 74, 90
2, 81164, Note_off_c, 0, 74, 100
2, 81168, Note_on_c, 0, 72, 90
2, 81212, Note_off_c, 0, 72, 100
2, 81216, Note_on_c, 0, 70, 90
2, 81260, Note_off_c, 0, 70, 100
2, 81264, Note_on_c, 0, 72, 90
2, 81308, Note_off_c, 0, 72, 100
2, 81312, Note_on_c, 0, 70, 90
2, 81356, Note_off_c, 0, 70, 100
2, 81360, Note_on_c, 0, 68, 90
2, 81404, Note_off_c, 0, 68, 100
2, 81408, Note_on_c, 0, 67, 60
2, 81452, Note_off_c, 0, 67, 100
2, 81456, Note_on_c, 0, 69, 60
2, 81500, Note_off_c, 0, 69, 100
2, 81520, Note_on_c, 0, 70, 60
2, 81552, Note_on_c, 0, 69, 60
2, 81564, Note_off_c, 0, 70, 100
2, 81596, Note_off_c, 0, 69, 100
2, 81600, Note_on_c, 0, 70, 60
2, 81644, Note_off_c, 0, 70, 100
2, 81648, Note_on_c, 0, 71, 60
2, 81692, Note_off_c, 0, 71, 100
2, 81696, Note_on_c, 0, 72, 60
2, 81740, Note_off_c, 0, 72, 100
2, 81744, Note_on_c, 0, 71, 60
2, 81788, Note_off_c, 0, 71, 100
2, 81792, Note_on_c, 0, 72, 69
2, 81836, Note_off_c, 0, 72, 100
2, 81840, Note_on_c, 0, 74, 69
2, 81884, Note_off_c, 0, 74, 100
2, 81888, Note_on_c, 0, 75, 70
2, 81932, Note_off_c, 0, 75, 100
2, 81936, Note_on_c, 0, 74, 70
2, 81980, Note_off_c, 0, 74, 100
2, 81984, Note_on_c, 0, 75, 72
2, 82028, Note_off_c, 0, 75, 100
2, 82032, Note_on_c, 0, 78, 73
2, 82076, Note_off_c, 0, 78, 100
2, 82080, Note_on_c, 0, 79, 73
2, 82124, Note_off_c, 0, 79, 100
2, 82128, Note_on_c, 0, 78, 75
2, 82172, Note_off_c, 0, 78, 100
2, 82176, Note_on_c, 0, 79, 76
2, 82220, Note_off_c, 0, 79, 100
2, 82224, Note_on_c, 0, 81, 76
2, 82268, Note_off_c, 0, 81, 100
2, 82272, Note_on_c, 0, 82, 78
2, 82316, Note_off_c, 0, 82, 100
2, 82320, Note_on_c, 0, 81, 79
2, 82364, Note_off_c, 0, 81, 100
2, 82368, Note_on_c, 0, 82, 79
2, 82412, Note_off_c, 0, 82, 100
2, 82416, Note_on_c, 0, 81, 81
2, 82460, Note_off_c, 0, 81, 100
2, 82464, Note_on_c, 0, 82, 82
2, 82508, Note_off_c, 0, 82, 100
2, 82512, Note_on_c, 0, 81, 84
2, 82556, Note_off_c, 0, 81, 100
2, 82560, Note_on_c, 0, 82, 87
2, 82748, Note_off_c, 0, 82, 100
2, 82752, Note_on_c, 0, 76, 90
2, 82752, Note_on_c, 0, 67, 90
2, 82752, Note_on_c, 0, 70, 90
2, 82752, Note_on_c, 0, 72, 90
2, 82940, Note_off_c, 0, 76, 100
2, 82940, Note_off_c, 0, 67, 100
2, 82940, Note_off_c, 0, 70, 100
2, 82940, Note_off_c, 0, 72, 100
2, 82944, Note_on_c, 0, 77, 90
2, 82944, Note_on_c, 0, 72, 90
2, 82944, Note_on_c, 0, 69, 90
2, 83132, Note_off_c, 0, 77, 100
2, 83132, Note_off_c, 0, 72, 100
2, 83132, Note_off_c, 0, 69, 100
2, 83184, Note_on_c, 0, 82, 60
2, 83228, Note_off_c, 0, 82, 100
2, 83232, Note_on_c, 0, 79, 60
2, 83232, Note_on_c, 0, 72, 60
2, 83232, Note_on_c, 0, 70, 60
2, 83276, Note_off_c, 0, 79, 100
2, 83280, Note_on_c, 0, 76, 60
2, 83324, Note_off_c, 0, 72, 100
2, 83324, Note_off_c, 0, 70, 100
2, 83324, Note_off_c, 0, 76, 100
2, 83328, Note_on_c, 0, 77, 60
2, 83328, Note_on_c, 0, 69, 60
2, 83328, Note_on_c, 0, 72, 60
2, 83516, Note_off_c, 0, 77, 100
2, 83516, Note_off_c, 0, 69, 100
2, 83516, Note_off_c, 0, 72, 100
2, 83568, Note_on_c, 0, 82, 60
2, 83612, Note_off_c, 0, 82, 100
2, 83616, Note_on_c, 0, 79, 60
2, 83616, Note_on_c, 0, 70, 60
2, 83616, Note_on_c, 0, 72, 60
2, 83660, Note_off_c, 0, 79, 100
2, 83664, Note_on_c, 0, 76, 60
2, 83708, Note_off_c, 0, 70, 100
2, 83708, Note_off_c, 0, 72, 100
2, 83708, Note_off_c, 0, 76, 100
2, 83712, Note_on_c, 0, 77, 60
2, 83712, Note_on_c, 0, 72, 60
2, 83712, Note_on_c, 0, 69, 60
2, 83900, Note_off_c, 0, 77, 100
2, 83900, Note_off_c, 0, 72, 100
2, 83900, Note_off_c, 0, 69, 100
2, 84000, Note_on_c, 0, 78, 60
2, 84044, Note_off_c, 0, 78, 100
2, 84048, Note_on_c, 0, 79, 60
2, 84092, Note_off_c, 0, 79, 100
2, 84096, Note_on_c, 0, 76, 60
2, 84140, Note_off_c, 0, 76, 100
2, 84144, Note_on_c, 0, 77, 60
2, 84188, Note_off_c, 0, 77, 100
2, 84192, Note_on_c, 0, 74, 60
2, 84236, Note_off_c, 0, 74, 100
2, 84240, Note_on_c, 0, 75, 60
2, 84284, Note_off_c, 0, 75, 100
2, 84288, Note_on_c, 0, 73, 60
2, 84332, Note_off_c, 0, 73, 100
2, 84336, Note_on_c, 0, 74, 60
2, 84380, Note_off_c, 0, 74, 100
2, 84384, Note_on_c, 0, 71, 60
2, 84428, Note_off_c, 0, 71, 100
2, 84432, Note_on_c, 0, 72, 60
2, 84476, Note_off_c, 0, 72, 100
2, 84480, Note_on_c, 0, 70, 90
2, 84504, Note_off_c, 0, 70, 64
2, 84504, Note_on_c, 0, 72, 90
2, 84528, Note_off_c, 0, 72, 64
2, 84528, Note_on_c, 0, 70, 90
2, 84552, Note_off_c, 0, 70, 64
2, 84552, Note_on_c, 0, 72, 90
2, 84576, Note_off_c, 0, 72, 64
2, 84576, Note_on_c, 0, 70, 90
2, 84600, Note_off_c, 0, 70, 64
2, 84600, Note_on_c, 0, 72, 90
2, 84624, Note_off_c, 0, 72, 64
2, 84624, Note_on_c, 0, 70, 90
2, 84648, Note_off_c, 0, 70, 64
2, 84648, Note_on_c, 0, 72, 90
2, 84672, Note_off_c, 0, 72, 64
2, 84672, Note_on_c, 0, 70, 90
2, 84696, Note_off_c, 0, 70, 64
2, 84696, Note_on_c, 0, 72, 90
2, 84720, Note_off_c, 0, 72, 64
2, 84720, Note_on_c, 0, 69, 90
2, 84744, Note_off_c, 0, 69, 64
2, 84744, Note_on_c, 0, 70, 90
2, 84768, Note_off_c, 0, 70, 64
2, 84768, Note_on_c, 0, 72, 90
2, 84812, Note_off_c, 0, 72, 100
2, 84816, Note_on_c, 0, 74, 90
2, 84860, Note_off_c, 0, 74, 100
2, 84864, Note_on_c, 0, 70, 90
2, 84924, Note_off_c, 0, 70, 100
2, 84928, Note_on_c, 0, 69, 90
2, 84988, Note_off_c, 0, 69, 100
2, 84992, Note_on_c, 0, 72, 90
2, 85052, Note_off_c, 0, 72, 100
2, 85056, Note_on_c, 0, 70, 90
2, 85116, Note_off_c, 0, 70, 100
2, 85120, Note_on_c, 0, 69, 90
2, 85180, Note_off_c, 0, 69, 100
2, 85184, Note_on_c, 0, 75, 90
2, 85244, Note_off_c, 0, 75, 100
2, 85248, Note_on_c, 0, 72, 90
2, 85308, Note_off_c, 0, 72, 100
2, 85312, Note_on_c, 0, 70, 90
2, 85372, Note_off_c, 0, 70, 100
2, 85376, Note_on_c, 0, 74, 90
2, 85436, Note_off_c, 0, 74, 100
2, 85440, Note_on_c, 0, 72, 90
2, 85500, Note_off_c, 0, 72, 100
2, 85504, Note_on_c, 0, 70, 90
2, 85564, Note_off_c, 0, 70, 100
2, 85568, Note_on_c, 0, 77, 90
2, 85628, Note_off_c, 0, 77, 100
2, 85632, Note_on_c, 0, 74, 90
2, 85820, Note_off_c, 0, 74, 100
2, 86016, Note_on_c, 0, 79, 90
2, 86016, Note_on_c, 0, 75, 90
2, 86016, Note_on_c, 0, 70, 90
2, 86204, Note_off_c, 0, 79, 100
2, 86204, Note_off_c, 0, 75, 100
2, 86204, Note_off_c, 0, 70, 100
2, 86208, Note_on_c, 0, 77, 90
2, 86208, Note_on_c, 0, 74, 90
2, 86208, Note_on_c, 0, 70, 90
2, 86396, Note_off_c, 0, 77, 100
2, 86396, Note_off_c, 0, 74, 100
2, 86396, Note_off_c, 0, 70, 100
2, 86400, Note_on_c, 0, 77, 90
2, 86444, Note_off_c, 0, 77, 100
2, 86448, Note_on_c, 0, 82, 90
2, 86492, Note_off_c, 0, 82, 100
2, 86496, Note_on_c, 0, 81, 90
2, 86540, Note_off_c, 0, 81, 100
2, 86544, Note_on_c, 0, 82, 90
2, 86588, Note_off_c, 0, 82, 100
2, 86592, Note_on_c, 0, 86, 90
2, 86636, Note_off_c, 0, 86, 100
2, 86640, Note_on_c, 0, 82, 90
2, 86684, Note_off_c, 0, 82, 100
2, 86688, Note_on_c, 0, 81, 90
2, 86732, Note_off_c, 0, 81, 100
2, 86736, Note_on_c, 0, 82, 90
2, 86780, Note_off_c, 0, 82, 100
2, 86784, Note_on_c, 0, 77, 90
2, 86784, Note_on_c, 0, 74, 90
2, 86828, Note_off_c, 0, 77, 100
2, 86828, Note_off_c, 0, 74, 100
2, 86832, Note_on_c, 0, 75, 90
2, 86832, Note_on_c, 0, 72, 90
2, 86976, Note_on_c, 0, 74, 90
2, 86976, Note_on_c, 0, 70, 90
2, 87020, Note_off_c, 0, 75, 100
2, 87020, Note_off_c, 0, 72, 100
2, 87164, Note_off_c, 0, 74, 100
2, 87164, Note_off_c, 0, 70, 100
2, 87552, Note_on_c, 0, 58, 60
2, 87576, Note_off_c, 0, 58, 64
2, 87576, Note_on_c, 0, 60, 60
2, 87600, Note_off_c, 0, 60, 64
2, 87600, Note_on_c, 0, 58, 60
2, 87624, Note_off_c, 0, 58, 64
2, 87624, Note_on_c, 0, 60, 60
2, 87648, Note_off_c, 0, 60, 64
2, 87648, Note_on_c, 0, 58, 60
2, 87672, Note_off_c, 0, 58, 64
2, 87672, Note_on_c, 0, 60, 60
2, 87696, Note_off_c, 0, 60, 64
2, 87696, Note_on_c, 0, 58, 60
2, 87720, Note_off_c, 0, 58, 64
2, 87720, Note_on_c, 0, 60, 60
2, 87744, Note_off_c, 0, 60, 64
2, 87744, Note_on_c, 0, 58, 60
2, 87768, Note_off_c, 0, 58, 64
2, 87768, Note_on_c, 0, 60, 60
2, 87792, Note_off_c, 0, 60, 64
2, 87792, Note_on_c, 0, 57, 60
2, 87816, Note_off_c, 0, 57, 64
2, 87816, Note_on_c, 0, 58, 60
2, 87840, Note_off_c, 0, 58, 64
2, 87840, Note_on_c, 0, 60, 60
2, 87884, Note_off_c, 0, 60, 100
2, 87888, Note_on_c, 0, 62, 60
2, 87932, Note_off_c, 0, 62, 100
2, 87936, Note_on_c, 0, 58, 60
2, 87996, Note_off_c, 0, 58, 100
2, 88000, Note_on_c, 0, 57, 60
2, 88060, Note_off_c, 0, 57, 100
2, 88064, Note_on_c, 0, 60, 60
2, 88124, Note_off_c, 0, 60, 100
2, 88128, Note_on_c, 0, 58, 60
2, 88188, Note_off_c, 0, 58, 100
2, 88192, Note_on_c, 0, 57, 60
2, 88252, Note_off_c, 0, 57, 100
2, 88256, Note_on_c, 0, 63, 60
2, 88316, Note_off_c, 0, 63, 100
2, 88320, Note_on_c, 0, 60, 60
2, 88380, Note_off_c, 0, 60, 100
2, 88384, Note_on_c, 0, 58, 60
2, 88444, Note_off_c, 0, 58, 100
2, 88448, Note_on_c, 0, 62, 60
2, 88508, Note_off_c, 0, 62, 100
2, 88512, Note_on_c, 0, 60, 60
2, 88572, Note_off_c, 0, 60, 100
2, 88576, Note_on_c, 0, 58, 60
2, 88636, Note_off_c, 0, 58, 100
2, 88640, Note_on_c, 0, 65, 60
2, 88700, Note_off_c, 0, 65, 100
2, 88704, Note_on_c, 0, 62, 60
2, 88892, Note_off_c, 0, 62, 100
2, 89088, Note_on_c, 0, 67, 60
2, 89148, Note_off_c, 0, 67, 100
2, 89152, Note_on_c, 0, 72, 60
2, 89212, Note_off_c, 0, 72, 100
2, 89216, Note_on_c, 0, 75, 60
2, 89276, Note_off_c, 0, 75, 100
2, 89280, Note_on_c, 0, 72, 60
2, 89340, Note_off_c, 0, 72, 100
2, 89344, Note_on_c, 0, 75, 60
2, 89404, Note_off_c, 0, 75, 100
2, 89408, Note_on_c, 0, 79, 60
2, 89468, Note_off_c, 0, 79, 100
2, 89472, Note_on_c, 0, 79, 60
2, 89516, Note_off_c, 0, 79, 100
2, 89520, Note_on_c, 0, 77, 60
2, 89564, Note_off_c, 0, 77, 100
2, 89568, Note_on_c, 0, 75, 60
2, 89612, Note_off_c, 0, 75, 100
2, 89616, Note_on_c, 0, 74, 60
2, 89660, Note_off_c, 0, 74, 100
2, 89664, Note_on_c, 0, 74, 60
2, 89708, Note_off_c, 0, 74, 100
2, 89712, Note_on_c, 0, 72, 60
2, 89756, Note_off_c, 0, 72, 100
2, 89760, Note_on_c, 0, 70, 60
2, 89804, Note_off_c, 0, 70, 100
2, 89808, Note_on_c, 0, 69, 60
2, 89852, Note_off_c, 0, 69, 100
2, 89856, Note_on_c, 0, 70, 60
2, 90236, Note_off_c, 0, 70, 100
2, 90336, Note_on_c, 0, 70, 60
2, 90428, Note_off_c, 0, 70, 100
2, 90432, Note_on_c, 0, 69, 60
2, 90524, Note_off_c, 0, 69, 100
2, 90528, Note_on_c, 0, 68, 60
2, 90620, Note_off_c, 0, 68, 100
2, 90624, Note_on_c, 0, 67, 60
2, 90716, Note_off_c, 0, 67, 100
2, 90720, Note_on_c, 0, 69, 60
2, 90764, Note_off_c, 0, 69, 100
2, 90768, Note_on_c, 0, 70, 60
2, 90812, Note_off_c, 0, 70, 100
2, 90816, Note_on_c, 0, 72, 60
2, 90860, Note_off_c, 0, 72, 100
2, 90864, Note_on_c, 0, 74, 60
2, 90908, Note_off_c, 0, 74, 100
2, 90912, Note_on_c, 0, 75, 60
2, 90956, Note_off_c, 0, 75, 100
2, 90960, Note_on_c, 0, 77, 60
2, 91004, Note_off_c, 0, 77, 100
2, 91008, Note_on_c, 0, 79, 60
2, 91052, Note_off_c, 0, 79, 100
2, 91056, Note_on_c, 0, 81, 60
2, 91100, Note_off_c, 0, 81, 100
2, 91104, Note_on_c, 0, 82, 60
2, 91148, Note_off_c, 0, 82, 100
2, 91152, Note_on_c, 0, 81, 60
2, 91196, Note_off_c, 0, 81, 100
2, 91200, Note_on_c, 0, 82, 60
2, 91244, Note_off_c, 0, 82, 100
2, 91248, Note_on_c, 0, 81, 60
2, 91292, Note_off_c, 0, 81, 100
2, 91296, Note_on_c, 0, 82, 60
2, 91340, Note_off_c, 0, 82, 100
2, 91344, Note_on_c, 0, 79, 60
2, 91388, Note_off_c, 0, 79, 100
2, 91392, Note_on_c, 0, 77, 60
2, 91772, Note_off_c, 0, 77, 100
2, 91872, Note_on_c, 0, 70, 60
2, 91964, Note_off_c, 0, 70, 100
2, 91968, Note_on_c, 0, 69, 60
2, 92060, Note_off_c, 0, 69, 100
2, 92064, Note_on_c, 0, 68, 60
2, 92156, Note_off_c, 0, 68, 100
2, 92160, Note_on_c, 0, 67, 60
2, 92252, Note_off_c, 0, 67, 100
2, 92256, Note_on_c, 0, 69, 60
2, 92300, Note_off_c, 0, 69, 100
2, 92304, Note_on_c, 0, 70, 60
2, 92348, Note_off_c, 0, 70, 100
2, 92352, Note_on_c, 0, 72, 60
2, 92396, Note_off_c, 0, 72, 100
2, 92400, Note_on_c, 0, 74, 60
2, 92444, Note_off_c, 0, 74, 100
2, 92448, Note_on_c, 0, 75, 60
2, 92492, Note_off_c, 0, 75, 100
2, 92496, Note_on_c, 0, 77, 60
2, 92540, Note_off_c, 0, 77, 100
2, 92544, Note_on_c, 0, 79, 60
2, 92588, Note_off_c, 0, 79, 100
2, 92592, Note_on_c, 0, 81, 60
2, 92636, Note_off_c, 0, 81, 100
2, 92640, Note_on_c, 0, 82, 60
2, 92684, Note_off_c, 0, 82, 100
2, 92688, Note_on_c, 0, 81, 60
2, 92732, Note_off_c, 0, 81, 100
2, 92736, Note_on_c, 0, 82, 60
2, 92780, Note_off_c, 0, 82, 100
2, 92784, Note_on_c, 0, 81, 60
2, 92828, Note_off_c, 0, 81, 100
2, 92832, Note_on_c, 0, 82, 60
2, 92876, Note_off_c, 0, 82, 100
2, 92880, Note_on_c, 0, 79, 60
2, 92924, Note_off_c, 0, 79, 100
2, 92928, Note_on_c, 0, 77, 60
2, 93168, Note_on_c, 0, 82, 60
2, 93212, Note_off_c, 0, 82, 100
2, 93216, Note_on_c, 0, 84, 60
2, 93260, Note_off_c, 0, 84, 100
2, 93264, Note_on_c, 0, 82, 60
2, 93308, Note_off_c, 0, 77, 100
2, 93308, Note_off_c, 0, 82, 100
2, 93312, Note_on_c, 0, 86, 60
2, 93356, Note_off_c, 0, 86, 100
2, 93360, Note_on_c, 0, 84, 60
2, 93404, Note_off_c, 0, 84, 100
2, 93408, Note_on_c, 0, 82, 60
2, 93452, Note_off_c, 0, 82, 100
2, 93456, Note_on_c, 0, 81, 60
2, 93500, Note_off_c, 0, 81, 100
2, 93504, Note_on_c, 0, 79, 60
2, 93548, Note_off_c, 0, 79, 100
2, 93552, Note_on_c, 0, 77, 60
2, 93596, Note_off_c, 0, 77, 100
2, 93600, Note_on_c, 0, 75, 60
2, 93644, Note_off_c, 0, 75, 100
2, 93648, Note_on_c, 0, 74, 60
2, 93692, Note_off_c, 0, 74, 100
2, 93696, Note_on_c, 0, 75, 60
2, 93884, Note_off_c, 0, 75, 100
2, 93936, Note_on_c, 0, 81, 60
2, 93980, Note_off_c, 0, 81, 100
2, 93984, Note_on_c, 0, 82, 60
2, 94028, Note_off_c, 0, 82, 100
2, 94032, Note_on_c, 0, 81, 60
2, 94076, Note_off_c, 0, 81, 100
2, 94080, Note_on_c, 0, 84, 60
2, 94124, Note_off_c, 0, 84, 100
2, 94128, Note_on_c, 0, 82, 60
2, 94172, Note_off_c, 0, 82, 100
2, 94176, Note_on_c, 0, 81, 60
2, 94220, Note_off_c, 0, 81, 100
2, 94224, Note_on_c, 0, 79, 60
2, 94268, Note_off_c, 0, 79, 100
2, 94272, Note_on_c, 0, 77, 60
2, 94316, Note_off_c, 0, 77, 100
2, 94320, Note_on_c, 0, 75, 60
2, 94364, Note_off_c, 0, 75, 100
2, 94368, Note_on_c, 0, 74, 60
2, 94412, Note_off_c, 0, 74, 100
2, 94416, Note_on_c, 0, 72, 60
2, 94460, Note_off_c, 0, 72, 100
2, 94464, Note_on_c, 0, 74, 60
2, 94652, Note_off_c, 0, 74, 100
2, 94704, Note_on_c, 0, 77, 90
2, 94748, Note_off_c, 0, 77, 100
2, 94752, Note_on_c, 0, 79, 90
2, 94796, Note_off_c, 0, 79, 100
2, 94800, Note_on_c, 0, 77, 90
2, 94844, Note_off_c, 0, 77, 100
2, 94864, Note_on_c, 0, 82, 90
2, 94896, Note_on_c, 0, 81, 90
2, 94908, Note_off_c, 0, 82, 100
2, 94940, Note_off_c, 0, 81, 100
2, 94944, Note_on_c, 0, 79, 90
2, 94988, Note_off_c, 0, 79, 100
2, 94992, Note_on_c, 0, 77, 90
2, 95036, Note_off_c, 0, 77, 100
2, 95040, Note_on_c, 0, 75, 90
2, 95084, Note_off_c, 0, 75, 100
2, 95088, Note_on_c, 0, 74, 90
2, 95132, Note_off_c, 0, 74, 100
2, 95136, Note_on_c, 0, 72, 90
2, 95136, Note_on_c, 0, 62, 90
2, 95136, Note_on_c, 0, 65, 90
2, 95180, Note_off_c, 0, 72, 100
2, 95184, Note_on_c, 0, 70, 90
2, 95228, Note_off_c, 0, 62, 100
2, 95228, Note_off_c, 0, 65, 100
2, 95228, Note_off_c, 0, 70, 100
2, 95232, Note_on_c, 0, 74, 90
2, 95232, Note_on_c, 0, 63, 90
2, 95232, Note_on_c, 0, 67, 90
2, 95276, Note_off_c, 0, 74, 100
2, 95280, Note_on_c, 0, 72, 90
2, 95324, Note_off_c, 0, 63, 100
2, 95324, Note_off_c, 0, 67, 100
2, 95324, Note_off_c, 0, 72, 100
2, 95344, Note_on_c, 0, 75, 90
2, 95376, Note_on_c, 0, 74, 90
2, 95388, Note_off_c, 0, 75, 100
2, 95420, Note_off_c, 0, 74, 100
2, 95424, Note_on_c, 0, 77, 90
2, 95468, Note_off_c, 0, 77, 100
2, 95472, Note_on_c, 0, 75, 90
2, 95516, Note_off_c, 0, 75, 100
2, 95520, Note_on_c, 0, 79, 90
2, 95564, Note_off_c, 0, 79, 100
2, 95568, Note_on_c, 0, 78, 90
2, 95612, Note_off_c, 0, 78, 100
2, 95616, Note_on_c, 0, 79, 90
2, 95660, Note_off_c, 0, 79, 100
2, 95664, Note_on_c, 0, 77, 90
2, 95708, Note_off_c, 0, 77, 100
2, 95712, Note_on_c, 0, 75, 90
2, 95756, Note_off_c, 0, 75, 100
2, 95760, Note_on_c, 0, 74, 90
2, 95804, Note_off_c, 0, 74, 100
2, 95808, Note_on_c, 0, 72, 90
2, 95852, Note_off_c, 0, 72, 100
2, 95856, Note_on_c, 0, 70, 90
2, 95900, Note_off_c, 0, 70, 100
2, 95904, Note_on_c, 0, 69, 90
2, 95904, Note_on_c, 0, 67, 90
2, 95904, Note_on_c, 0, 64, 90
2, 95948, Note_off_c, 0, 69, 100
2, 95952, Note_on_c, 0, 70, 90
2, 95996, Note_off_c, 0, 67, 100
2, 95996, Note_off_c, 0, 64, 100
2, 95996, Note_off_c, 0, 70, 100
2, 96000, Note_on_c, 0, 69, 90
2, 96000, Note_on_c, 0, 65, 90
2, 96044, Note_off_c, 0, 69, 100
2, 96048, Note_on_c, 0, 70, 90
2, 96092, Note_off_c, 0, 70, 100
2, 96096, Note_on_c, 0, 72, 90
2, 96140, Note_off_c, 0, 72, 100
2, 96144, Note_on_c, 0, 74, 90
2, 96188, Note_off_c, 0, 65, 100
2, 96188, Note_off_c, 0, 74, 100
2, 96192, Note_on_c, 0, 76, 90
2, 96236, Note_off_c, 0, 76, 100
2, 96240, Note_on_c, 0, 77, 90
2, 96284, Note_off_c, 0, 77, 100
2, 96288, Note_on_c, 0, 76, 90
2, 96332, Note_off_c, 0, 76, 100
2, 96336, Note_on_c, 0, 77, 90
2, 96380, Note_off_c, 0, 77, 100
2, 96384, Note_on_c, 0, 65, 90
2, 96572, Note_off_c, 0, 65, 100
2, 97056, Note_on_c, 0, 77, 60
2, 97144, Note_off_c, 0, 77, 100
2, 97152, Note_on_c, 0, 77, 60
2, 97240, Note_off_c, 0, 77, 100
2, 97248, Note_on_c, 0, 77, 60
2, 97336, Note_off_c, 0, 77, 100
2, 97344, Note_on_c, 0, 77, 60
2, 97432, Note_off_c, 0, 77, 100
2, 97440, Note_on_c, 0, 77, 60
2, 97528, Note_off_c, 0, 77, 100
2, 97536, Note_on_c, 0, 77, 60
2, 97536, Note_on_c, 0, 58, 60
2, 97628, Note_off_c, 0, 58, 100
2, 97632, Note_on_c, 0, 65, 60
2, 97724, Note_off_c, 0, 77, 100
2, 97724, Note_off_c, 0, 65, 100
2, 97728, Note_on_c, 0, 62, 60
2, 97820, Note_off_c, 0, 62, 100
2, 97824, Note_on_c, 0, 75, 60
2, 97824, Note_on_c, 0, 65, 60
2, 97868, Note_off_c, 0, 75, 100
2, 97872, Note_on_c, 0, 74, 60
2, 97916, Note_off_c, 0, 65, 100
2, 97916, Note_off_c, 0, 74, 100
2, 97920, Note_on_c, 0, 72, 60
2, 97920, Note_on_c, 0, 60, 60
2, 98012, Note_off_c, 0, 72, 100
2, 98012, Note_off_c, 0, 60, 100
2, 98016, Note_on_c, 0, 70, 60
2, 98016, Note_on_c, 0, 65, 60
2, 98108, Note_off_c, 0, 70, 100
2, 98108, Note_off_c, 0, 65, 100
2, 98112, Note_on_c, 0, 69, 60
2, 98112, Note_on_c, 0, 63, 60
2, 98204, Note_off_c, 0, 69, 100
2, 98204, Note_off_c, 0, 63, 100
2, 98208, Note_on_c, 0, 72, 60
2, 98208, Note_on_c, 0, 65, 60
2, 98300, Note_off_c, 0, 72, 100
2, 98300, Note_off_c, 0, 65, 100
2, 98304, Note_on_c, 0, 70, 60
2, 98304, Note_on_c, 0, 62, 60
2, 98396, Note_off_c, 0, 62, 100
2, 98400, Note_on_c, 0, 65, 60
2, 98492, Note_off_c, 0, 70, 100
2, 98492, Note_off_c, 0, 65, 100
2, 98496, Note_on_c, 0, 70, 60
2, 98588, Note_off_c, 0, 70, 100
2, 98592, Note_on_c, 0, 77, 60
2, 98680, Note_off_c, 0, 77, 100
2, 98688, Note_on_c, 0, 77, 60
2, 98776, Note_off_c, 0, 77, 100
2, 98784, Note_on_c, 0, 77, 60
2, 98872, Note_off_c, 0, 77, 100
2, 98880, Note_on_c, 0, 77, 60
2, 98968, Note_off_c, 0, 77, 100
2, 98976, Note_on_c, 0, 77, 60
2, 99064, Note_off_c, 0, 77, 100
2, 99072, Note_on_c, 0, 77, 60
2, 99072, Note_on_c, 0, 60, 60
2, 99164, Note_off_c, 0, 60, 100
2, 99168, Note_on_c, 0, 65, 60
2, 99260, Note_off_c, 0, 65, 100
2, 99264, Note_on_c, 0, 62, 60
2, 99356, Note_off_c, 0, 77, 100
2, 99356, Note_off_c, 0, 62, 100
2, 99360, Note_on_c, 0, 65, 60
2, 99364, Note_on_c, 0, 75, 60
2, 99408, Note_off_c, 0, 75, 100
2, 99408, Note_on_c, 0, 74, 60
2, 99452, Note_off_c, 0, 65, 100
2, 99452, Note_off_c, 0, 74, 100
2, 99456, Note_on_c, 0, 72, 60
2, 99456, Note_on_c, 0, 57, 60
2, 99548, Note_off_c, 0, 72, 100
2, 99548, Note_off_c, 0, 57, 100
2, 99552, Note_on_c, 0, 74, 60
2, 99552, Note_on_c, 0, 65, 60
2, 99644, Note_off_c, 0, 74, 100
2, 99644, Note_off_c, 0, 65, 100
2, 99648, Note_on_c, 0, 75, 60
2, 99648, Note_on_c, 0, 60, 60
2, 99740, Note_off_c, 0, 75, 100
2, 99740, Note_off_c, 0, 60, 100
2, 99744, Note_on_c, 0, 72, 60
2, 99744, Note_on_c, 0, 65, 60
2, 99836, Note_off_c, 0, 72, 100
2, 99836, Note_off_c, 0, 65, 100
2, 99840, Note_on_c, 0, 74, 60
2, 99840, Note_on_c, 0, 58, 60
2, 99932, Note_off_c, 0, 58, 100
2, 99936, Note_on_c, 0, 62, 60
2, 100024, Note_off_c, 0, 62, 100
2, 100028, Note_off_c, 0, 74, 100
2, 100032, Note_on_c, 0, 65, 60
2, 100120, Note_off_c, 0, 65, 100
2, 100128, Note_on_c, 0, 77, 60
2, 100216, Note_off_c, 0, 77, 100
2, 100224, Note_on_c, 0, 77, 60
2, 100312, Note_off_c, 0, 77, 100
2, 100320, Note_on_c, 0, 77, 60
2, 100408, Note_off_c, 0, 77, 100
2, 100416, Note_on_c, 0, 77, 60
2, 100504, Note_off_c, 0, 77, 100
2, 100512, Note_on_c, 0, 78, 60
2, 100600, Note_off_c, 0, 78, 100
2, 100608, Note_on_c, 0, 79, 90
2, 100652, Note_off_c, 0, 79, 100
2, 100656, Note_on_c, 0, 67, 90
2, 100700, Note_off_c, 0, 67, 100
2, 100704, Note_on_c, 0, 66, 90
2, 100748, Note_off_c, 0, 66, 100
2, 100752, Note_on_c, 0, 67, 90
2, 100796, Note_off_c, 0, 67, 100
2, 100800, Note_on_c, 0, 68, 90
2, 100844, Note_off_c, 0, 68, 100
2, 100848, Note_on_c, 0, 67, 90
2, 100892, Note_off_c, 0, 67, 100
2, 100896, Note_on_c, 0, 69, 90
2, 100940, Note_off_c, 0, 69, 100
2, 100944, Note_on_c, 0, 67, 90
2, 100988, Note_off_c, 0, 67, 100
2, 100992, Note_on_c, 0, 70, 90
2, 101036, Note_off_c, 0, 70, 100
2, 101040, Note_on_c, 0, 67, 90
2, 101084, Note_off_c, 0, 67, 100
2, 101088, Note_on_c, 0, 71, 90
2, 101132, Note_off_c, 0, 71, 100
2, 101136, Note_on_c, 0, 67, 90
2, 101180, Note_off_c, 0, 67, 100
2, 101184, Note_on_c, 0, 72, 90
2, 101228, Note_off_c, 0, 72, 100
2, 101232, Note_on_c, 0, 67, 90
2, 101276, Note_off_c, 0, 67, 100
2, 101280, Note_on_c, 0, 74, 90
2, 101324, Note_off_c, 0, 74, 100
2, 101328, Note_on_c, 0, 67, 90
2, 101372, Note_off_c, 0, 67, 100
2, 101376, Note_on_c, 0, 75, 90
2, 101712, Note_on_c, 0, 75, 90
2, 101756, Note_off_c, 0, 75, 100
2, 101756, Note_off_c, 0, 75, 100
2, 101760, Note_on_c, 0, 77, 90
2, 101784, Note_off_c, 0, 77, 64
2, 101784, Note_on_c, 0, 75, 90
2, 101808, Note_off_c, 0, 75, 64
2, 101808, Note_on_c, 0, 77, 90
2, 101832, Note_off_c, 0, 77, 64
2, 101832, Note_on_c, 0, 75, 90
2, 101856, Note_off_c, 0, 75, 64
2, 101856, Note_on_c, 0, 77, 90
2, 101880, Note_off_c, 0, 77, 64
2, 101880, Note_on_c, 0, 75, 90
2, 101904, Note_off_c, 0, 75, 64
2, 101904, Note_on_c, 0, 77, 90
2, 101928, Note_off_c, 0, 77, 64
2, 101928, Note_on_c, 0, 75, 90
2, 101952, Note_off_c, 0, 75, 64
2, 101952, Note_on_c, 0, 77, 90
2, 101976, Note_off_c, 0, 77, 64
2, 101976, Note_on_c, 0, 75, 90
2, 102000, Note_off_c, 0, 75, 64
2, 102000, Note_on_c, 0, 77, 90
2, 102024, Note_off_c, 0, 77, 64
2, 102024, Note_on_c, 0, 75, 90
2, 102048, Note_off_c, 0, 75, 64
2, 102048, Note_on_c, 0, 74, 90
2, 102092, Note_off_c, 0, 74, 100
2, 102096, Note_on_c, 0, 75, 90
2, 102140, Note_off_c, 0, 75, 100
2, 102144, Note_on_c, 0, 77, 90
2, 102188, Note_off_c, 0, 77, 100
2, 102192, Note_on_c, 0, 65, 90
2, 102236, Note_off_c, 0, 65, 100
2, 102240, Note_on_c, 0, 64, 90
2, 102284, Note_off_c, 0, 64, 100
2, 102288, Note_on_c, 0, 65, 90
2, 102332, Note_off_c, 0, 65, 100
2, 102336, Note_on_c, 0, 67, 90
2, 102380, Note_off_c, 0, 67, 100
2, 102384, Note_on_c, 0, 65, 90
2, 102428, Note_off_c, 0, 65, 100
2, 102432, Note_on_c, 0, 68, 90
2, 102476, Note_off_c, 0, 68, 100
2, 102480, Note_on_c, 0, 65, 90
2, 102524, Note_off_c, 0, 65, 100
2, 102528, Note_on_c, 0, 69, 90
2, 102572, Note_off_c, 0, 69, 100
2, 102576, Note_on_c, 0, 65, 90
2, 102620, Note_off_c, 0, 65, 100
2, 102624, Note_on_c, 0, 70, 90
2, 102656, Note_on_c, 0, 65, 90
2, 102668, Note_off_c, 0, 70, 100
2, 102700, Note_off_c, 0, 65, 100
2, 102720, Note_on_c, 0, 72, 90
2, 102764, Note_off_c, 0, 72, 100
2, 102768, Note_on_c, 0, 65, 90
2, 102812, Note_off_c, 0, 65, 100
2, 102816, Note_on_c, 0, 73, 90
2, 102860, Note_off_c, 0, 73, 100
2, 102864, Note_on_c, 0, 65, 90
2, 102908, Note_off_c, 0, 65, 100
2, 102912, Note_on_c, 0, 74, 90
2, 103248, Note_on_c, 0, 86, 90
2, 103292, Note_off_c, 0, 74, 100
2, 103292, Note_off_c, 0, 86, 100
2, 103296, Note_on_c, 0, 87, 90
2, 103320, Note_off_c, 0, 87, 64
2, 103320, Note_on_c, 0, 86, 90
2, 103344, Note_off_c, 0, 86, 64
2, 103344, Note_on_c, 0, 87, 90
2, 103368, Note_off_c, 0, 87, 64
2, 103368, Note_on_c, 0, 86, 90
2, 103392, Note_off_c, 0, 86, 64
2, 103392, Note_on_c, 0, 87, 90
2, 103416, Note_off_c, 0, 87, 64
2, 103416, Note_on_c, 0, 86, 90
2, 103440, Note_off_c, 0, 86, 64
2, 103440, Note_on_c, 0, 87, 90
2, 103464, Note_off_c, 0, 87, 64
2, 103464, Note_on_c, 0, 86, 90
2, 103488, Note_off_c, 0, 86, 64
2, 103488, Note_on_c, 0, 87, 90
2, 103512, Note_off_c, 0, 87, 64
2, 103512, Note_on_c, 0, 86, 90
2, 103536, Note_off_c, 0, 86, 64
2, 103536, Note_on_c, 0, 87, 90
2, 103560, Note_off_c, 0, 87, 64
2, 103560, Note_on_c, 0, 86, 90
2, 103584, Note_off_c, 0, 86, 64
2, 103584, Note_on_c, 0, 84, 90
2, 103628, Note_off_c, 0, 84, 100
2, 103632, Note_on_c, 0, 86, 90
2, 103676, Note_off_c, 0, 86, 100
2, 103680, Note_on_c, 0, 87, 90
2, 103724, Note_off_c, 0, 87, 100
2, 103728, Note_on_c, 0, 75, 90
2, 103772, Note_off_c, 0, 75, 100
2, 103776, Note_on_c, 0, 74, 90
2, 103820, Note_off_c, 0, 74, 100
2, 103824, Note_on_c, 0, 75, 90
2, 103868, Note_off_c, 0, 75, 100
2, 103872, Note_on_c, 0, 77, 90
2, 103916, Note_off_c, 0, 77, 100
2, 103920, Note_on_c, 0, 75, 90
2, 103964, Note_off_c, 0, 75, 100
2, 103968, Note_on_c, 0, 78, 90
2, 104012, Note_off_c, 0, 78, 100
2, 104016, Note_on_c, 0, 75, 90
2, 104060, Note_off_c, 0, 75, 100
2, 104064, Note_on_c, 0, 79, 90
2, 104108, Note_off_c, 0, 79, 100
2, 104112, Note_on_c, 0, 75, 90
2, 104156, Note_off_c, 0, 75, 100
2, 104160, Note_on_c, 0, 81, 90
2, 104204, Note_off_c, 0, 81, 100
2, 104208, Note_on_c, 0, 75, 90
2, 104252, Note_off_c, 0, 75, 100
2, 104256, Note_on_c, 0, 82, 90
2, 104300, Note_off_c, 0, 82, 100
2, 104304, Note_on_c, 0, 75, 90
2, 104348, Note_off_c, 0, 75, 100
2, 104352, Note_on_c, 0, 83, 90
2, 104396, Note_off_c, 0, 83, 100
2, 104400, Note_on_c, 0, 75, 90
2, 104444, Note_off_c, 0, 75, 100
2, 104448, Note_on_c, 0, 65, 79
2, 104448, Note_on_c, 0, 84, 90
2, 104492, Note_off_c, 0, 65, 100
2, 104496, Note_on_c, 0, 69, 79
2, 104540, Note_off_c, 0, 69, 100
2, 104544, Note_on_c, 0, 72, 79
2, 104588, Note_off_c, 0, 72, 100
2, 104592, Note_on_c, 0, 69, 79
2, 104636, Note_off_c, 0, 69, 100
2, 104640, Note_on_c, 0, 65, 79
2, 104684, Note_off_c, 0, 65, 100
2, 104688, Note_on_c, 0, 69, 79
2, 104732, Note_off_c, 0, 69, 100
2, 104736, Note_on_c, 0, 87, 90
2, 104736, Note_on_c, 0, 72, 79
2, 104780, Note_off_c, 0, 72, 100
2, 104784, Note_on_c, 0, 69, 79
2, 104828, Note_off_c, 0, 84, 100
2, 104828, Note_off_c, 0, 87, 100
2, 104828, Note_off_c, 0, 69, 100
2, 104832, Note_on_c, 0, 86, 90
2, 104832, Note_on_c, 0, 65, 79
2, 104876, Note_off_c, 0, 65, 100
2, 104880, Note_on_c, 0, 72, 79
2, 104924, Note_off_c, 0, 86, 100
2, 104924, Note_off_c, 0, 72, 100
2, 104928, Note_on_c, 0, 84, 90
2, 104928, Note_on_c, 0, 75, 79
2, 104972, Note_off_c, 0, 75, 100
2, 104976, Note_on_c, 0, 72, 79
2, 105020, Note_off_c, 0, 84, 100
2, 105020, Note_off_c, 0, 72, 100
2, 105024, Note_on_c, 0, 82, 90
2, 105024, Note_on_c, 0, 65, 79
2, 105068, Note_off_c, 0, 65, 100
2, 105072, Note_on_c, 0, 72, 79
2, 105116, Note_off_c, 0, 82, 100
2, 105116, Note_off_c, 0, 72, 100
2, 105120, Note_on_c, 0, 81, 90
2, 105120, Note_on_c, 0, 75, 79
2, 105164, Note_off_c, 0, 75, 100
2, 105168, Note_on_c, 0, 72, 79
2, 105212, Note_off_c, 0, 81, 100
2, 105212, Note_off_c, 0, 72, 100
2, 105216, Note_on_c, 0, 84, 90
2, 105216, Note_on_c, 0, 65, 79
2, 105260, Note_off_c, 0, 65, 100
2, 105264, Note_on_c, 0, 70, 79
2, 105308, Note_off_c, 0, 84, 100
2, 105308, Note_off_c, 0, 70, 100
2, 105312, Note_on_c, 0, 82, 90
2, 105312, Note_on_c, 0, 74, 79
2, 105356, Note_off_c, 0, 74, 100
2, 105360, Note_on_c, 0, 70, 79
2, 105404, Note_off_c, 0, 82, 100
2, 105404, Note_off_c, 0, 70, 100
2, 105424, Note_on_c, 0, 65, 79
2, 105456, Note_on_c, 0, 70, 79
2, 105468, Note_off_c, 0, 65, 100
2, 105500, Note_off_c, 0, 70, 100
2, 105504, Note_on_c, 0, 89, 90
2, 105504, Note_on_c, 0, 74, 79
2, 105548, Note_off_c, 0, 74, 100
2, 105552, Note_on_c, 0, 70, 79
2, 105596, Note_off_c, 0, 89, 100
2, 105596, Note_off_c, 0, 70, 100
2, 105600, Note_on_c, 0, 87, 90
2, 105600, Note_on_c, 0, 65, 79
2, 105644, Note_off_c, 0, 65, 100
2, 105648, Note_on_c, 0, 68, 79
2, 105692, Note_off_c, 0, 87, 100
2, 105692, Note_off_c, 0, 68, 100
2, 105696, Note_on_c, 0, 86, 90
2, 105696, Note_on_c, 0, 71, 79
2, 105740, Note_off_c, 0, 71, 100
2, 105744, Note_on_c, 0, 68, 79
2, 105788, Note_off_c, 0, 86, 100
2, 105788, Note_off_c, 0, 68, 100
2, 105792, Note_on_c, 0, 84, 90
2, 105792, Note_on_c, 0, 65, 79
2, 105836, Note_off_c, 0, 65, 100
2, 105840, Note_on_c, 0, 68, 79
2, 105884, Note_off_c, 0, 84, 100
2, 105884, Note_off_c, 0, 68, 100
2, 105888, Note_on_c, 0, 83, 90
2, 105888, Note_on_c, 0, 74, 79
2, 105932, Note_off_c, 0, 74, 100
2, 105936, Note_on_c, 0, 68, 79
2, 105980, Note_off_c, 0, 68, 100
2, 105984, Note_on_c, 0, 84, 90
2, 105984, Note_on_c, 0, 63, 79
2, 105988, Note_off_c, 0, 83, 100
2, 106028, Note_off_c, 0, 63, 100
2, 106032, Note_on_c, 0, 67, 79
2, 106076, Note_off_c, 0, 67, 100
2, 106080, Note_on_c, 0, 72, 79
2, 106124, Note_off_c, 0, 72, 100
2, 106128, Note_on_c, 0, 86, 90
2, 106128, Note_on_c, 0, 67, 79
2, 106172, Note_off_c, 0, 86, 100
2, 106172, Note_off_c, 0, 67, 100
2, 106176, Note_on_c, 0, 89, 90
2, 106176, Note_on_c, 0, 63, 79
2, 106220, Note_off_c, 0, 89, 100
2, 106220, Note_off_c, 0, 63, 100
2, 106224, Note_on_c, 0, 87, 90
2, 106224, Note_on_c, 0, 67, 79
2, 106268, Note_off_c, 0, 87, 100
2, 106268, Note_off_c, 0, 67, 100
2, 106272, Note_on_c, 0, 86, 90
2, 106272, Note_on_c, 0, 72, 79
2, 106316, Note_off_c, 0, 86, 100
2, 106316, Note_off_c, 0, 72, 100
2, 106320, Note_on_c, 0, 84, 90
2, 106320, Note_on_c, 0, 67, 79
2, 106364, Note_off_c, 0, 84, 100
2, 106364, Note_off_c, 0, 84, 100
2, 106364, Note_off_c, 0, 67, 100
2, 106368, Note_on_c, 0, 82, 90
2, 106368, Note_on_c, 0, 63, 79
2, 106412, Note_off_c, 0, 63, 100
2, 106416, Note_on_c, 0, 70, 79
2, 106460, Note_off_c, 0, 70, 100
2, 106464, Note_on_c, 0, 74, 79
2, 106508, Note_off_c, 0, 74, 100
2, 106512, Note_on_c, 0, 70, 79
2, 106556, Note_off_c, 0, 82, 100
2, 106556, Note_off_c, 0, 70, 100
2, 106560, Note_on_c, 0, 81, 90
2, 106560, Note_on_c, 0, 63, 79
2, 106604, Note_off_c, 0, 63, 100
2, 106608, Note_on_c, 0, 72, 79
2, 106652, Note_off_c, 0, 72, 100
2, 106656, Note_on_c, 0, 75, 79
2, 106700, Note_off_c, 0, 75, 100
2, 106704, Note_on_c, 0, 72, 79
2, 106748, Note_off_c, 0, 81, 100
2, 106748, Note_off_c, 0, 72, 100
2, 106752, Note_on_c, 0, 70, 90
2, 106800, Note_on_c, 0, 82, 90
2, 106844, Note_off_c, 0, 82, 100
2, 106848, Note_on_c, 0, 81, 90
2, 106892, Note_off_c, 0, 81, 100
2, 106896, Note_on_c, 0, 82, 90
2, 106940, Note_off_c, 0, 70, 100
2, 106940, Note_off_c, 0, 82, 100
2, 106992, Note_on_c, 0, 77, 90
2, 107036, Note_off_c, 0, 77, 100
2, 107040, Note_on_c, 0, 76, 90
2, 107084, Note_off_c, 0, 76, 100
2, 107088, Note_on_c, 0, 77, 90
2, 107132, Note_off_c, 0, 77, 100
2, 107184, Note_on_c, 0, 74, 90
2, 107228, Note_off_c, 0, 74, 100
2, 107232, Note_on_c, 0, 72, 90
2, 107264, Note_on_c, 0, 74, 90
2, 107276, Note_off_c, 0, 72, 100
2, 107308, Note_off_c, 0, 74, 100
2, 107392, Note_on_c, 0, 70, 90
2, 107424, Note_on_c, 0, 69, 90
2, 107436, Note_off_c, 0, 70, 100
2, 107468, Note_off_c, 0, 69, 100
2, 107472, Note_on_c, 0, 70, 90
2, 107516, Note_off_c, 0, 70, 100
2, 107520, Note_on_c, 0, 63, 60
2, 107564, Note_off_c, 0, 63, 100
2, 107568, Note_on_c, 0, 67, 60
2, 107612, Note_off_c, 0, 67, 100
2, 107616, Note_on_c, 0, 69, 60
2, 107804, Note_off_c, 0, 69, 100
2, 107808, Note_on_c, 0, 75, 60
2, 107900, Note_off_c, 0, 75, 100
2, 107904, Note_on_c, 0, 74, 60
2, 107996, Note_off_c, 0, 74, 100
2, 108000, Note_on_c, 0, 72, 60
2, 108092, Note_off_c, 0, 72, 100
2, 108096, Note_on_c, 0, 70, 60
2, 108188, Note_off_c, 0, 70, 100
2, 108192, Note_on_c, 0, 69, 60
2, 108284, Note_off_c, 0, 69, 100
2, 108288, Note_on_c, 0, 72, 60
2, 108380, Note_off_c, 0, 72, 100
2, 108384, Note_on_c, 0, 70, 60
2, 108476, Note_off_c, 0, 70, 100
2, 108576, Note_on_c, 0, 77, 60
2, 108668, Note_off_c, 0, 77, 100
2, 108672, Note_on_c, 0, 75, 60
2, 108764, Note_off_c, 0, 75, 100
2, 108768, Note_on_c, 0, 74, 60
2, 108860, Note_off_c, 0, 74, 100
2, 108864, Note_on_c, 0, 72, 60
2, 108956, Note_off_c, 0, 72, 100
2, 108960, Note_on_c, 0, 71, 60
2, 109052, Note_off_c, 0, 71, 100
2, 109056, Note_on_c, 0, 72, 60
2, 109196, Note_off_c, 0, 72, 100
2, 109200, Note_on_c, 0, 74, 60
2, 109244, Note_off_c, 0, 74, 100
2, 109248, Note_on_c, 0, 74, 60
2, 109292, Note_off_c, 0, 74, 100
2, 109296, Note_on_c, 0, 75, 60
2, 109340, Note_off_c, 0, 75, 100
2, 109344, Note_on_c, 0, 77, 60
2, 109388, Note_off_c, 0, 77, 100
2, 109392, Note_on_c, 0, 79, 60
2, 109436, Note_off_c, 0, 79, 100
2, 109440, Note_on_c, 0, 79, 60
2, 109484, Note_off_c, 0, 79, 100
2, 109488, Note_on_c, 0, 70, 60
2, 109632, Note_off_c, 0, 70, 100
2, 109632, Note_on_c, 0, 74, 60
2, 109656, Note_off_c, 0, 74, 64
2, 109656, Note_on_c, 0, 72, 60
2, 109680, Note_off_c, 0, 72, 64
2, 109680, Note_on_c, 0, 74, 60
2, 109704, Note_off_c, 0, 74, 64
2, 109704, Note_on_c, 0, 72, 60
2, 109728, Note_off_c, 0, 72, 64
2, 109728, Note_on_c, 0, 70, 60
2, 109772, Note_off_c, 0, 70, 100
2, 109776, Note_on_c, 0, 72, 60
2, 109820, Note_off_c, 0, 72, 100
2, 109872, Note_on_c, 0, 89, 90
2, 109916, Note_off_c, 0, 89, 100
2, 109920, Note_on_c, 0, 86, 90
2, 109952, Note_on_c, 0, 82, 90
2, 109964, Note_off_c, 0, 86, 100
2, 109996, Note_off_c, 0, 82, 100
2, 110016, Note_on_c, 0, 77, 90
2, 110060, Note_off_c, 0, 77, 100
2, 110064, Note_on_c, 0, 74, 90
2, 110108, Note_off_c, 0, 74, 100
2, 110112, Note_on_c, 0, 70, 90
2, 110156, Note_off_c, 0, 70, 100
2, 110208, Note_on_c, 0, 68, 90
2, 110208, Note_on_c, 0, 65, 90
2, 110588, Note_off_c, 0, 68, 100
2, 110588, Note_off_c, 0, 65, 100
2, 110592, Note_on_c, 0, 68, 60
2, 110592, Note_on_c, 0, 65, 60
2, 110684, Note_off_c, 0, 68, 100
2, 110684, Note_off_c, 0, 65, 100
2, 110688, Note_on_c, 0, 67, 60
2, 110780, Note_off_c, 0, 67, 100
2, 110880, Note_on_c, 0, 79, 60
2, 110880, Note_on_c, 0, 75, 60
2, 110972, Note_off_c, 0, 79, 100
2, 110972, Note_off_c, 0, 75, 100
2, 111072, Note_on_c, 0, 77, 60
2, 111088, Note_on_c, 0, 74, 60
2, 111164, Note_off_c, 0, 77, 100
2, 111180, Note_off_c, 0, 74, 100
2, 111264, Note_on_c, 0, 69, 60
2, 111264, Note_on_c, 0, 63, 60
2, 111356, Note_off_c, 0, 69, 100
2, 111356, Note_off_c, 0, 63, 100
2, 111408, Note_on_c, 0, 77, 90
2, 111452, Note_off_c, 0, 77, 100
2, 111456, Note_on_c, 0, 74, 90
2, 111500, Note_off_c, 0, 74, 100
2, 111504, Note_on_c, 0, 70, 90
2, 111548, Note_off_c, 0, 70, 100
2, 111552, Note_on_c, 0, 65, 90
2, 111596, Note_off_c, 0, 65, 100
2, 111600, Note_on_c, 0, 62, 90
2, 111644, Note_off_c, 0, 62, 100
2, 111648, Note_on_c, 0, 58, 90
2, 111692, Note_off_c, 0, 58, 100
2, 112416, Note_on_c, 0, 63, 60
2, 112416, Note_on_c, 0, 67, 60
2, 112508, Note_off_c, 0, 63, 100
2, 112508, Note_off_c, 0, 67, 100
2, 112608, Note_on_c, 0, 62, 60
2, 112608, Note_on_c, 0, 65, 60
2, 112700, Note_off_c, 0, 62, 100
2, 112700, Note_off_c, 0, 65, 100
2, 112800, Note_on_c, 0, 63, 60
2, 112800, Note_on_c, 0, 69, 60
2, 112892, Note_off_c, 0, 63, 100
2, 112892, Note_off_c, 0, 69, 100
2, 112896, Note_on_c, 0, 62, 60
2, 112896, Note_on_c, 0, 70, 60
2, 113084, Note_off_c, 0, 62, 100
2, 113084, Note_off_c, 0, 70, 100
2, 113184, Note_on_c, 0, 74, 60
2, 113184, Note_on_c, 0, 70, 60
2, 113276, Note_off_c, 0, 74, 100
2, 113276, Note_off_c, 0, 70, 100
2, 113280, Note_on_c, 0, 72, 61
2, 113280, Note_on_c, 0, 69, 61
2, 113372, Note_off_c, 0, 72, 100
2, 113372, Note_off_c, 0, 69, 100
2, 113376, Note_on_c, 0, 72, 63
2, 113376, Note_on_c, 0, 69, 63
2, 113468, Note_off_c, 0, 72, 100
2, 113468, Note_off_c, 0, 69, 100
2, 113568, Note_on_c, 0, 75, 69
2, 113568, Note_on_c, 0, 72, 69
2, 113660, Note_off_c, 0, 75, 100
2, 113660, Note_off_c, 0, 72, 100
2, 113664, Note_on_c, 0, 74, 72
2, 113664, Note_on_c, 0, 70, 72
2, 113756, Note_off_c, 0, 74, 100
2, 113756, Note_off_c, 0, 70, 100
2, 113760, Note_on_c, 0, 74, 75
2, 113760, Note_on_c, 0, 70, 75
2, 113852, Note_off_c, 0, 74, 100
2, 113852, Note_off_c, 0, 70, 100
2, 113952, Note_on_c, 0, 80, 81
2, 113952, Note_on_c, 0, 77, 81
2, 113952, Note_on_c, 0, 74, 81
2, 114044, Note_off_c, 0, 80, 100
2, 114044, Note_off_c, 0, 77, 100
2, 114044, Note_off_c, 0, 74, 100
2, 114048, Note_on_c, 0, 79, 84
2, 114048, Note_on_c, 0, 75, 84
2, 114140, Note_off_c, 0, 79, 100
2, 114140, Note_off_c, 0, 75, 100
2, 114144, Note_on_c, 0, 79, 87
2, 114144, Note_on_c, 0, 75, 87
2, 114236, Note_off_c, 0, 79, 100
2, 114236, Note_off_c, 0, 75, 100
2, 114336, Note_on_c, 0, 81, 88
2, 114336, Note_on_c, 0, 75, 90
2, 114336, Note_on_c, 0, 72, 90
2, 114428, Note_off_c, 0, 81, 100
2, 114428, Note_off_c, 0, 75, 100
2, 114428, Note_off_c, 0, 72, 100
2, 114432, Note_on_c, 0, 81, 90
2, 114432, Note_on_c, 0, 75, 90
2, 114432, Note_on_c, 0, 72, 90
2, 114812, Note_off_c, 0, 81, 100
2, 114812, Note_off_c, 0, 75, 100
2, 114812, Note_off_c, 0, 72, 100
2, 114816, Note_on_c, 0, 82, 90
2, 114816, Note_on_c, 0, 74, 90
2, 115004, Note_off_c, 0, 82, 100
2, 115004, Note_off_c, 0, 74, 100
2, 115004, End_track
3, 0, Start_track
3, 0, Title_t, "Sonata  #6"
3, 0, Control_c, 1, 0, 0
3, 0, Program_c, 1, 0
3, 0, Control_c, 1, 7, 104
3, 0, Control_c, 1, 10, 51
3, 0, Control_c, 1, 91, 60
3, 0, Control_c, 1, 93, 44
3, 0, Key_signature, -2, "major"
3, 0, Control_c, 1, 121, 0
3, 96, Control_c, 1, 10, 53
3, 192, Control_c, 1, 91, 63
3, 240, Control_c, 1, 93, 40
3, 288, Program_c, 1, 0
3, 768, Note_on_c, 1, 58, 60
3, 768, Note_on_c, 1, 62, 60
3, 1024, Note_off_c, 1, 58, 100
3, 1024, Note_off_c, 1, 62, 100
3, 1152, Note_on_c, 1, 60, 60
3, 1152, Note_on_c, 1, 63, 60
3, 1408, Note_off_c, 1, 60, 100
3, 1408, Note_off_c, 1, 63, 100
3, 1536, Note_on_c, 1, 62, 60
3, 1536, Note_on_c, 1, 65, 60
3, 1792, Note_off_c, 1, 62, 100
3, 1792, Note_off_c, 1, 65, 100
3, 2304, Note_on_c, 1, 63, 90
3, 2304, Note_on_c, 1, 51, 90
3, 2432, Note_off_c, 1, 63, 100
3, 2432, Note_off_c, 1, 51, 100
3, 2496, Note_on_c, 1, 58, 90
3, 2496, Note_on_c, 1, 46, 90
3, 2624, Note_off_c, 1, 58, 100
3, 2624, Note_off_c, 1, 46, 100
3, 3072, Note_on_c, 1, 53, 90
3, 3072, Note_on_c, 1, 41, 90
3, 3200, Note_off_c, 1, 53, 100
3, 3200, Note_off_c, 1, 41, 100
3, 3264, Note_on_c, 1, 58, 90
3, 3264, Note_on_c, 1, 46, 90
3, 3392, Note_off_c, 1, 58, 100
3, 3392, Note_off_c, 1, 46, 100
3, 3840, Note_on_c, 1, 46, 60
3, 3840, Note_on_c, 1, 50, 60
3, 4096, Note_off_c, 1, 46, 100
3, 4096, Note_off_c, 1, 50, 100
3, 4224, Note_on_c, 1, 48, 60
3, 4224, Note_on_c, 1, 51, 60
3, 4480, Note_off_c, 1, 48, 100
3, 4480, Note_off_c, 1, 51, 100
3, 4608, Note_on_c, 1, 53, 60
3, 4608, Note_on_c, 1, 50, 60
3, 4864, Note_off_c, 1, 53, 100
3, 4864, Note_off_c, 1, 50, 100
3, 5376, Note_on_c, 1, 51, 90
3, 5388, Note_on_c, 1, 55, 90
3, 5404, Note_on_c, 1, 60, 90
3, 5632, Note_off_c, 1, 51, 100
3, 5644, Note_off_c, 1, 55, 100
3, 5660, Note_off_c, 1, 60, 100
3, 5760, Note_on_c, 1, 53, 90
3, 5760, Note_on_c, 1, 62, 90
3, 5888, Note_off_c, 1, 62, 100
3, 5952, Note_on_c, 1, 63, 90
3, 6016, Note_off_c, 1, 53, 100
3, 6080, Note_off_c, 1, 63, 100
3, 6144, Note_on_c, 1, 58, 90
3, 6144, Note_on_c, 1, 62, 90
3, 6208, Note_off_c, 1, 58, 100
3, 6208, Note_off_c, 1, 62, 100
3, 6240, Note_on_c, 1, 58, 90
3, 6240, Note_on_c, 1, 62, 90
3, 6304, Note_off_c, 1, 58, 100
3, 6304, Note_off_c, 1, 62, 100
3, 6336, Note_on_c, 1, 58, 90
3, 6336, Note_on_c, 1, 62, 90
3, 6400, Note_off_c, 1, 58, 100
3, 6400, Note_off_c, 1, 62, 100
3, 6432, Note_on_c, 1, 58, 90
3, 6432, Note_on_c, 1, 62, 90
3, 6496, Note_off_c, 1, 58, 100
3, 6496, Note_off_c, 1, 62, 100
3, 6528, Note_on_c, 1, 58, 90
3, 6528, Note_on_c, 1, 62, 90
3, 6592, Note_off_c, 1, 58, 100
3, 6592, Note_off_c, 1, 62, 100
3, 6624, Note_on_c, 1, 58, 90
3, 6624, Note_on_c, 1, 62, 90
3, 6688, Note_off_c, 1, 58, 100
3, 6688, Note_off_c, 1, 62, 100
3, 6720, Note_on_c, 1, 58, 90
3, 6720, Note_on_c, 1, 62, 90
3, 6784, Note_off_c, 1, 58, 100
3, 6784, Note_off_c, 1, 62, 100
3, 6816, Note_on_c, 1, 58, 90
3, 6816, Note_on_c, 1, 62, 90
3, 6880, Note_off_c, 1, 58, 100
3, 6880, Note_off_c, 1, 62, 100
3, 6912, Note_on_c, 1, 58, 90
3, 6912, Note_on_c, 1, 63, 90
3, 6976, Note_off_c, 1, 58, 100
3, 6976, Note_off_c, 1, 63, 100
3, 7008, Note_on_c, 1, 58, 90
3, 7008, Note_on_c, 1, 63, 90
3, 7072, Note_off_c, 1, 58, 100
3, 7072, Note_off_c, 1, 63, 100
3, 7104, Note_on_c, 1, 58, 90
3, 7104, Note_on_c, 1, 63, 90
3, 7168, Note_off_c, 1, 58, 100
3, 7168, Note_off_c, 1, 63, 100
3, 7200, Note_on_c, 1, 58, 90
3, 7200, Note_on_c, 1, 63, 90
3, 7264, Note_off_c, 1, 58, 100
3, 7264, Note_off_c, 1, 63, 100
3, 7296, Note_on_c, 1, 63, 90
3, 7296, Note_on_c, 1, 58, 90
3, 7360, Note_off_c, 1, 63, 100
3, 7360, Note_off_c, 1, 58, 100
3, 7392, Note_on_c, 1, 58, 90
3, 7392, Note_on_c, 1, 63, 90
3, 7456, Note_off_c, 1, 58, 100
3, 7456, Note_off_c, 1, 63, 100
3, 7488, Note_on_c, 1, 58, 90
3, 7488, Note_on_c, 1, 63, 90
3, 7552, Note_off_c, 1, 58, 100
3, 7552, Note_off_c, 1, 63, 100
3, 7584, Note_on_c, 1, 58, 90
3, 7584, Note_on_c, 1, 63, 90
3, 7648, Note_off_c, 1, 58, 100
3, 7648, Note_off_c, 1, 63, 100
3, 7680, Note_on_c, 1, 58, 90
3, 7680, Note_on_c, 1, 62, 90
3, 7744, Note_off_c, 1, 58, 100
3, 7744, Note_off_c, 1, 62, 100
3, 7776, Note_on_c, 1, 58, 90
3, 7776, Note_on_c, 1, 62, 90
3, 7840, Note_off_c, 1, 58, 100
3, 7840, Note_off_c, 1, 62, 100
3, 7872, Note_on_c, 1, 58, 90
3, 7872, Note_on_c, 1, 62, 90
3, 7936, Note_off_c, 1, 58, 100
3, 7936, Note_off_c, 1, 62, 100
3, 7968, Note_on_c, 1, 58, 90
3, 7968, Note_on_c, 1, 62, 90
3, 8032, Note_off_c, 1, 58, 100
3, 8032, Note_off_c, 1, 62, 100
3, 8064, Note_on_c, 1, 58, 90
3, 8064, Note_on_c, 1, 62, 90
3, 8128, Note_off_c, 1, 58, 100
3, 8128, Note_off_c, 1, 62, 100
3, 8160, Note_on_c, 1, 58, 90
3, 8160, Note_on_c, 1, 62, 90
3, 8224, Note_off_c, 1, 58, 100
3, 8224, Note_off_c, 1, 62, 100
3, 8256, Note_on_c, 1, 58, 90
3, 8256, Note_on_c, 1, 62, 90
3, 8320, Note_off_c, 1, 58, 100
3, 8320, Note_off_c, 1, 62, 100
3, 8352, Note_on_c, 1, 58, 90
3, 8352, Note_on_c, 1, 62, 90
3, 8416, Note_off_c, 1, 58, 100
3, 8416, Note_off_c, 1, 62, 100
3, 8448, Note_on_c, 1, 58, 90
3, 8448, Note_on_c, 1, 63, 90
3, 8512, Note_off_c, 1, 58, 100
3, 8512, Note_off_c, 1, 63, 100
3, 8544, Note_on_c, 1, 63, 90
3, 8544, Note_on_c, 1, 58, 90
3, 8608, Note_off_c, 1, 63, 100
3, 8608, Note_off_c, 1, 58, 100
3, 8640, Note_on_c, 1, 58, 90
3, 8640, Note_on_c, 1, 63, 90
3, 8704, Note_off_c, 1, 58, 100
3, 8704, Note_off_c, 1, 63, 100
3, 8736, Note_on_c, 1, 58, 90
3, 8736, Note_on_c, 1, 63, 90
3, 8800, Note_off_c, 1, 58, 100
3, 8800, Note_off_c, 1, 63, 100
3, 8832, Note_on_c, 1, 58, 90
3, 8832, Note_on_c, 1, 63, 90
3, 8896, Note_off_c, 1, 58, 100
3, 8896, Note_off_c, 1, 63, 100
3, 8928, Note_on_c, 1, 58, 90
3, 8928, Note_on_c, 1, 63, 90
3, 8992, Note_off_c, 1, 58, 100
3, 8992, Note_off_c, 1, 63, 100
3, 9024, Note_on_c, 1, 58, 90
3, 9024, Note_on_c, 1, 63, 90
3, 9088, Note_off_c, 1, 58, 100
3, 9088, Note_off_c, 1, 63, 100
3, 9120, Note_on_c, 1, 58, 90
3, 9120, Note_on_c, 1, 63, 90
3, 9184, Note_off_c, 1, 58, 100
3, 9184, Note_off_c, 1, 63, 100
3, 9216, Note_on_c, 1, 58, 90
3, 9216, Note_on_c, 1, 62, 90
3, 9280, Note_off_c, 1, 58, 100
3, 9280, Note_off_c, 1, 62, 100
3, 9312, Note_on_c, 1, 58, 90
3, 9376, Note_off_c, 1, 58, 100
3, 9408, Note_on_c, 1, 62, 90
3, 9472, Note_off_c, 1, 62, 100
3, 9504, Note_on_c, 1, 65, 90
3, 9568, Note_off_c, 1, 65, 100
3, 9600, Note_on_c, 1, 58, 90
3, 9728, Note_off_c, 1, 58, 100
3, 10080, Note_on_c, 1, 53, 60
3, 10144, Note_off_c, 1, 53, 100
3, 10176, Note_on_c, 1, 57, 60
3, 10240, Note_off_c, 1, 57, 100
3, 10272, Note_on_c, 1, 60, 60
3, 10336, Note_off_c, 1, 60, 100
3, 10368, Note_on_c, 1, 53, 60
3, 10496, Note_off_c, 1, 53, 100
3, 10848, Note_on_c, 1, 46, 90
3, 10848, Note_on_c, 1, 34, 90
3, 10912, Note_off_c, 1, 46, 100
3, 10912, Note_off_c, 1, 34, 100
3, 10944, Note_on_c, 1, 50, 90
3, 10944, Note_on_c, 1, 38, 90
3, 11008, Note_off_c, 1, 50, 100
3, 11008, Note_off_c, 1, 38, 100
3, 11040, Note_on_c, 1, 53, 90
3, 11040, Note_on_c, 1, 41, 90
3, 11104, Note_off_c, 1, 53, 100
3, 11104, Note_off_c, 1, 41, 100
3, 11136, Note_on_c, 1, 50, 90
3, 11136, Note_on_c, 1, 38, 90
3, 11264, Note_off_c, 1, 50, 100
3, 11264, Note_off_c, 1, 38, 100
3, 12672, Note_on_c, 1, 45, 90
3, 12704, Note_off_c, 1, 45, 100
3, 12720, Note_on_c, 1, 46, 90
3, 12752, Note_off_c, 1, 46, 100
3, 12768, Note_on_c, 1, 48, 90
3, 12800, Note_off_c, 1, 48, 100
3, 12816, Note_on_c, 1, 50, 90
3, 12848, Note_off_c, 1, 50, 100
3, 12864, Note_on_c, 1, 52, 90
3, 12896, Note_off_c, 1, 52, 100
3, 12912, Note_on_c, 1, 53, 90
3, 12944, Note_off_c, 1, 53, 100
3, 12960, Note_on_c, 1, 52, 90
3, 12992, Note_off_c, 1, 52, 100
3, 13008, Note_on_c, 1, 53, 90
3, 13040, Note_off_c, 1, 53, 100
3, 13056, Note_on_c, 1, 41, 90
3, 13184, Note_off_c, 1, 41, 100
3, 16896, Note_on_c, 1, 46, 60
3, 16896, Note_on_c, 1, 58, 60
3, 17152, Note_off_c, 1, 46, 100
3, 17152, Note_off_c, 1, 58, 100
3, 18432, Note_on_c, 1, 45, 60
3, 18432, Note_on_c, 1, 57, 60
3, 18688, Note_off_c, 1, 45, 100
3, 18688, Note_off_c, 1, 57, 100
3, 23040, Note_on_c, 1, 53, 90
3, 23040, Note_on_c, 1, 65, 90
3, 23168, Note_off_c, 1, 53, 100
3, 23168, Note_off_c, 1, 65, 100
3, 23232, Note_on_c, 1, 48, 90
3, 23232, Note_on_c, 1, 60, 90
3, 23360, Note_off_c, 1, 48, 100
3, 23360, Note_off_c, 1, 60, 100
3, 23424, Note_on_c, 1, 45, 90
3, 23424, Note_on_c, 1, 57, 90
3, 23552, Note_off_c, 1, 45, 100
3, 23552, Note_off_c, 1, 57, 100
3, 23616, Note_on_c, 1, 53, 90
3, 23616, Note_on_c, 1, 41, 90
3, 23744, Note_off_c, 1, 53, 100
3, 23744, Note_off_c, 1, 41, 100
3, 26592, Note_on_c, 1, 41, 90
3, 26592, Note_on_c, 1, 53, 90
3, 26656, Note_off_c, 1, 41, 100
3, 26656, Note_off_c, 1, 53, 100
3, 26688, Note_on_c, 1, 57, 90
3, 26688, Note_on_c, 1, 45, 90
3, 26752, Note_off_c, 1, 57, 100
3, 26752, Note_off_c, 1, 45, 100
3, 26784, Note_on_c, 1, 53, 90
3, 26784, Note_on_c, 1, 41, 90
3, 26848, Note_off_c, 1, 53, 100
3, 26848, Note_off_c, 1, 41, 100
3, 26880, Note_on_c, 1, 58, 90
3, 26880, Note_on_c, 1, 46, 90
3, 27008, Note_off_c, 1, 58, 100
3, 27008, Note_off_c, 1, 46, 100
3, 27072, Note_on_c, 1, 55, 60
3, 27200, Note_off_c, 1, 55, 100
3, 27264, Note_on_c, 1, 60, 60
3, 27392, Note_off_c, 1, 60, 100
3, 27456, Note_on_c, 1, 48, 60
3, 27584, Note_off_c, 1, 48, 100
3, 27648, Note_on_c, 1, 57, 60
3, 27648, Note_on_c, 1, 53, 60
3, 27776, Note_off_c, 1, 57, 100
3, 27776, Note_off_c, 1, 53, 100
3, 28128, Note_on_c, 1, 53, 90
3, 28128, Note_on_c, 1, 41, 90
3, 28192, Note_off_c, 1, 53, 100
3, 28192, Note_off_c, 1, 41, 100
3, 28224, Note_on_c, 1, 57, 90
3, 28224, Note_on_c, 1, 45, 90
3, 28288, Note_off_c, 1, 57, 100
3, 28288, Note_off_c, 1, 45, 100
3, 28320, Note_on_c, 1, 53, 90
3, 28320, Note_on_c, 1, 41, 90
3, 28384, Note_off_c, 1, 53, 100
3, 28384, Note_off_c, 1, 41, 100
3, 28416, Note_on_c, 1, 46, 90
3, 28432, Note_on_c, 1, 58, 90
3, 28544, Note_off_c, 1, 46, 100
3, 28560, Note_off_c, 1, 58, 100
3, 28608, Note_on_c, 1, 55, 60
3, 28736, Note_off_c, 1, 55, 100
3, 28800, Note_on_c, 1, 60, 60
3, 28928, Note_off_c, 1, 60, 100
3, 28992, Note_on_c, 1, 48, 60
3, 29120, Note_off_c, 1, 48, 100
3, 29184, Note_on_c, 1, 41, 60
3, 29216, Note_off_c, 1, 41, 100
3, 29232, Note_on_c, 1, 53, 60
3, 29264, Note_off_c, 1, 53, 100
3, 29280, Note_on_c, 1, 52, 60
3, 29312, Note_off_c, 1, 52, 100
3, 29328, Note_on_c, 1, 53, 60
3, 29360, Note_off_c, 1, 53, 100
3, 29376, Note_on_c, 1, 41, 60
3, 29408, Note_off_c, 1, 41, 100
3, 29424, Note_on_c, 1, 53, 60
3, 29456, Note_off_c, 1, 53, 100
3, 29472, Note_on_c, 1, 52, 60
3, 29504, Note_off_c, 1, 52, 100
3, 29520, Note_on_c, 1, 53, 60
3, 29552, Note_off_c, 1, 53, 100
3, 29568, Note_on_c, 1, 41, 60
3, 29600, Note_off_c, 1, 41, 100
3, 29616, Note_on_c, 1, 53, 60
3, 29648, Note_off_c, 1, 53, 100
3, 29664, Note_on_c, 1, 52, 60
3, 29696, Note_off_c, 1, 52, 100
3, 29712, Note_on_c, 1, 53, 60
3, 29744, Note_off_c, 1, 53, 100
3, 29760, Note_on_c, 1, 41, 60
3, 29792, Note_off_c, 1, 41, 100
3, 29808, Note_on_c, 1, 53, 60
3, 29840, Note_off_c, 1, 53, 100
3, 29856, Note_on_c, 1, 52, 60
3, 29888, Note_off_c, 1, 52, 100
3, 29904, Note_on_c, 1, 53, 60
3, 29936, Note_off_c, 1, 53, 100
3, 29952, Note_on_c, 1, 41, 60
3, 29984, Note_off_c, 1, 41, 100
3, 30000, Note_on_c, 1, 53, 60
3, 30032, Note_off_c, 1, 53, 100
3, 30048, Note_on_c, 1, 52, 60
3, 30080, Note_off_c, 1, 52, 100
3, 30096, Note_on_c, 1, 53, 60
3, 30128, Note_off_c, 1, 53, 100
3, 30144, Note_on_c, 1, 41, 60
3, 30176, Note_off_c, 1, 41, 100
3, 30192, Note_on_c, 1, 53, 60
3, 30224, Note_off_c, 1, 53, 100
3, 30240, Note_on_c, 1, 52, 60
3, 30272, Note_off_c, 1, 52, 100
3, 30288, Note_on_c, 1, 53, 60
3, 30320, Note_off_c, 1, 53, 100
3, 30336, Note_on_c, 1, 41, 60
3, 30368, Note_off_c, 1, 41, 100
3, 30384, Note_on_c, 1, 53, 60
3, 30416, Note_off_c, 1, 53, 100
3, 30432, Note_on_c, 1, 52, 60
3, 30464, Note_off_c, 1, 52, 100
3, 30480, Note_on_c, 1, 53, 60
3, 30512, Note_off_c, 1, 53, 100
3, 30528, Note_on_c, 1, 41, 90
3, 30560, Note_off_c, 1, 41, 100
3, 30576, Note_on_c, 1, 53, 90
3, 30608, Note_off_c, 1, 53, 100
3, 30624, Note_on_c, 1, 52, 90
3, 30656, Note_off_c, 1, 52, 100
3, 30672, Note_on_c, 1, 53, 90
3, 30704, Note_off_c, 1, 53, 100
3, 30720, Note_on_c, 1, 53, 90
3, 30720, Note_on_c, 1, 41, 90
3, 30976, Note_off_c, 1, 53, 100
3, 30976, Note_off_c, 1, 41, 100
3, 31104, Note_on_c, 1, 53, 90
3, 31104, Note_on_c, 1, 41, 90
3, 31232, Note_off_c, 1, 53, 100
3, 31232, Note_off_c, 1, 41, 100
3, 31488, Note_on_c, 1, 58, 60
3, 31488, Note_on_c, 1, 62, 60
3, 31744, Note_off_c, 1, 58, 100
3, 31744, Note_off_c, 1, 62, 100
3, 31872, Note_on_c, 1, 60, 60
3, 31872, Note_on_c, 1, 63, 60
3, 32128, Note_off_c, 1, 60, 100
3, 32128, Note_off_c, 1, 63, 100
3, 32256, Note_on_c, 1, 62, 60
3, 32256, Note_on_c, 1, 65, 60
3, 32512, Note_off_c, 1, 62, 100
3, 32512, Note_off_c, 1, 65, 100
3, 33024, Note_on_c, 1, 63, 90
3, 33024, Note_on_c, 1, 51, 90
3, 33152, Note_off_c, 1, 63, 100
3, 33152, Note_off_c, 1, 51, 100
3, 33216, Note_on_c, 1, 58, 90
3, 33216, Note_on_c, 1, 46, 90
3, 33344, Note_off_c, 1, 58, 100
3, 33344, Note_off_c, 1, 46, 100
3, 33792, Note_on_c, 1, 53, 90
3, 33792, Note_on_c, 1, 41, 90
3, 33920, Note_off_c, 1, 53, 100
3, 33920, Note_off_c, 1, 41, 100
3, 33984, Note_on_c, 1, 58, 90
3, 33984, Note_on_c, 1, 46, 90
3, 34112, Note_off_c, 1, 58, 100
3, 34112, Note_off_c, 1, 46, 100
3, 34560, Note_on_c, 1, 46, 60
3, 34560, Note_on_c, 1, 50, 60
3, 34816, Note_off_c, 1, 46, 100
3, 34816, Note_off_c, 1, 50, 100
3, 34944, Note_on_c, 1, 48, 60
3, 34944, Note_on_c, 1, 51, 60
3, 35200, Note_off_c, 1, 48, 100
3, 35200, Note_off_c, 1, 51, 100
3, 35328, Note_on_c, 1, 53, 60
3, 35328, Note_on_c, 1, 50, 60
3, 35584, Note_off_c, 1, 53, 100
3, 35584, Note_off_c, 1, 50, 100
3, 36096, Note_on_c, 1, 51, 90
3, 36108, Note_on_c, 1, 55, 90
3, 36124, Note_on_c, 1, 60, 90
3, 36352, Note_off_c, 1, 51, 100
3, 36364, Note_off_c, 1, 55, 100
3, 36380, Note_off_c, 1, 60, 100
3, 36480, Note_on_c, 1, 53, 90
3, 36480, Note_on_c, 1, 62, 90
3, 36608, Note_off_c, 1, 62, 100
3, 36672, Note_on_c, 1, 63, 90
3, 36736, Note_off_c, 1, 53, 100
3, 36800, Note_off_c, 1, 63, 100
3, 36864, Note_on_c, 1, 58, 90
3, 36864, Note_on_c, 1, 62, 90
3, 36928, Note_off_c, 1, 58, 100
3, 36928, Note_off_c, 1, 62, 100
3, 36960, Note_on_c, 1, 58, 90
3, 36960, Note_on_c, 1, 62, 90
3, 37024, Note_off_c, 1, 58, 100
3, 37024, Note_off_c, 1, 62, 100
3, 37056, Note_on_c, 1, 58, 90
3, 37056, Note_on_c, 1, 62, 90
3, 37120, Note_off_c, 1, 58, 100
3, 37120, Note_off_c, 1, 62, 100
3, 37152, Note_on_c, 1, 58, 90
3, 37152, Note_on_c, 1, 62, 90
3, 37216, Note_off_c, 1, 58, 100
3, 37216, Note_off_c, 1, 62, 100
3, 37248, Note_on_c, 1, 58, 90
3, 37248, Note_on_c, 1, 62, 90
3, 37312, Note_off_c, 1, 58, 100
3, 37312, Note_off_c, 1, 62, 100
3, 37344, Note_on_c, 1, 58, 90
3, 37344, Note_on_c, 1, 62, 90
3, 37408, Note_off_c, 1, 58, 100
3, 37408, Note_off_c, 1, 62, 100
3, 37440, Note_on_c, 1, 58, 90
3, 37440, Note_on_c, 1, 62, 90
3, 37504, Note_off_c, 1, 58, 100
3, 37504, Note_off_c, 1, 62, 100
3, 37536, Note_on_c, 1, 58, 90
3, 37536, Note_on_c, 1, 62, 90
3, 37600, Note_off_c, 1, 58, 100
3, 37600, Note_off_c, 1, 62, 100
3, 37632, Note_on_c, 1, 58, 90
3, 37632, Note_on_c, 1, 63, 90
3, 37696, Note_off_c, 1, 58, 100
3, 37696, Note_off_c, 1, 63, 100
3, 37728, Note_on_c, 1, 58, 90
3, 37728, Note_on_c, 1, 63, 90
3, 37792, Note_off_c, 1, 58, 100
3, 37792, Note_off_c, 1, 63, 100
3, 37824, Note_on_c, 1, 58, 90
3, 37824, Note_on_c, 1, 63, 90
3, 37888, Note_off_c, 1, 58, 100
3, 37888, Note_off_c, 1, 63, 100
3, 37920, Note_on_c, 1, 58, 90
3, 37920, Note_on_c, 1, 63, 90
3, 37984, Note_off_c, 1, 58, 100
3, 37984, Note_off_c, 1, 63, 100
3, 38016, Note_on_c, 1, 63, 90
3, 38016, Note_on_c, 1, 58, 90
3, 38080, Note_off_c, 1, 63, 100
3, 38080, Note_off_c, 1, 58, 100
3, 38112, Note_on_c, 1, 58, 90
3, 38112, Note_on_c, 1, 63, 90
3, 38176, Note_off_c, 1, 58, 100
3, 38176, Note_off_c, 1, 63, 100
3, 38208, Note_on_c, 1, 58, 90
3, 38208, Note_on_c, 1, 63, 90
3, 38272, Note_off_c, 1, 58, 100
3, 38272, Note_off_c, 1, 63, 100
3, 38304, Note_on_c, 1, 58, 90
3, 38304, Note_on_c, 1, 63, 90
3, 38368, Note_off_c, 1, 58, 100
3, 38368, Note_off_c, 1, 63, 100
3, 38400, Note_on_c, 1, 58, 90
3, 38400, Note_on_c, 1, 62, 90
3, 38464, Note_off_c, 1, 58, 100
3, 38464, Note_off_c, 1, 62, 100
3, 38496, Note_on_c, 1, 58, 90
3, 38496, Note_on_c, 1, 62, 90
3, 38560, Note_off_c, 1, 58, 100
3, 38560, Note_off_c, 1, 62, 100
3, 38592, Note_on_c, 1, 58, 90
3, 38592, Note_on_c, 1, 62, 90
3, 38656, Note_off_c, 1, 58, 100
3, 38656, Note_off_c, 1, 62, 100
3, 38688, Note_on_c, 1, 58, 90
3, 38688, Note_on_c, 1, 62, 90
3, 38752, Note_off_c, 1, 58, 100
3, 38752, Note_off_c, 1, 62, 100
3, 38784, Note_on_c, 1, 58, 90
3, 38784, Note_on_c, 1, 62, 90
3, 38848, Note_off_c, 1, 58, 100
3, 38848, Note_off_c, 1, 62, 100
3, 38880, Note_on_c, 1, 58, 90
3, 38880, Note_on_c, 1, 62, 90
3, 38944, Note_off_c, 1, 58, 100
3, 38944, Note_off_c, 1, 62, 100
3, 38976, Note_on_c, 1, 58, 90
3, 38976, Note_on_c, 1, 62, 90
3, 39040, Note_off_c, 1, 58, 100
3, 39040, Note_off_c, 1, 62, 100
3, 39072, Note_on_c, 1, 58, 90
3, 39072, Note_on_c, 1, 62, 90
3, 39136, Note_off_c, 1, 58, 100
3, 39136, Note_off_c, 1, 62, 100
3, 39168, Note_on_c, 1, 58, 90
3, 39168, Note_on_c, 1, 63, 90
3, 39232, Note_off_c, 1, 58, 100
3, 39232, Note_off_c, 1, 63, 100
3, 39264, Note_on_c, 1, 58, 90
3, 39264, Note_on_c, 1, 63, 90
3, 39328, Note_off_c, 1, 58, 100
3, 39328, Note_off_c, 1, 63, 100
3, 39360, Note_on_c, 1, 58, 90
3, 39360, Note_on_c, 1, 63, 90
3, 39424, Note_off_c, 1, 58, 100
3, 39424, Note_off_c, 1, 63, 100
3, 39456, Note_on_c, 1, 58, 90
3, 39456, Note_on_c, 1, 63, 90
3, 39520, Note_off_c, 1, 58, 100
3, 39520, Note_off_c, 1, 63, 100
3, 39552, Note_on_c, 1, 58, 90
3, 39552, Note_on_c, 1, 63, 90
3, 39616, Note_off_c, 1, 58, 100
3, 39616, Note_off_c, 1, 63, 100
3, 39648, Note_on_c, 1, 58, 90
3, 39648, Note_on_c, 1, 63, 90
3, 39712, Note_off_c, 1, 58, 100
3, 39712, Note_off_c, 1, 63, 100
3, 39744, Note_on_c, 1, 58, 90
3, 39744, Note_on_c, 1, 63, 90
3, 39808, Note_off_c, 1, 58, 100
3, 39808, Note_off_c, 1, 63, 100
3, 39840, Note_on_c, 1, 58, 90
3, 39840, Note_on_c, 1, 63, 90
3, 39904, Note_off_c, 1, 58, 100
3, 39904, Note_off_c, 1, 63, 100
3, 39936, Note_on_c, 1, 58, 90
3, 39936, Note_on_c, 1, 62, 90
3, 40000, Note_off_c, 1, 58, 100
3, 40000, Note_off_c, 1, 62, 100
3, 40032, Note_on_c, 1, 58, 90
3, 40096, Note_off_c, 1, 58, 100
3, 40128, Note_on_c, 1, 62, 90
3, 40192, Note_off_c, 1, 62, 100
3, 40224, Note_on_c, 1, 65, 90
3, 40288, Note_off_c, 1, 65, 100
3, 40320, Note_on_c, 1, 58, 90
3, 40448, Note_off_c, 1, 58, 100
3, 40800, Note_on_c, 1, 53, 60
3, 40864, Note_off_c, 1, 53, 100
3, 40896, Note_on_c, 1, 57, 60
3, 40960, Note_off_c, 1, 57, 100
3, 40992, Note_on_c, 1, 60, 60
3, 41056, Note_off_c, 1, 60, 100
3, 41088, Note_on_c, 1, 53, 60
3, 41216, Note_off_c, 1, 53, 100
3, 41568, Note_on_c, 1, 46, 90
3, 41568, Note_on_c, 1, 34, 90
3, 41632, Note_off_c, 1, 46, 100
3, 41632, Note_off_c, 1, 34, 100
3, 41664, Note_on_c, 1, 50, 90
3, 41664, Note_on_c, 1, 38, 90
3, 41728, Note_off_c, 1, 50, 100
3, 41728, Note_off_c, 1, 38, 100
3, 41760, Note_on_c, 1, 53, 90
3, 41760, Note_on_c, 1, 41, 90
3, 41824, Note_off_c, 1, 53, 100
3, 41824, Note_off_c, 1, 41, 100
3, 41856, Note_on_c, 1, 50, 90
3, 41856, Note_on_c, 1, 38, 90
3, 41984, Note_off_c, 1, 50, 100
3, 41984, Note_off_c, 1, 38, 100
3, 43392, Note_on_c, 1, 45, 90
3, 43424, Note_off_c, 1, 45, 100
3, 43440, Note_on_c, 1, 46, 90
3, 43472, Note_off_c, 1, 46, 100
3, 43488, Note_on_c, 1, 48, 90
3, 43520, Note_off_c, 1, 48, 100
3, 43536, Note_on_c, 1, 50, 90
3, 43568, Note_off_c, 1, 50, 100
3, 43584, Note_on_c, 1, 52, 90
3, 43616, Note_off_c, 1, 52, 100
3, 43632, Note_on_c, 1, 53, 90
3, 43664, Note_off_c, 1, 53, 100
3, 43680, Note_on_c, 1, 52, 90
3, 43712, Note_off_c, 1, 52, 100
3, 43728, Note_on_c, 1, 53, 90
3, 43760, Note_off_c, 1, 53, 100
3, 43776, Note_on_c, 1, 41, 90
3, 43904, Note_off_c, 1, 41, 100
3, 47616, Note_on_c, 1, 46, 60
3, 47616, Note_on_c, 1, 58, 60
3, 47872, Note_off_c, 1, 46, 100
3, 47872, Note_off_c, 1, 58, 100
3, 49152, Note_on_c, 1, 45, 60
3, 49152, Note_on_c, 1, 57, 60
3, 49408, Note_off_c, 1, 45, 100
3, 49408, Note_off_c, 1, 57, 100
3, 53760, Note_on_c, 1, 53, 90
3, 53760, Note_on_c, 1, 65, 90
3, 53888, Note_off_c, 1, 53, 100
3, 53888, Note_off_c, 1, 65, 100
3, 53952, Note_on_c, 1, 48, 90
3, 53952, Note_on_c, 1, 60, 90
3, 54080, Note_off_c, 1, 48, 100
3, 54080, Note_off_c, 1, 60, 100
3, 54144, Note_on_c, 1, 45, 90
3, 54144, Note_on_c, 1, 57, 90
3, 54272, Note_off_c, 1, 45, 100
3, 54272, Note_off_c, 1, 57, 100
3, 54336, Note_on_c, 1, 53, 90
3, 54336, Note_on_c, 1, 41, 90
3, 54464, Note_off_c, 1, 53, 100
3, 54464, Note_off_c, 1, 41, 100
3, 57312, Note_on_c, 1, 41, 90
3, 57312, Note_on_c, 1, 53, 90
3, 57376, Note_off_c, 1, 41, 100
3, 57376, Note_off_c, 1, 53, 100
3, 57408, Note_on_c, 1, 57, 90
3, 57408, Note_on_c, 1, 45, 90
3, 57472, Note_off_c, 1, 57, 100
3, 57472, Note_off_c, 1, 45, 100
3, 57504, Note_on_c, 1, 53, 90
3, 57504, Note_on_c, 1, 41, 90
3, 57568, Note_off_c, 1, 53, 100
3, 57568, Note_off_c, 1, 41, 100
3, 57600, Note_on_c, 1, 58, 90
3, 57600, Note_on_c, 1, 46, 90
3, 57728, Note_off_c, 1, 58, 100
3, 57728, Note_off_c, 1, 46, 100
3, 57792, Note_on_c, 1, 55, 60
3, 57920, Note_off_c, 1, 55, 100
3, 57984, Note_on_c, 1, 60, 60
3, 58112, Note_off_c, 1, 60, 100
3, 58176, Note_on_c, 1, 48, 60
3, 58304, Note_off_c, 1, 48, 100
3, 58368, Note_on_c, 1, 57, 60
3, 58368, Note_on_c, 1, 53, 60
3, 58496, Note_off_c, 1, 57, 100
3, 58496, Note_off_c, 1, 53, 100
3, 58848, Note_on_c, 1, 53, 90
3, 58848, Note_on_c, 1, 41, 90
3, 58912, Note_off_c, 1, 53, 100
3, 58912, Note_off_c, 1, 41, 100
3, 58944, Note_on_c, 1, 57, 90
3, 58944, Note_on_c, 1, 45, 90
3, 59008, Note_off_c, 1, 57, 100
3, 59008, Note_off_c, 1, 45, 100
3, 59040, Note_on_c, 1, 53, 90
3, 59040, Note_on_c, 1, 41, 90
3, 59104, Note_off_c, 1, 53, 100
3, 59104, Note_off_c, 1, 41, 100
3, 59136, Note_on_c, 1, 46, 90
3, 59136, Note_on_c, 1, 58, 90
3, 59264, Note_off_c, 1, 46, 100
3, 59264, Note_off_c, 1, 58, 100
3, 59328, Note_on_c, 1, 55, 60
3, 59456, Note_off_c, 1, 55, 100
3, 59520, Note_on_c, 1, 60, 60
3, 59648, Note_off_c, 1, 60, 100
3, 59712, Note_on_c, 1, 48, 60
3, 59840, Note_off_c, 1, 48, 100
3, 59904, Note_on_c, 1, 41, 60
3, 59936, Note_off_c, 1, 41, 100
3, 59952, Note_on_c, 1, 53, 60
3, 59984, Note_off_c, 1, 53, 100
3, 60000, Note_on_c, 1, 52, 60
3, 60032, Note_off_c, 1, 52, 100
3, 60048, Note_on_c, 1, 53, 60
3, 60080, Note_off_c, 1, 53, 100
3, 60096, Note_on_c, 1, 41, 60
3, 60128, Note_off_c, 1, 41, 100
3, 60144, Note_on_c, 1, 53, 60
3, 60176, Note_off_c, 1, 53, 100
3, 60192, Note_on_c, 1, 52, 60
3, 60224, Note_off_c, 1, 52, 100
3, 60240, Note_on_c, 1, 53, 60
3, 60272, Note_off_c, 1, 53, 100
3, 60288, Note_on_c, 1, 41, 60
3, 60320, Note_off_c, 1, 41, 100
3, 60336, Note_on_c, 1, 53, 60
3, 60368, Note_off_c, 1, 53, 100
3, 60384, Note_on_c, 1, 52, 60
3, 60416, Note_off_c, 1, 52, 100
3, 60432, Note_on_c, 1, 53, 60
3, 60464, Note_off_c, 1, 53, 100
3, 60480, Note_on_c, 1, 41, 60
3, 60512, Note_off_c, 1, 41, 100
3, 60528, Note_on_c, 1, 53, 60
3, 60560, Note_off_c, 1, 53, 100
3, 60576, Note_on_c, 1, 52, 60
3, 60608, Note_off_c, 1, 52, 100
3, 60624, Note_on_c, 1, 53, 60
3, 60656, Note_off_c, 1, 53, 100
3, 60672, Note_on_c, 1, 41, 60
3, 60704, Note_off_c, 1, 41, 100
3, 60720, Note_on_c, 1, 53, 60
3, 60752, Note_off_c, 1, 53, 100
3, 60768, Note_on_c, 1, 52, 60
3, 60800, Note_off_c, 1, 52, 100
3, 60816, Note_on_c, 1, 53, 60
3, 60848, Note_off_c, 1, 53, 100
3, 60864, Note_on_c, 1, 41, 60
3, 60896, Note_off_c, 1, 41, 100
3, 60912, Note_on_c, 1, 53, 60
3, 60944, Note_off_c, 1, 53, 100
3, 60960, Note_on_c, 1, 52, 60
3, 60992, Note_off_c, 1, 52, 100
3, 61008, Note_on_c, 1, 53, 60
3, 61040, Note_off_c, 1, 53, 100
3, 61056, Note_on_c, 1, 41, 60
3, 61088, Note_off_c, 1, 41, 100
3, 61104, Note_on_c, 1, 53, 60
3, 61136, Note_off_c, 1, 53, 100
3, 61152, Note_on_c, 1, 52, 60
3, 61184, Note_off_c, 1, 52, 100
3, 61200, Note_on_c, 1, 53, 60
3, 61232, Note_off_c, 1, 53, 100
3, 61248, Note_on_c, 1, 41, 90
3, 61280, Note_off_c, 1, 41, 100
3, 61296, Note_on_c, 1, 53, 90
3, 61328, Note_off_c, 1, 53, 100
3, 61344, Note_on_c, 1, 52, 90
3, 61376, Note_off_c, 1, 52, 100
3, 61392, Note_on_c, 1, 53, 90
3, 61424, Note_off_c, 1, 53, 100
3, 61440, Note_on_c, 1, 53, 90
3, 61440, Note_on_c, 1, 41, 90
3, 61696, Note_off_c, 1, 53, 100
3, 61696, Note_off_c, 1, 41, 100
3, 61824, Note_on_c, 1, 53, 90
3, 61824, Note_on_c, 1, 41, 90
3, 61952, Note_off_c, 1, 53, 100
3, 61952, Note_off_c, 1, 41, 100
3, 65280, Note_on_c, 1, 60, 60
3, 65280, Note_on_c, 1, 57, 60
3, 65536, Note_off_c, 1, 57, 100
3, 65664, Note_on_c, 1, 58, 60
3, 65792, Note_off_c, 1, 60, 100
3, 65920, Note_off_c, 1, 58, 100
3, 66048, Note_on_c, 1, 57, 60
3, 66048, Note_on_c, 1, 60, 60
3, 66304, Note_off_c, 1, 57, 100
3, 66304, Note_off_c, 1, 60, 100
3, 66816, Note_on_c, 1, 50, 90
3, 66828, Note_on_c, 1, 46, 90
3, 66844, Note_on_c, 1, 55, 90
3, 67196, Note_off_c, 1, 50, 100
3, 67200, Note_on_c, 1, 48, 90
3, 67200, Note_on_c, 1, 57, 90
3, 67208, Note_off_c, 1, 46, 100
3, 67224, Note_off_c, 1, 55, 100
3, 67328, Note_off_c, 1, 57, 100
3, 67392, Note_on_c, 1, 58, 90
3, 67456, Note_off_c, 1, 48, 100
3, 67520, Note_off_c, 1, 58, 100
3, 67584, Note_on_c, 1, 53, 90
3, 67632, Note_off_c, 1, 53, 100
3, 67648, Note_on_c, 1, 55, 90
3, 67696, Note_off_c, 1, 55, 100
3, 67712, Note_on_c, 1, 57, 90
3, 67760, Note_off_c, 1, 57, 100
3, 67776, Note_on_c, 1, 58, 90
3, 67824, Note_off_c, 1, 58, 100
3, 67840, Note_on_c, 1, 60, 90
3, 67888, Note_off_c, 1, 60, 100
3, 67904, Note_on_c, 1, 62, 90
3, 67952, Note_off_c, 1, 62, 100
3, 67968, Note_on_c, 1, 63, 97
3, 68016, Note_off_c, 1, 63, 100
3, 68032, Note_on_c, 1, 62, 90
3, 68080, Note_off_c, 1, 62, 100
3, 68096, Note_on_c, 1, 60, 90
3, 68144, Note_off_c, 1, 60, 100
3, 68160, Note_on_c, 1, 58, 90
3, 68208, Note_off_c, 1, 58, 100
3, 68224, Note_on_c, 1, 57, 90
3, 68272, Note_off_c, 1, 57, 100
3, 68288, Note_on_c, 1, 55, 90
3, 68336, Note_off_c, 1, 55, 100
3, 68352, Note_on_c, 1, 54, 90
3, 68864, Note_off_c, 1, 54, 100
3, 69120, Note_on_c, 1, 55, 90
3, 69168, Note_off_c, 1, 55, 100
3, 69184, Note_on_c, 1, 58, 90
3, 69232, Note_off_c, 1, 58, 100
3, 69248, Note_on_c, 1, 60, 90
3, 69296, Note_off_c, 1, 60, 100
3, 69312, Note_on_c, 1, 62, 90
3, 69360, Note_off_c, 1, 62, 100
3, 69376, Note_on_c, 1, 65, 90
3, 69424, Note_off_c, 1, 65, 100
3, 69440, Note_on_c, 1, 67, 90
3, 69488, Note_off_c, 1, 67, 100
3, 69504, Note_on_c, 1, 68, 97
3, 69552, Note_off_c, 1, 68, 100
3, 69568, Note_on_c, 1, 67, 90
3, 69616, Note_off_c, 1, 67, 100
3, 69632, Note_on_c, 1, 65, 90
3, 69680, Note_off_c, 1, 65, 100
3, 69696, Note_on_c, 1, 63, 90
3, 69744, Note_off_c, 1, 63, 100
3, 69760, Note_on_c, 1, 62, 90
3, 69808, Note_off_c, 1, 62, 100
3, 69824, Note_on_c, 1, 60, 90
3, 69872, Note_off_c, 1, 60, 100
3, 69888, Note_on_c, 1, 59, 90
3, 70144, Note_off_c, 1, 59, 100
3, 70656, Note_on_c, 1, 48, 90
3, 70704, Note_off_c, 1, 48, 100
3, 70720, Note_on_c, 1, 50, 90
3, 70768, Note_off_c, 1, 50, 100
3, 70784, Note_on_c, 1, 51, 90
3, 70832, Note_off_c, 1, 51, 100
3, 70848, Note_on_c, 1, 53, 90
3, 70896, Note_off_c, 1, 53, 100
3, 70912, Note_on_c, 1, 55, 90
3, 70960, Note_off_c, 1, 55, 100
3, 70976, Note_on_c, 1, 57, 90
3, 71024, Note_off_c, 1, 57, 100
3, 71040, Note_on_c, 1, 58, 90
3, 71088, Note_off_c, 1, 58, 100
3, 71104, Note_on_c, 1, 57, 90
3, 71152, Note_off_c, 1, 57, 100
3, 71168, Note_on_c, 1, 55, 90
3, 71216, Note_off_c, 1, 55, 100
3, 71232, Note_on_c, 1, 53, 90
3, 71280, Note_off_c, 1, 53, 100
3, 71296, Note_on_c, 1, 51, 90
3, 71344, Note_off_c, 1, 51, 100
3, 71360, Note_on_c, 1, 50, 90
3, 71408, Note_off_c, 1, 50, 100
3, 71424, Note_on_c, 1, 49, 60
3, 71616, Note_off_c, 1, 49, 100
3, 71808, Note_on_c, 1, 61, 60
3, 71936, Note_off_c, 1, 61, 100
3, 72192, Note_on_c, 1, 62, 90
3, 72192, Note_on_c, 1, 50, 90
3, 72320, Note_off_c, 1, 62, 100
3, 72320, Note_off_c, 1, 50, 100
3, 72384, Note_on_c, 1, 60, 90
3, 72384, Note_on_c, 1, 48, 90
3, 72512, Note_off_c, 1, 60, 100
3, 72512, Note_off_c, 1, 48, 100
3, 72960, Note_on_c, 1, 58, 90
3, 72960, Note_on_c, 1, 46, 90
3, 73216, Note_off_c, 1, 58, 100
3, 73216, Note_off_c, 1, 46, 100
3, 73536, Note_on_c, 1, 48, 90
3, 73536, Note_on_c, 1, 60, 90
3, 73664, Note_off_c, 1, 48, 100
3, 73664, Note_off_c, 1, 60, 100
3, 73728, Note_on_c, 1, 58, 90
3, 73728, Note_on_c, 1, 46, 90
3, 73984, Note_off_c, 1, 58, 100
3, 73984, Note_off_c, 1, 46, 100
3, 74304, Note_on_c, 1, 63, 90
3, 74304, Note_on_c, 1, 51, 90
3, 74432, Note_off_c, 1, 63, 100
3, 74432, Note_off_c, 1, 51, 100
3, 77664, Note_on_c, 1, 55, 60
3, 77664, Note_on_c, 1, 58, 60
3, 77728, Note_off_c, 1, 55, 100
3, 77728, Note_off_c, 1, 58, 100
3, 77760, Note_on_c, 1, 58, 60
3, 77760, Note_on_c, 1, 62, 60
3, 77888, Note_off_c, 1, 58, 100
3, 77888, Note_off_c, 1, 62, 100
3, 78048, Note_on_c, 1, 58, 60
3, 78048, Note_on_c, 1, 55, 60
3, 78112, Note_off_c, 1, 58, 100
3, 78112, Note_off_c, 1, 55, 100
3, 78144, Note_on_c, 1, 58, 60
3, 78144, Note_on_c, 1, 62, 60
3, 78272, Note_off_c, 1, 58, 100
3, 78272, Note_off_c, 1, 62, 100
3, 78432, Note_on_c, 1, 55, 73
3, 78432, Note_on_c, 1, 58, 73
3, 78496, Note_off_c, 1, 55, 100
3, 78496, Note_off_c, 1, 58, 100
3, 78528, Note_on_c, 1, 58, 75
3, 78528, Note_on_c, 1, 63, 75
3, 78656, Note_off_c, 1, 58, 100
3, 78656, Note_off_c, 1, 63, 100
3, 78816, Note_on_c, 1, 55, 82
3, 78816, Note_on_c, 1, 58, 82
3, 78880, Note_off_c, 1, 55, 100
3, 78880, Note_off_c, 1, 58, 100
3, 78912, Note_on_c, 1, 58, 84
3, 78912, Note_on_c, 1, 65, 84
3, 79040, Note_off_c, 1, 58, 100
3, 79040, Note_off_c, 1, 65, 100
3, 79104, Note_on_c, 1, 62, 90
3, 79104, Note_on_c, 1, 58, 90
3, 79104, Note_on_c, 1, 56, 90
3, 79104, Note_on_c, 1, 53, 90
3, 79616, Note_off_c, 1, 62, 100
3, 79616, Note_off_c, 1, 58, 100
3, 79616, Note_off_c, 1, 56, 100
3, 79616, Note_off_c, 1, 53, 100
3, 79872, Note_on_c, 1, 51, 60
3, 80000, Note_off_c, 1, 51, 100
3, 80064, Note_on_c, 1, 55, 60
3, 80192, Note_off_c, 1, 55, 100
3, 80256, Note_on_c, 1, 58, 60
3, 80384, Note_off_c, 1, 58, 100
3, 80448, Note_on_c, 1, 63, 60
3, 80576, Note_off_c, 1, 63, 100
3, 80640, Note_on_c, 1, 62, 90
3, 80640, Note_on_c, 1, 58, 90
3, 80640, Note_on_c, 1, 56, 90
3, 80640, Note_on_c, 1, 53, 90
3, 81152, Note_off_c, 1, 62, 100
3, 81152, Note_off_c, 1, 58, 100
3, 81152, Note_off_c, 1, 56, 100
3, 81152, Note_off_c, 1, 53, 100
3, 81408, Note_on_c, 1, 63, 60
3, 81408, Note_on_c, 1, 58, 60
3, 81408, Note_on_c, 1, 55, 60
3, 81408, Note_on_c, 1, 51, 60
3, 81536, Note_off_c, 1, 63, 100
3, 81536, Note_off_c, 1, 58, 100
3, 81536, Note_off_c, 1, 55, 100
3, 81536, Note_off_c, 1, 51, 100
3, 82752, Note_on_c, 1, 55, 60
3, 82752, Note_on_c, 1, 43, 60
3, 82880, Note_off_c, 1, 55, 100
3, 82880, Note_off_c, 1, 43, 100
3, 82944, Note_on_c, 1, 53, 60
3, 82944, Note_on_c, 1, 41, 60
3, 83072, Note_off_c, 1, 53, 100
3, 83072, Note_off_c, 1, 41, 100
3, 84480, Note_on_c, 1, 58, 90
3, 84480, Note_on_c, 1, 62, 90
3, 84736, Note_off_c, 1, 58, 100
3, 84736, Note_off_c, 1, 62, 100
3, 84864, Note_on_c, 1, 60, 90
3, 84864, Note_on_c, 1, 63, 90
3, 85120, Note_off_c, 1, 60, 100
3, 85120, Note_off_c, 1, 63, 100
3, 85248, Note_on_c, 1, 62, 90
3, 85248, Note_on_c, 1, 65, 90
3, 85504, Note_off_c, 1, 62, 100
3, 85504, Note_off_c, 1, 65, 100
3, 86016, Note_on_c, 1, 63, 90
3, 86016, Note_on_c, 1, 51, 90
3, 86144, Note_off_c, 1, 63, 100
3, 86144, Note_off_c, 1, 51, 100
3, 86208, Note_on_c, 1, 58, 90
3, 86208, Note_on_c, 1, 46, 90
3, 86336, Note_off_c, 1, 58, 100
3, 86336, Note_off_c, 1, 46, 100
3, 86784, Note_on_c, 1, 53, 90
3, 86784, Note_on_c, 1, 41, 90
3, 86912, Note_off_c, 1, 53, 100
3, 86912, Note_off_c, 1, 41, 100
3, 86976, Note_on_c, 1, 58, 90
3, 86976, Note_on_c, 1, 46, 90
3, 87104, Note_off_c, 1, 58, 100
3, 87104, Note_off_c, 1, 46, 100
3, 87552, Note_on_c, 1, 46, 60
3, 87552, Note_on_c, 1, 50, 60
3, 87808, Note_off_c, 1, 46, 100
3, 87808, Note_off_c, 1, 50, 100
3, 87936, Note_on_c, 1, 48, 60
3, 87936, Note_on_c, 1, 51, 60
3, 88192, Note_off_c, 1, 48, 100
3, 88192, Note_off_c, 1, 51, 100
3, 88320, Note_on_c, 1, 50, 60
3, 88320, Note_on_c, 1, 53, 60
3, 88576, Note_off_c, 1, 50, 100
3, 88576, Note_off_c, 1, 53, 100
3, 89088, Note_on_c, 1, 60, 60
3, 89088, Note_on_c, 1, 55, 60
3, 89088, Note_on_c, 1, 51, 60
3, 89344, Note_off_c, 1, 60, 100
3, 89344, Note_off_c, 1, 55, 100
3, 89344, Note_off_c, 1, 51, 100
3, 89472, Note_on_c, 1, 53, 60
3, 89472, Note_on_c, 1, 62, 60
3, 89600, Note_off_c, 1, 62, 100
3, 89664, Note_on_c, 1, 63, 60
3, 89728, Note_off_c, 1, 53, 100
3, 89792, Note_off_c, 1, 63, 100
3, 89856, Note_on_c, 1, 58, 60
3, 89856, Note_on_c, 1, 62, 60
3, 89920, Note_off_c, 1, 58, 100
3, 89920, Note_off_c, 1, 62, 100
3, 89952, Note_on_c, 1, 58, 60
3, 89952, Note_on_c, 1, 62, 60
3, 90016, Note_off_c, 1, 58, 100
3, 90016, Note_off_c, 1, 62, 100
3, 90048, Note_on_c, 1, 58, 60
3, 90048, Note_on_c, 1, 62, 60
3, 90112, Note_off_c, 1, 58, 100
3, 90112, Note_off_c, 1, 62, 100
3, 90144, Note_on_c, 1, 58, 60
3, 90144, Note_on_c, 1, 62, 60
3, 90208, Note_off_c, 1, 58, 100
3, 90208, Note_off_c, 1, 62, 100
3, 90240, Note_on_c, 1, 58, 60
3, 90240, Note_on_c, 1, 62, 60
3, 90304, Note_off_c, 1, 58, 100
3, 90304, Note_off_c, 1, 62, 100
3, 90336, Note_on_c, 1, 58, 60
3, 90336, Note_on_c, 1, 62, 60
3, 90400, Note_off_c, 1, 58, 100
3, 90400, Note_off_c, 1, 62, 100
3, 90432, Note_on_c, 1, 58, 60
3, 90432, Note_on_c, 1, 62, 60
3, 90496, Note_off_c, 1, 58, 100
3, 90496, Note_off_c, 1, 62, 100
3, 90528, Note_on_c, 1, 58, 60
3, 90528, Note_on_c, 1, 62, 60
3, 90592, Note_off_c, 1, 58, 100
3, 90592, Note_off_c, 1, 62, 100
3, 90624, Note_on_c, 1, 58, 60
3, 90624, Note_on_c, 1, 63, 60
3, 90688, Note_off_c, 1, 58, 100
3, 90688, Note_off_c, 1, 63, 100
3, 90720, Note_on_c, 1, 58, 60
3, 90720, Note_on_c, 1, 63, 60
3, 90784, Note_off_c, 1, 58, 100
3, 90784, Note_off_c, 1, 63, 100
3, 90816, Note_on_c, 1, 58, 60
3, 90816, Note_on_c, 1, 63, 60
3, 90880, Note_off_c, 1, 58, 100
3, 90880, Note_off_c, 1, 63, 100
3, 90912, Note_on_c, 1, 58, 60
3, 90912, Note_on_c, 1, 63, 60
3, 90976, Note_off_c, 1, 58, 100
3, 90976, Note_off_c, 1, 63, 100
3, 91008, Note_on_c, 1, 58, 60
3, 91008, Note_on_c, 1, 63, 60
3, 91072, Note_off_c, 1, 58, 100
3, 91072, Note_off_c, 1, 63, 100
3, 91104, Note_on_c, 1, 58, 60
3, 91104, Note_on_c, 1, 63, 60
3, 91168, Note_off_c, 1, 58, 100
3, 91168, Note_off_c, 1, 63, 100
3, 91200, Note_on_c, 1, 58, 60
3, 91200, Note_on_c, 1, 63, 60
3, 91264, Note_off_c, 1, 58, 100
3, 91264, Note_off_c, 1, 63, 100
3, 91296, Note_on_c, 1, 63, 60
3, 91296, Note_on_c, 1, 58, 60
3, 91360, Note_off_c, 1, 63, 100
3, 91360, Note_off_c, 1, 58, 100
3, 91392, Note_on_c, 1, 58, 60
3, 91392, Note_on_c, 1, 62, 60
3, 91456, Note_off_c, 1, 58, 100
3, 91456, Note_off_c, 1, 62, 100
3, 91488, Note_on_c, 1, 58, 60
3, 91488, Note_on_c, 1, 62, 60
3, 91552, Note_off_c, 1, 58, 100
3, 91552, Note_off_c, 1, 62, 100
3, 91584, Note_on_c, 1, 58, 60
3, 91584, Note_on_c, 1, 62, 60
3, 91648, Note_off_c, 1, 58, 100
3, 91648, Note_off_c, 1, 62, 100
3, 91680, Note_on_c, 1, 58, 60
3, 91680, Note_on_c, 1, 62, 60
3, 91744, Note_off_c, 1, 58, 100
3, 91744, Note_off_c, 1, 62, 100
3, 91776, Note_on_c, 1, 58, 60
3, 91776, Note_on_c, 1, 62, 60
3, 91840, Note_off_c, 1, 58, 100
3, 91840, Note_off_c, 1, 62, 100
3, 91872, Note_on_c, 1, 58, 60
3, 91872, Note_on_c, 1, 62, 60
3, 91936, Note_off_c, 1, 58, 100
3, 91936, Note_off_c, 1, 62, 100
3, 91968, Note_on_c, 1, 58, 60
3, 91968, Note_on_c, 1, 62, 60
3, 92032, Note_off_c, 1, 58, 100
3, 92032, Note_off_c, 1, 62, 100
3, 92064, Note_on_c, 1, 58, 60
3, 92064, Note_on_c, 1, 62, 60
3, 92128, Note_off_c, 1, 58, 100
3, 92128, Note_off_c, 1, 62, 100
3, 92160, Note_on_c, 1, 58, 60
3, 92160, Note_on_c, 1, 63, 60
3, 92224, Note_off_c, 1, 58, 100
3, 92224, Note_off_c, 1, 63, 100
3, 92256, Note_on_c, 1, 58, 60
3, 92256, Note_on_c, 1, 63, 60
3, 92320, Note_off_c, 1, 58, 100
3, 92320, Note_off_c, 1, 63, 100
3, 92352, Note_on_c, 1, 58, 60
3, 92352, Note_on_c, 1, 63, 60
3, 92416, Note_off_c, 1, 58, 100
3, 92416, Note_off_c, 1, 63, 100
3, 92448, Note_on_c, 1, 58, 60
3, 92448, Note_on_c, 1, 63, 60
3, 92512, Note_off_c, 1, 58, 100
3, 92512, Note_off_c, 1, 63, 100
3, 92544, Note_on_c, 1, 58, 60
3, 92544, Note_on_c, 1, 63, 60
3, 92608, Note_off_c, 1, 58, 100
3, 92608, Note_off_c, 1, 63, 100
3, 92640, Note_on_c, 1, 58, 60
3, 92640, Note_on_c, 1, 63, 60
3, 92704, Note_off_c, 1, 58, 100
3, 92704, Note_off_c, 1, 63, 100
3, 92736, Note_on_c, 1, 58, 60
3, 92736, Note_on_c, 1, 63, 60
3, 92800, Note_off_c, 1, 58, 100
3, 92800, Note_off_c, 1, 63, 100
3, 92832, Note_on_c, 1, 58, 60
3, 92832, Note_on_c, 1, 63, 60
3, 92896, Note_off_c, 1, 58, 100
3, 92896, Note_off_c, 1, 63, 100
3, 92928, Note_on_c, 1, 58, 60
3, 92928, Note_on_c, 1, 62, 60
3, 92992, Note_off_c, 1, 58, 100
3, 92992, Note_off_c, 1, 62, 100
3, 93024, Note_on_c, 1, 58, 60
3, 93088, Note_off_c, 1, 58, 100
3, 93120, Note_on_c, 1, 62, 60
3, 93184, Note_off_c, 1, 62, 100
3, 93216, Note_on_c, 1, 65, 60
3, 93280, Note_off_c, 1, 65, 100
3, 93312, Note_on_c, 1, 58, 60
3, 93440, Note_off_c, 1, 58, 100
3, 93792, Note_on_c, 1, 53, 60
3, 93856, Note_off_c, 1, 53, 100
3, 93888, Note_on_c, 1, 57, 60
3, 93952, Note_off_c, 1, 57, 100
3, 93984, Note_on_c, 1, 60, 60
3, 94048, Note_off_c, 1, 60, 100
3, 94080, Note_on_c, 1, 53, 60
3, 94208, Note_off_c, 1, 53, 100
3, 94560, Note_on_c, 1, 34, 90
3, 94560, Note_on_c, 1, 46, 90
3, 94624, Note_off_c, 1, 34, 100
3, 94624, Note_off_c, 1, 46, 100
3, 94640, Note_on_c, 1, 50, 90
3, 94656, Note_on_c, 1, 38, 90
3, 94704, Note_off_c, 1, 50, 100
3, 94720, Note_off_c, 1, 38, 100
3, 94752, Note_on_c, 1, 53, 90
3, 94752, Note_on_c, 1, 41, 90
3, 94816, Note_off_c, 1, 53, 100
3, 94816, Note_off_c, 1, 41, 100
3, 94848, Note_on_c, 1, 50, 90
3, 94848, Note_on_c, 1, 38, 90
3, 94976, Note_off_c, 1, 50, 100
3, 94976, Note_off_c, 1, 38, 100
3, 96384, Note_on_c, 1, 45, 90
3, 96416, Note_off_c, 1, 45, 100
3, 96432, Note_on_c, 1, 46, 90
3, 96464, Note_off_c, 1, 46, 100
3, 96480, Note_on_c, 1, 48, 90
3, 96512, Note_off_c, 1, 48, 100
3, 96528, Note_on_c, 1, 50, 90
3, 96560, Note_off_c, 1, 50, 100
3, 96576, Note_on_c, 1, 51, 90
3, 96608, Note_off_c, 1, 51, 100
3, 96624, Note_on_c, 1, 53, 90
3, 96656, Note_off_c, 1, 53, 100
3, 96672, Note_on_c, 1, 51, 90
3, 96704, Note_off_c, 1, 51, 100
3, 96720, Note_on_c, 1, 53, 90
3, 96752, Note_off_c, 1, 53, 100
3, 96768, Note_on_c, 1, 41, 60
3, 96896, Note_off_c, 1, 41, 100
3, 100608, Note_on_c, 1, 63, 90
3, 100608, Note_on_c, 1, 51, 90
3, 100864, Note_off_c, 1, 63, 100
3, 100864, Note_off_c, 1, 51, 100
3, 101376, Note_on_c, 1, 60, 90
3, 101408, Note_off_c, 1, 60, 100
3, 101424, Note_on_c, 1, 62, 90
3, 101456, Note_off_c, 1, 62, 100
3, 101472, Note_on_c, 1, 63, 90
3, 101504, Note_off_c, 1, 63, 100
3, 101520, Note_on_c, 1, 62, 90
3, 101552, Note_off_c, 1, 62, 100
3, 101568, Note_on_c, 1, 60, 90
3, 101600, Note_off_c, 1, 60, 100
3, 101616, Note_on_c, 1, 62, 90
3, 101648, Note_off_c, 1, 62, 100
3, 101664, Note_on_c, 1, 60, 90
3, 101696, Note_off_c, 1, 60, 100
3, 101712, Note_on_c, 1, 62, 90
3, 101744, Note_off_c, 1, 62, 100
3, 101760, Note_on_c, 1, 57, 90
3, 101792, Note_off_c, 1, 57, 100
3, 101808, Note_on_c, 1, 58, 90
3, 101840, Note_off_c, 1, 58, 100
3, 101856, Note_on_c, 1, 55, 90
3, 101888, Note_off_c, 1, 55, 100
3, 101904, Note_on_c, 1, 57, 90
3, 101936, Note_off_c, 1, 57, 100
3, 101952, Note_on_c, 1, 51, 90
3, 101984, Note_off_c, 1, 51, 100
3, 102000, Note_on_c, 1, 55, 90
3, 102032, Note_off_c, 1, 55, 100
3, 102048, Note_on_c, 1, 51, 90
3, 102080, Note_off_c, 1, 51, 100
3, 102096, Note_on_c, 1, 53, 90
3, 102128, Note_off_c, 1, 53, 100
3, 102144, Note_on_c, 1, 50, 90
3, 102144, Note_on_c, 1, 38, 90
3, 102400, Note_off_c, 1, 50, 100
3, 102400, Note_off_c, 1, 38, 100
3, 102912, Note_on_c, 1, 58, 90
3, 102944, Note_off_c, 1, 58, 100
3, 102960, Note_on_c, 1, 60, 90
3, 102992, Note_off_c, 1, 60, 100
3, 103008, Note_on_c, 1, 62, 90
3, 103040, Note_off_c, 1, 62, 100
3, 103056, Note_on_c, 1, 60, 90
3, 103088, Note_off_c, 1, 60, 100
3, 103104, Note_on_c, 1, 58, 90
3, 103136, Note_off_c, 1, 58, 100
3, 103152, Note_on_c, 1, 60, 90
3, 103184, Note_off_c, 1, 60, 100
3, 103200, Note_on_c, 1, 57, 90
3, 103232, Note_off_c, 1, 57, 100
3, 103248, Note_on_c, 1, 58, 90
3, 103280, Note_off_c, 1, 58, 100
3, 103296, Note_on_c, 1, 55, 90
3, 103328, Note_off_c, 1, 55, 100
3, 103344, Note_on_c, 1, 57, 90
3, 103376, Note_off_c, 1, 57, 100
3, 103392, Note_on_c, 1, 53, 90
3, 103424, Note_off_c, 1, 53, 100
3, 103440, Note_on_c, 1, 55, 90
3, 103472, Note_off_c, 1, 55, 100
3, 103488, Note_on_c, 1, 51, 90
3, 103520, Note_off_c, 1, 51, 100
3, 103536, Note_on_c, 1, 53, 90
3, 103568, Note_off_c, 1, 53, 100
3, 103584, Note_on_c, 1, 50, 90
3, 103616, Note_off_c, 1, 50, 100
3, 103632, Note_on_c, 1, 51, 90
3, 103664, Note_off_c, 1, 51, 100
3, 103680, Note_on_c, 1, 48, 90
3, 103680, Note_on_c, 1, 36, 90
3, 103936, Note_off_c, 1, 48, 100
3, 103936, Note_off_c, 1, 36, 100
3, 106944, Note_on_c, 1, 53, 90
3, 106944, Note_on_c, 1, 65, 90
3, 107072, Note_off_c, 1, 53, 100
3, 107072, Note_off_c, 1, 65, 100
3, 107136, Note_on_c, 1, 50, 90
3, 107136, Note_on_c, 1, 62, 90
3, 107264, Note_off_c, 1, 50, 100
3, 107264, Note_off_c, 1, 62, 100
3, 107328, Note_on_c, 1, 46, 90
3, 107328, Note_on_c, 1, 58, 90
3, 107456, Note_off_c, 1, 46, 100
3, 107456, Note_off_c, 1, 58, 100
3, 107520, Note_on_c, 1, 53, 49
3, 107552, Note_off_c, 1, 53, 100
3, 107568, Note_on_c, 1, 60, 49
3, 107600, Note_off_c, 1, 60, 100
3, 107616, Note_on_c, 1, 63, 49
3, 107648, Note_off_c, 1, 63, 100
3, 107664, Note_on_c, 1, 60, 49
3, 107696, Note_off_c, 1, 60, 100
3, 107712, Note_on_c, 1, 53, 49
3, 107744, Note_off_c, 1, 53, 100
3, 107760, Note_on_c, 1, 60, 49
3, 107792, Note_off_c, 1, 60, 100
3, 107808, Note_on_c, 1, 63, 49
3, 107840, Note_off_c, 1, 63, 100
3, 107856, Note_on_c, 1, 60, 49
3, 107888, Note_off_c, 1, 60, 100
3, 107904, Note_on_c, 1, 53, 49
3, 107936, Note_off_c, 1, 53, 100
3, 107952, Note_on_c, 1, 60, 49
3, 107984, Note_off_c, 1, 60, 100
3, 108000, Note_on_c, 1, 63, 49
3, 108032, Note_off_c, 1, 63, 100
3, 108048, Note_on_c, 1, 60, 49
3, 108080, Note_off_c, 1, 60, 100
3, 108096, Note_on_c, 1, 53, 49
3, 108128, Note_off_c, 1, 53, 100
3, 108144, Note_on_c, 1, 60, 49
3, 108176, Note_off_c, 1, 60, 100
3, 108192, Note_on_c, 1, 63, 49
3, 108224, Note_off_c, 1, 63, 100
3, 108240, Note_on_c, 1, 60, 49
3, 108272, Note_off_c, 1, 60, 100
3, 108288, Note_on_c, 1, 53, 49
3, 108320, Note_off_c, 1, 53, 100
3, 108336, Note_on_c, 1, 58, 49
3, 108368, Note_off_c, 1, 58, 100
3, 108384, Note_on_c, 1, 62, 49
3, 108416, Note_off_c, 1, 62, 100
3, 108432, Note_on_c, 1, 58, 49
3, 108464, Note_off_c, 1, 58, 100
3, 108480, Note_on_c, 1, 53, 49
3, 108512, Note_off_c, 1, 53, 100
3, 108528, Note_on_c, 1, 58, 49
3, 108560, Note_off_c, 1, 58, 100
3, 108576, Note_on_c, 1, 62, 49
3, 108608, Note_off_c, 1, 62, 100
3, 108624, Note_on_c, 1, 58, 49
3, 108656, Note_off_c, 1, 58, 100
3, 108672, Note_on_c, 1, 53, 49
3, 108704, Note_off_c, 1, 53, 100
3, 108720, Note_on_c, 1, 56, 49
3, 108752, Note_off_c, 1, 56, 100
3, 108768, Note_on_c, 1, 59, 49
3, 108800, Note_off_c, 1, 59, 100
3, 108816, Note_on_c, 1, 56, 49
3, 108848, Note_off_c, 1, 56, 100
3, 108864, Note_on_c, 1, 53, 49
3, 108896, Note_off_c, 1, 53, 100
3, 108912, Note_on_c, 1, 56, 49
3, 108944, Note_off_c, 1, 56, 100
3, 108960, Note_on_c, 1, 62, 49
3, 108992, Note_off_c, 1, 62, 100
3, 109008, Note_on_c, 1, 56, 49
3, 109040, Note_off_c, 1, 56, 100
3, 109056, Note_on_c, 1, 51, 49
3, 109088, Note_off_c, 1, 51, 100
3, 109104, Note_on_c, 1, 55, 49
3, 109136, Note_off_c, 1, 55, 100
3, 109152, Note_on_c, 1, 60, 49
3, 109184, Note_off_c, 1, 60, 100
3, 109200, Note_on_c, 1, 55, 49
3, 109232, Note_off_c, 1, 55, 100
3, 109248, Note_on_c, 1, 51, 49
3, 109280, Note_off_c, 1, 51, 100
3, 109296, Note_on_c, 1, 55, 49
3, 109328, Note_off_c, 1, 55, 100
3, 109344, Note_on_c, 1, 60, 49
3, 109376, Note_off_c, 1, 60, 100
3, 109392, Note_on_c, 1, 55, 49
3, 109424, Note_off_c, 1, 55, 100
3, 109440, Note_on_c, 1, 53, 49
3, 109472, Note_off_c, 1, 53, 100
3, 109488, Note_on_c, 1, 58, 49
3, 109520, Note_off_c, 1, 58, 100
3, 109536, Note_on_c, 1, 62, 49
3, 109568, Note_off_c, 1, 62, 100
3, 109584, Note_on_c, 1, 58, 49
3, 109616, Note_off_c, 1, 58, 100
3, 109632, Note_on_c, 1, 53, 49
3, 109664, Note_off_c, 1, 53, 100
3, 109680, Note_on_c, 1, 57, 49
3, 109712, Note_off_c, 1, 57, 100
3, 109728, Note_on_c, 1, 63, 49
3, 109760, Note_off_c, 1, 63, 100
3, 109776, Note_on_c, 1, 57, 49
3, 109808, Note_off_c, 1, 57, 100
3, 109824, Note_on_c, 1, 58, 49
3, 109824, Note_on_c, 1, 62, 49
3, 109952, Note_off_c, 1, 58, 100
3, 109952, Note_off_c, 1, 62, 100
3, 110304, Note_on_c, 1, 58, 49
3, 110304, Note_on_c, 1, 46, 49
3, 110368, Note_off_c, 1, 58, 100
3, 110368, Note_off_c, 1, 46, 100
3, 110400, Note_on_c, 1, 62, 49
3, 110400, Note_on_c, 1, 50, 49
3, 110464, Note_off_c, 1, 62, 100
3, 110464, Note_off_c, 1, 50, 100
3, 110496, Note_on_c, 1, 58, 49
3, 110496, Note_on_c, 1, 46, 49
3, 110560, Note_off_c, 1, 58, 100
3, 110560, Note_off_c, 1, 46, 100
3, 110592, Note_on_c, 1, 63, 49
3, 110592, Note_on_c, 1, 51, 49
3, 110720, Note_off_c, 1, 63, 100
3, 110720, Note_off_c, 1, 51, 100
3, 110784, Note_on_c, 1, 60, 49
3, 110912, Note_off_c, 1, 60, 100
3, 110976, Note_on_c, 1, 65, 49
3, 111104, Note_off_c, 1, 65, 100
3, 111168, Note_on_c, 1, 53, 49
3, 111296, Note_off_c, 1, 53, 100
3, 111360, Note_on_c, 1, 58, 49
3, 111360, Note_on_c, 1, 62, 49
3, 111488, Note_off_c, 1, 58, 100
3, 111488, Note_off_c, 1, 62, 100
3, 111744, Note_on_c, 1, 56, 49
3, 111744, Note_on_c, 1, 53, 49
3, 111840, Note_on_c, 1, 46, 49
3, 111840, Note_on_c, 1, 34, 49
3, 111904, Note_off_c, 1, 46, 100
3, 111904, Note_off_c, 1, 34, 100
3, 111936, Note_on_c, 1, 50, 49
3, 111936, Note_on_c, 1, 38, 49
3, 112000, Note_off_c, 1, 56, 100
3, 112000, Note_off_c, 1, 53, 100
3, 112000, Note_off_c, 1, 50, 100
3, 112000, Note_off_c, 1, 38, 100
3, 112032, Note_on_c, 1, 46, 49
3, 112032, Note_on_c, 1, 34, 49
3, 112096, Note_off_c, 1, 46, 100
3, 112096, Note_off_c, 1, 34, 100
3, 112128, Note_on_c, 1, 56, 49
3, 112128, Note_on_c, 1, 53, 49
3, 112128, Note_on_c, 1, 39, 49
3, 112192, Note_off_c, 1, 56, 100
3, 112192, Note_off_c, 1, 53, 100
3, 112224, Note_on_c, 1, 55, 49
3, 112224, Note_on_c, 1, 51, 49
3, 112256, Note_off_c, 1, 39, 100
3, 112288, Note_off_c, 1, 55, 100
3, 112288, Note_off_c, 1, 51, 100
3, 112320, Note_on_c, 1, 48, 49
3, 112448, Note_off_c, 1, 48, 100
3, 112512, Note_on_c, 1, 53, 49
3, 112640, Note_off_c, 1, 53, 100
3, 112704, Note_on_c, 1, 41, 49
3, 112832, Note_off_c, 1, 41, 100
3, 112896, Note_on_c, 1, 46, 51
3, 112928, Note_off_c, 1, 46, 100
3, 112944, Note_on_c, 1, 58, 52
3, 112976, Note_off_c, 1, 58, 100
3, 112992, Note_on_c, 1, 57, 54
3, 113024, Note_off_c, 1, 57, 100
3, 113040, Note_on_c, 1, 58, 55
3, 113072, Note_off_c, 1, 58, 100
3, 113088, Note_on_c, 1, 46, 57
3, 113120, Note_off_c, 1, 46, 100
3, 113136, Note_on_c, 1, 58, 58
3, 113168, Note_off_c, 1, 58, 100
3, 113184, Note_on_c, 1, 57, 60
3, 113216, Note_off_c, 1, 57, 100
3, 113232, Note_on_c, 1, 58, 60
3, 113264, Note_off_c, 1, 58, 100
3, 113280, Note_on_c, 1, 46, 61
3, 113312, Note_off_c, 1, 46, 100
3, 113328, Note_on_c, 1, 58, 61
3, 113360, Note_off_c, 1, 58, 100
3, 113376, Note_on_c, 1, 57, 63
3, 113408, Note_off_c, 1, 57, 100
3, 113424, Note_on_c, 1, 58, 64
3, 113456, Note_off_c, 1, 58, 100
3, 113472, Note_on_c, 1, 46, 66
3, 113504, Note_off_c, 1, 46, 100
3, 113520, Note_on_c, 1, 58, 67
3, 113552, Note_off_c, 1, 58, 100
3, 113568, Note_on_c, 1, 57, 69
3, 113600, Note_off_c, 1, 57, 100
3, 113616, Note_on_c, 1, 58, 70
3, 113648, Note_off_c, 1, 58, 100
3, 113664, Note_on_c, 1, 46, 72
3, 113696, Note_off_c, 1, 46, 100
3, 113712, Note_on_c, 1, 58, 73
3, 113744, Note_off_c, 1, 58, 100
3, 113760, Note_on_c, 1, 57, 75
3, 113792, Note_off_c, 1, 57, 100
3, 113808, Note_on_c, 1, 58, 76
3, 113840, Note_off_c, 1, 58, 100
3, 113856, Note_on_c, 1, 46, 78
3, 113888, Note_off_c, 1, 46, 100
3, 113904, Note_on_c, 1, 58, 79
3, 113936, Note_off_c, 1, 58, 100
3, 113952, Note_on_c, 1, 57, 81
3, 113984, Note_off_c, 1, 57, 100
3, 114000, Note_on_c, 1, 58, 82
3, 114032, Note_off_c, 1, 58, 100
3, 114048, Note_on_c, 1, 46, 84
3, 114080, Note_off_c, 1, 46, 100
3, 114096, Note_on_c, 1, 58, 85
3, 114128, Note_off_c, 1, 58, 100
3, 114144, Note_on_c, 1, 57, 87
3, 114176, Note_off_c, 1, 57, 100
3, 114192, Note_on_c, 1, 58, 87
3, 114224, Note_off_c, 1, 58, 100
3, 114240, Note_on_c, 1, 46, 88
3, 114272, Note_off_c, 1, 46, 100
3, 114288, Note_on_c, 1, 58, 88
3, 114320, Note_off_c, 1, 58, 100
3, 114336, Note_on_c, 1, 57, 90
3, 114368, Note_off_c, 1, 57, 100
3, 114384, Note_on_c, 1, 58, 90
3, 114416, Note_off_c, 1, 58, 100
3, 114432, Note_on_c, 1, 58, 90
3, 114432, Note_on_c, 1, 46, 90
3, 114688, Note_off_c, 1, 58, 100
3, 114688, Note_off_c, 1, 46, 100
3, 114816, Note_on_c, 1, 58, 90
3, 114816, Note_on_c, 1, 46, 90
3, 114944, Note_off_c, 1, 58, 100
3, 114944, Note_off_c, 1, 46, 100
3, 114944, End_track
4, 0, Start_track
4, 0, Title_t, "K281a- Allegro"
4, 0, Key_signature, -2, "major"
4, 0, End_track
5, 0, Start_track
5, 0, Title_t, "Midi by:"
5, 0, Key_signature, -2, "major"
5, 0, End_track
6, 0, Start_track
6, 0, Title_t, "B.Fisher"
6, 0, Key_signature, -2, "major"
6, 0, End_track
7, 0, Start_track
7, 0, Key_signature, -2, "major"
7, 0, End_track
8, 0, Start_track
8, 0, Key_signature, -2, "major"
8, 0, End_track
9, 0, Start_track
9, 0, Key_signature, -2, "major"
9, 0, End_track
10, 0, Start_track
10, 0, Key_signature, -2, "major"
10, 0, End_track
11, 0, Start_track
11, 0, Key_signature, -2, "major"
11, 0, End_track
12, 0, Start_track
12, 0, Key_signature, -2, "major"
12, 0, End_track
13, 0, Start_track
13, 0, Key_signature, -2, "major"
13, 0, End_track
14, 0, Start_track
14, 0, Key_signature, -2, "major"
14, 0, End_track
15, 0, Start_track
15, 0, Key_signature, -2, "major"
15, 0, End_track
16, 0, Start_track
16, 0, Key_signature, -2, "major"
16, 0, End_track
0, 0, End_of_file
