0, 0, Header, 1, 17, 120
1, 0, Start_track
1, 0, Title_t, "untitled"
1, 0, SMPTE_offset, 96, 0, 3, 0, 0
1, 0, Time_signature, 4, 2, 24, 8
1, 0, Key_signature, -1, "major"
1, 0, Tempo, 521739
1, 36000, Tempo, 521739
1, 36035, Tempo, 526316
1, 36065, Tempo, 530973
1, 36095, Tempo, 535714
1, 36130, Tempo, 540541
1, 36160, Tempo, 545455
1, 36190, Tempo, 550459
1, 36220, Tempo, 555556
1, 36255, Tempo, 560748
1, 36285, Tempo, 566038
1, 36315, Tempo, 571429
1, 36345, Tempo, 576923
1, 36380, Tempo, 582524
1, 36410, Tempo, 588235
1, 36440, Tempo, 594059
1, 36470, Tempo, 600000
1, 36505, Tempo, 606061
1, 36535, Tempo, 612245
1, 36565, Tempo, 618557
1, 36595, Tempo, 625000
1, 36630, Tempo, 631579
1, 36660, Tempo, 638298
1, 36690, Tempo, 645161
1, 36720, Tempo, 652174
1, 36755, Tempo, 659341
1, 36785, Tempo, 666667
1, 36815, Tempo, 674157
1, 36850, Tempo, 681818
1, 36880, Tempo, 689655
1, 36910, Tempo, 697674
1, 36940, Tempo, 705882
1, 36975, Tempo, 714286
1, 37005, Tempo, 722892
1, 37035, Tempo, 731707
1, 37065, Tempo, 740741
1, 37100, Tempo, 750000
1, 37130, Tempo, 759494
1, 37160, Tempo, 769231
1, 37200, Tempo, 1578947
1, 37200, End_track
2, 0, Start_track
2, 0, MIDI_port, 0
2, 0, Title_t, "String Quartet"
2, 0, Program_c, 0, 40
2, 0, Control_c, 0, 7, 100
2, 0, Control_c, 0, 10, 94
2, 1920, Note_on_c, 0, 69, 100
2, 2160, Note_on_c, 0, 69, 0
2, 2160, Note_on_c, 0, 74, 100
2, 2400, Note_on_c, 0, 74, 0
2, 2400, Note_on_c, 0, 72, 100
2, 2640, Note_on_c, 0, 72, 0
2, 2640, Note_on_c, 0, 69, 100
2, 2880, Note_on_c, 0, 69, 0
2, 2880, Note_on_c, 0, 68, 100
2, 3120, Note_on_c, 0, 68, 0
2, 3120, Note_on_c, 0, 69, 100
2, 3240, Note_on_c, 0, 69, 0
2, 3240, Note_on_c, 0, 71, 100
2, 3360, Note_on_c, 0, 71, 0
2, 3360, Note_on_c, 0, 72, 100
2, 3660, Note_on_c, 0, 72, 0
2, 3660, Note_on_c, 0, 74, 100
2, 3720, Note_on_c, 0, 74, 0
2, 3720, Note_on_c, 0, 72, 100
2, 3780, Note_on_c, 0, 72, 0
2, 3780, Note_on_c, 0, 70, 100
2, 3840, Note_on_c, 0, 70, 0
2, 3840, Note_on_c, 0, 69, 100
2, 3900, Note_on_c, 0, 69, 0
2, 3900, Note_on_c, 0, 62, 100
2, 3960, Note_on_c, 0, 62, 0
2, 3960, Note_on_c, 0, 74, 100
2, 4200, Note_on_c, 0, 74, 0
2, 4200, Note_on_c, 0, 73, 100
2, 4320, Note_on_c, 0, 73, 0
2, 4320, Note_on_c, 0, 74, 100
2, 4380, Note_on_c, 0, 74, 0
2, 4380, Note_on_c, 0, 69, 100
2, 4440, Note_on_c, 0, 69, 0
2, 4440, Note_on_c, 0, 72, 100
2, 4620, Note_on_c, 0, 72, 0
2, 4620, Note_on_c, 0, 69, 100
2, 4680, Note_on_c, 0, 69, 0
2, 4680, Note_on_c, 0, 70, 100
2, 4860, Note_on_c, 0, 70, 0
2, 4860, Note_on_c, 0, 64, 100
2, 4920, Note_on_c, 0, 64, 0
2, 4920, Note_on_c, 0, 69, 100
2, 5280, Note_on_c, 0, 69, 0
2, 5280, Note_on_c, 0, 69, 100
2, 5340, Note_on_c, 0, 69, 0
2, 5340, Note_on_c, 0, 72, 100
2, 5460, Note_on_c, 0, 72, 0
2, 5460, Note_on_c, 0, 71, 100
2, 5520, Note_on_c, 0, 71, 0
2, 5520, Note_on_c, 0, 72, 100
2, 5820, Note_on_c, 0, 72, 0
2, 5820, Note_on_c, 0, 62, 100
2, 5880, Note_on_c, 0, 62, 0
2, 5880, Note_on_c, 0, 72, 100
2, 6060, Note_on_c, 0, 72, 0
2, 6060, Note_on_c, 0, 69, 100
2, 6120, Note_on_c, 0, 69, 0
2, 6120, Note_on_c, 0, 71, 100
2, 6360, Note_on_c, 0, 71, 0
2, 6360, Note_on_c, 0, 69, 100
2, 6420, Note_on_c, 0, 69, 0
2, 6420, Note_on_c, 0, 68, 100
2, 6480, Note_on_c, 0, 68, 0
2, 6480, Note_on_c, 0, 69, 100
2, 6720, Note_on_c, 0, 69, 0
2, 6720, Note_on_c, 0, 71, 100
2, 6960, Note_on_c, 0, 71, 0
2, 6960, Note_on_c, 0, 72, 100
2, 7080, Note_on_c, 0, 72, 0
2, 7080, Note_on_c, 0, 74, 100
2, 7200, Note_on_c, 0, 74, 0
2, 7200, Note_on_c, 0, 67, 100
2, 7260, Note_on_c, 0, 67, 0
2, 7260, Note_on_c, 0, 70, 100
2, 7320, Note_on_c, 0, 70, 0
2, 7320, Note_on_c, 0, 69, 100
2, 7500, Note_on_c, 0, 69, 0
2, 7500, Note_on_c, 0, 70, 100
2, 7560, Note_on_c, 0, 70, 0
2, 7560, Note_on_c, 0, 69, 100
2, 7620, Note_on_c, 0, 69, 0
2, 7620, Note_on_c, 0, 67, 100
2, 7740, Note_on_c, 0, 67, 0
2, 7740, Note_on_c, 0, 64, 100
2, 7800, Note_on_c, 0, 64, 0
2, 7800, Note_on_c, 0, 65, 100
2, 7860, Note_on_c, 0, 65, 0
2, 7860, Note_on_c, 0, 62, 100
2, 7920, Note_on_c, 0, 62, 0
2, 7920, Note_on_c, 0, 70, 100
2, 8220, Note_on_c, 0, 70, 0
2, 8220, Note_on_c, 0, 67, 100
2, 8280, Note_on_c, 0, 67, 0
2, 8280, Note_on_c, 0, 69, 100
2, 8400, Note_on_c, 0, 69, 0
2, 8400, Note_on_c, 0, 74, 100
2, 8700, Note_on_c, 0, 74, 0
2, 8700, Note_on_c, 0, 71, 100
2, 8760, Note_on_c, 0, 71, 0
2, 8760, Note_on_c, 0, 72, 100
2, 8880, Note_on_c, 0, 72, 0
2, 8880, Note_on_c, 0, 77, 100
2, 9180, Note_on_c, 0, 77, 0
2, 9180, Note_on_c, 0, 74, 100
2, 9240, Note_on_c, 0, 74, 0
2, 9240, Note_on_c, 0, 76, 100
2, 9360, Note_on_c, 0, 76, 0
2, 9360, Note_on_c, 0, 69, 100
2, 9480, Note_on_c, 0, 69, 0
2, 9480, Note_on_c, 0, 74, 100
2, 9660, Note_on_c, 0, 74, 0
2, 9660, Note_on_c, 0, 71, 100
2, 9720, Note_on_c, 0, 71, 0
2, 9720, Note_on_c, 0, 72, 100
2, 9840, Note_on_c, 0, 72, 0
2, 9840, Note_on_c, 0, 65, 100
2, 9960, Note_on_c, 0, 65, 0
2, 9960, Note_on_c, 0, 70, 100
2, 10080, Note_on_c, 0, 70, 0
2, 10080, Note_on_c, 0, 69, 100
2, 10320, Note_on_c, 0, 69, 0
2, 10320, Note_on_c, 0, 62, 100
2, 10440, Note_on_c, 0, 62, 0
2, 10440, Note_on_c, 0, 67, 100
2, 10620, Note_on_c, 0, 67, 0
2, 10620, Note_on_c, 0, 64, 100
2, 10680, Note_on_c, 0, 64, 0
2, 10680, Note_on_c, 0, 65, 100
2, 10740, Note_on_c, 0, 65, 0
2, 10740, Note_on_c, 0, 74, 100
2, 10800, Note_on_c, 0, 74, 0
2, 10800, Note_on_c, 0, 64, 100
2, 11100, Note_on_c, 0, 64, 0
2, 11100, Note_on_c, 0, 62, 100
2, 11160, Note_on_c, 0, 62, 0
2, 11160, Note_on_c, 0, 69, 100
2, 11400, Note_on_c, 0, 69, 0
2, 11400, Note_on_c, 0, 67, 100
2, 11520, Note_on_c, 0, 67, 0
2, 11520, Note_on_c, 0, 69, 100
2, 11760, Note_on_c, 0, 69, 0
2, 13440, Note_on_c, 0, 69, 100
2, 13680, Note_on_c, 0, 69, 0
2, 13680, Note_on_c, 0, 76, 100
2, 13920, Note_on_c, 0, 76, 0
2, 13920, Note_on_c, 0, 72, 100
2, 14160, Note_on_c, 0, 72, 0
2, 14160, Note_on_c, 0, 69, 100
2, 14400, Note_on_c, 0, 69, 0
2, 14400, Note_on_c, 0, 68, 100
2, 14640, Note_on_c, 0, 68, 0
2, 14640, Note_on_c, 0, 69, 100
2, 14760, Note_on_c, 0, 69, 0
2, 14760, Note_on_c, 0, 71, 100
2, 14880, Note_on_c, 0, 71, 0
2, 14880, Note_on_c, 0, 72, 100
2, 15180, Note_on_c, 0, 72, 0
2, 15180, Note_on_c, 0, 74, 100
2, 15240, Note_on_c, 0, 74, 0
2, 15240, Note_on_c, 0, 72, 100
2, 15300, Note_on_c, 0, 72, 0
2, 15300, Note_on_c, 0, 70, 100
2, 15360, Note_on_c, 0, 70, 0
2, 15360, Note_on_c, 0, 69, 100
2, 15480, Note_on_c, 0, 69, 0
2, 15720, Note_on_c, 0, 69, 100
2, 15900, Note_on_c, 0, 69, 0
2, 15900, Note_on_c, 0, 72, 100
2, 15960, Note_on_c, 0, 72, 0
2, 15960, Note_on_c, 0, 70, 100
2, 16020, Note_on_c, 0, 70, 0
2, 16020, Note_on_c, 0, 69, 100
2, 16080, Note_on_c, 0, 69, 0
2, 16080, Note_on_c, 0, 70, 100
2, 16140, Note_on_c, 0, 70, 0
2, 16140, Note_on_c, 0, 69, 100
2, 16200, Note_on_c, 0, 69, 0
2, 16200, Note_on_c, 0, 67, 100
2, 16260, Note_on_c, 0, 67, 0
2, 16260, Note_on_c, 0, 66, 100
2, 16320, Note_on_c, 0, 66, 0
2, 16320, Note_on_c, 0, 67, 100
2, 16500, Note_on_c, 0, 67, 0
2, 16500, Note_on_c, 0, 70, 100
2, 16560, Note_on_c, 0, 70, 0
2, 16560, Note_on_c, 0, 64, 100
2, 16740, Note_on_c, 0, 64, 0
2, 16740, Note_on_c, 0, 66, 100
2, 16800, Note_on_c, 0, 66, 0
2, 16800, Note_on_c, 0, 67, 100
2, 16980, Note_on_c, 0, 67, 0
2, 16980, Note_on_c, 0, 64, 100
2, 17040, Note_on_c, 0, 64, 0
2, 17040, Note_on_c, 0, 61, 100
2, 17220, Note_on_c, 0, 61, 0
2, 17220, Note_on_c, 0, 69, 100
2, 17280, Note_on_c, 0, 69, 0
2, 17280, Note_on_c, 0, 62, 100
2, 17460, Note_on_c, 0, 62, 0
2, 17460, Note_on_c, 0, 65, 100
2, 17520, Note_on_c, 0, 65, 0
2, 17520, Note_on_c, 0, 64, 100
2, 17700, Note_on_c, 0, 64, 0
2, 17700, Note_on_c, 0, 72, 100
2, 17760, Note_on_c, 0, 72, 0
2, 17760, Note_on_c, 0, 65, 100
2, 17940, Note_on_c, 0, 65, 0
2, 17940, Note_on_c, 0, 69, 100
2, 18000, Note_on_c, 0, 69, 0
2, 18000, Note_on_c, 0, 67, 100
2, 18180, Note_on_c, 0, 67, 0
2, 18180, Note_on_c, 0, 76, 100
2, 18240, Note_on_c, 0, 76, 0
2, 18240, Note_on_c, 0, 69, 100
2, 18420, Note_on_c, 0, 69, 0
2, 18420, Note_on_c, 0, 72, 100
2, 18480, Note_on_c, 0, 72, 0
2, 18480, Note_on_c, 0, 71, 100
2, 18660, Note_on_c, 0, 71, 0
2, 18660, Note_on_c, 0, 79, 100
2, 18720, Note_on_c, 0, 79, 0
2, 18720, Note_on_c, 0, 73, 100
2, 18960, Note_on_c, 0, 73, 0
2, 18960, Note_on_c, 0, 74, 100
2, 19080, Note_on_c, 0, 74, 0
2, 19080, Note_on_c, 0, 76, 100
2, 19260, Note_on_c, 0, 76, 0
2, 19260, Note_on_c, 0, 73, 100
2, 19320, Note_on_c, 0, 73, 0
2, 19320, Note_on_c, 0, 74, 100
2, 19620, Note_on_c, 0, 74, 0
2, 19620, Note_on_c, 0, 76, 100
2, 19680, Note_on_c, 0, 76, 0
2, 19680, Note_on_c, 0, 77, 100
2, 19740, Note_on_c, 0, 77, 0
2, 19740, Note_on_c, 0, 76, 100
2, 19800, Note_on_c, 0, 76, 0
2, 19800, Note_on_c, 0, 79, 100
2, 19980, Note_on_c, 0, 79, 0
2, 19980, Note_on_c, 0, 77, 100
2, 20040, Note_on_c, 0, 77, 0
2, 20040, Note_on_c, 0, 76, 100
2, 20100, Note_on_c, 0, 76, 0
2, 20100, Note_on_c, 0, 74, 100
2, 20160, Note_on_c, 0, 74, 0
2, 20160, Note_on_c, 0, 73, 100
2, 20220, Note_on_c, 0, 73, 0
2, 20220, Note_on_c, 0, 69, 100
2, 20280, Note_on_c, 0, 69, 0
2, 20280, Note_on_c, 0, 74, 100
2, 20460, Note_on_c, 0, 74, 0
2, 20460, Note_on_c, 0, 71, 100
2, 20520, Note_on_c, 0, 71, 0
2, 20520, Note_on_c, 0, 72, 100
2, 20640, Note_on_c, 0, 72, 0
2, 20640, Note_on_c, 0, 72, 100
2, 20760, Note_on_c, 0, 72, 0
2, 20760, Note_on_c, 0, 70, 100
2, 20880, Note_on_c, 0, 70, 0
2, 20880, Note_on_c, 0, 69, 100
2, 21000, Note_on_c, 0, 69, 0
2, 23040, Note_on_c, 0, 76, 100
2, 23280, Note_on_c, 0, 76, 0
2, 23280, Note_on_c, 0, 81, 100
2, 23520, Note_on_c, 0, 81, 0
2, 23520, Note_on_c, 0, 77, 100
2, 23760, Note_on_c, 0, 77, 0
2, 23760, Note_on_c, 0, 74, 100
2, 24000, Note_on_c, 0, 74, 0
2, 24000, Note_on_c, 0, 73, 100
2, 24240, Note_on_c, 0, 73, 0
2, 24240, Note_on_c, 0, 74, 100
2, 24360, Note_on_c, 0, 74, 0
2, 24360, Note_on_c, 0, 76, 100
2, 24480, Note_on_c, 0, 76, 0
2, 24480, Note_on_c, 0, 77, 100
2, 24780, Note_on_c, 0, 77, 0
2, 24780, Note_on_c, 0, 79, 100
2, 24840, Note_on_c, 0, 79, 0
2, 24840, Note_on_c, 0, 77, 100
2, 24900, Note_on_c, 0, 77, 0
2, 24900, Note_on_c, 0, 76, 100
2, 24960, Note_on_c, 0, 76, 0
2, 24960, Note_on_c, 0, 74, 100
2, 25140, Note_on_c, 0, 74, 0
2, 25140, Note_on_c, 0, 76, 100
2, 25200, Note_on_c, 0, 76, 0
2, 25200, Note_on_c, 0, 73, 100
2, 25320, Note_on_c, 0, 73, 0
2, 25320, Note_on_c, 0, 74, 100
2, 25380, Note_on_c, 0, 74, 0
2, 25380, Note_on_c, 0, 77, 100
2, 25440, Note_on_c, 0, 77, 0
2, 25440, Note_on_c, 0, 70, 100
2, 25740, Note_on_c, 0, 70, 0
2, 25740, Note_on_c, 0, 70, 100
2, 25800, Note_on_c, 0, 70, 0
2, 25800, Note_on_c, 0, 69, 100
2, 25860, Note_on_c, 0, 69, 0
2, 25860, Note_on_c, 0, 67, 100
2, 25920, Note_on_c, 0, 67, 0
2, 25920, Note_on_c, 0, 65, 100
2, 26160, Note_on_c, 0, 65, 0
2, 26160, Note_on_c, 0, 70, 100
2, 26400, Note_on_c, 0, 70, 0
2, 26400, Note_on_c, 0, 69, 100
2, 26760, Note_on_c, 0, 69, 0
2, 26760, Note_on_c, 0, 76, 100
2, 26940, Note_on_c, 0, 76, 0
2, 26940, Note_on_c, 0, 73, 100
2, 27000, Note_on_c, 0, 73, 0
2, 27000, Note_on_c, 0, 74, 100
2, 27060, Note_on_c, 0, 74, 0
2, 27060, Note_on_c, 0, 76, 100
2, 27120, Note_on_c, 0, 76, 0
2, 27120, Note_on_c, 0, 77, 100
2, 27180, Note_on_c, 0, 77, 0
2, 27180, Note_on_c, 0, 74, 100
2, 27240, Note_on_c, 0, 74, 0
2, 27240, Note_on_c, 0, 79, 100
2, 27420, Note_on_c, 0, 79, 0
2, 27420, Note_on_c, 0, 76, 100
2, 27480, Note_on_c, 0, 76, 0
2, 27480, Note_on_c, 0, 81, 100
2, 27540, Note_on_c, 0, 81, 0
2, 27540, Note_on_c, 0, 79, 100
2, 27600, Note_on_c, 0, 79, 0
2, 27600, Note_on_c, 0, 77, 100
2, 27660, Note_on_c, 0, 77, 0
2, 27660, Note_on_c, 0, 76, 100
2, 27720, Note_on_c, 0, 76, 0
2, 27720, Note_on_c, 0, 74, 100
2, 27780, Note_on_c, 0, 74, 0
2, 27780, Note_on_c, 0, 73, 100
2, 27840, Note_on_c, 0, 73, 0
2, 27840, Note_on_c, 0, 74, 100
2, 27900, Note_on_c, 0, 74, 0
2, 27900, Note_on_c, 0, 72, 100
2, 27960, Note_on_c, 0, 72, 0
2, 27960, Note_on_c, 0, 70, 100
2, 28020, Note_on_c, 0, 70, 0
2, 28020, Note_on_c, 0, 69, 100
2, 28080, Note_on_c, 0, 69, 0
2, 28080, Note_on_c, 0, 67, 100
2, 28380, Note_on_c, 0, 67, 0
2, 28380, Note_on_c, 0, 64, 100
2, 28440, Note_on_c, 0, 64, 0
2, 28440, Note_on_c, 0, 65, 100
2, 28500, Note_on_c, 0, 65, 0
2, 28500, Note_on_c, 0, 62, 100
2, 28560, Note_on_c, 0, 62, 0
2, 28560, Note_on_c, 0, 69, 100
2, 28860, Note_on_c, 0, 69, 0
2, 28860, Note_on_c, 0, 66, 100
2, 28920, Note_on_c, 0, 66, 0
2, 28920, Note_on_c, 0, 67, 100
2, 28980, Note_on_c, 0, 67, 0
2, 28980, Note_on_c, 0, 70, 100
2, 29040, Note_on_c, 0, 70, 0
2, 29040, Note_on_c, 0, 72, 100
2, 29340, Note_on_c, 0, 72, 0
2, 29340, Note_on_c, 0, 69, 100
2, 29400, Note_on_c, 0, 69, 0
2, 29400, Note_on_c, 0, 70, 100
2, 29460, Note_on_c, 0, 70, 0
2, 29460, Note_on_c, 0, 74, 100
2, 29520, Note_on_c, 0, 74, 0
2, 29520, Note_on_c, 0, 75, 100
2, 29640, Note_on_c, 0, 75, 0
2, 29640, Note_on_c, 0, 74, 100
2, 29760, Note_on_c, 0, 74, 0
2, 29760, Note_on_c, 0, 73, 100
2, 29880, Note_on_c, 0, 73, 0
2, 29880, Note_on_c, 0, 81, 100
2, 30060, Note_on_c, 0, 81, 0
2, 30060, Note_on_c, 0, 74, 100
2, 30120, Note_on_c, 0, 74, 0
2, 30120, Note_on_c, 0, 79, 100
2, 30300, Note_on_c, 0, 79, 0
2, 30300, Note_on_c, 0, 73, 100
2, 30360, Note_on_c, 0, 73, 0
2, 30360, Note_on_c, 0, 77, 100
2, 30540, Note_on_c, 0, 77, 0
2, 30540, Note_on_c, 0, 74, 100
2, 30600, Note_on_c, 0, 74, 0
2, 30600, Note_on_c, 0, 76, 100
2, 30780, Note_on_c, 0, 76, 0
2, 30780, Note_on_c, 0, 73, 100
2, 30840, Note_on_c, 0, 73, 0
2, 30840, Note_on_c, 0, 74, 100
2, 31020, Note_on_c, 0, 74, 0
2, 31020, Note_on_c, 0, 71, 100
2, 31080, Note_on_c, 0, 71, 0
2, 31080, Note_on_c, 0, 72, 100
2, 31320, Note_on_c, 0, 72, 0
2, 31320, Note_on_c, 0, 70, 100
2, 31440, Note_on_c, 0, 70, 0
2, 31440, Note_on_c, 0, 69, 100
2, 31620, Note_on_c, 0, 69, 0
2, 31620, Note_on_c, 0, 69, 100
2, 31680, Note_on_c, 0, 69, 0
2, 31680, Note_on_c, 0, 74, 100
2, 31740, Note_on_c, 0, 74, 0
2, 31740, Note_on_c, 0, 77, 100
2, 31800, Note_on_c, 0, 77, 0
2, 31800, Note_on_c, 0, 76, 100
2, 31860, Note_on_c, 0, 76, 0
2, 31860, Note_on_c, 0, 79, 100
2, 31920, Note_on_c, 0, 79, 0
2, 31920, Note_on_c, 0, 77, 100
2, 31980, Note_on_c, 0, 77, 0
2, 31980, Note_on_c, 0, 76, 100
2, 32040, Note_on_c, 0, 76, 0
2, 32040, Note_on_c, 0, 74, 100
2, 32220, Note_on_c, 0, 74, 0
2, 32220, Note_on_c, 0, 77, 100
2, 32340, Note_on_c, 0, 77, 0
2, 32340, Note_on_c, 0, 76, 100
2, 32400, Note_on_c, 0, 76, 0
2, 32400, Note_on_c, 0, 77, 100
2, 32460, Note_on_c, 0, 77, 0
2, 32460, Note_on_c, 0, 74, 100
2, 32520, Note_on_c, 0, 74, 0
2, 32520, Note_on_c, 0, 76, 100
2, 32700, Note_on_c, 0, 76, 0
2, 32700, Note_on_c, 0, 74, 100
2, 32760, Note_on_c, 0, 74, 0
2, 32760, Note_on_c, 0, 72, 100
2, 32820, Note_on_c, 0, 72, 0
2, 32820, Note_on_c, 0, 71, 100
2, 32880, Note_on_c, 0, 71, 0
2, 32880, Note_on_c, 0, 72, 100
2, 33060, Note_on_c, 0, 72, 0
2, 33060, Note_on_c, 0, 81, 100
2, 33120, Note_on_c, 0, 81, 0
2, 33120, Note_on_c, 0, 79, 100
2, 33180, Note_on_c, 0, 79, 0
2, 33180, Note_on_c, 0, 78, 100
2, 33240, Note_on_c, 0, 78, 0
2, 33240, Note_on_c, 0, 79, 100
2, 33300, Note_on_c, 0, 79, 0
2, 33300, Note_on_c, 0, 82, 100
2, 33360, Note_on_c, 0, 82, 0
2, 33360, Note_on_c, 0, 73, 100
2, 33480, Note_on_c, 0, 73, 0
2, 33840, Note_on_c, 0, 74, 100
2, 33960, Note_on_c, 0, 74, 0
2, 34320, Note_on_c, 0, 74, 100
2, 34860, Note_on_c, 0, 74, 0
2, 34860, Note_on_c, 0, 71, 100
2, 34920, Note_on_c, 0, 71, 0
2, 34920, Note_on_c, 0, 73, 100
2, 35040, Note_on_c, 0, 73, 0
2, 35040, Note_on_c, 0, 74, 100
2, 35220, Note_on_c, 0, 74, 0
2, 35220, Note_on_c, 0, 72, 100
2, 35280, Note_on_c, 0, 72, 0
2, 35280, Note_on_c, 0, 70, 100
2, 35460, Note_on_c, 0, 70, 0
2, 35460, Note_on_c, 0, 69, 100
2, 35520, Note_on_c, 0, 69, 0
2, 35520, Note_on_c, 0, 62, 100
2, 35760, Note_on_c, 0, 62, 0
2, 35820, Note_on_c, 0, 67, 100
2, 35880, Note_on_c, 0, 67, 0
2, 35880, Note_on_c, 0, 69, 100
2, 35940, Note_on_c, 0, 69, 0
2, 35940, Note_on_c, 0, 72, 100
2, 36060, Note_on_c, 0, 72, 0
2, 36060, Note_on_c, 0, 70, 100
2, 36120, Note_on_c, 0, 70, 0
2, 36120, Note_on_c, 0, 72, 100
2, 36180, Note_on_c, 0, 72, 0
2, 36180, Note_on_c, 0, 75, 100
2, 36300, Note_on_c, 0, 75, 0
2, 36300, Note_on_c, 0, 74, 100
2, 36360, Note_on_c, 0, 74, 0
2, 36360, Note_on_c, 0, 78, 100
2, 36420, Note_on_c, 0, 78, 0
2, 36420, Note_on_c, 0, 81, 100
2, 36540, Note_on_c, 0, 81, 0
2, 36540, Note_on_c, 0, 79, 100
2, 36570, Note_on_c, 0, 79, 0
2, 36570, Note_on_c, 0, 81, 100
2, 36600, Note_on_c, 0, 81, 0
2, 36600, Note_on_c, 0, 82, 100
2, 36660, Note_on_c, 0, 82, 0
2, 36660, Note_on_c, 0, 73, 100
2, 36720, Note_on_c, 0, 73, 0
2, 36720, Note_on_c, 0, 74, 100
2, 37440, Note_on_c, 0, 74, 0
2, 37440, End_track
3, 0, Start_track
3, 0, MIDI_port, 0
3, 0, Title_t, "--------------------------------------"
3, 0, Program_c, 1, 40
3, 0, Control_c, 1, 7, 100
3, 0, Control_c, 1, 10, 74
3, 0, Note_on_c, 1, 62, 100
3, 240, Note_on_c, 1, 62, 0
3, 240, Note_on_c, 1, 69, 100
3, 480, Note_on_c, 1, 69, 0
3, 480, Note_on_c, 1, 65, 100
3, 720, Note_on_c, 1, 65, 0
3, 720, Note_on_c, 1, 62, 100
3, 960, Note_on_c, 1, 62, 0
3, 960, Note_on_c, 1, 61, 100
3, 1200, Note_on_c, 1, 61, 0
3, 1200, Note_on_c, 1, 62, 100
3, 1320, Note_on_c, 1, 62, 0
3, 1320, Note_on_c, 1, 64, 100
3, 1440, Note_on_c, 1, 64, 0
3, 1440, Note_on_c, 1, 65, 100
3, 1740, Note_on_c, 1, 65, 0
3, 1740, Note_on_c, 1, 67, 100
3, 1800, Note_on_c, 1, 67, 0
3, 1800, Note_on_c, 1, 65, 100
3, 1860, Note_on_c, 1, 65, 0
3, 1860, Note_on_c, 1, 64, 100
3, 1920, Note_on_c, 1, 64, 0
3, 1920, Note_on_c, 1, 62, 100
3, 2040, Note_on_c, 1, 62, 0
3, 2040, Note_on_c, 1, 64, 100
3, 2160, Note_on_c, 1, 64, 0
3, 2160, Note_on_c, 1, 65, 100
3, 2280, Note_on_c, 1, 65, 0
3, 2280, Note_on_c, 1, 67, 100
3, 2400, Note_on_c, 1, 67, 0
3, 2400, Note_on_c, 1, 69, 100
3, 2520, Note_on_c, 1, 69, 0
3, 2520, Note_on_c, 1, 57, 100
3, 2580, Note_on_c, 1, 57, 0
3, 2580, Note_on_c, 1, 59, 100
3, 2640, Note_on_c, 1, 59, 0
3, 2640, Note_on_c, 1, 60, 100
3, 2700, Note_on_c, 1, 60, 0
3, 2700, Note_on_c, 1, 57, 100
3, 2760, Note_on_c, 1, 57, 0
3, 2760, Note_on_c, 1, 65, 100
3, 2940, Note_on_c, 1, 65, 0
3, 2940, Note_on_c, 1, 59, 100
3, 3000, Note_on_c, 1, 59, 0
3, 3000, Note_on_c, 1, 64, 100
3, 3180, Note_on_c, 1, 64, 0
3, 3180, Note_on_c, 1, 65, 100
3, 3240, Note_on_c, 1, 65, 0
3, 3240, Note_on_c, 1, 64, 100
3, 3300, Note_on_c, 1, 64, 0
3, 3300, Note_on_c, 1, 62, 100
3, 3360, Note_on_c, 1, 62, 0
3, 3360, Note_on_c, 1, 64, 100
3, 3480, Note_on_c, 1, 64, 0
3, 3480, Note_on_c, 1, 66, 100
3, 3600, Note_on_c, 1, 66, 0
3, 3600, Note_on_c, 1, 67, 100
3, 3960, Note_on_c, 1, 67, 0
3, 3960, Note_on_c, 1, 65, 100
3, 4080, Note_on_c, 1, 65, 0
3, 4080, Note_on_c, 1, 64, 100
3, 4320, Note_on_c, 1, 64, 0
3, 4320, Note_on_c, 1, 62, 100
3, 4500, Note_on_c, 1, 62, 0
3, 4500, Note_on_c, 1, 64, 100
3, 4560, Note_on_c, 1, 64, 0
3, 4560, Note_on_c, 1, 65, 100
3, 4740, Note_on_c, 1, 65, 0
3, 4740, Note_on_c, 1, 62, 100
3, 4800, Note_on_c, 1, 62, 0
3, 4800, Note_on_c, 1, 67, 100
3, 4980, Note_on_c, 1, 67, 0
3, 4980, Note_on_c, 1, 67, 100
3, 5040, Note_on_c, 1, 67, 0
3, 5040, Note_on_c, 1, 65, 100
3, 5100, Note_on_c, 1, 65, 0
3, 5100, Note_on_c, 1, 64, 100
3, 5160, Note_on_c, 1, 64, 0
3, 5160, Note_on_c, 1, 62, 100
3, 5220, Note_on_c, 1, 62, 0
3, 5220, Note_on_c, 1, 61, 100
3, 5280, Note_on_c, 1, 61, 0
3, 5280, Note_on_c, 1, 62, 100
3, 5400, Note_on_c, 1, 62, 0
3, 5400, Note_on_c, 1, 67, 100
3, 5640, Note_on_c, 1, 67, 0
3, 5640, Note_on_c, 1, 60, 100
3, 5760, Note_on_c, 1, 60, 0
3, 5760, Note_on_c, 1, 65, 100
3, 5940, Note_on_c, 1, 65, 0
3, 5940, Note_on_c, 1, 64, 100
3, 6000, Note_on_c, 1, 64, 0
3, 6000, Note_on_c, 1, 65, 100
3, 6180, Note_on_c, 1, 65, 0
3, 6180, Note_on_c, 1, 56, 100
3, 6240, Note_on_c, 1, 56, 0
3, 6240, Note_on_c, 1, 64, 100
3, 6600, Note_on_c, 1, 64, 0
3, 6600, Note_on_c, 1, 62, 100
3, 6660, Note_on_c, 1, 62, 0
3, 6660, Note_on_c, 1, 60, 100
3, 6720, Note_on_c, 1, 60, 0
3, 6720, Note_on_c, 1, 62, 100
3, 6780, Note_on_c, 1, 62, 0
3, 6780, Note_on_c, 1, 65, 100
3, 6840, Note_on_c, 1, 65, 0
3, 6840, Note_on_c, 1, 64, 100
3, 6900, Note_on_c, 1, 64, 0
3, 6900, Note_on_c, 1, 62, 100
3, 6960, Note_on_c, 1, 62, 0
3, 6960, Note_on_c, 1, 60, 100
3, 7080, Note_on_c, 1, 60, 0
3, 10560, Note_on_c, 1, 62, 100
3, 10800, Note_on_c, 1, 62, 0
3, 10800, Note_on_c, 1, 69, 100
3, 11040, Note_on_c, 1, 69, 0
3, 11040, Note_on_c, 1, 65, 100
3, 11280, Note_on_c, 1, 65, 0
3, 11280, Note_on_c, 1, 62, 100
3, 11520, Note_on_c, 1, 62, 0
3, 11520, Note_on_c, 1, 61, 100
3, 11760, Note_on_c, 1, 61, 0
3, 11760, Note_on_c, 1, 62, 100
3, 11880, Note_on_c, 1, 62, 0
3, 11880, Note_on_c, 1, 64, 100
3, 12000, Note_on_c, 1, 64, 0
3, 12000, Note_on_c, 1, 65, 100
3, 12300, Note_on_c, 1, 65, 0
3, 12300, Note_on_c, 1, 67, 100
3, 12360, Note_on_c, 1, 67, 0
3, 12360, Note_on_c, 1, 65, 100
3, 12420, Note_on_c, 1, 65, 0
3, 12420, Note_on_c, 1, 64, 100
3, 12480, Note_on_c, 1, 64, 0
3, 12480, Note_on_c, 1, 62, 100
3, 12600, Note_on_c, 1, 62, 0
3, 12600, Note_on_c, 1, 67, 100
3, 12780, Note_on_c, 1, 67, 0
3, 12780, Note_on_c, 1, 64, 100
3, 12840, Note_on_c, 1, 64, 0
3, 12840, Note_on_c, 1, 65, 100
3, 12960, Note_on_c, 1, 65, 0
3, 12960, Note_on_c, 1, 64, 100
3, 13080, Note_on_c, 1, 64, 0
3, 13080, Note_on_c, 1, 69, 100
3, 13260, Note_on_c, 1, 69, 0
3, 13260, Note_on_c, 1, 66, 100
3, 13320, Note_on_c, 1, 66, 0
3, 13320, Note_on_c, 1, 67, 100
3, 13440, Note_on_c, 1, 67, 0
3, 13440, Note_on_c, 1, 66, 100
3, 13620, Note_on_c, 1, 66, 0
3, 13620, Note_on_c, 1, 74, 100
3, 13680, Note_on_c, 1, 74, 0
3, 13680, Note_on_c, 1, 68, 100
3, 13920, Note_on_c, 1, 68, 0
3, 13920, Note_on_c, 1, 69, 100
3, 14040, Note_on_c, 1, 69, 0
3, 14100, Note_on_c, 1, 57, 100
3, 14160, Note_on_c, 1, 57, 0
3, 14160, Note_on_c, 1, 60, 100
3, 14280, Note_on_c, 1, 60, 0
3, 14280, Note_on_c, 1, 57, 100
3, 14400, Note_on_c, 1, 57, 0
3, 14400, Note_on_c, 1, 62, 100
3, 14520, Note_on_c, 1, 62, 0
3, 14520, Note_on_c, 1, 65, 100
3, 14640, Note_on_c, 1, 65, 0
3, 14640, Note_on_c, 1, 64, 100
3, 14760, Note_on_c, 1, 64, 0
3, 14760, Note_on_c, 1, 62, 100
3, 14880, Note_on_c, 1, 62, 0
3, 14880, Note_on_c, 1, 60, 100
3, 15000, Note_on_c, 1, 60, 0
3, 15000, Note_on_c, 1, 69, 100
3, 15240, Note_on_c, 1, 69, 0
3, 15240, Note_on_c, 1, 62, 100
3, 15360, Note_on_c, 1, 62, 0
3, 15360, Note_on_c, 1, 64, 100
3, 15480, Note_on_c, 1, 64, 0
3, 15480, Note_on_c, 1, 69, 100
3, 15660, Note_on_c, 1, 69, 0
3, 15660, Note_on_c, 1, 67, 100
3, 15720, Note_on_c, 1, 67, 0
3, 15720, Note_on_c, 1, 65, 100
3, 15780, Note_on_c, 1, 65, 0
3, 15780, Note_on_c, 1, 64, 100
3, 15840, Note_on_c, 1, 64, 0
3, 15840, Note_on_c, 1, 62, 100
3, 16380, Note_on_c, 1, 62, 0
3, 16380, Note_on_c, 1, 62, 100
3, 16440, Note_on_c, 1, 62, 0
3, 16440, Note_on_c, 1, 67, 100
3, 16620, Note_on_c, 1, 67, 0
3, 16620, Note_on_c, 1, 67, 100
3, 16680, Note_on_c, 1, 67, 0
3, 16680, Note_on_c, 1, 60, 100
3, 16860, Note_on_c, 1, 60, 0
3, 16860, Note_on_c, 1, 57, 100
3, 16920, Note_on_c, 1, 57, 0
3, 16920, Note_on_c, 1, 58, 100
3, 17040, Note_on_c, 1, 58, 0
3, 17040, Note_on_c, 1, 57, 100
3, 17340, Note_on_c, 1, 57, 0
3, 17340, Note_on_c, 1, 53, 100
3, 17400, Note_on_c, 1, 53, 0
3, 17400, Note_on_c, 1, 55, 100
3, 17520, Note_on_c, 1, 55, 0
3, 17520, Note_on_c, 1, 60, 100
3, 17820, Note_on_c, 1, 60, 0
3, 17820, Note_on_c, 1, 57, 100
3, 17880, Note_on_c, 1, 57, 0
3, 17880, Note_on_c, 1, 59, 100
3, 18000, Note_on_c, 1, 59, 0
3, 18000, Note_on_c, 1, 64, 100
3, 18300, Note_on_c, 1, 64, 0
3, 18300, Note_on_c, 1, 61, 100
3, 18360, Note_on_c, 1, 61, 0
3, 18360, Note_on_c, 1, 62, 100
3, 18480, Note_on_c, 1, 62, 0
3, 18480, Note_on_c, 1, 67, 100
3, 18780, Note_on_c, 1, 67, 0
3, 18780, Note_on_c, 1, 69, 100
3, 18840, Note_on_c, 1, 69, 0
3, 18840, Note_on_c, 1, 70, 100
3, 18960, Note_on_c, 1, 70, 0
3, 18960, Note_on_c, 1, 69, 100
3, 19500, Note_on_c, 1, 69, 0
3, 19500, Note_on_c, 1, 65, 100
3, 19560, Note_on_c, 1, 65, 0
3, 19560, Note_on_c, 1, 67, 100
3, 19680, Note_on_c, 1, 67, 0
3, 19680, Note_on_c, 1, 69, 100
3, 19860, Note_on_c, 1, 69, 0
3, 19860, Note_on_c, 1, 70, 100
3, 19920, Note_on_c, 1, 70, 0
3, 19920, Note_on_c, 1, 69, 100
3, 20040, Note_on_c, 1, 69, 0
3, 20040, Note_on_c, 1, 67, 100
3, 20280, Note_on_c, 1, 67, 0
3, 20280, Note_on_c, 1, 65, 100
3, 20340, Note_on_c, 1, 65, 0
3, 20340, Note_on_c, 1, 62, 100
3, 20400, Note_on_c, 1, 62, 0
3, 20400, Note_on_c, 1, 69, 100
3, 20580, Note_on_c, 1, 69, 0
3, 20580, Note_on_c, 1, 67, 100
3, 20640, Note_on_c, 1, 67, 0
3, 20640, Note_on_c, 1, 66, 100
3, 20700, Note_on_c, 1, 66, 0
3, 20700, Note_on_c, 1, 62, 100
3, 20760, Note_on_c, 1, 62, 0
3, 20760, Note_on_c, 1, 67, 100
3, 20940, Note_on_c, 1, 67, 0
3, 20940, Note_on_c, 1, 64, 100
3, 21000, Note_on_c, 1, 64, 0
3, 21000, Note_on_c, 1, 65, 100
3, 21180, Note_on_c, 1, 65, 0
3, 21180, Note_on_c, 1, 62, 100
3, 21240, Note_on_c, 1, 62, 0
3, 21240, Note_on_c, 1, 67, 100
3, 21420, Note_on_c, 1, 67, 0
3, 21420, Note_on_c, 1, 64, 100
3, 21480, Note_on_c, 1, 64, 0
3, 21480, Note_on_c, 1, 69, 100
3, 21660, Note_on_c, 1, 69, 0
3, 21660, Note_on_c, 1, 65, 100
3, 21720, Note_on_c, 1, 65, 0
3, 21720, Note_on_c, 1, 70, 100
3, 21900, Note_on_c, 1, 70, 0
3, 21900, Note_on_c, 1, 67, 100
3, 21960, Note_on_c, 1, 67, 0
3, 21960, Note_on_c, 1, 69, 100
3, 22140, Note_on_c, 1, 69, 0
3, 22140, Note_on_c, 1, 65, 100
3, 22200, Note_on_c, 1, 65, 0
3, 22200, Note_on_c, 1, 67, 100
3, 22440, Note_on_c, 1, 67, 0
3, 22440, Note_on_c, 1, 65, 100
3, 22500, Note_on_c, 1, 65, 0
3, 22500, Note_on_c, 1, 62, 100
3, 22560, Note_on_c, 1, 62, 0
3, 22560, Note_on_c, 1, 69, 100
3, 22800, Note_on_c, 1, 69, 0
3, 22800, Note_on_c, 1, 74, 100
3, 23100, Note_on_c, 1, 74, 0
3, 23100, Note_on_c, 1, 73, 100
3, 23160, Note_on_c, 1, 73, 0
3, 23160, Note_on_c, 1, 71, 100
3, 23220, Note_on_c, 1, 71, 0
3, 23220, Note_on_c, 1, 73, 100
3, 23280, Note_on_c, 1, 73, 0
3, 23280, Note_on_c, 1, 74, 100
3, 23340, Note_on_c, 1, 74, 0
3, 23340, Note_on_c, 1, 69, 100
3, 23400, Note_on_c, 1, 69, 0
3, 23400, Note_on_c, 1, 76, 100
3, 23580, Note_on_c, 1, 76, 0
3, 23580, Note_on_c, 1, 69, 100
3, 23640, Note_on_c, 1, 69, 0
3, 23640, Note_on_c, 1, 74, 100
3, 23760, Note_on_c, 1, 74, 0
3, 23820, Note_on_c, 1, 65, 100
3, 23880, Note_on_c, 1, 65, 0
3, 23880, Note_on_c, 1, 70, 100
3, 24060, Note_on_c, 1, 70, 0
3, 24060, Note_on_c, 1, 64, 100
3, 24120, Note_on_c, 1, 64, 0
3, 24120, Note_on_c, 1, 69, 100
3, 24300, Note_on_c, 1, 69, 0
3, 24300, Note_on_c, 1, 67, 100
3, 24360, Note_on_c, 1, 67, 0
3, 24360, Note_on_c, 1, 65, 100
3, 24420, Note_on_c, 1, 65, 0
3, 24420, Note_on_c, 1, 64, 100
3, 24480, Note_on_c, 1, 64, 0
3, 24480, Note_on_c, 1, 62, 100
3, 24540, Note_on_c, 1, 62, 0
3, 24540, Note_on_c, 1, 69, 100
3, 24600, Note_on_c, 1, 69, 0
3, 24600, Note_on_c, 1, 74, 100
3, 24660, Note_on_c, 1, 74, 0
3, 24660, Note_on_c, 1, 71, 100
3, 24720, Note_on_c, 1, 71, 0
3, 24720, Note_on_c, 1, 67, 100
3, 24780, Note_on_c, 1, 67, 0
3, 24780, Note_on_c, 1, 64, 100
3, 24840, Note_on_c, 1, 64, 0
3, 24840, Note_on_c, 1, 72, 100
3, 25080, Note_on_c, 1, 72, 0
3, 25080, Note_on_c, 1, 70, 100
3, 25200, Note_on_c, 1, 70, 0
3, 25200, Note_on_c, 1, 69, 100
3, 25440, Note_on_c, 1, 69, 0
3, 25440, Note_on_c, 1, 67, 100
3, 25620, Note_on_c, 1, 67, 0
3, 25620, Note_on_c, 1, 65, 100
3, 25680, Note_on_c, 1, 65, 0
3, 25680, Note_on_c, 1, 64, 100
3, 26040, Note_on_c, 1, 64, 0
3, 26040, Note_on_c, 1, 62, 100
3, 26100, Note_on_c, 1, 62, 0
3, 26100, Note_on_c, 1, 61, 100
3, 26160, Note_on_c, 1, 61, 0
3, 26160, Note_on_c, 1, 62, 100
3, 26280, Note_on_c, 1, 62, 0
3, 26280, Note_on_c, 1, 67, 100
3, 26580, Note_on_c, 1, 67, 0
3, 26580, Note_on_c, 1, 65, 100
3, 26640, Note_on_c, 1, 65, 0
3, 26640, Note_on_c, 1, 64, 100
3, 26820, Note_on_c, 1, 64, 0
3, 26820, Note_on_c, 1, 64, 100
3, 26880, Note_on_c, 1, 64, 0
3, 26880, Note_on_c, 1, 69, 100
3, 27240, Note_on_c, 1, 69, 0
3, 27240, Note_on_c, 1, 67, 100
3, 27300, Note_on_c, 1, 67, 0
3, 27300, Note_on_c, 1, 70, 100
3, 27360, Note_on_c, 1, 70, 0
3, 27360, Note_on_c, 1, 69, 100
3, 27660, Note_on_c, 1, 69, 0
3, 27660, Note_on_c, 1, 67, 100
3, 27720, Note_on_c, 1, 67, 0
3, 27720, Note_on_c, 1, 65, 100
3, 27780, Note_on_c, 1, 65, 0
3, 27780, Note_on_c, 1, 64, 100
3, 27840, Note_on_c, 1, 64, 0
3, 27840, Note_on_c, 1, 62, 100
3, 28200, Note_on_c, 1, 62, 0
3, 28200, Note_on_c, 1, 64, 100
3, 28320, Note_on_c, 1, 64, 0
3, 28320, Note_on_c, 1, 57, 100
3, 28440, Note_on_c, 1, 57, 0
3, 28680, Note_on_c, 1, 63, 100
3, 28800, Note_on_c, 1, 63, 0
3, 28800, Note_on_c, 1, 62, 100
3, 29040, Note_on_c, 1, 62, 0
3, 29160, Note_on_c, 1, 66, 100
3, 29280, Note_on_c, 1, 66, 0
3, 29280, Note_on_c, 1, 67, 100
3, 29340, Note_on_c, 1, 67, 0
3, 29340, Note_on_c, 1, 66, 100
3, 29400, Note_on_c, 1, 66, 0
3, 29400, Note_on_c, 1, 67, 100
3, 29520, Note_on_c, 1, 67, 0
3, 29640, Note_on_c, 1, 70, 100
3, 29820, Note_on_c, 1, 70, 0
3, 29820, Note_on_c, 1, 69, 100
3, 29880, Note_on_c, 1, 69, 0
3, 29880, Note_on_c, 1, 77, 100
3, 29940, Note_on_c, 1, 77, 0
3, 29940, Note_on_c, 1, 74, 100
3, 30000, Note_on_c, 1, 74, 0
3, 30000, Note_on_c, 1, 71, 100
3, 30120, Note_on_c, 1, 71, 0
3, 30120, Note_on_c, 1, 76, 100
3, 30180, Note_on_c, 1, 76, 0
3, 30180, Note_on_c, 1, 73, 100
3, 30240, Note_on_c, 1, 73, 0
3, 30240, Note_on_c, 1, 69, 100
3, 30360, Note_on_c, 1, 69, 0
3, 30360, Note_on_c, 1, 74, 100
3, 30420, Note_on_c, 1, 74, 0
3, 30420, Note_on_c, 1, 69, 100
3, 30480, Note_on_c, 1, 69, 0
3, 30480, Note_on_c, 1, 70, 100
3, 30660, Note_on_c, 1, 70, 0
3, 30660, Note_on_c, 1, 67, 100
3, 30720, Note_on_c, 1, 67, 0
3, 30720, Note_on_c, 1, 69, 100
3, 30900, Note_on_c, 1, 69, 0
3, 30900, Note_on_c, 1, 65, 100
3, 30960, Note_on_c, 1, 65, 0
3, 30960, Note_on_c, 1, 64, 100
3, 31140, Note_on_c, 1, 64, 0
3, 31140, Note_on_c, 1, 67, 100
3, 31200, Note_on_c, 1, 67, 0
3, 31200, Note_on_c, 1, 66, 100
3, 31260, Note_on_c, 1, 66, 0
3, 31260, Note_on_c, 1, 62, 100
3, 31320, Note_on_c, 1, 62, 0
3, 31320, Note_on_c, 1, 67, 100
3, 31500, Note_on_c, 1, 67, 0
3, 31500, Note_on_c, 1, 64, 100
3, 31560, Note_on_c, 1, 64, 0
3, 31560, Note_on_c, 1, 65, 100
3, 31740, Note_on_c, 1, 65, 0
3, 31740, Note_on_c, 1, 74, 100
3, 31800, Note_on_c, 1, 74, 0
3, 31800, Note_on_c, 1, 72, 100
3, 32100, Note_on_c, 1, 72, 0
3, 32100, Note_on_c, 1, 72, 100
3, 32160, Note_on_c, 1, 72, 0
3, 32160, Note_on_c, 1, 70, 100
3, 32220, Note_on_c, 1, 70, 0
3, 32220, Note_on_c, 1, 69, 100
3, 32280, Note_on_c, 1, 69, 0
3, 32280, Note_on_c, 1, 68, 100
3, 32400, Note_on_c, 1, 68, 0
3, 32400, Note_on_c, 1, 69, 100
3, 32580, Note_on_c, 1, 69, 0
3, 32580, Note_on_c, 1, 64, 100
3, 32640, Note_on_c, 1, 64, 0
3, 32640, Note_on_c, 1, 69, 100
3, 32760, Note_on_c, 1, 69, 0
3, 32760, Note_on_c, 1, 67, 100
3, 33060, Note_on_c, 1, 67, 0
3, 33060, Note_on_c, 1, 72, 100
3, 33120, Note_on_c, 1, 72, 0
3, 33120, Note_on_c, 1, 69, 100
3, 33240, Note_on_c, 1, 69, 0
3, 33240, Note_on_c, 1, 67, 100
3, 33480, Note_on_c, 1, 67, 0
3, 33840, Note_on_c, 1, 69, 100
3, 33960, Note_on_c, 1, 69, 0
3, 34320, Note_on_c, 1, 71, 100
3, 34560, Note_on_c, 1, 71, 0
3, 34560, Note_on_c, 1, 69, 100
3, 34980, Note_on_c, 1, 69, 0
3, 34980, Note_on_c, 1, 67, 100
3, 35040, Note_on_c, 1, 67, 0
3, 35040, Note_on_c, 1, 66, 100
3, 35100, Note_on_c, 1, 66, 0
3, 35100, Note_on_c, 1, 67, 100
3, 35160, Note_on_c, 1, 67, 0
3, 35160, Note_on_c, 1, 69, 100
3, 35340, Note_on_c, 1, 69, 0
3, 35340, Note_on_c, 1, 67, 100
3, 35400, Note_on_c, 1, 67, 0
3, 35400, Note_on_c, 1, 72, 100
3, 35580, Note_on_c, 1, 72, 0
3, 35580, Note_on_c, 1, 66, 100
3, 35640, Note_on_c, 1, 66, 0
3, 35640, Note_on_c, 1, 67, 100
3, 35700, Note_on_c, 1, 67, 0
3, 35700, Note_on_c, 1, 70, 100
3, 35760, Note_on_c, 1, 70, 0
3, 35760, Note_on_c, 1, 63, 100
3, 36000, Note_on_c, 1, 63, 0
3, 36000, Note_on_c, 1, 62, 100
3, 36120, Note_on_c, 1, 62, 0
3, 36120, Note_on_c, 1, 57, 100
3, 36240, Note_on_c, 1, 57, 0
3, 36240, Note_on_c, 1, 58, 100
3, 36360, Note_on_c, 1, 58, 0
3, 36360, Note_on_c, 1, 60, 100
3, 36480, Note_on_c, 1, 60, 0
3, 36480, Note_on_c, 1, 62, 100
3, 36600, Note_on_c, 1, 62, 0
3, 36600, Note_on_c, 1, 55, 100
3, 36780, Note_on_c, 1, 55, 0
3, 36780, Note_on_c, 1, 70, 100
3, 36840, Note_on_c, 1, 70, 0
3, 36840, Note_on_c, 1, 69, 100
3, 36900, Note_on_c, 1, 69, 0
3, 36900, Note_on_c, 1, 67, 100
3, 37020, Note_on_c, 1, 67, 0
3, 37020, Note_on_c, 1, 66, 100
3, 37080, Note_on_c, 1, 66, 0
3, 37080, Note_on_c, 1, 64, 100
3, 37140, Note_on_c, 1, 64, 0
3, 37140, Note_on_c, 1, 67, 100
3, 37200, Note_on_c, 1, 67, 0
3, 37200, Note_on_c, 1, 66, 100
3, 37440, Note_on_c, 1, 66, 0
3, 37440, End_track
4, 0, Start_track
4, 0, MIDI_port, 0
4, 0, Title_t, "Johann Sebastian Bach  (1685-1750)"
4, 0, Program_c, 2, 41
4, 0, Control_c, 2, 7, 100
4, 0, Control_c, 2, 10, 54
4, 5760, Note_on_c, 2, 57, 100
4, 6000, Note_on_c, 2, 57, 0
4, 6000, Note_on_c, 2, 62, 100
4, 6240, Note_on_c, 2, 62, 0
4, 6240, Note_on_c, 2, 60, 100
4, 6480, Note_on_c, 2, 60, 0
4, 6480, Note_on_c, 2, 57, 100
4, 6720, Note_on_c, 2, 57, 0
4, 6720, Note_on_c, 2, 56, 100
4, 6960, Note_on_c, 2, 56, 0
4, 6960, Note_on_c, 2, 57, 100
4, 7080, Note_on_c, 2, 57, 0
4, 7080, Note_on_c, 2, 59, 100
4, 7200, Note_on_c, 2, 59, 0
4, 7200, Note_on_c, 2, 60, 100
4, 7500, Note_on_c, 2, 60, 0
4, 7500, Note_on_c, 2, 62, 100
4, 7560, Note_on_c, 2, 62, 0
4, 7560, Note_on_c, 2, 60, 100
4, 7620, Note_on_c, 2, 60, 0
4, 7620, Note_on_c, 2, 58, 100
4, 7680, Note_on_c, 2, 58, 0
4, 7680, Note_on_c, 2, 57, 100
4, 7980, Note_on_c, 2, 57, 0
4, 7980, Note_on_c, 2, 53, 100
4, 8040, Note_on_c, 2, 53, 0
4, 8040, Note_on_c, 2, 55, 100
4, 8160, Note_on_c, 2, 55, 0
4, 8160, Note_on_c, 2, 60, 100
4, 8460, Note_on_c, 2, 60, 0
4, 8460, Note_on_c, 2, 57, 100
4, 8520, Note_on_c, 2, 57, 0
4, 8520, Note_on_c, 2, 59, 100
4, 8640, Note_on_c, 2, 59, 0
4, 8640, Note_on_c, 2, 64, 100
4, 8940, Note_on_c, 2, 64, 0
4, 8940, Note_on_c, 2, 61, 100
4, 9000, Note_on_c, 2, 61, 0
4, 9000, Note_on_c, 2, 62, 100
4, 9120, Note_on_c, 2, 62, 0
4, 9120, Note_on_c, 2, 67, 100
4, 9420, Note_on_c, 2, 67, 0
4, 9420, Note_on_c, 2, 64, 100
4, 9480, Note_on_c, 2, 64, 0
4, 9480, Note_on_c, 2, 65, 100
4, 9600, Note_on_c, 2, 65, 0
4, 9600, Note_on_c, 2, 64, 100
4, 9780, Note_on_c, 2, 64, 0
4, 9780, Note_on_c, 2, 69, 100
4, 9840, Note_on_c, 2, 69, 0
4, 9840, Note_on_c, 2, 62, 100
4, 10020, Note_on_c, 2, 62, 0
4, 10020, Note_on_c, 2, 64, 100
4, 10080, Note_on_c, 2, 64, 0
4, 10080, Note_on_c, 2, 61, 100
4, 10200, Note_on_c, 2, 61, 0
4, 10200, Note_on_c, 2, 62, 100
4, 10260, Note_on_c, 2, 62, 0
4, 10260, Note_on_c, 2, 57, 100
4, 10320, Note_on_c, 2, 57, 0
4, 10320, Note_on_c, 2, 59, 100
4, 10500, Note_on_c, 2, 59, 0
4, 10500, Note_on_c, 2, 61, 100
4, 10560, Note_on_c, 2, 61, 0
4, 10560, Note_on_c, 2, 62, 100
4, 10680, Note_on_c, 2, 62, 0
4, 10680, Note_on_c, 2, 57, 100
4, 11280, Note_on_c, 2, 57, 0
4, 11280, Note_on_c, 2, 58, 100
4, 11520, Note_on_c, 2, 58, 0
4, 11580, Note_on_c, 2, 52, 100
4, 11640, Note_on_c, 2, 52, 0
4, 11640, Note_on_c, 2, 57, 100
4, 11820, Note_on_c, 2, 57, 0
4, 11820, Note_on_c, 2, 58, 100
4, 11880, Note_on_c, 2, 58, 0
4, 11880, Note_on_c, 2, 57, 100
4, 11940, Note_on_c, 2, 57, 0
4, 11940, Note_on_c, 2, 55, 100
4, 12000, Note_on_c, 2, 55, 0
4, 12000, Note_on_c, 2, 57, 100
4, 12120, Note_on_c, 2, 57, 0
4, 12120, Note_on_c, 2, 59, 100
4, 12240, Note_on_c, 2, 59, 0
4, 12240, Note_on_c, 2, 60, 100
4, 12540, Note_on_c, 2, 60, 0
4, 12540, Note_on_c, 2, 57, 100
4, 12600, Note_on_c, 2, 57, 0
4, 12600, Note_on_c, 2, 58, 100
4, 12720, Note_on_c, 2, 58, 0
4, 12720, Note_on_c, 2, 57, 100
4, 12840, Note_on_c, 2, 57, 0
4, 12840, Note_on_c, 2, 62, 100
4, 13020, Note_on_c, 2, 62, 0
4, 13020, Note_on_c, 2, 59, 100
4, 13080, Note_on_c, 2, 59, 0
4, 13080, Note_on_c, 2, 60, 100
4, 13200, Note_on_c, 2, 60, 0
4, 13200, Note_on_c, 2, 59, 100
4, 13320, Note_on_c, 2, 59, 0
4, 13320, Note_on_c, 2, 64, 100
4, 13500, Note_on_c, 2, 64, 0
4, 13500, Note_on_c, 2, 57, 100
4, 13560, Note_on_c, 2, 57, 0
4, 13560, Note_on_c, 2, 62, 100
4, 13740, Note_on_c, 2, 62, 0
4, 13740, Note_on_c, 2, 62, 100
4, 13800, Note_on_c, 2, 62, 0
4, 13800, Note_on_c, 2, 60, 100
4, 13860, Note_on_c, 2, 60, 0
4, 13860, Note_on_c, 2, 59, 100
4, 13920, Note_on_c, 2, 59, 0
4, 13920, Note_on_c, 2, 60, 100
4, 13980, Note_on_c, 2, 60, 0
4, 13980, Note_on_c, 2, 62, 100
4, 14040, Note_on_c, 2, 62, 0
4, 14040, Note_on_c, 2, 64, 100
4, 14220, Note_on_c, 2, 64, 0
4, 14220, Note_on_c, 2, 64, 100
4, 14280, Note_on_c, 2, 64, 0
4, 14280, Note_on_c, 2, 62, 100
4, 14340, Note_on_c, 2, 62, 0
4, 14340, Note_on_c, 2, 60, 100
4, 14400, Note_on_c, 2, 60, 0
4, 14400, Note_on_c, 2, 59, 100
4, 14640, Note_on_c, 2, 59, 0
4, 14640, Note_on_c, 2, 60, 100
4, 14760, Note_on_c, 2, 60, 0
4, 14760, Note_on_c, 2, 56, 100
4, 14880, Note_on_c, 2, 56, 0
4, 14880, Note_on_c, 2, 57, 100
4, 14940, Note_on_c, 2, 57, 0
4, 14940, Note_on_c, 2, 55, 100
4, 15000, Note_on_c, 2, 55, 0
4, 15000, Note_on_c, 2, 54, 100
4, 15060, Note_on_c, 2, 54, 0
4, 15060, Note_on_c, 2, 52, 100
4, 15120, Note_on_c, 2, 52, 0
4, 15120, Note_on_c, 2, 54, 100
4, 15240, Note_on_c, 2, 54, 0
4, 15240, Note_on_c, 2, 55, 100
4, 15420, Note_on_c, 2, 55, 0
4, 15420, Note_on_c, 2, 55, 100
4, 15480, Note_on_c, 2, 55, 0
4, 15480, Note_on_c, 2, 53, 100
4, 15540, Note_on_c, 2, 53, 0
4, 15540, Note_on_c, 2, 52, 100
4, 15600, Note_on_c, 2, 52, 0
4, 15600, Note_on_c, 2, 53, 100
4, 15660, Note_on_c, 2, 53, 0
4, 15660, Note_on_c, 2, 52, 100
4, 15720, Note_on_c, 2, 52, 0
4, 15720, Note_on_c, 2, 50, 100
4, 15780, Note_on_c, 2, 50, 0
4, 15780, Note_on_c, 2, 49, 100
4, 15840, Note_on_c, 2, 49, 0
4, 15840, Note_on_c, 2, 50, 100
4, 15960, Note_on_c, 2, 50, 0
4, 18720, Note_on_c, 2, 52, 100
4, 18960, Note_on_c, 2, 52, 0
4, 18960, Note_on_c, 2, 57, 100
4, 19200, Note_on_c, 2, 57, 0
4, 19200, Note_on_c, 2, 53, 100
4, 19440, Note_on_c, 2, 53, 0
4, 19440, Note_on_c, 2, 50, 100
4, 19680, Note_on_c, 2, 50, 0
4, 19680, Note_on_c, 2, 49, 100
4, 19920, Note_on_c, 2, 49, 0
4, 19920, Note_on_c, 2, 50, 100
4, 20040, Note_on_c, 2, 50, 0
4, 20040, Note_on_c, 2, 52, 100
4, 20160, Note_on_c, 2, 52, 0
4, 20160, Note_on_c, 2, 53, 100
4, 20460, Note_on_c, 2, 53, 0
4, 20460, Note_on_c, 2, 55, 100
4, 20520, Note_on_c, 2, 55, 0
4, 20520, Note_on_c, 2, 53, 100
4, 20580, Note_on_c, 2, 53, 0
4, 20580, Note_on_c, 2, 52, 100
4, 20640, Note_on_c, 2, 52, 0
4, 20640, Note_on_c, 2, 50, 100
4, 21000, Note_on_c, 2, 50, 0
4, 21000, Note_on_c, 2, 57, 100
4, 21060, Note_on_c, 2, 57, 0
4, 21060, Note_on_c, 2, 53, 100
4, 21120, Note_on_c, 2, 53, 0
4, 21120, Note_on_c, 2, 58, 100
4, 21300, Note_on_c, 2, 58, 0
4, 21300, Note_on_c, 2, 55, 100
4, 21360, Note_on_c, 2, 55, 0
4, 21360, Note_on_c, 2, 60, 100
4, 21540, Note_on_c, 2, 60, 0
4, 21540, Note_on_c, 2, 57, 100
4, 21600, Note_on_c, 2, 57, 0
4, 21600, Note_on_c, 2, 62, 100
4, 21720, Note_on_c, 2, 62, 0
4, 21720, Note_on_c, 2, 55, 100
4, 21840, Note_on_c, 2, 55, 0
4, 21840, Note_on_c, 2, 60, 100
4, 21960, Note_on_c, 2, 60, 0
4, 21960, Note_on_c, 2, 53, 100
4, 22080, Note_on_c, 2, 53, 0
4, 22080, Note_on_c, 2, 58, 100
4, 22200, Note_on_c, 2, 58, 0
4, 22200, Note_on_c, 2, 52, 100
4, 22320, Note_on_c, 2, 52, 0
4, 22320, Note_on_c, 2, 57, 100
4, 22560, Note_on_c, 2, 57, 0
4, 22560, Note_on_c, 2, 52, 100
4, 22680, Note_on_c, 2, 52, 0
4, 22680, Note_on_c, 2, 57, 100
4, 22860, Note_on_c, 2, 57, 0
4, 22860, Note_on_c, 2, 56, 100
4, 22920, Note_on_c, 2, 56, 0
4, 22920, Note_on_c, 2, 54, 100
4, 22980, Note_on_c, 2, 54, 0
4, 22980, Note_on_c, 2, 56, 100
4, 23040, Note_on_c, 2, 56, 0
4, 23040, Note_on_c, 2, 57, 100
4, 23220, Note_on_c, 2, 57, 0
4, 23220, Note_on_c, 2, 55, 100
4, 23280, Note_on_c, 2, 55, 0
4, 23280, Note_on_c, 2, 53, 100
4, 23340, Note_on_c, 2, 53, 0
4, 23340, Note_on_c, 2, 52, 100
4, 23400, Note_on_c, 2, 52, 0
4, 23400, Note_on_c, 2, 50, 100
4, 23460, Note_on_c, 2, 50, 0
4, 23460, Note_on_c, 2, 49, 100
4, 23520, Note_on_c, 2, 49, 0
4, 23520, Note_on_c, 2, 50, 100
4, 23640, Note_on_c, 2, 50, 0
4, 23640, Note_on_c, 2, 53, 100
4, 23700, Note_on_c, 2, 53, 0
4, 23700, Note_on_c, 2, 50, 100
4, 23760, Note_on_c, 2, 50, 0
4, 23760, Note_on_c, 2, 58, 100
4, 23880, Note_on_c, 2, 58, 0
4, 23880, Note_on_c, 2, 55, 100
4, 23940, Note_on_c, 2, 55, 0
4, 23940, Note_on_c, 2, 52, 100
4, 24000, Note_on_c, 2, 52, 0
4, 24000, Note_on_c, 2, 57, 100
4, 24180, Note_on_c, 2, 57, 0
4, 24180, Note_on_c, 2, 65, 100
4, 24240, Note_on_c, 2, 65, 0
4, 24240, Note_on_c, 2, 59, 100
4, 24360, Note_on_c, 2, 59, 0
4, 24360, Note_on_c, 2, 61, 100
4, 24480, Note_on_c, 2, 61, 0
4, 24480, Note_on_c, 2, 62, 100
4, 24600, Note_on_c, 2, 62, 0
4, 24600, Note_on_c, 2, 59, 100
4, 24660, Note_on_c, 2, 59, 0
4, 24660, Note_on_c, 2, 55, 100
4, 24720, Note_on_c, 2, 55, 0
4, 24720, Note_on_c, 2, 60, 100
4, 24840, Note_on_c, 2, 60, 0
4, 24840, Note_on_c, 2, 57, 100
4, 24900, Note_on_c, 2, 57, 0
4, 24900, Note_on_c, 2, 53, 100
4, 24960, Note_on_c, 2, 53, 0
4, 24960, Note_on_c, 2, 58, 100
4, 25020, Note_on_c, 2, 58, 0
4, 25020, Note_on_c, 2, 62, 100
4, 25080, Note_on_c, 2, 62, 0
4, 25080, Note_on_c, 2, 67, 100
4, 25260, Note_on_c, 2, 67, 0
4, 25260, Note_on_c, 2, 64, 100
4, 25320, Note_on_c, 2, 64, 0
4, 25320, Note_on_c, 2, 65, 100
4, 25500, Note_on_c, 2, 65, 0
4, 25500, Note_on_c, 2, 65, 100
4, 25560, Note_on_c, 2, 65, 0
4, 25560, Note_on_c, 2, 64, 100
4, 25620, Note_on_c, 2, 64, 0
4, 25620, Note_on_c, 2, 62, 100
4, 25680, Note_on_c, 2, 62, 0
4, 25680, Note_on_c, 2, 61, 100
4, 25920, Note_on_c, 2, 61, 0
4, 25920, Note_on_c, 2, 62, 100
4, 25980, Note_on_c, 2, 62, 0
4, 25980, Note_on_c, 2, 60, 100
4, 26040, Note_on_c, 2, 60, 0
4, 26040, Note_on_c, 2, 58, 100
4, 26100, Note_on_c, 2, 58, 0
4, 26100, Note_on_c, 2, 57, 100
4, 26160, Note_on_c, 2, 57, 0
4, 26160, Note_on_c, 2, 55, 100
4, 26220, Note_on_c, 2, 55, 0
4, 26220, Note_on_c, 2, 57, 100
4, 26280, Note_on_c, 2, 57, 0
4, 26280, Note_on_c, 2, 58, 100
4, 26340, Note_on_c, 2, 58, 0
4, 26340, Note_on_c, 2, 60, 100
4, 26400, Note_on_c, 2, 60, 0
4, 26400, Note_on_c, 2, 62, 100
4, 26460, Note_on_c, 2, 62, 0
4, 26460, Note_on_c, 2, 57, 100
4, 26520, Note_on_c, 2, 57, 0
4, 26520, Note_on_c, 2, 62, 100
4, 26700, Note_on_c, 2, 62, 0
4, 26700, Note_on_c, 2, 59, 100
4, 26760, Note_on_c, 2, 59, 0
4, 26760, Note_on_c, 2, 61, 100
4, 26940, Note_on_c, 2, 61, 0
4, 26940, Note_on_c, 2, 64, 100
4, 27000, Note_on_c, 2, 64, 0
4, 27000, Note_on_c, 2, 57, 100
4, 27060, Note_on_c, 2, 57, 0
4, 27060, Note_on_c, 2, 61, 100
4, 27120, Note_on_c, 2, 61, 0
4, 27120, Note_on_c, 2, 62, 100
4, 27240, Note_on_c, 2, 62, 0
4, 27240, Note_on_c, 2, 58, 100
4, 27300, Note_on_c, 2, 58, 0
4, 27300, Note_on_c, 2, 55, 100
4, 27360, Note_on_c, 2, 55, 0
4, 27360, Note_on_c, 2, 52, 100
4, 27600, Note_on_c, 2, 52, 0
4, 27600, Note_on_c, 2, 53, 100
4, 27720, Note_on_c, 2, 53, 0
4, 27720, Note_on_c, 2, 55, 100
4, 27840, Note_on_c, 2, 55, 0
4, 27840, Note_on_c, 2, 57, 100
4, 28080, Note_on_c, 2, 57, 0
4, 28080, Note_on_c, 2, 59, 100
4, 28200, Note_on_c, 2, 59, 0
4, 28200, Note_on_c, 2, 61, 100
4, 28320, Note_on_c, 2, 61, 0
4, 28320, Note_on_c, 2, 62, 100
4, 28440, Note_on_c, 2, 62, 0
4, 28680, Note_on_c, 2, 54, 100
4, 28800, Note_on_c, 2, 54, 0
4, 28800, Note_on_c, 2, 55, 100
4, 28860, Note_on_c, 2, 55, 0
4, 28860, Note_on_c, 2, 57, 100
4, 28920, Note_on_c, 2, 57, 0
4, 28920, Note_on_c, 2, 58, 100
4, 29040, Note_on_c, 2, 58, 0
4, 29160, Note_on_c, 2, 60, 100
4, 29280, Note_on_c, 2, 60, 0
4, 29280, Note_on_c, 2, 62, 100
4, 29520, Note_on_c, 2, 62, 0
4, 29580, Note_on_c, 2, 55, 100
4, 29700, Note_on_c, 2, 55, 0
4, 29700, Note_on_c, 2, 53, 100
4, 29760, Note_on_c, 2, 53, 0
4, 29760, Note_on_c, 2, 52, 100
4, 30000, Note_on_c, 2, 52, 0
4, 30360, Note_on_c, 2, 53, 100
4, 30420, Note_on_c, 2, 53, 0
4, 30420, Note_on_c, 2, 50, 100
4, 30480, Note_on_c, 2, 50, 0
4, 30480, Note_on_c, 2, 55, 100
4, 30660, Note_on_c, 2, 55, 0
4, 30660, Note_on_c, 2, 49, 100
4, 30720, Note_on_c, 2, 49, 0
4, 30720, Note_on_c, 2, 53, 100
4, 30900, Note_on_c, 2, 53, 0
4, 30900, Note_on_c, 2, 50, 100
4, 30960, Note_on_c, 2, 50, 0
4, 30960, Note_on_c, 2, 57, 100
4, 31200, Note_on_c, 2, 57, 0
4, 31200, Note_on_c, 2, 50, 100
4, 31320, Note_on_c, 2, 50, 0
4, 31320, Note_on_c, 2, 62, 100
4, 31560, Note_on_c, 2, 62, 0
4, 31560, Note_on_c, 2, 57, 100
4, 31620, Note_on_c, 2, 57, 0
4, 31620, Note_on_c, 2, 53, 100
4, 31680, Note_on_c, 2, 53, 0
4, 31680, Note_on_c, 2, 58, 100
4, 31980, Note_on_c, 2, 58, 0
4, 31980, Note_on_c, 2, 56, 100
4, 32040, Note_on_c, 2, 56, 0
4, 32040, Note_on_c, 2, 57, 100
4, 32160, Note_on_c, 2, 57, 0
4, 32160, Note_on_c, 2, 62, 100
4, 32460, Note_on_c, 2, 62, 0
4, 32460, Note_on_c, 2, 59, 100
4, 32520, Note_on_c, 2, 59, 0
4, 32520, Note_on_c, 2, 60, 100
4, 32640, Note_on_c, 2, 60, 0
4, 32640, Note_on_c, 2, 65, 100
4, 32940, Note_on_c, 2, 65, 0
4, 32940, Note_on_c, 2, 62, 100
4, 33000, Note_on_c, 2, 62, 0
4, 33000, Note_on_c, 2, 63, 100
4, 33120, Note_on_c, 2, 63, 0
4, 33120, Note_on_c, 2, 62, 100
4, 33360, Note_on_c, 2, 62, 0
4, 33360, Note_on_c, 2, 64, 100
4, 33480, Note_on_c, 2, 64, 0
4, 33840, Note_on_c, 2, 65, 100
4, 33960, Note_on_c, 2, 65, 0
4, 34320, Note_on_c, 2, 65, 100
4, 34680, Note_on_c, 2, 65, 0
4, 34680, Note_on_c, 2, 64, 100
4, 34740, Note_on_c, 2, 64, 0
4, 34740, Note_on_c, 2, 62, 100
4, 34800, Note_on_c, 2, 62, 0
4, 34800, Note_on_c, 2, 64, 100
4, 34920, Note_on_c, 2, 64, 0
4, 35040, Note_on_c, 2, 57, 100
4, 35280, Note_on_c, 2, 57, 0
4, 35280, Note_on_c, 2, 62, 100
4, 35520, Note_on_c, 2, 62, 0
4, 35520, Note_on_c, 2, 58, 100
4, 35760, Note_on_c, 2, 58, 0
4, 35760, Note_on_c, 2, 55, 100
4, 36000, Note_on_c, 2, 55, 0
4, 36000, Note_on_c, 2, 54, 100
4, 36240, Note_on_c, 2, 54, 0
4, 36240, Note_on_c, 2, 55, 100
4, 36360, Note_on_c, 2, 55, 0
4, 36360, Note_on_c, 2, 57, 100
4, 36480, Note_on_c, 2, 57, 0
4, 36480, Note_on_c, 2, 58, 100
4, 36780, Note_on_c, 2, 58, 0
4, 36780, Note_on_c, 2, 62, 100
4, 36840, Note_on_c, 2, 62, 0
4, 36840, Note_on_c, 2, 60, 100
4, 36900, Note_on_c, 2, 60, 0
4, 36900, Note_on_c, 2, 58, 100
4, 36960, Note_on_c, 2, 58, 0
4, 36960, Note_on_c, 2, 57, 100
4, 37080, Note_on_c, 2, 57, 0
4, 37080, Note_on_c, 2, 57, 100
4, 37440, Note_on_c, 2, 57, 0
4, 37440, End_track
5, 0, Start_track
5, 0, MIDI_port, 0
5, 0, Title_t, "The Art of Fugue - BWV 1080"
5, 0, Program_c, 3, 42
5, 0, Control_c, 3, 7, 100
5, 0, Control_c, 3, 10, 34
5, 3840, Note_on_c, 3, 50, 100
5, 4080, Note_on_c, 3, 50, 0
5, 4080, Note_on_c, 3, 57, 100
5, 4320, Note_on_c, 3, 57, 0
5, 4320, Note_on_c, 3, 53, 100
5, 4560, Note_on_c, 3, 53, 0
5, 4560, Note_on_c, 3, 50, 100
5, 4800, Note_on_c, 3, 50, 0
5, 4800, Note_on_c, 3, 49, 100
5, 5040, Note_on_c, 3, 49, 0
5, 5040, Note_on_c, 3, 50, 100
5, 5160, Note_on_c, 3, 50, 0
5, 5160, Note_on_c, 3, 52, 100
5, 5280, Note_on_c, 3, 52, 0
5, 5280, Note_on_c, 3, 53, 100
5, 5580, Note_on_c, 3, 53, 0
5, 5580, Note_on_c, 3, 55, 100
5, 5640, Note_on_c, 3, 55, 0
5, 5640, Note_on_c, 3, 53, 100
5, 5700, Note_on_c, 3, 53, 0
5, 5700, Note_on_c, 3, 52, 100
5, 5760, Note_on_c, 3, 52, 0
5, 5760, Note_on_c, 3, 50, 100
5, 6000, Note_on_c, 3, 50, 0
5, 6360, Note_on_c, 3, 45, 100
5, 6420, Note_on_c, 3, 45, 0
5, 6420, Note_on_c, 3, 47, 100
5, 6480, Note_on_c, 3, 47, 0
5, 6480, Note_on_c, 3, 48, 100
5, 6540, Note_on_c, 3, 48, 0
5, 6540, Note_on_c, 3, 45, 100
5, 6600, Note_on_c, 3, 45, 0
5, 6600, Note_on_c, 3, 53, 100
5, 6780, Note_on_c, 3, 53, 0
5, 6780, Note_on_c, 3, 47, 100
5, 6840, Note_on_c, 3, 47, 0
5, 6840, Note_on_c, 3, 52, 100
5, 7020, Note_on_c, 3, 52, 0
5, 7020, Note_on_c, 3, 53, 100
5, 7080, Note_on_c, 3, 53, 0
5, 7080, Note_on_c, 3, 52, 100
5, 7140, Note_on_c, 3, 52, 0
5, 7140, Note_on_c, 3, 50, 100
5, 7200, Note_on_c, 3, 50, 0
5, 7200, Note_on_c, 3, 52, 100
5, 7260, Note_on_c, 3, 52, 0
5, 7260, Note_on_c, 3, 55, 100
5, 7320, Note_on_c, 3, 55, 0
5, 7320, Note_on_c, 3, 54, 100
5, 7380, Note_on_c, 3, 54, 0
5, 7380, Note_on_c, 3, 57, 100
5, 7440, Note_on_c, 3, 57, 0
5, 7440, Note_on_c, 3, 55, 100
5, 7680, Note_on_c, 3, 55, 0
5, 7680, Note_on_c, 3, 50, 100
5, 8040, Note_on_c, 3, 50, 0
5, 8040, Note_on_c, 3, 52, 100
5, 8100, Note_on_c, 3, 52, 0
5, 8100, Note_on_c, 3, 50, 100
5, 8160, Note_on_c, 3, 50, 0
5, 8160, Note_on_c, 3, 52, 100
5, 8280, Note_on_c, 3, 52, 0
5, 8280, Note_on_c, 3, 53, 100
5, 8340, Note_on_c, 3, 53, 0
5, 8340, Note_on_c, 3, 52, 100
5, 8400, Note_on_c, 3, 52, 0
5, 8400, Note_on_c, 3, 54, 100
5, 8520, Note_on_c, 3, 54, 0
5, 8520, Note_on_c, 3, 55, 100
5, 8580, Note_on_c, 3, 55, 0
5, 8580, Note_on_c, 3, 54, 100
5, 8640, Note_on_c, 3, 54, 0
5, 8640, Note_on_c, 3, 56, 100
5, 8760, Note_on_c, 3, 56, 0
5, 8760, Note_on_c, 3, 57, 100
5, 8820, Note_on_c, 3, 57, 0
5, 8820, Note_on_c, 3, 56, 100
5, 8880, Note_on_c, 3, 56, 0
5, 8880, Note_on_c, 3, 57, 100
5, 9000, Note_on_c, 3, 57, 0
5, 9000, Note_on_c, 3, 58, 100
5, 9060, Note_on_c, 3, 58, 0
5, 9060, Note_on_c, 3, 57, 100
5, 9120, Note_on_c, 3, 57, 0
5, 9120, Note_on_c, 3, 59, 100
5, 9240, Note_on_c, 3, 59, 0
5, 9240, Note_on_c, 3, 60, 100
5, 9300, Note_on_c, 3, 60, 0
5, 9300, Note_on_c, 3, 59, 100
5, 9360, Note_on_c, 3, 59, 0
5, 9360, Note_on_c, 3, 61, 100
5, 9480, Note_on_c, 3, 61, 0
5, 9480, Note_on_c, 3, 62, 100
5, 9540, Note_on_c, 3, 62, 0
5, 9540, Note_on_c, 3, 56, 100
5, 9600, Note_on_c, 3, 56, 0
5, 9600, Note_on_c, 3, 57, 100
5, 9900, Note_on_c, 3, 57, 0
5, 9900, Note_on_c, 3, 53, 100
5, 9960, Note_on_c, 3, 53, 0
5, 9960, Note_on_c, 3, 55, 100
5, 10140, Note_on_c, 3, 55, 0
5, 10140, Note_on_c, 3, 52, 100
5, 10200, Note_on_c, 3, 52, 0
5, 10200, Note_on_c, 3, 53, 100
5, 10380, Note_on_c, 3, 53, 0
5, 10380, Note_on_c, 3, 50, 100
5, 10440, Note_on_c, 3, 50, 0
5, 10440, Note_on_c, 3, 52, 100
5, 10560, Note_on_c, 3, 52, 0
5, 10560, Note_on_c, 3, 50, 100
5, 10860, Note_on_c, 3, 50, 0
5, 10860, Note_on_c, 3, 47, 100
5, 10920, Note_on_c, 3, 47, 0
5, 10920, Note_on_c, 3, 49, 100
5, 11040, Note_on_c, 3, 49, 0
5, 11040, Note_on_c, 3, 50, 100
5, 11220, Note_on_c, 3, 50, 0
5, 11220, Note_on_c, 3, 48, 100
5, 11280, Note_on_c, 3, 48, 0
5, 11280, Note_on_c, 3, 46, 100
5, 11520, Note_on_c, 3, 46, 0
5, 11520, Note_on_c, 3, 45, 100
5, 11700, Note_on_c, 3, 45, 0
5, 11700, Note_on_c, 3, 43, 100
5, 11760, Note_on_c, 3, 43, 0
5, 11760, Note_on_c, 3, 41, 100
5, 11820, Note_on_c, 3, 41, 0
5, 11820, Note_on_c, 3, 43, 100
5, 11880, Note_on_c, 3, 43, 0
5, 11880, Note_on_c, 3, 41, 100
5, 11940, Note_on_c, 3, 41, 0
5, 11940, Note_on_c, 3, 40, 100
5, 12000, Note_on_c, 3, 40, 0
5, 12000, Note_on_c, 3, 38, 100
5, 12060, Note_on_c, 3, 38, 0
5, 12060, Note_on_c, 3, 41, 100
5, 12120, Note_on_c, 3, 41, 0
5, 12120, Note_on_c, 3, 40, 100
5, 12180, Note_on_c, 3, 40, 0
5, 12180, Note_on_c, 3, 38, 100
5, 12240, Note_on_c, 3, 38, 0
5, 12240, Note_on_c, 3, 45, 100
5, 12420, Note_on_c, 3, 45, 0
5, 12420, Note_on_c, 3, 41, 100
5, 12480, Note_on_c, 3, 41, 0
5, 12480, Note_on_c, 3, 46, 100
5, 12660, Note_on_c, 3, 46, 0
5, 12660, Note_on_c, 3, 43, 100
5, 12720, Note_on_c, 3, 43, 0
5, 12720, Note_on_c, 3, 50, 100
5, 12900, Note_on_c, 3, 50, 0
5, 12900, Note_on_c, 3, 53, 100
5, 12960, Note_on_c, 3, 53, 0
5, 12960, Note_on_c, 3, 57, 100
5, 13140, Note_on_c, 3, 57, 0
5, 13140, Note_on_c, 3, 45, 100
5, 13200, Note_on_c, 3, 45, 0
5, 13200, Note_on_c, 3, 40, 100
5, 13440, Note_on_c, 3, 40, 0
5, 13680, Note_on_c, 3, 52, 100
5, 13920, Note_on_c, 3, 52, 0
5, 13920, Note_on_c, 3, 57, 100
5, 14160, Note_on_c, 3, 57, 0
5, 14160, Note_on_c, 3, 53, 100
5, 14460, Note_on_c, 3, 53, 0
5, 14460, Note_on_c, 3, 53, 100
5, 14520, Note_on_c, 3, 53, 0
5, 14520, Note_on_c, 3, 52, 100
5, 14580, Note_on_c, 3, 52, 0
5, 14580, Note_on_c, 3, 50, 100
5, 14640, Note_on_c, 3, 50, 0
5, 14640, Note_on_c, 3, 48, 100
5, 14700, Note_on_c, 3, 48, 0
5, 14700, Note_on_c, 3, 50, 100
5, 14760, Note_on_c, 3, 50, 0
5, 14760, Note_on_c, 3, 48, 100
5, 14820, Note_on_c, 3, 48, 0
5, 14820, Note_on_c, 3, 47, 100
5, 14880, Note_on_c, 3, 47, 0
5, 14880, Note_on_c, 3, 45, 100
5, 15120, Note_on_c, 3, 45, 0
5, 15120, Note_on_c, 3, 50, 100
5, 15360, Note_on_c, 3, 50, 0
5, 15360, Note_on_c, 3, 49, 100
5, 15600, Note_on_c, 3, 49, 0
5, 15600, Note_on_c, 3, 45, 100
5, 15840, Note_on_c, 3, 45, 0
5, 15840, Note_on_c, 3, 42, 100
5, 16080, Note_on_c, 3, 42, 0
5, 16080, Note_on_c, 3, 43, 100
5, 16200, Note_on_c, 3, 43, 0
5, 16200, Note_on_c, 3, 45, 100
5, 16320, Note_on_c, 3, 45, 0
5, 16320, Note_on_c, 3, 46, 100
5, 16620, Note_on_c, 3, 46, 0
5, 16620, Note_on_c, 3, 48, 100
5, 16680, Note_on_c, 3, 48, 0
5, 16680, Note_on_c, 3, 46, 100
5, 16740, Note_on_c, 3, 46, 0
5, 16740, Note_on_c, 3, 45, 100
5, 16800, Note_on_c, 3, 45, 0
5, 16800, Note_on_c, 3, 43, 100
5, 17100, Note_on_c, 3, 43, 0
5, 17100, Note_on_c, 3, 40, 100
5, 17160, Note_on_c, 3, 40, 0
5, 17160, Note_on_c, 3, 41, 100
5, 17280, Note_on_c, 3, 41, 0
5, 17280, Note_on_c, 3, 46, 100
5, 17580, Note_on_c, 3, 46, 0
5, 17580, Note_on_c, 3, 43, 100
5, 17640, Note_on_c, 3, 43, 0
5, 17640, Note_on_c, 3, 45, 100
5, 17760, Note_on_c, 3, 45, 0
5, 17760, Note_on_c, 3, 50, 100
5, 18060, Note_on_c, 3, 50, 0
5, 18060, Note_on_c, 3, 47, 100
5, 18120, Note_on_c, 3, 47, 0
5, 18120, Note_on_c, 3, 48, 100
5, 18240, Note_on_c, 3, 48, 0
5, 18240, Note_on_c, 3, 53, 100
5, 18540, Note_on_c, 3, 53, 0
5, 18540, Note_on_c, 3, 50, 100
5, 18600, Note_on_c, 3, 50, 0
5, 18600, Note_on_c, 3, 52, 100
5, 18720, Note_on_c, 3, 52, 0
5, 18720, Note_on_c, 3, 45, 100
5, 18900, Note_on_c, 3, 45, 0
5, 18900, Note_on_c, 3, 55, 100
5, 18960, Note_on_c, 3, 55, 0
5, 18960, Note_on_c, 3, 53, 100
5, 19020, Note_on_c, 3, 53, 0
5, 19020, Note_on_c, 3, 52, 100
5, 19080, Note_on_c, 3, 52, 0
5, 19080, Note_on_c, 3, 50, 100
5, 19140, Note_on_c, 3, 50, 0
5, 19140, Note_on_c, 3, 49, 100
5, 19200, Note_on_c, 3, 49, 0
5, 19200, Note_on_c, 3, 50, 100
5, 19380, Note_on_c, 3, 50, 0
5, 19380, Note_on_c, 3, 41, 100
5, 19440, Note_on_c, 3, 41, 0
5, 19440, Note_on_c, 3, 46, 100
5, 19680, Note_on_c, 3, 46, 0
5, 19680, Note_on_c, 3, 45, 100
5, 20340, Note_on_c, 3, 45, 0
5, 20340, Note_on_c, 3, 46, 100
5, 20400, Note_on_c, 3, 46, 0
5, 20400, Note_on_c, 3, 45, 100
5, 20460, Note_on_c, 3, 45, 0
5, 20460, Note_on_c, 3, 43, 100
5, 20520, Note_on_c, 3, 43, 0
5, 20520, Note_on_c, 3, 45, 100
5, 20640, Note_on_c, 3, 45, 0
5, 20640, Note_on_c, 3, 46, 100
5, 20820, Note_on_c, 3, 46, 0
5, 20820, Note_on_c, 3, 43, 100
5, 20880, Note_on_c, 3, 43, 0
5, 20880, Note_on_c, 3, 50, 100
5, 21240, Note_on_c, 3, 50, 0
5, 21240, Note_on_c, 3, 52, 100
5, 21480, Note_on_c, 3, 52, 0
5, 21480, Note_on_c, 3, 53, 100
5, 21780, Note_on_c, 3, 53, 0
5, 21780, Note_on_c, 3, 50, 100
5, 21840, Note_on_c, 3, 50, 0
5, 21840, Note_on_c, 3, 52, 100
5, 22020, Note_on_c, 3, 52, 0
5, 22020, Note_on_c, 3, 49, 100
5, 22080, Note_on_c, 3, 49, 0
5, 22080, Note_on_c, 3, 50, 100
5, 22260, Note_on_c, 3, 50, 0
5, 22260, Note_on_c, 3, 47, 100
5, 22320, Note_on_c, 3, 47, 0
5, 22320, Note_on_c, 3, 49, 100
5, 22380, Note_on_c, 3, 49, 0
5, 22380, Note_on_c, 3, 45, 100
5, 22440, Note_on_c, 3, 45, 0
5, 22440, Note_on_c, 3, 50, 100
5, 22620, Note_on_c, 3, 50, 0
5, 22620, Note_on_c, 3, 48, 100
5, 22680, Note_on_c, 3, 48, 0
5, 22680, Note_on_c, 3, 47, 100
5, 22740, Note_on_c, 3, 47, 0
5, 22740, Note_on_c, 3, 45, 100
5, 22800, Note_on_c, 3, 45, 0
5, 22800, Note_on_c, 3, 47, 100
5, 23040, Note_on_c, 3, 47, 0
5, 23040, Note_on_c, 3, 45, 100
5, 23160, Note_on_c, 3, 45, 0
5, 26400, Note_on_c, 3, 50, 100
5, 26640, Note_on_c, 3, 50, 0
5, 26640, Note_on_c, 3, 57, 100
5, 26880, Note_on_c, 3, 57, 0
5, 26880, Note_on_c, 3, 53, 100
5, 27120, Note_on_c, 3, 53, 0
5, 27120, Note_on_c, 3, 50, 100
5, 27360, Note_on_c, 3, 50, 0
5, 27360, Note_on_c, 3, 49, 100
5, 27600, Note_on_c, 3, 49, 0
5, 27600, Note_on_c, 3, 50, 100
5, 27720, Note_on_c, 3, 50, 0
5, 27720, Note_on_c, 3, 52, 100
5, 27840, Note_on_c, 3, 52, 0
5, 27840, Note_on_c, 3, 53, 100
5, 28140, Note_on_c, 3, 53, 0
5, 28140, Note_on_c, 3, 55, 100
5, 28200, Note_on_c, 3, 55, 0
5, 28200, Note_on_c, 3, 53, 100
5, 28260, Note_on_c, 3, 53, 0
5, 28260, Note_on_c, 3, 52, 100
5, 28320, Note_on_c, 3, 52, 0
5, 28320, Note_on_c, 3, 50, 100
5, 28620, Note_on_c, 3, 50, 0
5, 28620, Note_on_c, 3, 51, 100
5, 28680, Note_on_c, 3, 51, 0
5, 28680, Note_on_c, 3, 50, 100
5, 28740, Note_on_c, 3, 50, 0
5, 28740, Note_on_c, 3, 48, 100
5, 28800, Note_on_c, 3, 48, 0
5, 28800, Note_on_c, 3, 46, 100
5, 29100, Note_on_c, 3, 46, 0
5, 29100, Note_on_c, 3, 48, 100
5, 29160, Note_on_c, 3, 48, 0
5, 29160, Note_on_c, 3, 46, 100
5, 29220, Note_on_c, 3, 46, 0
5, 29220, Note_on_c, 3, 45, 100
5, 29280, Note_on_c, 3, 45, 0
5, 29280, Note_on_c, 3, 43, 100
5, 29640, Note_on_c, 3, 43, 0
5, 29640, Note_on_c, 3, 43, 100
5, 31080, Note_on_c, 3, 43, 0
5, 31080, Note_on_c, 3, 45, 100
5, 31200, Note_on_c, 3, 45, 0
5, 31200, Note_on_c, 3, 46, 100
5, 31380, Note_on_c, 3, 46, 0
5, 31380, Note_on_c, 3, 43, 100
5, 31440, Note_on_c, 3, 43, 0
5, 31440, Note_on_c, 3, 50, 100
5, 31740, Note_on_c, 3, 50, 0
5, 31740, Note_on_c, 3, 46, 100
5, 31800, Note_on_c, 3, 46, 0
5, 31800, Note_on_c, 3, 48, 100
5, 31920, Note_on_c, 3, 48, 0
5, 31920, Note_on_c, 3, 53, 100
5, 32220, Note_on_c, 3, 53, 0
5, 32220, Note_on_c, 3, 50, 100
5, 32280, Note_on_c, 3, 50, 0
5, 32280, Note_on_c, 3, 52, 100
5, 32400, Note_on_c, 3, 52, 0
5, 32400, Note_on_c, 3, 57, 100
5, 32700, Note_on_c, 3, 57, 0
5, 32700, Note_on_c, 3, 53, 100
5, 32760, Note_on_c, 3, 53, 0
5, 32760, Note_on_c, 3, 55, 100
5, 32880, Note_on_c, 3, 55, 0
5, 32880, Note_on_c, 3, 60, 100
5, 33180, Note_on_c, 3, 60, 0
5, 33180, Note_on_c, 3, 57, 100
5, 33240, Note_on_c, 3, 57, 0
5, 33240, Note_on_c, 3, 58, 100
5, 33480, Note_on_c, 3, 58, 0
5, 33840, Note_on_c, 3, 57, 100
5, 33960, Note_on_c, 3, 57, 0
5, 34320, Note_on_c, 3, 56, 100
5, 34560, Note_on_c, 3, 56, 0
5, 34560, Note_on_c, 3, 57, 100
5, 34920, Note_on_c, 3, 57, 0
5, 34920, Note_on_c, 3, 45, 100
5, 35040, Note_on_c, 3, 45, 0
5, 35040, Note_on_c, 3, 50, 100
5, 37440, Note_on_c, 3, 50, 0
5, 37440, End_track
6, 0, Start_track
6, 0, MIDI_port, 0
6, 0, Title_t, "--------------------------------------"
6, 0, End_track
7, 0, Start_track
7, 0, MIDI_port, 0
7, 0, Title_t, "Contrapunctus I"
7, 0, End_track
8, 0, Start_track
8, 0, MIDI_port, 0
8, 0, Title_t, "--------------------------------------"
8, 0, End_track
9, 0, Start_track
9, 0, MIDI_port, 0
9, 0, Title_t, "Original sequence by an unknown author"
9, 0, End_track
10, 0, Start_track
10, 0, MIDI_port, 0
10, 0, Title_t, "Modified with Cakewalk Pro Audio by"
10, 0, End_track
11, 0, Start_track
11, 0, MIDI_port, 0
11, 0, Title_t, "David J. Grossman - dave@unpronounceable.com"
11, 0, End_track
12, 0, Start_track
12, 0, MIDI_port, 0
12, 0, Title_t, "This and other Bach MIDI files can be found at:"
12, 0, End_track
13, 0, Start_track
13, 0, MIDI_port, 0
13, 0, Title_t, "Dave's J.S. Bach Page"
13, 0, End_track
14, 0, Start_track
14, 0, MIDI_port, 0
14, 0, Title_t, "http://www.unpronounceable.com/bach"
14, 0, End_track
15, 0, Start_track
15, 0, MIDI_port, 0
15, 0, Title_t, "--------------------------------------"
15, 0, End_track
16, 0, Start_track
16, 0, MIDI_port, 0
16, 0, Title_t, "Original Filename: 1080-c01.mid"
16, 0, End_track
17, 0, Start_track
17, 0, MIDI_port, 0
17, 0, Title_t, "Last Modified: March 20, 1997"
17, 0, End_track
0, 0, End_of_file
