0, 0, Header, 1, 20, 240
1, 0, Start_track
1, 0, Tempo, 491803
1, 0, Time_signature, 4, 2, 24, 8
1, 0, Text_t, "Mozart Sonate a moll K.V.310 (1st.mov.)  Play by Katsuhiro Oguri"
1, 0, End_track
2, 0, Start_track
2, 0, Time_signature, 4, 2, 24, 8
2, 0, Title_t, "PIANO                               "
2, 0, System_exclusive, 10, 65, 16, 66, 18, 64, 0, 127, 0, 65, 247
2, 0, System_exclusive, 10, 65, 16, 66, 18, 64, 0, 4, 100, 88, 247
2, 170, System_exclusive, 10, 65, 16, 66, 18, 64, 1, 48, 3, 12, 247
2, 170, System_exclusive, 10, 65, 16, 66, 18, 64, 1, 51, 80, 60, 247
2, 170, System_exclusive, 10, 65, 16, 66, 18, 64, 1, 52, 60, 79, 247
2, 372, Control_c, 0, 0, 0
2, 374, Control_c, 0, 32, 1
2, 376, Program_c, 0, 0
2, 378, Control_c, 0, 7, 100
2, 474, Control_c, 0, 11, 100
2, 570, Control_c, 0, 10, 64
2, 666, Control_c, 0, 1, 0
2, 666, Control_c, 0, 91, 80
2, 675, Control_c, 0, 99, 1
2, 677, Control_c, 0, 98, 32
2, 679, Control_c, 0, 6, 62
2, 681, Control_c, 0, 99, 1
2, 683, Control_c, 0, 98, 33
2, 685, Control_c, 0, 6, 54
2, 687, Control_c, 0, 99, 1
2, 689, Control_c, 0, 98, 99
2, 691, Control_c, 0, 6, 62
2, 693, Control_c, 0, 99, 1
2, 695, Control_c, 0, 98, 100
2, 697, Control_c, 0, 6, 60
2, 699, Control_c, 0, 99, 1
2, 701, Control_c, 0, 98, 102
2, 703, Control_c, 0, 6, 70
2, 1300, Control_c, 0, 64, 63
2, 1305, Control_c, 0, 64, 127
2, 1327, Note_on_c, 0, 75, 101
2, 1339, Note_on_c, 0, 64, 86
2, 1342, Note_on_c, 0, 57, 76
2, 1342, Note_on_c, 0, 60, 85
2, 1363, Note_on_c, 0, 76, 100
2, 1372, Note_on_c, 0, 75, 0
2, 1401, Note_on_c, 0, 64, 0
2, 1404, Note_on_c, 0, 60, 0
2, 1412, Note_on_c, 0, 57, 0
2, 1480, Note_on_c, 0, 57, 59
2, 1480, Note_on_c, 0, 64, 63
2, 1483, Note_on_c, 0, 60, 70
2, 1534, Note_on_c, 0, 60, 0
2, 1536, Note_on_c, 0, 64, 0
2, 1544, Note_on_c, 0, 57, 0
2, 1564, Note_on_c, 0, 76, 0
2, 1595, Note_on_c, 0, 64, 68
2, 1597, Note_on_c, 0, 76, 108
2, 1599, Note_on_c, 0, 57, 57
2, 1600, Note_on_c, 0, 60, 69
2, 1636, Note_on_c, 0, 60, 0
2, 1638, Note_on_c, 0, 64, 0
2, 1646, Note_on_c, 0, 57, 0
2, 1659, Note_on_c, 0, 76, 0
2, 1699, Note_on_c, 0, 64, 68
2, 1700, Note_on_c, 0, 57, 59
2, 1704, Note_on_c, 0, 60, 70
2, 1744, Note_on_c, 0, 60, 0
2, 1746, Note_on_c, 0, 64, 0
2, 1758, Note_on_c, 0, 57, 0
2, 1765, Note_on_c, 0, 76, 100
2, 1794, Note_on_c, 0, 76, 0
2, 1819, Note_on_c, 0, 76, 109
2, 1825, Note_on_c, 0, 64, 70
2, 1826, Note_on_c, 0, 57, 62
2, 1830, Note_on_c, 0, 60, 68
2, 1852, Note_on_c, 0, 60, 0
2, 1855, Note_on_c, 0, 76, 0
2, 1858, Note_on_c, 0, 64, 0
2, 1862, Note_on_c, 0, 57, 0
2, 1924, Note_on_c, 0, 64, 75
2, 1927, Note_on_c, 0, 57, 59
2, 1929, Note_on_c, 0, 60, 71
2, 1961, Note_on_c, 0, 60, 0
2, 1973, Note_on_c, 0, 64, 0
2, 1976, Note_on_c, 0, 57, 0
2, 2038, Note_on_c, 0, 72, 109
2, 2043, Note_on_c, 0, 57, 61
2, 2043, Note_on_c, 0, 64, 67
2, 2047, Note_on_c, 0, 60, 68
2, 2074, Note_on_c, 0, 72, 0
2, 2074, Note_on_c, 0, 60, 0
2, 2081, Note_on_c, 0, 64, 0
2, 2089, Note_on_c, 0, 57, 0
2, 2142, Note_on_c, 0, 57, 68
2, 2149, Note_on_c, 0, 60, 71
2, 2151, Note_on_c, 0, 64, 63
2, 2199, Note_on_c, 0, 60, 0
2, 2200, Note_on_c, 0, 57, 0
2, 2207, Note_on_c, 0, 64, 0
2, 2211, Note_on_c, 0, 69, 79
2, 2235, Note_on_c, 0, 69, 0
2, 2253, Control_c, 0, 64, 63
2, 2256, Note_on_c, 0, 69, 93
2, 2259, Control_c, 0, 64, 0
2, 2271, Note_on_c, 0, 64, 75
2, 2272, Note_on_c, 0, 62, 77
2, 2277, Note_on_c, 0, 57, 55
2, 2277, Note_on_c, 0, 59, 59
2, 2322, Note_on_c, 0, 64, 0
2, 2324, Note_on_c, 0, 59, 0
2, 2324, Control_c, 0, 64, 63
2, 2325, Note_on_c, 0, 62, 0
2, 2331, Control_c, 0, 64, 127
2, 2338, Note_on_c, 0, 57, 0
2, 2374, Note_on_c, 0, 57, 55
2, 2378, Note_on_c, 0, 62, 65
2, 2379, Note_on_c, 0, 64, 58
2, 2382, Note_on_c, 0, 68, 100
2, 2384, Note_on_c, 0, 59, 60
2, 2397, Note_on_c, 0, 69, 0
2, 2424, Note_on_c, 0, 62, 0
2, 2426, Note_on_c, 0, 64, 0
2, 2429, Note_on_c, 0, 59, 0
2, 2433, Note_on_c, 0, 68, 0
2, 2439, Note_on_c, 0, 57, 0
2, 2483, Note_on_c, 0, 68, 95
2, 2486, Note_on_c, 0, 64, 61
2, 2486, Note_on_c, 0, 62, 68
2, 2487, Note_on_c, 0, 59, 55
2, 2488, Note_on_c, 0, 57, 36
2, 2490, Control_c, 0, 64, 63
2, 2493, Control_c, 0, 64, 0
2, 2526, Note_on_c, 0, 64, 0
2, 2526, Note_on_c, 0, 62, 0
2, 2529, Note_on_c, 0, 59, 0
2, 2539, Note_on_c, 0, 57, 0
2, 2589, Note_on_c, 0, 64, 66
2, 2590, Note_on_c, 0, 62, 71
2, 2593, Note_on_c, 0, 57, 34
2, 2594, Note_on_c, 0, 59, 57
2, 2626, Note_on_c, 0, 59, 0
2, 2628, Note_on_c, 0, 62, 0
2, 2631, Note_on_c, 0, 64, 0
2, 2633, Note_on_c, 0, 57, 0
2, 2697, Note_on_c, 0, 64, 66
2, 2697, Note_on_c, 0, 57, 54
2, 2700, Note_on_c, 0, 62, 69
2, 2705, Note_on_c, 0, 59, 51
2, 2708, Control_c, 0, 64, 127
2, 2730, Note_on_c, 0, 62, 0
2, 2730, Note_on_c, 0, 59, 0
2, 2735, Note_on_c, 0, 64, 0
2, 2742, Note_on_c, 0, 57, 0
2, 2795, Note_on_c, 0, 68, 0
2, 2801, Note_on_c, 0, 57, 51
2, 2802, Note_on_c, 0, 64, 64
2, 2806, Note_on_c, 0, 62, 68
2, 2807, Note_on_c, 0, 59, 60
2, 2842, Note_on_c, 0, 62, 0
2, 2845, Note_on_c, 0, 64, 0
2, 2848, Note_on_c, 0, 59, 0
2, 2853, Note_on_c, 0, 57, 0
2, 2860, Control_c, 0, 64, 63
2, 2865, Control_c, 0, 64, 0
2, 2915, Control_c, 0, 64, 63
2, 2918, Note_on_c, 0, 74, 104
2, 2921, Note_on_c, 0, 64, 70
2, 2922, Note_on_c, 0, 62, 72
2, 2923, Note_on_c, 0, 57, 53
2, 2923, Note_on_c, 0, 59, 65
2, 2925, Control_c, 0, 64, 127
2, 2956, Note_on_c, 0, 64, 0
2, 2956, Note_on_c, 0, 62, 0
2, 2957, Note_on_c, 0, 74, 0
2, 2963, Note_on_c, 0, 59, 0
2, 2966, Note_on_c, 0, 57, 0
2, 3027, Note_on_c, 0, 59, 68
2, 3027, Note_on_c, 0, 64, 71
2, 3030, Note_on_c, 0, 57, 50
2, 3030, Note_on_c, 0, 62, 71
2, 3070, Note_on_c, 0, 64, 0
2, 3072, Note_on_c, 0, 62, 0
2, 3075, Note_on_c, 0, 59, 0
2, 3079, Note_on_c, 0, 57, 0
2, 3080, Note_on_c, 0, 71, 100
2, 3082, Control_c, 0, 64, 63
2, 3086, Control_c, 0, 64, 0
2, 3118, Note_on_c, 0, 71, 0
2, 3128, Note_on_c, 0, 76, 103
2, 3140, Note_on_c, 0, 57, 74
2, 3140, Note_on_c, 0, 64, 83
2, 3142, Note_on_c, 0, 60, 81
2, 3170, Control_c, 0, 64, 63
2, 3173, Control_c, 0, 64, 127
2, 3186, Note_on_c, 0, 64, 0
2, 3186, Note_on_c, 0, 60, 0
2, 3195, Note_on_c, 0, 57, 0
2, 3256, Note_on_c, 0, 57, 43
2, 3257, Note_on_c, 0, 60, 66
2, 3257, Note_on_c, 0, 64, 60
2, 3297, Note_on_c, 0, 76, 0
2, 3297, Note_on_c, 0, 60, 0
2, 3301, Note_on_c, 0, 64, 0
2, 3309, Note_on_c, 0, 57, 0
2, 3359, Note_on_c, 0, 76, 106
2, 3364, Note_on_c, 0, 60, 76
2, 3367, Note_on_c, 0, 57, 43
2, 3368, Note_on_c, 0, 64, 64
2, 3398, Note_on_c, 0, 76, 0
2, 3404, Note_on_c, 0, 60, 0
2, 3405, Note_on_c, 0, 64, 0
2, 3409, Note_on_c, 0, 57, 0
2, 3478, Note_on_c, 0, 60, 93
2, 3478, Note_on_c, 0, 57, 78
2, 3482, Note_on_c, 0, 64, 82
2, 3518, Note_on_c, 0, 76, 108
2, 3522, Note_on_c, 0, 60, 0
2, 3523, Note_on_c, 0, 64, 0
2, 3528, Note_on_c, 0, 57, 0
2, 3542, Note_on_c, 0, 76, 0
2, 3569, Note_on_c, 0, 76, 104
2, 3586, Note_on_c, 0, 60, 88
2, 3588, Note_on_c, 0, 64, 82
2, 3589, Note_on_c, 0, 57, 60
2, 3604, Note_on_c, 0, 76, 0
2, 3621, Note_on_c, 0, 60, 0
2, 3623, Note_on_c, 0, 64, 0
2, 3626, Note_on_c, 0, 57, 0
2, 3690, Note_on_c, 0, 57, 60
2, 3690, Note_on_c, 0, 60, 84
2, 3692, Note_on_c, 0, 64, 71
2, 3696, Note_on_c, 0, 77, 99
2, 3717, Control_c, 0, 64, 63
2, 3721, Note_on_c, 0, 64, 0
2, 3723, Control_c, 0, 64, 0
2, 3725, Note_on_c, 0, 60, 0
2, 3730, Note_on_c, 0, 57, 0
2, 3738, Note_on_c, 0, 76, 102
2, 3746, Note_on_c, 0, 77, 0
2, 3787, Note_on_c, 0, 57, 51
2, 3788, Note_on_c, 0, 60, 76
2, 3789, Note_on_c, 0, 76, 0
2, 3789, Note_on_c, 0, 74, 92
2, 3790, Note_on_c, 0, 64, 65
2, 3820, Note_on_c, 0, 64, 0
2, 3823, Note_on_c, 0, 60, 0
2, 3824, Note_on_c, 0, 57, 0
2, 3833, Note_on_c, 0, 74, 0
2, 3844, Note_on_c, 0, 72, 88
2, 3881, Note_on_c, 0, 60, 63
2, 3883, Note_on_c, 0, 57, 44
2, 3883, Note_on_c, 0, 71, 88
2, 3886, Note_on_c, 0, 64, 61
2, 3895, Note_on_c, 0, 72, 0
2, 3922, Note_on_c, 0, 60, 0
2, 3924, Note_on_c, 0, 64, 0
2, 3928, Note_on_c, 0, 69, 84
2, 3931, Note_on_c, 0, 71, 0
2, 3936, Note_on_c, 0, 57, 0
2, 3962, Note_on_c, 0, 69, 0
2, 3983, Note_on_c, 0, 69, 101
2, 3986, Note_on_c, 0, 57, 59
2, 3988, Note_on_c, 0, 59, 76
2, 3990, Note_on_c, 0, 62, 82
2, 3990, Note_on_c, 0, 64, 73
2, 3995, Control_c, 0, 64, 63
2, 3996, Control_c, 0, 64, 127
2, 4027, Note_on_c, 0, 62, 0
2, 4033, Note_on_c, 0, 64, 0
2, 4039, Note_on_c, 0, 59, 0
2, 4044, Note_on_c, 0, 57, 0
2, 4080, Note_on_c, 0, 69, 0
2, 4101, Note_on_c, 0, 68, 96
2, 4108, Note_on_c, 0, 62, 68
2, 4110, Note_on_c, 0, 59, 59
2, 4110, Note_on_c, 0, 57, 44
2, 4111, Note_on_c, 0, 64, 53
2, 4131, Control_c, 0, 64, 63
2, 4138, Control_c, 0, 64, 0
2, 4140, Note_on_c, 0, 68, 0
2, 4144, Note_on_c, 0, 62, 0
2, 4145, Note_on_c, 0, 64, 0
2, 4150, Note_on_c, 0, 59, 0
2, 4154, Note_on_c, 0, 57, 0
2, 4208, Note_on_c, 0, 68, 89
2, 4220, Note_on_c, 0, 62, 65
2, 4221, Note_on_c, 0, 64, 60
2, 4222, Note_on_c, 0, 57, 42
2, 4225, Note_on_c, 0, 59, 64
2, 4259, Note_on_c, 0, 62, 0
2, 4260, Note_on_c, 0, 64, 0
2, 4262, Note_on_c, 0, 59, 0
2, 4270, Note_on_c, 0, 57, 0
2, 4325, Note_on_c, 0, 64, 54
2, 4327, Note_on_c, 0, 62, 61
2, 4327, Note_on_c, 0, 57, 36
2, 4329, Note_on_c, 0, 59, 60
2, 4361, Note_on_c, 0, 62, 0
2, 4365, Note_on_c, 0, 64, 0
2, 4367, Note_on_c, 0, 59, 0
2, 4371, Note_on_c, 0, 57, 0
2, 4437, Note_on_c, 0, 64, 71
2, 4440, Note_on_c, 0, 62, 68
2, 4441, Note_on_c, 0, 57, 48
2, 4442, Note_on_c, 0, 59, 57
2, 4467, Note_on_c, 0, 62, 0
2, 4471, Note_on_c, 0, 64, 0
2, 4472, Note_on_c, 0, 59, 0
2, 4476, Note_on_c, 0, 57, 0
2, 4537, Note_on_c, 0, 64, 57
2, 4538, Note_on_c, 0, 62, 65
2, 4538, Note_on_c, 0, 57, 35
2, 4541, Note_on_c, 0, 59, 53
2, 4552, Note_on_c, 0, 68, 0
2, 4574, Note_on_c, 0, 62, 0
2, 4574, Note_on_c, 0, 59, 0
2, 4577, Note_on_c, 0, 64, 0
2, 4579, Note_on_c, 0, 57, 0
2, 4646, Note_on_c, 0, 74, 103
2, 4651, Note_on_c, 0, 64, 62
2, 4654, Control_c, 0, 64, 63
2, 4654, Note_on_c, 0, 62, 68
2, 4655, Control_c, 0, 64, 127
2, 4656, Note_on_c, 0, 59, 51
2, 4657, Note_on_c, 0, 57, 40
2, 4679, Note_on_c, 0, 74, 0
2, 4684, Note_on_c, 0, 62, 0
2, 4686, Note_on_c, 0, 64, 0
2, 4692, Note_on_c, 0, 59, 0
2, 4694, Note_on_c, 0, 57, 0
2, 4754, Note_on_c, 0, 64, 63
2, 4757, Note_on_c, 0, 59, 51
2, 4758, Note_on_c, 0, 62, 64
2, 4763, Note_on_c, 0, 57, 36
2, 4805, Note_on_c, 0, 64, 0
2, 4807, Note_on_c, 0, 57, 0
2, 4808, Note_on_c, 0, 62, 0
2, 4810, Note_on_c, 0, 59, 0
2, 4810, Note_on_c, 0, 71, 94
2, 4819, Control_c, 0, 64, 63
2, 4829, Control_c, 0, 64, 0
2, 4842, Note_on_c, 0, 71, 0
2, 4862, Control_c, 0, 64, 63
2, 4866, Note_on_c, 0, 60, 76
2, 4867, Note_on_c, 0, 76, 94
2, 4868, Note_on_c, 0, 72, 96
2, 4869, Note_on_c, 0, 57, 53
2, 4878, Control_c, 0, 64, 127
2, 4889, Note_on_c, 0, 60, 0
2, 4917, Note_on_c, 0, 57, 0
2, 4975, Note_on_c, 0, 72, 0
2, 4983, Note_on_c, 0, 57, 86
2, 4986, Note_on_c, 0, 76, 0
2, 5030, Note_on_c, 0, 57, 0
2, 5044, Note_on_c, 0, 72, 89
2, 5048, Note_on_c, 0, 69, 72
2, 5066, Note_on_c, 0, 72, 0
2, 5069, Note_on_c, 0, 69, 0
2, 5079, Control_c, 0, 64, 63
2, 5085, Control_c, 0, 64, 0
2, 5089, Note_on_c, 0, 52, 81
2, 5096, Note_on_c, 0, 72, 84
2, 5099, Note_on_c, 0, 76, 97
2, 5127, Note_on_c, 0, 52, 0
2, 5192, Note_on_c, 0, 48, 59
2, 5248, Control_c, 0, 64, 63
2, 5252, Control_c, 0, 64, 127
2, 5271, Note_on_c, 0, 48, 0
2, 5317, Note_on_c, 0, 72, 0
2, 5318, Note_on_c, 0, 45, 59
2, 5342, Note_on_c, 0, 76, 0
2, 5368, Note_on_c, 0, 45, 0
2, 5424, Note_on_c, 0, 72, 80
2, 5427, Note_on_c, 0, 69, 60
2, 5455, Note_on_c, 0, 69, 0
2, 5463, Note_on_c, 0, 72, 0
2, 5499, Control_c, 0, 64, 63
2, 5508, Control_c, 0, 64, 0
2, 5530, Note_on_c, 0, 74, 78
2, 5539, Note_on_c, 0, 71, 57
2, 5564, Note_on_c, 0, 71, 0
2, 5573, Note_on_c, 0, 74, 0
2, 5626, Note_on_c, 0, 72, 82
2, 5628, Note_on_c, 0, 76, 83
2, 5656, Note_on_c, 0, 72, 0
2, 5682, Note_on_c, 0, 76, 0
2, 5769, Note_on_c, 0, 76, 81
2, 5773, Note_on_c, 0, 73, 79
2, 5778, Control_c, 0, 64, 63
2, 5780, Control_c, 0, 64, 127
2, 5854, Note_on_c, 0, 73, 0
2, 5996, Note_on_c, 0, 76, 0
2, 6008, Note_on_c, 0, 77, 66
2, 6008, Note_on_c, 0, 62, 41
2, 6009, Note_on_c, 0, 74, 54
2, 6009, Note_on_c, 0, 57, 35
2, 6009, Note_on_c, 0, 60, 48
2, 6020, Note_on_c, 0, 53, 34
2, 6081, Control_c, 0, 64, 63
2, 6116, Control_c, 0, 64, 127
2, 6160, Note_on_c, 0, 60, 0
2, 6180, Note_on_c, 0, 77, 0
2, 6183, Note_on_c, 0, 62, 0
2, 6187, Note_on_c, 0, 74, 0
2, 6207, Note_on_c, 0, 57, 0
2, 6236, Note_on_c, 0, 53, 0
2, 6242, Note_on_c, 0, 62, 64
2, 6244, Note_on_c, 0, 59, 67
2, 6247, Note_on_c, 0, 55, 57
2, 6291, Control_c, 0, 64, 63
2, 6297, Control_c, 0, 64, 0
2, 6345, Note_on_c, 0, 71, 84
2, 6351, Note_on_c, 0, 67, 60
2, 6378, Note_on_c, 0, 67, 0
2, 6389, Note_on_c, 0, 71, 0
2, 6451, Note_on_c, 0, 72, 87
2, 6456, Note_on_c, 0, 69, 71
2, 6468, Note_on_c, 0, 62, 0
2, 6479, Note_on_c, 0, 69, 0
2, 6482, Note_on_c, 0, 59, 0
2, 6489, Note_on_c, 0, 55, 0
2, 6493, Note_on_c, 0, 72, 0
2, 6551, Note_on_c, 0, 74, 87
2, 6553, Note_on_c, 0, 71, 85
2, 6577, Note_on_c, 0, 71, 0
2, 6602, Note_on_c, 0, 74, 0
2, 6692, Note_on_c, 0, 75, 83
2, 6695, Note_on_c, 0, 71, 65
2, 6698, Control_c, 0, 64, 63
2, 6700, Control_c, 0, 64, 127
2, 6824, Note_on_c, 0, 71, 0
2, 6834, Note_on_c, 0, 75, 0
2, 6930, Note_on_c, 0, 60, 31
2, 6930, Note_on_c, 0, 72, 55
2, 6935, Note_on_c, 0, 76, 56
2, 6935, Note_on_c, 0, 59, 35
2, 6938, Note_on_c, 0, 55, 37
2, 6943, Note_on_c, 0, 52, 40
2, 6985, Control_c, 0, 64, 63
2, 6989, Control_c, 0, 64, 0
2, 7040, Control_c, 0, 64, 63
2, 7049, Control_c, 0, 64, 127
2, 7094, Note_on_c, 0, 59, 0
2, 7114, Note_on_c, 0, 60, 0
2, 7125, Note_on_c, 0, 76, 0
2, 7129, Note_on_c, 0, 72, 0
2, 7129, Note_on_c, 0, 55, 0
2, 7174, Note_on_c, 0, 52, 0
2, 7174, Note_on_c, 0, 57, 48
2, 7177, Note_on_c, 0, 60, 50
2, 7183, Note_on_c, 0, 53, 46
2, 7250, Control_c, 0, 64, 63
2, 7255, Control_c, 0, 64, 0
2, 7278, Note_on_c, 0, 69, 69
2, 7281, Note_on_c, 0, 65, 59
2, 7309, Note_on_c, 0, 65, 0
2, 7317, Note_on_c, 0, 69, 0
2, 7342, Note_on_c, 0, 60, 0
2, 7349, Note_on_c, 0, 57, 0
2, 7357, Note_on_c, 0, 53, 0
2, 7385, Note_on_c, 0, 68, 84
2, 7385, Note_on_c, 0, 71, 83
2, 7416, Note_on_c, 0, 68, 0
2, 7430, Note_on_c, 0, 71, 0
2, 7497, Note_on_c, 0, 69, 64
2, 7501, Note_on_c, 0, 72, 75
2, 7522, Note_on_c, 0, 69, 0
2, 7544, Control_c, 0, 64, 63
2, 7547, Control_c, 0, 64, 127
2, 7554, Note_on_c, 0, 72, 0
2, 7618, Note_on_c, 0, 72, 98
2, 7657, Note_on_c, 0, 72, 0
2, 7806, Note_on_c, 0, 71, 82
2, 7851, Note_on_c, 0, 59, 39
2, 7853, Note_on_c, 0, 53, 41
2, 7854, Note_on_c, 0, 50, 48
2, 7856, Note_on_c, 0, 77, 94
2, 7860, Note_on_c, 0, 71, 0
2, 7904, Control_c, 0, 64, 63
2, 7912, Control_c, 0, 64, 0
2, 7956, Control_c, 0, 64, 63
2, 7972, Control_c, 0, 64, 127
2, 8022, Note_on_c, 0, 59, 0
2, 8043, Note_on_c, 0, 74, 85
2, 8061, Note_on_c, 0, 77, 0
2, 8067, Note_on_c, 0, 53, 0
2, 8088, Note_on_c, 0, 57, 70
2, 8090, Note_on_c, 0, 50, 0
2, 8091, Note_on_c, 0, 52, 59
2, 8093, Note_on_c, 0, 72, 98
2, 8099, Note_on_c, 0, 60, 70
2, 8115, Note_on_c, 0, 74, 0
2, 8127, Control_c, 0, 64, 63
2, 8137, Control_c, 0, 64, 0
2, 8157, Control_c, 0, 64, 63
2, 8179, Control_c, 0, 64, 127
2, 8263, Note_on_c, 0, 52, 0
2, 8268, Note_on_c, 0, 60, 0
2, 8269, Note_on_c, 0, 76, 98
2, 8281, Note_on_c, 0, 72, 0
2, 8325, Note_on_c, 0, 74, 99
2, 8336, Note_on_c, 0, 56, 89
2, 8339, Note_on_c, 0, 59, 85
2, 8340, Control_c, 0, 64, 63
2, 8349, Control_c, 0, 64, 0
2, 8351, Note_on_c, 0, 52, 63
2, 8353, Note_on_c, 0, 57, 0
2, 8362, Note_on_c, 0, 76, 0
2, 8399, Control_c, 0, 64, 63
2, 8412, Control_c, 0, 64, 127
2, 8503, Note_on_c, 0, 56, 0
2, 8509, Note_on_c, 0, 59, 0
2, 8516, Note_on_c, 0, 74, 0
2, 8535, Note_on_c, 0, 71, 86
2, 8553, Note_on_c, 0, 52, 0
2, 8584, Note_on_c, 0, 71, 0
2, 8621, Note_on_c, 0, 75, 105
2, 8640, Note_on_c, 0, 60, 75
2, 8641, Note_on_c, 0, 64, 76
2, 8642, Note_on_c, 0, 57, 59
2, 8654, Control_c, 0, 64, 63
2, 8656, Note_on_c, 0, 76, 104
2, 8663, Control_c, 0, 64, 0
2, 8678, Note_on_c, 0, 75, 0
2, 8695, Control_c, 0, 64, 63
2, 8713, Control_c, 0, 64, 127
2, 8744, Note_on_c, 0, 60, 0
2, 8748, Note_on_c, 0, 64, 0
2, 8750, Note_on_c, 0, 57, 0
2, 8795, Note_on_c, 0, 64, 69
2, 8797, Note_on_c, 0, 60, 71
2, 8798, Note_on_c, 0, 57, 44
2, 8855, Note_on_c, 0, 76, 0
2, 8857, Note_on_c, 0, 64, 0
2, 8858, Note_on_c, 0, 60, 0
2, 8865, Note_on_c, 0, 57, 0
2, 8895, Note_on_c, 0, 76, 112
2, 8903, Note_on_c, 0, 64, 68
2, 8907, Note_on_c, 0, 57, 35
2, 8909, Note_on_c, 0, 60, 60
2, 8934, Note_on_c, 0, 60, 0
2, 8944, Note_on_c, 0, 76, 0
2, 8944, Note_on_c, 0, 64, 0
2, 8945, Note_on_c, 0, 57, 0
2, 8994, Note_on_c, 0, 64, 83
2, 8999, Note_on_c, 0, 57, 64
2, 9000, Note_on_c, 0, 60, 81
2, 9039, Note_on_c, 0, 60, 0
2, 9041, Note_on_c, 0, 64, 0
2, 9047, Note_on_c, 0, 76, 103
2, 9050, Note_on_c, 0, 57, 0
2, 9080, Note_on_c, 0, 76, 0
2, 9094, Note_on_c, 0, 76, 104
2, 9107, Note_on_c, 0, 64, 72
2, 9110, Note_on_c, 0, 57, 50
2, 9111, Note_on_c, 0, 60, 69
2, 9127, Note_on_c, 0, 76, 0
2, 9142, Note_on_c, 0, 60, 0
2, 9147, Note_on_c, 0, 64, 0
2, 9151, Note_on_c, 0, 57, 0
2, 9214, Note_on_c, 0, 64, 72
2, 9220, Note_on_c, 0, 60, 66
2, 9221, Note_on_c, 0, 57, 46
2, 9226, Note_on_c, 0, 77, 101
2, 9251, Note_on_c, 0, 60, 0
2, 9256, Note_on_c, 0, 64, 0
2, 9259, Note_on_c, 0, 57, 0
2, 9272, Note_on_c, 0, 76, 93
2, 9279, Note_on_c, 0, 77, 0
2, 9322, Note_on_c, 0, 74, 91
2, 9322, Note_on_c, 0, 64, 67
2, 9324, Note_on_c, 0, 76, 0
2, 9328, Note_on_c, 0, 60, 61
2, 9330, Note_on_c, 0, 57, 41
2, 9356, Note_on_c, 0, 60, 0
2, 9357, Note_on_c, 0, 64, 0
2, 9365, Note_on_c, 0, 57, 0
2, 9371, Note_on_c, 0, 72, 89
2, 9372, Note_on_c, 0, 74, 0
2, 9407, Note_on_c, 0, 57, 40
2, 9409, Note_on_c, 0, 64, 70
2, 9411, Note_on_c, 0, 71, 100
2, 9414, Note_on_c, 0, 60, 68
2, 9428, Note_on_c, 0, 72, 0
2, 9445, Note_on_c, 0, 57, 0
2, 9453, Note_on_c, 0, 60, 0
2, 9460, Note_on_c, 0, 64, 0
2, 9460, Note_on_c, 0, 69, 86
2, 9462, Note_on_c, 0, 71, 0
2, 9498, Note_on_c, 0, 69, 0
2, 9520, Note_on_c, 0, 69, 97
2, 9531, Control_c, 0, 64, 63
2, 9531, Note_on_c, 0, 62, 78
2, 9532, Note_on_c, 0, 65, 79
2, 9536, Note_on_c, 0, 59, 66
2, 9538, Control_c, 0, 64, 0
2, 9541, Note_on_c, 0, 57, 41
2, 9581, Note_on_c, 0, 62, 0
2, 9585, Note_on_c, 0, 65, 0
2, 9588, Note_on_c, 0, 59, 0
2, 9595, Note_on_c, 0, 57, 0
2, 9640, Note_on_c, 0, 68, 100
2, 9641, Note_on_c, 0, 57, 48
2, 9643, Note_on_c, 0, 59, 68
2, 9645, Note_on_c, 0, 65, 61
2, 9645, Note_on_c, 0, 62, 70
2, 9652, Note_on_c, 0, 69, 0
2, 9679, Note_on_c, 0, 68, 0
2, 9683, Note_on_c, 0, 62, 0
2, 9685, Note_on_c, 0, 65, 0
2, 9689, Note_on_c, 0, 59, 0
2, 9697, Note_on_c, 0, 57, 0
2, 9755, Note_on_c, 0, 68, 97
2, 9756, Note_on_c, 0, 65, 72
2, 9760, Note_on_c, 0, 57, 49
2, 9760, Note_on_c, 0, 59, 55
2, 9761, Note_on_c, 0, 62, 63
2, 9796, Note_on_c, 0, 62, 0
2, 9796, Control_c, 0, 64, 63
2, 9797, Control_c, 0, 64, 127
2, 9802, Note_on_c, 0, 59, 0
2, 9803, Note_on_c, 0, 65, 0
2, 9810, Note_on_c, 0, 57, 0
2, 9865, Note_on_c, 0, 65, 67
2, 9869, Note_on_c, 0, 57, 46
2, 9870, Note_on_c, 0, 59, 59
2, 9871, Note_on_c, 0, 62, 65
2, 9904, Note_on_c, 0, 62, 0
2, 9912, Note_on_c, 0, 65, 0
2, 9912, Note_on_c, 0, 59, 0
2, 9919, Note_on_c, 0, 57, 0
2, 9945, Note_on_c, 0, 68, 0
2, 9978, Note_on_c, 0, 65, 70
2, 9982, Note_on_c, 0, 57, 42
2, 9983, Note_on_c, 0, 59, 51
2, 9984, Note_on_c, 0, 62, 61
2, 10011, Note_on_c, 0, 62, 0
2, 10013, Note_on_c, 0, 59, 0
2, 10014, Note_on_c, 0, 65, 0
2, 10018, Note_on_c, 0, 57, 0
2, 10083, Note_on_c, 0, 65, 59
2, 10090, Note_on_c, 0, 62, 41
2, 10091, Note_on_c, 0, 59, 43
2, 10091, Note_on_c, 0, 57, 27
2, 10125, Note_on_c, 0, 65, 0
2, 10125, Note_on_c, 0, 62, 0
2, 10125, Note_on_c, 0, 59, 0
2, 10129, Note_on_c, 0, 57, 0
2, 10137, Note_on_c, 0, 68, 95
2, 10189, Note_on_c, 0, 68, 0
2, 10190, Control_c, 0, 64, 63
2, 10191, Note_on_c, 0, 74, 94
2, 10196, Control_c, 0, 64, 0
2, 10197, Note_on_c, 0, 65, 65
2, 10197, Note_on_c, 0, 59, 65
2, 10198, Note_on_c, 0, 62, 75
2, 10200, Note_on_c, 0, 57, 46
2, 10236, Note_on_c, 0, 65, 0
2, 10239, Note_on_c, 0, 62, 0
2, 10239, Note_on_c, 0, 57, 0
2, 10243, Note_on_c, 0, 59, 0
2, 10309, Note_on_c, 0, 65, 73
2, 10312, Note_on_c, 0, 57, 54
2, 10314, Note_on_c, 0, 59, 57
2, 10315, Note_on_c, 0, 62, 68
2, 10354, Note_on_c, 0, 74, 0
2, 10356, Note_on_c, 0, 65, 0
2, 10360, Note_on_c, 0, 71, 94
2, 10366, Note_on_c, 0, 59, 0
2, 10369, Note_on_c, 0, 57, 0
2, 10374, Note_on_c, 0, 62, 0
2, 10398, Note_on_c, 0, 71, 0
2, 10414, Note_on_c, 0, 76, 111
2, 10420, Note_on_c, 0, 60, 85
2, 10424, Note_on_c, 0, 57, 54
2, 10431, Note_on_c, 0, 64, 48
2, 10438, Control_c, 0, 64, 63
2, 10439, Control_c, 0, 64, 127
2, 10465, Note_on_c, 0, 60, 0
2, 10465, Note_on_c, 0, 64, 0
2, 10476, Note_on_c, 0, 57, 0
2, 10532, Note_on_c, 0, 60, 82
2, 10534, Note_on_c, 0, 57, 58
2, 10536, Note_on_c, 0, 64, 71
2, 10552, Note_on_c, 0, 76, 0
2, 10572, Note_on_c, 0, 60, 0
2, 10574, Note_on_c, 0, 64, 0
2, 10586, Note_on_c, 0, 57, 0
2, 10635, Note_on_c, 0, 60, 84
2, 10636, Note_on_c, 0, 76, 101
2, 10641, Note_on_c, 0, 57, 52
2, 10642, Note_on_c, 0, 64, 66
2, 10670, Note_on_c, 0, 76, 0
2, 10671, Note_on_c, 0, 64, 0
2, 10675, Note_on_c, 0, 60, 0
2, 10679, Note_on_c, 0, 57, 0
2, 10750, Note_on_c, 0, 60, 72
2, 10753, Note_on_c, 0, 64, 73
2, 10756, Note_on_c, 0, 57, 50
2, 10789, Note_on_c, 0, 64, 0
2, 10790, Note_on_c, 0, 60, 0
2, 10795, Note_on_c, 0, 76, 88
2, 10796, Note_on_c, 0, 57, 0
2, 10845, Note_on_c, 0, 60, 88
2, 10850, Note_on_c, 0, 57, 65
2, 10852, Note_on_c, 0, 64, 75
2, 10856, Note_on_c, 0, 75, 114
2, 10857, Note_on_c, 0, 76, 0
2, 10865, Control_c, 0, 64, 63
2, 10871, Control_c, 0, 64, 0
2, 10882, Note_on_c, 0, 64, 0
2, 10886, Note_on_c, 0, 60, 0
2, 10899, Note_on_c, 0, 57, 0
2, 10906, Note_on_c, 0, 76, 97
2, 10915, Note_on_c, 0, 75, 0
2, 10946, Note_on_c, 0, 60, 73
2, 10946, Note_on_c, 0, 57, 39
2, 10955, Note_on_c, 0, 64, 57
2, 10967, Note_on_c, 0, 77, 98
2, 10984, Note_on_c, 0, 64, 0
2, 10986, Note_on_c, 0, 76, 0
2, 10986, Note_on_c, 0, 60, 0
2, 11000, Note_on_c, 0, 57, 0
2, 11007, Note_on_c, 0, 76, 84
2, 11049, Note_on_c, 0, 57, 58
2, 11050, Note_on_c, 0, 60, 73
2, 11054, Note_on_c, 0, 64, 62
2, 11056, Note_on_c, 0, 77, 0
2, 11060, Note_on_c, 0, 74, 96
2, 11080, Note_on_c, 0, 60, 0
2, 11082, Note_on_c, 0, 64, 0
2, 11092, Note_on_c, 0, 76, 0
2, 11092, Note_on_c, 0, 57, 0
2, 11109, Note_on_c, 0, 72, 94
2, 11129, Note_on_c, 0, 74, 0
2, 11142, Note_on_c, 0, 57, 83
2, 11145, Note_on_c, 0, 60, 83
2, 11149, Note_on_c, 0, 64, 71
2, 11157, Note_on_c, 0, 71, 92
2, 11165, Note_on_c, 0, 72, 0
2, 11182, Note_on_c, 0, 60, 0
2, 11195, Note_on_c, 0, 64, 0
2, 11201, Note_on_c, 0, 71, 0
2, 11202, Note_on_c, 0, 57, 0
2, 11207, Note_on_c, 0, 69, 103
2, 11259, Note_on_c, 0, 72, 102
2, 11275, Note_on_c, 0, 58, 71
2, 11276, Note_on_c, 0, 64, 68
2, 11277, Note_on_c, 0, 69, 0
2, 11277, Note_on_c, 0, 60, 70
2, 11281, Note_on_c, 0, 55, 49
2, 11318, Note_on_c, 0, 60, 0
2, 11320, Note_on_c, 0, 64, 0
2, 11323, Note_on_c, 0, 58, 0
2, 11324, Note_on_c, 0, 55, 0
2, 11325, Control_c, 0, 64, 63
2, 11327, Control_c, 0, 64, 127
2, 11380, Note_on_c, 0, 70, 94
2, 11389, Note_on_c, 0, 64, 57
2, 11391, Note_on_c, 0, 55, 39
2, 11391, Note_on_c, 0, 58, 61
2, 11393, Note_on_c, 0, 60, 57
2, 11397, Note_on_c, 0, 72, 0
2, 11421, Note_on_c, 0, 60, 0
2, 11422, Note_on_c, 0, 70, 0
2, 11424, Note_on_c, 0, 64, 0
2, 11429, Note_on_c, 0, 55, 0
2, 11431, Note_on_c, 0, 58, 0
2, 11447, Control_c, 0, 64, 63
2, 11452, Control_c, 0, 64, 0
2, 11490, Note_on_c, 0, 70, 98
2, 11495, Note_on_c, 0, 64, 68
2, 11499, Note_on_c, 0, 58, 56
2, 11501, Note_on_c, 0, 55, 37
2, 11503, Note_on_c, 0, 60, 59
2, 11531, Note_on_c, 0, 60, 0
2, 11536, Control_c, 0, 64, 63
2, 11537, Note_on_c, 0, 64, 0
2, 11540, Note_on_c, 0, 55, 0
2, 11544, Control_c, 0, 64, 127
2, 11545, Note_on_c, 0, 58, 0
2, 11603, Note_on_c, 0, 64, 55
2, 11604, Note_on_c, 0, 58, 64
2, 11604, Note_on_c, 0, 55, 36
2, 11607, Note_on_c, 0, 70, 0
2, 11608, Note_on_c, 0, 60, 57
2, 11633, Note_on_c, 0, 60, 0
2, 11635, Note_on_c, 0, 64, 0
2, 11643, Note_on_c, 0, 55, 0
2, 11645, Note_on_c, 0, 58, 0
2, 11714, Note_on_c, 0, 58, 76
2, 11714, Note_on_c, 0, 64, 84
2, 11714, Note_on_c, 0, 55, 70
2, 11719, Note_on_c, 0, 60, 72
2, 11742, Note_on_c, 0, 60, 0
2, 11750, Note_on_c, 0, 64, 0
2, 11756, Note_on_c, 0, 58, 0
2, 11758, Note_on_c, 0, 55, 0
2, 11823, Note_on_c, 0, 55, 81
2, 11823, Note_on_c, 0, 64, 89
2, 11825, Note_on_c, 0, 58, 76
2, 11829, Note_on_c, 0, 60, 78
2, 11860, Note_on_c, 0, 60, 0
2, 11863, Note_on_c, 0, 64, 0
2, 11868, Note_on_c, 0, 76, 86
2, 11874, Note_on_c, 0, 55, 0
2, 11875, Note_on_c, 0, 58, 0
2, 11885, Control_c, 0, 64, 63
2, 11895, Control_c, 0, 64, 0
2, 11914, Note_on_c, 0, 79, 109
2, 11931, Control_c, 0, 64, 63
2, 11932, Note_on_c, 0, 55, 60
2, 11933, Note_on_c, 0, 58, 69
2, 11934, Note_on_c, 0, 64, 67
2, 11935, Note_on_c, 0, 76, 0
2, 11940, Note_on_c, 0, 60, 69
2, 11954, Control_c, 0, 64, 127
2, 11966, Note_on_c, 0, 60, 0
2, 11973, Note_on_c, 0, 64, 0
2, 11977, Note_on_c, 0, 55, 0
2, 11978, Note_on_c, 0, 58, 0
2, 12031, Note_on_c, 0, 55, 78
2, 12034, Note_on_c, 0, 58, 78
2, 12035, Note_on_c, 0, 64, 83
2, 12040, Note_on_c, 0, 60, 81
2, 12050, Note_on_c, 0, 79, 0
2, 12083, Note_on_c, 0, 64, 0
2, 12088, Note_on_c, 0, 55, 0
2, 12096, Note_on_c, 0, 82, 87
2, 12099, Note_on_c, 0, 60, 0
2, 12112, Note_on_c, 0, 82, 0
2, 12117, Note_on_c, 0, 58, 0
2, 12131, Control_c, 0, 64, 63
2, 12135, Note_on_c, 0, 82, 104
2, 12136, Control_c, 0, 64, 0
2, 12143, Note_on_c, 0, 60, 82
2, 12148, Note_on_c, 0, 53, 81
2, 12149, Note_on_c, 0, 65, 77
2, 12186, Note_on_c, 0, 60, 0
2, 12189, Note_on_c, 0, 65, 0
2, 12201, Note_on_c, 0, 53, 0
2, 12251, Note_on_c, 0, 65, 71
2, 12251, Note_on_c, 0, 81, 96
2, 12255, Note_on_c, 0, 60, 69
2, 12257, Note_on_c, 0, 53, 44
2, 12270, Note_on_c, 0, 82, 0
2, 12277, Note_on_c, 0, 65, 0
2, 12285, Note_on_c, 0, 60, 0
2, 12296, Note_on_c, 0, 81, 0
2, 12302, Note_on_c, 0, 53, 0
2, 12348, Note_on_c, 0, 77, 93
2, 12361, Note_on_c, 0, 62, 74
2, 12366, Note_on_c, 0, 57, 45
2, 12370, Note_on_c, 0, 53, 36
2, 12386, Note_on_c, 0, 62, 0
2, 12387, Note_on_c, 0, 77, 0
2, 12397, Note_on_c, 0, 57, 0
2, 12399, Note_on_c, 0, 53, 0
2, 12464, Note_on_c, 0, 57, 65
2, 12466, Note_on_c, 0, 62, 77
2, 12467, Note_on_c, 0, 74, 87
2, 12469, Note_on_c, 0, 53, 57
2, 12498, Note_on_c, 0, 62, 0
2, 12503, Note_on_c, 0, 57, 0
2, 12506, Note_on_c, 0, 74, 0
2, 12507, Note_on_c, 0, 53, 0
2, 12569, Note_on_c, 0, 74, 91
2, 12573, Note_on_c, 0, 55, 62
2, 12575, Note_on_c, 0, 57, 65
2, 12580, Note_on_c, 0, 52, 59
2, 12590, Control_c, 0, 64, 63
2, 12596, Control_c, 0, 64, 127
2, 12617, Note_on_c, 0, 55, 0
2, 12617, Note_on_c, 0, 57, 0
2, 12630, Note_on_c, 0, 52, 0
2, 12644, Note_on_c, 0, 74, 0
2, 12678, Note_on_c, 0, 55, 55
2, 12680, Note_on_c, 0, 73, 99
2, 12682, Note_on_c, 0, 57, 68
2, 12682, Note_on_c, 0, 52, 45
2, 12708, Note_on_c, 0, 55, 0
2, 12709, Control_c, 0, 64, 63
2, 12713, Note_on_c, 0, 73, 0
2, 12717, Control_c, 0, 64, 0
2, 12732, Note_on_c, 0, 52, 0
2, 12736, Note_on_c, 0, 57, 0
2, 12782, Note_on_c, 0, 57, 73
2, 12785, Note_on_c, 0, 76, 106
2, 12793, Note_on_c, 0, 52, 48
2, 12796, Note_on_c, 0, 61, 65
2, 12813, Note_on_c, 0, 61, 0
2, 12817, Note_on_c, 0, 52, 0
2, 12822, Note_on_c, 0, 76, 0
2, 12827, Note_on_c, 0, 57, 0
2, 12882, Note_on_c, 0, 61, 87
2, 12883, Note_on_c, 0, 52, 71
2, 12890, Note_on_c, 0, 79, 102
2, 12893, Note_on_c, 0, 57, 54
2, 12908, Note_on_c, 0, 61, 0
2, 12922, Note_on_c, 0, 57, 0
2, 12924, Note_on_c, 0, 52, 0
2, 12935, Note_on_c, 0, 79, 0
2, 12999, Note_on_c, 0, 62, 85
2, 13001, Note_on_c, 0, 57, 60
2, 13002, Note_on_c, 0, 79, 93
2, 13008, Note_on_c, 0, 50, 63
2, 13011, Control_c, 0, 64, 63
2, 13015, Control_c, 0, 64, 127
2, 13028, Note_on_c, 0, 57, 0
2, 13033, Note_on_c, 0, 62, 0
2, 13044, Note_on_c, 0, 50, 0
2, 13067, Note_on_c, 0, 79, 0
2, 13105, Control_c, 0, 64, 63
2, 13115, Control_c, 0, 64, 0
2, 13123, Note_on_c, 0, 78, 94
2, 13175, Note_on_c, 0, 78, 0
2, 13231, Note_on_c, 0, 55, 60
2, 13237, Note_on_c, 0, 47, 60
2, 13244, Control_c, 0, 64, 63
2, 13255, Control_c, 0, 64, 127
2, 13316, Note_on_c, 0, 55, 0
2, 13333, Note_on_c, 0, 47, 0
2, 13345, Note_on_c, 0, 77, 87
2, 13394, Note_on_c, 0, 77, 0
2, 13421, Control_c, 0, 64, 63
2, 13439, Control_c, 0, 64, 0
2, 13444, Note_on_c, 0, 48, 66
2, 13445, Note_on_c, 0, 55, 62
2, 13504, Control_c, 0, 64, 63
2, 13527, Control_c, 0, 64, 127
2, 13539, Note_on_c, 0, 55, 0
2, 13562, Note_on_c, 0, 75, 99
2, 13600, Note_on_c, 0, 48, 0
2, 13605, Note_on_c, 0, 75, 0
2, 13662, Note_on_c, 0, 60, 84
2, 13664, Note_on_c, 0, 57, 68
2, 13692, Control_c, 0, 64, 63
2, 13714, Control_c, 0, 64, 0
2, 13762, Control_c, 0, 64, 63
2, 13769, Note_on_c, 0, 76, 97
2, 13784, Note_on_c, 0, 57, 0
2, 13796, Note_on_c, 0, 60, 0
2, 13796, Control_c, 0, 64, 127
2, 13830, Note_on_c, 0, 76, 0
2, 13891, Note_on_c, 0, 53, 59
2, 13896, Note_on_c, 0, 76, 80
2, 13910, Control_c, 0, 64, 63
2, 13925, Control_c, 0, 64, 0
2, 13988, Control_c, 0, 64, 63
2, 14003, Note_on_c, 0, 57, 43
2, 14007, Note_on_c, 0, 74, 79
2, 14008, Control_c, 0, 64, 127
2, 14058, Note_on_c, 0, 76, 0
2, 14074, Note_on_c, 0, 74, 0
2, 14077, Note_on_c, 0, 53, 0
2, 14121, Note_on_c, 0, 57, 0
2, 14121, Note_on_c, 0, 74, 96
2, 14125, Note_on_c, 0, 53, 76
2, 14225, Note_on_c, 0, 57, 63
2, 14239, Note_on_c, 0, 53, 0
2, 14318, Note_on_c, 0, 74, 0
2, 14319, Note_on_c, 0, 57, 0
2, 14325, Note_on_c, 0, 53, 90
2, 14407, Note_on_c, 0, 53, 0
2, 14435, Note_on_c, 0, 57, 60
2, 14447, Note_on_c, 0, 76, 92
2, 14486, Note_on_c, 0, 74, 100
2, 14512, Note_on_c, 0, 76, 0
2, 14528, Note_on_c, 0, 74, 0
2, 14544, Note_on_c, 0, 54, 90
2, 14547, Note_on_c, 0, 57, 0
2, 14551, Note_on_c, 0, 74, 99
2, 14581, Control_c, 0, 64, 63
2, 14602, Note_on_c, 0, 72, 100
2, 14627, Control_c, 0, 64, 127
2, 14629, Note_on_c, 0, 74, 0
2, 14639, Note_on_c, 0, 54, 0
2, 14643, Note_on_c, 0, 57, 63
2, 14645, Note_on_c, 0, 71, 92
2, 14656, Note_on_c, 0, 72, 0
2, 14691, Note_on_c, 0, 72, 98
2, 14709, Note_on_c, 0, 71, 0
2, 14712, Note_on_c, 0, 57, 0
2, 14724, Control_c, 0, 64, 63
2, 14733, Control_c, 0, 64, 0
2, 14748, Note_on_c, 0, 55, 66
2, 14750, Note_on_c, 0, 71, 104
2, 14789, Note_on_c, 0, 72, 0
2, 14811, Note_on_c, 0, 62, 78
2, 14814, Control_c, 0, 64, 63
2, 14821, Note_on_c, 0, 55, 0
2, 14824, Control_c, 0, 64, 127
2, 14847, Note_on_c, 0, 71, 0
2, 14870, Note_on_c, 0, 59, 83
2, 14872, Note_on_c, 0, 62, 0
2, 14915, Note_on_c, 0, 62, 84
2, 14923, Note_on_c, 0, 59, 0
2, 14960, Control_c, 0, 64, 63
2, 14967, Control_c, 0, 64, 0
2, 14984, Note_on_c, 0, 55, 84
2, 14984, Note_on_c, 0, 79, 109
2, 14986, Note_on_c, 0, 62, 0
2, 15004, Control_c, 0, 64, 63
2, 15022, Control_c, 0, 64, 127
2, 15041, Note_on_c, 0, 62, 74
2, 15049, Note_on_c, 0, 55, 0
2, 15079, Note_on_c, 0, 79, 0
2, 15099, Note_on_c, 0, 62, 0
2, 15100, Note_on_c, 0, 59, 73
2, 15139, Note_on_c, 0, 79, 96
2, 15146, Note_on_c, 0, 59, 0
2, 15150, Note_on_c, 0, 62, 76
2, 15171, Note_on_c, 0, 79, 0
2, 15190, Note_on_c, 0, 62, 0
2, 15190, Control_c, 0, 64, 63
2, 15191, Note_on_c, 0, 79, 114
2, 15198, Control_c, 0, 64, 0
2, 15202, Note_on_c, 0, 55, 83
2, 15228, Control_c, 0, 64, 63
2, 15247, Control_c, 0, 64, 127
2, 15253, Note_on_c, 0, 63, 92
2, 15276, Note_on_c, 0, 55, 0
2, 15304, Note_on_c, 0, 63, 0
2, 15305, Note_on_c, 0, 60, 87
2, 15346, Note_on_c, 0, 63, 88
2, 15357, Note_on_c, 0, 60, 0
2, 15368, Note_on_c, 0, 79, 0
2, 15392, Note_on_c, 0, 63, 0
2, 15410, Note_on_c, 0, 55, 84
2, 15413, Note_on_c, 0, 79, 116
2, 15457, Note_on_c, 0, 65, 86
2, 15463, Note_on_c, 0, 55, 0
2, 15467, Control_c, 0, 64, 63
2, 15495, Control_c, 0, 64, 127
2, 15508, Note_on_c, 0, 79, 0
2, 15509, Note_on_c, 0, 62, 102
2, 15521, Note_on_c, 0, 65, 0
2, 15558, Note_on_c, 0, 65, 96
2, 15561, Note_on_c, 0, 62, 0
2, 15622, Note_on_c, 0, 65, 0
2, 15632, Note_on_c, 0, 55, 82
2, 15635, Note_on_c, 0, 72, 107
2, 15636, Note_on_c, 0, 84, 108
2, 15653, Control_c, 0, 64, 63
2, 15657, Control_c, 0, 64, 0
2, 15702, Note_on_c, 0, 63, 88
2, 15715, Control_c, 0, 64, 63
2, 15723, Control_c, 0, 64, 127
2, 15741, Note_on_c, 0, 55, 0
2, 15756, Note_on_c, 0, 60, 81
2, 15759, Note_on_c, 0, 63, 0
2, 15801, Note_on_c, 0, 63, 84
2, 15810, Note_on_c, 0, 60, 0
2, 15858, Note_on_c, 0, 55, 77
2, 15862, Note_on_c, 0, 63, 0
2, 15898, Note_on_c, 0, 63, 69
2, 15911, Note_on_c, 0, 84, 0
2, 15923, Note_on_c, 0, 55, 0
2, 15968, Note_on_c, 0, 63, 0
2, 15977, Note_on_c, 0, 60, 64
2, 15983, Note_on_c, 0, 82, 84
2, 16015, Note_on_c, 0, 63, 78
2, 16017, Note_on_c, 0, 80, 96
2, 16021, Note_on_c, 0, 60, 0
2, 16030, Note_on_c, 0, 82, 0
2, 16053, Note_on_c, 0, 80, 0
2, 16077, Note_on_c, 0, 63, 0
2, 16077, Note_on_c, 0, 79, 94
2, 16081, Note_on_c, 0, 55, 65
2, 16121, Note_on_c, 0, 63, 69
2, 16140, Note_on_c, 0, 55, 0
2, 16186, Note_on_c, 0, 63, 0
2, 16195, Control_c, 0, 64, 63
2, 16196, Note_on_c, 0, 60, 51
2, 16212, Control_c, 0, 64, 0
2, 16229, Note_on_c, 0, 63, 70
2, 16246, Note_on_c, 0, 60, 0
2, 16263, Control_c, 0, 64, 63
2, 16282, Control_c, 0, 64, 127
2, 16286, Note_on_c, 0, 55, 54
2, 16294, Note_on_c, 0, 63, 0
2, 16296, Note_on_c, 0, 78, 94
2, 16327, Note_on_c, 0, 79, 0
2, 16328, Note_on_c, 0, 63, 73
2, 16347, Note_on_c, 0, 55, 0
2, 16371, Note_on_c, 0, 72, 0
2, 16391, Note_on_c, 0, 78, 0
2, 16393, Note_on_c, 0, 63, 0
2, 16402, Note_on_c, 0, 60, 51
2, 16438, Note_on_c, 0, 63, 67
2, 16453, Note_on_c, 0, 60, 0
2, 16488, Note_on_c, 0, 63, 0
2, 16502, Note_on_c, 0, 55, 54
2, 16515, Note_on_c, 0, 79, 76
2, 16517, Note_on_c, 0, 71, 63
2, 16528, Control_c, 0, 64, 63
2, 16542, Control_c, 0, 64, 0
2, 16555, Note_on_c, 0, 62, 60
2, 16578, Note_on_c, 0, 55, 0
2, 16591, Control_c, 0, 64, 63
2, 16611, Control_c, 0, 64, 127
2, 16635, Note_on_c, 0, 62, 0
2, 16637, Note_on_c, 0, 59, 59
2, 16655, Note_on_c, 0, 71, 0
2, 16670, Note_on_c, 0, 79, 0
2, 16676, Note_on_c, 0, 62, 62
2, 16687, Note_on_c, 0, 59, 0
2, 16693, Control_c, 0, 64, 63
2, 16714, Control_c, 0, 64, 0
2, 16723, Control_c, 0, 64, 63
2, 16740, Note_on_c, 0, 79, 85
2, 16742, Note_on_c, 0, 55, 61
2, 16744, Note_on_c, 0, 62, 0
2, 16755, Control_c, 0, 64, 127
2, 16791, Note_on_c, 0, 62, 50
2, 16821, Note_on_c, 0, 79, 0
2, 16822, Note_on_c, 0, 55, 0
2, 16849, Note_on_c, 0, 62, 0
2, 16849, Note_on_c, 0, 59, 63
2, 16885, Note_on_c, 0, 59, 0
2, 16892, Note_on_c, 0, 62, 34
2, 16899, Note_on_c, 0, 79, 82
2, 16931, Note_on_c, 0, 62, 0
2, 16934, Note_on_c, 0, 79, 0
2, 16939, Control_c, 0, 64, 63
2, 16945, Note_on_c, 0, 55, 48
2, 16953, Note_on_c, 0, 79, 87
2, 16983, Control_c, 0, 64, 127
2, 17009, Note_on_c, 0, 63, 72
2, 17027, Note_on_c, 0, 55, 0
2, 17066, Note_on_c, 0, 63, 0
2, 17071, Note_on_c, 0, 60, 68
2, 17105, Note_on_c, 0, 63, 76
2, 17126, Note_on_c, 0, 60, 0
2, 17127, Note_on_c, 0, 79, 0
2, 17148, Note_on_c, 0, 63, 0
2, 17159, Note_on_c, 0, 55, 75
2, 17163, Note_on_c, 0, 79, 98
2, 17171, Control_c, 0, 64, 63
2, 17187, Control_c, 0, 64, 127
2, 17207, Note_on_c, 0, 55, 0
2, 17209, Note_on_c, 0, 65, 61
2, 17245, Note_on_c, 0, 79, 0
2, 17266, Note_on_c, 0, 62, 72
2, 17269, Note_on_c, 0, 65, 0
2, 17309, Note_on_c, 0, 62, 0
2, 17321, Note_on_c, 0, 65, 56
2, 17378, Note_on_c, 0, 65, 0
2, 17389, Note_on_c, 0, 55, 64
2, 17392, Note_on_c, 0, 72, 59
2, 17394, Note_on_c, 0, 84, 72
2, 17403, Control_c, 0, 64, 63
2, 17468, Control_c, 0, 64, 127
2, 17471, Note_on_c, 0, 63, 74
2, 17487, Note_on_c, 0, 55, 0
2, 17525, Note_on_c, 0, 63, 0
2, 17526, Note_on_c, 0, 60, 68
2, 17570, Note_on_c, 0, 63, 59
2, 17596, Note_on_c, 0, 60, 0
2, 17615, Note_on_c, 0, 55, 66
2, 17628, Note_on_c, 0, 63, 0
2, 17669, Note_on_c, 0, 63, 63
2, 17686, Note_on_c, 0, 84, 0
2, 17688, Note_on_c, 0, 55, 0
2, 17726, Note_on_c, 0, 63, 0
2, 17731, Note_on_c, 0, 60, 63
2, 17742, Note_on_c, 0, 82, 81
2, 17773, Note_on_c, 0, 63, 61
2, 17781, Note_on_c, 0, 80, 84
2, 17784, Note_on_c, 0, 60, 0
2, 17791, Note_on_c, 0, 82, 0
2, 17810, Note_on_c, 0, 80, 0
2, 17829, Note_on_c, 0, 55, 68
2, 17835, Note_on_c, 0, 63, 0
2, 17840, Note_on_c, 0, 79, 93
2, 17878, Note_on_c, 0, 63, 55
2, 17899, Note_on_c, 0, 55, 0
2, 17950, Note_on_c, 0, 63, 0
2, 17951, Note_on_c, 0, 60, 68
2, 17969, Control_c, 0, 64, 63
2, 17995, Note_on_c, 0, 63, 70
2, 18008, Note_on_c, 0, 60, 0
2, 18038, Note_on_c, 0, 55, 64
2, 18043, Control_c, 0, 64, 127
2, 18050, Note_on_c, 0, 78, 100
2, 18058, Note_on_c, 0, 63, 0
2, 18085, Note_on_c, 0, 79, 0
2, 18098, Note_on_c, 0, 63, 60
2, 18106, Note_on_c, 0, 72, 0
2, 18116, Note_on_c, 0, 78, 0
2, 18119, Note_on_c, 0, 55, 0
2, 18145, Note_on_c, 0, 60, 81
2, 18153, Note_on_c, 0, 63, 0
2, 18201, Note_on_c, 0, 63, 87
2, 18216, Note_on_c, 0, 60, 0
2, 18237, Note_on_c, 0, 63, 0
2, 18242, Control_c, 0, 64, 63
2, 18248, Control_c, 0, 64, 0
2, 18259, Note_on_c, 0, 79, 116
2, 18260, Note_on_c, 0, 62, 93
2, 18260, Note_on_c, 0, 59, 98
2, 18270, Note_on_c, 0, 55, 86
2, 18287, Control_c, 0, 64, 63
2, 18303, Control_c, 0, 64, 127
2, 18311, Note_on_c, 0, 74, 100
2, 18342, Note_on_c, 0, 59, 0
2, 18343, Note_on_c, 0, 62, 0
2, 18354, Note_on_c, 0, 55, 0
2, 18362, Note_on_c, 0, 79, 0
2, 18366, Note_on_c, 0, 71, 84
2, 18374, Note_on_c, 0, 74, 0
2, 18414, Note_on_c, 0, 74, 89
2, 18423, Note_on_c, 0, 71, 0
2, 18447, Control_c, 0, 64, 63
2, 18451, Control_c, 0, 64, 0
2, 18463, Note_on_c, 0, 79, 114
2, 18466, Note_on_c, 0, 74, 0
2, 18514, Note_on_c, 0, 75, 107
2, 18551, Note_on_c, 0, 79, 0
2, 18569, Note_on_c, 0, 72, 93
2, 18573, Note_on_c, 0, 60, 106
2, 18574, Note_on_c, 0, 75, 0
2, 18578, Note_on_c, 0, 48, 94
2, 18601, Note_on_c, 0, 60, 0
2, 18607, Note_on_c, 0, 48, 0
2, 18619, Note_on_c, 0, 75, 106
2, 18632, Note_on_c, 0, 72, 0
2, 18660, Note_on_c, 0, 75, 0
2, 18696, Note_on_c, 0, 79, 118
2, 18699, Note_on_c, 0, 55, 103
2, 18703, Note_on_c, 0, 43, 85
2, 18704, Control_c, 0, 64, 63
2, 18705, Control_c, 0, 64, 127
2, 18715, Note_on_c, 0, 55, 0
2, 18721, Note_on_c, 0, 43, 0
2, 18750, Note_on_c, 0, 74, 96
2, 18777, Note_on_c, 0, 79, 0
2, 18804, Note_on_c, 0, 74, 0
2, 18809, Note_on_c, 0, 71, 75
2, 18853, Note_on_c, 0, 74, 86
2, 18858, Note_on_c, 0, 71, 0
2, 18890, Note_on_c, 0, 74, 0
2, 18912, Control_c, 0, 64, 63
2, 18912, Note_on_c, 0, 79, 111
2, 18915, Control_c, 0, 64, 0
2, 18965, Note_on_c, 0, 75, 105
2, 18987, Note_on_c, 0, 79, 0
2, 19020, Note_on_c, 0, 75, 0
2, 19025, Note_on_c, 0, 72, 89
2, 19025, Note_on_c, 0, 60, 112
2, 19027, Note_on_c, 0, 48, 108
2, 19056, Note_on_c, 0, 60, 0
2, 19060, Note_on_c, 0, 48, 0
2, 19071, Note_on_c, 0, 75, 105
2, 19080, Note_on_c, 0, 72, 0
2, 19105, Note_on_c, 0, 75, 0
2, 19142, Note_on_c, 0, 55, 106
2, 19144, Note_on_c, 0, 43, 114
2, 19147, Note_on_c, 0, 79, 117
2, 19155, Control_c, 0, 64, 63
2, 19156, Control_c, 0, 64, 127
2, 19158, Note_on_c, 0, 43, 0
2, 19159, Note_on_c, 0, 55, 0
2, 19205, Note_on_c, 0, 74, 94
2, 19234, Note_on_c, 0, 79, 0
2, 19258, Note_on_c, 0, 71, 71
2, 19259, Note_on_c, 0, 74, 0
2, 19305, Note_on_c, 0, 74, 84
2, 19314, Note_on_c, 0, 71, 0
2, 19359, Note_on_c, 0, 74, 0
2, 19362, Note_on_c, 0, 79, 97
2, 19383, Control_c, 0, 64, 63
2, 19389, Control_c, 0, 64, 0
2, 19411, Note_on_c, 0, 75, 107
2, 19452, Note_on_c, 0, 79, 0
2, 19464, Note_on_c, 0, 72, 90
2, 19471, Note_on_c, 0, 60, 97
2, 19471, Note_on_c, 0, 48, 97
2, 19472, Note_on_c, 0, 75, 0
2, 19486, Note_on_c, 0, 60, 0
2, 19509, Note_on_c, 0, 75, 98
2, 19510, Note_on_c, 0, 48, 0
2, 19518, Note_on_c, 0, 72, 0
2, 19571, Note_on_c, 0, 74, 98
2, 19572, Note_on_c, 0, 71, 88
2, 19574, Note_on_c, 0, 55, 98
2, 19575, Note_on_c, 0, 43, 98
2, 19591, Note_on_c, 0, 43, 0
2, 19595, Note_on_c, 0, 75, 0
2, 19596, Note_on_c, 0, 55, 0
2, 19600, Note_on_c, 0, 71, 0
2, 19619, Note_on_c, 0, 79, 96
2, 19644, Note_on_c, 0, 74, 0
2, 19676, Note_on_c, 0, 75, 112
2, 19679, Note_on_c, 0, 60, 106
2, 19680, Note_on_c, 0, 48, 103
2, 19683, Note_on_c, 0, 72, 91
2, 19699, Note_on_c, 0, 60, 0
2, 19704, Note_on_c, 0, 79, 0
2, 19711, Note_on_c, 0, 48, 0
2, 19729, Note_on_c, 0, 79, 90
2, 19730, Note_on_c, 0, 72, 0
2, 19759, Note_on_c, 0, 75, 0
2, 19786, Note_on_c, 0, 55, 93
2, 19786, Note_on_c, 0, 74, 104
2, 19792, Note_on_c, 0, 71, 92
2, 19792, Note_on_c, 0, 43, 84
2, 19809, Note_on_c, 0, 79, 0
2, 19810, Note_on_c, 0, 43, 0
2, 19816, Note_on_c, 0, 55, 0
2, 19829, Note_on_c, 0, 71, 0
2, 19835, Note_on_c, 0, 79, 89
2, 19862, Note_on_c, 0, 74, 0
2, 19895, Note_on_c, 0, 75, 108
2, 19896, Note_on_c, 0, 48, 112
2, 19896, Note_on_c, 0, 60, 109
2, 19898, Note_on_c, 0, 72, 96
2, 19923, Note_on_c, 0, 79, 0
2, 19924, Note_on_c, 0, 60, 0
2, 19929, Note_on_c, 0, 48, 0
2, 19942, Note_on_c, 0, 72, 0
2, 19950, Note_on_c, 0, 79, 84
2, 19987, Note_on_c, 0, 75, 0
2, 19996, Note_on_c, 0, 74, 106
2, 20004, Note_on_c, 0, 71, 103
2, 20004, Note_on_c, 0, 55, 107
2, 20006, Note_on_c, 0, 43, 120
2, 20024, Note_on_c, 0, 79, 0
2, 20024, Note_on_c, 0, 55, 0
2, 20032, Note_on_c, 0, 43, 0
2, 20033, Note_on_c, 0, 74, 0
2, 20036, Note_on_c, 0, 71, 0
2, 20207, Note_on_c, 0, 67, 68
2, 20216, Note_on_c, 0, 71, 93
2, 20226, Note_on_c, 0, 74, 104
2, 20232, Note_on_c, 0, 67, 0
2, 20240, Note_on_c, 0, 79, 108
2, 20241, Note_on_c, 0, 43, 118
2, 20242, Note_on_c, 0, 31, 116
2, 20245, Control_c, 0, 64, 63
2, 20246, Control_c, 0, 64, 127
2, 20250, Note_on_c, 0, 71, 0
2, 20264, Note_on_c, 0, 74, 0
2, 20273, Note_on_c, 0, 79, 0
2, 20284, Note_on_c, 0, 43, 0
2, 20291, Note_on_c, 0, 31, 0
2, 20465, Note_on_c, 0, 31, 89
2, 20473, Note_on_c, 0, 43, 116
2, 20490, Control_c, 0, 64, 63
2, 20493, Control_c, 0, 64, 0
2, 20500, Note_on_c, 0, 31, 0
2, 20509, Note_on_c, 0, 43, 0
2, 20584, Note_on_c, 0, 79, 83
2, 20614, Note_on_c, 0, 79, 0
2, 20689, Note_on_c, 0, 81, 89
2, 20718, Note_on_c, 0, 81, 0
2, 20787, Note_on_c, 0, 83, 86
2, 20820, Note_on_c, 0, 83, 0
2, 20910, Note_on_c, 0, 84, 89
2, 20915, Note_on_c, 0, 67, 73
2, 20924, Note_on_c, 0, 64, 66
2, 20954, Note_on_c, 0, 67, 0
2, 20957, Note_on_c, 0, 64, 0
2, 20966, Note_on_c, 0, 84, 0
2, 20967, Note_on_c, 0, 86, 78
2, 21017, Note_on_c, 0, 86, 0
2, 21024, Note_on_c, 0, 83, 78
2, 21032, Note_on_c, 0, 67, 55
2, 21035, Note_on_c, 0, 64, 45
2, 21068, Note_on_c, 0, 67, 0
2, 21069, Note_on_c, 0, 86, 89
2, 21072, Note_on_c, 0, 64, 0
2, 21077, Note_on_c, 0, 83, 0
2, 21128, Note_on_c, 0, 84, 83
2, 21134, Note_on_c, 0, 86, 0
2, 21138, Note_on_c, 0, 67, 59
2, 21145, Note_on_c, 0, 64, 40
2, 21174, Note_on_c, 0, 67, 0
2, 21175, Note_on_c, 0, 86, 80
2, 21178, Note_on_c, 0, 64, 0
2, 21181, Note_on_c, 0, 84, 0
2, 21238, Note_on_c, 0, 86, 0
2, 21244, Note_on_c, 0, 83, 83
2, 21247, Note_on_c, 0, 64, 43
2, 21247, Note_on_c, 0, 67, 50
2, 21276, Note_on_c, 0, 86, 71
2, 21279, Note_on_c, 0, 67, 0
2, 21284, Note_on_c, 0, 64, 0
2, 21288, Note_on_c, 0, 83, 0
2, 21346, Note_on_c, 0, 67, 65
2, 21351, Note_on_c, 0, 84, 83
2, 21352, Note_on_c, 0, 64, 54
2, 21359, Note_on_c, 0, 86, 0
2, 21404, Note_on_c, 0, 86, 76
2, 21414, Note_on_c, 0, 84, 0
2, 21457, Note_on_c, 0, 83, 84
2, 21464, Note_on_c, 0, 86, 0
2, 21515, Note_on_c, 0, 84, 83
2, 21517, Note_on_c, 0, 83, 0
2, 21559, Note_on_c, 0, 84, 0
2, 21566, Note_on_c, 0, 81, 83
2, 21601, Note_on_c, 0, 67, 0
2, 21611, Note_on_c, 0, 64, 0
2, 21618, Note_on_c, 0, 83, 89
2, 21620, Note_on_c, 0, 81, 0
2, 21670, Note_on_c, 0, 79, 86
2, 21675, Note_on_c, 0, 83, 0
2, 21723, Note_on_c, 0, 81, 92
2, 21728, Note_on_c, 0, 79, 0
2, 21768, Note_on_c, 0, 81, 0
2, 21774, Note_on_c, 0, 69, 77
2, 21776, Note_on_c, 0, 77, 84
2, 21776, Note_on_c, 0, 62, 82
2, 21799, Note_on_c, 0, 62, 0
2, 21802, Note_on_c, 0, 69, 0
2, 21819, Note_on_c, 0, 77, 0
2, 21833, Note_on_c, 0, 79, 80
2, 21884, Note_on_c, 0, 79, 0
2, 21886, Note_on_c, 0, 69, 79
2, 21886, Note_on_c, 0, 76, 84
2, 21889, Note_on_c, 0, 62, 76
2, 21915, Note_on_c, 0, 62, 0
2, 21918, Note_on_c, 0, 69, 0
2, 21931, Note_on_c, 0, 79, 90
2, 21935, Note_on_c, 0, 76, 0
2, 21987, Note_on_c, 0, 77, 79
2, 21992, Note_on_c, 0, 79, 0
2, 22001, Note_on_c, 0, 69, 51
2, 22005, Note_on_c, 0, 62, 51
2, 22029, Note_on_c, 0, 69, 0
2, 22031, Note_on_c, 0, 62, 0
2, 22035, Note_on_c, 0, 77, 0
2, 22036, Note_on_c, 0, 79, 74
2, 22087, Note_on_c, 0, 79, 0
2, 22092, Note_on_c, 0, 76, 75
2, 22097, Note_on_c, 0, 69, 60
2, 22105, Note_on_c, 0, 62, 34
2, 22126, Note_on_c, 0, 79, 83
2, 22134, Note_on_c, 0, 62, 0
2, 22135, Note_on_c, 0, 69, 0
2, 22136, Note_on_c, 0, 76, 0
2, 22194, Note_on_c, 0, 77, 83
2, 22199, Note_on_c, 0, 69, 73
2, 22200, Note_on_c, 0, 62, 80
2, 22202, Note_on_c, 0, 79, 0
2, 22238, Note_on_c, 0, 79, 68
2, 22247, Note_on_c, 0, 77, 0
2, 22301, Note_on_c, 0, 76, 82
2, 22304, Note_on_c, 0, 79, 0
2, 22345, Note_on_c, 0, 77, 84
2, 22352, Note_on_c, 0, 76, 0
2, 22395, Note_on_c, 0, 77, 0
2, 22399, Note_on_c, 0, 74, 84
2, 22415, Note_on_c, 0, 69, 0
2, 22441, Note_on_c, 0, 62, 0
2, 22451, Note_on_c, 0, 74, 0
2, 22455, Note_on_c, 0, 76, 89
2, 22502, Note_on_c, 0, 72, 86
2, 22510, Note_on_c, 0, 76, 0
2, 22562, Note_on_c, 0, 72, 0
2, 22562, Note_on_c, 0, 74, 79
2, 22600, Note_on_c, 0, 74, 0
2, 22606, Note_on_c, 0, 71, 77
2, 22618, Note_on_c, 0, 65, 77
2, 22618, Note_on_c, 0, 62, 76
2, 22620, Note_on_c, 0, 55, 66
2, 22643, Note_on_c, 0, 62, 0
2, 22647, Note_on_c, 0, 65, 0
2, 22649, Note_on_c, 0, 71, 0
2, 22658, Note_on_c, 0, 55, 0
2, 22661, Note_on_c, 0, 72, 84
2, 22716, Note_on_c, 0, 72, 0
2, 22717, Note_on_c, 0, 69, 83
2, 22720, Note_on_c, 0, 65, 78
2, 22724, Note_on_c, 0, 55, 56
2, 22726, Note_on_c, 0, 62, 65
2, 22755, Note_on_c, 0, 62, 0
2, 22758, Note_on_c, 0, 72, 88
2, 22759, Note_on_c, 0, 65, 0
2, 22760, Note_on_c, 0, 55, 0
2, 22765, Note_on_c, 0, 69, 0
2, 22815, Note_on_c, 0, 71, 80
2, 22822, Note_on_c, 0, 72, 0
2, 22830, Note_on_c, 0, 65, 77
2, 22833, Note_on_c, 0, 55, 58
2, 22836, Note_on_c, 0, 62, 64
2, 22863, Note_on_c, 0, 71, 0
2, 22863, Note_on_c, 0, 62, 0
2, 22866, Note_on_c, 0, 72, 82
2, 22869, Note_on_c, 0, 65, 0
2, 22869, Note_on_c, 0, 55, 0
2, 22919, Note_on_c, 0, 72, 0
2, 22929, Note_on_c, 0, 69, 73
2, 22929, Note_on_c, 0, 65, 65
2, 22932, Note_on_c, 0, 55, 45
2, 22935, Note_on_c, 0, 62, 54
2, 22962, Note_on_c, 0, 62, 0
2, 22965, Note_on_c, 0, 65, 0
2, 22968, Note_on_c, 0, 72, 87
2, 22969, Note_on_c, 0, 55, 0
2, 22975, Note_on_c, 0, 69, 0
2, 23032, Note_on_c, 0, 71, 78
2, 23038, Note_on_c, 0, 72, 0
2, 23038, Note_on_c, 0, 65, 68
2, 23039, Note_on_c, 0, 55, 51
2, 23042, Note_on_c, 0, 62, 67
2, 23075, Note_on_c, 0, 72, 73
2, 23087, Note_on_c, 0, 71, 0
2, 23137, Note_on_c, 0, 69, 80
2, 23143, Note_on_c, 0, 72, 0
2, 23184, Note_on_c, 0, 71, 79
2, 23191, Note_on_c, 0, 69, 0
2, 23207, Note_on_c, 0, 65, 0
2, 23233, Note_on_c, 0, 71, 0
2, 23241, Note_on_c, 0, 67, 71
2, 23283, Note_on_c, 0, 62, 0
2, 23291, Note_on_c, 0, 69, 83
2, 23293, Note_on_c, 0, 67, 0
2, 23299, Note_on_c, 0, 55, 0
2, 23350, Note_on_c, 0, 65, 74
2, 23351, Note_on_c, 0, 69, 0
2, 23392, Note_on_c, 0, 67, 74
2, 23397, Note_on_c, 0, 65, 0
2, 23452, Note_on_c, 0, 67, 0
2, 23465, Note_on_c, 0, 64, 81
2, 23466, Note_on_c, 0, 60, 84
2, 23514, Note_on_c, 0, 67, 67
2, 23519, Note_on_c, 0, 64, 0
2, 23574, Note_on_c, 0, 65, 74
2, 23575, Note_on_c, 0, 67, 0
2, 23620, Note_on_c, 0, 65, 0
2, 23626, Note_on_c, 0, 64, 76
2, 23678, Note_on_c, 0, 65, 73
2, 23682, Note_on_c, 0, 64, 0
2, 23727, Note_on_c, 0, 67, 87
2, 23734, Note_on_c, 0, 65, 0
2, 23765, Note_on_c, 0, 67, 0
2, 23780, Note_on_c, 0, 69, 85
2, 23832, Note_on_c, 0, 71, 89
2, 23839, Note_on_c, 0, 69, 0
2, 23871, Note_on_c, 0, 60, 0
2, 23878, Note_on_c, 0, 72, 96
2, 23888, Note_on_c, 0, 71, 0
2, 23937, Note_on_c, 0, 74, 94
2, 23942, Note_on_c, 0, 72, 0
2, 23987, Note_on_c, 0, 72, 92
2, 23999, Note_on_c, 0, 74, 0
2, 24033, Note_on_c, 0, 71, 92
2, 24039, Note_on_c, 0, 72, 0
2, 24080, Note_on_c, 0, 71, 0
2, 24084, Note_on_c, 0, 72, 84
2, 24138, Note_on_c, 0, 74, 97
2, 24151, Note_on_c, 0, 72, 0
2, 24185, Note_on_c, 0, 76, 100
2, 24195, Note_on_c, 0, 74, 0
2, 24230, Note_on_c, 0, 76, 0
2, 24237, Note_on_c, 0, 77, 99
2, 24293, Note_on_c, 0, 79, 100
2, 24296, Note_on_c, 0, 77, 0
2, 24297, Note_on_c, 0, 52, 101
2, 24297, Note_on_c, 0, 60, 96
2, 24322, Note_on_c, 0, 60, 0
2, 24331, Note_on_c, 0, 52, 0
2, 24348, Note_on_c, 0, 79, 0
2, 24351, Note_on_c, 0, 81, 93
2, 24401, Note_on_c, 0, 60, 98
2, 24401, Note_on_c, 0, 52, 97
2, 24404, Note_on_c, 0, 78, 96
2, 24406, Note_on_c, 0, 81, 0
2, 24427, Note_on_c, 0, 60, 0
2, 24432, Note_on_c, 0, 52, 0
2, 24452, Note_on_c, 0, 81, 97
2, 24459, Note_on_c, 0, 78, 0
2, 24505, Note_on_c, 0, 52, 100
2, 24505, Note_on_c, 0, 79, 91
2, 24507, Note_on_c, 0, 60, 93
2, 24519, Note_on_c, 0, 81, 0
2, 24534, Note_on_c, 0, 60, 0
2, 24540, Note_on_c, 0, 52, 0
2, 24552, Note_on_c, 0, 81, 87
2, 24564, Note_on_c, 0, 79, 0
2, 24605, Note_on_c, 0, 52, 102
2, 24607, Note_on_c, 0, 60, 98
2, 24612, Note_on_c, 0, 78, 100
2, 24616, Note_on_c, 0, 81, 0
2, 24634, Note_on_c, 0, 60, 0
2, 24640, Note_on_c, 0, 52, 0
2, 24660, Note_on_c, 0, 81, 100
2, 24672, Note_on_c, 0, 78, 0
2, 24707, Note_on_c, 0, 81, 0
2, 24724, Note_on_c, 0, 60, 107
2, 24726, Note_on_c, 0, 52, 106
2, 24738, Note_on_c, 0, 79, 88
2, 24793, Note_on_c, 0, 84, 101
2, 24800, Note_on_c, 0, 79, 0
2, 24852, Note_on_c, 0, 84, 0
2, 24855, Note_on_c, 0, 83, 94
2, 24899, Note_on_c, 0, 84, 101
2, 24911, Note_on_c, 0, 83, 0
2, 24951, Note_on_c, 0, 86, 104
2, 24964, Note_on_c, 0, 84, 0
2, 25012, Note_on_c, 0, 84, 102
2, 25040, Note_on_c, 0, 86, 0
2, 25065, Note_on_c, 0, 83, 101
2, 25075, Note_on_c, 0, 84, 0
2, 25110, Note_on_c, 0, 84, 106
2, 25125, Note_on_c, 0, 52, 0
2, 25128, Note_on_c, 0, 83, 0
2, 25155, Note_on_c, 0, 60, 0
2, 25177, Note_on_c, 0, 83, 101
2, 25182, Note_on_c, 0, 53, 93
2, 25200, Note_on_c, 0, 84, 0
2, 25249, Note_on_c, 0, 81, 94
2, 25253, Note_on_c, 0, 83, 0
2, 25301, Note_on_c, 0, 81, 0
2, 25306, Note_on_c, 0, 80, 107
2, 25357, Note_on_c, 0, 81, 92
2, 25358, Note_on_c, 0, 80, 0
2, 25415, Note_on_c, 0, 57, 96
2, 25416, Note_on_c, 0, 79, 90
2, 25437, Note_on_c, 0, 81, 0
2, 25464, Note_on_c, 0, 57, 0
2, 25469, Note_on_c, 0, 77, 87
2, 25480, Note_on_c, 0, 79, 0
2, 25523, Note_on_c, 0, 77, 0
2, 25525, Note_on_c, 0, 76, 90
2, 25581, Note_on_c, 0, 76, 0
2, 25582, Note_on_c, 0, 77, 92
2, 25627, Note_on_c, 0, 62, 101
2, 25634, Note_on_c, 0, 77, 0
2, 25634, Note_on_c, 0, 76, 87
2, 25691, Note_on_c, 0, 76, 0
2, 25693, Note_on_c, 0, 74, 89
2, 25746, Note_on_c, 0, 74, 0
2, 25748, Note_on_c, 0, 73, 94
2, 25776, Note_on_c, 0, 53, 0
2, 25799, Note_on_c, 0, 74, 80
2, 25800, Note_on_c, 0, 73, 0
2, 25852, Note_on_c, 0, 73, 99
2, 25857, Note_on_c, 0, 53, 98
2, 25859, Note_on_c, 0, 74, 0
2, 25902, Note_on_c, 0, 73, 0
2, 25911, Note_on_c, 0, 74, 84
2, 25967, Note_on_c, 0, 76, 90
2, 25975, Note_on_c, 0, 74, 0
2, 26008, Note_on_c, 0, 77, 97
2, 26022, Note_on_c, 0, 76, 0
2, 26081, Note_on_c, 0, 52, 81
2, 26081, Note_on_c, 0, 81, 93
2, 26085, Note_on_c, 0, 77, 0
2, 26112, Note_on_c, 0, 53, 0
2, 26148, Note_on_c, 0, 79, 77
2, 26180, Note_on_c, 0, 81, 0
2, 26185, Note_on_c, 0, 78, 93
2, 26200, Note_on_c, 0, 79, 0
2, 26243, Note_on_c, 0, 79, 84
2, 26246, Note_on_c, 0, 78, 0
2, 26295, Note_on_c, 0, 55, 93
2, 26298, Note_on_c, 0, 62, 0
2, 26300, Note_on_c, 0, 77, 77
2, 26316, Note_on_c, 0, 79, 0
2, 26341, Note_on_c, 0, 55, 0
2, 26346, Note_on_c, 0, 76, 88
2, 26362, Note_on_c, 0, 77, 0
2, 26403, Note_on_c, 0, 76, 0
2, 26403, Note_on_c, 0, 74, 80
2, 26455, Note_on_c, 0, 76, 87
2, 26461, Note_on_c, 0, 74, 0
2, 26508, Note_on_c, 0, 76, 0
2, 26509, Note_on_c, 0, 74, 82
2, 26512, Note_on_c, 0, 60, 99
2, 26565, Note_on_c, 0, 74, 0
2, 26572, Note_on_c, 0, 72, 83
2, 26625, Note_on_c, 0, 71, 83
2, 26633, Note_on_c, 0, 72, 0
2, 26646, Note_on_c, 0, 52, 0
2, 26676, Note_on_c, 0, 72, 85
2, 26680, Note_on_c, 0, 71, 0
2, 26727, Note_on_c, 0, 71, 83
2, 26731, Note_on_c, 0, 52, 86
2, 26732, Note_on_c, 0, 72, 0
2, 26778, Note_on_c, 0, 71, 0
2, 26782, Note_on_c, 0, 72, 84
2, 26842, Note_on_c, 0, 74, 81
2, 26850, Note_on_c, 0, 72, 0
2, 26890, Note_on_c, 0, 76, 86
2, 26906, Note_on_c, 0, 74, 0
2, 26946, Note_on_c, 0, 77, 84
2, 26950, Note_on_c, 0, 50, 75
2, 26973, Note_on_c, 0, 76, 0
2, 27007, Note_on_c, 0, 79, 83
2, 27023, Note_on_c, 0, 77, 0
2, 27061, Note_on_c, 0, 52, 0
2, 27070, Note_on_c, 0, 76, 73
2, 27082, Note_on_c, 0, 79, 0
2, 27109, Note_on_c, 0, 77, 87
2, 27124, Note_on_c, 0, 76, 0
2, 27167, Note_on_c, 0, 74, 89
2, 27171, Note_on_c, 0, 57, 76
2, 27171, Note_on_c, 0, 53, 78
2, 27174, Note_on_c, 0, 77, 0
2, 27175, Note_on_c, 0, 60, 0
2, 27177, Note_on_c, 0, 50, 0
2, 27223, Note_on_c, 0, 76, 76
2, 27229, Note_on_c, 0, 74, 0
2, 27277, Note_on_c, 0, 76, 0
2, 27278, Note_on_c, 0, 72, 84
2, 27329, Note_on_c, 0, 74, 94
2, 27337, Note_on_c, 0, 72, 0
2, 27386, Note_on_c, 0, 71, 93
2, 27395, Note_on_c, 0, 74, 0
2, 27395, Note_on_c, 0, 55, 84
2, 27397, Note_on_c, 0, 57, 0
2, 27413, Note_on_c, 0, 53, 0
2, 27446, Note_on_c, 0, 72, 83
2, 27452, Note_on_c, 0, 71, 0
2, 27498, Note_on_c, 0, 72, 0
2, 27499, Note_on_c, 0, 69, 80
2, 27555, Note_on_c, 0, 71, 86
2, 27561, Note_on_c, 0, 69, 0
2, 27608, Note_on_c, 0, 47, 89
2, 27609, Note_on_c, 0, 67, 87
2, 27619, Note_on_c, 0, 71, 0
2, 27659, Note_on_c, 0, 69, 79
2, 27665, Note_on_c, 0, 67, 0
2, 27718, Note_on_c, 0, 69, 0
2, 27719, Note_on_c, 0, 65, 74
2, 27763, Note_on_c, 0, 67, 72
2, 27764, Note_on_c, 0, 65, 0
2, 27813, Note_on_c, 0, 48, 89
2, 27823, Note_on_c, 0, 67, 0
2, 27826, Note_on_c, 0, 64, 81
2, 27827, Note_on_c, 0, 47, 0
2, 27879, Note_on_c, 0, 67, 69
2, 27885, Note_on_c, 0, 64, 0
2, 27938, Note_on_c, 0, 65, 77
2, 27944, Note_on_c, 0, 67, 0
2, 27975, Note_on_c, 0, 55, 0
2, 27988, Note_on_c, 0, 48, 0
2, 27991, Note_on_c, 0, 64, 80
2, 27992, Note_on_c, 0, 65, 0
2, 28046, Note_on_c, 0, 65, 86
2, 28052, Note_on_c, 0, 64, 0
2, 28053, Note_on_c, 0, 55, 88
2, 28058, Note_on_c, 0, 50, 88
2, 28098, Note_on_c, 0, 67, 87
2, 28106, Note_on_c, 0, 65, 0
2, 28145, Note_on_c, 0, 67, 0
2, 28153, Note_on_c, 0, 69, 83
2, 28209, Note_on_c, 0, 71, 98
2, 28222, Note_on_c, 0, 69, 0
2, 28249, Note_on_c, 0, 52, 96
2, 28258, Note_on_c, 0, 72, 100
2, 28274, Note_on_c, 0, 50, 0
2, 28282, Note_on_c, 0, 71, 0
2, 28306, Note_on_c, 0, 74, 87
2, 28336, Note_on_c, 0, 72, 0
2, 28355, Note_on_c, 0, 76, 96
2, 28369, Note_on_c, 0, 74, 0
2, 28409, Note_on_c, 0, 74, 91
2, 28435, Note_on_c, 0, 76, 0
2, 28457, Note_on_c, 0, 72, 87
2, 28475, Note_on_c, 0, 60, 92
2, 28476, Note_on_c, 0, 74, 0
2, 28498, Note_on_c, 0, 55, 0
2, 28510, Note_on_c, 0, 70, 101
2, 28525, Note_on_c, 0, 72, 0
2, 28572, Note_on_c, 0, 70, 0
2, 28572, Note_on_c, 0, 69, 86
2, 28622, Note_on_c, 0, 68, 108
2, 28634, Note_on_c, 0, 69, 0
2, 28669, Note_on_c, 0, 60, 0
2, 28689, Note_on_c, 0, 68, 0
2, 28695, Note_on_c, 0, 69, 96
2, 28698, Note_on_c, 0, 60, 102
2, 28704, Note_on_c, 0, 53, 89
2, 28720, Note_on_c, 0, 52, 0
2, 28756, Note_on_c, 0, 71, 96
2, 28762, Note_on_c, 0, 69, 0
2, 28817, Note_on_c, 0, 72, 99
2, 28827, Note_on_c, 0, 71, 0
2, 28867, Note_on_c, 0, 71, 88
2, 28883, Note_on_c, 0, 72, 0
2, 28917, Note_on_c, 0, 71, 0
2, 28917, Note_on_c, 0, 72, 97
2, 28973, Note_on_c, 0, 73, 93
2, 28990, Note_on_c, 0, 72, 0
2, 29020, Note_on_c, 0, 74, 94
2, 29021, Note_on_c, 0, 73, 0
2, 29053, Note_on_c, 0, 53, 0
2, 29070, Note_on_c, 0, 60, 0
2, 29074, Note_on_c, 0, 73, 106
2, 29091, Note_on_c, 0, 74, 0
2, 29126, Note_on_c, 0, 73, 0
2, 29130, Note_on_c, 0, 74, 103
2, 29186, Note_on_c, 0, 76, 103
2, 29193, Note_on_c, 0, 74, 0
2, 29232, Note_on_c, 0, 77, 107
2, 29242, Note_on_c, 0, 76, 0
2, 29284, Note_on_c, 0, 76, 109
2, 29292, Note_on_c, 0, 77, 0
2, 29323, Note_on_c, 0, 76, 0
2, 29336, Note_on_c, 0, 77, 111
2, 29392, Note_on_c, 0, 80, 114
2, 29410, Note_on_c, 0, 77, 0
2, 29438, Note_on_c, 0, 81, 100
2, 29447, Note_on_c, 0, 80, 0
2, 29492, Note_on_c, 0, 80, 114
2, 29511, Note_on_c, 0, 81, 0
2, 29536, Note_on_c, 0, 80, 0
2, 29540, Note_on_c, 0, 53, 121
2, 29551, Note_on_c, 0, 81, 98
2, 29596, Note_on_c, 0, 62, 101
2, 29605, Note_on_c, 0, 83, 103
2, 29609, Note_on_c, 0, 81, 0
2, 29615, Note_on_c, 0, 53, 0
2, 29651, Note_on_c, 0, 62, 0
2, 29653, Note_on_c, 0, 57, 89
2, 29657, Note_on_c, 0, 84, 108
2, 29659, Note_on_c, 0, 83, 0
2, 29693, Note_on_c, 0, 57, 0
2, 29694, Note_on_c, 0, 62, 96
2, 29702, Note_on_c, 0, 83, 106
2, 29715, Note_on_c, 0, 84, 0
2, 29753, Note_on_c, 0, 84, 107
2, 29754, Note_on_c, 0, 62, 0
2, 29763, Note_on_c, 0, 83, 0
2, 29763, Note_on_c, 0, 53, 109
2, 29804, Note_on_c, 0, 62, 91
2, 29804, Note_on_c, 0, 83, 101
2, 29815, Note_on_c, 0, 53, 0
2, 29817, Note_on_c, 0, 84, 0
2, 29860, Note_on_c, 0, 84, 100
2, 29860, Note_on_c, 0, 57, 94
2, 29861, Note_on_c, 0, 62, 0
2, 29866, Note_on_c, 0, 83, 0
2, 29897, Note_on_c, 0, 62, 84
2, 29904, Note_on_c, 0, 57, 0
2, 29909, Note_on_c, 0, 83, 94
2, 29925, Note_on_c, 0, 84, 0
2, 29957, Note_on_c, 0, 62, 0
2, 29960, Note_on_c, 0, 53, 109
2, 29962, Note_on_c, 0, 86, 111
2, 29967, Note_on_c, 0, 83, 0
2, 30002, Note_on_c, 0, 62, 90
2, 30017, Note_on_c, 0, 84, 104
2, 30019, Note_on_c, 0, 53, 0
2, 30046, Note_on_c, 0, 86, 0
2, 30063, Note_on_c, 0, 62, 0
2, 30067, Note_on_c, 0, 83, 98
2, 30068, Note_on_c, 0, 57, 89
2, 30094, Note_on_c, 0, 84, 0
2, 30110, Note_on_c, 0, 62, 87
2, 30120, Note_on_c, 0, 57, 0
2, 30123, Note_on_c, 0, 81, 100
2, 30134, Note_on_c, 0, 83, 0
2, 30172, Note_on_c, 0, 62, 0
2, 30172, Note_on_c, 0, 53, 109
2, 30174, Note_on_c, 0, 81, 0
2, 30180, Note_on_c, 0, 83, 100
2, 30222, Note_on_c, 0, 62, 94
2, 30231, Note_on_c, 0, 81, 103
2, 30254, Note_on_c, 0, 83, 0
2, 30260, Note_on_c, 0, 53, 0
2, 30277, Note_on_c, 0, 57, 98
2, 30280, Note_on_c, 0, 79, 90
2, 30283, Note_on_c, 0, 62, 0
2, 30296, Note_on_c, 0, 81, 0
2, 30321, Note_on_c, 0, 77, 96
2, 30328, Note_on_c, 0, 62, 86
2, 30330, Note_on_c, 0, 79, 0
2, 30331, Note_on_c, 0, 57, 0
2, 30368, Note_on_c, 0, 77, 0
2, 30372, Note_on_c, 0, 62, 0
2, 30385, Note_on_c, 0, 55, 89
2, 30386, Note_on_c, 0, 76, 116
2, 30436, Note_on_c, 0, 64, 91
2, 30436, Note_on_c, 0, 79, 104
2, 30450, Note_on_c, 0, 55, 0
2, 30455, Note_on_c, 0, 76, 0
2, 30492, Note_on_c, 0, 60, 94
2, 30493, Note_on_c, 0, 64, 0
2, 30496, Note_on_c, 0, 81, 101
2, 30506, Note_on_c, 0, 79, 0
2, 30531, Note_on_c, 0, 64, 84
2, 30534, Note_on_c, 0, 60, 0
2, 30553, Note_on_c, 0, 79, 96
2, 30583, Note_on_c, 0, 81, 0
2, 30591, Note_on_c, 0, 64, 0
2, 30597, Note_on_c, 0, 55, 104
2, 30605, Note_on_c, 0, 77, 103
2, 30628, Note_on_c, 0, 79, 0
2, 30643, Note_on_c, 0, 64, 83
2, 30652, Note_on_c, 0, 55, 0
2, 30656, Note_on_c, 0, 76, 93
2, 30664, Note_on_c, 0, 77, 0
2, 30692, Note_on_c, 0, 64, 0
2, 30705, Note_on_c, 0, 60, 78
2, 30708, Note_on_c, 0, 74, 91
2, 30709, Note_on_c, 0, 76, 0
2, 30736, Note_on_c, 0, 60, 0
2, 30743, Note_on_c, 0, 64, 78
2, 30756, Note_on_c, 0, 72, 91
2, 30761, Note_on_c, 0, 74, 0
2, 30791, Note_on_c, 0, 72, 0
2, 30802, Note_on_c, 0, 64, 0
2, 30822, Note_on_c, 0, 55, 91
2, 30825, Note_on_c, 0, 74, 108
2, 30835, Control_c, 0, 64, 63
2, 30836, Control_c, 0, 64, 127
2, 30864, Note_on_c, 0, 76, 88
2, 30866, Note_on_c, 0, 55, 0
2, 30868, Note_on_c, 0, 74, 0
2, 30868, Note_on_c, 0, 65, 66
2, 30881, Note_on_c, 0, 76, 0
2, 30902, Note_on_c, 0, 74, 70
2, 30915, Note_on_c, 0, 65, 0
2, 30924, Note_on_c, 0, 74, 0
2, 30932, Note_on_c, 0, 76, 84
2, 30932, Note_on_c, 0, 59, 62
2, 30951, Note_on_c, 0, 76, 0
2, 30959, Note_on_c, 0, 74, 78
2, 30960, Note_on_c, 0, 59, 0
2, 30964, Note_on_c, 0, 65, 79
2, 30994, Note_on_c, 0, 76, 81
2, 30998, Note_on_c, 0, 74, 0
2, 31017, Note_on_c, 0, 55, 83
2, 31018, Note_on_c, 0, 76, 0
2, 31021, Note_on_c, 0, 74, 83
2, 31030, Note_on_c, 0, 65, 0
2, 31052, Note_on_c, 0, 76, 77
2, 31056, Note_on_c, 0, 74, 0
2, 31075, Note_on_c, 0, 59, 79
2, 31086, Note_on_c, 0, 55, 0
2, 31088, Note_on_c, 0, 76, 0
2, 31089, Note_on_c, 0, 74, 96
2, 31124, Note_on_c, 0, 59, 0
2, 31130, Note_on_c, 0, 65, 68
2, 31140, Note_on_c, 0, 72, 92
2, 31141, Note_on_c, 0, 74, 0
2, 31171, Note_on_c, 0, 74, 87
2, 31188, Note_on_c, 0, 65, 0
2, 31189, Note_on_c, 0, 72, 0
2, 31218, Note_on_c, 0, 74, 0
2, 31224, Control_c, 0, 64, 63
2, 31229, Control_c, 0, 64, 0
2, 31241, Note_on_c, 0, 60, 84
2, 31251, Note_on_c, 0, 64, 57
2, 31321, Note_on_c, 0, 84, 83
2, 31377, Note_on_c, 0, 83, 65
2, 31384, Note_on_c, 0, 84, 0
2, 31409, Note_on_c, 0, 60, 0
2, 31410, Note_on_c, 0, 64, 0
2, 31419, Note_on_c, 0, 81, 83
2, 31434, Note_on_c, 0, 83, 0
2, 31472, Note_on_c, 0, 81, 0
2, 31479, Note_on_c, 0, 79, 74
2, 31523, Note_on_c, 0, 81, 79
2, 31525, Note_on_c, 0, 79, 0
2, 31573, Note_on_c, 0, 81, 0
2, 31587, Note_on_c, 0, 78, 86
2, 31630, Note_on_c, 0, 81, 66
2, 31637, Note_on_c, 0, 78, 0
2, 31687, Note_on_c, 0, 79, 65
2, 31693, Note_on_c, 0, 81, 0
2, 31744, Note_on_c, 0, 81, 64
2, 31745, Note_on_c, 0, 79, 0
2, 31794, Note_on_c, 0, 81, 0
2, 31804, Note_on_c, 0, 78, 71
2, 31850, Note_on_c, 0, 81, 69
2, 31854, Note_on_c, 0, 78, 0
2, 31908, Note_on_c, 0, 79, 60
2, 31912, Note_on_c, 0, 81, 0
2, 31913, Note_on_c, 0, 71, 88
2, 31946, Note_on_c, 0, 71, 0
2, 31947, Note_on_c, 0, 81, 74
2, 31965, Note_on_c, 0, 79, 0
2, 32009, Note_on_c, 0, 81, 0
2, 32014, Note_on_c, 0, 77, 82
2, 32023, Note_on_c, 0, 67, 71
2, 32058, Note_on_c, 0, 67, 0
2, 32064, Note_on_c, 0, 79, 76
2, 32065, Note_on_c, 0, 77, 0
2, 32102, Note_on_c, 0, 79, 0
2, 32120, Note_on_c, 0, 76, 76
2, 32137, Note_on_c, 0, 72, 78
2, 32158, Note_on_c, 0, 76, 0
2, 32199, Note_on_c, 0, 84, 82
2, 32233, Note_on_c, 0, 84, 0
2, 32241, Note_on_c, 0, 83, 71
2, 32293, Note_on_c, 0, 81, 83
2, 32294, Note_on_c, 0, 83, 0
2, 32339, Note_on_c, 0, 81, 0
2, 32345, Note_on_c, 0, 79, 80
2, 32393, Note_on_c, 0, 79, 0
2, 32399, Note_on_c, 0, 81, 77
2, 32449, Note_on_c, 0, 81, 0
2, 32452, Note_on_c, 0, 78, 93
2, 32453, Note_on_c, 0, 72, 0
2, 32498, Note_on_c, 0, 81, 79
2, 32503, Note_on_c, 0, 78, 0
2, 32546, Note_on_c, 0, 79, 75
2, 32561, Note_on_c, 0, 81, 0
2, 32608, Note_on_c, 0, 81, 72
2, 32612, Note_on_c, 0, 79, 0
2, 32664, Note_on_c, 0, 81, 0
2, 32667, Note_on_c, 0, 78, 82
2, 32715, Note_on_c, 0, 81, 78
2, 32719, Note_on_c, 0, 78, 0
2, 32776, Note_on_c, 0, 79, 63
2, 32782, Note_on_c, 0, 81, 0
2, 32792, Note_on_c, 0, 71, 84
2, 32815, Note_on_c, 0, 71, 0
2, 32822, Note_on_c, 0, 81, 63
2, 32836, Note_on_c, 0, 79, 0
2, 32891, Note_on_c, 0, 81, 0
2, 32896, Note_on_c, 0, 77, 76
2, 32900, Note_on_c, 0, 67, 70
2, 32934, Note_on_c, 0, 67, 0
2, 32938, Note_on_c, 0, 79, 69
2, 32941, Note_on_c, 0, 77, 0
2, 32991, Note_on_c, 0, 79, 0
2, 33004, Note_on_c, 0, 76, 71
2, 33010, Note_on_c, 0, 72, 72
2, 33048, Note_on_c, 0, 76, 0
2, 33064, Note_on_c, 0, 77, 68
2, 33109, Note_on_c, 0, 72, 0
2, 33117, Note_on_c, 0, 74, 80
2, 33121, Note_on_c, 0, 77, 0
2, 33164, Note_on_c, 0, 76, 77
2, 33169, Note_on_c, 0, 74, 0
2, 33215, Note_on_c, 0, 76, 0
2, 33219, Note_on_c, 0, 72, 75
2, 33269, Note_on_c, 0, 72, 0
2, 33272, Note_on_c, 0, 74, 88
2, 33326, Note_on_c, 0, 71, 79
2, 33336, Note_on_c, 0, 74, 0
2, 33377, Note_on_c, 0, 72, 77
2, 33387, Note_on_c, 0, 71, 0
2, 33429, Note_on_c, 0, 72, 0
2, 33432, Note_on_c, 0, 69, 70
2, 33434, Note_on_c, 0, 60, 91
2, 33444, Note_on_c, 0, 52, 75
2, 33474, Note_on_c, 0, 69, 0
2, 33489, Note_on_c, 0, 71, 88
2, 33550, Note_on_c, 0, 67, 76
2, 33556, Note_on_c, 0, 71, 0
2, 33586, Note_on_c, 0, 69, 89
2, 33602, Note_on_c, 0, 67, 0
2, 33643, Note_on_c, 0, 69, 0
2, 33645, Note_on_c, 0, 55, 90
2, 33647, Note_on_c, 0, 65, 89
2, 33699, Note_on_c, 0, 65, 0
2, 33700, Note_on_c, 0, 67, 87
2, 33754, Note_on_c, 0, 64, 80
2, 33764, Note_on_c, 0, 67, 0
2, 33787, Note_on_c, 0, 60, 0
2, 33797, Note_on_c, 0, 65, 96
2, 33812, Note_on_c, 0, 64, 0
2, 33862, Note_on_c, 0, 52, 0
2, 33863, Note_on_c, 0, 65, 0
2, 33864, Note_on_c, 0, 62, 102
2, 33870, Note_on_c, 0, 57, 90
2, 33874, Note_on_c, 0, 53, 75
2, 33895, Note_on_c, 0, 55, 0
2, 33996, Note_on_c, 0, 62, 0
2, 34007, Note_on_c, 0, 64, 86
2, 34050, Note_on_c, 0, 65, 89
2, 34060, Note_on_c, 0, 64, 0
2, 34088, Note_on_c, 0, 65, 0
2, 34101, Note_on_c, 0, 67, 90
2, 34159, Note_on_c, 0, 69, 96
2, 34171, Note_on_c, 0, 67, 0
2, 34203, Note_on_c, 0, 71, 97
2, 34226, Note_on_c, 0, 69, 0
2, 34236, Note_on_c, 0, 53, 0
2, 34244, Note_on_c, 0, 57, 0
2, 34253, Note_on_c, 0, 72, 96
2, 34272, Note_on_c, 0, 71, 0
2, 34297, Note_on_c, 0, 72, 0
2, 34310, Note_on_c, 0, 59, 104
2, 34312, Note_on_c, 0, 74, 97
2, 34312, Note_on_c, 0, 55, 94
2, 34314, Note_on_c, 0, 53, 92
2, 34375, Note_on_c, 0, 76, 100
2, 34384, Note_on_c, 0, 74, 0
2, 34426, Note_on_c, 0, 77, 101
2, 34435, Note_on_c, 0, 76, 0
2, 34472, Note_on_c, 0, 77, 0
2, 34472, Note_on_c, 0, 79, 101
2, 34530, Note_on_c, 0, 81, 104
2, 34545, Note_on_c, 0, 79, 0
2, 34576, Note_on_c, 0, 83, 101
2, 34587, Note_on_c, 0, 81, 0
2, 34625, Note_on_c, 0, 84, 101
2, 34634, Note_on_c, 0, 83, 0
2, 34648, Note_on_c, 0, 55, 0
2, 34675, Note_on_c, 0, 59, 0
2, 34681, Note_on_c, 0, 86, 113
2, 34697, Note_on_c, 0, 84, 0
2, 34739, Note_on_c, 0, 53, 0
2, 34741, Note_on_c, 0, 86, 0
2, 34751, Note_on_c, 0, 88, 111
2, 34751, Note_on_c, 0, 55, 100
2, 34754, Note_on_c, 0, 60, 114
2, 34760, Note_on_c, 0, 52, 89
2, 34804, Note_on_c, 0, 88, 0
2, 34811, Note_on_c, 0, 55, 0
2, 34813, Note_on_c, 0, 84, 98
2, 34861, Note_on_c, 0, 84, 0
2, 34867, Note_on_c, 0, 83, 104
2, 34931, Note_on_c, 0, 84, 92
2, 34934, Note_on_c, 0, 83, 0
2, 34990, Note_on_c, 0, 83, 106
2, 34997, Note_on_c, 0, 53, 104
2, 35013, Note_on_c, 0, 52, 0
2, 35017, Note_on_c, 0, 84, 0
2, 35047, Note_on_c, 0, 81, 102
2, 35076, Note_on_c, 0, 83, 0
2, 35107, Note_on_c, 0, 79, 94
2, 35114, Note_on_c, 0, 81, 0
2, 35145, Note_on_c, 0, 79, 0
2, 35148, Note_on_c, 0, 77, 107
2, 35202, Note_on_c, 0, 53, 0
2, 35214, Note_on_c, 0, 76, 116
2, 35216, Note_on_c, 0, 55, 102
2, 35246, Note_on_c, 0, 77, 0
2, 35374, Note_on_c, 0, 76, 0
2, 35423, Note_on_c, 0, 60, 0
2, 35437, Note_on_c, 0, 59, 111
2, 35448, Note_on_c, 0, 74, 114
2, 35470, Note_on_c, 0, 76, 103
2, 35483, Note_on_c, 0, 74, 0
2, 35500, Note_on_c, 0, 76, 0
2, 35508, Note_on_c, 0, 74, 93
2, 35559, Note_on_c, 0, 72, 92
2, 35561, Note_on_c, 0, 74, 0
2, 35579, Note_on_c, 0, 59, 0
2, 35581, Note_on_c, 0, 55, 0
2, 35593, Note_on_c, 0, 74, 73
2, 35616, Note_on_c, 0, 72, 0
2, 35661, Note_on_c, 0, 72, 106
2, 35674, Note_on_c, 0, 74, 0
2, 35693, Note_on_c, 0, 72, 0
2, 35719, Note_on_c, 0, 72, 97
2, 35778, Note_on_c, 0, 71, 88
2, 35800, Note_on_c, 0, 72, 0
2, 35826, Note_on_c, 0, 69, 84
2, 35848, Note_on_c, 0, 71, 0
2, 35874, Note_on_c, 0, 67, 92
2, 35895, Note_on_c, 0, 69, 0
2, 35929, Note_on_c, 0, 69, 83
2, 35932, Note_on_c, 0, 67, 0
2, 35991, Note_on_c, 0, 66, 105
2, 35999, Note_on_c, 0, 69, 0
2, 36042, Note_on_c, 0, 66, 0
2, 36044, Note_on_c, 0, 69, 82
2, 36101, Note_on_c, 0, 67, 94
2, 36111, Note_on_c, 0, 69, 0
2, 36147, Note_on_c, 0, 69, 65
2, 36151, Note_on_c, 0, 67, 0
2, 36211, Note_on_c, 0, 66, 97
2, 36221, Note_on_c, 0, 69, 0
2, 36258, Note_on_c, 0, 69, 65
2, 36265, Note_on_c, 0, 66, 0
2, 36314, Note_on_c, 0, 74, 89
2, 36314, Note_on_c, 0, 83, 96
2, 36321, Note_on_c, 0, 67, 75
2, 36330, Note_on_c, 0, 69, 0
2, 36344, Note_on_c, 0, 74, 0
2, 36354, Note_on_c, 0, 83, 0
2, 36361, Note_on_c, 0, 69, 78
2, 36367, Note_on_c, 0, 67, 0
2, 36415, Note_on_c, 0, 69, 0
2, 36417, Note_on_c, 0, 65, 86
2, 36428, Note_on_c, 0, 79, 94
2, 36459, Note_on_c, 0, 79, 0
2, 36460, Note_on_c, 0, 65, 0
2, 36474, Note_on_c, 0, 67, 68
2, 36533, Note_on_c, 0, 67, 0
2, 36539, Note_on_c, 0, 84, 111
2, 36540, Note_on_c, 0, 64, 89
2, 36542, Note_on_c, 0, 76, 106
2, 36581, Note_on_c, 0, 64, 0
2, 36603, Note_on_c, 0, 72, 90
2, 36666, Note_on_c, 0, 71, 96
2, 36674, Note_on_c, 0, 72, 0
2, 36705, Note_on_c, 0, 69, 91
2, 36730, Note_on_c, 0, 71, 0
2, 36756, Note_on_c, 0, 67, 91
2, 36781, Note_on_c, 0, 69, 0
2, 36810, Note_on_c, 0, 69, 80
2, 36815, Note_on_c, 0, 67, 0
2, 36858, Note_on_c, 0, 76, 0
2, 36867, Note_on_c, 0, 84, 0
2, 36871, Note_on_c, 0, 66, 106
2, 36879, Note_on_c, 0, 69, 0
2, 36920, Note_on_c, 0, 69, 84
2, 36926, Note_on_c, 0, 66, 0
2, 36983, Note_on_c, 0, 67, 97
2, 36989, Note_on_c, 0, 69, 0
2, 37032, Note_on_c, 0, 69, 77
2, 37038, Note_on_c, 0, 67, 0
2, 37079, Note_on_c, 0, 66, 105
2, 37094, Note_on_c, 0, 69, 0
2, 37133, Note_on_c, 0, 66, 0
2, 37135, Note_on_c, 0, 69, 70
2, 37190, Note_on_c, 0, 67, 88
2, 37202, Note_on_c, 0, 69, 0
2, 37208, Note_on_c, 0, 74, 96
2, 37209, Note_on_c, 0, 83, 98
2, 37238, Note_on_c, 0, 69, 64
2, 37245, Note_on_c, 0, 67, 0
2, 37246, Note_on_c, 0, 83, 0
2, 37307, Note_on_c, 0, 65, 87
2, 37316, Note_on_c, 0, 69, 0
2, 37317, Note_on_c, 0, 79, 97
2, 37350, Note_on_c, 0, 67, 70
2, 37355, Note_on_c, 0, 65, 0
2, 37378, Note_on_c, 0, 74, 0
2, 37388, Note_on_c, 0, 79, 0
2, 37410, Note_on_c, 0, 67, 0
2, 37414, Note_on_c, 0, 64, 97
2, 37426, Note_on_c, 0, 84, 116
2, 37427, Note_on_c, 0, 76, 117
2, 37466, Note_on_c, 0, 64, 0
2, 37473, Note_on_c, 0, 65, 83
2, 37521, Note_on_c, 0, 62, 99
2, 37524, Note_on_c, 0, 65, 0
2, 37532, Note_on_c, 0, 84, 0
2, 37565, Note_on_c, 0, 62, 0
2, 37575, Note_on_c, 0, 64, 86
2, 37606, Note_on_c, 0, 76, 0
2, 37632, Note_on_c, 0, 60, 101
2, 37634, Note_on_c, 0, 64, 0
2, 37653, Note_on_c, 0, 79, 104
2, 37673, Note_on_c, 0, 60, 0
2, 37674, Note_on_c, 0, 81, 93
2, 37694, Note_on_c, 0, 62, 87
2, 37697, Note_on_c, 0, 79, 0
2, 37723, Note_on_c, 0, 79, 85
2, 37731, Note_on_c, 0, 81, 0
2, 37741, Note_on_c, 0, 59, 92
2, 37744, Note_on_c, 0, 62, 0
2, 37756, Note_on_c, 0, 78, 98
2, 37766, Note_on_c, 0, 79, 0
2, 37791, Note_on_c, 0, 59, 0
2, 37802, Note_on_c, 0, 79, 82
2, 37805, Note_on_c, 0, 60, 61
2, 37817, Note_on_c, 0, 59, 51
2, 37820, Note_on_c, 0, 78, 0
2, 37853, Note_on_c, 0, 59, 0
2, 37855, Note_on_c, 0, 57, 99
2, 37856, Note_on_c, 0, 79, 0
2, 37856, Note_on_c, 0, 60, 0
2, 37867, Note_on_c, 0, 84, 121
2, 37908, Note_on_c, 0, 57, 0
2, 37915, Note_on_c, 0, 59, 86
2, 37961, Note_on_c, 0, 55, 100
2, 37963, Note_on_c, 0, 59, 0
2, 38013, Note_on_c, 0, 57, 86
2, 38020, Note_on_c, 0, 55, 0
2, 38067, Note_on_c, 0, 53, 97
2, 38072, Note_on_c, 0, 57, 0
2, 38083, Note_on_c, 0, 76, 117
2, 38112, Note_on_c, 0, 77, 99
2, 38127, Note_on_c, 0, 53, 0
2, 38128, Note_on_c, 0, 57, 65
2, 38130, Note_on_c, 0, 55, 60
2, 38166, Note_on_c, 0, 77, 0
2, 38174, Note_on_c, 0, 57, 0
2, 38175, Note_on_c, 0, 55, 0
2, 38179, Note_on_c, 0, 52, 89
2, 38192, Note_on_c, 0, 74, 101
2, 38194, Note_on_c, 0, 76, 0
2, 38227, Note_on_c, 0, 76, 87
2, 38240, Note_on_c, 0, 53, 82
2, 38245, Note_on_c, 0, 74, 0
2, 38247, Note_on_c, 0, 52, 0
2, 38267, Note_on_c, 0, 76, 0
2, 38289, Note_on_c, 0, 84, 0
2, 38294, Note_on_c, 0, 50, 108
2, 38295, Note_on_c, 0, 77, 118
2, 38298, Note_on_c, 0, 53, 0
2, 38351, Note_on_c, 0, 52, 99
2, 38353, Note_on_c, 0, 50, 0
2, 38398, Note_on_c, 0, 48, 104
2, 38403, Note_on_c, 0, 52, 0
2, 38453, Note_on_c, 0, 48, 0
2, 38453, Note_on_c, 0, 50, 89
2, 38503, Note_on_c, 0, 50, 0
2, 38504, Note_on_c, 0, 47, 111
2, 38524, Note_on_c, 0, 86, 118
2, 38560, Note_on_c, 0, 48, 98
2, 38563, Note_on_c, 0, 47, 0
2, 38611, Note_on_c, 0, 45, 99
2, 38617, Note_on_c, 0, 48, 0
2, 38666, Note_on_c, 0, 47, 88
2, 38667, Note_on_c, 0, 45, 0
2, 38673, Note_on_c, 0, 88, 106
2, 38699, Note_on_c, 0, 86, 0
2, 38724, Note_on_c, 0, 89, 117
2, 38725, Note_on_c, 0, 43, 112
2, 38727, Note_on_c, 0, 47, 0
2, 38754, Note_on_c, 0, 88, 0
2, 38780, Note_on_c, 0, 45, 98
2, 38789, Note_on_c, 0, 43, 0
2, 38828, Note_on_c, 0, 41, 107
2, 38835, Note_on_c, 0, 45, 0
2, 38843, Note_on_c, 0, 89, 0
2, 38859, Note_on_c, 0, 77, 0
2, 38878, Note_on_c, 0, 43, 98
2, 38887, Note_on_c, 0, 41, 0
2, 38933, Note_on_c, 0, 43, 0
2, 38942, Note_on_c, 0, 40, 117
2, 38952, Note_on_c, 0, 83, 121
2, 38958, Note_on_c, 0, 79, 108
2, 38987, Note_on_c, 0, 84, 94
2, 38995, Note_on_c, 0, 40, 0
2, 38998, Note_on_c, 0, 41, 101
2, 39001, Note_on_c, 0, 83, 0
2, 39048, Note_on_c, 0, 83, 76
2, 39050, Note_on_c, 0, 38, 117
2, 39057, Note_on_c, 0, 84, 0
2, 39065, Note_on_c, 0, 41, 0
2, 39072, Note_on_c, 0, 81, 98
2, 39086, Note_on_c, 0, 83, 0
2, 39091, Note_on_c, 0, 79, 0
2, 39101, Note_on_c, 0, 41, 101
2, 39110, Note_on_c, 0, 83, 91
2, 39125, Note_on_c, 0, 38, 0
2, 39135, Note_on_c, 0, 81, 0
2, 39150, Note_on_c, 0, 83, 0
2, 39176, Note_on_c, 0, 40, 121
2, 39189, Note_on_c, 0, 84, 124
2, 39195, Note_on_c, 0, 79, 106
2, 39203, Note_on_c, 0, 41, 0
2, 39217, Control_c, 0, 64, 63
2, 39219, Control_c, 0, 64, 127
2, 39223, Note_on_c, 0, 79, 0
2, 39247, Note_on_c, 0, 40, 0
2, 39250, Note_on_c, 0, 83, 106
2, 39252, Note_on_c, 0, 79, 48
2, 39275, Note_on_c, 0, 84, 0
2, 39277, Note_on_c, 0, 79, 0
2, 39303, Note_on_c, 0, 84, 100
2, 39322, Note_on_c, 0, 83, 0
2, 39340, Note_on_c, 0, 79, 107
2, 39362, Note_on_c, 0, 84, 0
2, 39381, Control_c, 0, 64, 63
2, 39384, Control_c, 0, 64, 0
2, 39387, Note_on_c, 0, 79, 0
2, 39408, Note_on_c, 0, 41, 120
2, 39409, Note_on_c, 0, 83, 109
2, 39410, Note_on_c, 0, 74, 111
2, 39462, Note_on_c, 0, 81, 102
2, 39509, Note_on_c, 0, 83, 0
2, 39518, Note_on_c, 0, 41, 0
2, 39523, Note_on_c, 0, 79, 101
2, 39556, Note_on_c, 0, 81, 0
2, 39564, Note_on_c, 0, 77, 100
2, 39589, Note_on_c, 0, 79, 0
2, 39598, Note_on_c, 0, 74, 0
2, 39601, Note_on_c, 0, 77, 0
2, 39620, Note_on_c, 0, 43, 122
2, 39631, Note_on_c, 0, 76, 121
2, 39634, Note_on_c, 0, 72, 113
2, 39668, Note_on_c, 0, 43, 0
2, 39687, Note_on_c, 0, 77, 103
2, 39744, Note_on_c, 0, 76, 0
2, 39744, Note_on_c, 0, 79, 102
2, 39776, Note_on_c, 0, 77, 0
2, 39789, Note_on_c, 0, 76, 101
2, 39806, Note_on_c, 0, 72, 0
2, 39820, Note_on_c, 0, 79, 0
2, 39842, Note_on_c, 0, 31, 126
2, 39846, Note_on_c, 0, 74, 117
2, 39846, Note_on_c, 0, 71, 112
2, 39859, Control_c, 0, 64, 63
2, 39864, Control_c, 0, 64, 127
2, 39873, Note_on_c, 0, 76, 0
2, 39883, Note_on_c, 0, 31, 0
2, 39898, Note_on_c, 0, 76, 102
2, 39942, Note_on_c, 0, 74, 0
2, 39957, Note_on_c, 0, 77, 102
2, 40004, Note_on_c, 0, 76, 0
2, 40004, Control_c, 0, 64, 63
2, 40008, Control_c, 0, 64, 0
2, 40020, Note_on_c, 0, 74, 107
2, 40047, Note_on_c, 0, 71, 0
2, 40052, Note_on_c, 0, 77, 0
2, 40109, Note_on_c, 0, 74, 0
2, 40109, Note_on_c, 0, 72, 82
2, 40116, Note_on_c, 0, 60, 76
2, 40173, Control_c, 0, 64, 127
2, 40192, Note_on_c, 0, 60, 0
2, 40192, Note_on_c, 0, 62, 70
2, 40242, Note_on_c, 0, 62, 0
2, 40245, Note_on_c, 0, 64, 72
2, 40283, Note_on_c, 0, 72, 0
2, 40293, Note_on_c, 0, 62, 68
2, 40299, Note_on_c, 0, 64, 0
2, 40346, Note_on_c, 0, 60, 84
2, 40351, Note_on_c, 0, 76, 94
2, 40354, Note_on_c, 0, 72, 86
2, 40363, Note_on_c, 0, 62, 0
2, 40392, Note_on_c, 0, 60, 0
2, 40410, Note_on_c, 0, 59, 87
2, 40432, Note_on_c, 0, 72, 0
2, 40445, Note_on_c, 0, 76, 0
2, 40457, Note_on_c, 0, 57, 84
2, 40463, Note_on_c, 0, 59, 0
2, 40512, Note_on_c, 0, 56, 95
2, 40518, Note_on_c, 0, 57, 0
2, 40528, Note_on_c, 0, 76, 92
2, 40531, Note_on_c, 0, 72, 83
2, 40554, Note_on_c, 0, 76, 0
2, 40555, Note_on_c, 0, 72, 0
2, 40571, Note_on_c, 0, 57, 76
2, 40576, Note_on_c, 0, 56, 0
2, 40578, Note_on_c, 0, 72, 80
2, 40578, Note_on_c, 0, 76, 98
2, 40582, Control_c, 0, 64, 63
2, 40589, Control_c, 0, 64, 0
2, 40602, Control_c, 0, 64, 63
2, 40619, Control_c, 0, 64, 127
2, 40634, Note_on_c, 0, 57, 0
2, 40637, Note_on_c, 0, 59, 83
2, 40692, Note_on_c, 0, 60, 86
2, 40695, Note_on_c, 0, 59, 0
2, 40731, Note_on_c, 0, 60, 0
2, 40738, Note_on_c, 0, 72, 0
2, 40738, Note_on_c, 0, 59, 83
2, 40755, Note_on_c, 0, 76, 0
2, 40775, Note_on_c, 0, 57, 79
2, 40788, Note_on_c, 0, 59, 0
2, 40812, Note_on_c, 0, 76, 103
2, 40814, Note_on_c, 0, 72, 96
2, 40822, Note_on_c, 0, 55, 91
2, 40835, Note_on_c, 0, 57, 0
2, 40890, Note_on_c, 0, 53, 83
2, 40895, Note_on_c, 0, 55, 0
2, 40912, Note_on_c, 0, 72, 0
2, 40920, Note_on_c, 0, 76, 0
2, 40950, Note_on_c, 0, 52, 84
2, 40956, Note_on_c, 0, 53, 0
2, 40984, Note_on_c, 0, 76, 96
2, 40990, Note_on_c, 0, 72, 80
2, 41015, Note_on_c, 0, 72, 0
2, 41020, Note_on_c, 0, 53, 68
2, 41022, Note_on_c, 0, 76, 0
2, 41032, Note_on_c, 0, 52, 0
2, 41032, Control_c, 0, 64, 63
2, 41036, Control_c, 0, 64, 0
2, 41040, Note_on_c, 0, 74, 108
2, 41042, Note_on_c, 0, 72, 99
2, 41089, Note_on_c, 0, 55, 78
2, 41099, Control_c, 0, 64, 63
2, 41106, Control_c, 0, 64, 127
2, 41119, Note_on_c, 0, 53, 0
2, 41154, Note_on_c, 0, 57, 86
2, 41155, Note_on_c, 0, 55, 0
2, 41193, Note_on_c, 0, 55, 86
2, 41206, Note_on_c, 0, 72, 0
2, 41209, Note_on_c, 0, 57, 0
2, 41225, Note_on_c, 0, 74, 0
2, 41254, Note_on_c, 0, 53, 94
2, 41264, Note_on_c, 0, 74, 107
2, 41265, Note_on_c, 0, 55, 0
2, 41267, Note_on_c, 0, 72, 94
2, 41325, Note_on_c, 0, 50, 96
2, 41330, Note_on_c, 0, 53, 0
2, 41361, Note_on_c, 0, 72, 0
2, 41365, Note_on_c, 0, 74, 0
2, 41380, Note_on_c, 0, 52, 83
2, 41404, Note_on_c, 0, 50, 0
2, 41423, Note_on_c, 0, 53, 99
2, 41432, Note_on_c, 0, 74, 97
2, 41434, Note_on_c, 0, 72, 91
2, 41459, Note_on_c, 0, 52, 0
2, 41465, Note_on_c, 0, 74, 0
2, 41465, Note_on_c, 0, 72, 0
2, 41477, Note_on_c, 0, 55, 98
2, 41480, Note_on_c, 0, 53, 0
2, 41486, Note_on_c, 0, 74, 113
2, 41492, Note_on_c, 0, 71, 102
2, 41502, Control_c, 0, 64, 63
2, 41506, Control_c, 0, 64, 0
2, 41552, Note_on_c, 0, 54, 98
2, 41562, Note_on_c, 0, 55, 0
2, 41566, Control_c, 0, 64, 63
2, 41575, Control_c, 0, 64, 127
2, 41592, Note_on_c, 0, 55, 82
2, 41600, Note_on_c, 0, 54, 0
2, 41635, Note_on_c, 0, 71, 0
2, 41643, Note_on_c, 0, 54, 109
2, 41655, Note_on_c, 0, 74, 0
2, 41667, Note_on_c, 0, 55, 0
2, 41687, Control_c, 0, 64, 63
2, 41691, Control_c, 0, 64, 0
2, 41700, Note_on_c, 0, 55, 92
2, 41705, Note_on_c, 0, 54, 0
2, 41707, Note_on_c, 0, 79, 118
2, 41708, Note_on_c, 0, 71, 117
2, 41724, Control_c, 0, 64, 63
2, 41734, Control_c, 0, 64, 127
2, 41763, Note_on_c, 0, 53, 100
2, 41781, Note_on_c, 0, 55, 0
2, 41816, Note_on_c, 0, 71, 0
2, 41816, Note_on_c, 0, 52, 98
2, 41827, Note_on_c, 0, 79, 0
2, 41832, Note_on_c, 0, 53, 0
2, 41866, Note_on_c, 0, 50, 88
2, 41872, Note_on_c, 0, 79, 103
2, 41876, Note_on_c, 0, 71, 86
2, 41891, Note_on_c, 0, 52, 0
2, 41896, Note_on_c, 0, 71, 0
2, 41911, Control_c, 0, 64, 63
2, 41912, Note_on_c, 0, 79, 0
2, 41917, Control_c, 0, 64, 0
2, 41928, Note_on_c, 0, 48, 106
2, 41930, Note_on_c, 0, 72, 114
2, 41930, Note_on_c, 0, 76, 118
2, 41935, Note_on_c, 0, 50, 0
2, 41942, Control_c, 0, 64, 63
2, 41954, Control_c, 0, 64, 127
2, 41988, Note_on_c, 0, 50, 101
2, 42015, Note_on_c, 0, 48, 0
2, 42016, Note_on_c, 0, 76, 0
2, 42027, Note_on_c, 0, 72, 0
2, 42050, Note_on_c, 0, 52, 109
2, 42054, Note_on_c, 0, 50, 0
2, 42105, Note_on_c, 0, 50, 104
2, 42120, Note_on_c, 0, 52, 0
2, 42154, Note_on_c, 0, 76, 109
2, 42155, Note_on_c, 0, 48, 109
2, 42155, Control_c, 0, 64, 63
2, 42156, Note_on_c, 0, 84, 111
2, 42158, Note_on_c, 0, 72, 106
2, 42164, Control_c, 0, 64, 0
2, 42174, Note_on_c, 0, 50, 0
2, 42177, Control_c, 0, 64, 63
2, 42193, Control_c, 0, 64, 127
2, 42209, Note_on_c, 0, 47, 99
2, 42217, Note_on_c, 0, 48, 0
2, 42227, Note_on_c, 0, 76, 0
2, 42238, Note_on_c, 0, 72, 0
2, 42250, Note_on_c, 0, 84, 0
2, 42261, Note_on_c, 0, 45, 100
2, 42274, Note_on_c, 0, 47, 0
2, 42319, Note_on_c, 0, 44, 118
2, 42335, Note_on_c, 0, 45, 0
2, 42335, Note_on_c, 0, 76, 111
2, 42336, Note_on_c, 0, 72, 111
2, 42337, Note_on_c, 0, 84, 108
2, 42359, Note_on_c, 0, 72, 0
2, 42366, Note_on_c, 0, 84, 0
2, 42369, Note_on_c, 0, 76, 0
2, 42383, Note_on_c, 0, 45, 117
2, 42383, Note_on_c, 0, 84, 100
2, 42384, Note_on_c, 0, 72, 101
2, 42387, Note_on_c, 0, 76, 108
2, 42388, Control_c, 0, 64, 63
2, 42393, Control_c, 0, 64, 0
2, 42411, Note_on_c, 0, 44, 0
2, 42415, Control_c, 0, 64, 63
2, 42427, Control_c, 0, 64, 127
2, 42437, Note_on_c, 0, 47, 104
2, 42455, Note_on_c, 0, 45, 0
2, 42504, Note_on_c, 0, 48, 112
2, 42519, Note_on_c, 0, 47, 0
2, 42531, Note_on_c, 0, 72, 0
2, 42535, Note_on_c, 0, 84, 0
2, 42546, Note_on_c, 0, 76, 0
2, 42554, Note_on_c, 0, 47, 98
2, 42557, Note_on_c, 0, 48, 0
2, 42598, Note_on_c, 0, 45, 103
2, 42614, Note_on_c, 0, 76, 125
2, 42615, Note_on_c, 0, 84, 118
2, 42615, Note_on_c, 0, 72, 122
2, 42616, Note_on_c, 0, 47, 0
2, 42620, Control_c, 0, 64, 63
2, 42643, Control_c, 0, 64, 127
2, 42652, Note_on_c, 0, 43, 104
2, 42675, Note_on_c, 0, 45, 0
2, 42709, Note_on_c, 0, 41, 99
2, 42720, Note_on_c, 0, 72, 0
2, 42727, Note_on_c, 0, 84, 0
2, 42729, Note_on_c, 0, 76, 0
2, 42737, Note_on_c, 0, 43, 0
2, 42774, Note_on_c, 0, 40, 106
2, 42776, Note_on_c, 0, 84, 102
2, 42776, Note_on_c, 0, 76, 102
2, 42779, Note_on_c, 0, 72, 92
2, 42797, Note_on_c, 0, 72, 0
2, 42799, Note_on_c, 0, 41, 0
2, 42806, Note_on_c, 0, 76, 0
2, 42814, Note_on_c, 0, 84, 0
2, 42829, Note_on_c, 0, 81, 113
2, 42829, Note_on_c, 0, 84, 107
2, 42831, Note_on_c, 0, 74, 120
2, 42836, Note_on_c, 0, 41, 102
2, 42842, Control_c, 0, 64, 63
2, 42846, Control_c, 0, 64, 0
2, 42874, Control_c, 0, 64, 63
2, 42876, Note_on_c, 0, 40, 0
2, 42884, Control_c, 0, 64, 127
2, 42895, Note_on_c, 0, 43, 102
2, 42934, Note_on_c, 0, 41, 0
2, 42949, Note_on_c, 0, 45, 99
2, 42963, Note_on_c, 0, 43, 0
2, 42987, Note_on_c, 0, 84, 0
2, 42990, Note_on_c, 0, 74, 0
2, 42998, Note_on_c, 0, 43, 98
2, 43007, Note_on_c, 0, 81, 0
2, 43012, Note_on_c, 0, 45, 0
2, 43056, Note_on_c, 0, 41, 103
2, 43067, Control_c, 0, 64, 63
2, 43068, Note_on_c, 0, 81, 120
2, 43069, Note_on_c, 0, 74, 125
2, 43070, Note_on_c, 0, 84, 118
2, 43071, Note_on_c, 0, 43, 0
2, 43086, Control_c, 0, 64, 127
2, 43106, Note_on_c, 0, 40, 61
2, 43139, Note_on_c, 0, 41, 0
2, 43140, Note_on_c, 0, 38, 99
2, 43149, Note_on_c, 0, 74, 0
2, 43157, Note_on_c, 0, 81, 0
2, 43159, Note_on_c, 0, 84, 0
2, 43159, Note_on_c, 0, 40, 0
2, 43207, Note_on_c, 0, 40, 84
2, 43232, Note_on_c, 0, 38, 0
2, 43245, Note_on_c, 0, 84, 112
2, 43246, Note_on_c, 0, 41, 98
2, 43249, Note_on_c, 0, 74, 108
2, 43259, Note_on_c, 0, 81, 61
2, 43273, Note_on_c, 0, 74, 0
2, 43277, Note_on_c, 0, 40, 0
2, 43280, Note_on_c, 0, 84, 0
2, 43283, Note_on_c, 0, 81, 0
2, 43291, Note_on_c, 0, 43, 109
2, 43303, Note_on_c, 0, 41, 0
2, 43303, Note_on_c, 0, 74, 114
2, 43304, Note_on_c, 0, 83, 109
2, 43306, Note_on_c, 0, 79, 112
2, 43307, Control_c, 0, 64, 63
2, 43312, Control_c, 0, 64, 0
2, 43335, Control_c, 0, 64, 63
2, 43347, Control_c, 0, 64, 127
2, 43358, Note_on_c, 0, 42, 110
2, 43380, Note_on_c, 0, 43, 0
2, 43412, Note_on_c, 0, 43, 96
2, 43414, Note_on_c, 0, 42, 0
2, 43457, Note_on_c, 0, 42, 112
2, 43458, Note_on_c, 0, 74, 0
2, 43470, Note_on_c, 0, 79, 0
2, 43479, Note_on_c, 0, 83, 0
2, 43486, Note_on_c, 0, 43, 0
2, 43523, Note_on_c, 0, 43, 109
2, 43532, Control_c, 0, 64, 63
2, 43533, Note_on_c, 0, 83, 122
2, 43537, Note_on_c, 0, 42, 0
2, 43537, Note_on_c, 0, 74, 124
2, 43538, Note_on_c, 0, 79, 117
2, 43552, Control_c, 0, 64, 127
2, 43565, Note_on_c, 0, 74, 0
2, 43566, Note_on_c, 0, 79, 0
2, 43581, Note_on_c, 0, 83, 0
2, 43581, Note_on_c, 0, 41, 107
2, 43595, Note_on_c, 0, 43, 0
2, 43641, Note_on_c, 0, 40, 98
2, 43659, Note_on_c, 0, 41, 0
2, 43688, Note_on_c, 0, 38, 90
2, 43715, Note_on_c, 0, 40, 0
2, 43717, Note_on_c, 0, 83, 114
2, 43718, Note_on_c, 0, 74, 111
2, 43720, Note_on_c, 0, 79, 103
2, 43736, Note_on_c, 0, 79, 0
2, 43739, Note_on_c, 0, 74, 0
2, 43750, Note_on_c, 0, 83, 0
2, 43757, Control_c, 0, 64, 63
2, 43758, Note_on_c, 0, 72, 103
2, 43758, Note_on_c, 0, 36, 126
2, 43759, Note_on_c, 0, 79, 108
2, 43760, Note_on_c, 0, 84, 121
2, 43761, Note_on_c, 0, 76, 116
2, 43765, Control_c, 0, 64, 0
2, 43789, Note_on_c, 0, 38, 0
2, 43819, Note_on_c, 0, 79, 0
2, 43820, Note_on_c, 0, 76, 0
2, 43822, Note_on_c, 0, 84, 0
2, 43846, Note_on_c, 0, 72, 0
2, 43846, Note_on_c, 0, 36, 0
2, 43985, Note_on_c, 0, 36, 87
2, 43997, Note_on_c, 0, 72, 103
2, 44002, Note_on_c, 0, 76, 117
2, 44006, Note_on_c, 0, 79, 118
2, 44007, Note_on_c, 0, 48, 125
2, 44020, Control_c, 0, 64, 127
2, 44034, Note_on_c, 0, 72, 0
2, 44038, Note_on_c, 0, 76, 0
2, 44047, Note_on_c, 0, 48, 0
2, 44048, Note_on_c, 0, 79, 0
2, 44049, Note_on_c, 0, 36, 0
2, 44068, Control_c, 0, 64, 63
2, 44077, Control_c, 0, 64, 0
2, 44243, Note_on_c, 0, 67, 101
2, 44250, Note_on_c, 0, 72, 113
2, 44253, Note_on_c, 0, 36, 81
2, 44254, Note_on_c, 0, 76, 118
2, 44255, Control_c, 0, 64, 63
2, 44255, Control_c, 0, 64, 127
2, 44257, Note_on_c, 0, 48, 101
2, 44276, Note_on_c, 0, 67, 0
2, 44280, Note_on_c, 0, 48, 0
2, 44282, Note_on_c, 0, 72, 0
2, 44285, Note_on_c, 0, 36, 0
2, 44297, Note_on_c, 0, 76, 0
2, 44524, Control_c, 0, 64, 63
2, 44529, Control_c, 0, 64, 0
2, 44796, Note_on_c, 0, 78, 103
2, 44804, Control_c, 0, 64, 63
2, 44805, Control_c, 0, 64, 127
2, 44814, Note_on_c, 0, 67, 86
2, 44816, Note_on_c, 0, 60, 90
2, 44817, Note_on_c, 0, 64, 85
2, 44834, Note_on_c, 0, 79, 97
2, 44843, Note_on_c, 0, 78, 0
2, 44951, Note_on_c, 0, 67, 0
2, 44953, Note_on_c, 0, 64, 0
2, 44964, Note_on_c, 0, 60, 0
2, 44996, Note_on_c, 0, 67, 71
2, 44997, Note_on_c, 0, 64, 73
2, 44998, Note_on_c, 0, 60, 76
2, 45055, Note_on_c, 0, 67, 0
2, 45057, Note_on_c, 0, 64, 0
2, 45062, Note_on_c, 0, 60, 0
2, 45076, Note_on_c, 0, 79, 0
2, 45112, Note_on_c, 0, 67, 66
2, 45116, Note_on_c, 0, 64, 66
2, 45118, Note_on_c, 0, 60, 63
2, 45120, Note_on_c, 0, 79, 113
2, 45161, Note_on_c, 0, 67, 0
2, 45162, Note_on_c, 0, 64, 0
2, 45163, Note_on_c, 0, 60, 0
2, 45187, Note_on_c, 0, 79, 0
2, 45235, Note_on_c, 0, 67, 71
2, 45243, Note_on_c, 0, 64, 64
2, 45244, Note_on_c, 0, 60, 63
2, 45286, Note_on_c, 0, 79, 99
2, 45296, Note_on_c, 0, 64, 0
2, 45297, Note_on_c, 0, 67, 0
2, 45303, Note_on_c, 0, 60, 0
2, 45314, Note_on_c, 0, 79, 0
2, 45338, Note_on_c, 0, 79, 109
2, 45354, Note_on_c, 0, 67, 74
2, 45357, Note_on_c, 0, 64, 75
2, 45359, Note_on_c, 0, 60, 76
2, 45388, Note_on_c, 0, 79, 0
2, 45395, Note_on_c, 0, 64, 0
2, 45397, Note_on_c, 0, 67, 0
2, 45405, Note_on_c, 0, 60, 0
2, 45464, Note_on_c, 0, 60, 70
2, 45467, Note_on_c, 0, 67, 63
2, 45473, Note_on_c, 0, 64, 60
2, 45504, Note_on_c, 0, 64, 0
2, 45512, Note_on_c, 0, 67, 0
2, 45515, Note_on_c, 0, 60, 0
2, 45577, Note_on_c, 0, 76, 112
2, 45581, Note_on_c, 0, 67, 68
2, 45587, Note_on_c, 0, 60, 56
2, 45590, Note_on_c, 0, 64, 49
2, 45611, Note_on_c, 0, 76, 0
2, 45614, Note_on_c, 0, 60, 0
2, 45615, Note_on_c, 0, 64, 0
2, 45618, Note_on_c, 0, 67, 0
2, 45680, Note_on_c, 0, 60, 73
2, 45681, Note_on_c, 0, 67, 68
2, 45683, Note_on_c, 0, 64, 70
2, 45733, Note_on_c, 0, 60, 0
2, 45738, Note_on_c, 0, 67, 0
2, 45742, Note_on_c, 0, 64, 0
2, 45744, Note_on_c, 0, 72, 88
2, 45763, Note_on_c, 0, 72, 0
2, 45789, Note_on_c, 0, 72, 99
2, 45805, Note_on_c, 0, 67, 71
2, 45807, Control_c, 0, 64, 63
2, 45807, Note_on_c, 0, 60, 60
2, 45809, Note_on_c, 0, 65, 71
2, 45811, Control_c, 0, 64, 0
2, 45812, Note_on_c, 0, 62, 65
2, 45852, Control_c, 0, 64, 63
2, 45866, Control_c, 0, 64, 127
2, 45868, Note_on_c, 0, 67, 0
2, 45869, Note_on_c, 0, 65, 0
2, 45873, Note_on_c, 0, 62, 0
2, 45879, Note_on_c, 0, 60, 0
2, 45922, Note_on_c, 0, 71, 98
2, 45926, Note_on_c, 0, 67, 54
2, 45930, Note_on_c, 0, 65, 64
2, 45931, Note_on_c, 0, 62, 63
2, 45932, Note_on_c, 0, 60, 35
2, 45951, Note_on_c, 0, 72, 0
2, 45973, Note_on_c, 0, 71, 0
2, 45983, Note_on_c, 0, 67, 0
2, 45984, Note_on_c, 0, 65, 0
2, 45988, Note_on_c, 0, 62, 0
2, 45988, Note_on_c, 0, 60, 0
2, 46032, Note_on_c, 0, 71, 94
2, 46036, Note_on_c, 0, 67, 57
2, 46040, Note_on_c, 0, 65, 60
2, 46046, Note_on_c, 0, 62, 48
2, 46054, Note_on_c, 0, 60, 33
2, 46083, Control_c, 0, 64, 63
2, 46085, Note_on_c, 0, 60, 0
2, 46094, Note_on_c, 0, 65, 0
2, 46094, Control_c, 0, 64, 0
2, 46095, Note_on_c, 0, 62, 0
2, 46097, Note_on_c, 0, 67, 0
2, 46107, Control_c, 0, 64, 63
2, 46136, Control_c, 0, 64, 127
2, 46141, Note_on_c, 0, 67, 57
2, 46143, Note_on_c, 0, 65, 64
2, 46148, Note_on_c, 0, 62, 47
2, 46157, Note_on_c, 0, 60, 44
2, 46188, Note_on_c, 0, 60, 0
2, 46193, Note_on_c, 0, 67, 0
2, 46194, Note_on_c, 0, 65, 0
2, 46199, Note_on_c, 0, 62, 0
2, 46234, Note_on_c, 0, 71, 0
2, 46259, Note_on_c, 0, 67, 49
2, 46260, Note_on_c, 0, 62, 53
2, 46262, Note_on_c, 0, 65, 55
2, 46269, Note_on_c, 0, 60, 47
2, 46300, Note_on_c, 0, 60, 0
2, 46304, Note_on_c, 0, 65, 0
2, 46306, Note_on_c, 0, 67, 0
2, 46310, Note_on_c, 0, 62, 0
2, 46364, Note_on_c, 0, 67, 58
2, 46371, Note_on_c, 0, 62, 54
2, 46371, Note_on_c, 0, 65, 58
2, 46379, Note_on_c, 0, 60, 46
2, 46416, Note_on_c, 0, 60, 0
2, 46417, Note_on_c, 0, 65, 0
2, 46424, Note_on_c, 0, 67, 0
2, 46424, Note_on_c, 0, 62, 0
2, 46479, Note_on_c, 0, 77, 109
2, 46485, Note_on_c, 0, 67, 51
2, 46488, Note_on_c, 0, 62, 57
2, 46489, Note_on_c, 0, 65, 62
2, 46495, Note_on_c, 0, 60, 48
2, 46513, Control_c, 0, 64, 63
2, 46528, Note_on_c, 0, 60, 0
2, 46535, Note_on_c, 0, 65, 0
2, 46536, Note_on_c, 0, 67, 0
2, 46541, Note_on_c, 0, 62, 0
2, 46543, Control_c, 0, 64, 127
2, 46596, Note_on_c, 0, 67, 78
2, 46598, Note_on_c, 0, 62, 74
2, 46598, Note_on_c, 0, 65, 80
2, 46611, Note_on_c, 0, 60, 68
2, 46632, Note_on_c, 0, 77, 0
2, 46655, Note_on_c, 0, 60, 0
2, 46655, Note_on_c, 0, 74, 97
2, 46658, Note_on_c, 0, 67, 0
2, 46672, Note_on_c, 0, 62, 0
2, 46673, Note_on_c, 0, 65, 0
2, 46691, Control_c, 0, 64, 63
2, 46695, Control_c, 0, 64, 0
2, 46702, Note_on_c, 0, 74, 0
2, 46706, Note_on_c, 0, 79, 108
2, 46718, Note_on_c, 0, 67, 84
2, 46723, Note_on_c, 0, 64, 74
2, 46728, Note_on_c, 0, 60, 53
2, 46730, Control_c, 0, 64, 63
2, 46739, Control_c, 0, 64, 127
2, 46776, Note_on_c, 0, 64, 0
2, 46781, Note_on_c, 0, 67, 0
2, 46781, Note_on_c, 0, 60, 0
2, 46833, Note_on_c, 0, 67, 68
2, 46838, Note_on_c, 0, 60, 49
2, 46839, Note_on_c, 0, 64, 62
2, 46889, Note_on_c, 0, 64, 0
2, 46894, Note_on_c, 0, 67, 0
2, 46895, Note_on_c, 0, 79, 0
2, 46895, Note_on_c, 0, 60, 0
2, 46949, Note_on_c, 0, 79, 113
2, 46954, Note_on_c, 0, 64, 71
2, 46955, Note_on_c, 0, 67, 68
2, 46962, Note_on_c, 0, 60, 46
2, 46995, Note_on_c, 0, 60, 0
2, 47003, Note_on_c, 0, 64, 0
2, 47004, Note_on_c, 0, 67, 0
2, 47005, Note_on_c, 0, 79, 0
2, 47063, Note_on_c, 0, 64, 72
2, 47065, Note_on_c, 0, 67, 70
2, 47067, Note_on_c, 0, 60, 61
2, 47113, Note_on_c, 0, 67, 0
2, 47116, Note_on_c, 0, 64, 0
2, 47117, Note_on_c, 0, 60, 0
2, 47117, Note_on_c, 0, 79, 107
2, 47144, Note_on_c, 0, 79, 0
2, 47162, Note_on_c, 0, 79, 103
2, 47183, Note_on_c, 0, 67, 74
2, 47183, Note_on_c, 0, 64, 73
2, 47186, Note_on_c, 0, 60, 54
2, 47193, Note_on_c, 0, 79, 0
2, 47223, Note_on_c, 0, 60, 0
2, 47227, Note_on_c, 0, 64, 0
2, 47231, Note_on_c, 0, 67, 0
2, 47291, Note_on_c, 0, 67, 60
2, 47293, Note_on_c, 0, 81, 97
2, 47294, Note_on_c, 0, 64, 63
2, 47297, Note_on_c, 0, 60, 45
2, 47329, Note_on_c, 0, 60, 0
2, 47334, Note_on_c, 0, 79, 93
2, 47335, Note_on_c, 0, 64, 0
2, 47338, Note_on_c, 0, 67, 0
2, 47344, Note_on_c, 0, 81, 0
2, 47392, Note_on_c, 0, 79, 0
2, 47392, Note_on_c, 0, 77, 97
2, 47397, Note_on_c, 0, 67, 64
2, 47400, Note_on_c, 0, 64, 63
2, 47438, Note_on_c, 0, 77, 0
2, 47440, Note_on_c, 0, 64, 0
2, 47442, Note_on_c, 0, 67, 0
2, 47444, Note_on_c, 0, 76, 99
2, 47487, Note_on_c, 0, 60, 59
2, 47488, Note_on_c, 0, 64, 57
2, 47492, Note_on_c, 0, 67, 52
2, 47494, Note_on_c, 0, 74, 99
2, 47507, Note_on_c, 0, 76, 0
2, 47531, Note_on_c, 0, 64, 0
2, 47538, Note_on_c, 0, 72, 96
2, 47539, Note_on_c, 0, 74, 0
2, 47543, Note_on_c, 0, 67, 0
2, 47549, Note_on_c, 0, 60, 0
2, 47574, Note_on_c, 0, 72, 0
2, 47599, Note_on_c, 0, 72, 99
2, 47604, Note_on_c, 0, 67, 79
2, 47607, Note_on_c, 0, 64, 74
2, 47607, Note_on_c, 0, 61, 80
2, 47610, Control_c, 0, 64, 63
2, 47650, Control_c, 0, 64, 127
2, 47664, Note_on_c, 0, 64, 0
2, 47670, Note_on_c, 0, 61, 0
2, 47677, Note_on_c, 0, 67, 0
2, 47706, Note_on_c, 0, 72, 0
2, 47726, Note_on_c, 0, 70, 92
2, 47728, Note_on_c, 0, 61, 66
2, 47731, Note_on_c, 0, 67, 42
2, 47741, Note_on_c, 0, 64, 41
2, 47777, Note_on_c, 0, 70, 0
2, 47778, Note_on_c, 0, 64, 0
2, 47784, Note_on_c, 0, 61, 0
2, 47784, Note_on_c, 0, 67, 0
2, 47833, Note_on_c, 0, 70, 90
2, 47834, Note_on_c, 0, 61, 54
2, 47834, Note_on_c, 0, 67, 53
2, 47840, Note_on_c, 0, 64, 55
2, 47852, Control_c, 0, 64, 63
2, 47859, Control_c, 0, 64, 0
2, 47891, Note_on_c, 0, 64, 0
2, 47894, Note_on_c, 0, 61, 0
2, 47897, Note_on_c, 0, 67, 0
2, 47899, Control_c, 0, 64, 63
2, 47913, Control_c, 0, 64, 127
2, 47941, Note_on_c, 0, 61, 50
2, 47943, Note_on_c, 0, 67, 49
2, 47951, Note_on_c, 0, 64, 48
2, 47987, Note_on_c, 0, 64, 0
2, 47991, Note_on_c, 0, 61, 0
2, 47992, Note_on_c, 0, 67, 0
2, 47998, Note_on_c, 0, 70, 0
2, 48060, Note_on_c, 0, 67, 52
2, 48061, Note_on_c, 0, 61, 48
2, 48064, Note_on_c, 0, 64, 49
2, 48108, Note_on_c, 0, 64, 0
2, 48112, Note_on_c, 0, 61, 0
2, 48114, Note_on_c, 0, 67, 0
2, 48181, Note_on_c, 0, 67, 42
2, 48182, Note_on_c, 0, 61, 42
2, 48182, Note_on_c, 0, 73, 69
2, 48190, Note_on_c, 0, 64, 38
2, 48245, Note_on_c, 0, 64, 0
2, 48250, Note_on_c, 0, 67, 0
2, 48250, Note_on_c, 0, 61, 0
2, 48310, Note_on_c, 0, 76, 81
2, 48316, Note_on_c, 0, 61, 53
2, 48317, Note_on_c, 0, 67, 56
2, 48324, Note_on_c, 0, 64, 54
2, 48328, Note_on_c, 0, 73, 0
2, 48362, Note_on_c, 0, 64, 0
2, 48367, Note_on_c, 0, 67, 0
2, 48415, Note_on_c, 0, 79, 98
2, 48422, Note_on_c, 0, 67, 60
2, 48429, Note_on_c, 0, 64, 46
2, 48449, Note_on_c, 0, 76, 0
2, 48464, Note_on_c, 0, 64, 0
2, 48473, Note_on_c, 0, 67, 0
2, 48529, Note_on_c, 0, 60, 76
2, 48536, Note_on_c, 0, 82, 101
2, 48536, Note_on_c, 0, 67, 71
2, 48538, Note_on_c, 0, 64, 74
2, 48553, Note_on_c, 0, 61, 0
2, 48565, Control_c, 0, 64, 63
2, 48582, Note_on_c, 0, 79, 0
2, 48593, Control_c, 0, 64, 127
2, 48633, Note_on_c, 0, 64, 0
2, 48634, Note_on_c, 0, 67, 0
2, 48642, Note_on_c, 0, 60, 0
2, 48665, Note_on_c, 0, 79, 84
2, 48675, Note_on_c, 0, 64, 68
2, 48675, Note_on_c, 0, 60, 49
2, 48679, Note_on_c, 0, 67, 58
2, 48688, Note_on_c, 0, 82, 0
2, 48721, Note_on_c, 0, 60, 0
2, 48723, Note_on_c, 0, 67, 0
2, 48726, Note_on_c, 0, 64, 0
2, 48769, Note_on_c, 0, 76, 88
2, 48776, Note_on_c, 0, 67, 57
2, 48779, Note_on_c, 0, 64, 51
2, 48781, Note_on_c, 0, 60, 41
2, 48786, Note_on_c, 0, 79, 0
2, 48812, Note_on_c, 0, 60, 0
2, 48817, Note_on_c, 0, 64, 0
2, 48818, Note_on_c, 0, 67, 0
2, 48862, Note_on_c, 0, 60, 75
2, 48874, Note_on_c, 0, 67, 53
2, 48875, Note_on_c, 0, 76, 0
2, 48876, Note_on_c, 0, 72, 89
2, 48885, Note_on_c, 0, 64, 34
2, 48910, Note_on_c, 0, 64, 0
2, 48920, Note_on_c, 0, 67, 0
2, 48967, Note_on_c, 0, 60, 0
2, 48970, Control_c, 0, 64, 63
2, 48974, Note_on_c, 0, 61, 80
2, 48980, Note_on_c, 0, 67, 60
2, 48985, Note_on_c, 0, 70, 76
2, 48987, Note_on_c, 0, 64, 60
2, 48999, Note_on_c, 0, 72, 0
2, 49005, Control_c, 0, 64, 127
2, 49050, Note_on_c, 0, 64, 0
2, 49064, Note_on_c, 0, 61, 0
2, 49064, Note_on_c, 0, 67, 0
2, 49088, Note_on_c, 0, 73, 86
2, 49102, Note_on_c, 0, 70, 0
2, 49102, Note_on_c, 0, 67, 63
2, 49103, Note_on_c, 0, 61, 65
2, 49107, Note_on_c, 0, 64, 72
2, 49154, Note_on_c, 0, 64, 0
2, 49159, Note_on_c, 0, 67, 0
2, 49159, Note_on_c, 0, 61, 0
2, 49176, Note_on_c, 0, 73, 0
2, 49198, Note_on_c, 0, 61, 70
2, 49199, Note_on_c, 0, 76, 89
2, 49202, Note_on_c, 0, 67, 68
2, 49208, Note_on_c, 0, 64, 76
2, 49254, Note_on_c, 0, 64, 0
2, 49255, Note_on_c, 0, 67, 0
2, 49273, Note_on_c, 0, 61, 0
2, 49305, Note_on_c, 0, 61, 84
2, 49306, Note_on_c, 0, 79, 96
2, 49311, Note_on_c, 0, 76, 0
2, 49318, Note_on_c, 0, 67, 82
2, 49320, Note_on_c, 0, 64, 84
2, 49385, Note_on_c, 0, 67, 0
2, 49386, Note_on_c, 0, 64, 0
2, 49428, Note_on_c, 0, 64, 86
2, 49428, Note_on_c, 0, 67, 88
2, 49431, Note_on_c, 0, 82, 107
2, 49432, Note_on_c, 0, 60, 91
2, 49443, Control_c, 0, 64, 63
2, 49452, Control_c, 0, 64, 0
2, 49459, Note_on_c, 0, 61, 0
2, 49462, Note_on_c, 0, 79, 0
2, 49473, Control_c, 0, 64, 63
2, 49491, Control_c, 0, 64, 127
2, 49503, Note_on_c, 0, 64, 0
2, 49505, Note_on_c, 0, 67, 0
2, 49520, Note_on_c, 0, 60, 0
2, 49555, Note_on_c, 0, 67, 83
2, 49556, Note_on_c, 0, 60, 71
2, 49558, Note_on_c, 0, 79, 87
2, 49561, Note_on_c, 0, 64, 73
2, 49564, Note_on_c, 0, 82, 0
2, 49594, Note_on_c, 0, 64, 0
2, 49605, Note_on_c, 0, 67, 0
2, 49612, Note_on_c, 0, 60, 0
2, 49665, Note_on_c, 0, 67, 53
2, 49668, Note_on_c, 0, 76, 83
2, 49670, Note_on_c, 0, 60, 38
2, 49671, Note_on_c, 0, 64, 47
2, 49676, Note_on_c, 0, 79, 0
2, 49705, Note_on_c, 0, 60, 0
2, 49705, Note_on_c, 0, 64, 0
2, 49709, Note_on_c, 0, 67, 0
2, 49759, Note_on_c, 0, 60, 80
2, 49764, Note_on_c, 0, 76, 0
2, 49767, Note_on_c, 0, 67, 58
2, 49767, Note_on_c, 0, 72, 93
2, 49770, Note_on_c, 0, 64, 48
2, 49806, Note_on_c, 0, 64, 0
2, 49815, Note_on_c, 0, 67, 0
2, 49874, Note_on_c, 0, 70, 93
2, 49875, Control_c, 0, 64, 63
2, 49878, Note_on_c, 0, 60, 0
2, 49878, Note_on_c, 0, 61, 76
2, 49882, Note_on_c, 0, 67, 57
2, 49884, Control_c, 0, 64, 0
2, 49887, Note_on_c, 0, 72, 0
2, 49890, Note_on_c, 0, 64, 50
2, 49901, Control_c, 0, 64, 63
2, 49924, Control_c, 0, 64, 127
2, 49945, Note_on_c, 0, 64, 0
2, 49958, Note_on_c, 0, 67, 0
2, 49959, Note_on_c, 0, 61, 0
2, 49986, Note_on_c, 0, 73, 89
2, 49996, Note_on_c, 0, 61, 72
2, 49997, Note_on_c, 0, 70, 0
2, 49999, Note_on_c, 0, 67, 63
2, 50001, Note_on_c, 0, 64, 76
2, 50057, Note_on_c, 0, 73, 0
2, 50063, Note_on_c, 0, 64, 0
2, 50064, Note_on_c, 0, 67, 0
2, 50069, Note_on_c, 0, 61, 0
2, 50102, Note_on_c, 0, 76, 87
2, 50105, Note_on_c, 0, 61, 88
2, 50105, Note_on_c, 0, 67, 88
2, 50108, Note_on_c, 0, 64, 90
2, 50158, Note_on_c, 0, 67, 0
2, 50160, Note_on_c, 0, 64, 0
2, 50170, Note_on_c, 0, 76, 0
2, 50175, Note_on_c, 0, 61, 0
2, 50197, Note_on_c, 0, 79, 108
2, 50201, Note_on_c, 0, 61, 99
2, 50208, Note_on_c, 0, 67, 81
2, 50211, Note_on_c, 0, 64, 88
2, 50263, Note_on_c, 0, 67, 0
2, 50269, Note_on_c, 0, 64, 0
2, 50299, Control_c, 0, 64, 63
2, 50305, Note_on_c, 0, 79, 0
2, 50306, Control_c, 0, 64, 0
2, 50307, Note_on_c, 0, 60, 94
2, 50309, Note_on_c, 0, 67, 96
2, 50312, Note_on_c, 0, 64, 90
2, 50316, Note_on_c, 0, 82, 103
2, 50327, Control_c, 0, 64, 63
2, 50338, Note_on_c, 0, 61, 0
2, 50342, Control_c, 0, 64, 127
2, 50372, Note_on_c, 0, 79, 90
2, 50381, Note_on_c, 0, 82, 0
2, 50429, Note_on_c, 0, 76, 94
2, 50442, Note_on_c, 0, 79, 0
2, 50476, Note_on_c, 0, 72, 84
2, 50481, Note_on_c, 0, 76, 0
2, 50517, Note_on_c, 0, 72, 0
2, 50526, Note_on_c, 0, 79, 103
2, 50530, Note_on_c, 0, 67, 0
2, 50536, Note_on_c, 0, 64, 0
2, 50557, Note_on_c, 0, 60, 0
2, 50564, Note_on_c, 0, 76, 108
2, 50583, Note_on_c, 0, 79, 0
2, 50617, Note_on_c, 0, 76, 0
2, 50618, Note_on_c, 0, 72, 96
2, 50671, Note_on_c, 0, 70, 101
2, 50674, Note_on_c, 0, 72, 0
2, 50702, Note_on_c, 0, 70, 0
2, 50732, Note_on_c, 0, 76, 113
2, 50782, Note_on_c, 0, 72, 97
2, 50808, Note_on_c, 0, 76, 0
2, 50835, Note_on_c, 0, 70, 105
2, 50851, Note_on_c, 0, 72, 0
2, 50883, Note_on_c, 0, 70, 0
2, 50883, Note_on_c, 0, 67, 82
2, 50922, Note_on_c, 0, 67, 0
2, 50937, Note_on_c, 0, 72, 100
2, 50986, Note_on_c, 0, 70, 108
2, 51008, Note_on_c, 0, 72, 0
2, 51046, Note_on_c, 0, 67, 102
2, 51058, Note_on_c, 0, 70, 0
2, 51092, Note_on_c, 0, 64, 96
2, 51099, Note_on_c, 0, 67, 0
2, 51142, Note_on_c, 0, 64, 0
2, 51144, Note_on_c, 0, 36, 77
2, 51144, Note_on_c, 0, 43, 101
2, 51144, Note_on_c, 0, 46, 112
2, 51148, Note_on_c, 0, 40, 91
2, 51155, Note_on_c, 0, 70, 109
2, 51202, Control_c, 0, 64, 63
2, 51205, Note_on_c, 0, 67, 94
2, 51206, Control_c, 0, 64, 0
2, 51221, Note_on_c, 0, 70, 0
2, 51259, Note_on_c, 0, 64, 99
2, 51280, Note_on_c, 0, 67, 0
2, 51310, Note_on_c, 0, 60, 96
2, 51317, Note_on_c, 0, 64, 0
2, 51360, Note_on_c, 0, 60, 0
2, 51366, Note_on_c, 0, 67, 99
2, 51408, Note_on_c, 0, 64, 101
2, 51430, Note_on_c, 0, 67, 0
2, 51432, Control_c, 0, 64, 63
2, 51433, Control_c, 0, 64, 127
2, 51463, Note_on_c, 0, 60, 102
2, 51472, Note_on_c, 0, 64, 0
2, 51508, Note_on_c, 0, 60, 0
2, 51521, Note_on_c, 0, 59, 89
2, 51567, Note_on_c, 0, 58, 105
2, 51573, Note_on_c, 0, 59, 0
2, 51597, Note_on_c, 0, 58, 0
2, 51626, Note_on_c, 0, 67, 92
2, 51679, Note_on_c, 0, 66, 107
2, 51686, Note_on_c, 0, 67, 0
2, 51734, Note_on_c, 0, 67, 102
2, 51753, Note_on_c, 0, 66, 0
2, 51787, Control_c, 0, 64, 127
2, 51792, Control_c, 0, 64, 63
2, 51796, Control_c, 0, 64, 0
2, 51804, Note_on_c, 0, 69, 107
2, 51822, Note_on_c, 0, 67, 0
2, 51858, Note_on_c, 0, 67, 93
2, 51870, Control_c, 0, 64, 63
2, 51875, Control_c, 0, 64, 127
2, 51894, Note_on_c, 0, 69, 0
2, 51921, Note_on_c, 0, 43, 0
2, 51927, Note_on_c, 0, 40, 0
2, 51928, Note_on_c, 0, 46, 0
2, 51932, Note_on_c, 0, 36, 0
2, 51932, Note_on_c, 0, 66, 110
2, 51958, Note_on_c, 0, 67, 0
2, 51990, Note_on_c, 0, 64, 101
2, 52021, Note_on_c, 0, 66, 0
2, 52052, Note_on_c, 0, 64, 0
2, 52073, Control_c, 0, 64, 63
2, 52076, Control_c, 0, 64, 0
2, 52081, Note_on_c, 0, 35, 120
2, 52082, Note_on_c, 0, 71, 116
2, 52086, Note_on_c, 0, 63, 112
2, 52116, Control_c, 0, 64, 63
2, 52120, Control_c, 0, 64, 127
2, 52148, Note_on_c, 0, 35, 0
2, 52174, Note_on_c, 0, 47, 86
2, 52235, Note_on_c, 0, 63, 0
2, 52236, Note_on_c, 0, 71, 0
2, 52237, Note_on_c, 0, 47, 0
2, 52238, Note_on_c, 0, 46, 93
2, 52282, Note_on_c, 0, 47, 75
2, 52283, Note_on_c, 0, 46, 0
2, 52344, Note_on_c, 0, 71, 120
2, 52347, Note_on_c, 0, 63, 118
2, 52349, Note_on_c, 0, 46, 88
2, 52362, Note_on_c, 0, 47, 0
2, 52372, Note_on_c, 0, 63, 0
2, 52383, Note_on_c, 0, 71, 0
2, 52390, Note_on_c, 0, 46, 0
2, 52395, Note_on_c, 0, 47, 70
2, 52450, Note_on_c, 0, 46, 89
2, 52457, Note_on_c, 0, 47, 0
2, 52501, Note_on_c, 0, 46, 0
2, 52509, Note_on_c, 0, 47, 90
2, 52518, Note_on_c, 0, 71, 113
2, 52522, Note_on_c, 0, 63, 108
2, 52540, Note_on_c, 0, 63, 0
2, 52547, Note_on_c, 0, 71, 0
2, 52552, Control_c, 0, 64, 63
2, 52556, Control_c, 0, 64, 0
2, 52559, Note_on_c, 0, 47, 0
2, 52569, Note_on_c, 0, 71, 109
2, 52572, Note_on_c, 0, 63, 109
2, 52574, Note_on_c, 0, 35, 106
2, 52594, Control_c, 0, 64, 63
2, 52601, Control_c, 0, 64, 127
2, 52614, Note_on_c, 0, 35, 0
2, 52627, Note_on_c, 0, 47, 83
2, 52694, Note_on_c, 0, 46, 94
2, 52696, Note_on_c, 0, 47, 0
2, 52707, Note_on_c, 0, 63, 0
2, 52711, Note_on_c, 0, 71, 0
2, 52728, Note_on_c, 0, 46, 0
2, 52749, Note_on_c, 0, 47, 75
2, 52804, Note_on_c, 0, 71, 116
2, 52807, Note_on_c, 0, 63, 109
2, 52808, Note_on_c, 0, 46, 85
2, 52817, Note_on_c, 0, 47, 0
2, 52846, Note_on_c, 0, 46, 0
2, 52851, Note_on_c, 0, 47, 76
2, 52854, Note_on_c, 0, 63, 0
2, 52908, Note_on_c, 0, 46, 94
2, 52915, Note_on_c, 0, 47, 0
2, 52951, Note_on_c, 0, 46, 0
2, 52961, Note_on_c, 0, 47, 88
2, 53016, Note_on_c, 0, 47, 0
2, 53016, Control_c, 0, 64, 63
2, 53021, Control_c, 0, 64, 0
2, 53032, Note_on_c, 0, 72, 112
2, 53033, Note_on_c, 0, 35, 104
2, 53037, Note_on_c, 0, 64, 106
2, 53055, Control_c, 0, 64, 63
2, 53058, Note_on_c, 0, 71, 0
2, 53066, Control_c, 0, 64, 127
2, 53072, Note_on_c, 0, 35, 0
2, 53080, Note_on_c, 0, 47, 87
2, 53155, Note_on_c, 0, 46, 78
2, 53161, Note_on_c, 0, 47, 0
2, 53197, Note_on_c, 0, 46, 0
2, 53209, Note_on_c, 0, 47, 60
2, 53230, Note_on_c, 0, 71, 98
2, 53267, Note_on_c, 0, 64, 0
2, 53267, Note_on_c, 0, 46, 83
2, 53272, Note_on_c, 0, 69, 102
2, 53274, Note_on_c, 0, 47, 0
2, 53307, Note_on_c, 0, 46, 0
2, 53313, Note_on_c, 0, 47, 70
2, 53325, Note_on_c, 0, 71, 0
2, 53363, Note_on_c, 0, 46, 92
2, 53375, Note_on_c, 0, 47, 0
2, 53379, Note_on_c, 0, 69, 0
2, 53408, Note_on_c, 0, 46, 0
2, 53412, Note_on_c, 0, 47, 74
2, 53437, Note_on_c, 0, 68, 101
2, 53463, Note_on_c, 0, 72, 0
2, 53465, Note_on_c, 0, 47, 0
2, 53473, Note_on_c, 0, 68, 0
2, 53480, Note_on_c, 0, 35, 111
2, 53486, Control_c, 0, 64, 63
2, 53486, Note_on_c, 0, 69, 98
2, 53488, Note_on_c, 0, 66, 106
2, 53516, Control_c, 0, 64, 127
2, 53519, Note_on_c, 0, 35, 0
2, 53520, Note_on_c, 0, 47, 100
2, 53596, Note_on_c, 0, 46, 88
2, 53598, Note_on_c, 0, 47, 0
2, 53634, Note_on_c, 0, 66, 0
2, 53643, Note_on_c, 0, 46, 0
2, 53650, Note_on_c, 0, 47, 68
2, 53672, Note_on_c, 0, 75, 105
2, 53703, Note_on_c, 0, 69, 0
2, 53711, Note_on_c, 0, 46, 88
2, 53717, Note_on_c, 0, 47, 0
2, 53722, Note_on_c, 0, 76, 107
2, 53741, Note_on_c, 0, 75, 0
2, 53752, Note_on_c, 0, 46, 0
2, 53755, Note_on_c, 0, 47, 63
2, 53761, Note_on_c, 0, 76, 0
2, 53808, Note_on_c, 0, 46, 85
2, 53817, Note_on_c, 0, 47, 0
2, 53852, Note_on_c, 0, 46, 0
2, 53859, Note_on_c, 0, 47, 61
2, 53890, Note_on_c, 0, 72, 78
2, 53913, Note_on_c, 0, 47, 0
2, 53926, Note_on_c, 0, 72, 0
2, 53934, Note_on_c, 0, 35, 106
2, 53938, Note_on_c, 0, 71, 89
2, 53941, Note_on_c, 0, 63, 107
2, 53960, Control_c, 0, 64, 63
2, 53968, Control_c, 0, 64, 0
2, 53977, Control_c, 0, 64, 63
2, 53983, Note_on_c, 0, 35, 0
2, 53988, Note_on_c, 0, 47, 96
2, 53993, Control_c, 0, 64, 127
2, 54053, Note_on_c, 0, 63, 0
2, 54070, Note_on_c, 0, 46, 76
2, 54077, Note_on_c, 0, 47, 0
2, 54119, Note_on_c, 0, 47, 63
2, 54122, Note_on_c, 0, 69, 82
2, 54123, Note_on_c, 0, 46, 0
2, 54165, Note_on_c, 0, 67, 100
2, 54170, Note_on_c, 0, 46, 85
2, 54181, Note_on_c, 0, 47, 0
2, 54194, Note_on_c, 0, 69, 0
2, 54212, Note_on_c, 0, 46, 0
2, 54216, Note_on_c, 0, 47, 65
2, 54269, Note_on_c, 0, 46, 88
2, 54281, Note_on_c, 0, 47, 0
2, 54316, Note_on_c, 0, 46, 0
2, 54319, Note_on_c, 0, 47, 73
2, 54329, Note_on_c, 0, 66, 97
2, 54339, Note_on_c, 0, 67, 0
2, 54362, Note_on_c, 0, 66, 0
2, 54373, Control_c, 0, 64, 63
2, 54374, Note_on_c, 0, 47, 0
2, 54375, Note_on_c, 0, 71, 0
2, 54379, Control_c, 0, 64, 0
2, 54382, Note_on_c, 0, 67, 101
2, 54386, Note_on_c, 0, 35, 113
2, 54391, Note_on_c, 0, 64, 101
2, 54405, Control_c, 0, 64, 63
2, 54413, Control_c, 0, 64, 127
2, 54421, Note_on_c, 0, 35, 0
2, 54428, Note_on_c, 0, 47, 88
2, 54433, Note_on_c, 0, 67, 0
2, 54496, Note_on_c, 0, 47, 0
2, 54496, Note_on_c, 0, 46, 79
2, 54540, Note_on_c, 0, 46, 0
2, 54544, Note_on_c, 0, 47, 66
2, 54569, Note_on_c, 0, 64, 0
2, 54574, Note_on_c, 0, 75, 103
2, 54598, Note_on_c, 0, 46, 84
2, 54608, Note_on_c, 0, 47, 0
2, 54620, Note_on_c, 0, 76, 106
2, 54630, Note_on_c, 0, 75, 0
2, 54646, Note_on_c, 0, 47, 65
2, 54647, Note_on_c, 0, 46, 0
2, 54658, Note_on_c, 0, 76, 0
2, 54697, Note_on_c, 0, 46, 86
2, 54710, Note_on_c, 0, 47, 0
2, 54743, Note_on_c, 0, 46, 0
2, 54749, Note_on_c, 0, 47, 65
2, 54789, Note_on_c, 0, 71, 101
2, 54820, Note_on_c, 0, 47, 0
2, 54834, Note_on_c, 0, 69, 102
2, 54836, Note_on_c, 0, 35, 109
2, 54837, Note_on_c, 0, 61, 105
2, 54850, Control_c, 0, 64, 63
2, 54858, Control_c, 0, 64, 0
2, 54865, Note_on_c, 0, 71, 0
2, 54876, Control_c, 0, 64, 63
2, 54878, Note_on_c, 0, 35, 0
2, 54886, Note_on_c, 0, 61, 0
2, 54890, Control_c, 0, 64, 127
2, 54893, Note_on_c, 0, 47, 86
2, 54964, Note_on_c, 0, 46, 83
2, 54968, Note_on_c, 0, 47, 0
2, 55009, Note_on_c, 0, 46, 0
2, 55011, Note_on_c, 0, 67, 91
2, 55018, Note_on_c, 0, 47, 60
2, 55061, Note_on_c, 0, 66, 114
2, 55069, Note_on_c, 0, 46, 85
2, 55080, Note_on_c, 0, 47, 0
2, 55091, Note_on_c, 0, 67, 0
2, 55107, Note_on_c, 0, 46, 0
2, 55115, Note_on_c, 0, 47, 64
2, 55163, Note_on_c, 0, 46, 87
2, 55178, Note_on_c, 0, 47, 0
2, 55212, Note_on_c, 0, 46, 0
2, 55217, Note_on_c, 0, 47, 76
2, 55218, Note_on_c, 0, 64, 73
2, 55229, Note_on_c, 0, 66, 0
2, 55240, Note_on_c, 0, 64, 0
2, 55269, Note_on_c, 0, 47, 0
2, 55270, Control_c, 0, 64, 63
2, 55279, Note_on_c, 0, 66, 114
2, 55283, Note_on_c, 0, 63, 107
2, 55285, Note_on_c, 0, 35, 104
2, 55293, Note_on_c, 0, 69, 0
2, 55299, Control_c, 0, 64, 127
2, 55317, Note_on_c, 0, 35, 0
2, 55327, Note_on_c, 0, 47, 89
2, 55363, Note_on_c, 0, 63, 0
2, 55385, Note_on_c, 0, 47, 0
2, 55402, Note_on_c, 0, 46, 66
2, 55429, Note_on_c, 0, 46, 0
2, 55436, Note_on_c, 0, 66, 0
2, 55449, Note_on_c, 0, 47, 52
2, 55465, Note_on_c, 0, 71, 90
2, 55505, Note_on_c, 0, 46, 77
2, 55514, Note_on_c, 0, 47, 0
2, 55515, Note_on_c, 0, 72, 102
2, 55525, Note_on_c, 0, 71, 0
2, 55547, Note_on_c, 0, 46, 0
2, 55559, Note_on_c, 0, 47, 50
2, 55623, Note_on_c, 0, 46, 62
2, 55628, Note_on_c, 0, 47, 0
2, 55686, Note_on_c, 0, 46, 0
2, 55695, Note_on_c, 0, 47, 51
2, 55699, Note_on_c, 0, 69, 77
2, 55703, Note_on_c, 0, 72, 0
2, 55749, Control_c, 0, 64, 63
2, 55754, Control_c, 0, 64, 0
2, 55758, Note_on_c, 0, 69, 0
2, 55762, Note_on_c, 0, 68, 87
2, 55768, Note_on_c, 0, 64, 52
2, 55773, Note_on_c, 0, 40, 71
2, 55774, Note_on_c, 0, 47, 0
2, 55808, Control_c, 0, 64, 63
2, 55818, Control_c, 0, 64, 127
2, 55841, Note_on_c, 0, 40, 0
2, 55853, Note_on_c, 0, 64, 0
2, 55865, Note_on_c, 0, 68, 0
2, 55869, Note_on_c, 0, 52, 59
2, 55920, Note_on_c, 0, 51, 59
2, 55921, Note_on_c, 0, 52, 0
2, 55929, Note_on_c, 0, 51, 0
2, 55976, Note_on_c, 0, 52, 44
2, 56034, Note_on_c, 0, 76, 78
2, 56043, Note_on_c, 0, 51, 58
2, 56044, Note_on_c, 0, 52, 0
2, 56047, Note_on_c, 0, 68, 57
2, 56068, Note_on_c, 0, 51, 0
2, 56081, Note_on_c, 0, 68, 0
2, 56084, Note_on_c, 0, 76, 0
2, 56093, Note_on_c, 0, 52, 57
2, 56140, Note_on_c, 0, 51, 76
2, 56149, Note_on_c, 0, 52, 0
2, 56177, Note_on_c, 0, 51, 0
2, 56191, Note_on_c, 0, 52, 68
2, 56194, Note_on_c, 0, 76, 70
2, 56201, Note_on_c, 0, 68, 49
2, 56224, Note_on_c, 0, 68, 0
2, 56238, Note_on_c, 0, 52, 0
2, 56253, Note_on_c, 0, 68, 56
2, 56254, Note_on_c, 0, 40, 68
2, 56269, Control_c, 0, 64, 63
2, 56290, Note_on_c, 0, 40, 0
2, 56303, Control_c, 0, 64, 127
2, 56314, Note_on_c, 0, 52, 45
2, 56374, Note_on_c, 0, 51, 68
2, 56379, Note_on_c, 0, 52, 0
2, 56404, Note_on_c, 0, 68, 0
2, 56405, Note_on_c, 0, 51, 0
2, 56410, Note_on_c, 0, 76, 0
2, 56425, Note_on_c, 0, 52, 40
2, 56486, Note_on_c, 0, 51, 52
2, 56490, Note_on_c, 0, 52, 0
2, 56497, Note_on_c, 0, 76, 87
2, 56501, Note_on_c, 0, 68, 75
2, 56513, Note_on_c, 0, 51, 0
2, 56523, Note_on_c, 0, 52, 57
2, 56561, Note_on_c, 0, 68, 0
2, 56591, Note_on_c, 0, 51, 74
2, 56605, Note_on_c, 0, 52, 0
2, 56636, Note_on_c, 0, 52, 72
2, 56640, Note_on_c, 0, 51, 0
2, 56692, Note_on_c, 0, 52, 0
2, 56710, Note_on_c, 0, 40, 77
2, 56715, Control_c, 0, 64, 63
2, 56716, Note_on_c, 0, 77, 82
2, 56718, Note_on_c, 0, 69, 58
2, 56753, Note_on_c, 0, 40, 0
2, 56755, Control_c, 0, 64, 127
2, 56759, Note_on_c, 0, 76, 0
2, 56767, Note_on_c, 0, 52, 57
2, 56844, Note_on_c, 0, 51, 48
2, 56850, Note_on_c, 0, 52, 0
2, 56883, Note_on_c, 0, 51, 0
2, 56892, Note_on_c, 0, 52, 31
2, 56904, Note_on_c, 0, 76, 70
2, 56955, Note_on_c, 0, 51, 52
2, 56959, Note_on_c, 0, 74, 77
2, 56960, Note_on_c, 0, 52, 0
2, 56982, Note_on_c, 0, 51, 0
2, 57002, Note_on_c, 0, 76, 0
2, 57003, Note_on_c, 0, 52, 36
2, 57045, Note_on_c, 0, 69, 0
2, 57050, Note_on_c, 0, 51, 62
2, 57061, Note_on_c, 0, 52, 0
2, 57085, Note_on_c, 0, 74, 0
2, 57094, Note_on_c, 0, 51, 0
2, 57102, Note_on_c, 0, 52, 46
2, 57112, Note_on_c, 0, 73, 63
2, 57137, Note_on_c, 0, 77, 0
2, 57150, Note_on_c, 0, 73, 0
2, 57151, Note_on_c, 0, 52, 0
2, 57161, Note_on_c, 0, 40, 81
2, 57166, Note_on_c, 0, 74, 79
2, 57173, Note_on_c, 0, 71, 66
2, 57174, Control_c, 0, 64, 63
2, 57201, Note_on_c, 0, 40, 0
2, 57209, Control_c, 0, 64, 127
2, 57217, Note_on_c, 0, 52, 56
2, 57282, Note_on_c, 0, 51, 59
2, 57290, Note_on_c, 0, 52, 0
2, 57320, Note_on_c, 0, 51, 0
2, 57328, Note_on_c, 0, 80, 78
2, 57333, Note_on_c, 0, 52, 39
2, 57341, Note_on_c, 0, 71, 0
2, 57382, Note_on_c, 0, 81, 73
2, 57394, Note_on_c, 0, 51, 66
2, 57395, Note_on_c, 0, 74, 0
2, 57399, Note_on_c, 0, 52, 0
2, 57403, Note_on_c, 0, 80, 0
2, 57417, Note_on_c, 0, 81, 0
2, 57439, Note_on_c, 0, 51, 0
2, 57447, Note_on_c, 0, 52, 37
2, 57497, Note_on_c, 0, 51, 59
2, 57507, Note_on_c, 0, 52, 0
2, 57532, Note_on_c, 0, 51, 0
2, 57541, Note_on_c, 0, 77, 72
2, 57548, Note_on_c, 0, 52, 50
2, 57594, Note_on_c, 0, 77, 0
2, 57600, Note_on_c, 0, 52, 0
2, 57605, Note_on_c, 0, 76, 78
2, 57608, Note_on_c, 0, 68, 76
2, 57613, Note_on_c, 0, 40, 80
2, 57633, Control_c, 0, 64, 63
2, 57645, Control_c, 0, 64, 0
2, 57654, Control_c, 0, 64, 63
2, 57657, Note_on_c, 0, 40, 0
2, 57670, Note_on_c, 0, 52, 59
2, 57671, Control_c, 0, 64, 127
2, 57748, Note_on_c, 0, 68, 0
2, 57751, Note_on_c, 0, 51, 57
2, 57756, Note_on_c, 0, 52, 0
2, 57801, Note_on_c, 0, 74, 57
2, 57802, Note_on_c, 0, 51, 0
2, 57805, Note_on_c, 0, 52, 39
2, 57849, Note_on_c, 0, 72, 83
2, 57857, Note_on_c, 0, 51, 62
2, 57871, Note_on_c, 0, 52, 0
2, 57879, Note_on_c, 0, 74, 0
2, 57912, Note_on_c, 0, 51, 0
2, 57917, Note_on_c, 0, 52, 45
2, 57951, Note_on_c, 0, 51, 63
2, 57972, Note_on_c, 0, 52, 0
2, 58001, Note_on_c, 0, 51, 0
2, 58002, Note_on_c, 0, 52, 71
2, 58007, Note_on_c, 0, 71, 61
2, 58021, Note_on_c, 0, 72, 0
2, 58040, Note_on_c, 0, 71, 0
2, 58055, Note_on_c, 0, 52, 0
2, 58056, Note_on_c, 0, 76, 0
2, 58062, Control_c, 0, 64, 63
2, 58063, Note_on_c, 0, 72, 86
2, 58064, Note_on_c, 0, 40, 83
2, 58070, Note_on_c, 0, 69, 80
2, 58096, Control_c, 0, 64, 127
2, 58102, Note_on_c, 0, 40, 0
2, 58108, Note_on_c, 0, 72, 0
2, 58108, Note_on_c, 0, 52, 59
2, 58176, Note_on_c, 0, 51, 65
2, 58188, Note_on_c, 0, 52, 0
2, 58216, Note_on_c, 0, 51, 0
2, 58222, Note_on_c, 0, 52, 56
2, 58229, Note_on_c, 0, 69, 0
2, 58235, Note_on_c, 0, 80, 81
2, 58284, Note_on_c, 0, 81, 66
2, 58286, Note_on_c, 0, 51, 72
2, 58290, Note_on_c, 0, 80, 0
2, 58300, Note_on_c, 0, 52, 0
2, 58307, Note_on_c, 0, 81, 0
2, 58327, Note_on_c, 0, 51, 0
2, 58336, Note_on_c, 0, 52, 60
2, 58374, Note_on_c, 0, 51, 75
2, 58395, Note_on_c, 0, 52, 0
2, 58422, Note_on_c, 0, 51, 0
2, 58428, Note_on_c, 0, 52, 64
2, 58456, Note_on_c, 0, 76, 82
2, 58483, Note_on_c, 0, 52, 0
2, 58494, Note_on_c, 0, 76, 0
2, 58503, Note_on_c, 0, 66, 78
2, 58506, Note_on_c, 0, 74, 81
2, 58507, Note_on_c, 0, 40, 82
2, 58517, Control_c, 0, 64, 63
2, 58525, Control_c, 0, 64, 0
2, 58540, Control_c, 0, 64, 63
2, 58554, Control_c, 0, 64, 127
2, 58558, Note_on_c, 0, 40, 0
2, 58562, Note_on_c, 0, 66, 0
2, 58563, Note_on_c, 0, 52, 77
2, 58635, Note_on_c, 0, 51, 69
2, 58648, Note_on_c, 0, 52, 0
2, 58677, Note_on_c, 0, 51, 0
2, 58682, Note_on_c, 0, 52, 56
2, 58682, Note_on_c, 0, 72, 83
2, 58734, Note_on_c, 0, 51, 69
2, 58735, Note_on_c, 0, 71, 89
2, 58748, Note_on_c, 0, 52, 0
2, 58770, Note_on_c, 0, 72, 0
2, 58778, Note_on_c, 0, 51, 0
2, 58779, Note_on_c, 0, 52, 54
2, 58841, Note_on_c, 0, 51, 73
2, 58858, Note_on_c, 0, 52, 0
2, 58891, Note_on_c, 0, 51, 0
2, 58891, Note_on_c, 0, 52, 64
2, 58897, Note_on_c, 0, 69, 70
2, 58922, Note_on_c, 0, 71, 0
2, 58928, Note_on_c, 0, 69, 0
2, 58938, Note_on_c, 0, 52, 0
2, 58947, Control_c, 0, 64, 63
2, 58949, Note_on_c, 0, 74, 0
2, 58951, Note_on_c, 0, 40, 94
2, 58955, Control_c, 0, 64, 0
2, 58956, Note_on_c, 0, 71, 84
2, 58959, Note_on_c, 0, 68, 93
2, 58966, Control_c, 0, 64, 63
2, 58979, Control_c, 0, 64, 127
2, 58988, Note_on_c, 0, 40, 0
2, 59001, Note_on_c, 0, 68, 0
2, 59017, Note_on_c, 0, 52, 67
2, 59025, Note_on_c, 0, 71, 0
2, 59069, Note_on_c, 0, 51, 72
2, 59077, Note_on_c, 0, 52, 0
2, 59109, Note_on_c, 0, 51, 0
2, 59114, Note_on_c, 0, 52, 53
2, 59123, Note_on_c, 0, 76, 89
2, 59168, Note_on_c, 0, 77, 98
2, 59173, Note_on_c, 0, 51, 71
2, 59186, Note_on_c, 0, 52, 0
2, 59200, Note_on_c, 0, 76, 0
2, 59210, Note_on_c, 0, 51, 0
2, 59220, Note_on_c, 0, 52, 58
2, 59270, Note_on_c, 0, 51, 85
2, 59276, Note_on_c, 0, 52, 0
2, 59320, Note_on_c, 0, 52, 69
2, 59328, Note_on_c, 0, 51, 0
2, 59342, Note_on_c, 0, 74, 78
2, 59353, Note_on_c, 0, 77, 0
2, 59379, Note_on_c, 0, 52, 0
2, 59421, Note_on_c, 0, 74, 0
2, 59423, Control_c, 0, 64, 127
2, 59431, Note_on_c, 0, 45, 122
2, 59435, Note_on_c, 0, 73, 121
2, 59435, Note_on_c, 0, 69, 106
2, 59499, Control_c, 0, 64, 63
2, 59507, Note_on_c, 0, 45, 0
2, 59507, Control_c, 0, 64, 127
2, 59520, Note_on_c, 0, 57, 102
2, 59555, Note_on_c, 0, 69, 0
2, 59567, Note_on_c, 0, 73, 0
2, 59573, Note_on_c, 0, 57, 0
2, 59579, Note_on_c, 0, 56, 103
2, 59619, Note_on_c, 0, 57, 89
2, 59622, Note_on_c, 0, 56, 0
2, 59666, Note_on_c, 0, 56, 98
2, 59680, Note_on_c, 0, 57, 0
2, 59680, Note_on_c, 0, 81, 120
2, 59682, Note_on_c, 0, 73, 123
2, 59689, Control_c, 0, 64, 63
2, 59704, Note_on_c, 0, 56, 0
2, 59705, Note_on_c, 0, 57, 78
2, 59713, Control_c, 0, 64, 127
2, 59768, Note_on_c, 0, 56, 97
2, 59782, Note_on_c, 0, 57, 0
2, 59792, Note_on_c, 0, 73, 0
2, 59796, Note_on_c, 0, 81, 0
2, 59820, Note_on_c, 0, 56, 0
2, 59832, Note_on_c, 0, 57, 84
2, 59862, Note_on_c, 0, 81, 113
2, 59864, Note_on_c, 0, 73, 112
2, 59889, Note_on_c, 0, 57, 0
2, 59889, Note_on_c, 0, 73, 0
2, 59891, Note_on_c, 0, 81, 0
2, 59907, Note_on_c, 0, 81, 112
2, 59911, Note_on_c, 0, 73, 104
2, 59913, Control_c, 0, 64, 63
2, 59915, Note_on_c, 0, 45, 114
2, 59921, Control_c, 0, 64, 127
2, 59962, Note_on_c, 0, 45, 0
2, 59988, Note_on_c, 0, 57, 100
2, 60047, Note_on_c, 0, 56, 100
2, 60049, Note_on_c, 0, 73, 0
2, 60055, Note_on_c, 0, 81, 0
2, 60057, Note_on_c, 0, 57, 0
2, 60083, Note_on_c, 0, 56, 0
2, 60089, Note_on_c, 0, 57, 82
2, 60142, Note_on_c, 0, 81, 122
2, 60145, Note_on_c, 0, 73, 116
2, 60145, Note_on_c, 0, 56, 99
2, 60156, Note_on_c, 0, 57, 0
2, 60179, Note_on_c, 0, 56, 0
2, 60183, Note_on_c, 0, 57, 79
2, 60211, Note_on_c, 0, 73, 0
2, 60238, Note_on_c, 0, 56, 105
2, 60252, Note_on_c, 0, 57, 0
2, 60284, Note_on_c, 0, 56, 0
2, 60286, Note_on_c, 0, 57, 96
2, 60343, Note_on_c, 0, 57, 0
2, 60351, Control_c, 0, 64, 63
2, 60356, Control_c, 0, 64, 0
2, 60363, Note_on_c, 0, 82, 118
2, 60364, Note_on_c, 0, 45, 114
2, 60366, Note_on_c, 0, 74, 109
2, 60388, Control_c, 0, 64, 63
2, 60397, Control_c, 0, 64, 127
2, 60412, Note_on_c, 0, 45, 0
2, 60415, Note_on_c, 0, 81, 0
2, 60430, Note_on_c, 0, 57, 102
2, 60470, Note_on_c, 0, 74, 0
2, 60497, Note_on_c, 0, 56, 86
2, 60504, Note_on_c, 0, 82, 0
2, 60506, Note_on_c, 0, 57, 0
2, 60529, Note_on_c, 0, 56, 0
2, 60543, Note_on_c, 0, 57, 63
2, 60546, Note_on_c, 0, 81, 104
2, 60598, Note_on_c, 0, 79, 109
2, 60599, Note_on_c, 0, 56, 89
2, 60604, Note_on_c, 0, 57, 0
2, 60626, Note_on_c, 0, 81, 0
2, 60633, Note_on_c, 0, 56, 0
2, 60636, Note_on_c, 0, 57, 73
2, 60688, Note_on_c, 0, 56, 92
2, 60698, Note_on_c, 0, 57, 0
2, 60706, Note_on_c, 0, 79, 0
2, 60729, Note_on_c, 0, 56, 0
2, 60738, Note_on_c, 0, 57, 84
2, 60759, Note_on_c, 0, 78, 99
2, 60790, Note_on_c, 0, 78, 0
2, 60791, Note_on_c, 0, 57, 0
2, 60812, Note_on_c, 0, 45, 118
2, 60813, Note_on_c, 0, 79, 112
2, 60816, Note_on_c, 0, 76, 111
2, 60821, Control_c, 0, 64, 63
2, 60827, Control_c, 0, 64, 0
2, 60843, Control_c, 0, 64, 63
2, 60855, Note_on_c, 0, 45, 0
2, 60855, Control_c, 0, 64, 127
2, 60876, Note_on_c, 0, 57, 98
2, 60938, Note_on_c, 0, 56, 97
2, 60947, Note_on_c, 0, 57, 0
2, 60960, Note_on_c, 0, 76, 0
2, 60981, Note_on_c, 0, 57, 74
2, 60982, Note_on_c, 0, 56, 0
2, 60995, Note_on_c, 0, 85, 101
2, 61035, Note_on_c, 0, 56, 97
2, 61037, Note_on_c, 0, 79, 0
2, 61044, Note_on_c, 0, 86, 109
2, 61048, Note_on_c, 0, 57, 0
2, 61067, Note_on_c, 0, 85, 0
2, 61075, Note_on_c, 0, 56, 0
2, 61079, Note_on_c, 0, 57, 75
2, 61086, Note_on_c, 0, 86, 0
2, 61134, Note_on_c, 0, 56, 88
2, 61150, Note_on_c, 0, 57, 0
2, 61179, Note_on_c, 0, 56, 0
2, 61184, Note_on_c, 0, 57, 72
2, 61218, Note_on_c, 0, 82, 105
2, 61239, Note_on_c, 0, 57, 0
2, 61265, Note_on_c, 0, 45, 102
2, 61269, Note_on_c, 0, 81, 108
2, 61276, Note_on_c, 0, 73, 103
2, 61287, Control_c, 0, 64, 63
2, 61292, Control_c, 0, 64, 0
2, 61298, Note_on_c, 0, 82, 0
2, 61317, Note_on_c, 0, 45, 0
2, 61318, Control_c, 0, 64, 63
2, 61329, Control_c, 0, 64, 127
2, 61331, Note_on_c, 0, 57, 103
2, 61379, Note_on_c, 0, 73, 0
2, 61402, Note_on_c, 0, 57, 0
2, 61404, Note_on_c, 0, 56, 88
2, 61443, Note_on_c, 0, 57, 67
2, 61444, Note_on_c, 0, 56, 0
2, 61451, Note_on_c, 0, 79, 108
2, 61497, Note_on_c, 0, 56, 94
2, 61503, Note_on_c, 0, 57, 0
2, 61507, Note_on_c, 0, 77, 111
2, 61534, Note_on_c, 0, 56, 0
2, 61535, Note_on_c, 0, 57, 62
2, 61550, Note_on_c, 0, 79, 0
2, 61586, Note_on_c, 0, 56, 95
2, 61598, Note_on_c, 0, 57, 0
2, 61632, Note_on_c, 0, 57, 79
2, 61633, Note_on_c, 0, 56, 0
2, 61667, Note_on_c, 0, 76, 89
2, 61684, Note_on_c, 0, 77, 0
2, 61696, Note_on_c, 0, 57, 0
2, 61696, Note_on_c, 0, 76, 0
2, 61709, Control_c, 0, 64, 63
2, 61713, Note_on_c, 0, 81, 0
2, 61713, Control_c, 0, 64, 0
2, 61717, Note_on_c, 0, 45, 114
2, 61727, Note_on_c, 0, 74, 109
2, 61727, Note_on_c, 0, 77, 98
2, 61740, Note_on_c, 0, 76, 52
2, 61742, Control_c, 0, 64, 63
2, 61752, Control_c, 0, 64, 127
2, 61763, Note_on_c, 0, 45, 0
2, 61765, Note_on_c, 0, 76, 0
2, 61769, Note_on_c, 0, 77, 0
2, 61785, Note_on_c, 0, 57, 92
2, 61832, Note_on_c, 0, 74, 0
2, 61841, Note_on_c, 0, 56, 87
2, 61853, Note_on_c, 0, 57, 0
2, 61881, Note_on_c, 0, 57, 76
2, 61883, Note_on_c, 0, 56, 0
2, 61903, Note_on_c, 0, 85, 112
2, 61942, Note_on_c, 0, 56, 94
2, 61942, Note_on_c, 0, 86, 114
2, 61947, Note_on_c, 0, 57, 0
2, 61963, Note_on_c, 0, 85, 0
2, 61981, Note_on_c, 0, 56, 0
2, 61982, Note_on_c, 0, 57, 71
2, 61988, Note_on_c, 0, 86, 0
2, 62031, Note_on_c, 0, 56, 100
2, 62051, Note_on_c, 0, 57, 0
2, 62076, Note_on_c, 0, 57, 98
2, 62085, Note_on_c, 0, 56, 0
2, 62113, Note_on_c, 0, 81, 104
2, 62147, Note_on_c, 0, 57, 0
2, 62161, Note_on_c, 0, 81, 0
2, 62166, Note_on_c, 0, 45, 112
2, 62169, Note_on_c, 0, 79, 111
2, 62171, Note_on_c, 0, 71, 112
2, 62180, Note_on_c, 0, 81, 38
2, 62183, Control_c, 0, 64, 63
2, 62187, Control_c, 0, 64, 0
2, 62206, Note_on_c, 0, 81, 0
2, 62213, Control_c, 0, 64, 63
2, 62222, Control_c, 0, 64, 127
2, 62231, Note_on_c, 0, 45, 0
2, 62243, Note_on_c, 0, 57, 106
2, 62306, Note_on_c, 0, 71, 0
2, 62309, Note_on_c, 0, 56, 90
2, 62318, Note_on_c, 0, 57, 0
2, 62342, Note_on_c, 0, 77, 107
2, 62352, Note_on_c, 0, 57, 65
2, 62355, Note_on_c, 0, 56, 0
2, 62398, Note_on_c, 0, 76, 118
2, 62402, Note_on_c, 0, 56, 90
2, 62414, Note_on_c, 0, 57, 0
2, 62435, Note_on_c, 0, 77, 0
2, 62439, Note_on_c, 0, 56, 0
2, 62443, Note_on_c, 0, 57, 76
2, 62493, Note_on_c, 0, 56, 94
2, 62511, Note_on_c, 0, 57, 0
2, 62548, Note_on_c, 0, 56, 0
2, 62551, Note_on_c, 0, 57, 87
2, 62556, Note_on_c, 0, 74, 94
2, 62588, Note_on_c, 0, 74, 0
2, 62592, Note_on_c, 0, 79, 0
2, 62594, Note_on_c, 0, 76, 0
2, 62610, Note_on_c, 0, 57, 0
2, 62619, Note_on_c, 0, 76, 107
2, 62622, Note_on_c, 0, 45, 117
2, 62624, Note_on_c, 0, 73, 105
2, 62625, Control_c, 0, 64, 63
2, 62648, Control_c, 0, 64, 127
2, 62667, Note_on_c, 0, 45, 0
2, 62682, Note_on_c, 0, 57, 99
2, 62738, Note_on_c, 0, 73, 0
2, 62747, Note_on_c, 0, 56, 97
2, 62758, Note_on_c, 0, 57, 0
2, 62793, Note_on_c, 0, 56, 0
2, 62796, Note_on_c, 0, 57, 69
2, 62801, Note_on_c, 0, 81, 87
2, 62821, Note_on_c, 0, 76, 0
2, 62844, Note_on_c, 0, 82, 116
2, 62849, Note_on_c, 0, 56, 99
2, 62861, Note_on_c, 0, 57, 0
2, 62870, Note_on_c, 0, 81, 0
2, 62901, Note_on_c, 0, 56, 0
2, 62907, Note_on_c, 0, 57, 80
2, 62928, Note_on_c, 0, 82, 0
2, 62940, Note_on_c, 0, 56, 88
2, 62958, Note_on_c, 0, 57, 0
2, 63000, Note_on_c, 0, 57, 74
2, 63022, Note_on_c, 0, 79, 103
2, 63024, Note_on_c, 0, 56, 0
2, 63065, Note_on_c, 0, 57, 0
2, 63071, Note_on_c, 0, 50, 125
2, 63072, Note_on_c, 0, 74, 116
2, 63072, Note_on_c, 0, 77, 120
2, 63085, Control_c, 0, 64, 127
2, 63103, Note_on_c, 0, 79, 0
2, 63113, Note_on_c, 0, 53, 91
2, 63145, Note_on_c, 0, 50, 0
2, 63175, Note_on_c, 0, 57, 98
2, 63201, Note_on_c, 0, 53, 0
2, 63233, Note_on_c, 0, 62, 104
2, 63238, Note_on_c, 0, 57, 0
2, 63282, Note_on_c, 0, 62, 0
2, 63283, Control_c, 0, 64, 63
2, 63285, Control_c, 0, 64, 0
2, 63290, Note_on_c, 0, 65, 113
2, 63303, Note_on_c, 0, 77, 0
2, 63310, Note_on_c, 0, 74, 0
2, 63343, Note_on_c, 0, 64, 103
2, 63362, Note_on_c, 0, 65, 0
2, 63400, Note_on_c, 0, 62, 101
2, 63406, Note_on_c, 0, 64, 0
2, 63457, Note_on_c, 0, 74, 112
2, 63459, Note_on_c, 0, 77, 107
2, 63459, Note_on_c, 0, 60, 107
2, 63461, Note_on_c, 0, 62, 0
2, 63486, Note_on_c, 0, 74, 0
2, 63487, Note_on_c, 0, 77, 0
2, 63488, Control_c, 0, 64, 63
2, 63490, Control_c, 0, 64, 127
2, 63508, Note_on_c, 0, 59, 109
2, 63512, Note_on_c, 0, 60, 0
2, 63518, Note_on_c, 0, 77, 117
2, 63518, Note_on_c, 0, 86, 120
2, 63536, Note_on_c, 0, 77, 0
2, 63542, Note_on_c, 0, 86, 0
2, 63569, Note_on_c, 0, 60, 102
2, 63580, Note_on_c, 0, 59, 0
2, 63621, Note_on_c, 0, 60, 0
2, 63635, Note_on_c, 0, 62, 84
2, 63679, Note_on_c, 0, 60, 80
2, 63689, Note_on_c, 0, 62, 0
2, 63721, Note_on_c, 0, 59, 101
2, 63735, Note_on_c, 0, 60, 0
2, 63737, Note_on_c, 0, 77, 122
2, 63741, Note_on_c, 0, 74, 108
2, 63756, Control_c, 0, 64, 63
2, 63760, Control_c, 0, 64, 0
2, 63783, Note_on_c, 0, 79, 92
2, 63784, Note_on_c, 0, 77, 0
2, 63787, Note_on_c, 0, 55, 83
2, 63807, Note_on_c, 0, 59, 0
2, 63822, Note_on_c, 0, 77, 99
2, 63837, Note_on_c, 0, 57, 73
2, 63841, Note_on_c, 0, 79, 0
2, 63854, Note_on_c, 0, 55, 0
2, 63856, Note_on_c, 0, 74, 0
2, 63867, Note_on_c, 0, 76, 99
2, 63873, Note_on_c, 0, 77, 0
2, 63891, Note_on_c, 0, 59, 96
2, 63900, Note_on_c, 0, 77, 103
2, 63921, Note_on_c, 0, 76, 0
2, 63922, Note_on_c, 0, 57, 0
2, 63944, Note_on_c, 0, 77, 0
2, 63953, Note_on_c, 0, 76, 125
2, 63954, Note_on_c, 0, 77, 54
2, 63957, Note_on_c, 0, 72, 117
2, 63959, Note_on_c, 0, 60, 104
2, 63969, Note_on_c, 0, 59, 0
2, 63972, Control_c, 0, 64, 127
2, 63978, Note_on_c, 0, 77, 0
2, 64017, Note_on_c, 0, 60, 0
2, 64020, Note_on_c, 0, 59, 101
2, 64071, Note_on_c, 0, 60, 104
2, 64098, Note_on_c, 0, 59, 0
2, 64129, Note_on_c, 0, 62, 100
2, 64135, Note_on_c, 0, 60, 0
2, 64165, Control_c, 0, 64, 63
2, 64169, Control_c, 0, 64, 0
2, 64174, Note_on_c, 0, 72, 0
2, 64175, Note_on_c, 0, 76, 0
2, 64176, Note_on_c, 0, 64, 99
2, 64184, Note_on_c, 0, 62, 0
2, 64221, Note_on_c, 0, 64, 0
2, 64224, Note_on_c, 0, 62, 101
2, 64276, Note_on_c, 0, 60, 98
2, 64283, Note_on_c, 0, 62, 0
2, 64317, Note_on_c, 0, 59, 103
2, 64328, Note_on_c, 0, 60, 0
2, 64332, Note_on_c, 0, 72, 109
2, 64335, Note_on_c, 0, 76, 107
2, 64357, Note_on_c, 0, 76, 0
2, 64361, Control_c, 0, 64, 63
2, 64362, Control_c, 0, 64, 127
2, 64364, Note_on_c, 0, 72, 0
2, 64383, Note_on_c, 0, 76, 113
2, 64383, Note_on_c, 0, 84, 120
2, 64384, Note_on_c, 0, 57, 98
2, 64401, Note_on_c, 0, 59, 0
2, 64408, Note_on_c, 0, 84, 0
2, 64409, Note_on_c, 0, 76, 0
2, 64438, Note_on_c, 0, 59, 94
2, 64469, Note_on_c, 0, 57, 0
2, 64497, Note_on_c, 0, 59, 0
2, 64499, Note_on_c, 0, 60, 92
2, 64556, Note_on_c, 0, 59, 86
2, 64559, Note_on_c, 0, 60, 0
2, 64598, Note_on_c, 0, 57, 98
2, 64607, Control_c, 0, 64, 63
2, 64609, Note_on_c, 0, 76, 109
2, 64611, Note_on_c, 0, 72, 107
2, 64611, Control_c, 0, 64, 0
2, 64613, Note_on_c, 0, 59, 0
2, 64651, Note_on_c, 0, 77, 96
2, 64659, Note_on_c, 0, 76, 0
2, 64661, Note_on_c, 0, 53, 65
2, 64678, Note_on_c, 0, 57, 0
2, 64690, Note_on_c, 0, 76, 89
2, 64701, Note_on_c, 0, 55, 87
2, 64706, Note_on_c, 0, 77, 0
2, 64711, Note_on_c, 0, 53, 0
2, 64729, Note_on_c, 0, 74, 96
2, 64734, Note_on_c, 0, 76, 0
2, 64755, Note_on_c, 0, 57, 82
2, 64757, Note_on_c, 0, 72, 0
2, 64764, Note_on_c, 0, 76, 101
2, 64782, Note_on_c, 0, 74, 0
2, 64784, Note_on_c, 0, 55, 0
2, 64810, Note_on_c, 0, 59, 96
2, 64814, Note_on_c, 0, 74, 121
2, 64817, Note_on_c, 0, 71, 114
2, 64818, Note_on_c, 0, 57, 0
2, 64833, Control_c, 0, 64, 63
2, 64834, Control_c, 0, 64, 127
2, 64840, Note_on_c, 0, 76, 0
2, 64863, Note_on_c, 0, 57, 92
2, 64871, Note_on_c, 0, 59, 0
2, 64921, Note_on_c, 0, 59, 94
2, 64952, Note_on_c, 0, 57, 0
2, 64995, Note_on_c, 0, 60, 99
2, 64999, Note_on_c, 0, 59, 0
2, 65036, Note_on_c, 0, 62, 102
2, 65044, Note_on_c, 0, 60, 0
2, 65052, Note_on_c, 0, 71, 0
2, 65052, Control_c, 0, 64, 63
2, 65054, Note_on_c, 0, 74, 0
2, 65058, Control_c, 0, 64, 0
2, 65082, Note_on_c, 0, 62, 0
2, 65084, Note_on_c, 0, 60, 98
2, 65136, Note_on_c, 0, 59, 92
2, 65141, Note_on_c, 0, 60, 0
2, 65183, Note_on_c, 0, 57, 94
2, 65193, Note_on_c, 0, 59, 0
2, 65209, Note_on_c, 0, 71, 103
2, 65212, Note_on_c, 0, 74, 100
2, 65231, Note_on_c, 0, 74, 0
2, 65234, Control_c, 0, 64, 63
2, 65236, Control_c, 0, 64, 127
2, 65241, Note_on_c, 0, 71, 0
2, 65255, Note_on_c, 0, 56, 105
2, 65256, Note_on_c, 0, 57, 0
2, 65266, Note_on_c, 0, 83, 117
2, 65266, Note_on_c, 0, 74, 111
2, 65290, Note_on_c, 0, 74, 0
2, 65293, Note_on_c, 0, 83, 0
2, 65304, Note_on_c, 0, 57, 94
2, 65346, Note_on_c, 0, 56, 0
2, 65370, Note_on_c, 0, 59, 83
2, 65374, Note_on_c, 0, 57, 0
2, 65422, Note_on_c, 0, 57, 79
2, 65433, Note_on_c, 0, 59, 0
2, 65474, Note_on_c, 0, 56, 101
2, 65484, Note_on_c, 0, 57, 0
2, 65494, Note_on_c, 0, 74, 117
2, 65495, Note_on_c, 0, 71, 112
2, 65503, Control_c, 0, 64, 63
2, 65507, Control_c, 0, 64, 0
2, 65532, Note_on_c, 0, 52, 73
2, 65536, Note_on_c, 0, 74, 0
2, 65536, Note_on_c, 0, 76, 100
2, 65549, Note_on_c, 0, 56, 0
2, 65579, Note_on_c, 0, 74, 93
2, 65582, Note_on_c, 0, 54, 70
2, 65599, Note_on_c, 0, 76, 0
2, 65608, Note_on_c, 0, 52, 0
2, 65619, Note_on_c, 0, 72, 96
2, 65625, Note_on_c, 0, 74, 0
2, 65633, Note_on_c, 0, 56, 103
2, 65642, Note_on_c, 0, 71, 0
2, 65657, Note_on_c, 0, 74, 92
2, 65666, Note_on_c, 0, 72, 0
2, 65682, Note_on_c, 0, 54, 0
2, 65698, Note_on_c, 0, 72, 99
2, 65699, Note_on_c, 0, 57, 116
2, 65713, Control_c, 0, 64, 63
2, 65714, Control_c, 0, 64, 127
2, 65720, Note_on_c, 0, 56, 0
2, 65720, Note_on_c, 0, 74, 0
2, 65745, Note_on_c, 0, 69, 96
2, 65749, Note_on_c, 0, 72, 0
2, 65753, Note_on_c, 0, 57, 0
2, 65797, Note_on_c, 0, 72, 96
2, 65798, Note_on_c, 0, 69, 0
2, 65829, Control_c, 0, 64, 63
2, 65836, Control_c, 0, 64, 0
2, 65849, Note_on_c, 0, 72, 0
2, 65853, Note_on_c, 0, 76, 103
2, 65891, Note_on_c, 0, 76, 0
2, 65922, Note_on_c, 0, 64, 109
2, 65924, Note_on_c, 0, 55, 118
2, 65924, Control_c, 0, 64, 63
2, 65926, Control_c, 0, 64, 127
2, 65928, Note_on_c, 0, 43, 109
2, 65960, Note_on_c, 0, 55, 0
2, 65960, Note_on_c, 0, 43, 0
2, 65978, Note_on_c, 0, 67, 103
2, 65999, Note_on_c, 0, 64, 0
2, 66026, Note_on_c, 0, 71, 96
2, 66045, Note_on_c, 0, 67, 0
2, 66081, Note_on_c, 0, 76, 101
2, 66086, Note_on_c, 0, 71, 0
2, 66122, Note_on_c, 0, 76, 0
2, 66146, Note_on_c, 0, 64, 108
2, 66150, Note_on_c, 0, 54, 127
2, 66153, Note_on_c, 0, 42, 121
2, 66173, Control_c, 0, 64, 63
2, 66200, Note_on_c, 0, 69, 104
2, 66204, Control_c, 0, 64, 127
2, 66233, Note_on_c, 0, 64, 0
2, 66237, Note_on_c, 0, 42, 0
2, 66244, Note_on_c, 0, 54, 0
2, 66262, Note_on_c, 0, 72, 91
2, 66283, Note_on_c, 0, 69, 0
2, 66298, Note_on_c, 0, 76, 97
2, 66320, Note_on_c, 0, 72, 0
2, 66341, Note_on_c, 0, 76, 0
2, 66381, Note_on_c, 0, 63, 121
2, 66384, Note_on_c, 0, 53, 120
2, 66386, Note_on_c, 0, 41, 117
2, 66394, Control_c, 0, 64, 63
2, 66426, Control_c, 0, 64, 127
2, 66440, Note_on_c, 0, 69, 87
2, 66491, Note_on_c, 0, 72, 81
2, 66501, Note_on_c, 0, 41, 0
2, 66502, Note_on_c, 0, 63, 0
2, 66505, Note_on_c, 0, 53, 0
2, 66546, Note_on_c, 0, 69, 0
2, 66562, Note_on_c, 0, 75, 105
2, 66581, Note_on_c, 0, 72, 0
2, 66607, Note_on_c, 0, 75, 0
2, 66660, Note_on_c, 0, 40, 104
2, 66664, Note_on_c, 0, 52, 122
2, 66665, Control_c, 0, 64, 63
2, 66667, Note_on_c, 0, 76, 116
2, 66671, Control_c, 0, 64, 0
2, 66724, Control_c, 0, 64, 63
2, 66728, Control_c, 0, 64, 127
2, 66736, Note_on_c, 0, 76, 0
2, 66778, Note_on_c, 0, 64, 88
2, 66825, Note_on_c, 0, 40, 0
2, 66839, Note_on_c, 0, 68, 94
2, 66841, Note_on_c, 0, 64, 0
2, 66856, Note_on_c, 0, 52, 0
2, 66885, Note_on_c, 0, 71, 88
2, 66887, Note_on_c, 0, 68, 0
2, 66906, Note_on_c, 0, 71, 0
2, 66925, Note_on_c, 0, 76, 106
2, 66973, Note_on_c, 0, 76, 0
2, 66981, Note_on_c, 0, 68, 109
2, 67028, Note_on_c, 0, 71, 87
2, 67032, Note_on_c, 0, 68, 0
2, 67063, Note_on_c, 0, 52, 94
2, 67082, Note_on_c, 0, 76, 89
2, 67087, Note_on_c, 0, 71, 0
2, 67128, Note_on_c, 0, 76, 0
2, 67130, Note_on_c, 0, 64, 121
2, 67132, Note_on_c, 0, 80, 112
2, 67164, Note_on_c, 0, 52, 0
2, 67168, Note_on_c, 0, 64, 0
2, 67192, Note_on_c, 0, 80, 0
2, 67199, Note_on_c, 0, 71, 85
2, 67247, Note_on_c, 0, 71, 0
2, 67251, Note_on_c, 0, 76, 94
2, 67299, Note_on_c, 0, 80, 103
2, 67313, Note_on_c, 0, 76, 0
2, 67338, Note_on_c, 0, 56, 106
2, 67343, Note_on_c, 0, 83, 96
2, 67347, Note_on_c, 0, 80, 0
2, 67380, Note_on_c, 0, 56, 0
2, 67383, Note_on_c, 0, 80, 97
2, 67384, Note_on_c, 0, 57, 90
2, 67411, Note_on_c, 0, 83, 0
2, 67418, Note_on_c, 0, 56, 80
2, 67434, Note_on_c, 0, 57, 0
2, 67435, Note_on_c, 0, 76, 96
2, 67444, Note_on_c, 0, 80, 0
2, 67465, Note_on_c, 0, 54, 104
2, 67466, Note_on_c, 0, 56, 0
2, 67492, Note_on_c, 0, 76, 0
2, 67492, Note_on_c, 0, 74, 98
2, 67503, Note_on_c, 0, 56, 101
2, 67526, Note_on_c, 0, 54, 0
2, 67531, Note_on_c, 0, 74, 0
2, 67557, Note_on_c, 0, 57, 122
2, 67567, Note_on_c, 0, 72, 116
2, 67587, Note_on_c, 0, 56, 0
2, 67592, Control_c, 0, 64, 63
2, 67597, Control_c, 0, 64, 0
2, 67614, Note_on_c, 0, 72, 0
2, 67623, Control_c, 0, 64, 63
2, 67627, Note_on_c, 0, 69, 87
2, 67635, Control_c, 0, 64, 127
2, 67673, Note_on_c, 0, 72, 92
2, 67682, Note_on_c, 0, 69, 0
2, 67720, Note_on_c, 0, 76, 93
2, 67726, Note_on_c, 0, 72, 0
2, 67742, Note_on_c, 0, 76, 0
2, 67767, Note_on_c, 0, 57, 0
2, 67779, Note_on_c, 0, 81, 113
2, 67833, Note_on_c, 0, 81, 0
2, 67836, Note_on_c, 0, 72, 96
2, 67891, Note_on_c, 0, 76, 104
2, 67893, Note_on_c, 0, 72, 0
2, 67924, Note_on_c, 0, 45, 91
2, 67937, Note_on_c, 0, 81, 106
2, 67950, Note_on_c, 0, 76, 0
2, 67975, Control_c, 0, 64, 63
2, 67981, Control_c, 0, 64, 0
2, 67990, Note_on_c, 0, 81, 0
2, 67993, Note_on_c, 0, 57, 124
2, 67996, Note_on_c, 0, 84, 113
2, 67997, Control_c, 0, 64, 63
2, 68010, Control_c, 0, 64, 127
2, 68047, Note_on_c, 0, 81, 107
2, 68056, Note_on_c, 0, 84, 0
2, 68060, Note_on_c, 0, 45, 0
2, 68066, Note_on_c, 0, 57, 0
2, 68096, Note_on_c, 0, 81, 0
2, 68099, Note_on_c, 0, 76, 100
2, 68146, Note_on_c, 0, 76, 0
2, 68155, Note_on_c, 0, 72, 91
2, 68196, Note_on_c, 0, 72, 0
2, 68211, Note_on_c, 0, 81, 101
2, 68215, Note_on_c, 0, 51, 115
2, 68247, Note_on_c, 0, 78, 104
2, 68255, Note_on_c, 0, 51, 0
2, 68261, Note_on_c, 0, 52, 101
2, 68263, Note_on_c, 0, 81, 0
2, 68296, Note_on_c, 0, 78, 0
2, 68297, Note_on_c, 0, 51, 91
2, 68302, Note_on_c, 0, 72, 94
2, 68316, Note_on_c, 0, 52, 0
2, 68341, Note_on_c, 0, 72, 0
2, 68342, Note_on_c, 0, 49, 107
2, 68347, Note_on_c, 0, 51, 0
2, 68350, Note_on_c, 0, 69, 70
2, 68377, Note_on_c, 0, 51, 99
2, 68387, Note_on_c, 0, 69, 0
2, 68402, Note_on_c, 0, 49, 0
2, 68414, Note_on_c, 0, 68, 103
2, 68421, Note_on_c, 0, 52, 124
2, 68443, Control_c, 0, 64, 63
2, 68448, Note_on_c, 0, 51, 0
2, 68448, Control_c, 0, 64, 0
2, 68477, Note_on_c, 0, 68, 0
2, 68487, Note_on_c, 0, 64, 88
2, 68537, Note_on_c, 0, 64, 0
2, 68542, Note_on_c, 0, 68, 91
2, 68590, Note_on_c, 0, 71, 93
2, 68596, Note_on_c, 0, 68, 0
2, 68633, Note_on_c, 0, 71, 0
2, 68646, Note_on_c, 0, 76, 107
2, 68668, Control_c, 0, 64, 127
2, 68690, Note_on_c, 0, 52, 0
2, 68704, Note_on_c, 0, 76, 0
2, 68706, Note_on_c, 0, 68, 100
2, 68746, Note_on_c, 0, 68, 0
2, 68753, Note_on_c, 0, 71, 79
2, 68783, Note_on_c, 0, 52, 91
2, 68804, Note_on_c, 0, 76, 83
2, 68806, Note_on_c, 0, 71, 0
2, 68849, Note_on_c, 0, 80, 107
2, 68851, Note_on_c, 0, 64, 121
2, 68861, Note_on_c, 0, 76, 0
2, 68883, Note_on_c, 0, 64, 0
2, 68884, Note_on_c, 0, 52, 0
2, 68905, Note_on_c, 0, 71, 88
2, 68906, Note_on_c, 0, 80, 0
2, 68961, Note_on_c, 0, 71, 0
2, 68968, Note_on_c, 0, 76, 87
2, 69022, Note_on_c, 0, 80, 107
2, 69045, Note_on_c, 0, 76, 0
2, 69064, Note_on_c, 0, 56, 106
2, 69068, Note_on_c, 0, 83, 106
2, 69077, Note_on_c, 0, 80, 0
2, 69100, Control_c, 0, 64, 63
2, 69110, Note_on_c, 0, 57, 86
2, 69111, Control_c, 0, 64, 127
2, 69113, Note_on_c, 0, 80, 97
2, 69116, Note_on_c, 0, 56, 0
2, 69144, Note_on_c, 0, 83, 0
2, 69156, Note_on_c, 0, 56, 85
2, 69170, Note_on_c, 0, 76, 102
2, 69172, Note_on_c, 0, 57, 0
2, 69192, Note_on_c, 0, 80, 0
2, 69203, Note_on_c, 0, 54, 103
2, 69215, Note_on_c, 0, 56, 0
2, 69223, Note_on_c, 0, 74, 99
2, 69233, Note_on_c, 0, 76, 0
2, 69241, Note_on_c, 0, 56, 88
2, 69262, Note_on_c, 0, 74, 0
2, 69281, Note_on_c, 0, 57, 118
2, 69282, Note_on_c, 0, 54, 0
2, 69286, Note_on_c, 0, 72, 114
2, 69290, Control_c, 0, 64, 63
2, 69300, Control_c, 0, 64, 0
2, 69312, Control_c, 0, 64, 63
2, 69313, Note_on_c, 0, 56, 0
2, 69327, Control_c, 0, 64, 127
2, 69337, Note_on_c, 0, 72, 0
2, 69342, Note_on_c, 0, 69, 97
2, 69391, Note_on_c, 0, 72, 96
2, 69402, Note_on_c, 0, 69, 0
2, 69441, Note_on_c, 0, 76, 85
2, 69449, Note_on_c, 0, 72, 0
2, 69466, Note_on_c, 0, 76, 0
2, 69496, Note_on_c, 0, 57, 0
2, 69499, Note_on_c, 0, 81, 121
2, 69543, Control_c, 0, 64, 63
2, 69548, Control_c, 0, 64, 0
2, 69558, Note_on_c, 0, 72, 102
2, 69575, Note_on_c, 0, 81, 0
2, 69615, Note_on_c, 0, 76, 101
2, 69620, Note_on_c, 0, 72, 0
2, 69636, Note_on_c, 0, 45, 89
2, 69660, Note_on_c, 0, 81, 103
2, 69677, Note_on_c, 0, 76, 0
2, 69711, Note_on_c, 0, 57, 122
2, 69713, Note_on_c, 0, 84, 114
2, 69719, Control_c, 0, 64, 63
2, 69720, Control_c, 0, 64, 127
2, 69722, Note_on_c, 0, 81, 0
2, 69742, Note_on_c, 0, 45, 0
2, 69757, Note_on_c, 0, 57, 0
2, 69762, Note_on_c, 0, 81, 91
2, 69787, Note_on_c, 0, 84, 0
2, 69821, Note_on_c, 0, 76, 97
2, 69838, Note_on_c, 0, 81, 0
2, 69875, Note_on_c, 0, 72, 85
2, 69877, Note_on_c, 0, 76, 0
2, 69912, Note_on_c, 0, 72, 0
2, 69924, Note_on_c, 0, 51, 114
2, 69929, Note_on_c, 0, 81, 112
2, 69966, Note_on_c, 0, 78, 104
2, 69977, Note_on_c, 0, 52, 103
2, 69979, Note_on_c, 0, 51, 0
2, 69993, Note_on_c, 0, 81, 0
2, 70025, Note_on_c, 0, 51, 87
2, 70025, Note_on_c, 0, 72, 98
2, 70036, Note_on_c, 0, 78, 0
2, 70039, Note_on_c, 0, 52, 0
2, 70069, Note_on_c, 0, 49, 112
2, 70076, Note_on_c, 0, 72, 0
2, 70077, Note_on_c, 0, 69, 85
2, 70080, Note_on_c, 0, 51, 0
2, 70112, Note_on_c, 0, 51, 98
2, 70122, Note_on_c, 0, 69, 0
2, 70143, Note_on_c, 0, 49, 0
2, 70144, Note_on_c, 0, 52, 122
2, 70145, Note_on_c, 0, 68, 105
2, 70162, Control_c, 0, 64, 63
2, 70167, Control_c, 0, 64, 0
2, 70175, Note_on_c, 0, 51, 0
2, 70195, Note_on_c, 0, 71, 99
2, 70204, Note_on_c, 0, 68, 0
2, 70220, Note_on_c, 0, 52, 0
2, 70259, Note_on_c, 0, 76, 103
2, 70270, Note_on_c, 0, 71, 0
2, 70309, Note_on_c, 0, 68, 95
2, 70323, Note_on_c, 0, 76, 0
2, 70380, Note_on_c, 0, 69, 92
2, 70383, Note_on_c, 0, 53, 121
2, 70387, Note_on_c, 0, 68, 0
2, 70388, Note_on_c, 0, 41, 112
2, 70417, Control_c, 0, 64, 63
2, 70418, Control_c, 0, 64, 127
2, 70425, Note_on_c, 0, 71, 60
2, 70453, Note_on_c, 0, 69, 0
2, 70501, Note_on_c, 0, 75, 97
2, 70521, Note_on_c, 0, 71, 0
2, 70522, Note_on_c, 0, 53, 0
2, 70552, Note_on_c, 0, 69, 75
2, 70559, Note_on_c, 0, 41, 0
2, 70575, Note_on_c, 0, 75, 0
2, 70605, Note_on_c, 0, 52, 116
2, 70607, Note_on_c, 0, 68, 107
2, 70610, Note_on_c, 0, 40, 114
2, 70634, Note_on_c, 0, 69, 0
2, 70651, Control_c, 0, 64, 63
2, 70658, Note_on_c, 0, 71, 93
2, 70677, Note_on_c, 0, 68, 0
2, 70678, Control_c, 0, 64, 127
2, 70717, Note_on_c, 0, 76, 107
2, 70731, Note_on_c, 0, 40, 0
2, 70738, Note_on_c, 0, 71, 0
2, 70758, Note_on_c, 0, 52, 0
2, 70767, Note_on_c, 0, 68, 107
2, 70795, Note_on_c, 0, 76, 0
2, 70832, Note_on_c, 0, 53, 118
2, 70833, Note_on_c, 0, 69, 101
2, 70837, Note_on_c, 0, 41, 113
2, 70863, Note_on_c, 0, 68, 0
2, 70865, Control_c, 0, 64, 63
2, 70878, Control_c, 0, 64, 127
2, 70895, Note_on_c, 0, 71, 78
2, 70898, Note_on_c, 0, 72, 80
2, 70924, Note_on_c, 0, 69, 0
2, 70928, Note_on_c, 0, 72, 0
2, 70959, Note_on_c, 0, 75, 104
2, 70960, Note_on_c, 0, 41, 0
2, 70963, Note_on_c, 0, 53, 0
2, 70984, Note_on_c, 0, 71, 0
2, 71005, Note_on_c, 0, 69, 71
2, 71037, Note_on_c, 0, 75, 0
2, 71057, Note_on_c, 0, 69, 0
2, 71068, Note_on_c, 0, 52, 122
2, 71070, Note_on_c, 0, 71, 103
2, 71070, Note_on_c, 0, 68, 108
2, 71071, Note_on_c, 0, 40, 117
2, 71079, Note_on_c, 0, 76, 100
2, 71082, Control_c, 0, 64, 63
2, 71107, Control_c, 0, 64, 127
2, 71145, Note_on_c, 0, 76, 0
2, 71149, Note_on_c, 0, 68, 0
2, 71153, Note_on_c, 0, 71, 0
2, 71203, Note_on_c, 0, 40, 0
2, 71205, Note_on_c, 0, 52, 0
2, 71264, Note_on_c, 0, 64, 97
2, 71324, Note_on_c, 0, 64, 0
2, 71333, Note_on_c, 0, 63, 97
2, 71388, Note_on_c, 0, 63, 0
2, 71394, Note_on_c, 0, 64, 83
2, 71451, Note_on_c, 0, 65, 92
2, 71462, Note_on_c, 0, 64, 0
2, 71492, Note_on_c, 0, 66, 109
2, 71507, Note_on_c, 0, 65, 0
2, 71545, Note_on_c, 0, 67, 99
2, 71551, Note_on_c, 0, 66, 0
2, 71590, Note_on_c, 0, 68, 109
2, 71602, Note_on_c, 0, 67, 0
2, 71643, Control_c, 0, 64, 63
2, 71649, Note_on_c, 0, 68, 0
2, 71650, Note_on_c, 0, 69, 106
2, 71676, Control_c, 0, 64, 0
2, 71698, Note_on_c, 0, 70, 112
2, 71710, Note_on_c, 0, 69, 0
2, 71748, Note_on_c, 0, 71, 100
2, 71756, Note_on_c, 0, 70, 0
2, 71800, Note_on_c, 0, 72, 106
2, 71822, Note_on_c, 0, 71, 0
2, 71846, Note_on_c, 0, 73, 112
2, 71864, Note_on_c, 0, 72, 0
2, 71900, Note_on_c, 0, 74, 98
2, 71904, Note_on_c, 0, 73, 0
2, 71944, Note_on_c, 0, 75, 113
2, 71946, Control_c, 0, 64, 63
2, 71968, Note_on_c, 0, 74, 0
2, 71992, Control_c, 0, 64, 127
2, 72006, Note_on_c, 0, 75, 0
2, 72034, Note_on_c, 0, 75, 108
2, 72050, Note_on_c, 0, 64, 100
2, 72052, Note_on_c, 0, 60, 101
2, 72055, Note_on_c, 0, 57, 89
2, 72062, Note_on_c, 0, 76, 106
2, 72065, Control_c, 0, 64, 63
2, 72101, Note_on_c, 0, 75, 0
2, 72102, Control_c, 0, 64, 127
2, 72202, Note_on_c, 0, 64, 0
2, 72203, Note_on_c, 0, 60, 0
2, 72215, Note_on_c, 0, 57, 0
2, 72232, Note_on_c, 0, 64, 90
2, 72235, Note_on_c, 0, 60, 84
2, 72238, Note_on_c, 0, 57, 84
2, 72300, Note_on_c, 0, 60, 0
2, 72302, Note_on_c, 0, 64, 0
2, 72309, Note_on_c, 0, 76, 0
2, 72310, Note_on_c, 0, 57, 0
2, 72358, Note_on_c, 0, 57, 65
2, 72359, Note_on_c, 0, 60, 76
2, 72363, Note_on_c, 0, 64, 65
2, 72367, Note_on_c, 0, 76, 116
2, 72406, Note_on_c, 0, 60, 0
2, 72407, Note_on_c, 0, 64, 0
2, 72420, Note_on_c, 0, 57, 0
2, 72470, Note_on_c, 0, 76, 0
2, 72476, Note_on_c, 0, 57, 69
2, 72477, Note_on_c, 0, 64, 76
2, 72477, Note_on_c, 0, 60, 84
2, 72529, Note_on_c, 0, 76, 88
2, 72531, Note_on_c, 0, 64, 0
2, 72531, Note_on_c, 0, 60, 0
2, 72542, Note_on_c, 0, 57, 0
2, 72552, Note_on_c, 0, 76, 0
2, 72576, Note_on_c, 0, 76, 114
2, 72597, Note_on_c, 0, 60, 86
2, 72597, Note_on_c, 0, 57, 70
2, 72599, Note_on_c, 0, 64, 73
2, 72619, Note_on_c, 0, 76, 0
2, 72633, Note_on_c, 0, 64, 0
2, 72634, Note_on_c, 0, 60, 0
2, 72639, Note_on_c, 0, 57, 0
2, 72706, Note_on_c, 0, 57, 68
2, 72708, Note_on_c, 0, 64, 68
2, 72709, Note_on_c, 0, 60, 74
2, 72749, Note_on_c, 0, 60, 0
2, 72753, Note_on_c, 0, 64, 0
2, 72762, Note_on_c, 0, 57, 0
2, 72816, Note_on_c, 0, 72, 113
2, 72824, Note_on_c, 0, 57, 70
2, 72827, Note_on_c, 0, 64, 65
2, 72827, Note_on_c, 0, 60, 73
2, 72854, Note_on_c, 0, 72, 0
2, 72859, Note_on_c, 0, 64, 0
2, 72860, Note_on_c, 0, 60, 0
2, 72875, Note_on_c, 0, 57, 0
2, 72919, Note_on_c, 0, 57, 65
2, 72924, Note_on_c, 0, 60, 75
2, 72931, Note_on_c, 0, 64, 57
2, 72976, Note_on_c, 0, 69, 100
2, 72979, Note_on_c, 0, 60, 0
2, 72980, Note_on_c, 0, 57, 0
2, 72982, Note_on_c, 0, 64, 0
2, 73009, Note_on_c, 0, 69, 0
2, 73028, Note_on_c, 0, 69, 111
2, 73039, Note_on_c, 0, 57, 78
2, 73044, Note_on_c, 0, 64, 74
2, 73044, Note_on_c, 0, 62, 76
2, 73046, Note_on_c, 0, 59, 70
2, 73059, Control_c, 0, 64, 63
2, 73090, Note_on_c, 0, 62, 0
2, 73092, Note_on_c, 0, 64, 0
2, 73093, Control_c, 0, 64, 127
2, 73102, Note_on_c, 0, 59, 0
2, 73107, Note_on_c, 0, 57, 0
2, 73148, Note_on_c, 0, 57, 42
2, 73149, Note_on_c, 0, 62, 72
2, 73151, Note_on_c, 0, 64, 62
2, 73151, Note_on_c, 0, 59, 63
2, 73160, Note_on_c, 0, 68, 109
2, 73183, Note_on_c, 0, 69, 0
2, 73199, Note_on_c, 0, 64, 0
2, 73202, Note_on_c, 0, 62, 0
2, 73207, Note_on_c, 0, 68, 0
2, 73213, Note_on_c, 0, 57, 0
2, 73214, Note_on_c, 0, 59, 0
2, 73275, Note_on_c, 0, 59, 59
2, 73276, Note_on_c, 0, 62, 60
2, 73276, Note_on_c, 0, 64, 55
2, 73277, Note_on_c, 0, 57, 41
2, 73281, Note_on_c, 0, 68, 110
2, 73284, Control_c, 0, 64, 63
2, 73291, Control_c, 0, 64, 0
2, 73314, Note_on_c, 0, 62, 0
2, 73316, Note_on_c, 0, 64, 0
2, 73327, Note_on_c, 0, 59, 0
2, 73327, Note_on_c, 0, 57, 0
2, 73375, Note_on_c, 0, 64, 67
2, 73376, Note_on_c, 0, 59, 65
2, 73377, Note_on_c, 0, 57, 45
2, 73377, Note_on_c, 0, 62, 74
2, 73410, Note_on_c, 0, 62, 0
2, 73414, Note_on_c, 0, 64, 0
2, 73422, Note_on_c, 0, 59, 0
2, 73423, Note_on_c, 0, 57, 0
2, 73485, Note_on_c, 0, 57, 69
2, 73486, Note_on_c, 0, 64, 81
2, 73487, Note_on_c, 0, 59, 76
2, 73490, Note_on_c, 0, 62, 75
2, 73518, Note_on_c, 0, 62, 0
2, 73522, Control_c, 0, 64, 127
2, 73526, Note_on_c, 0, 64, 0
2, 73531, Note_on_c, 0, 59, 0
2, 73535, Note_on_c, 0, 57, 0
2, 73591, Note_on_c, 0, 57, 65
2, 73591, Note_on_c, 0, 59, 69
2, 73595, Note_on_c, 0, 64, 65
2, 73596, Note_on_c, 0, 62, 71
2, 73628, Note_on_c, 0, 62, 0
2, 73630, Note_on_c, 0, 64, 0
2, 73643, Note_on_c, 0, 59, 0
2, 73644, Note_on_c, 0, 57, 0
2, 73651, Note_on_c, 0, 68, 0
2, 73718, Note_on_c, 0, 59, 69
2, 73720, Control_c, 0, 64, 63
2, 73721, Note_on_c, 0, 64, 68
2, 73722, Note_on_c, 0, 62, 71
2, 73722, Note_on_c, 0, 74, 112
2, 73723, Note_on_c, 0, 57, 54
2, 73734, Control_c, 0, 64, 127
2, 73753, Note_on_c, 0, 64, 0
2, 73753, Note_on_c, 0, 62, 0
2, 73764, Note_on_c, 0, 57, 0
2, 73765, Note_on_c, 0, 59, 0
2, 73827, Note_on_c, 0, 59, 65
2, 73831, Note_on_c, 0, 62, 74
2, 73832, Note_on_c, 0, 64, 66
2, 73837, Note_on_c, 0, 57, 45
2, 73852, Note_on_c, 0, 74, 0
2, 73887, Note_on_c, 0, 64, 0
2, 73892, Note_on_c, 0, 71, 99
2, 73895, Note_on_c, 0, 62, 0
2, 73899, Note_on_c, 0, 57, 0
2, 73905, Note_on_c, 0, 59, 0
2, 73908, Control_c, 0, 64, 63
2, 73913, Control_c, 0, 64, 0
2, 73941, Note_on_c, 0, 76, 107
2, 73956, Note_on_c, 0, 57, 71
2, 73959, Note_on_c, 0, 60, 78
2, 73961, Note_on_c, 0, 71, 0
2, 73961, Note_on_c, 0, 64, 73
2, 73974, Control_c, 0, 64, 63
2, 73982, Control_c, 0, 64, 127
2, 74008, Note_on_c, 0, 64, 0
2, 74010, Note_on_c, 0, 60, 0
2, 74017, Note_on_c, 0, 57, 0
2, 74067, Note_on_c, 0, 57, 68
2, 74068, Note_on_c, 0, 60, 81
2, 74070, Note_on_c, 0, 64, 72
2, 74123, Note_on_c, 0, 64, 0
2, 74125, Note_on_c, 0, 60, 0
2, 74128, Note_on_c, 0, 57, 0
2, 74129, Note_on_c, 0, 76, 0
2, 74182, Note_on_c, 0, 76, 116
2, 74182, Note_on_c, 0, 57, 67
2, 74182, Note_on_c, 0, 60, 80
2, 74186, Note_on_c, 0, 64, 72
2, 74225, Note_on_c, 0, 64, 0
2, 74226, Note_on_c, 0, 60, 0
2, 74230, Note_on_c, 0, 76, 0
2, 74235, Note_on_c, 0, 57, 0
2, 74293, Note_on_c, 0, 60, 76
2, 74294, Note_on_c, 0, 57, 63
2, 74297, Note_on_c, 0, 64, 71
2, 74337, Note_on_c, 0, 64, 0
2, 74339, Note_on_c, 0, 60, 0
2, 74345, Note_on_c, 0, 57, 0
2, 74349, Note_on_c, 0, 76, 112
2, 74377, Note_on_c, 0, 76, 0
2, 74396, Note_on_c, 0, 76, 114
2, 74413, Note_on_c, 0, 57, 72
2, 74413, Note_on_c, 0, 60, 82
2, 74415, Note_on_c, 0, 64, 76
2, 74427, Note_on_c, 0, 76, 0
2, 74448, Note_on_c, 0, 60, 0
2, 74450, Note_on_c, 0, 64, 0
2, 74459, Note_on_c, 0, 57, 0
2, 74521, Note_on_c, 0, 60, 78
2, 74521, Note_on_c, 0, 57, 60
2, 74522, Note_on_c, 0, 77, 106
2, 74524, Note_on_c, 0, 64, 66
2, 74556, Note_on_c, 0, 64, 0
2, 74559, Note_on_c, 0, 60, 0
2, 74561, Note_on_c, 0, 57, 0
2, 74562, Note_on_c, 0, 76, 102
2, 74573, Note_on_c, 0, 77, 0
2, 74605, Control_c, 0, 64, 63
2, 74612, Control_c, 0, 64, 0
2, 74615, Note_on_c, 0, 74, 97
2, 74622, Note_on_c, 0, 76, 0
2, 74624, Note_on_c, 0, 60, 77
2, 74624, Note_on_c, 0, 57, 67
2, 74627, Note_on_c, 0, 64, 71
2, 74631, Control_c, 0, 64, 63
2, 74649, Control_c, 0, 64, 127
2, 74665, Note_on_c, 0, 64, 0
2, 74666, Note_on_c, 0, 60, 0
2, 74668, Note_on_c, 0, 57, 0
2, 74670, Note_on_c, 0, 74, 0
2, 74673, Note_on_c, 0, 72, 87
2, 74716, Note_on_c, 0, 71, 101
2, 74723, Note_on_c, 0, 60, 71
2, 74724, Note_on_c, 0, 57, 56
2, 74726, Note_on_c, 0, 64, 57
2, 74736, Note_on_c, 0, 72, 0
2, 74768, Note_on_c, 0, 69, 88
2, 74772, Note_on_c, 0, 71, 0
2, 74773, Note_on_c, 0, 60, 0
2, 74774, Note_on_c, 0, 64, 0
2, 74784, Note_on_c, 0, 57, 0
2, 74804, Note_on_c, 0, 69, 0
2, 74821, Control_c, 0, 64, 63
2, 74825, Note_on_c, 0, 69, 103
2, 74832, Note_on_c, 0, 62, 82
2, 74834, Note_on_c, 0, 64, 70
2, 74837, Note_on_c, 0, 59, 66
2, 74837, Note_on_c, 0, 57, 41
2, 74862, Control_c, 0, 64, 127
2, 74880, Note_on_c, 0, 62, 0
2, 74881, Note_on_c, 0, 64, 0
2, 74884, Note_on_c, 0, 57, 0
2, 74890, Note_on_c, 0, 59, 0
2, 74945, Note_on_c, 0, 68, 98
2, 74949, Note_on_c, 0, 59, 63
2, 74949, Note_on_c, 0, 62, 70
2, 74952, Note_on_c, 0, 64, 59
2, 74955, Note_on_c, 0, 57, 48
2, 74957, Note_on_c, 0, 69, 0
2, 74982, Control_c, 0, 64, 63
2, 74987, Note_on_c, 0, 68, 0
2, 74990, Control_c, 0, 64, 0
2, 74994, Note_on_c, 0, 62, 0
2, 74995, Note_on_c, 0, 64, 0
2, 75002, Note_on_c, 0, 57, 0
2, 75004, Note_on_c, 0, 59, 0
2, 75056, Note_on_c, 0, 68, 103
2, 75061, Note_on_c, 0, 59, 64
2, 75063, Note_on_c, 0, 62, 73
2, 75065, Note_on_c, 0, 64, 68
2, 75066, Note_on_c, 0, 57, 45
2, 75101, Note_on_c, 0, 64, 0
2, 75102, Note_on_c, 0, 62, 0
2, 75109, Note_on_c, 0, 57, 0
2, 75110, Note_on_c, 0, 59, 0
2, 75168, Note_on_c, 0, 59, 72
2, 75175, Note_on_c, 0, 62, 70
2, 75175, Note_on_c, 0, 64, 65
2, 75178, Note_on_c, 0, 57, 49
2, 75179, Control_c, 0, 64, 63
2, 75181, Control_c, 0, 64, 127
2, 75201, Note_on_c, 0, 62, 0
2, 75201, Note_on_c, 0, 64, 0
2, 75210, Note_on_c, 0, 57, 0
2, 75214, Note_on_c, 0, 59, 0
2, 75286, Note_on_c, 0, 59, 76
2, 75289, Note_on_c, 0, 64, 74
2, 75291, Note_on_c, 0, 57, 54
2, 75292, Note_on_c, 0, 62, 70
2, 75297, Note_on_c, 0, 68, 0
2, 75314, Note_on_c, 0, 62, 0
2, 75315, Note_on_c, 0, 64, 0
2, 75322, Note_on_c, 0, 57, 0
2, 75326, Note_on_c, 0, 59, 0
2, 75393, Note_on_c, 0, 59, 69
2, 75396, Note_on_c, 0, 62, 76
2, 75396, Note_on_c, 0, 64, 72
2, 75399, Note_on_c, 0, 57, 51
2, 75429, Note_on_c, 0, 64, 0
2, 75430, Note_on_c, 0, 62, 0
2, 75433, Note_on_c, 0, 57, 0
2, 75437, Note_on_c, 0, 59, 0
2, 75490, Control_c, 0, 64, 63
2, 75515, Note_on_c, 0, 74, 109
2, 75518, Note_on_c, 0, 59, 65
2, 75519, Note_on_c, 0, 64, 68
2, 75521, Note_on_c, 0, 62, 66
2, 75527, Note_on_c, 0, 57, 36
2, 75531, Control_c, 0, 64, 127
2, 75546, Note_on_c, 0, 64, 0
2, 75547, Note_on_c, 0, 62, 0
2, 75555, Note_on_c, 0, 57, 0
2, 75561, Note_on_c, 0, 59, 0
2, 75584, Note_on_c, 0, 74, 0
2, 75624, Note_on_c, 0, 62, 76
2, 75625, Note_on_c, 0, 59, 54
2, 75629, Note_on_c, 0, 64, 64
2, 75631, Note_on_c, 0, 57, 52
2, 75671, Note_on_c, 0, 71, 97
2, 75680, Note_on_c, 0, 64, 0
2, 75693, Note_on_c, 0, 57, 0
2, 75693, Control_c, 0, 64, 63
2, 75695, Note_on_c, 0, 62, 0
2, 75697, Note_on_c, 0, 59, 0
2, 75707, Note_on_c, 0, 71, 0
2, 75731, Note_on_c, 0, 76, 109
2, 75734, Note_on_c, 0, 72, 107
2, 75735, Control_c, 0, 64, 127
2, 75736, Note_on_c, 0, 60, 84
2, 75738, Note_on_c, 0, 64, 68
2, 75738, Note_on_c, 0, 57, 62
2, 75761, Note_on_c, 0, 64, 0
2, 75770, Note_on_c, 0, 60, 0
2, 75795, Note_on_c, 0, 57, 0
2, 75832, Note_on_c, 0, 72, 0
2, 75852, Note_on_c, 0, 76, 0
2, 75860, Note_on_c, 0, 57, 88
2, 75906, Note_on_c, 0, 57, 0
2, 75913, Note_on_c, 0, 72, 103
2, 75917, Note_on_c, 0, 69, 89
2, 75938, Note_on_c, 0, 69, 0
2, 75941, Note_on_c, 0, 72, 0
2, 75947, Control_c, 0, 64, 63
2, 75958, Control_c, 0, 64, 0
2, 75963, Note_on_c, 0, 52, 87
2, 75968, Note_on_c, 0, 72, 98
2, 75974, Note_on_c, 0, 76, 102
2, 76016, Note_on_c, 0, 52, 0
2, 76070, Note_on_c, 0, 48, 70
2, 76196, Control_c, 0, 64, 63
2, 76197, Note_on_c, 0, 45, 80
2, 76198, Note_on_c, 0, 48, 0
2, 76199, Control_c, 0, 64, 127
2, 76231, Note_on_c, 0, 72, 0
2, 76245, Note_on_c, 0, 76, 0
2, 76277, Note_on_c, 0, 45, 0
2, 76314, Note_on_c, 0, 72, 85
2, 76320, Note_on_c, 0, 69, 59
2, 76349, Note_on_c, 0, 69, 0
2, 76361, Note_on_c, 0, 72, 0
2, 76420, Control_c, 0, 64, 63
2, 76427, Control_c, 0, 64, 0
2, 76430, Note_on_c, 0, 71, 77
2, 76432, Note_on_c, 0, 74, 73
2, 76456, Note_on_c, 0, 71, 0
2, 76468, Note_on_c, 0, 74, 0
2, 76538, Note_on_c, 0, 76, 96
2, 76540, Note_on_c, 0, 72, 91
2, 76565, Note_on_c, 0, 72, 0
2, 76580, Note_on_c, 0, 76, 0
2, 76682, Note_on_c, 0, 76, 93
2, 76685, Note_on_c, 0, 73, 91
2, 76686, Control_c, 0, 64, 63
2, 76688, Control_c, 0, 64, 127
2, 76711, Note_on_c, 0, 73, 0
2, 76744, Note_on_c, 0, 76, 0
2, 76925, Note_on_c, 0, 74, 65
2, 76928, Note_on_c, 0, 77, 82
2, 76934, Note_on_c, 0, 53, 35
2, 76935, Note_on_c, 0, 57, 44
2, 76937, Note_on_c, 0, 60, 53
2, 76938, Note_on_c, 0, 62, 48
2, 76985, Control_c, 0, 64, 63
2, 77037, Control_c, 0, 64, 127
2, 77076, Note_on_c, 0, 60, 0
2, 77086, Note_on_c, 0, 77, 0
2, 77099, Note_on_c, 0, 62, 0
2, 77100, Note_on_c, 0, 74, 0
2, 77118, Note_on_c, 0, 57, 0
2, 77155, Note_on_c, 0, 53, 0
2, 77155, Note_on_c, 0, 59, 72
2, 77158, Note_on_c, 0, 62, 67
2, 77163, Note_on_c, 0, 55, 63
2, 77205, Control_c, 0, 64, 63
2, 77212, Control_c, 0, 64, 0
2, 77268, Note_on_c, 0, 71, 84
2, 77273, Note_on_c, 0, 67, 70
2, 77298, Note_on_c, 0, 67, 0
2, 77309, Note_on_c, 0, 71, 0
2, 77328, Note_on_c, 0, 62, 0
2, 77340, Note_on_c, 0, 59, 0
2, 77350, Note_on_c, 0, 55, 0
2, 77380, Note_on_c, 0, 72, 90
2, 77381, Note_on_c, 0, 69, 84
2, 77405, Note_on_c, 0, 69, 0
2, 77423, Note_on_c, 0, 72, 0
2, 77486, Note_on_c, 0, 74, 96
2, 77488, Note_on_c, 0, 71, 92
2, 77514, Note_on_c, 0, 71, 0
2, 77528, Note_on_c, 0, 74, 0
2, 77613, Control_c, 0, 64, 63
2, 77614, Control_c, 0, 64, 127
2, 77620, Note_on_c, 0, 75, 101
2, 77625, Note_on_c, 0, 71, 85
2, 77648, Note_on_c, 0, 71, 0
2, 77658, Note_on_c, 0, 75, 0
2, 77858, Note_on_c, 0, 72, 69
2, 77858, Note_on_c, 0, 76, 78
2, 77863, Note_on_c, 0, 52, 41
2, 77864, Note_on_c, 0, 59, 57
2, 77867, Note_on_c, 0, 60, 53
2, 77869, Note_on_c, 0, 55, 59
2, 77888, Control_c, 0, 64, 63
2, 77898, Control_c, 0, 64, 0
2, 77922, Control_c, 0, 64, 63
2, 77941, Control_c, 0, 64, 127
2, 77993, Note_on_c, 0, 59, 0
2, 77998, Note_on_c, 0, 76, 0
2, 78007, Note_on_c, 0, 72, 0
2, 78010, Note_on_c, 0, 60, 0
2, 78031, Note_on_c, 0, 55, 0
2, 78061, Note_on_c, 0, 52, 0
2, 78105, Note_on_c, 0, 60, 79
2, 78108, Note_on_c, 0, 53, 68
2, 78110, Note_on_c, 0, 57, 58
2, 78136, Note_on_c, 0, 57, 0
2, 78139, Note_on_c, 0, 60, 0
2, 78154, Note_on_c, 0, 53, 0
2, 78214, Note_on_c, 0, 69, 79
2, 78226, Note_on_c, 0, 65, 57
2, 78253, Note_on_c, 0, 65, 0
2, 78265, Note_on_c, 0, 69, 0
2, 78315, Control_c, 0, 64, 63
2, 78331, Note_on_c, 0, 68, 88
2, 78336, Control_c, 0, 64, 0
2, 78337, Note_on_c, 0, 71, 72
2, 78374, Note_on_c, 0, 68, 0
2, 78386, Note_on_c, 0, 71, 0
2, 78431, Note_on_c, 0, 69, 79
2, 78434, Note_on_c, 0, 72, 79
2, 78454, Note_on_c, 0, 69, 0
2, 78478, Note_on_c, 0, 72, 0
2, 78559, Note_on_c, 0, 72, 94
2, 78739, Note_on_c, 0, 71, 81
2, 78752, Note_on_c, 0, 72, 0
2, 78793, Note_on_c, 0, 77, 90
2, 78806, Note_on_c, 0, 71, 0
2, 78807, Note_on_c, 0, 59, 67
2, 78810, Note_on_c, 0, 53, 65
2, 78812, Note_on_c, 0, 50, 55
2, 78982, Note_on_c, 0, 74, 83
2, 78990, Note_on_c, 0, 59, 0
2, 78995, Note_on_c, 0, 77, 0
2, 79030, Note_on_c, 0, 53, 0
2, 79032, Note_on_c, 0, 57, 71
2, 79035, Note_on_c, 0, 72, 96
2, 79037, Note_on_c, 0, 52, 61
2, 79039, Note_on_c, 0, 50, 0
2, 79042, Note_on_c, 0, 60, 84
2, 79062, Note_on_c, 0, 74, 0
2, 79200, Note_on_c, 0, 52, 0
2, 79216, Note_on_c, 0, 60, 0
2, 79227, Note_on_c, 0, 76, 94
2, 79236, Note_on_c, 0, 72, 0
2, 79275, Note_on_c, 0, 59, 86
2, 79278, Note_on_c, 0, 56, 85
2, 79281, Note_on_c, 0, 74, 93
2, 79283, Note_on_c, 0, 57, 0
2, 79287, Note_on_c, 0, 52, 64
2, 79321, Note_on_c, 0, 76, 0
2, 79399, Control_c, 0, 64, 63
2, 79401, Control_c, 0, 64, 127
2, 79433, Note_on_c, 0, 56, 0
2, 79437, Note_on_c, 0, 59, 0
2, 79444, Note_on_c, 0, 52, 0
2, 79489, Note_on_c, 0, 71, 100
2, 79496, Note_on_c, 0, 74, 0
2, 79534, Note_on_c, 0, 71, 0
2, 79587, Note_on_c, 0, 72, 108
2, 79593, Note_on_c, 0, 57, 116
2, 79595, Note_on_c, 0, 45, 107
2, 79605, Control_c, 0, 64, 127
2, 79674, Note_on_c, 0, 81, 97
2, 79702, Note_on_c, 0, 72, 0
2, 79736, Note_on_c, 0, 72, 91
2, 79757, Note_on_c, 0, 81, 0
2, 79778, Note_on_c, 0, 57, 0
2, 79796, Note_on_c, 0, 81, 107
2, 79803, Note_on_c, 0, 72, 0
2, 79852, Note_on_c, 0, 72, 98
2, 79855, Note_on_c, 0, 57, 116
2, 79869, Note_on_c, 0, 81, 0
2, 79903, Note_on_c, 0, 57, 0
2, 79909, Note_on_c, 0, 72, 0
2, 79911, Note_on_c, 0, 81, 92
2, 79978, Note_on_c, 0, 72, 89
2, 79982, Note_on_c, 0, 81, 0
2, 80030, Note_on_c, 0, 72, 0
2, 80033, Note_on_c, 0, 81, 78
2, 80036, Note_on_c, 0, 57, 109
2, 80068, Note_on_c, 0, 57, 0
2, 80083, Note_on_c, 0, 72, 87
2, 80087, Note_on_c, 0, 81, 0
2, 80090, Note_on_c, 0, 57, 112
2, 80135, Note_on_c, 0, 72, 0
2, 80136, Note_on_c, 0, 81, 83
2, 80156, Note_on_c, 0, 57, 0
2, 80169, Note_on_c, 0, 45, 0
2, 80187, Note_on_c, 0, 72, 84
2, 80197, Note_on_c, 0, 81, 0
2, 80234, Note_on_c, 0, 81, 72
2, 80239, Note_on_c, 0, 72, 0
2, 80286, Note_on_c, 0, 72, 94
2, 80291, Note_on_c, 0, 81, 0
2, 80302, Note_on_c, 0, 53, 114
2, 80342, Note_on_c, 0, 81, 93
2, 80345, Note_on_c, 0, 72, 0
2, 80378, Note_on_c, 0, 53, 0
2, 80400, Note_on_c, 0, 72, 69
2, 80413, Note_on_c, 0, 81, 0
2, 80462, Note_on_c, 0, 72, 0
2, 80463, Note_on_c, 0, 51, 109
2, 80463, Note_on_c, 0, 81, 84
2, 80513, Note_on_c, 0, 53, 117
2, 80516, Note_on_c, 0, 81, 0
2, 80521, Note_on_c, 0, 71, 93
2, 80535, Note_on_c, 0, 51, 0
2, 80550, Control_c, 0, 64, 63
2, 80565, Note_on_c, 0, 71, 0
2, 80570, Control_c, 0, 64, 127
2, 80574, Note_on_c, 0, 81, 94
2, 80625, Note_on_c, 0, 71, 90
2, 80636, Note_on_c, 0, 81, 0
2, 80637, Note_on_c, 0, 52, 114
2, 80657, Note_on_c, 0, 53, 0
2, 80679, Note_on_c, 0, 71, 0
2, 80679, Note_on_c, 0, 52, 0
2, 80680, Note_on_c, 0, 81, 92
2, 80718, Control_c, 0, 64, 63
2, 80723, Control_c, 0, 64, 0
2, 80730, Note_on_c, 0, 71, 80
2, 80735, Note_on_c, 0, 81, 0
2, 80745, Note_on_c, 0, 52, 111
2, 80780, Note_on_c, 0, 71, 0
2, 80788, Note_on_c, 0, 81, 92
2, 80836, Note_on_c, 0, 71, 86
2, 80841, Note_on_c, 0, 81, 0
2, 80888, Note_on_c, 0, 71, 0
2, 80894, Note_on_c, 0, 81, 92
2, 80949, Note_on_c, 0, 71, 94
2, 80952, Note_on_c, 0, 81, 0
2, 80960, Control_c, 0, 64, 63
2, 80962, Control_c, 0, 64, 127
2, 81002, Note_on_c, 0, 71, 0
2, 81013, Note_on_c, 0, 79, 99
2, 81059, Note_on_c, 0, 71, 85
2, 81071, Note_on_c, 0, 79, 0
2, 81104, Note_on_c, 0, 52, 0
2, 81110, Note_on_c, 0, 71, 0
2, 81113, Note_on_c, 0, 79, 93
2, 81143, Control_c, 0, 64, 63
2, 81146, Control_c, 0, 64, 0
2, 81153, Note_on_c, 0, 79, 0
2, 81168, Note_on_c, 0, 70, 115
2, 81168, Note_on_c, 0, 55, 104
2, 81179, Control_c, 0, 64, 63
2, 81187, Control_c, 0, 64, 127
2, 81214, Note_on_c, 0, 70, 0
2, 81228, Note_on_c, 0, 79, 88
2, 81271, Note_on_c, 0, 55, 0
2, 81287, Note_on_c, 0, 70, 93
2, 81290, Note_on_c, 0, 79, 0
2, 81329, Note_on_c, 0, 52, 113
2, 81330, Note_on_c, 0, 70, 0
2, 81343, Note_on_c, 0, 79, 87
2, 81374, Control_c, 0, 64, 63
2, 81380, Note_on_c, 0, 53, 116
2, 81380, Control_c, 0, 64, 0
2, 81392, Note_on_c, 0, 79, 0
2, 81394, Note_on_c, 0, 69, 91
2, 81404, Note_on_c, 0, 52, 0
2, 81418, Control_c, 0, 64, 63
2, 81434, Control_c, 0, 64, 127
2, 81441, Note_on_c, 0, 69, 0
2, 81446, Note_on_c, 0, 79, 94
2, 81498, Note_on_c, 0, 69, 88
2, 81500, Note_on_c, 0, 79, 0
2, 81535, Note_on_c, 0, 53, 0
2, 81547, Note_on_c, 0, 69, 0
2, 81552, Note_on_c, 0, 79, 91
2, 81603, Note_on_c, 0, 69, 90
2, 81606, Note_on_c, 0, 79, 0
2, 81612, Note_on_c, 0, 53, 113
2, 81647, Note_on_c, 0, 53, 0
2, 81650, Note_on_c, 0, 69, 0
2, 81656, Note_on_c, 0, 79, 84
2, 81727, Note_on_c, 0, 79, 0
2, 81728, Note_on_c, 0, 69, 85
2, 81775, Note_on_c, 0, 53, 100
2, 81780, Note_on_c, 0, 69, 0
2, 81781, Note_on_c, 0, 79, 72
2, 81797, Note_on_c, 0, 53, 0
2, 81826, Note_on_c, 0, 79, 0
2, 81829, Note_on_c, 0, 53, 121
2, 81830, Note_on_c, 0, 69, 77
2, 81874, Note_on_c, 0, 53, 0
2, 81880, Note_on_c, 0, 77, 71
2, 81882, Note_on_c, 0, 69, 0
2, 81939, Note_on_c, 0, 77, 0
2, 81939, Note_on_c, 0, 69, 68
2, 81968, Note_on_c, 0, 55, 103
2, 81992, Note_on_c, 0, 69, 0
2, 81997, Note_on_c, 0, 77, 80
2, 82007, Note_on_c, 0, 53, 93
2, 82029, Note_on_c, 0, 55, 0
2, 82036, Note_on_c, 0, 69, 75
2, 82055, Note_on_c, 0, 77, 0
2, 82060, Note_on_c, 0, 52, 103
2, 82084, Note_on_c, 0, 53, 0
2, 82094, Note_on_c, 0, 77, 96
2, 82097, Note_on_c, 0, 69, 0
2, 82109, Note_on_c, 0, 50, 103
2, 82122, Note_on_c, 0, 52, 0
2, 82136, Note_on_c, 0, 69, 84
2, 82163, Note_on_c, 0, 77, 0
2, 82167, Note_on_c, 0, 48, 100
2, 82168, Note_on_c, 0, 50, 0
2, 82195, Note_on_c, 0, 77, 90
2, 82201, Note_on_c, 0, 69, 0
2, 82207, Note_on_c, 0, 47, 104
2, 82237, Note_on_c, 0, 48, 0
2, 82253, Note_on_c, 0, 67, 96
2, 82254, Note_on_c, 0, 77, 0
2, 82257, Note_on_c, 0, 50, 116
2, 82286, Note_on_c, 0, 47, 0
2, 82304, Control_c, 0, 64, 63
2, 82307, Note_on_c, 0, 67, 0
2, 82314, Note_on_c, 0, 77, 102
2, 82359, Control_c, 0, 64, 127
2, 82362, Note_on_c, 0, 67, 86
2, 82369, Note_on_c, 0, 48, 112
2, 82380, Note_on_c, 0, 77, 0
2, 82385, Note_on_c, 0, 50, 0
2, 82385, Control_c, 0, 64, 63
2, 82402, Control_c, 0, 64, 0
2, 82413, Note_on_c, 0, 48, 0
2, 82415, Note_on_c, 0, 77, 88
2, 82419, Note_on_c, 0, 67, 0
2, 82467, Note_on_c, 0, 67, 87
2, 82478, Note_on_c, 0, 48, 103
2, 82481, Note_on_c, 0, 77, 0
2, 82522, Note_on_c, 0, 67, 0
2, 82529, Note_on_c, 0, 77, 101
2, 82575, Note_on_c, 0, 67, 86
2, 82589, Note_on_c, 0, 77, 0
2, 82631, Note_on_c, 0, 67, 0
2, 82634, Note_on_c, 0, 77, 100
2, 82682, Note_on_c, 0, 67, 98
2, 82685, Note_on_c, 0, 77, 0
2, 82716, Control_c, 0, 64, 63
2, 82717, Control_c, 0, 64, 127
2, 82730, Note_on_c, 0, 67, 0
2, 82732, Note_on_c, 0, 48, 0
2, 82740, Note_on_c, 0, 76, 98
2, 82788, Note_on_c, 0, 67, 81
2, 82801, Note_on_c, 0, 76, 0
2, 82845, Note_on_c, 0, 67, 0
2, 82851, Note_on_c, 0, 76, 93
2, 82864, Note_on_c, 0, 55, 106
2, 82892, Note_on_c, 0, 67, 80
2, 82892, Control_c, 0, 64, 63
2, 82899, Note_on_c, 0, 52, 99
2, 82902, Control_c, 0, 64, 0
2, 82906, Note_on_c, 0, 76, 0
2, 82921, Note_on_c, 0, 55, 0
2, 82927, Control_c, 0, 64, 63
2, 82943, Control_c, 0, 64, 127
2, 82962, Note_on_c, 0, 67, 0
2, 82962, Note_on_c, 0, 76, 79
2, 83019, Note_on_c, 0, 76, 0
2, 83020, Note_on_c, 0, 67, 77
2, 83055, Note_on_c, 0, 49, 108
2, 83061, Note_on_c, 0, 76, 83
2, 83064, Note_on_c, 0, 67, 0
2, 83066, Control_c, 0, 64, 63
2, 83071, Note_on_c, 0, 52, 0
2, 83096, Note_on_c, 0, 76, 0
2, 83099, Note_on_c, 0, 52, 104
2, 83111, Control_c, 0, 64, 127
2, 83115, Note_on_c, 0, 65, 92
2, 83120, Note_on_c, 0, 49, 0
2, 83168, Note_on_c, 0, 65, 0
2, 83169, Note_on_c, 0, 76, 85
2, 83212, Control_c, 0, 64, 63
2, 83216, Note_on_c, 0, 50, 108
2, 83219, Note_on_c, 0, 52, 0
2, 83223, Note_on_c, 0, 65, 76
2, 83225, Note_on_c, 0, 76, 0
2, 83227, Control_c, 0, 64, 0
2, 83257, Note_on_c, 0, 50, 0
2, 83269, Note_on_c, 0, 65, 0
2, 83275, Note_on_c, 0, 76, 88
2, 83317, Note_on_c, 0, 50, 108
2, 83319, Note_on_c, 0, 65, 85
2, 83327, Note_on_c, 0, 76, 0
2, 83353, Note_on_c, 0, 50, 0
2, 83371, Note_on_c, 0, 65, 0
2, 83381, Note_on_c, 0, 76, 90
2, 83424, Note_on_c, 0, 65, 78
2, 83428, Note_on_c, 0, 50, 96
2, 83434, Note_on_c, 0, 76, 0
2, 83461, Note_on_c, 0, 50, 0
2, 83475, Note_on_c, 0, 65, 0
2, 83485, Note_on_c, 0, 76, 81
2, 83521, Note_on_c, 0, 76, 0
2, 83542, Note_on_c, 0, 65, 108
2, 83550, Note_on_c, 0, 50, 94
2, 83599, Note_on_c, 0, 65, 0
2, 83611, Note_on_c, 0, 74, 101
2, 83648, Note_on_c, 0, 52, 76
2, 83653, Note_on_c, 0, 50, 0
2, 83665, Note_on_c, 0, 65, 98
2, 83675, Note_on_c, 0, 74, 0
2, 83685, Note_on_c, 0, 50, 89
2, 83686, Note_on_c, 0, 52, 0
2, 83708, Note_on_c, 0, 74, 93
2, 83720, Note_on_c, 0, 65, 0
2, 83743, Note_on_c, 0, 48, 79
2, 83747, Note_on_c, 0, 50, 0
2, 83761, Note_on_c, 0, 65, 96
2, 83781, Note_on_c, 0, 74, 0
2, 83796, Note_on_c, 0, 47, 76
2, 83810, Note_on_c, 0, 48, 0
2, 83810, Note_on_c, 0, 74, 87
2, 83821, Note_on_c, 0, 65, 0
2, 83847, Note_on_c, 0, 45, 70
2, 83861, Note_on_c, 0, 47, 0
2, 83864, Note_on_c, 0, 65, 93
2, 83880, Note_on_c, 0, 74, 0
2, 83911, Note_on_c, 0, 44, 88
2, 83916, Note_on_c, 0, 74, 87
2, 83918, Note_on_c, 0, 65, 0
2, 83921, Note_on_c, 0, 45, 0
2, 83971, Note_on_c, 0, 64, 100
2, 83973, Note_on_c, 0, 74, 0
2, 83978, Note_on_c, 0, 47, 83
2, 83994, Note_on_c, 0, 44, 0
2, 84027, Note_on_c, 0, 74, 97
2, 84030, Note_on_c, 0, 64, 0
2, 84074, Note_on_c, 0, 64, 88
2, 84074, Note_on_c, 0, 45, 84
2, 84082, Note_on_c, 0, 47, 0
2, 84088, Note_on_c, 0, 74, 0
2, 84124, Note_on_c, 0, 45, 0
2, 84129, Note_on_c, 0, 74, 92
2, 84133, Note_on_c, 0, 64, 0
2, 84178, Note_on_c, 0, 64, 94
2, 84180, Note_on_c, 0, 45, 81
2, 84194, Note_on_c, 0, 74, 0
2, 84231, Note_on_c, 0, 45, 0
2, 84239, Note_on_c, 0, 72, 106
2, 84248, Note_on_c, 0, 64, 0
2, 84288, Note_on_c, 0, 64, 87
2, 84293, Note_on_c, 0, 45, 83
2, 84307, Note_on_c, 0, 72, 0
2, 84339, Note_on_c, 0, 45, 0
2, 84349, Note_on_c, 0, 72, 107
2, 84363, Note_on_c, 0, 64, 0
2, 84400, Note_on_c, 0, 45, 93
2, 84400, Note_on_c, 0, 64, 98
2, 84421, Note_on_c, 0, 72, 0
2, 84465, Note_on_c, 0, 71, 112
2, 84476, Note_on_c, 0, 45, 0
2, 84491, Note_on_c, 0, 64, 0
2, 84512, Note_on_c, 0, 43, 91
2, 84516, Note_on_c, 0, 64, 94
2, 84529, Note_on_c, 0, 71, 0
2, 84566, Note_on_c, 0, 71, 104
2, 84588, Note_on_c, 0, 43, 0
2, 84593, Note_on_c, 0, 64, 0
2, 84612, Note_on_c, 0, 71, 0
2, 84618, Note_on_c, 0, 43, 84
2, 84627, Note_on_c, 0, 64, 89
2, 84628, Note_on_c, 0, 71, 107
2, 84680, Note_on_c, 0, 76, 108
2, 84685, Note_on_c, 0, 64, 0
2, 84704, Note_on_c, 0, 71, 0
2, 84714, Note_on_c, 0, 43, 0
2, 84738, Note_on_c, 0, 71, 97
2, 84743, Note_on_c, 0, 64, 91
2, 84753, Note_on_c, 0, 76, 0
2, 84758, Note_on_c, 0, 55, 41
2, 84788, Note_on_c, 0, 64, 0
2, 84792, Note_on_c, 0, 76, 106
2, 84827, Note_on_c, 0, 71, 0
2, 84856, Note_on_c, 0, 76, 0
2, 84873, Note_on_c, 0, 55, 0
2, 84888, Note_on_c, 0, 54, 63
2, 84889, Note_on_c, 0, 76, 97
2, 84903, Note_on_c, 0, 69, 48
2, 85024, Note_on_c, 0, 54, 0
2, 85025, Note_on_c, 0, 75, 85
2, 85055, Note_on_c, 0, 76, 0
2, 85059, Note_on_c, 0, 69, 0
2, 85081, Note_on_c, 0, 75, 0
2, 85120, Note_on_c, 0, 53, 74
2, 85230, Note_on_c, 0, 69, 47
2, 85234, Note_on_c, 0, 53, 0
2, 85234, Note_on_c, 0, 74, 70
2, 85278, Note_on_c, 0, 69, 0
2, 85284, Note_on_c, 0, 74, 0
2, 85342, Note_on_c, 0, 52, 68
2, 85351, Note_on_c, 0, 74, 58
2, 85356, Note_on_c, 0, 69, 40
2, 85462, Note_on_c, 0, 74, 0
2, 85462, Note_on_c, 0, 73, 75
2, 85483, Note_on_c, 0, 52, 0
2, 85491, Note_on_c, 0, 73, 0
2, 85498, Note_on_c, 0, 69, 0
2, 85567, Note_on_c, 0, 52, 78
2, 85673, Note_on_c, 0, 72, 76
2, 85676, Note_on_c, 0, 69, 65
2, 85713, Note_on_c, 0, 52, 0
2, 85727, Note_on_c, 0, 69, 0
2, 85739, Note_on_c, 0, 72, 0
2, 85783, Note_on_c, 0, 50, 75
2, 85787, Note_on_c, 0, 69, 68
2, 85788, Note_on_c, 0, 70, 85
2, 85896, Note_on_c, 0, 71, 93
2, 85921, Note_on_c, 0, 70, 0
2, 85938, Note_on_c, 0, 69, 0
2, 85941, Note_on_c, 0, 50, 0
2, 85946, Note_on_c, 0, 71, 0
2, 86007, Note_on_c, 0, 52, 84
2, 86119, Note_on_c, 0, 73, 107
2, 86125, Note_on_c, 0, 69, 78
2, 86161, Note_on_c, 0, 69, 0
2, 86170, Note_on_c, 0, 73, 0
2, 86210, Note_on_c, 0, 52, 0
2, 86240, Note_on_c, 0, 53, 107
2, 86338, Note_on_c, 0, 74, 109
2, 86344, Note_on_c, 0, 69, 99
2, 86388, Note_on_c, 0, 74, 0
2, 86394, Note_on_c, 0, 69, 0
2, 86399, Note_on_c, 0, 53, 0
2, 86437, Note_on_c, 0, 49, 115
2, 86548, Note_on_c, 0, 76, 109
2, 86554, Note_on_c, 0, 69, 100
2, 86619, Note_on_c, 0, 69, 0
2, 86631, Note_on_c, 0, 76, 0
2, 86660, Note_on_c, 0, 50, 102
2, 86670, Note_on_c, 0, 79, 102
2, 86672, Note_on_c, 0, 69, 87
2, 86691, Note_on_c, 0, 49, 0
2, 86817, Note_on_c, 0, 77, 98
2, 86852, Note_on_c, 0, 79, 0
2, 86916, Note_on_c, 0, 52, 107
2, 86948, Note_on_c, 0, 50, 0
2, 87024, Note_on_c, 0, 76, 108
2, 87070, Note_on_c, 0, 77, 0
2, 87130, Note_on_c, 0, 53, 103
2, 87135, Note_on_c, 0, 74, 103
2, 87155, Note_on_c, 0, 52, 0
2, 87181, Note_on_c, 0, 76, 0
2, 87199, Control_c, 0, 64, 63
2, 87205, Note_on_c, 0, 74, 0
2, 87215, Control_c, 0, 64, 127
2, 87241, Note_on_c, 0, 72, 101
2, 87267, Note_on_c, 0, 69, 0
2, 87287, Note_on_c, 0, 72, 0
2, 87352, Note_on_c, 0, 66, 110
2, 87353, Note_on_c, 0, 71, 102
2, 87355, Note_on_c, 0, 51, 108
2, 87369, Note_on_c, 0, 53, 0
2, 87371, Control_c, 0, 64, 63
2, 87375, Control_c, 0, 64, 0
2, 87449, Control_c, 0, 64, 63
2, 87457, Control_c, 0, 64, 127
2, 87458, Note_on_c, 0, 69, 104
2, 87485, Note_on_c, 0, 66, 0
2, 87486, Note_on_c, 0, 71, 0
2, 87501, Note_on_c, 0, 69, 0
2, 87504, Note_on_c, 0, 51, 0
2, 87604, Note_on_c, 0, 68, 84
2, 87613, Note_on_c, 0, 52, 101
2, 87614, Control_c, 0, 64, 63
2, 87614, Note_on_c, 0, 71, 91
2, 87618, Control_c, 0, 64, 0
2, 87622, Note_on_c, 0, 76, 102
2, 87651, Control_c, 0, 64, 63
2, 87659, Control_c, 0, 64, 127
2, 87720, Note_on_c, 0, 59, 76
2, 87755, Note_on_c, 0, 68, 0
2, 87758, Note_on_c, 0, 52, 0
2, 87783, Note_on_c, 0, 71, 0
2, 87784, Note_on_c, 0, 59, 0
2, 87785, Note_on_c, 0, 56, 71
2, 87792, Note_on_c, 0, 76, 0
2, 87817, Note_on_c, 0, 59, 80
2, 87826, Note_on_c, 0, 56, 0
2, 87878, Note_on_c, 0, 76, 114
2, 87880, Note_on_c, 0, 59, 0
2, 87885, Note_on_c, 0, 52, 64
2, 87919, Note_on_c, 0, 59, 68
2, 87930, Note_on_c, 0, 52, 0
2, 87964, Note_on_c, 0, 76, 0
2, 87977, Note_on_c, 0, 56, 88
2, 87982, Note_on_c, 0, 59, 0
2, 88021, Note_on_c, 0, 59, 71
2, 88030, Note_on_c, 0, 56, 0
2, 88058, Note_on_c, 0, 76, 103
2, 88091, Note_on_c, 0, 76, 0
2, 88094, Note_on_c, 0, 59, 0
2, 88109, Note_on_c, 0, 52, 90
2, 88111, Note_on_c, 0, 76, 118
2, 88143, Control_c, 0, 64, 63
2, 88170, Control_c, 0, 64, 127
2, 88177, Note_on_c, 0, 60, 74
2, 88233, Note_on_c, 0, 57, 87
2, 88234, Note_on_c, 0, 60, 0
2, 88245, Note_on_c, 0, 52, 0
2, 88272, Note_on_c, 0, 60, 84
2, 88296, Note_on_c, 0, 76, 0
2, 88301, Note_on_c, 0, 57, 0
2, 88332, Note_on_c, 0, 76, 117
2, 88332, Note_on_c, 0, 52, 94
2, 88341, Note_on_c, 0, 60, 0
2, 88390, Note_on_c, 0, 62, 85
2, 88408, Note_on_c, 0, 76, 0
2, 88440, Note_on_c, 0, 59, 103
2, 88454, Note_on_c, 0, 62, 0
2, 88483, Note_on_c, 0, 62, 90
2, 88486, Note_on_c, 0, 52, 0
2, 88552, Note_on_c, 0, 52, 73
2, 88555, Note_on_c, 0, 81, 107
2, 88555, Note_on_c, 0, 69, 97
2, 88567, Note_on_c, 0, 62, 0
2, 88597, Note_on_c, 0, 59, 0
2, 88611, Control_c, 0, 64, 63
2, 88617, Control_c, 0, 64, 0
2, 88629, Note_on_c, 0, 60, 82
2, 88674, Control_c, 0, 64, 63
2, 88686, Note_on_c, 0, 57, 82
2, 88690, Note_on_c, 0, 60, 0
2, 88693, Control_c, 0, 64, 127
2, 88696, Note_on_c, 0, 52, 0
2, 88724, Note_on_c, 0, 60, 83
2, 88740, Note_on_c, 0, 57, 0
2, 88783, Note_on_c, 0, 52, 87
2, 88787, Note_on_c, 0, 60, 0
2, 88823, Note_on_c, 0, 60, 71
2, 88854, Note_on_c, 0, 69, 0
2, 88862, Note_on_c, 0, 52, 0
2, 88889, Note_on_c, 0, 60, 0
2, 88893, Note_on_c, 0, 57, 68
2, 88895, Note_on_c, 0, 79, 84
2, 88906, Note_on_c, 0, 81, 0
2, 88930, Note_on_c, 0, 60, 74
2, 88941, Note_on_c, 0, 77, 99
2, 88942, Note_on_c, 0, 57, 0
2, 88973, Note_on_c, 0, 79, 0
2, 88987, Note_on_c, 0, 60, 0
2, 88987, Note_on_c, 0, 52, 81
2, 88990, Note_on_c, 0, 76, 102
2, 89005, Note_on_c, 0, 77, 0
2, 89024, Note_on_c, 0, 60, 73
2, 89047, Note_on_c, 0, 52, 0
2, 89068, Note_on_c, 0, 76, 0
2, 89094, Note_on_c, 0, 60, 0
2, 89095, Note_on_c, 0, 57, 71
2, 89140, Note_on_c, 0, 60, 84
2, 89146, Note_on_c, 0, 57, 0
2, 89202, Note_on_c, 0, 60, 0
2, 89203, Note_on_c, 0, 52, 75
2, 89220, Note_on_c, 0, 75, 108
2, 89247, Note_on_c, 0, 60, 76
2, 89266, Note_on_c, 0, 52, 0
2, 89272, Note_on_c, 0, 75, 0
2, 89309, Note_on_c, 0, 60, 0
2, 89320, Note_on_c, 0, 57, 53
2, 89355, Note_on_c, 0, 60, 64
2, 89362, Note_on_c, 0, 57, 0
2, 89414, Note_on_c, 0, 68, 66
2, 89439, Note_on_c, 0, 60, 0
2, 89440, Control_c, 0, 64, 63
2, 89445, Note_on_c, 0, 52, 63
2, 89445, Note_on_c, 0, 71, 68
2, 89449, Control_c, 0, 64, 0
2, 89467, Note_on_c, 0, 76, 80
2, 89520, Note_on_c, 0, 59, 64
2, 89534, Control_c, 0, 64, 63
2, 89546, Control_c, 0, 64, 127
2, 89547, Note_on_c, 0, 52, 0
2, 89584, Note_on_c, 0, 59, 0
2, 89585, Note_on_c, 0, 56, 61
2, 89588, Note_on_c, 0, 71, 0
2, 89608, Note_on_c, 0, 68, 0
2, 89621, Note_on_c, 0, 76, 0
2, 89623, Note_on_c, 0, 56, 0
2, 89623, Note_on_c, 0, 59, 60
2, 89677, Note_on_c, 0, 52, 72
2, 89683, Note_on_c, 0, 59, 0
2, 89685, Note_on_c, 0, 76, 92
2, 89722, Note_on_c, 0, 59, 55
2, 89735, Note_on_c, 0, 52, 0
2, 89748, Note_on_c, 0, 76, 0
2, 89776, Note_on_c, 0, 56, 76
2, 89780, Note_on_c, 0, 59, 0
2, 89822, Note_on_c, 0, 59, 52
2, 89836, Note_on_c, 0, 56, 0
2, 89839, Note_on_c, 0, 76, 97
2, 89869, Note_on_c, 0, 76, 0
2, 89878, Note_on_c, 0, 59, 0
2, 89884, Note_on_c, 0, 76, 89
2, 89886, Control_c, 0, 64, 63
2, 89886, Note_on_c, 0, 52, 73
2, 89893, Control_c, 0, 64, 0
2, 89933, Note_on_c, 0, 60, 79
2, 89952, Control_c, 0, 64, 63
2, 89953, Note_on_c, 0, 52, 0
2, 89973, Control_c, 0, 64, 127
2, 89999, Note_on_c, 0, 60, 0
2, 90002, Note_on_c, 0, 57, 67
2, 90035, Note_on_c, 0, 60, 73
2, 90051, Note_on_c, 0, 76, 0
2, 90055, Note_on_c, 0, 57, 0
2, 90088, Note_on_c, 0, 76, 92
2, 90091, Control_c, 0, 64, 63
2, 90093, Note_on_c, 0, 60, 0
2, 90094, Note_on_c, 0, 52, 79
2, 90137, Control_c, 0, 64, 127
2, 90143, Note_on_c, 0, 76, 0
2, 90145, Note_on_c, 0, 62, 76
2, 90152, Note_on_c, 0, 52, 0
2, 90206, Note_on_c, 0, 62, 0
2, 90207, Note_on_c, 0, 59, 76
2, 90249, Note_on_c, 0, 62, 66
2, 90257, Note_on_c, 0, 59, 0
2, 90310, Control_c, 0, 64, 63
2, 90320, Note_on_c, 0, 52, 75
2, 90323, Note_on_c, 0, 62, 0
2, 90325, Note_on_c, 0, 81, 94
2, 90328, Note_on_c, 0, 69, 70
2, 90385, Control_c, 0, 64, 127
2, 90387, Note_on_c, 0, 60, 70
2, 90401, Note_on_c, 0, 52, 0
2, 90445, Note_on_c, 0, 60, 0
2, 90447, Note_on_c, 0, 57, 60
2, 90486, Note_on_c, 0, 60, 71
2, 90492, Note_on_c, 0, 57, 0
2, 90528, Note_on_c, 0, 69, 0
2, 90544, Note_on_c, 0, 60, 0
2, 90545, Note_on_c, 0, 52, 77
2, 90593, Note_on_c, 0, 60, 57
2, 90608, Note_on_c, 0, 52, 0
2, 90640, Note_on_c, 0, 81, 0
2, 90657, Note_on_c, 0, 60, 0
2, 90667, Note_on_c, 0, 57, 52
2, 90668, Note_on_c, 0, 79, 75
2, 90705, Note_on_c, 0, 77, 83
2, 90706, Note_on_c, 0, 60, 63
2, 90711, Note_on_c, 0, 57, 0
2, 90733, Control_c, 0, 64, 63
2, 90740, Note_on_c, 0, 79, 0
2, 90754, Note_on_c, 0, 76, 87
2, 90762, Note_on_c, 0, 60, 0
2, 90763, Note_on_c, 0, 52, 70
2, 90764, Control_c, 0, 64, 127
2, 90774, Note_on_c, 0, 77, 0
2, 90806, Note_on_c, 0, 60, 56
2, 90818, Note_on_c, 0, 52, 0
2, 90876, Note_on_c, 0, 60, 0
2, 90879, Note_on_c, 0, 57, 55
2, 90919, Note_on_c, 0, 60, 69
2, 90922, Note_on_c, 0, 57, 0
2, 90927, Note_on_c, 0, 76, 0
2, 90969, Note_on_c, 0, 52, 75
2, 90974, Note_on_c, 0, 60, 0
2, 90981, Note_on_c, 0, 75, 97
2, 91018, Note_on_c, 0, 60, 70
2, 91021, Note_on_c, 0, 75, 0
2, 91029, Note_on_c, 0, 52, 0
2, 91073, Note_on_c, 0, 60, 0
2, 91078, Note_on_c, 0, 57, 71
2, 91117, Note_on_c, 0, 60, 81
2, 91131, Note_on_c, 0, 57, 0
2, 91157, Note_on_c, 0, 60, 0
2, 91170, Control_c, 0, 64, 63
2, 91175, Control_c, 0, 64, 0
2, 91182, Note_on_c, 0, 76, 104
2, 91187, Note_on_c, 0, 59, 117
2, 91188, Note_on_c, 0, 52, 112
2, 91193, Note_on_c, 0, 56, 110
2, 91206, Control_c, 0, 64, 63
2, 91219, Control_c, 0, 64, 127
2, 91233, Note_on_c, 0, 56, 0
2, 91236, Note_on_c, 0, 59, 0
2, 91238, Note_on_c, 0, 52, 0
2, 91245, Note_on_c, 0, 71, 71
2, 91248, Note_on_c, 0, 76, 0
2, 91297, Note_on_c, 0, 71, 0
2, 91297, Note_on_c, 0, 68, 82
2, 91338, Note_on_c, 0, 68, 0
2, 91346, Note_on_c, 0, 71, 68
2, 91388, Note_on_c, 0, 71, 0
2, 91399, Control_c, 0, 64, 63
2, 91403, Control_c, 0, 64, 0
2, 91408, Note_on_c, 0, 76, 116
2, 91459, Note_on_c, 0, 72, 100
2, 91491, Note_on_c, 0, 76, 0
2, 91511, Note_on_c, 0, 69, 84
2, 91512, Note_on_c, 0, 57, 107
2, 91513, Note_on_c, 0, 72, 0
2, 91515, Note_on_c, 0, 45, 108
2, 91545, Note_on_c, 0, 57, 0
2, 91548, Note_on_c, 0, 45, 0
2, 91567, Note_on_c, 0, 72, 84
2, 91573, Note_on_c, 0, 69, 0
2, 91590, Note_on_c, 0, 72, 0
2, 91624, Note_on_c, 0, 76, 111
2, 91627, Note_on_c, 0, 52, 116
2, 91629, Note_on_c, 0, 40, 121
2, 91639, Control_c, 0, 64, 63
2, 91641, Control_c, 0, 64, 127
2, 91656, Note_on_c, 0, 52, 0
2, 91657, Note_on_c, 0, 40, 0
2, 91687, Note_on_c, 0, 76, 0
2, 91688, Note_on_c, 0, 71, 90
2, 91739, Note_on_c, 0, 68, 90
2, 91741, Note_on_c, 0, 71, 0
2, 91785, Note_on_c, 0, 68, 0
2, 91789, Note_on_c, 0, 71, 86
2, 91831, Note_on_c, 0, 71, 0
2, 91843, Control_c, 0, 64, 63
2, 91847, Control_c, 0, 64, 0
2, 91853, Note_on_c, 0, 76, 117
2, 91913, Note_on_c, 0, 72, 102
2, 91945, Note_on_c, 0, 57, 111
2, 91948, Note_on_c, 0, 45, 107
2, 91954, Note_on_c, 0, 76, 0
2, 91962, Note_on_c, 0, 69, 86
2, 91964, Note_on_c, 0, 72, 0
2, 91977, Note_on_c, 0, 57, 0
2, 91980, Note_on_c, 0, 45, 0
2, 92012, Note_on_c, 0, 72, 90
2, 92024, Note_on_c, 0, 69, 0
2, 92052, Note_on_c, 0, 72, 0
2, 92073, Note_on_c, 0, 76, 102
2, 92075, Note_on_c, 0, 52, 120
2, 92077, Note_on_c, 0, 40, 120
2, 92088, Control_c, 0, 64, 63
2, 92090, Control_c, 0, 64, 127
2, 92094, Note_on_c, 0, 40, 0
2, 92101, Note_on_c, 0, 52, 0
2, 92124, Note_on_c, 0, 76, 0
2, 92125, Note_on_c, 0, 71, 90
2, 92177, Note_on_c, 0, 71, 0
2, 92185, Note_on_c, 0, 68, 87
2, 92234, Note_on_c, 0, 71, 70
2, 92237, Note_on_c, 0, 68, 0
2, 92277, Note_on_c, 0, 71, 0
2, 92294, Note_on_c, 0, 76, 111
2, 92302, Control_c, 0, 64, 63
2, 92306, Control_c, 0, 64, 0
2, 92352, Note_on_c, 0, 72, 106
2, 92399, Note_on_c, 0, 76, 0
2, 92400, Note_on_c, 0, 69, 83
2, 92403, Note_on_c, 0, 57, 99
2, 92407, Note_on_c, 0, 45, 100
2, 92409, Note_on_c, 0, 72, 0
2, 92438, Note_on_c, 0, 57, 0
2, 92440, Note_on_c, 0, 72, 94
2, 92442, Note_on_c, 0, 45, 0
2, 92461, Note_on_c, 0, 69, 0
2, 92494, Note_on_c, 0, 72, 0
2, 92509, Note_on_c, 0, 52, 114
2, 92509, Note_on_c, 0, 71, 92
2, 92510, Note_on_c, 0, 40, 117
2, 92514, Note_on_c, 0, 68, 89
2, 92540, Note_on_c, 0, 52, 0
2, 92542, Note_on_c, 0, 40, 0
2, 92556, Note_on_c, 0, 68, 0
2, 92563, Note_on_c, 0, 76, 97
2, 92589, Note_on_c, 0, 71, 0
2, 92614, Note_on_c, 0, 57, 108
2, 92616, Note_on_c, 0, 72, 97
2, 92617, Note_on_c, 0, 45, 96
2, 92623, Note_on_c, 0, 69, 76
2, 92636, Note_on_c, 0, 76, 0
2, 92636, Note_on_c, 0, 57, 0
2, 92643, Note_on_c, 0, 45, 0
2, 92667, Note_on_c, 0, 76, 93
2, 92668, Note_on_c, 0, 69, 0
2, 92683, Note_on_c, 0, 72, 0
2, 92724, Note_on_c, 0, 71, 94
2, 92724, Note_on_c, 0, 52, 113
2, 92727, Note_on_c, 0, 40, 106
2, 92728, Note_on_c, 0, 76, 0
2, 92728, Note_on_c, 0, 68, 90
2, 92742, Note_on_c, 0, 40, 0
2, 92751, Note_on_c, 0, 52, 0
2, 92755, Note_on_c, 0, 68, 0
2, 92782, Note_on_c, 0, 76, 90
2, 92797, Note_on_c, 0, 71, 0
2, 92833, Note_on_c, 0, 57, 111
2, 92834, Note_on_c, 0, 72, 92
2, 92836, Note_on_c, 0, 45, 107
2, 92836, Note_on_c, 0, 69, 83
2, 92852, Note_on_c, 0, 76, 0
2, 92855, Note_on_c, 0, 57, 0
2, 92857, Note_on_c, 0, 45, 0
2, 92873, Note_on_c, 0, 69, 0
2, 92887, Note_on_c, 0, 76, 79
2, 92909, Note_on_c, 0, 72, 0
2, 92937, Note_on_c, 0, 71, 96
2, 92942, Note_on_c, 0, 52, 111
2, 92942, Note_on_c, 0, 68, 101
2, 92947, Note_on_c, 0, 40, 106
2, 92960, Note_on_c, 0, 40, 0
2, 92961, Note_on_c, 0, 76, 0
2, 92965, Note_on_c, 0, 52, 0
2, 92974, Note_on_c, 0, 68, 0
2, 92976, Note_on_c, 0, 71, 0
2, 93153, Note_on_c, 0, 64, 67
2, 93159, Note_on_c, 0, 68, 97
2, 93166, Note_on_c, 0, 71, 104
2, 93177, Note_on_c, 0, 76, 108
2, 93180, Note_on_c, 0, 64, 0
2, 93181, Control_c, 0, 64, 63
2, 93184, Control_c, 0, 64, 127
2, 93185, Note_on_c, 0, 52, 112
2, 93190, Note_on_c, 0, 40, 98
2, 93194, Note_on_c, 0, 68, 0
2, 93199, Note_on_c, 0, 71, 0
2, 93213, Note_on_c, 0, 76, 0
2, 93231, Note_on_c, 0, 40, 0
2, 93247, Note_on_c, 0, 52, 0
2, 93421, Note_on_c, 0, 52, 76
2, 93421, Note_on_c, 0, 40, 82
2, 93467, Control_c, 0, 64, 63
2, 93540, Note_on_c, 0, 40, 0
2, 93543, Note_on_c, 0, 76, 71
2, 93545, Control_c, 0, 64, 0
2, 93567, Note_on_c, 0, 52, 0
2, 93577, Note_on_c, 0, 76, 0
2, 93676, Note_on_c, 0, 78, 59
2, 93697, Note_on_c, 0, 78, 0
2, 93792, Note_on_c, 0, 80, 76
2, 93830, Note_on_c, 0, 80, 0
2, 93895, Control_c, 0, 64, 63
2, 93919, Note_on_c, 0, 81, 52
2, 93919, Control_c, 0, 64, 127
2, 93920, Note_on_c, 0, 64, 51
2, 93928, Note_on_c, 0, 60, 38
2, 93974, Note_on_c, 0, 81, 0
2, 93980, Note_on_c, 0, 83, 56
2, 94037, Note_on_c, 0, 60, 0
2, 94037, Note_on_c, 0, 80, 72
2, 94038, Note_on_c, 0, 83, 0
2, 94038, Note_on_c, 0, 62, 50
2, 94048, Note_on_c, 0, 64, 0
2, 94051, Note_on_c, 0, 65, 42
2, 94079, Note_on_c, 0, 83, 61
2, 94098, Note_on_c, 0, 80, 0
2, 94130, Note_on_c, 0, 81, 82
2, 94140, Note_on_c, 0, 62, 0
2, 94150, Note_on_c, 0, 83, 0
2, 94151, Note_on_c, 0, 64, 63
2, 94152, Note_on_c, 0, 60, 52
2, 94157, Note_on_c, 0, 65, 0
2, 94185, Note_on_c, 0, 83, 81
2, 94207, Note_on_c, 0, 81, 0
2, 94243, Note_on_c, 0, 80, 93
2, 94253, Note_on_c, 0, 83, 0
2, 94264, Note_on_c, 0, 60, 0
2, 94265, Note_on_c, 0, 65, 49
2, 94265, Note_on_c, 0, 62, 50
2, 94277, Note_on_c, 0, 64, 0
2, 94286, Note_on_c, 0, 83, 73
2, 94302, Note_on_c, 0, 80, 0
2, 94332, Control_c, 0, 64, 63
2, 94346, Control_c, 0, 64, 0
2, 94351, Note_on_c, 0, 81, 78
2, 94357, Note_on_c, 0, 60, 56
2, 94359, Note_on_c, 0, 62, 0
2, 94366, Note_on_c, 0, 64, 65
2, 94371, Note_on_c, 0, 65, 0
2, 94372, Note_on_c, 0, 83, 0
2, 94408, Note_on_c, 0, 83, 63
2, 94424, Note_on_c, 0, 81, 0
2, 94471, Note_on_c, 0, 79, 71
2, 94485, Note_on_c, 0, 83, 0
2, 94514, Note_on_c, 0, 81, 85
2, 94526, Note_on_c, 0, 79, 0
2, 94564, Note_on_c, 0, 81, 0
2, 94569, Note_on_c, 0, 77, 88
2, 94612, Note_on_c, 0, 60, 0
2, 94614, Note_on_c, 0, 64, 0
2, 94626, Note_on_c, 0, 77, 0
2, 94626, Note_on_c, 0, 79, 75
2, 94667, Note_on_c, 0, 76, 71
2, 94685, Note_on_c, 0, 79, 0
2, 94724, Note_on_c, 0, 77, 79
2, 94734, Note_on_c, 0, 76, 0
2, 94769, Note_on_c, 0, 77, 0
2, 94773, Note_on_c, 0, 74, 74
2, 94776, Control_c, 0, 64, 63
2, 94791, Note_on_c, 0, 69, 55
2, 94795, Note_on_c, 0, 65, 33
2, 94798, Control_c, 0, 64, 127
2, 94822, Note_on_c, 0, 74, 0
2, 94829, Note_on_c, 0, 76, 79
2, 94887, Note_on_c, 0, 76, 0
2, 94890, Note_on_c, 0, 73, 83
2, 94907, Note_on_c, 0, 67, 65
2, 94908, Note_on_c, 0, 70, 78
2, 94912, Note_on_c, 0, 65, 0
2, 94914, Note_on_c, 0, 69, 0
2, 94934, Note_on_c, 0, 76, 76
2, 94944, Note_on_c, 0, 73, 0
2, 94981, Control_c, 0, 64, 63
2, 94991, Note_on_c, 0, 74, 78
2, 95006, Note_on_c, 0, 69, 76
2, 95009, Note_on_c, 0, 70, 0
2, 95012, Note_on_c, 0, 76, 0
2, 95022, Note_on_c, 0, 65, 40
2, 95028, Note_on_c, 0, 67, 0
2, 95053, Note_on_c, 0, 76, 71
2, 95060, Note_on_c, 0, 74, 0
2, 95071, Control_c, 0, 64, 127
2, 95102, Note_on_c, 0, 73, 88
2, 95103, Note_on_c, 0, 70, 75
2, 95108, Note_on_c, 0, 67, 61
2, 95114, Note_on_c, 0, 76, 0
2, 95119, Note_on_c, 0, 69, 0
2, 95121, Note_on_c, 0, 65, 0
2, 95153, Note_on_c, 0, 76, 67
2, 95160, Control_c, 0, 64, 63
2, 95166, Note_on_c, 0, 73, 0
2, 95186, Note_on_c, 0, 70, 0
2, 95189, Control_c, 0, 64, 0
2, 95207, Note_on_c, 0, 67, 0
2, 95214, Note_on_c, 0, 69, 48
2, 95221, Note_on_c, 0, 74, 71
2, 95226, Note_on_c, 0, 65, 50
2, 95235, Note_on_c, 0, 76, 0
2, 95279, Note_on_c, 0, 76, 57
2, 95290, Control_c, 0, 64, 63
2, 95296, Note_on_c, 0, 74, 0
2, 95309, Control_c, 0, 64, 127
2, 95343, Note_on_c, 0, 72, 58
2, 95350, Note_on_c, 0, 76, 0
2, 95388, Note_on_c, 0, 74, 75
2, 95395, Note_on_c, 0, 69, 0
2, 95406, Note_on_c, 0, 72, 0
2, 95413, Note_on_c, 0, 65, 0
2, 95432, Note_on_c, 0, 74, 0
2, 95434, Note_on_c, 0, 71, 81
2, 95439, Control_c, 0, 64, 63
2, 95475, Control_c, 0, 64, 0
2, 95489, Note_on_c, 0, 72, 85
2, 95492, Note_on_c, 0, 71, 0
2, 95540, Note_on_c, 0, 69, 69
2, 95551, Control_c, 0, 64, 63
2, 95553, Note_on_c, 0, 72, 0
2, 95584, Note_on_c, 0, 71, 84
2, 95598, Note_on_c, 0, 69, 0
2, 95635, Control_c, 0, 64, 127
2, 95639, Note_on_c, 0, 71, 0
2, 95652, Note_on_c, 0, 62, 32
2, 95654, Note_on_c, 0, 52, 43
2, 95658, Note_on_c, 0, 59, 45
2, 95659, Note_on_c, 0, 68, 81
2, 95661, Control_c, 0, 64, 63
2, 95703, Note_on_c, 0, 62, 0
2, 95705, Note_on_c, 0, 59, 0
2, 95705, Note_on_c, 0, 71, 84
2, 95711, Note_on_c, 0, 68, 0
2, 95735, Control_c, 0, 64, 127
2, 95769, Note_on_c, 0, 69, 77
2, 95770, Note_on_c, 0, 52, 0
2, 95772, Note_on_c, 0, 62, 63
2, 95778, Note_on_c, 0, 59, 49
2, 95782, Note_on_c, 0, 71, 0
2, 95783, Note_on_c, 0, 53, 53
2, 95814, Note_on_c, 0, 71, 76
2, 95821, Note_on_c, 0, 62, 0
2, 95827, Note_on_c, 0, 59, 0
2, 95830, Note_on_c, 0, 69, 0
2, 95866, Note_on_c, 0, 68, 91
2, 95867, Note_on_c, 0, 53, 0
2, 95873, Note_on_c, 0, 62, 61
2, 95874, Note_on_c, 0, 71, 0
2, 95875, Note_on_c, 0, 52, 73
2, 95876, Note_on_c, 0, 59, 42
2, 95905, Note_on_c, 0, 71, 74
2, 95918, Note_on_c, 0, 62, 0
2, 95919, Note_on_c, 0, 59, 0
2, 95925, Note_on_c, 0, 68, 0
2, 95945, Control_c, 0, 64, 63
2, 95966, Note_on_c, 0, 69, 75
2, 95979, Note_on_c, 0, 71, 0
2, 95984, Note_on_c, 0, 52, 0
2, 95984, Note_on_c, 0, 59, 47
2, 95990, Note_on_c, 0, 62, 29
2, 95995, Note_on_c, 0, 53, 52
2, 96005, Control_c, 0, 64, 0
2, 96019, Note_on_c, 0, 62, 0
2, 96020, Note_on_c, 0, 71, 67
2, 96029, Note_on_c, 0, 59, 0
2, 96034, Note_on_c, 0, 69, 0
2, 96081, Note_on_c, 0, 62, 54
2, 96083, Note_on_c, 0, 68, 83
2, 96088, Note_on_c, 0, 71, 0
2, 96089, Note_on_c, 0, 53, 0
2, 96091, Note_on_c, 0, 59, 45
2, 96092, Control_c, 0, 64, 63
2, 96097, Note_on_c, 0, 52, 54
2, 96120, Control_c, 0, 64, 127
2, 96124, Note_on_c, 0, 71, 73
2, 96139, Note_on_c, 0, 68, 0
2, 96172, Note_on_c, 0, 71, 0
2, 96179, Note_on_c, 0, 65, 80
2, 96220, Note_on_c, 0, 65, 0
2, 96226, Note_on_c, 0, 71, 82
2, 96236, Note_on_c, 0, 62, 0
2, 96236, Control_c, 0, 64, 63
2, 96277, Note_on_c, 0, 59, 0
2, 96279, Control_c, 0, 64, 0
2, 96282, Note_on_c, 0, 64, 79
2, 96284, Note_on_c, 0, 71, 0
2, 96312, Note_on_c, 0, 52, 0
2, 96327, Note_on_c, 0, 64, 0
2, 96328, Note_on_c, 0, 71, 83
2, 96385, Note_on_c, 0, 71, 0
2, 96387, Note_on_c, 0, 62, 77
2, 96433, Note_on_c, 0, 62, 0
2, 96435, Note_on_c, 0, 71, 82
2, 96476, Note_on_c, 0, 71, 0
2, 96488, Control_c, 0, 64, 63
2, 96491, Note_on_c, 0, 60, 76
2, 96516, Note_on_c, 0, 57, 34
2, 96522, Control_c, 0, 64, 127
2, 96523, Note_on_c, 0, 45, 43
2, 96553, Note_on_c, 0, 60, 0
2, 96564, Note_on_c, 0, 64, 65
2, 96628, Note_on_c, 0, 64, 0
2, 96630, Note_on_c, 0, 63, 75
2, 96659, Control_c, 0, 64, 63
2, 96677, Note_on_c, 0, 63, 0
2, 96680, Note_on_c, 0, 64, 78
2, 96719, Control_c, 0, 64, 0
2, 96736, Note_on_c, 0, 65, 74
2, 96737, Note_on_c, 0, 64, 0
2, 96769, Note_on_c, 0, 57, 0
2, 96781, Note_on_c, 0, 45, 0
2, 96782, Note_on_c, 0, 65, 0
2, 96787, Note_on_c, 0, 64, 68
2, 96835, Note_on_c, 0, 64, 0
2, 96841, Note_on_c, 0, 68, 71
2, 96871, Note_on_c, 0, 68, 0
2, 96884, Note_on_c, 0, 64, 57
2, 96939, Note_on_c, 0, 64, 0
2, 96939, Note_on_c, 0, 69, 81
2, 96988, Note_on_c, 0, 69, 0
2, 96995, Note_on_c, 0, 64, 65
2, 97041, Note_on_c, 0, 64, 0
2, 97049, Note_on_c, 0, 71, 92
2, 97099, Note_on_c, 0, 64, 69
2, 97100, Note_on_c, 0, 71, 0
2, 97147, Note_on_c, 0, 64, 0
2, 97153, Note_on_c, 0, 72, 92
2, 97201, Note_on_c, 0, 64, 79
2, 97209, Note_on_c, 0, 72, 0
2, 97250, Note_on_c, 0, 64, 0
2, 97255, Note_on_c, 0, 74, 92
2, 97304, Note_on_c, 0, 64, 74
2, 97304, Control_c, 0, 64, 63
2, 97310, Note_on_c, 0, 74, 0
2, 97315, Control_c, 0, 64, 127
2, 97336, Note_on_c, 0, 64, 0
2, 97379, Note_on_c, 0, 76, 96
2, 97384, Note_on_c, 0, 69, 62
2, 97390, Note_on_c, 0, 60, 59
2, 97416, Note_on_c, 0, 60, 0
2, 97417, Control_c, 0, 64, 63
2, 97426, Note_on_c, 0, 69, 0
2, 97427, Note_on_c, 0, 76, 0
2, 97449, Note_on_c, 0, 77, 82
2, 97455, Control_c, 0, 64, 127
2, 97491, Note_on_c, 0, 69, 69
2, 97502, Note_on_c, 0, 60, 59
2, 97503, Note_on_c, 0, 77, 0
2, 97505, Note_on_c, 0, 75, 85
2, 97535, Note_on_c, 0, 60, 0
2, 97539, Note_on_c, 0, 69, 0
2, 97540, Note_on_c, 0, 77, 88
2, 97555, Note_on_c, 0, 75, 0
2, 97593, Note_on_c, 0, 76, 89
2, 97604, Note_on_c, 0, 69, 76
2, 97605, Control_c, 0, 64, 63
2, 97612, Note_on_c, 0, 60, 68
2, 97614, Note_on_c, 0, 77, 0
2, 97615, Control_c, 0, 64, 0
2, 97641, Note_on_c, 0, 60, 0
2, 97642, Note_on_c, 0, 69, 0
2, 97646, Note_on_c, 0, 77, 89
2, 97671, Note_on_c, 0, 76, 0
2, 97705, Note_on_c, 0, 69, 74
2, 97706, Note_on_c, 0, 75, 99
2, 97715, Note_on_c, 0, 60, 55
2, 97716, Note_on_c, 0, 77, 0
2, 97741, Note_on_c, 0, 60, 0
2, 97747, Note_on_c, 0, 69, 0
2, 97760, Note_on_c, 0, 77, 89
2, 97771, Note_on_c, 0, 75, 0
2, 97804, Note_on_c, 0, 77, 0
2, 97817, Note_on_c, 0, 69, 65
2, 97823, Note_on_c, 0, 60, 62
2, 97832, Note_on_c, 0, 76, 84
2, 97847, Control_c, 0, 64, 63
2, 97851, Control_c, 0, 64, 127
2, 97888, Note_on_c, 0, 76, 0
2, 97901, Note_on_c, 0, 81, 79
2, 97962, Note_on_c, 0, 81, 0
2, 97967, Note_on_c, 0, 80, 76
2, 97993, Note_on_c, 0, 69, 0
2, 98019, Note_on_c, 0, 81, 78
2, 98025, Note_on_c, 0, 80, 0
2, 98028, Note_on_c, 0, 60, 0
2, 98071, Note_on_c, 0, 83, 91
2, 98073, Control_c, 0, 64, 63
2, 98079, Control_c, 0, 64, 127
2, 98085, Note_on_c, 0, 81, 0
2, 98132, Note_on_c, 0, 81, 81
2, 98159, Note_on_c, 0, 83, 0
2, 98192, Note_on_c, 0, 80, 91
2, 98198, Note_on_c, 0, 81, 0
2, 98228, Note_on_c, 0, 81, 80
2, 98243, Note_on_c, 0, 80, 0
2, 98290, Note_on_c, 0, 81, 0
2, 98302, Note_on_c, 0, 79, 88
2, 98307, Note_on_c, 0, 50, 75
2, 98351, Control_c, 0, 64, 63
2, 98371, Note_on_c, 0, 77, 85
2, 98374, Control_c, 0, 64, 127
2, 98405, Note_on_c, 0, 79, 0
2, 98429, Note_on_c, 0, 76, 76
2, 98441, Note_on_c, 0, 77, 0
2, 98482, Note_on_c, 0, 77, 82
2, 98489, Note_on_c, 0, 76, 0
2, 98511, Control_c, 0, 64, 63
2, 98539, Note_on_c, 0, 76, 88
2, 98540, Note_on_c, 0, 53, 85
2, 98561, Note_on_c, 0, 77, 0
2, 98567, Control_c, 0, 64, 127
2, 98592, Note_on_c, 0, 76, 0
2, 98593, Note_on_c, 0, 74, 84
2, 98602, Note_on_c, 0, 53, 0
2, 98646, Note_on_c, 0, 73, 86
2, 98649, Note_on_c, 0, 74, 0
2, 98696, Note_on_c, 0, 73, 0
2, 98702, Note_on_c, 0, 74, 87
2, 98755, Note_on_c, 0, 72, 90
2, 98757, Note_on_c, 0, 58, 91
2, 98766, Control_c, 0, 64, 63
2, 98769, Note_on_c, 0, 74, 0
2, 98778, Note_on_c, 0, 50, 0
2, 98811, Note_on_c, 0, 70, 101
2, 98824, Note_on_c, 0, 72, 0
2, 98839, Control_c, 0, 64, 127
2, 98868, Note_on_c, 0, 70, 0
2, 98868, Note_on_c, 0, 69, 81
2, 98929, Note_on_c, 0, 70, 104
2, 98935, Note_on_c, 0, 69, 0
2, 98948, Control_c, 0, 64, 63
2, 98958, Note_on_c, 0, 50, 76
2, 98975, Note_on_c, 0, 70, 0
2, 98984, Control_c, 0, 64, 127
2, 98985, Note_on_c, 0, 69, 80
2, 99035, Note_on_c, 0, 70, 90
2, 99037, Note_on_c, 0, 69, 0
2, 99062, Note_on_c, 0, 70, 0
2, 99090, Note_on_c, 0, 72, 82
2, 99138, Note_on_c, 0, 74, 88
2, 99148, Note_on_c, 0, 72, 0
2, 99185, Note_on_c, 0, 48, 54
2, 99187, Note_on_c, 0, 77, 84
2, 99197, Note_on_c, 0, 74, 0
2, 99235, Note_on_c, 0, 50, 0
2, 99235, Control_c, 0, 64, 63
2, 99250, Note_on_c, 0, 76, 84
2, 99257, Note_on_c, 0, 77, 0
2, 99278, Control_c, 0, 64, 0
2, 99294, Note_on_c, 0, 75, 93
2, 99307, Note_on_c, 0, 76, 0
2, 99347, Note_on_c, 0, 76, 87
2, 99354, Note_on_c, 0, 75, 0
2, 99403, Note_on_c, 0, 56, 95
2, 99404, Note_on_c, 0, 74, 96
2, 99415, Note_on_c, 0, 58, 0
2, 99424, Note_on_c, 0, 76, 0
2, 99455, Note_on_c, 0, 72, 89
2, 99466, Note_on_c, 0, 56, 0
2, 99470, Note_on_c, 0, 74, 0
2, 99504, Note_on_c, 0, 71, 79
2, 99509, Note_on_c, 0, 72, 0
2, 99558, Note_on_c, 0, 72, 85
2, 99561, Note_on_c, 0, 71, 0
2, 99604, Note_on_c, 0, 71, 82
2, 99610, Note_on_c, 0, 72, 0
2, 99610, Note_on_c, 0, 57, 84
2, 99638, Control_c, 0, 64, 63
2, 99648, Control_c, 0, 64, 127
2, 99659, Note_on_c, 0, 71, 0
2, 99670, Note_on_c, 0, 69, 83
2, 99725, Note_on_c, 0, 69, 0
2, 99725, Note_on_c, 0, 68, 87
2, 99777, Note_on_c, 0, 48, 0
2, 99777, Note_on_c, 0, 69, 74
2, 99781, Note_on_c, 0, 68, 0
2, 99830, Control_c, 0, 64, 63
2, 99836, Note_on_c, 0, 68, 94
2, 99840, Note_on_c, 0, 69, 0
2, 99840, Note_on_c, 0, 48, 81
2, 99865, Control_c, 0, 64, 0
2, 99887, Note_on_c, 0, 68, 0
2, 99897, Note_on_c, 0, 69, 77
2, 99956, Note_on_c, 0, 71, 83
2, 99959, Note_on_c, 0, 69, 0
2, 100010, Note_on_c, 0, 72, 77
2, 100025, Note_on_c, 0, 71, 0
2, 100031, Note_on_c, 0, 47, 60
2, 100049, Note_on_c, 0, 48, 0
2, 100071, Note_on_c, 0, 74, 84
2, 100087, Note_on_c, 0, 72, 0
2, 100095, Control_c, 0, 64, 63
2, 100102, Control_c, 0, 64, 127
2, 100105, Note_on_c, 0, 77, 81
2, 100118, Note_on_c, 0, 47, 0
2, 100133, Note_on_c, 0, 74, 0
2, 100155, Note_on_c, 0, 57, 0
2, 100165, Note_on_c, 0, 72, 88
2, 100174, Note_on_c, 0, 77, 0
2, 100211, Note_on_c, 0, 77, 85
2, 100220, Note_on_c, 0, 72, 0
2, 100268, Note_on_c, 0, 71, 91
2, 100276, Note_on_c, 0, 77, 0
2, 100277, Note_on_c, 0, 62, 86
2, 100278, Note_on_c, 0, 53, 74
2, 100312, Note_on_c, 0, 77, 86
2, 100317, Note_on_c, 0, 71, 0
2, 100336, Control_c, 0, 64, 63
2, 100373, Note_on_c, 0, 77, 0
2, 100380, Note_on_c, 0, 69, 82
2, 100397, Control_c, 0, 64, 127
2, 100423, Note_on_c, 0, 77, 73
2, 100437, Note_on_c, 0, 53, 0
2, 100437, Note_on_c, 0, 69, 0
2, 100450, Note_on_c, 0, 77, 0
2, 100479, Note_on_c, 0, 52, 84
2, 100504, Note_on_c, 0, 68, 96
2, 100534, Note_on_c, 0, 62, 0
2, 100565, Note_on_c, 0, 71, 82
2, 100567, Note_on_c, 0, 68, 0
2, 100614, Note_on_c, 0, 65, 86
2, 100627, Note_on_c, 0, 71, 0
2, 100656, Note_on_c, 0, 71, 82
2, 100663, Note_on_c, 0, 65, 0
2, 100709, Note_on_c, 0, 64, 93
2, 100718, Note_on_c, 0, 71, 0
2, 100720, Note_on_c, 0, 56, 71
2, 100721, Note_on_c, 0, 59, 81
2, 100731, Control_c, 0, 64, 63
2, 100744, Control_c, 0, 64, 0
2, 100763, Note_on_c, 0, 64, 0
2, 100772, Note_on_c, 0, 71, 87
2, 100783, Control_c, 0, 64, 63
2, 100811, Control_c, 0, 64, 127
2, 100825, Note_on_c, 0, 62, 81
2, 100831, Note_on_c, 0, 71, 0
2, 100874, Note_on_c, 0, 62, 0
2, 100883, Note_on_c, 0, 71, 84
2, 100911, Note_on_c, 0, 59, 0
2, 100915, Note_on_c, 0, 52, 0
2, 100927, Note_on_c, 0, 71, 0
2, 100938, Note_on_c, 0, 56, 0
2, 100938, Note_on_c, 0, 57, 65
2, 100953, Note_on_c, 0, 60, 88
2, 100960, Control_c, 0, 64, 63
2, 100971, Control_c, 0, 64, 0
2, 100976, Note_on_c, 0, 60, 0
2, 101001, Note_on_c, 0, 72, 84
2, 101053, Note_on_c, 0, 71, 97
2, 101054, Note_on_c, 0, 72, 0
2, 101067, Note_on_c, 0, 57, 0
2, 101100, Note_on_c, 0, 72, 99
2, 101108, Control_c, 0, 64, 63
2, 101117, Note_on_c, 0, 71, 0
2, 101132, Control_c, 0, 64, 127
2, 101152, Note_on_c, 0, 74, 99
2, 101165, Note_on_c, 0, 72, 0
2, 101165, Note_on_c, 0, 52, 86
2, 101171, Note_on_c, 0, 45, 72
2, 101214, Note_on_c, 0, 72, 90
2, 101242, Note_on_c, 0, 74, 0
2, 101264, Note_on_c, 0, 71, 96
2, 101293, Note_on_c, 0, 72, 0
2, 101318, Note_on_c, 0, 69, 96
2, 101320, Note_on_c, 0, 71, 0
2, 101344, Control_c, 0, 64, 63
2, 101358, Note_on_c, 0, 45, 0
2, 101358, Control_c, 0, 64, 0
2, 101366, Note_on_c, 0, 47, 84
2, 101367, Note_on_c, 0, 68, 107
2, 101377, Note_on_c, 0, 69, 0
2, 101410, Note_on_c, 0, 68, 0
2, 101423, Note_on_c, 0, 74, 100
2, 101478, Note_on_c, 0, 73, 113
2, 101492, Note_on_c, 0, 52, 0
2, 101494, Note_on_c, 0, 74, 0
2, 101529, Note_on_c, 0, 74, 94
2, 101541, Note_on_c, 0, 47, 0
2, 101553, Note_on_c, 0, 73, 0
2, 101581, Note_on_c, 0, 76, 99
2, 101588, Note_on_c, 0, 56, 106
2, 101593, Note_on_c, 0, 50, 74
2, 101596, Note_on_c, 0, 52, 77
2, 101598, Note_on_c, 0, 74, 0
2, 101644, Note_on_c, 0, 74, 98
2, 101665, Control_c, 0, 64, 63
2, 101671, Control_c, 0, 64, 127
2, 101674, Note_on_c, 0, 76, 0
2, 101699, Note_on_c, 0, 72, 101
2, 101700, Note_on_c, 0, 52, 0
2, 101720, Note_on_c, 0, 74, 0
2, 101731, Note_on_c, 0, 56, 0
2, 101737, Note_on_c, 0, 50, 0
2, 101745, Note_on_c, 0, 71, 102
2, 101760, Note_on_c, 0, 72, 0
2, 101800, Note_on_c, 0, 71, 0
2, 101803, Note_on_c, 0, 69, 97
2, 101814, Note_on_c, 0, 57, 96
2, 101814, Note_on_c, 0, 48, 89
2, 101815, Note_on_c, 0, 52, 92
2, 101816, Control_c, 0, 64, 63
2, 101822, Control_c, 0, 64, 0
2, 101850, Note_on_c, 0, 69, 0
2, 101858, Note_on_c, 0, 71, 102
2, 101914, Note_on_c, 0, 72, 98
2, 101921, Note_on_c, 0, 71, 0
2, 101969, Note_on_c, 0, 71, 87
2, 101975, Note_on_c, 0, 72, 0
2, 101991, Control_c, 0, 64, 63
2, 101993, Control_c, 0, 64, 127
2, 102011, Note_on_c, 0, 71, 0
2, 102015, Note_on_c, 0, 72, 97
2, 102048, Note_on_c, 0, 57, 0
2, 102070, Control_c, 0, 64, 63
2, 102071, Note_on_c, 0, 52, 0
2, 102075, Note_on_c, 0, 72, 0
2, 102075, Control_c, 0, 64, 0
2, 102076, Note_on_c, 0, 75, 108
2, 102077, Note_on_c, 0, 48, 0
2, 102124, Note_on_c, 0, 76, 96
2, 102125, Note_on_c, 0, 75, 0
2, 102188, Note_on_c, 0, 75, 107
2, 102194, Note_on_c, 0, 76, 0
2, 102212, Control_c, 0, 64, 63
2, 102212, Control_c, 0, 64, 127
2, 102229, Note_on_c, 0, 75, 0
2, 102243, Note_on_c, 0, 76, 92
2, 102280, Control_c, 0, 64, 63
2, 102285, Control_c, 0, 64, 0
2, 102293, Note_on_c, 0, 80, 106
2, 102295, Note_on_c, 0, 76, 0
2, 102344, Note_on_c, 0, 81, 94
2, 102356, Note_on_c, 0, 80, 0
2, 102391, Note_on_c, 0, 80, 101
2, 102415, Note_on_c, 0, 81, 0
2, 102450, Note_on_c, 0, 81, 103
2, 102457, Note_on_c, 0, 57, 103
2, 102457, Note_on_c, 0, 52, 108
2, 102460, Note_on_c, 0, 80, 0
2, 102461, Note_on_c, 0, 49, 101
2, 102461, Control_c, 0, 64, 127
2, 102514, Note_on_c, 0, 79, 102
2, 102544, Note_on_c, 0, 81, 0
2, 102567, Note_on_c, 0, 77, 103
2, 102594, Note_on_c, 0, 79, 0
2, 102609, Note_on_c, 0, 52, 0
2, 102620, Note_on_c, 0, 76, 94
2, 102625, Note_on_c, 0, 49, 0
2, 102630, Note_on_c, 0, 77, 0
2, 102639, Note_on_c, 0, 57, 0
2, 102673, Control_c, 0, 64, 63
2, 102677, Note_on_c, 0, 76, 0
2, 102677, Control_c, 0, 64, 0
2, 102686, Note_on_c, 0, 50, 117
2, 102690, Note_on_c, 0, 77, 104
2, 102716, Control_c, 0, 64, 63
2, 102725, Control_c, 0, 64, 127
2, 102737, Note_on_c, 0, 57, 79
2, 102742, Note_on_c, 0, 79, 101
2, 102762, Note_on_c, 0, 50, 0
2, 102767, Note_on_c, 0, 77, 0
2, 102799, Note_on_c, 0, 57, 0
2, 102800, Note_on_c, 0, 53, 84
2, 102807, Note_on_c, 0, 81, 97
2, 102824, Note_on_c, 0, 79, 0
2, 102831, Note_on_c, 0, 53, 0
2, 102836, Note_on_c, 0, 57, 81
2, 102860, Note_on_c, 0, 77, 99
2, 102871, Note_on_c, 0, 81, 0
2, 102876, Control_c, 0, 64, 63
2, 102885, Control_c, 0, 64, 0
2, 102889, Note_on_c, 0, 57, 0
2, 102895, Note_on_c, 0, 50, 114
2, 102897, Control_c, 0, 64, 63
2, 102911, Note_on_c, 0, 74, 92
2, 102913, Note_on_c, 0, 77, 0
2, 102914, Control_c, 0, 64, 127
2, 102936, Note_on_c, 0, 57, 85
2, 102946, Note_on_c, 0, 50, 0
2, 102959, Note_on_c, 0, 76, 100
2, 102970, Note_on_c, 0, 74, 0
2, 102998, Note_on_c, 0, 57, 0
2, 102998, Note_on_c, 0, 53, 82
2, 103012, Note_on_c, 0, 77, 104
2, 103028, Note_on_c, 0, 76, 0
2, 103038, Note_on_c, 0, 57, 67
2, 103041, Note_on_c, 0, 53, 0
2, 103060, Note_on_c, 0, 77, 0
2, 103064, Note_on_c, 0, 74, 91
2, 103099, Note_on_c, 0, 57, 0
2, 103100, Control_c, 0, 64, 63
2, 103103, Note_on_c, 0, 74, 0
2, 103111, Note_on_c, 0, 50, 101
2, 103125, Note_on_c, 0, 71, 100
2, 103151, Control_c, 0, 64, 127
2, 103156, Note_on_c, 0, 59, 85
2, 103177, Note_on_c, 0, 72, 98
2, 103179, Note_on_c, 0, 50, 0
2, 103197, Note_on_c, 0, 71, 0
2, 103221, Note_on_c, 0, 59, 0
2, 103223, Note_on_c, 0, 53, 89
2, 103232, Note_on_c, 0, 74, 90
2, 103247, Note_on_c, 0, 72, 0
2, 103266, Note_on_c, 0, 59, 74
2, 103270, Note_on_c, 0, 53, 0
2, 103272, Note_on_c, 0, 71, 99
2, 103281, Note_on_c, 0, 74, 0
2, 103298, Control_c, 0, 64, 63
2, 103313, Control_c, 0, 64, 0
2, 103325, Note_on_c, 0, 71, 0
2, 103326, Note_on_c, 0, 76, 107
2, 103327, Note_on_c, 0, 50, 107
2, 103330, Note_on_c, 0, 59, 0
2, 103340, Control_c, 0, 64, 63
2, 103364, Control_c, 0, 64, 127
2, 103373, Note_on_c, 0, 59, 77
2, 103386, Note_on_c, 0, 77, 107
2, 103401, Note_on_c, 0, 50, 0
2, 103404, Note_on_c, 0, 76, 0
2, 103427, Control_c, 0, 64, 63
2, 103433, Note_on_c, 0, 53, 88
2, 103435, Note_on_c, 0, 59, 0
2, 103437, Control_c, 0, 64, 0
2, 103441, Note_on_c, 0, 74, 98
2, 103464, Note_on_c, 0, 77, 0
2, 103476, Note_on_c, 0, 59, 68
2, 103483, Note_on_c, 0, 53, 0
2, 103490, Note_on_c, 0, 71, 97
2, 103493, Note_on_c, 0, 74, 0
2, 103534, Note_on_c, 0, 59, 0
2, 103538, Control_c, 0, 64, 63
2, 103542, Note_on_c, 0, 52, 102
2, 103544, Note_on_c, 0, 75, 112
2, 103544, Control_c, 0, 64, 127
2, 103545, Note_on_c, 0, 71, 0
2, 103588, Note_on_c, 0, 60, 92
2, 103590, Note_on_c, 0, 76, 89
2, 103604, Note_on_c, 0, 52, 0
2, 103611, Note_on_c, 0, 75, 0
2, 103636, Note_on_c, 0, 77, 99
2, 103647, Note_on_c, 0, 60, 0
2, 103649, Note_on_c, 0, 76, 0
2, 103651, Note_on_c, 0, 57, 78
2, 103693, Note_on_c, 0, 57, 0
2, 103693, Note_on_c, 0, 60, 78
2, 103696, Note_on_c, 0, 76, 97
2, 103721, Note_on_c, 0, 77, 0
2, 103730, Control_c, 0, 64, 63
2, 103741, Control_c, 0, 64, 0
2, 103747, Note_on_c, 0, 60, 0
2, 103748, Note_on_c, 0, 74, 101
2, 103759, Note_on_c, 0, 52, 97
2, 103768, Note_on_c, 0, 76, 0
2, 103771, Control_c, 0, 64, 63
2, 103793, Control_c, 0, 64, 127
2, 103800, Note_on_c, 0, 60, 82
2, 103805, Note_on_c, 0, 72, 101
2, 103813, Note_on_c, 0, 74, 0
2, 103820, Note_on_c, 0, 52, 0
2, 103853, Note_on_c, 0, 72, 0
2, 103854, Note_on_c, 0, 71, 92
2, 103855, Note_on_c, 0, 60, 0
2, 103864, Note_on_c, 0, 57, 62
2, 103899, Note_on_c, 0, 57, 0
2, 103901, Note_on_c, 0, 60, 80
2, 103906, Note_on_c, 0, 69, 94
2, 103913, Note_on_c, 0, 71, 0
2, 103932, Control_c, 0, 64, 63
2, 103940, Note_on_c, 0, 69, 0
2, 103941, Control_c, 0, 64, 0
2, 103955, Note_on_c, 0, 60, 0
2, 103968, Note_on_c, 0, 52, 91
2, 103970, Note_on_c, 0, 71, 109
2, 103993, Control_c, 0, 64, 63
2, 104008, Control_c, 0, 64, 127
2, 104018, Note_on_c, 0, 71, 0
2, 104018, Note_on_c, 0, 62, 65
2, 104021, Note_on_c, 0, 52, 0
2, 104031, Note_on_c, 0, 72, 84
2, 104056, Note_on_c, 0, 72, 0
2, 104074, Note_on_c, 0, 71, 76
2, 104075, Note_on_c, 0, 62, 0
2, 104085, Note_on_c, 0, 56, 73
2, 104104, Note_on_c, 0, 72, 89
2, 104106, Note_on_c, 0, 71, 0
2, 104113, Note_on_c, 0, 56, 0
2, 104121, Note_on_c, 0, 62, 78
2, 104129, Note_on_c, 0, 72, 0
2, 104140, Note_on_c, 0, 71, 76
2, 104166, Note_on_c, 0, 72, 89
2, 104171, Note_on_c, 0, 71, 0
2, 104184, Note_on_c, 0, 62, 0
2, 104188, Note_on_c, 0, 52, 84
2, 104196, Note_on_c, 0, 72, 0
2, 104200, Note_on_c, 0, 71, 88
2, 104229, Note_on_c, 0, 72, 83
2, 104229, Note_on_c, 0, 62, 65
2, 104235, Note_on_c, 0, 71, 0
2, 104253, Note_on_c, 0, 52, 0
2, 104272, Note_on_c, 0, 71, 90
2, 104276, Note_on_c, 0, 72, 0
2, 104281, Note_on_c, 0, 56, 67
2, 104288, Note_on_c, 0, 62, 0
2, 104318, Note_on_c, 0, 71, 0
2, 104319, Note_on_c, 0, 69, 91
2, 104329, Note_on_c, 0, 56, 0
2, 104339, Note_on_c, 0, 62, 60
2, 104358, Note_on_c, 0, 71, 89
2, 104369, Note_on_c, 0, 69, 0
2, 104387, Note_on_c, 0, 62, 0
2, 104387, Control_c, 0, 64, 63
2, 104399, Control_c, 0, 64, 0
2, 104401, Note_on_c, 0, 71, 0
2, 104443, Note_on_c, 0, 57, 51
2, 104447, Note_on_c, 0, 60, 50
2, 104519, Note_on_c, 0, 81, 68
2, 104576, Note_on_c, 0, 79, 61
2, 104592, Note_on_c, 0, 81, 0
2, 104624, Note_on_c, 0, 77, 76
2, 104637, Note_on_c, 0, 79, 0
2, 104675, Note_on_c, 0, 77, 0
2, 104676, Note_on_c, 0, 76, 74
2, 104680, Note_on_c, 0, 60, 0
2, 104683, Note_on_c, 0, 57, 0
2, 104724, Note_on_c, 0, 76, 0
2, 104728, Note_on_c, 0, 77, 75
2, 104789, Note_on_c, 0, 77, 0
2, 104789, Note_on_c, 0, 75, 85
2, 104831, Note_on_c, 0, 77, 77
2, 104836, Note_on_c, 0, 75, 0
2, 104893, Note_on_c, 0, 76, 72
2, 104901, Note_on_c, 0, 77, 0
2, 104945, Note_on_c, 0, 77, 78
2, 104958, Note_on_c, 0, 76, 0
2, 105005, Note_on_c, 0, 77, 0
2, 105008, Note_on_c, 0, 75, 81
2, 105061, Note_on_c, 0, 75, 0
2, 105062, Note_on_c, 0, 77, 77
2, 105104, Note_on_c, 0, 68, 81
2, 105116, Note_on_c, 0, 76, 80
2, 105125, Note_on_c, 0, 77, 0
2, 105128, Note_on_c, 0, 68, 0
2, 105158, Note_on_c, 0, 77, 76
2, 105174, Note_on_c, 0, 76, 0
2, 105220, Note_on_c, 0, 77, 0
2, 105222, Note_on_c, 0, 74, 82
2, 105224, Note_on_c, 0, 64, 78
2, 105273, Note_on_c, 0, 76, 65
2, 105277, Note_on_c, 0, 64, 0
2, 105278, Note_on_c, 0, 74, 0
2, 105322, Note_on_c, 0, 76, 0
2, 105338, Note_on_c, 0, 69, 65
2, 105341, Note_on_c, 0, 72, 57
2, 105386, Note_on_c, 0, 72, 0
2, 105396, Note_on_c, 0, 81, 77
2, 105461, Note_on_c, 0, 79, 61
2, 105471, Note_on_c, 0, 81, 0
2, 105508, Note_on_c, 0, 77, 77
2, 105521, Note_on_c, 0, 79, 0
2, 105564, Note_on_c, 0, 77, 0
2, 105565, Note_on_c, 0, 76, 71
2, 105586, Note_on_c, 0, 69, 0
2, 105611, Note_on_c, 0, 76, 0
2, 105613, Note_on_c, 0, 77, 84
2, 105668, Note_on_c, 0, 77, 0
2, 105676, Note_on_c, 0, 75, 88
2, 105723, Note_on_c, 0, 77, 82
2, 105729, Note_on_c, 0, 75, 0
2, 105774, Note_on_c, 0, 76, 79
2, 105793, Note_on_c, 0, 77, 0
2, 105825, Note_on_c, 0, 77, 79
2, 105841, Note_on_c, 0, 76, 0
2, 105890, Note_on_c, 0, 77, 0
2, 105892, Note_on_c, 0, 75, 83
2, 105929, Note_on_c, 0, 77, 65
2, 105943, Note_on_c, 0, 75, 0
2, 105995, Note_on_c, 0, 76, 70
2, 106000, Note_on_c, 0, 68, 83
2, 106005, Note_on_c, 0, 77, 0
2, 106034, Note_on_c, 0, 68, 0
2, 106038, Note_on_c, 0, 77, 82
2, 106055, Note_on_c, 0, 76, 0
2, 106109, Note_on_c, 0, 77, 0
2, 106113, Note_on_c, 0, 64, 61
2, 106116, Note_on_c, 0, 74, 72
2, 106158, Note_on_c, 0, 64, 0
2, 106161, Note_on_c, 0, 74, 0
2, 106161, Note_on_c, 0, 76, 71
2, 106216, Note_on_c, 0, 76, 0
2, 106224, Note_on_c, 0, 69, 68
2, 106228, Note_on_c, 0, 72, 73
2, 106280, Note_on_c, 0, 74, 78
2, 106287, Note_on_c, 0, 72, 0
2, 106330, Note_on_c, 0, 76, 81
2, 106333, Note_on_c, 0, 74, 0
2, 106383, Note_on_c, 0, 74, 84
2, 106386, Control_c, 0, 64, 63
2, 106399, Control_c, 0, 64, 127
2, 106401, Note_on_c, 0, 76, 0
2, 106407, Note_on_c, 0, 69, 0
2, 106431, Note_on_c, 0, 72, 89
2, 106432, Note_on_c, 0, 74, 0
2, 106476, Note_on_c, 0, 72, 0
2, 106491, Note_on_c, 0, 71, 89
2, 106538, Note_on_c, 0, 69, 78
2, 106547, Note_on_c, 0, 71, 0
2, 106559, Control_c, 0, 64, 63
2, 106564, Control_c, 0, 64, 0
2, 106590, Note_on_c, 0, 68, 89
2, 106593, Note_on_c, 0, 69, 0
2, 106653, Note_on_c, 0, 69, 84
2, 106655, Note_on_c, 0, 52, 92
2, 106656, Note_on_c, 0, 57, 85
2, 106658, Note_on_c, 0, 48, 78
2, 106659, Note_on_c, 0, 68, 0
2, 106706, Note_on_c, 0, 71, 85
2, 106732, Note_on_c, 0, 69, 0
2, 106749, Control_c, 0, 64, 63
2, 106753, Control_c, 0, 64, 127
2, 106771, Note_on_c, 0, 71, 0
2, 106772, Note_on_c, 0, 72, 84
2, 106827, Note_on_c, 0, 71, 88
2, 106854, Note_on_c, 0, 72, 0
2, 106880, Note_on_c, 0, 69, 88
2, 106901, Note_on_c, 0, 71, 0
2, 106933, Note_on_c, 0, 67, 91
2, 106950, Note_on_c, 0, 69, 0
2, 106988, Note_on_c, 0, 67, 0
2, 106988, Note_on_c, 0, 65, 89
2, 107000, Note_on_c, 0, 57, 0
2, 107028, Note_on_c, 0, 52, 0
2, 107033, Note_on_c, 0, 65, 0
2, 107045, Note_on_c, 0, 64, 89
2, 107080, Note_on_c, 0, 48, 0
2, 107091, Control_c, 0, 64, 63
2, 107103, Note_on_c, 0, 64, 0
2, 107112, Note_on_c, 0, 53, 66
2, 107114, Note_on_c, 0, 62, 93
2, 107116, Note_on_c, 0, 50, 61
2, 107131, Control_c, 0, 64, 63
2, 107135, Control_c, 0, 64, 127
2, 107169, Note_on_c, 0, 58, 96
2, 107173, Note_on_c, 0, 62, 0
2, 107207, Note_on_c, 0, 58, 0
2, 107230, Note_on_c, 0, 65, 77
2, 107250, Note_on_c, 0, 65, 0
2, 107276, Note_on_c, 0, 62, 90
2, 107326, Note_on_c, 0, 62, 0
2, 107333, Note_on_c, 0, 70, 109
2, 107372, Note_on_c, 0, 70, 0
2, 107391, Note_on_c, 0, 65, 85
2, 107416, Note_on_c, 0, 50, 0
2, 107423, Note_on_c, 0, 53, 0
2, 107437, Note_on_c, 0, 74, 101
2, 107439, Note_on_c, 0, 65, 0
2, 107489, Note_on_c, 0, 70, 114
2, 107499, Note_on_c, 0, 74, 0
2, 107538, Note_on_c, 0, 70, 0
2, 107538, Note_on_c, 0, 77, 111
2, 107553, Note_on_c, 0, 59, 103
2, 107554, Note_on_c, 0, 56, 99
2, 107556, Note_on_c, 0, 53, 93
2, 107558, Note_on_c, 0, 50, 84
2, 107578, Note_on_c, 0, 77, 0
2, 107602, Note_on_c, 0, 74, 96
2, 107612, Control_c, 0, 64, 63
2, 107619, Control_c, 0, 64, 127
2, 107648, Note_on_c, 0, 74, 0
2, 107660, Note_on_c, 0, 80, 103
2, 107695, Note_on_c, 0, 80, 0
2, 107709, Note_on_c, 0, 77, 97
2, 107759, Note_on_c, 0, 77, 0
2, 107764, Note_on_c, 0, 83, 100
2, 107817, Note_on_c, 0, 80, 115
2, 107824, Note_on_c, 0, 56, 0
2, 107825, Note_on_c, 0, 50, 0
2, 107828, Note_on_c, 0, 59, 0
2, 107830, Note_on_c, 0, 53, 0
2, 107836, Note_on_c, 0, 83, 0
2, 107865, Note_on_c, 0, 80, 0
2, 107869, Note_on_c, 0, 86, 113
2, 107915, Note_on_c, 0, 83, 108
2, 107950, Note_on_c, 0, 86, 0
2, 107981, Note_on_c, 0, 88, 114
2, 107986, Note_on_c, 0, 57, 109
2, 107989, Note_on_c, 0, 52, 103
2, 107990, Note_on_c, 0, 48, 102
2, 107997, Note_on_c, 0, 83, 0
2, 108016, Control_c, 0, 64, 63
2, 108026, Control_c, 0, 64, 0
2, 108044, Note_on_c, 0, 84, 98
2, 108052, Note_on_c, 0, 88, 0
2, 108080, Control_c, 0, 64, 63
2, 108082, Note_on_c, 0, 52, 0
2, 108091, Control_c, 0, 64, 127
2, 108095, Note_on_c, 0, 81, 103
2, 108105, Note_on_c, 0, 84, 0
2, 108149, Note_on_c, 0, 76, 91
2, 108152, Note_on_c, 0, 81, 0
2, 108164, Note_on_c, 0, 57, 0
2, 108201, Note_on_c, 0, 76, 0
2, 108218, Note_on_c, 0, 79, 100
2, 108220, Note_on_c, 0, 57, 108
2, 108225, Note_on_c, 0, 50, 97
2, 108246, Note_on_c, 0, 48, 0
2, 108281, Note_on_c, 0, 77, 106
2, 108286, Control_c, 0, 64, 63
2, 108300, Control_c, 0, 64, 0
2, 108306, Note_on_c, 0, 79, 0
2, 108331, Note_on_c, 0, 76, 109
2, 108356, Note_on_c, 0, 77, 0
2, 108369, Note_on_c, 0, 74, 103
2, 108392, Note_on_c, 0, 76, 0
2, 108425, Note_on_c, 0, 52, 92
2, 108426, Note_on_c, 0, 74, 0
2, 108436, Note_on_c, 0, 72, 114
2, 108450, Note_on_c, 0, 50, 0
2, 108476, Control_c, 0, 64, 63
2, 108479, Control_c, 0, 64, 127
2, 108589, Note_on_c, 0, 72, 0
2, 108657, Note_on_c, 0, 56, 78
2, 108665, Note_on_c, 0, 71, 109
2, 108676, Note_on_c, 0, 57, 0
2, 108689, Note_on_c, 0, 72, 88
2, 108701, Note_on_c, 0, 71, 0
2, 108731, Note_on_c, 0, 72, 0
2, 108731, Note_on_c, 0, 71, 91
2, 108754, Note_on_c, 0, 72, 93
2, 108761, Note_on_c, 0, 52, 0
2, 108764, Note_on_c, 0, 71, 0
2, 108773, Note_on_c, 0, 56, 0
2, 108786, Note_on_c, 0, 72, 0
2, 108787, Note_on_c, 0, 71, 85
2, 108819, Note_on_c, 0, 69, 94
2, 108825, Note_on_c, 0, 71, 0
2, 108842, Control_c, 0, 64, 63
2, 108851, Note_on_c, 0, 71, 84
2, 108854, Note_on_c, 0, 69, 0
2, 108864, Control_c, 0, 64, 127
2, 108877, Note_on_c, 0, 69, 103
2, 108889, Note_on_c, 0, 71, 0
2, 108912, Note_on_c, 0, 69, 0
2, 108935, Note_on_c, 0, 69, 91
2, 108946, Control_c, 0, 64, 63
2, 108969, Control_c, 0, 64, 0
2, 108983, Note_on_c, 0, 67, 84
2, 108995, Note_on_c, 0, 69, 0
2, 109033, Note_on_c, 0, 65, 78
2, 109045, Note_on_c, 0, 67, 0
2, 109082, Note_on_c, 0, 64, 81
2, 109097, Note_on_c, 0, 65, 0
2, 109150, Note_on_c, 0, 65, 68
2, 109153, Note_on_c, 0, 64, 0
2, 109207, Note_on_c, 0, 63, 88
2, 109217, Note_on_c, 0, 65, 0
2, 109264, Note_on_c, 0, 65, 72
2, 109269, Note_on_c, 0, 63, 0
2, 109323, Note_on_c, 0, 64, 82
2, 109332, Note_on_c, 0, 65, 0
2, 109370, Note_on_c, 0, 65, 76
2, 109380, Note_on_c, 0, 64, 0
2, 109424, Note_on_c, 0, 63, 94
2, 109439, Note_on_c, 0, 65, 0
2, 109478, Note_on_c, 0, 65, 71
2, 109484, Note_on_c, 0, 63, 0
2, 109529, Note_on_c, 0, 80, 106
2, 109531, Note_on_c, 0, 71, 99
2, 109539, Note_on_c, 0, 64, 83
2, 109546, Note_on_c, 0, 65, 0
2, 109578, Note_on_c, 0, 65, 79
2, 109581, Note_on_c, 0, 80, 0
2, 109583, Note_on_c, 0, 64, 0
2, 109626, Note_on_c, 0, 71, 0
2, 109631, Note_on_c, 0, 65, 0
2, 109632, Note_on_c, 0, 62, 94
2, 109645, Note_on_c, 0, 76, 107
2, 109680, Note_on_c, 0, 76, 0
2, 109683, Note_on_c, 0, 62, 0
2, 109689, Note_on_c, 0, 64, 78
2, 109747, Note_on_c, 0, 64, 0
2, 109751, Note_on_c, 0, 81, 106
2, 109761, Note_on_c, 0, 72, 84
2, 109761, Note_on_c, 0, 60, 85
2, 109780, Control_c, 0, 64, 63
2, 109804, Note_on_c, 0, 60, 0
2, 109831, Note_on_c, 0, 69, 70
2, 109881, Note_on_c, 0, 67, 88
2, 109885, Note_on_c, 0, 69, 0
2, 109902, Control_c, 0, 64, 0
2, 109921, Note_on_c, 0, 65, 89
2, 109937, Note_on_c, 0, 67, 0
2, 109969, Note_on_c, 0, 64, 85
2, 109973, Note_on_c, 0, 72, 0
2, 109991, Note_on_c, 0, 81, 0
2, 109991, Note_on_c, 0, 65, 0
2, 110022, Note_on_c, 0, 65, 84
2, 110025, Note_on_c, 0, 64, 0
2, 110086, Note_on_c, 0, 63, 93
2, 110087, Note_on_c, 0, 65, 0
2, 110126, Note_on_c, 0, 65, 73
2, 110133, Note_on_c, 0, 63, 0
2, 110196, Note_on_c, 0, 65, 0
2, 110196, Note_on_c, 0, 64, 81
2, 110249, Note_on_c, 0, 64, 0
2, 110249, Note_on_c, 0, 65, 79
2, 110300, Note_on_c, 0, 63, 94
2, 110308, Note_on_c, 0, 65, 0
2, 110350, Note_on_c, 0, 65, 65
2, 110352, Note_on_c, 0, 63, 0
2, 110414, Note_on_c, 0, 65, 0
2, 110415, Note_on_c, 0, 64, 77
2, 110428, Note_on_c, 0, 80, 103
2, 110431, Note_on_c, 0, 71, 91
2, 110454, Note_on_c, 0, 65, 65
2, 110457, Note_on_c, 0, 71, 0
2, 110458, Note_on_c, 0, 64, 0
2, 110470, Note_on_c, 0, 80, 0
2, 110519, Note_on_c, 0, 65, 0
2, 110519, Note_on_c, 0, 62, 77
2, 110537, Note_on_c, 0, 76, 85
2, 110562, Note_on_c, 0, 76, 0
2, 110566, Note_on_c, 0, 62, 0
2, 110573, Note_on_c, 0, 64, 72
2, 110639, Note_on_c, 0, 64, 0
2, 110645, Note_on_c, 0, 60, 75
2, 110654, Note_on_c, 0, 81, 102
2, 110662, Note_on_c, 0, 72, 89
2, 110678, Control_c, 0, 64, 63
2, 110686, Note_on_c, 0, 60, 0
2, 110690, Control_c, 0, 64, 127
2, 110706, Note_on_c, 0, 72, 0
2, 110708, Note_on_c, 0, 81, 0
2, 110719, Note_on_c, 0, 62, 66
2, 110751, Note_on_c, 0, 62, 0
2, 110755, Note_on_c, 0, 59, 84
2, 110799, Note_on_c, 0, 59, 0
2, 110810, Note_on_c, 0, 60, 73
2, 110858, Note_on_c, 0, 60, 0
2, 110863, Note_on_c, 0, 57, 88
2, 110876, Control_c, 0, 64, 63
2, 110878, Note_on_c, 0, 76, 113
2, 110881, Control_c, 0, 64, 0
2, 110896, Note_on_c, 0, 77, 104
2, 110905, Note_on_c, 0, 57, 0
2, 110912, Note_on_c, 0, 76, 0
2, 110915, Note_on_c, 0, 59, 74
2, 110925, Note_on_c, 0, 77, 0
2, 110944, Note_on_c, 0, 76, 68
2, 110968, Note_on_c, 0, 74, 97
2, 110969, Note_on_c, 0, 76, 0
2, 110972, Note_on_c, 0, 55, 76
2, 110977, Note_on_c, 0, 59, 0
2, 111010, Note_on_c, 0, 76, 94
2, 111026, Note_on_c, 0, 74, 0
2, 111026, Note_on_c, 0, 57, 77
2, 111027, Note_on_c, 0, 55, 0
2, 111074, Note_on_c, 0, 76, 0
2, 111081, Note_on_c, 0, 53, 99
2, 111085, Note_on_c, 0, 57, 0
2, 111086, Note_on_c, 0, 81, 120
2, 111094, Control_c, 0, 64, 63
2, 111099, Control_c, 0, 64, 127
2, 111130, Note_on_c, 0, 53, 0
2, 111137, Note_on_c, 0, 55, 90
2, 111188, Note_on_c, 0, 52, 100
2, 111193, Note_on_c, 0, 55, 0
2, 111238, Note_on_c, 0, 53, 97
2, 111240, Note_on_c, 0, 52, 0
2, 111295, Note_on_c, 0, 50, 103
2, 111297, Note_on_c, 0, 53, 0
2, 111309, Note_on_c, 0, 72, 114
2, 111340, Note_on_c, 0, 74, 101
2, 111347, Note_on_c, 0, 50, 0
2, 111349, Note_on_c, 0, 72, 0
2, 111353, Note_on_c, 0, 52, 90
2, 111376, Note_on_c, 0, 72, 94
2, 111386, Note_on_c, 0, 74, 0
2, 111402, Note_on_c, 0, 48, 98
2, 111404, Note_on_c, 0, 52, 0
2, 111411, Note_on_c, 0, 71, 104
2, 111419, Note_on_c, 0, 72, 0
2, 111447, Note_on_c, 0, 72, 61
2, 111452, Note_on_c, 0, 50, 97
2, 111454, Note_on_c, 0, 48, 0
2, 111464, Note_on_c, 0, 71, 0
2, 111490, Note_on_c, 0, 72, 0
2, 111507, Note_on_c, 0, 81, 0
2, 111509, Control_c, 0, 64, 63
2, 111511, Note_on_c, 0, 50, 0
2, 111516, Note_on_c, 0, 47, 113
2, 111523, Note_on_c, 0, 74, 109
2, 111529, Note_on_c, 0, 45, 60
2, 111562, Control_c, 0, 64, 127
2, 111566, Note_on_c, 0, 47, 0
2, 111570, Note_on_c, 0, 48, 99
2, 111573, Note_on_c, 0, 45, 0
2, 111578, Note_on_c, 0, 47, 67
2, 111622, Note_on_c, 0, 47, 0
2, 111625, Note_on_c, 0, 45, 90
2, 111626, Note_on_c, 0, 48, 0
2, 111637, Note_on_c, 0, 43, 66
2, 111667, Note_on_c, 0, 43, 0
2, 111670, Note_on_c, 0, 45, 0
2, 111678, Note_on_c, 0, 45, 57
2, 111738, Note_on_c, 0, 44, 112
2, 111738, Note_on_c, 0, 83, 113
2, 111743, Note_on_c, 0, 45, 0
2, 111755, Control_c, 0, 64, 63
2, 111784, Note_on_c, 0, 45, 75
2, 111785, Note_on_c, 0, 44, 0
2, 111793, Control_c, 0, 64, 127
2, 111834, Note_on_c, 0, 42, 115
2, 111841, Note_on_c, 0, 45, 0
2, 111863, Note_on_c, 0, 74, 0
2, 111889, Note_on_c, 0, 44, 108
2, 111914, Note_on_c, 0, 84, 113
2, 111915, Note_on_c, 0, 42, 0
2, 111931, Control_c, 0, 64, 63
2, 111938, Note_on_c, 0, 83, 0
2, 111951, Note_on_c, 0, 44, 0
2, 111953, Note_on_c, 0, 40, 104
2, 111954, Note_on_c, 0, 86, 121
2, 111956, Control_c, 0, 64, 127
2, 111983, Note_on_c, 0, 84, 0
2, 112011, Note_on_c, 0, 41, 70
2, 112014, Note_on_c, 0, 40, 0
2, 112023, Note_on_c, 0, 86, 0
2, 112050, Note_on_c, 0, 41, 0
2, 112062, Note_on_c, 0, 38, 116
2, 112108, Note_on_c, 0, 40, 98
2, 112112, Note_on_c, 0, 38, 0
2, 112162, Note_on_c, 0, 40, 0
2, 112169, Note_on_c, 0, 36, 109
2, 112182, Note_on_c, 0, 80, 125
2, 112186, Note_on_c, 0, 76, 112
2, 112213, Note_on_c, 0, 36, 0
2, 112217, Note_on_c, 0, 38, 102
2, 112236, Note_on_c, 0, 81, 84
2, 112244, Note_on_c, 0, 80, 0
2, 112269, Note_on_c, 0, 80, 99
2, 112272, Note_on_c, 0, 35, 112
2, 112279, Note_on_c, 0, 38, 0
2, 112293, Note_on_c, 0, 81, 0
2, 112312, Note_on_c, 0, 78, 105
2, 112319, Note_on_c, 0, 80, 0
2, 112319, Note_on_c, 0, 38, 96
2, 112334, Note_on_c, 0, 35, 0
2, 112350, Note_on_c, 0, 80, 94
2, 112354, Note_on_c, 0, 76, 0
2, 112371, Note_on_c, 0, 78, 0
2, 112376, Control_c, 0, 64, 63
2, 112382, Control_c, 0, 64, 0
2, 112386, Note_on_c, 0, 80, 0
2, 112404, Note_on_c, 0, 36, 122
2, 112408, Note_on_c, 0, 81, 114
2, 112411, Note_on_c, 0, 76, 111
2, 112417, Control_c, 0, 64, 63
2, 112421, Note_on_c, 0, 38, 0
2, 112431, Control_c, 0, 64, 127
2, 112445, Note_on_c, 0, 36, 0
2, 112464, Note_on_c, 0, 80, 112
2, 112481, Note_on_c, 0, 81, 0
2, 112493, Note_on_c, 0, 76, 0
2, 112510, Control_c, 0, 64, 63
2, 112514, Control_c, 0, 64, 0
2, 112519, Note_on_c, 0, 81, 107
2, 112537, Note_on_c, 0, 80, 0
2, 112559, Note_on_c, 0, 76, 109
2, 112583, Note_on_c, 0, 81, 0
2, 112608, Note_on_c, 0, 76, 0
2, 112611, Control_c, 0, 64, 63
2, 112616, Control_c, 0, 64, 127
2, 112622, Note_on_c, 0, 38, 127
2, 112625, Note_on_c, 0, 79, 109
2, 112629, Note_on_c, 0, 71, 100
2, 112675, Note_on_c, 0, 38, 0
2, 112679, Note_on_c, 0, 77, 104
2, 112738, Note_on_c, 0, 76, 109
2, 112739, Note_on_c, 0, 79, 0
2, 112775, Note_on_c, 0, 77, 0
2, 112785, Note_on_c, 0, 71, 0
2, 112789, Note_on_c, 0, 74, 72
2, 112803, Note_on_c, 0, 76, 0
2, 112810, Note_on_c, 0, 74, 0
2, 112814, Control_c, 0, 64, 63
2, 112818, Control_c, 0, 64, 0
2, 112843, Note_on_c, 0, 40, 122
2, 112844, Note_on_c, 0, 72, 122
2, 112851, Note_on_c, 0, 69, 107
2, 112880, Control_c, 0, 64, 63
2, 112889, Control_c, 0, 64, 127
2, 112890, Note_on_c, 0, 40, 0
2, 112902, Note_on_c, 0, 74, 107
2, 112930, Note_on_c, 0, 72, 0
2, 112947, Note_on_c, 0, 76, 106
2, 112975, Note_on_c, 0, 74, 0
2, 112997, Note_on_c, 0, 72, 102
2, 113000, Note_on_c, 0, 69, 0
2, 113023, Note_on_c, 0, 76, 0
2, 113034, Control_c, 0, 64, 63
2, 113041, Control_c, 0, 64, 0
2, 113059, Note_on_c, 0, 72, 0
2, 113070, Note_on_c, 0, 40, 125
2, 113070, Note_on_c, 0, 71, 103
2, 113073, Control_c, 0, 64, 63
2, 113080, Note_on_c, 0, 68, 94
2, 113083, Control_c, 0, 64, 127
2, 113131, Note_on_c, 0, 40, 0
2, 113131, Note_on_c, 0, 68, 0
2, 113136, Note_on_c, 0, 72, 100
2, 113163, Note_on_c, 0, 71, 0
2, 113190, Note_on_c, 0, 74, 101
2, 113228, Note_on_c, 0, 72, 0
2, 113245, Note_on_c, 0, 71, 116
2, 113280, Note_on_c, 0, 74, 0
2, 113285, Note_on_c, 0, 71, 0
2, 113326, Control_c, 0, 64, 63
2, 113330, Control_c, 0, 64, 0
2, 113353, Note_on_c, 0, 56, 115
2, 113353, Note_on_c, 0, 59, 121
2, 113355, Note_on_c, 0, 53, 104
2, 113355, Note_on_c, 0, 86, 125
2, 113355, Note_on_c, 0, 50, 107
2, 113385, Control_c, 0, 64, 127
2, 113457, Note_on_c, 0, 89, 108
2, 113479, Note_on_c, 0, 86, 0
2, 113534, Note_on_c, 0, 83, 103
2, 113547, Note_on_c, 0, 89, 0
2, 113576, Note_on_c, 0, 83, 0
2, 113600, Note_on_c, 0, 86, 109
2, 113655, Note_on_c, 0, 86, 0
2, 113669, Note_on_c, 0, 80, 110
2, 113705, Note_on_c, 0, 80, 0
2, 113719, Note_on_c, 0, 83, 102
2, 113770, Note_on_c, 0, 83, 0
2, 113784, Note_on_c, 0, 77, 100
2, 113826, Note_on_c, 0, 77, 0
2, 113837, Note_on_c, 0, 80, 113
2, 113884, Note_on_c, 0, 80, 0
2, 113888, Note_on_c, 0, 74, 98
2, 113926, Note_on_c, 0, 74, 0
2, 113943, Note_on_c, 0, 77, 109
2, 113989, Note_on_c, 0, 71, 109
2, 113997, Note_on_c, 0, 77, 0
2, 114030, Note_on_c, 0, 71, 0
2, 114037, Note_on_c, 0, 74, 103
2, 114073, Note_on_c, 0, 74, 0
2, 114092, Note_on_c, 0, 68, 114
2, 114132, Note_on_c, 0, 68, 0
2, 114136, Note_on_c, 0, 71, 99
2, 114192, Note_on_c, 0, 71, 0
2, 114198, Note_on_c, 0, 65, 99
2, 114209, Note_on_c, 0, 53, 0
2, 114212, Note_on_c, 0, 50, 0
2, 114226, Note_on_c, 0, 56, 0
2, 114246, Note_on_c, 0, 59, 0
2, 114252, Note_on_c, 0, 68, 118
2, 114258, Note_on_c, 0, 65, 0
2, 114284, Note_on_c, 0, 68, 0
2, 114413, Note_on_c, 0, 60, 117
2, 114442, Note_on_c, 0, 78, 125
2, 114443, Note_on_c, 0, 84, 122
2, 114444, Note_on_c, 0, 72, 116
2, 114445, Note_on_c, 0, 81, 106
2, 114446, Note_on_c, 0, 75, 114
2, 114463, Note_on_c, 0, 81, 0
2, 114471, Control_c, 0, 64, 63
2, 114477, Control_c, 0, 64, 0
2, 114514, Control_c, 0, 64, 63
2, 114527, Control_c, 0, 64, 127
2, 114541, Note_on_c, 0, 81, 65
2, 114588, Note_on_c, 0, 63, 104
2, 114612, Note_on_c, 0, 60, 0
2, 114655, Note_on_c, 0, 63, 0
2, 114655, Note_on_c, 0, 57, 96
2, 114712, Note_on_c, 0, 60, 97
2, 114715, Note_on_c, 0, 57, 0
2, 114761, Note_on_c, 0, 54, 114
2, 114763, Note_on_c, 0, 60, 0
2, 114799, Note_on_c, 0, 54, 0
2, 114811, Note_on_c, 0, 57, 96
2, 114854, Note_on_c, 0, 51, 116
2, 114864, Note_on_c, 0, 57, 0
2, 114897, Note_on_c, 0, 54, 107
2, 114907, Note_on_c, 0, 51, 0
2, 114953, Note_on_c, 0, 48, 107
2, 114977, Note_on_c, 0, 54, 0
2, 114998, Note_on_c, 0, 51, 105
2, 115026, Note_on_c, 0, 48, 0
2, 115043, Note_on_c, 0, 51, 0
2, 115068, Note_on_c, 0, 45, 98
2, 115120, Note_on_c, 0, 45, 0
2, 115128, Note_on_c, 0, 48, 103
2, 115178, Note_on_c, 0, 42, 114
2, 115191, Note_on_c, 0, 48, 0
2, 115229, Note_on_c, 0, 42, 0
2, 115229, Note_on_c, 0, 45, 99
2, 115276, Note_on_c, 0, 39, 118
2, 115286, Note_on_c, 0, 84, 0
2, 115296, Note_on_c, 0, 45, 0
2, 115300, Note_on_c, 0, 78, 0
2, 115300, Note_on_c, 0, 81, 0
2, 115320, Note_on_c, 0, 75, 0
2, 115325, Note_on_c, 0, 42, 112
2, 115326, Note_on_c, 0, 72, 0
2, 115352, Note_on_c, 0, 39, 0
2, 115384, Note_on_c, 0, 42, 0
2, 115385, Note_on_c, 0, 40, 122
2, 115465, Note_on_c, 0, 81, 112
2, 115480, Control_c, 0, 64, 63
2, 115486, Control_c, 0, 64, 0
2, 115509, Note_on_c, 0, 76, 108
2, 115531, Note_on_c, 0, 81, 0
2, 115552, Control_c, 0, 64, 63
2, 115561, Control_c, 0, 64, 127
2, 115564, Note_on_c, 0, 72, 108
2, 115582, Note_on_c, 0, 76, 0
2, 115597, Note_on_c, 0, 40, 0
2, 115613, Note_on_c, 0, 69, 91
2, 115614, Note_on_c, 0, 72, 0
2, 115648, Note_on_c, 0, 69, 0
2, 115667, Note_on_c, 0, 64, 106
2, 115691, Note_on_c, 0, 52, 98
2, 115712, Note_on_c, 0, 60, 111
2, 115721, Note_on_c, 0, 64, 0
2, 115733, Note_on_c, 0, 48, 100
2, 115751, Note_on_c, 0, 52, 0
2, 115758, Note_on_c, 0, 60, 0
2, 115762, Note_on_c, 0, 57, 104
2, 115776, Note_on_c, 0, 57, 0
2, 115776, Note_on_c, 0, 45, 100
2, 115805, Note_on_c, 0, 48, 0
2, 115829, Note_on_c, 0, 64, 117
2, 115831, Note_on_c, 0, 40, 121
2, 115844, Control_c, 0, 64, 63
2, 115848, Control_c, 0, 64, 0
2, 115856, Note_on_c, 0, 45, 0
2, 115876, Note_on_c, 0, 64, 0
2, 115882, Note_on_c, 0, 40, 0
2, 116098, Note_on_c, 0, 76, 108
2, 116101, Note_on_c, 0, 71, 104
2, 116101, Note_on_c, 0, 68, 108
2, 116102, Note_on_c, 0, 52, 117
2, 116102, Note_on_c, 0, 64, 108
2, 116125, Control_c, 0, 64, 127
2, 116149, Note_on_c, 0, 52, 0
2, 116181, Note_on_c, 0, 64, 0
2, 116182, Note_on_c, 0, 68, 0
2, 116194, Note_on_c, 0, 76, 0
2, 116204, Note_on_c, 0, 71, 0
2, 116368, Control_c, 0, 64, 63
2, 116371, Control_c, 0, 64, 0
2, 116444, Note_on_c, 0, 69, 84
2, 116454, Note_on_c, 0, 57, 59
2, 116462, Control_c, 0, 64, 127
2, 116517, Note_on_c, 0, 59, 71
2, 116523, Note_on_c, 0, 57, 0
2, 116564, Note_on_c, 0, 59, 0
2, 116572, Note_on_c, 0, 60, 84
2, 116584, Note_on_c, 0, 69, 0
2, 116619, Note_on_c, 0, 60, 0
2, 116621, Note_on_c, 0, 59, 68
2, 116668, Note_on_c, 0, 72, 90
2, 116670, Note_on_c, 0, 69, 82
2, 116670, Note_on_c, 0, 57, 84
2, 116686, Note_on_c, 0, 59, 0
2, 116715, Note_on_c, 0, 69, 0
2, 116717, Note_on_c, 0, 57, 0
2, 116719, Note_on_c, 0, 72, 0
2, 116723, Note_on_c, 0, 55, 82
2, 116782, Note_on_c, 0, 55, 0
2, 116783, Note_on_c, 0, 53, 81
2, 116831, Note_on_c, 0, 53, 0
2, 116834, Note_on_c, 0, 52, 89
2, 116855, Note_on_c, 0, 72, 97
2, 116859, Note_on_c, 0, 69, 74
2, 116880, Note_on_c, 0, 69, 0
2, 116883, Note_on_c, 0, 53, 96
2, 116885, Note_on_c, 0, 72, 0
2, 116896, Note_on_c, 0, 52, 0
2, 116904, Note_on_c, 0, 72, 99
2, 116905, Note_on_c, 0, 69, 92
2, 116959, Note_on_c, 0, 53, 0
2, 116966, Note_on_c, 0, 69, 0
2, 116968, Note_on_c, 0, 55, 78
2, 116978, Note_on_c, 0, 72, 0
2, 117018, Note_on_c, 0, 57, 87
2, 117025, Note_on_c, 0, 55, 0
2, 117066, Note_on_c, 0, 55, 89
2, 117068, Note_on_c, 0, 57, 0
2, 117116, Note_on_c, 0, 72, 109
2, 117118, Note_on_c, 0, 69, 94
2, 117119, Note_on_c, 0, 53, 84
2, 117126, Note_on_c, 0, 55, 0
2, 117154, Note_on_c, 0, 69, 0
2, 117161, Note_on_c, 0, 72, 0
2, 117173, Note_on_c, 0, 52, 94
2, 117181, Note_on_c, 0, 53, 0
2, 117223, Note_on_c, 0, 50, 91
2, 117231, Note_on_c, 0, 52, 0
2, 117270, Note_on_c, 0, 48, 102
2, 117280, Note_on_c, 0, 50, 0
2, 117293, Note_on_c, 0, 72, 107
2, 117299, Note_on_c, 0, 69, 83
2, 117304, Control_c, 0, 64, 63
2, 117309, Control_c, 0, 64, 0
2, 117318, Note_on_c, 0, 69, 0
2, 117328, Note_on_c, 0, 72, 0
2, 117336, Note_on_c, 0, 50, 90
2, 117342, Note_on_c, 0, 69, 93
2, 117344, Note_on_c, 0, 71, 111
2, 117350, Note_on_c, 0, 48, 0
2, 117385, Control_c, 0, 64, 63
2, 117390, Control_c, 0, 64, 127
2, 117391, Note_on_c, 0, 52, 90
2, 117411, Note_on_c, 0, 50, 0
2, 117444, Note_on_c, 0, 52, 0
2, 117448, Note_on_c, 0, 53, 96
2, 117485, Note_on_c, 0, 69, 0
2, 117485, Note_on_c, 0, 71, 0
2, 117503, Note_on_c, 0, 52, 93
2, 117514, Note_on_c, 0, 53, 0
2, 117543, Note_on_c, 0, 50, 106
2, 117558, Note_on_c, 0, 52, 0
2, 117569, Note_on_c, 0, 69, 100
2, 117569, Note_on_c, 0, 71, 107
2, 117607, Note_on_c, 0, 47, 106
2, 117614, Note_on_c, 0, 50, 0
2, 117638, Note_on_c, 0, 71, 0
2, 117648, Note_on_c, 0, 69, 0
2, 117674, Note_on_c, 0, 48, 92
2, 117684, Note_on_c, 0, 50, 102
2, 117694, Note_on_c, 0, 47, 0
2, 117722, Note_on_c, 0, 69, 86
2, 117722, Note_on_c, 0, 71, 96
2, 117739, Note_on_c, 0, 48, 0
2, 117751, Note_on_c, 0, 52, 107
2, 117755, Note_on_c, 0, 50, 0
2, 117757, Note_on_c, 0, 69, 0
2, 117768, Note_on_c, 0, 71, 0
2, 117784, Note_on_c, 0, 71, 100
2, 117785, Note_on_c, 0, 76, 108
2, 117788, Note_on_c, 0, 68, 112
2, 117798, Control_c, 0, 64, 63
2, 117806, Control_c, 0, 64, 0
2, 117834, Note_on_c, 0, 51, 104
2, 117855, Note_on_c, 0, 52, 0
2, 117865, Control_c, 0, 64, 63
2, 117873, Control_c, 0, 64, 127
2, 117885, Note_on_c, 0, 51, 0
2, 117886, Note_on_c, 0, 52, 85
2, 117913, Note_on_c, 0, 68, 0
2, 117923, Note_on_c, 0, 76, 0
2, 117936, Note_on_c, 0, 71, 0
2, 117941, Note_on_c, 0, 51, 105
2, 117960, Note_on_c, 0, 52, 0
2, 117992, Note_on_c, 0, 51, 0
2, 117999, Note_on_c, 0, 76, 118
2, 118000, Note_on_c, 0, 71, 114
2, 118001, Note_on_c, 0, 68, 116
2, 118002, Note_on_c, 0, 52, 100
2, 118045, Note_on_c, 0, 68, 0
2, 118052, Note_on_c, 0, 71, 0
2, 118056, Note_on_c, 0, 50, 96
2, 118059, Note_on_c, 0, 76, 0
2, 118064, Note_on_c, 0, 52, 0
2, 118108, Note_on_c, 0, 48, 98
2, 118119, Note_on_c, 0, 50, 0
2, 118144, Note_on_c, 0, 47, 97
2, 118158, Note_on_c, 0, 76, 92
2, 118161, Note_on_c, 0, 71, 83
2, 118162, Note_on_c, 0, 68, 85
2, 118165, Note_on_c, 0, 48, 0
2, 118180, Note_on_c, 0, 68, 0
2, 118182, Note_on_c, 0, 71, 0
2, 118195, Note_on_c, 0, 76, 0
2, 118199, Note_on_c, 0, 47, 0
2, 118203, Note_on_c, 0, 45, 108
2, 118204, Control_c, 0, 64, 63
2, 118209, Control_c, 0, 64, 0
2, 118215, Note_on_c, 0, 72, 122
2, 118216, Note_on_c, 0, 69, 117
2, 118251, Control_c, 0, 64, 63
2, 118258, Note_on_c, 0, 47, 104
2, 118262, Control_c, 0, 64, 127
2, 118289, Note_on_c, 0, 45, 0
2, 118309, Note_on_c, 0, 69, 0
2, 118313, Note_on_c, 0, 72, 0
2, 118319, Note_on_c, 0, 47, 0
2, 118320, Note_on_c, 0, 48, 108
2, 118369, Note_on_c, 0, 47, 99
2, 118389, Note_on_c, 0, 48, 0
2, 118418, Note_on_c, 0, 45, 104
2, 118439, Note_on_c, 0, 72, 118
2, 118440, Note_on_c, 0, 81, 117
2, 118441, Note_on_c, 0, 47, 0
2, 118442, Note_on_c, 0, 69, 113
2, 118470, Note_on_c, 0, 43, 103
2, 118472, Note_on_c, 0, 45, 0
2, 118477, Note_on_c, 0, 72, 0
2, 118483, Note_on_c, 0, 69, 0
2, 118498, Note_on_c, 0, 81, 0
2, 118532, Note_on_c, 0, 41, 106
2, 118544, Note_on_c, 0, 43, 0
2, 118598, Note_on_c, 0, 41, 0
2, 118598, Note_on_c, 0, 40, 108
2, 118621, Note_on_c, 0, 72, 96
2, 118621, Note_on_c, 0, 81, 99
2, 118624, Note_on_c, 0, 69, 80
2, 118638, Note_on_c, 0, 72, 0
2, 118639, Note_on_c, 0, 81, 0
2, 118647, Note_on_c, 0, 69, 0
2, 118658, Note_on_c, 0, 41, 111
2, 118658, Note_on_c, 0, 81, 106
2, 118661, Note_on_c, 0, 72, 104
2, 118663, Note_on_c, 0, 69, 99
2, 118683, Note_on_c, 0, 40, 0
2, 118716, Note_on_c, 0, 41, 0
2, 118718, Note_on_c, 0, 43, 104
2, 118767, Note_on_c, 0, 45, 102
2, 118768, Note_on_c, 0, 69, 0
2, 118773, Note_on_c, 0, 72, 0
2, 118778, Note_on_c, 0, 43, 0
2, 118780, Note_on_c, 0, 81, 0
2, 118819, Note_on_c, 0, 43, 99
2, 118820, Note_on_c, 0, 45, 0
2, 118870, Note_on_c, 0, 41, 107
2, 118881, Note_on_c, 0, 43, 0
2, 118883, Note_on_c, 0, 81, 118
2, 118884, Note_on_c, 0, 72, 117
2, 118885, Note_on_c, 0, 69, 114
2, 118915, Note_on_c, 0, 69, 0
2, 118916, Note_on_c, 0, 72, 0
2, 118923, Note_on_c, 0, 40, 104
2, 118933, Note_on_c, 0, 41, 0
2, 118938, Note_on_c, 0, 81, 0
2, 118969, Note_on_c, 0, 38, 92
2, 118980, Note_on_c, 0, 40, 0
2, 119024, Note_on_c, 0, 36, 100
2, 119042, Note_on_c, 0, 38, 0
2, 119056, Note_on_c, 0, 81, 111
2, 119057, Note_on_c, 0, 72, 111
2, 119060, Note_on_c, 0, 69, 98
2, 119076, Note_on_c, 0, 69, 0
2, 119088, Note_on_c, 0, 72, 0
2, 119097, Note_on_c, 0, 38, 100
2, 119110, Note_on_c, 0, 77, 118
2, 119112, Note_on_c, 0, 71, 120
2, 119115, Control_c, 0, 64, 63
2, 119119, Control_c, 0, 64, 0
2, 119124, Note_on_c, 0, 36, 0
2, 119150, Note_on_c, 0, 40, 101
2, 119186, Control_c, 0, 64, 63
2, 119188, Note_on_c, 0, 38, 0
2, 119195, Control_c, 0, 64, 127
2, 119209, Note_on_c, 0, 41, 108
2, 119217, Note_on_c, 0, 40, 0
2, 119255, Note_on_c, 0, 81, 0
2, 119261, Note_on_c, 0, 71, 0
2, 119266, Note_on_c, 0, 40, 103
2, 119274, Note_on_c, 0, 77, 0
2, 119277, Note_on_c, 0, 41, 0
2, 119312, Note_on_c, 0, 38, 106
2, 119325, Note_on_c, 0, 40, 0
2, 119332, Note_on_c, 0, 77, 114
2, 119335, Note_on_c, 0, 81, 112
2, 119336, Note_on_c, 0, 71, 120
2, 119372, Note_on_c, 0, 35, 112
2, 119384, Note_on_c, 0, 38, 0
2, 119412, Note_on_c, 0, 71, 0
2, 119422, Note_on_c, 0, 81, 0
2, 119432, Note_on_c, 0, 77, 0
2, 119444, Note_on_c, 0, 36, 103
2, 119472, Note_on_c, 0, 38, 103
2, 119474, Note_on_c, 0, 35, 0
2, 119499, Note_on_c, 0, 81, 106
2, 119505, Note_on_c, 0, 71, 100
2, 119527, Note_on_c, 0, 71, 0
2, 119534, Note_on_c, 0, 36, 0
2, 119535, Note_on_c, 0, 40, 116
2, 119538, Note_on_c, 0, 81, 0
2, 119549, Note_on_c, 0, 38, 0
2, 119557, Note_on_c, 0, 71, 84
2, 119559, Note_on_c, 0, 80, 118
2, 119562, Control_c, 0, 64, 63
2, 119563, Note_on_c, 0, 77, 96
2, 119564, Note_on_c, 0, 76, 108
2, 119568, Control_c, 0, 64, 0
2, 119569, Note_on_c, 0, 72, 61
2, 119571, Note_on_c, 0, 81, 80
2, 119589, Note_on_c, 0, 77, 0
2, 119604, Note_on_c, 0, 72, 0
2, 119605, Note_on_c, 0, 39, 115
2, 119606, Control_c, 0, 64, 63
2, 119614, Note_on_c, 0, 81, 0
2, 119616, Control_c, 0, 64, 127
2, 119631, Note_on_c, 0, 40, 0
2, 119659, Note_on_c, 0, 40, 108
2, 119666, Note_on_c, 0, 39, 0
2, 119698, Note_on_c, 0, 71, 0
2, 119711, Note_on_c, 0, 80, 0
2, 119713, Note_on_c, 0, 76, 0
2, 119720, Note_on_c, 0, 39, 118
2, 119745, Note_on_c, 0, 40, 0
2, 119776, Note_on_c, 0, 71, 124
2, 119776, Note_on_c, 0, 80, 125
2, 119776, Note_on_c, 0, 76, 122
2, 119780, Note_on_c, 0, 40, 109
2, 119788, Note_on_c, 0, 39, 0
2, 119802, Note_on_c, 0, 71, 0
2, 119806, Note_on_c, 0, 76, 0
2, 119816, Note_on_c, 0, 80, 0
2, 119839, Note_on_c, 0, 38, 107
2, 119858, Note_on_c, 0, 40, 0
2, 119898, Note_on_c, 0, 36, 102
2, 119911, Note_on_c, 0, 38, 0
2, 119938, Note_on_c, 0, 35, 99
2, 119957, Note_on_c, 0, 71, 114
2, 119958, Note_on_c, 0, 76, 120
2, 119962, Note_on_c, 0, 36, 0
2, 119968, Note_on_c, 0, 80, 63
2, 119985, Note_on_c, 0, 71, 0
2, 119986, Note_on_c, 0, 76, 0
2, 119990, Note_on_c, 0, 80, 0
2, 120005, Note_on_c, 0, 33, 125
2, 120010, Note_on_c, 0, 81, 118
2, 120010, Note_on_c, 0, 72, 121
2, 120011, Note_on_c, 0, 76, 117
2, 120019, Control_c, 0, 64, 63
2, 120024, Control_c, 0, 64, 0
2, 120039, Note_on_c, 0, 35, 0
2, 120074, Note_on_c, 0, 76, 0
2, 120076, Note_on_c, 0, 72, 0
2, 120079, Note_on_c, 0, 81, 0
2, 120109, Note_on_c, 0, 33, 0
2, 120255, Note_on_c, 0, 76, 127
2, 120257, Note_on_c, 0, 72, 124
2, 120257, Note_on_c, 0, 45, 122
2, 120258, Note_on_c, 0, 69, 124
2, 120259, Note_on_c, 0, 33, 122
2, 120290, Note_on_c, 0, 69, 0
2, 120291, Note_on_c, 0, 72, 0
2, 120301, Note_on_c, 0, 76, 0
2, 120326, Note_on_c, 0, 33, 0
2, 120330, Note_on_c, 0, 45, 0
2, 120522, Note_on_c, 0, 64, 124
2, 120523, Note_on_c, 0, 72, 125
2, 120524, Note_on_c, 0, 69, 113
2, 120525, Note_on_c, 0, 33, 99
2, 120527, Note_on_c, 0, 45, 117
2, 120531, Control_c, 0, 64, 63
2, 120532, Control_c, 0, 64, 127
2, 120546, Note_on_c, 0, 64, 0
2, 120562, Note_on_c, 0, 33, 0
2, 120564, Note_on_c, 0, 45, 0
2, 120565, Note_on_c, 0, 72, 0
2, 120568, Note_on_c, 0, 69, 0
2, 120702, Control_c, 0, 64, 63
2, 120717, Control_c, 0, 64, 0
2, 121338, Control_c, 0, 67, 127
2, 121596, Control_c, 0, 67, 0
2, 121596, End_track
3, 0, Start_track
3, 0, Time_signature, 4, 2, 24, 8
3, 0, Title_t, "                                    "
3, 0, End_track
4, 0, Start_track
4, 0, Time_signature, 4, 2, 24, 8
4, 0, Title_t, "                                    "
4, 0, End_track
5, 0, Start_track
5, 0, Time_signature, 4, 2, 24, 8
5, 0, Title_t, "                                    "
5, 0, End_track
6, 0, Start_track
6, 0, Time_signature, 4, 2, 24, 8
6, 0, Title_t, "                                    "
6, 0, End_track
7, 0, Start_track
7, 0, Time_signature, 4, 2, 24, 8
7, 0, Title_t, "                                    "
7, 0, End_track
8, 0, Start_track
8, 0, Time_signature, 4, 2, 24, 8
8, 0, Title_t, "                                    "
8, 0, End_track
9, 0, Start_track
9, 0, Time_signature, 4, 2, 24, 8
9, 0, Title_t, "                                    "
9, 0, End_track
10, 0, Start_track
10, 0, Time_signature, 4, 2, 24, 8
10, 0, Title_t, "                                    "
10, 0, End_track
11, 0, Start_track
11, 0, Time_signature, 4, 2, 24, 8
11, 0, Title_t, "                                    "
11, 0, End_track
12, 0, Start_track
12, 0, Time_signature, 4, 2, 24, 8
12, 0, Title_t, "                                    "
12, 0, End_track
13, 0, Start_track
13, 0, Time_signature, 4, 2, 24, 8
13, 0, Title_t, "                                    "
13, 0, End_track
14, 0, Start_track
14, 0, Time_signature, 4, 2, 24, 8
14, 0, Title_t, "                                    "
14, 0, End_track
15, 0, Start_track
15, 0, Time_signature, 4, 2, 24, 8
15, 0, Title_t, "                                    "
15, 0, End_track
16, 0, Start_track
16, 0, Time_signature, 4, 2, 24, 8
16, 0, Title_t, "                                    "
16, 0, End_track
17, 0, Start_track
17, 0, Time_signature, 4, 2, 24, 8
17, 0, Title_t, "                                    "
17, 0, End_track
18, 0, Start_track
18, 0, Time_signature, 4, 2, 24, 8
18, 0, Title_t, "                                    "
18, 0, End_track
19, 0, Start_track
19, 0, Time_signature, 4, 2, 24, 8
19, 0, Title_t, "                                    "
19, 0, End_track
20, 0, Start_track
20, 1, Copyright_t, "___________________________________________________\012\012KUNSTDERFUGE.COM LARGE CLASSICAL MIDI COLLECTION\012ONCLASSICAL BY ALESSANDRO SIMONETTO, PROPRIETOR\012___________________________________________________\012\012! Attention: this file is under copyright !\012\012(c)onclassical, (c)oguri, 2010\012___________________________________________________\012\012NO ONE MAY REPUBLISH THIS FILE WITHOUT PERMISSION\012COMMERCIAL USES OF THIS FILE IS STRICTLY PROHIBITED\012___________________________________________________\012\012Files & contributor's list: http://kunstderfuge.com/\012Terms and conditions: http://kunstderfuge.com/notes.htm"
20, 1, End_track
0, 0, End_of_file
